<svg viewBox="0 0 512 512" xmlns="http://www.w3.org/2000/svg"><g><g><path d="m508.86 244.685-7.26-27.175-27.174-7.259c-31.833-8.508-66.086.684-89.386 23.984l-42.416 42.415 99.836 99.835 42.414-42.415c23.301-23.299 32.491-57.549 23.986-89.385z" fill="#0ba15a"/><path d="m126.961 234.235c-23.3-23.302-57.55-32.49-89.386-23.985l-27.174 7.26-7.261 27.175c-8.505 31.836.685 66.086 23.986 89.386l42.414 42.415 99.835-99.835z" fill="#0dc770"/><g><path d="m422.146 268.676c-44.379-44.38-103.384-68.82-166.146-68.82v312.144h222.262l3.167-10.767c6.329-21.512 9.537-43.855 9.537-66.411 0-62.762-24.44-121.767-68.82-166.146z" fill="#0dc770"/><path d="m89.854 268.676c-44.379 44.379-68.82 103.385-68.82 166.146 0 22.554 3.208 44.897 9.537 66.411l3.167 10.767h222.262v-312.145c-62.762 0-121.767 24.441-166.146 68.821z" fill="#0ed678"/></g></g><g><g><path d="m344.145 71.232c-9.283-42.097-80.614-68.557-88.145-71.232l-.002.001-10.008 53.789 10.008 60.543h76.644c8.558-10.907 15.35-25.66 11.503-43.101z" fill="#0ba15a"/><path d="m167.855 71.232c-3.846 17.441 2.945 32.194 11.503 43.101h76.641v-114.332c-7.54 2.678-78.861 29.137-88.144 71.231z" fill="#0dc770"/></g><g><path d="m393.261 149.247c-28.825-45.08-80.137-71.993-137.261-71.993-.001 0-.001 0-.001 0l-9.994 112.909 9.993 93.926h124.423c46.609-54.993 32.812-103.606 12.84-134.842z" fill="#fdae02"/><path d="m118.74 149.247c-19.973 31.236-33.771 79.849 12.839 134.842h124.419v-206.835c-57.123.001-108.434 26.914-137.258 71.993z" fill="#fdcb02"/></g></g><g><path d="m321.874 416-.051-91.22h-65.825l-10.001 65.828 10.001 102.859z" fill="#9ccefd"/><g><path d="m190.178 324.78v91.22h-.055-43.477c-37.362 0-67.65 30.288-67.65 67.65v28.35h54.746l122.257-19v-36.563-131.657z" fill="#afd7fd"/><g><path d="m255.998 456.437-10.001 27.782 10.001 27.781h177.006v-28.35c0-37.362-30.288-67.65-67.65-67.65h-43.48c-15.076 11.651-38.962 26.045-65.876 40.437z" fill="#ff4340"/><path d="m255.998 456.437c-40.446 21.629-87.731 43.254-122.257 55.563h122.257z" fill="#fd6717"/></g></g></g><g><path d="m172.664 306.767h-39.33c-20.619 0-37.333-16.715-37.333-37.333 0-20.619 16.715-37.333 37.333-37.333h39.33z" fill="#afd7fd"/><path d="m339.336 306.767h39.33c20.619 0 37.333-16.715 37.333-37.333 0-20.619-16.715-37.333-37.333-37.333h-39.33z" fill="#9ccefd"/><g><path d="m297.333 165.278c-8.014 0-24.679 0-41.343 0l-10.001 118.322 10.001 93.32h.01c55.965 0 101.333-45.368 101.333-101.333v-50.309c0-33.137-26.863-60-60-60z" fill="#afd7fd"/><path d="m214.667 165.278c-33.137 0-60 26.863-60 60v50.309c0 55.962 45.363 101.328 101.324 101.333v-211.642c-16.658 0-33.313 0-41.324 0z" fill="#c4e2fe"/></g><g><path d="m271.157 284.089c-3.124 5.4-8.932 8.755-15.157 8.755l-4 13.937 4 16.063c16.898 0 32.656-9.094 41.125-23.732z" fill="#f3e8e5"/><path d="m240.844 284.09-25.969 15.02c8.467 14.639 24.225 23.733 41.125 23.733v-30c-6.225.001-12.034-3.353-15.156-8.753z" fill="#fff7f7"/></g><g><path d="m270.998 195.979h-15.008l-3 15 3 15h15.008z" fill="#fd7cb7"/><path d="m240.998 195.979h14.992v30h-14.992z" fill="#fd93ef"/></g></g><g><path d="m290.159 117.139c0-33.054-34.15-48.135-34.159-48.139l-7.808 48.139 7.808 48.139c.008-.004 34.159-15.085 34.159-48.139z" fill="#fd7cb7"/><path d="m256 69s-34.159 14.96-34.159 48.139c0 33.178 34.159 48.139 34.159 48.139z" fill="#fd93ef"/></g></g></svg>