<svg viewBox="0 0 511.999 511.999" xmlns="http://www.w3.org/2000/svg"><g><g><path d="m358.073 357.665-26.525 47.048 52.126 107.286h33.821c35.751 0 64.836-29.085 64.836-64.836 0-12.642-4.097-40.538-30.218-89.498z" fill="#fdae02"/><path d="m448.633 265.999c-24.545 0-44.442 19.898-44.442 44.442 0-24.545-19.898-44.442-44.442-44.442h-28.2v57.839c0 24.545 19.897 44.442 44.442 44.442h56.4c24.545 0 44.442-19.897 44.442-44.442v-57.839z" fill="#fd8c02"/></g><g><path d="m149.417 311.999h-81.474c-.615 3.659-.935 7.379-.935 11.147 0 11.959-2.961 17.189-7.059 24.43-4.878 8.619-10.949 19.346-10.949 39.205 0 19.86 6.071 30.589 10.95 39.208 3.418 6.04 6.038 10.696 6.815 19.01h82.652z" fill="#444"/><path d="m263.929 311.999h81.473c.616 3.659.935 7.379.935 11.147 0 11.959 2.961 17.189 7.059 24.43 4.878 8.62 10.95 19.347 10.95 39.206 0 19.86-6.071 30.589-10.95 39.208-3.418 6.04-6.038 10.696-6.815 19.01h-82.652z" fill="#292929"/></g><g><g><path d="m324.498 95.218c-12.409-56.273-107.76-91.642-117.826-95.218l-.003.001-13.378 71.902 13.378 80.93h102.453c11.439-14.58 20.518-34.301 15.376-57.615z" fill="#fdcb02"/><path d="m88.845 95.218c-5.141 23.314 3.937 43.035 15.376 57.615h102.448v-152.832c-10.078 3.58-105.415 38.949-117.824 95.217z" fill="#f8e837"/></g><g><path d="m341.543 147.994c-28.323-44.295-78.742-70.74-134.871-70.74-.001 0-.001 0-.002 0l-9.819 110.944 9.819 92.291h122.257c45.797-54.036 32.241-101.803 12.616-132.495z" fill="#fdae02"/><path d="m71.801 147.994c-19.626 30.692-33.183 78.459 12.615 132.495h122.254v-203.235c-56.129.001-106.547 26.445-134.869 70.74z" fill="#fdcb02"/></g></g><path d="m96.939 264.55s-35.542 15.566-35.542 50.089c1.455 45.147 69.614 45.147 71.085 0-.001-34.397-35.543-50.089-35.543-50.089z" fill="#f7f0eb"/><path d="m316.404 264.55s35.542 15.566 35.542 50.089c-1.455 45.147-69.614 45.147-71.085 0 .001-34.397 35.543-50.089 35.543-50.089z" fill="#efe2dd"/><g><g><path d="m302.492 416.151c0-.051 13.532-.152 13.532-.152 37.362 0 67.65 30.288 67.65 67.65v28.35h-177.005z" fill="#7fc0fd"/><path d="m110.85 416.151c0-.051-13.532-.152-13.532-.152-37.362 0-67.65 30.288-67.65 67.65v28.35h177.005z" fill="#9ccefd"/></g><g><path d="m206.671 511.999-10.001-14.999 10.001-25.002 65.821-55.847c0-.049.022-.102.028-.152h29.969c0 .051.003.101.003.152 0 52.841-42.982 95.832-95.821 95.848z" fill="#f3e8e5"/><path d="m206.671 511.999v-40.001l-65.821-55.847c0-.049-.021-.102-.028-.152h-29.97c0 .051-.003.101-.003.152.001 52.841 42.983 95.832 95.822 95.848z" fill="#fff7f7"/></g><g><path d="m206.671 481.998-10.001-78.61 10.001-78.61h65.821v91.22h.028c-.006.05-.028.102-.028.152 0 36.358-29.467 65.833-65.821 65.848z" fill="#7fc0fd"/><path d="m206.671 481.998v-157.219h-65.821v91.22h-.028c.006.05.028.102.028.152 0 36.357 29.467 65.832 65.821 65.847z" fill="#9ccefd"/></g></g><g><path d="m248.005 190.568c-8.013 0-24.672 0-41.332 0l-10.001 85.703 10.001 86.935c55.964-.001 101.331-45.369 101.331-101.333v-11.305c.001-33.137-26.862-60-59.999-60z" fill="#afd7fd"/><path d="m165.338 190.568c-33.137 0-60 26.863-60 60v11.305c0 55.964 45.368 101.333 101.333 101.333h.002v-172.638c-16.661 0-33.322 0-41.335 0z" fill="#c4e2fe"/></g><g><path d="m247.796 283.388-25.968-15.021c-3.124 5.399-8.931 8.753-15.156 8.754l-10.001 13.367 10.001 16.633c16.899-.001 32.656-9.095 41.124-23.733z" fill="#f3e8e5"/><path d="m206.671 277.12c-6.226 0-12.034-3.354-15.157-8.753l-25.969 15.02c8.467 14.64 24.226 23.733 41.126 23.733h.001v-30z" fill="#fff7f7"/></g><g><path d="m244.605 134.968c0-20.95-16.982-37.933-37.932-37.934l-10.001 38.298 10.001 37.569c20.95-.001 37.932-16.984 37.932-37.933z" fill="#fd7cb7"/><path d="m206.672 97.034c-20.95 0-37.934 16.984-37.934 37.934s16.983 37.934 37.934 37.934c0 0 .001-.001.002-.001v-75.867c-.001 0-.002 0-.002 0z" fill="#fd93ef"/></g></g></svg>