<svg viewBox="0 0 512 512" xmlns="http://www.w3.org/2000/svg"><g><g><path d="m289.82 0h30v433.621h-30z" fill="#c8beb9"/><path d="m509.645 202.333-5.288-18.74c-12.493-44.275-38.683-84.12-73.746-112.195-36.427-29.168-79.925-44.585-125.791-44.585s-89.364 15.417-125.791 44.585c-35.064 28.075-61.253 67.921-73.746 112.195l-5.288 18.74z" fill="#fd6717"/><path d="m394.254 202.333-2.309-18.74c-5.455-44.275-16.89-84.12-32.2-112.195-15.905-29.168-34.898-44.585-54.925-44.585s-39.02 15.417-54.925 44.585c-15.31 28.075-26.745 67.921-32.2 112.195l-2.309 18.74z" fill="#fd8c02"/></g><g><g><path d="m245.234 416-.051-91.22h-65.825l-7.601 91.22 7.601 80.441z" fill="#e3a76f"/><path d="m113.537 324.78v91.22h-.055-43.477c-37.362 0-67.65 30.288-67.65 67.65v28.35h54.746l122.257-15.559v-171.661z" fill="#eb8"/></g><g><path d="m179.358 456.437-10.001 27.782 10.001 27.781h177.006v-28.35c0-37.362-30.288-67.65-67.65-67.65h-43.48c-15.076 11.651-38.963 26.045-65.876 40.437z" fill="#efe2dd"/><path d="m179.358 456.437c-40.445 21.629-87.731 43.254-122.257 55.563h122.257z" fill="#f7f0eb"/></g></g><g><path d="m97.303 202.667h-31.829c-20.619 0-37.333 16.715-37.333 37.333s16.715 37.333 37.333 37.333h31.829z" fill="#eb8"/><path d="m260.214 202.667h31.829c20.619 0 37.333 16.715 37.333 37.333s-16.715 37.333-37.333 37.333h-31.829z" fill="#e3a76f"/></g><g><g><path d="m209.921 131.125-16.162-3.125h-14.382l-10.001 120.145 10.001 115.801c55.679-.333 100.714-45.567 100.714-101.325v-68.125c0-33.269-24.433-60.832-56.334-65.724z" fill="#eb8"/><path d="m148.296 131.5-14.536-2.728c-31.901 4.892-56.334 32.455-56.334 65.724v68.126c0 55.964 45.368 101.332 101.333 101.332.207 0 .412-.006.619-.008v-235.946h-15.619z" fill="#f2d1a5"/></g><g><path d="m213.596 128h-19.837v55.333c0 8.062-6.398 14.641-14.381 14.969l-10.001 13.966 10.001 16.05c24.528-.334 44.381-20.378 44.381-44.984v-54.56c-3.314-.509-6.708-.774-10.163-.774z" fill="#f3e8e5"/><path d="m178.758 198.333c-8.272 0-15-6.728-15-15v-55.333h-19.837c-3.456 0-6.849.265-10.163.773v54.56c0 24.814 20.186 45 45 45 .207 0 .412-.013.619-.016v-30.016c-.206.009-.41.032-.619.032z" fill="#fff7f7"/></g><g><path d="m219.883 286.133-25.967-15.023c-3.021 5.222-8.55 8.521-14.539 8.735l-10.001 13.21 10.001 16.79c16.662-.22 32.141-9.253 40.506-23.712z" fill="#f3e8e5"/><path d="m178.758 279.865c-6.226 0-12.033-3.354-15.156-8.755l-25.969 15.021c8.468 14.64 24.227 23.733 41.125 23.733.207 0 .412-.018.619-.021v-30c-.206.009-.411.022-.619.022z" fill="#fff7f7"/></g></g></g></svg>