<svg viewBox="0 0 511.997 511.997" xmlns="http://www.w3.org/2000/svg"><g><path d="m427.57 280.084c21.289-80.538-47.406-121.314-47.406-121.314h-132.115l20 121.314z" fill="#2d2d2d"/><path d="m108.529 280.084c-21.289-80.538 47.406-121.314 47.406-121.314h112.114v121.314z" fill="#4b5055"/><path d="m395.293 256.295c35.137 0 63.622 28.484 63.622 63.622v192.081h-71.346l-20-110.631 20-145.071h7.724z" fill="#2ea8e6"/><path d="m318.121 276.295 34.999-20h34.449v255.702h-49.448z" fill="#e62e6b"/><path d="m77.184 319.917c0-35.137 28.484-63.622 63.622-63.622h7.724l20 127.851-20 127.851h-71.346z" fill="#2ec7e6"/><path d="m217.979 276.295-20 235.702h-49.449v-255.702h34.448z" fill="#ff415b"/><path d="m338.12 276.295h-90.07l20 235.702h70.07z" fill="#2ea8e6"/><path d="m197.979 276.295h70.071v235.702h-70.071z" fill="#2ec7e6"/><path d="m337.022 268.721-13.901-12.426h-74.909l20 70.067c34.386-.078 62.955-24.921 68.81-57.641z" fill="#2e8ae6"/><path d="m212.978 256.295-13.576 14.122c6.534 31.93 34.786 55.949 68.647 55.949.055 0 .108-.004.163-.004v-70.067z" fill="#2ea8e6"/><path d="m253.049 390.815h30v47.717h-30z" fill="#fe9"/><path d="m323.12 256.295c0 30.366-24.705 55.071-55.071 55.071l-20 15 20 15c38.654 0 71.369-25.914 81.686-61.281z" fill="#fd3"/><path d="m268.049 311.366c-30.366 0-55.071-24.705-55.071-55.071l-26.227 25.084c10.729 34.704 43.116 59.988 81.297 59.988z" fill="#fe9"/><path d="m323.121 256.295v60c0 30.366-24.705 55.071-55.071 55.071l-20 15 20 15c46.909 0 85.071-38.163 85.071-85.071v-60z" fill="#ffc34d"/><path d="m268.049 371.366c-30.366 0-55.071-24.705-55.071-55.071v-60h-30v60c0 46.908 38.163 85.071 85.071 85.071z" fill="#fd3"/><path d="m316.542 32.716h-48.492l-20 119.281 20 119.298c61.661.421 112.114-50.86 112.114-112.523v-62.434c0-35.137-28.485-63.622-63.622-63.622z" fill="#2ea8e6"/><path d="m53.083 32.716v63.622c0 26.353 21.363 47.716 47.716 47.716v31.811c0 17.569 13.978 31.811 31.221 31.811h36.188c17.766 37.395 55.758 63.318 99.841 63.619v-238.579z" fill="#2ec7e6"/><path d="m178.852 159.055c-34.094 0-61.832-28.135-61.832-62.717v-96.338h30v96.338c0 18.04 14.28 32.717 31.832 32.717z" fill="#fff5f5"/><path d="m253.049 81.338h30v30h-30z" fill="#2d2d2d"/><path d="m367.638 158.773h60.242v-14.718c0-26.353-21.363-47.716-47.716-47.716h-44.337v30.624c0 17.567 14.242 31.81 31.811 31.81z" fill="#2e8ae6"/></g></svg>