<svg xmlns="http://www.w3.org/2000/svg" viewBox="0 0 1024 1024">
<g transform="translate(0,1024) scale(0.1,-0.1)">
<path fill="currentColor" d="M1378 10018 c-359 -523 -569 -881 -683 -1167 -67 -168 -86 -252 -90
-381 -4 -182 62 -384 180 -545 14 -19 12 -25 -27 -75 -79 -105 -141 -265 -152
-397 -3 -26 -5 -1028 -5 -2225 l-1 -2178 -300 0 -301 0 1 -363 c1 -199 5 -382
10 -407 4 -25 11 -61 14 -81 18 -116 103 -317 187 -440 99 -146 283 -307 443
-387 84 -42 234 -96 291 -105 17 -3 48 -8 70 -12 52 -8 100 -13 150 -14 39 -1
41 -2 41 -33 0 -40 12 -165 18 -193 56 -262 152 -441 330 -621 202 -203 462
-328 730 -351 106 -9 5566 -9 5672 0 173 15 360 79 521 179 109 67 290 243
358 348 122 188 192 408 199 622 1 20 4 39 6 41 3 3 41 8 85 11 77 6 98 9 155
21 14 3 34 7 45 9 54 10 189 62 270 104 218 112 404 300 514 518 45 90 83 194
100 276 6 29 14 64 18 78 3 14 8 199 10 413 l5 387 -301 0 -301 0 -1 2183 c0
1200 -3 2202 -5 2227 -12 126 -76 287 -153 390 -38 50 -40 56 -26 75 81 111
155 287 172 406 14 100 7 239 -16 329 -66 253 -281 662 -594 1130 -121 181
-260 384 -277 403 -8 9 -193 -254 -354 -502 -279 -427 -460 -781 -528 -1031
-31 -115 -31 -297 1 -415 24 -89 93 -239 139 -299 l29 -39 -57 -86 c-66 -98
-105 -191 -125 -294 -7 -40 -14 -73 -14 -74 -1 -2 -1 -993 -1 -2203 l0 -2200
-425 0 -425 0 21 53 c61 149 127 354 145 447 3 14 7 33 10 42 3 9 6 25 8 35 9
50 17 90 21 113 3 14 8 48 11 75 3 28 7 55 9 62 10 30 20 225 20 383 0 225
-14 386 -50 560 -3 14 -8 41 -11 60 -3 19 -8 38 -10 41 -2 3 -6 19 -9 36 -12
72 -78 280 -128 404 -60 148 -113 258 -183 375 l-45 78 180 723 c100 398 181
724 181 726 0 1 -98 2 -217 2 -120 -1 -220 3 -223 7 -3 4 -3 36 1 70 7 66 4
375 -4 418 -3 14 -8 43 -11 65 -40 272 -141 501 -291 663 -147 159 -335 243
-545 243 -52 0 -106 -2 -120 -6 -14 -3 -41 -8 -60 -11 -136 -23 -354 -148
-508 -291 l-53 -50 -52 50 c-163 156 -381 272 -568 302 -104 17 -249 5 -342
-26 -333 -112 -557 -444 -621 -919 -13 -98 -15 -444 -3 -495 5 -20 0 -20 -217
-20 -210 0 -221 -1 -219 -19 1 -11 81 -337 178 -725 l176 -707 -46 -78 c-155
-263 -291 -628 -340 -911 -3 -16 -9 -55 -14 -85 -27 -152 -36 -280 -36 -480 0
-153 9 -332 19 -387 2 -10 7 -40 10 -68 4 -27 9 -57 11 -65 2 -8 6 -31 9 -50
23 -148 112 -446 180 -602 l16 -38 -425 0 -425 0 0 2200 c0 1210 -1 2203 -2
2208 -1 4 -7 37 -14 74 -22 116 -86 253 -160 341 l-24 28 40 58 c53 78 106
194 132 289 30 115 30 299 0 412 -83 306 -323 742 -743 1351 -71 104 -131 189
-133 189 -2 0 -59 -82 -128 -182z m218 -1060 c139 -250 216 -439 209 -512 -17
-166 -141 -277 -307 -273 -121 3 -215 65 -265 174 -31 68 -32 139 -3 223 27
80 128 288 211 434 72 127 56 132 155 -46z m7216 22 c148 -265 221 -441 220
-528 -1 -103 -72 -207 -173 -255 -155 -73 -356 12 -407 173 -34 107 -14 185
116 441 108 212 161 304 172 292 5 -4 37 -60 72 -123z m-4360 -860 c93 -26
240 -157 353 -315 74 -102 179 -307 224 -438 17 -49 31 -92 31 -95 0 -9 -906
-9 -914 -1 -10 9 -20 147 -20 259 0 234 41 404 124 518 54 76 113 96 202 72z
m1475 -10 c86 -52 160 -223 180 -413 12 -123 5 -399 -11 -426 -3 -5 -377 -7
-408 -2 -5 0 -8 7 -8 15 0 54 -114 383 -178 515 -33 68 -36 61 66 164 143 145
274 199 359 147z m-4224 -565 c42 -19 79 -63 94 -110 6 -16 10 -129 10 -251
l0 -220 -301 0 -301 1 0 230 1 231 27 47 c47 80 88 93 286 92 119 -1 153 -5
184 -20z m7234 -3 c28 -15 51 -38 70 -69 l27 -47 1 -228 c0 -147 -3 -229 -10
-231 -5 -2 -140 -3 -300 -3 l-290 1 -1 219 c-1 121 3 235 8 254 12 43 74 105
118 118 19 5 102 9 185 9 133 -1 155 -4 192 -23z m-2560 -895 c-3 -7 -35 -134
-72 -282 -36 -149 -69 -278 -71 -287 -5 -17 -67 -18 -1114 -18 l-1108 0 -7 28
c-5 15 -9 32 -11 37 -1 6 -7 30 -13 55 -7 25 -13 52 -15 60 -3 8 -9 35 -15 60
-7 25 -13 52 -15 60 -3 8 -9 35 -15 60 -7 25 -13 52 -15 60 -6 21 -26 101 -31
123 -2 10 -7 27 -10 38 -6 19 16 19 1255 19 1029 0 1261 -2 1257 -13z m-4571
-584 l-1 -298 -300 0 -300 0 0 298 0 297 301 0 301 0 -1 -297z m7229 0 l0
-298 -300 0 -300 0 -1 298 -1 297 301 0 301 0 0 -297z m-2674 -718 c82 -156
162 -368 194 -514 3 -11 7 -30 10 -42 2 -11 6 -28 9 -37 3 -9 8 -35 11 -57 4
-22 10 -61 14 -87 4 -27 8 -49 7 -49 -1 -1 -670 -2 -1487 -3 l-1486 -1 4 35
c30 248 153 613 279 827 l25 43 1181 -2 1181 -3 58 -110z m-4556 -1240 l0
-1050 -300 0 -300 0 -1 1045 c0 575 1 1048 2 1051 2 3 137 5 301 5 l298 -1 0
-1050z m7230 0 l0 -1050 -301 -3 -301 -2 0 1047 c0 577 1 1050 3 1053 1 3 137
6 301 5 l298 0 0 -1050z m-2428 -162 c-3 -5 -7 -30 -11 -58 -19 -159 -81 -378
-160 -570 -36 -86 -107 -226 -128 -252 -15 -19 -2361 -19 -2376 0 -65 80 -227
484 -256 639 -9 50 -37 204 -40 226 l-3 22 1489 0 c819 0 1487 -3 1485 -7z
m3028 -1551 c-23 -234 -172 -433 -382 -509 -35 -12 -75 -26 -90 -29 -16 -4
-1826 -8 -4025 -8 -3357 -2 -4007 0 -4064 12 -111 22 -208 75 -294 162 -106
105 -160 221 -175 372 l-5 53 4520 0 4520 0 -5 -53z m-1208 -1219 c-11 -134
-69 -256 -172 -358 -79 -79 -157 -124 -265 -154 l-74 -21 -2796 0 c-1919 1
-2811 4 -2845 11 -27 6 -88 29 -133 51 -118 56 -214 152 -270 268 -42 88 -62
163 -62 230 l0 40 3311 0 3312 0 -6 -67z"/>
</g>
</svg>
