<svg xmlns="http://www.w3.org/2000/svg" viewBox="0 0 1024 1024">
<g transform="translate(0,1024) scale(0.1,-0.1)">
<path fill="currentColor" d="M9214 9599 c-114 -43 -180 -138 -195 -280 -14 -142 -79 -235 -193
-278 -45 -17 -81 -19 -312 -20 -143 -1 -269 -3 -280 -5 -10 -2 -40 -7 -66 -10
-128 -17 -300 -95 -416 -189 -125 -101 -244 -277 -291 -430 -28 -92 -36 -146
-36 -252 0 -79 4 -97 28 -147 79 -160 278 -214 431 -118 84 53 128 141 139
273 10 116 84 216 191 256 45 17 81 19 306 21 140 1 269 3 285 4 216 24 410
118 562 273 116 118 204 287 238 458 4 17 8 73 10 125 4 111 -13 171 -70 238
-76 88 -219 123 -331 81z M2249 8197 c-79 -30 -137 -93 -182 -200 -152 -364
-218 -759 -184 -1104 l7 -73 -203 -1 c-232 -1 -234 -1 -304 -35 -94 -45 -163
-157 -163 -261 0 -34 50 -197 181 -590 l181 -544 -67 -102 c-112 -171 -195
-360 -245 -557 -36 -144 -45 -226 -45 -405 0 -135 8 -253 20 -287 2 -7 6 -29
9 -48 9 -59 54 -216 85 -295 l29 -75 -552 -1 c-303 0 -562 -2 -576 -5 -49 -9
-130 -56 -165 -96 -71 -84 -75 -105 -71 -448 2 -168 7 -321 11 -340 89 -421
366 -734 761 -860 l71 -23 12 -61 c41 -201 160 -445 301 -616 243 -294 581
-482 963 -538 68 -9 5914 -9 5992 1 313 39 638 200 866 429 195 197 350 476
400 725 l13 62 70 22 c171 51 324 145 456 278 156 157 256 347 305 581 4 19 9
172 11 340 3 284 2 309 -16 356 -28 70 -80 128 -148 161 l-57 28 -397 3 c-219
2 -398 5 -398 7 0 2 15 30 34 62 66 114 118 261 146 415 16 89 19 157 19 488
0 358 -1 389 -20 436 -27 70 -79 128 -147 161 l-57 28 -318 3 -319 3 7 27 c65
255 45 446 -70 672 -113 223 -525 967 -554 1002 -71 85 -218 119 -330 76 -99
-38 -120 -68 -409 -598 -145 -267 -277 -515 -293 -552 -78 -180 -92 -368 -43
-562 8 -32 13 -60 11 -62 -2 -2 -140 -4 -308 -5 -281 -1 -308 -2 -358 -21 -75
-28 -142 -97 -170 -174 -22 -58 -23 -64 -18 -469 2 -225 7 -423 11 -440 29
-127 52 -208 81 -278 32 -80 78 -172 96 -191 5 -6 9 -14 9 -18 0 -4 -213 -8
-474 -8 l-473 0 35 93 c80 212 112 405 107 642 -2 88 -6 171 -9 185 -3 14 -9
45 -12 70 -28 206 -142 489 -280 696 l-55 84 181 546 c170 509 182 551 177
603 -9 112 -68 201 -165 248 l-57 28 -263 3 -263 3 7 97 c15 199 5 389 -31
562 -3 14 -8 39 -11 55 -27 152 -138 479 -187 550 -31 45 -75 82 -126 107 -37
18 -63 23 -126 23 -74 -1 -89 -5 -198 -53 -247 -108 -521 -283 -680 -435 l-37
-36 -63 56 c-153 137 -307 240 -524 350 -248 125 -328 143 -444 100z m388
-759 c96 -66 162 -119 222 -178 65 -64 64 -56 26 -163 -19 -53 -37 -107 -39
-119 -3 -13 -10 -43 -16 -68 -5 -25 -12 -55 -15 -67 -5 -23 -8 -23 -160 -23
-85 0 -155 3 -156 8 0 4 -3 18 -5 32 -33 174 -23 409 27 603 5 20 13 37 17 37
5 0 49 -28 99 -62z m1403 10 c6 -29 13 -69 16 -88 3 -19 7 -37 9 -40 15 -24
23 -319 11 -385 -3 -16 -8 -48 -12 -72 l-6 -43 -315 0 -315 0 7 33 c29 131
168 330 324 464 72 61 246 183 262 183 4 0 12 -24 19 -52z m660 -1235 c-1 -5
-44 -138 -98 -298 l-97 -290 -1185 0 -1185 0 -97 290 c-54 160 -97 293 -98
298 0 4 621 7 1380 7 759 0 1380 -3 1380 -7z m3085 -239 c21 -38 51 -93 66
-121 16 -29 43 -79 60 -110 89 -161 102 -206 85 -293 -34 -170 -206 -269 -370
-213 -138 47 -221 211 -176 348 10 32 218 423 257 484 l15 23 12 -24 c7 -14
30 -56 51 -94z m-3169 -1002 c84 -126 130 -231 171 -390 24 -95 27 -125 27
-262 0 -128 -4 -172 -23 -249 -38 -154 -111 -318 -187 -418 l-25 -33 -1262 0
-1263 0 -37 58 c-82 124 -141 270 -174 426 -18 87 -24 304 -10 391 26 165 104
355 196 483 l31 42 1263 0 1262 -1 31 -47z m4204 -542 c-2 -254 -24 -349 -115
-490 -74 -115 -165 -193 -298 -255 -136 -63 -156 -65 -707 -62 -272 2 -511 7
-530 11 -161 36 -335 155 -429 296 -95 141 -118 238 -120 498 l-2 192 1101 0
1101 0 -1 -190z m819 -1497 c-3 -147 -43 -252 -130 -347 -63 -69 -130 -112
-222 -142 l-72 -23 -4090 0 c-4459 -1 -4130 -5 -4254 55 -32 16 -84 55 -122
93 -102 103 -144 206 -148 364 l-2 87 4521 0 4521 0 -2 -87z m-879 -1137
c-105 -276 -358 -490 -658 -556 -85 -19 -161 -19 -3002 -17 -1603 1 -2928 6
-2945 10 -330 83 -551 264 -670 550 l-15 37 3650 0 3650 0 -10 -24z"/>
</g>
</svg>
