<svg xmlns="http://www.w3.org/2000/svg" viewBox="0 0 1024 1024">
<g transform="translate(0,1024) scale(0.1,-0.1)">
<path fill="currentColor" d="M6590 10221 c-64 -34 -100 -96 -95 -162 4 -50 19 -75 102 -164 271
-292 368 -621 269 -913 -27 -82 -98 -215 -153 -289 -71 -93 -127 -149 -373
-368 -380 -339 -576 -567 -703 -820 -58 -117 -108 -256 -116 -327 -1 -6 -962
-748 -2456 -1895 -326 -251 -468 -366 -487 -395 -92 -139 65 -316 212 -240 19
10 379 283 800 607 421 324 1010 778 1309 1008 300 230 550 421 556 423 6 3
11 -6 11 -18 1 -43 14 -207 19 -220 4 -15 16 -92 18 -126 2 -19 -148 -138
-943 -750 -622 -480 -950 -738 -963 -760 -33 -56 -28 -132 13 -188 39 -55 129
-79 195 -54 15 6 423 315 908 688 485 373 887 682 894 686 8 4 25 -22 51 -77
22 -46 56 -112 76 -146 20 -34 36 -66 36 -71 0 -5 -420 -332 -932 -727 -840
-646 -937 -718 -968 -717 -37 1 -232 14 -290 19 -19 2 -82 6 -140 10 -58 4
-121 8 -140 10 -19 2 -84 6 -145 10 -60 4 -126 8 -145 10 -19 2 -75 6 -125 9
-147 10 -237 17 -290 21 -27 2 -95 7 -150 10 -55 4 -116 8 -135 10 -31 3 -168
12 -291 19 -60 4 -145 -19 -194 -51 -32 -22 -651 -496 -1559 -1196 -220 -170
-256 -219 -262 -357 -7 -154 82 -284 228 -334 34 -11 101 -17 230 -21 101 -3
246 -7 323 -10 194 -6 620 -18 677 -19 27 0 48 -3 48 -6 0 -3 -9 -18 -20 -35
-76 -111 -100 -283 -60 -416 78 -257 351 -410 607 -339 37 10 69 18 70 17 1
-1 -12 -57 -27 -124 -16 -67 -31 -132 -34 -145 -2 -13 -36 -157 -75 -321 -39
-164 -73 -308 -75 -320 -2 -12 -11 -49 -19 -82 -9 -33 -18 -71 -21 -85 -2 -14
-10 -46 -16 -73 -27 -105 12 -242 91 -319 66 -64 139 -93 235 -93 73 0 87 3
148 35 37 20 437 321 910 685 620 478 853 663 880 699 36 48 60 112 72 191 3
22 12 72 20 110 8 39 17 86 20 105 3 19 12 67 20 105 8 39 17 86 20 105 3 19
12 67 20 105 8 39 17 86 20 105 3 19 12 67 20 105 8 39 17 86 20 105 3 19 12
67 20 105 8 39 17 86 20 105 3 19 12 67 20 105 8 39 17 86 20 105 3 19 12 65
20 102 7 37 16 82 19 100 3 18 12 67 20 108 22 108 23 113 30 165 l7 46 972
747 c534 412 976 751 983 755 7 5 54 -17 112 -52 55 -33 124 -73 155 -88 31
-15 56 -30 56 -34 0 -3 -436 -342 -969 -753 -869 -669 -972 -751 -991 -791
-37 -75 -12 -163 58 -210 49 -32 109 -38 159 -15 21 10 508 380 1082 822
l1045 805 55 -15 c31 -8 61 -15 66 -16 129 -28 161 -34 230 -42 28 -4 57 -8
65 -10 8 -1 19 -3 25 -3 5 -1 -2 -9 -15 -18 -59 -41 -2888 -2219 -2919 -2247
-60 -56 -75 -121 -45 -195 33 -83 146 -126 223 -86 18 9 776 589 1685 1288
l1651 1271 108 22 c370 78 691 227 992 463 105 83 335 315 412 416 274 363
427 719 508 1180 26 153 27 551 1 680 -2 11 -7 43 -10 70 -14 99 -58 290 -98
419 -186 608 -551 1167 -1073 1646 -173 159 -380 318 -423 326 -106 20 -195
-41 -209 -142 -2 -17 5 -66 16 -110 42 -166 50 -238 46 -404 -2 -80 -6 -158
-10 -175 -18 -87 -47 -205 -50 -205 -2 0 -14 33 -26 73 -141 474 -480 909
-919 1177 -197 121 -458 224 -677 269 -123 25 -148 26 -193 2z m609 -515 c239
-121 497 -355 646 -586 170 -262 277 -603 300 -945 3 -49 8 -106 11 -125 12
-77 96 -141 175 -135 88 7 135 61 243 280 108 217 183 452 212 665 3 25 8 53
10 63 1 9 6 63 10 120 3 56 7 103 8 104 3 4 197 -188 256 -253 86 -95 101
-113 181 -219 325 -429 524 -885 624 -1430 21 -111 27 -393 12 -530 -49 -441
-244 -873 -544 -1204 -203 -225 -512 -435 -808 -548 -86 -33 -310 -95 -387
-107 -198 -31 -489 -27 -668 9 -14 3 -38 8 -55 11 -61 10 -212 53 -299 85
-108 39 -351 160 -350 174 2 12 625 494 639 495 6 0 41 -21 79 -46 86 -58 195
-108 302 -139 102 -30 174 -39 284 -39 72 1 96 5 145 28 69 31 128 84 157 140
40 77 588 1550 596 1600 30 196 -124 377 -323 379 -53 1 -203 -10 -245 -18 -8
-1 -51 -6 -94 -10 -43 -4 -86 -8 -95 -10 -9 -1 -54 -6 -101 -10 -47 -4 -92 -8
-100 -10 -8 -2 -53 -6 -100 -10 -47 -4 -92 -8 -100 -10 -8 -1 -51 -6 -94 -10
-43 -4 -86 -8 -95 -10 -9 -1 -52 -6 -96 -9 -44 -4 -91 -9 -105 -11 -14 -2 -56
-6 -95 -10 -38 -3 -86 -8 -105 -10 -19 -2 -62 -7 -95 -10 -133 -13 -152 -17
-212 -46 -95 -45 -155 -127 -182 -244 -20 -91 -23 -119 -26 -223 -3 -125 16
-246 56 -366 16 -49 26 -93 22 -97 -21 -20 -739 -569 -745 -569 -3 0 -31 48
-61 108 -167 326 -220 702 -151 1065 68 356 243 603 749 1052 105 94 89 80
199 179 238 216 409 517 449 791 30 205 2 422 -78 608 -18 42 -31 77 -29 77 2
0 35 -15 73 -34z m1441 -2485 c0 -4 -123 -338 -274 -742 l-274 -734 -63 2
c-117 4 -280 70 -409 166 -214 159 -441 467 -520 704 -44 135 -57 304 -30 403
10 36 14 40 43 41 18 0 40 2 50 4 9 2 50 6 90 10 39 4 79 8 87 10 8 2 49 6 90
10 41 4 82 9 91 10 9 2 52 6 95 10 43 4 86 9 94 10 8 2 49 6 90 10 41 4 82 8
90 10 8 2 44 6 80 10 36 3 76 8 90 10 14 2 59 7 100 10 41 4 82 8 90 10 8 2
49 6 90 10 41 4 82 8 90 10 8 2 49 6 90 10 41 4 76 8 77 9 6 6 43 3 43 -3z
m-1588 -1211 c31 -41 68 -88 83 -104 24 -29 25 -31 8 -47 -10 -9 -742 -575
-1628 -1256 -885 -681 -2033 -1565 -2550 -1963 -517 -398 -958 -734 -980 -746
-145 -80 -298 94 -203 232 13 19 650 516 1443 1126 781 600 1942 1494 2580
1985 1147 883 1160 893 1175 871 8 -13 41 -57 72 -98z m-4782 -2035 c19 -2 82
-6 140 -10 58 -4 123 -8 145 -10 22 -2 81 -6 130 -10 195 -13 242 -16 295 -20
30 -2 93 -7 140 -10 47 -3 110 -8 140 -10 30 -2 93 -7 140 -10 47 -4 86 -8 87
-9 1 -1 -352 -274 -784 -606 l-786 -605 -61 1 c-57 1 -619 14 -806 19 -47 1
-224 6 -395 10 -171 4 -311 8 -311 8 -1 1 370 289 825 640 l826 637 120 -6
c66 -3 136 -7 155 -9z m1830 -932 c-5 -21 -11 -55 -14 -75 -3 -21 -10 -57 -15
-80 -5 -24 -12 -59 -15 -78 -3 -19 -8 -46 -11 -60 -15 -76 -25 -128 -29 -152
-3 -15 -12 -63 -20 -105 -9 -43 -17 -89 -20 -103 -2 -14 -18 -97 -35 -185 -17
-88 -33 -173 -36 -190 -2 -16 -7 -41 -10 -55 -2 -14 -9 -47 -15 -75 -5 -27
-12 -65 -15 -83 -15 -92 -37 -178 -48 -188 -7 -6 -358 -280 -782 -609 -423
-329 -791 -615 -817 -636 -56 -47 -60 -84 33 308 39 164 73 309 75 323 3 14
12 52 21 85 8 33 17 70 19 82 2 12 36 156 75 320 39 164 73 311 76 327 2 16 8
37 11 47 6 16 1558 1218 1573 1219 4 0 3 -17 -1 -37z"/>
</g>
</svg>
