<svg viewBox="0 0 512 512" xmlns="http://www.w3.org/2000/svg"><g><g><path fill="currentColor" d="m256 7.205c-136.639 0-247.803 111.623-247.803 248.83 0 137.167 111.164 248.759 247.803 248.759 136.637 0 247.803-111.592 247.803-248.759 0-137.206-111.166-248.83-247.803-248.83zm0 487.577c-131.118 0-237.791-107.101-237.791-238.747 0-131.684 106.673-238.817 237.791-238.817s237.791 107.133 237.791 238.818c0 131.645-106.673 238.746-237.791 238.746z"/><path fill="currentColor" d="m256 43.695c-116.6 0-211.46 95.253-211.46 212.335 0 117.048 94.86 212.274 211.46 212.274 116.603 0 211.465-95.226 211.465-212.274 0-117.081-94.862-212.335-211.465-212.335zm192.752 153.548c-2.367-.507-1.747.096-23.111 5.585-2.674.716-4.258 3.461-3.539 6.133.717 2.663 3.455 4.258 6.131 3.537 21.181-5.957 21.027-5.049 22.899-6.836 3.724 14.544 5.812 29.729 6.194 45.333h-163.924c-.436-3.297-1.271-6.469-2.498-9.444l141.956-82.304c6.528 11.983 11.865 24.705 15.892 37.996zm-19.586 97.778c-2.64-.721-5.417.856-6.14 3.527-.719 2.669.86 5.417 3.53 6.138 20.74 5.122 20.706 6.376 23.489 5.557-4.143 14.93-9.908 29.185-17.17 42.518l-141.969-82.312c1.227-2.975 2.061-6.145 2.498-9.441h163.924c-.341 14.065-2.113 27.773-5.185 40.992-1.933-1.958-1.992-1.006-22.977-6.979zm-123.97 132.24c-.714-2.674-3.481-4.241-6.126-3.547-2.674.714-4.258 3.456-3.544 6.128 5.945 21.25 5.052 21.122 6.825 22.986-13.326 3.164-27.153 4.986-41.345 5.337v-164.631c3.269-.438 6.414-1.27 9.365-2.494l81.97 142.577c-13.066 7.174-27.023 12.888-41.631 17.033.667-2.584-.118-2.094-5.514-23.389zm-95.669-4.557c-2.679-.709-5.414.875-6.128 3.547-5.441 21.504-6.201 20.817-5.501 23.429-13.379-4.054-26.183-9.446-38.236-16.064l81.971-142.575c2.95 1.223 6.094 2.055 9.361 2.493v164.631c-15.459-.382-30.504-2.463-44.919-6.168 1.989-1.892 1.048-2.039 6.999-23.165.714-2.669-.875-5.414-3.547-6.128zm46.473-138.81c-15.304 0-27.756-12.513-27.756-27.893 0-15.383 12.452-27.895 27.756-27.895 15.307 0 27.759 12.513 27.759 27.895 0 15.38-12.452 27.893-27.759 27.893zm-194.065 26.26c1.87.421-.149.618 23.169-5.573 2.669-.716 4.253-3.461 3.537-6.133-.716-2.667-3.456-4.256-6.133-3.537-21.318 5.937-21.029 5.17-22.743 6.663-3.013-13.088-4.75-26.653-5.087-40.567h163.922c.436 3.297 1.27 6.468 2.497 9.442l-141.966 82.312c-7.277-13.359-13.051-27.645-17.196-42.607zm21.635-98.091c2.712.727 5.428-.891 6.138-3.527.721-2.669-.858-5.417-3.527-6.138-21.809-5.745-20.975-5.982-22.762-5.739 4.006-13.082 9.294-25.602 15.726-37.412l141.953 82.304c-1.227 2.975-2.061 6.147-2.498 9.444h-163.92c.384-15.674 2.488-30.927 6.243-45.531 1.584 1.309 1.186.623 22.647 6.599zm120.029-126.742c.703 2.629 3.408 4.269 6.128 3.547 2.672-.714 4.258-3.456 3.547-6.128-6-21.624-5.143-21.108-6.681-22.856 14.258-3.624 29.125-5.671 44.4-6.049v164.631c-3.268.438-6.412 1.27-9.363 2.494l-81.966-142.57c12.071-6.63 24.897-12.028 38.298-16.086-.365 2.079.055 1.381 5.637 23.017zm95.349 2.559c2.691.719 5.419-.894 6.126-3.547 5.617-21.706 5.988-20.966 5.657-22.975 14.6 4.146 28.55 9.859 41.609 17.031l-81.966 142.572c-2.952-1.224-6.097-2.057-9.367-2.495v-164.631c14.031.346 27.704 2.134 40.89 5.233-1.177 1.477-.537.966-6.492 22.684-.715 2.672.869 5.415 3.543 6.128zm-13.075 145.012c-1.985-2.578-4.286-4.887-6.855-6.878l81.974-142.582c11.696 7.203 22.583 15.593 32.548 24.963-1.732.71-1.312.953-16.865 16.368-1.956 1.958-1.946 5.128.01 7.081 1.949 1.94 5.116 1.956 7.079-.012 15.183-15.445 15.616-15.149 16.334-16.993 10.51 10.817 19.845 22.787 27.752 35.736zm-173.652-118.383c.831 1.722.316.57 16.108 16.677 1.954 1.959 5.121 1.97 7.079.022 1.963-1.948 1.973-5.119.024-7.081-16.059-15.948-14.763-15.281-16.509-16.17 9.84-9.195 20.575-17.433 32.091-24.525l81.972 142.581c-2.57 1.992-4.873 4.302-6.858 6.881l-141.974-82.317c7.987-13.08 17.426-25.166 28.067-36.068zm-28.08 246.922 141.987-82.322c1.985 2.579 4.288 4.889 6.859 6.881l-81.975 142.587c-13.021-8.016-25.051-17.49-35.905-28.17 2.519-.72 1.54-.957 17.404-16.48 1.951-1.958 1.946-5.128-.012-7.081-1.963-1.951-5.128-1.948-7.081.012-15.18 15.559-15.646 14.967-16.389 17.291-9.344-10.017-17.708-20.96-24.888-32.718zm318.602 32.962c-.621-2.859-1.226-1.97-16.451-17.776-1.946-1.965-5.119-1.975-7.079-.024-1.96 1.948-1.97 5.119-.02 7.079 15.2 14.788 14.776 16.03 17.844 16.601-10.888 10.734-22.968 20.251-36.042 28.301l-81.977-142.587c2.57-1.991 4.872-4.301 6.857-6.879l141.989 82.325c-7.24 11.854-15.685 22.878-25.121 32.96z"/></g></g><g/></svg>