<svg xmlns="http://www.w3.org/2000/svg" viewBox="0 0 1024 1024">
<g transform="translate(0,1024) scale(0.1,-0.1)">
<path fill="currentColor" d="M4967 9373 c-171 -29 -355 -132 -501 -281 l-48 -50 -60 30 c-92 45
-227 76 -333 76 -216 0 -406 -91 -618 -297 -65 -63 -117 -106 -130 -107 -199
-13 -369 -117 -445 -271 -18 -37 -31 -52 -41 -48 -52 20 -269 28 -339 12 -150
-34 -281 -125 -422 -294 -26 -31 -44 -43 -70 -47 -19 -3 -57 -8 -85 -12 -27
-3 -53 -8 -56 -10 -3 -2 -21 -6 -40 -9 -159 -28 -364 -139 -474 -256 -119
-126 -209 -314 -230 -478 -4 -30 -8 -63 -10 -73 -2 -10 -5 -44 -6 -76 -2 -52
-7 -64 -65 -145 -129 -180 -169 -326 -140 -510 12 -72 58 -196 105 -278 l47
-82 -27 -51 c-28 -52 -93 -235 -103 -291 -3 -16 -9 -43 -12 -60 -20 -103 -23
-247 -10 -400 6 -67 8 -82 22 -150 23 -119 86 -271 141 -343 23 -30 24 -37 16
-95 -10 -77 -11 -325 -1 -392 9 -60 47 -198 78 -280 90 -244 94 -262 94 -380
1 -131 -23 -225 -99 -390 -55 -121 -53 -196 8 -270 78 -96 226 -105 311 -19
74 75 193 393 212 567 21 185 4 286 -97 565 -66 181 -89 279 -89 376 l0 62 84
-2 c87 -1 147 5 268 31 36 7 41 5 98 -49 33 -30 82 -68 108 -83 26 -14 49 -28
50 -29 2 -1 -1 -26 -7 -56 -6 -29 -13 -70 -17 -92 -3 -21 -8 -48 -10 -60 -23
-113 -22 -452 1 -561 3 -11 7 -38 11 -60 3 -22 7 -44 8 -50 1 -5 6 -26 10 -45
4 -19 30 -120 58 -223 30 -113 51 -216 53 -256 5 -119 -39 -214 -160 -346 -68
-74 -90 -127 -82 -195 14 -113 96 -191 205 -192 94 0 156 44 277 197 174 222
221 415 170 700 -3 17 -26 104 -50 195 -38 145 -49 194 -70 300 -23 118 -23
361 1 510 7 46 43 212 46 216 2 1 28 13 58 27 31 13 85 43 121 66 75 47 75 47
96 26 8 -9 42 -34 74 -56 l59 -40 1 -77 c0 -42 2 -84 3 -92 2 -8 6 -37 10 -65
3 -27 30 -148 61 -269 72 -286 76 -362 21 -488 -9 -21 -16 -59 -16 -85 1 -161
162 -260 307 -188 73 37 122 121 159 276 10 42 13 262 4 314 -5 28 -11 66 -15
85 -6 35 -34 146 -80 317 -13 51 -26 122 -28 158 l-4 66 84 40 c47 21 112 57
144 79 32 22 61 40 63 40 5 0 85 -83 162 -169 229 -253 409 -486 471 -608 52
-105 47 -138 -56 -381 -90 -214 -127 -326 -140 -421 -8 -64 -7 -296 2 -381 3
-25 8 -81 12 -125 4 -44 9 -96 11 -115 2 -19 6 -104 9 -187 6 -179 0 -203 -62
-220 -42 -12 -109 -23 -232 -38 -30 -4 -63 -9 -75 -11 -11 -2 -38 -6 -59 -9
-104 -16 -332 -107 -481 -193 -185 -108 -351 -246 -471 -392 l-57 -70 -194 0
-194 0 147 295 c139 279 148 299 146 350 -4 185 -235 275 -363 142 -13 -13
-77 -132 -144 -265 -67 -132 -124 -243 -128 -247 -4 -4 -62 102 -129 236 -132
265 -164 309 -241 330 -141 37 -270 -58 -272 -200 0 -54 7 -72 147 -349 l147
-292 -277 0 c-312 0 -329 -4 -390 -73 -89 -102 -64 -255 54 -324 l48 -28 3778
-1 3778 -1 47 22 c60 28 88 60 111 121 29 79 11 161 -47 220 -56 56 -71 59
-293 62 l-206 3 -131 109 c-268 222 -523 407 -672 488 -115 63 -242 93 -445
107 -327 22 -350 29 -417 131 -128 193 -285 582 -314 774 -3 19 -7 42 -11 50
-13 35 -11 200 3 273 24 128 205 615 279 755 83 156 223 339 418 547 47 50 87
88 90 85 3 -3 8 -23 11 -45 6 -38 40 -168 86 -335 27 -95 22 -189 -14 -277
-41 -100 -31 -185 31 -248 64 -66 156 -85 238 -51 72 30 110 83 154 212 28 83
32 106 35 209 5 111 -7 179 -68 400 -46 168 -54 232 -47 371 1 25 2 25 64 -23
82 -65 121 -88 201 -118 94 -35 198 -47 298 -33 41 6 43 4 53 -67 3 -23 8 -52
11 -65 10 -41 13 -381 4 -430 -4 -25 -10 -63 -13 -85 -3 -22 -25 -112 -48
-200 -77 -296 -82 -321 -83 -455 0 -143 14 -212 69 -326 61 -126 221 -321 295
-359 125 -65 290 29 304 172 6 70 -18 122 -98 212 -41 45 -89 113 -108 149
-31 62 -33 72 -33 166 1 89 6 122 49 275 26 95 50 183 52 195 45 228 49 268
49 461 0 138 -3 180 -21 318 l-6 48 33 -20 c56 -33 158 -62 228 -66 94 -5 105
-21 97 -140 -3 -49 -8 -99 -10 -111 -2 -12 -7 -45 -11 -74 -4 -29 -9 -62 -11
-74 -3 -12 -7 -77 -9 -146 -8 -296 91 -490 305 -600 172 -88 359 66 304 250
-16 53 -42 85 -104 126 -65 42 -83 86 -82 193 1 47 4 97 7 111 3 14 8 52 11
85 4 33 8 62 9 65 5 9 18 171 18 225 0 109 -25 214 -69 280 -15 23 -14 26 25
75 51 64 124 210 150 298 46 154 59 362 31 497 -31 154 -141 315 -273 403 -27
18 -36 30 -31 41 8 20 34 100 40 126 3 11 7 54 9 96 5 92 -15 183 -55 258
l-30 55 39 60 c129 198 163 411 94 586 -30 77 -84 164 -146 234 -23 26 -34 47
-31 60 14 71 19 137 19 261 -1 111 -5 158 -23 225 -73 282 -267 465 -556 527
-70 15 -244 14 -325 -2 -112 -22 -251 -82 -383 -167 l-76 -49 -64 17 c-78 20
-185 25 -258 12 -60 -11 -181 -63 -220 -96 l-25 -20 -65 62 c-124 119 -276
186 -454 198 -22 2 -36 14 -66 59 -124 181 -279 289 -493 344 -98 24 -153 33
-238 34 l-47 1 -22 55 c-69 170 -215 295 -399 341 -83 21 -226 24 -324 7z
m248 -428 c65 -28 107 -102 118 -210 6 -53 19 -84 52 -123 52 -62 72 -67 265
-68 186 -1 201 -3 283 -34 119 -45 201 -123 258 -246 56 -121 102 -147 259
-149 63 -1 133 -8 155 -15 100 -33 161 -97 212 -224 17 -44 44 -96 58 -114 61
-77 172 -97 263 -47 39 21 60 43 97 101 110 171 165 191 317 119 80 -39 144
-45 201 -21 18 7 62 38 99 69 148 121 274 178 408 183 67 2 97 -2 139 -18 70
-27 130 -88 156 -159 27 -76 30 -236 4 -349 -47 -214 -39 -251 82 -362 93 -85
134 -154 127 -216 -9 -71 -64 -162 -170 -280 -73 -81 -92 -175 -52 -255 9 -18
43 -58 75 -90 32 -31 59 -63 60 -70 1 -6 2 -24 3 -39 4 -38 -25 -99 -86 -180
-59 -81 -77 -126 -72 -185 8 -102 81 -178 189 -198 58 -10 143 -54 172 -90 47
-54 65 -110 66 -199 0 -44 -3 -98 -6 -119 -32 -181 -171 -367 -253 -337 -37
14 -132 110 -178 180 -68 103 -126 140 -217 136 -70 -3 -87 -13 -191 -111
-129 -123 -212 -155 -306 -120 -35 14 -72 44 -142 116 -95 96 -132 119 -196
119 -49 0 -158 44 -228 91 -196 131 -401 405 -417 557 -8 78 -46 137 -110 169
-45 22 -69 28 -174 38 -33 3 -80 8 -105 10 -63 6 -348 6 -390 0 -181 -27 -264
-76 -497 -292 -161 -149 -161 -150 -223 -156 -34 -3 -95 -23 -158 -51 -317
-142 -541 -147 -729 -19 -80 55 -97 63 -144 69 -62 9 -127 -14 -174 -60 -42
-43 -59 -85 -70 -174 -32 -260 -147 -375 -395 -398 -106 -9 -126 -20 -236
-124 -108 -102 -168 -140 -233 -145 -73 -6 -128 35 -245 179 -45 56 -103 86
-166 86 -62 0 -116 -27 -189 -96 -85 -79 -116 -101 -186 -135 -125 -60 -180
-35 -307 141 -62 84 -178 116 -265 72 -86 -43 -163 -62 -255 -63 -165 -1 -251
99 -283 327 -8 61 -9 242 0 303 15 114 73 264 142 367 54 82 62 104 59 165 -3
61 -19 97 -71 154 -117 131 -165 275 -121 366 9 20 43 67 74 103 116 137 118
142 125 321 3 66 7 129 10 140 3 11 8 34 13 50 25 102 117 216 214 265 108 54
187 71 384 85 115 8 149 30 230 154 102 154 167 197 285 188 55 -4 83 -14 186
-67 118 -61 123 -63 183 -58 76 5 135 43 171 107 20 37 24 59 26 145 2 155 15
168 171 171 128 3 164 21 249 125 145 177 276 268 398 275 101 6 168 -23 350
-152 26 -18 55 -28 91 -31 102 -8 166 31 231 142 49 85 150 185 225 225 103
55 225 69 305 36z m1130 -3156 c68 -2 85 -7 85 -21 0 -6 16 -41 35 -79 l35
-68 -72 -46 c-83 -54 -255 -184 -312 -234 l-38 -36 6 45 c3 25 10 70 16 100
11 62 17 98 25 154 4 21 8 48 11 59 2 12 6 39 10 62 3 22 6 45 7 50 3 14 35
22 87 19 25 -1 72 -3 105 -5z m-701 -466 c-12 -71 -25 -148 -28 -173 -3 -25
-8 -56 -11 -70 -2 -13 -7 -40 -10 -60 -3 -20 -7 -47 -10 -60 -3 -13 -7 -40
-10 -60 -3 -20 -8 -47 -10 -60 -12 -63 -19 -118 -18 -156 3 -143 158 -240 295
-185 16 6 128 111 250 234 266 266 435 408 629 525 l36 22 39 -36 c21 -20 59
-54 84 -75 l45 -39 -110 -102 c-372 -349 -623 -663 -759 -950 -76 -160 -254
-667 -270 -773 -4 -20 -8 -40 -10 -44 -6 -9 -20 -146 -20 -196 0 -351 297
-1109 518 -1319 72 -68 208 -133 316 -151 25 -4 54 -9 65 -11 11 -2 72 -6 135
-9 288 -13 325 -23 493 -131 64 -41 197 -135 221 -156 5 -4 -274 -8 -620 -8
l-629 0 -80 68 c-129 110 -188 214 -200 349 -10 107 -48 167 -130 204 -103 48
-222 4 -276 -102 -41 -82 -14 -278 60 -432 23 -48 33 -80 27 -83 -6 -2 -548
-3 -1205 -2 l-1194 3 54 36 c198 131 393 204 604 224 204 19 315 55 421 135
91 68 156 195 172 334 12 109 4 435 -13 526 -6 33 -18 211 -20 298 -3 162 10
213 110 437 94 210 115 283 121 425 6 148 -18 226 -118 397 -79 134 -251 356
-436 562 -92 102 -112 125 -112 131 0 3 24 18 53 33 30 15 82 54 117 85 l63
58 225 -300 c123 -166 236 -314 251 -329 87 -95 242 -88 321 13 16 20 112 247
220 518 l193 484 42 18 c23 10 64 32 91 49 27 17 49 31 50 31 0 0 -10 -57 -22
-127z m-742 -272 l-55 -140 -97 127 c-53 70 -96 128 -96 128 1 1 54 4 120 7
65 4 121 9 124 12 3 3 18 5 33 5 l27 0 -56 -139z M5710 7670 c-76 -21 -124
-69 -177 -175 -150 -300 -48 -602 274 -817 83 -55 131 -72 188 -65 110 14 188
101 188 213 0 69 -33 128 -97 174 -107 77 -130 96 -158 131 -48 59 -47 100 2
202 39 79 42 92 38 147 -3 47 -11 69 -35 102 -49 68 -150 108 -223 88z M3555
7453 c-87 -30 -146 -122 -139 -216 5 -60 24 -97 83 -160 238 -255 558 -266
852 -29 101 81 129 129 125 212 -3 64 -21 102 -69 148 -54 52 -146 71 -218 43
-14 -5 -54 -32 -90 -61 -79 -64 -109 -80 -157 -84 -52 -5 -73 5 -137 68 -31
31 -69 63 -85 71 -40 21 -118 25 -165 8z M8008 7017 c-50 -25 -93 -78 -109
-135 -11 -41 -10 -59 11 -159 40 -196 19 -274 -92 -333 -102 -55 -145 -127
-135 -228 15 -147 167 -227 310 -163 110 48 215 135 272 226 89 140 111 329
66 564 -22 111 -53 177 -99 209 -65 46 -154 53 -224 19z M2928 6819 c-73 -20
-94 -42 -183 -203 -76 -136 -129 -188 -204 -201 -61 -10 -147 32 -236 117 -53
50 -98 71 -166 76 -88 7 -160 -38 -200 -123 -24 -51 -24 -119 1 -172 46 -103
279 -264 443 -306 122 -32 284 -15 393 41 134 68 279 233 376 426 45 89 53
148 31 210 -34 99 -155 163 -255 135z M5070 3410 c-79 -22 -132 -75 -198 -200
-44 -81 -75 -175 -89 -261 -4 -30 -7 -202 -6 -384 3 -363 -1 -398 -59 -544
-33 -81 -33 -131 -2 -196 61 -130 255 -155 348 -44 58 69 110 229 132 404 4
33 6 157 4 275 -5 374 -4 405 19 478 11 37 32 83 47 102 80 106 85 203 16 297
-42 56 -145 92 -212 73z M9085 1261 c-49 -22 -99 -77 -115 -127 -18 -53 -7
-138 24 -185 38 -57 106 -93 175 -93 96 1 167 50 200 140 37 102 -6 211 -104
262 -44 23 -132 24 -180 3z"/>
</g>
</svg>
