<svg xmlns="http://www.w3.org/2000/svg" viewBox="0 0 1024 1024">
<g transform="translate(0,1024) scale(0.1,-0.1)">
<path fill="currentColor" d="M5017 10220 c-121 -46 -541 -405 -745 -637 l-63 -71 -83 28 c-121 40
-266 74 -386 87 -125 15 -501 6 -530 -12 -3 -2 -25 -6 -48 -10 -270 -40 -629
-212 -869 -415 l-73 -61 -1 323 c-1 350 -1 351 -28 412 -62 141 -232 210 -380
154 -74 -28 -142 -97 -170 -171 l-21 -58 0 -1482 0 -1483 -243 -404 c-360
-600 -351 -580 -351 -775 0 -75 5 -118 21 -170 72 -229 276 -400 514 -430 30
-4 55 -8 55 -8 1 -1 4 -54 7 -117 3 -63 8 -128 12 -145 68 -328 293 -584 607
-689 40 -14 93 -28 118 -31 25 -3 54 -8 65 -10 11 -2 375 -4 808 -4 l788 -1
-2 -147 c-1 -177 -17 -231 -84 -299 -55 -54 -82 -68 -197 -98 -191 -50 -1266
-337 -1333 -355 -38 -11 -124 -34 -189 -51 -169 -45 -276 -84 -386 -141 -432
-225 -727 -644 -798 -1132 -4 -29 -7 -398 -7 -822 l0 -770 28 -57 c33 -67 93
-121 167 -149 49 -19 121 -19 3913 -16 l3862 2 46 21 c66 31 114 78 146 142
l28 57 0 785 c0 718 -2 792 -18 870 -10 47 -20 94 -22 106 -13 59 -61 190
-104 280 -165 346 -480 634 -831 759 -60 21 -1222 335 -1722 466 -59 15 -117
33 -130 40 -55 28 -108 82 -135 137 -26 54 -28 65 -31 214 l-4 158 784 1 c430
1 794 2 808 4 211 23 407 119 557 272 116 118 205 289 238 458 4 17 9 82 12
145 3 63 6 116 7 117 0 0 25 4 55 8 236 30 440 199 512 425 27 82 33 233 14
310 -29 119 -13 90 -337 629 l-248 414 -1 1486 c0 1447 -1 1487 -20 1537 -77
201 -337 257 -489 105 -31 -31 -55 -67 -69 -104 -20 -55 -21 -75 -21 -388 l0
-330 -72 61 c-278 236 -645 395 -1008 437 -125 15 -500 6 -530 -12 -3 -2 -23
-6 -45 -9 -70 -11 -158 -34 -247 -65 l-87 -29 -63 71 c-190 215 -607 576 -728
630 -62 28 -161 31 -223 7z m182 -726 c176 -150 323 -299 388 -394 34 -50 33
-57 -15 -115 -45 -54 -72 -125 -72 -191 0 -135 61 -220 217 -302 327 -173 564
-467 657 -817 30 -114 53 -265 40 -265 -2 0 -36 13 -76 29 -164 64 -325 95
-503 95 -64 0 -173 -10 -215 -19 -14 -3 -38 -8 -55 -10 -99 -17 -258 -79 -373
-144 l-73 -42 -57 34 c-273 158 -586 214 -902 161 -82 -13 -209 -52 -324 -99
-19 -8 -19 1 0 130 59 391 323 755 687 947 154 80 217 167 217 296 0 74 -16
121 -60 180 -65 85 -65 80 -9 155 75 99 238 262 388 386 63 52 64 52 85 33 11
-10 36 -32 55 -48z m-1474 -468 c169 -36 308 -83 313 -108 2 -9 -27 -38 -75
-73 -99 -74 -280 -256 -358 -360 -82 -109 -175 -266 -216 -364 l-34 -81 -549
0 -548 0 7 38 c3 20 24 82 46 137 173 433 545 732 1009 810 75 12 346 13 405
1z m3200 0 c317 -65 536 -183 737 -394 96 -102 170 -207 228 -327 38 -78 90
-224 90 -251 0 -12 -91 -14 -550 -14 -399 0 -550 3 -550 11 0 20 -92 202 -143
284 -117 188 -300 390 -459 509 -43 32 -78 65 -78 73 0 26 164 82 320 108 74
13 343 13 405 1z m-3704 -2488 c0 -497 2 -919 4 -938 15 -154 17 -168 47 -295
45 -195 133 -406 242 -578 l55 -87 -550 0 c-512 1 -554 2 -599 19 -95 36 -164
111 -189 206 -6 22 -11 150 -12 285 -1 215 -3 251 -20 296 -26 70 -79 128
-147 161 -55 27 -62 28 -244 31 -104 2 -188 7 -188 12 0 5 127 219 282 477
155 257 290 491 299 518 16 45 18 90 19 423 l0 372 500 0 500 0 1 -902z m4799
530 c1 -333 3 -378 19 -423 9 -27 144 -261 300 -519 155 -258 278 -473 274
-477 -5 -5 -85 -9 -178 -10 -141 -1 -179 -4 -221 -20 -70 -26 -128 -79 -161
-147 l-28 -57 -5 -275 -5 -275 -28 -57 c-33 -68 -91 -120 -161 -147 -48 -19
-82 -20 -603 -20 l-552 -1 55 87 c162 256 259 548 289 868 2 22 4 446 4 943
l1 902 500 0 500 0 0 -372z m-3449 -157 c105 -27 198 -76 305 -160 109 -87
165 -110 254 -107 83 3 133 26 239 111 83 65 179 120 252 144 207 67 448 33
629 -88 25 -17 73 -59 108 -93 l63 -63 -1 -515 c-2 -563 -6 -624 -65 -804
-137 -418 -493 -751 -917 -855 -131 -32 -135 -33 -288 -36 -164 -4 -243 6
-388 46 -378 105 -710 407 -852 775 -25 67 -46 138 -76 269 -4 17 -9 275 -11
574 l-4 544 63 64 c35 35 90 82 124 103 74 49 201 96 280 105 32 4 60 8 62 10
9 8 160 -8 223 -24z m99 -3016 c0 2 11 0 24 -5 13 -5 43 -12 67 -15 24 -4 46
-8 49 -10 16 -9 175 -20 310 -20 193 0 274 8 423 44 l77 18 1 -81 c0 -106 6
-154 30 -249 59 -237 213 -436 432 -561 l76 -43 -33 -74 c-127 -292 -391 -524
-700 -613 -119 -35 -162 -41 -306 -41 -162 0 -236 12 -371 61 -279 100 -518
323 -635 593 l-33 74 76 43 c88 50 149 98 217 168 86 90 174 241 207 356 7 25
13 47 14 50 1 3 5 28 9 55 4 28 9 59 11 70 2 11 4 59 4 107 l1 88 25 -10 c14
-5 25 -7 25 -5z m-1250 -2200 l0 -1095 -300 0 -300 0 0 1015 0 1014 43 12
c233 64 544 147 550 148 4 1 7 -492 7 -1094z m3683 1019 c133 -36 259 -69 280
-75 l37 -10 0 -1014 0 -1015 -300 0 -300 0 0 1096 0 1095 20 -6 c12 -4 130
-36 263 -71z m-4883 -1179 l0 -935 -300 0 -301 0 4 578 c2 317 6 591 10 607
74 302 234 511 494 642 48 23 88 43 90 43 2 0 3 -421 3 -935z m5906 885 c246
-127 418 -353 474 -620 16 -75 18 -149 19 -642 l1 -558 -300 0 -300 0 0 930
c0 805 2 930 14 930 8 0 49 -18 92 -40z m-3951 -491 c105 -71 296 -166 410
-203 89 -29 228 -60 320 -73 141 -19 455 -6 555 22 8 2 29 7 47 10 70 11 253
78 358 129 101 50 243 139 323 203 l32 26 0 -722 0 -721 -1100 0 -1100 0 0
721 0 722 33 -26 c17 -15 73 -54 122 -88z"/>
</g>
</svg>
