<svg xmlns="http://www.w3.org/2000/svg" viewBox="0 0 1024 1024">
<g transform="translate(0,1024) scale(0.1,-0.1)">
<path fill="currentColor" d="M2030 10230 c-44 -12 -73 -18 -107 -26 -78 -15 -291 -95 -402 -150
-478 -236 -836 -625 -1034 -1124 -44 -110 -98 -299 -111 -385 -4 -23 -8 -51
-11 -64 -20 -104 -26 -359 -12 -481 52 -459 297 -888 663 -1165 l86 -64 -80
-40 c-241 -121 -547 -393 -632 -561 -70 -139 -61 -304 24 -439 38 -59 175
-200 266 -274 170 -137 415 -273 625 -347 98 -34 326 -95 390 -105 22 -3 47
-7 55 -10 8 -2 38 -6 65 -10 28 -3 64 -8 80 -10 17 -2 52 -7 80 -10 27 -3 51
-7 52 -9 2 -2 47 -203 56 -256 41 -221 43 -229 53 -299 4 -25 8 -54 10 -65 2
-10 6 -44 10 -75 3 -31 8 -64 9 -73 2 -9 7 -48 10 -85 4 -37 9 -76 10 -85 2
-9 7 -59 10 -110 4 -51 9 -109 11 -128 3 -19 7 -181 9 -360 8 -546 12 -627 34
-731 66 -306 208 -574 420 -789 104 -106 230 -207 323 -259 38 -21 58 -43 105
-118 31 -51 90 -129 130 -173 62 -69 73 -86 74 -118 0 -20 2 -44 3 -52 2 -8 6
-45 10 -81 23 -250 154 -522 341 -715 181 -186 399 -305 659 -362 73 -15 154
-17 791 -17 391 0 730 3 755 7 271 40 513 162 710 358 142 141 243 305 304
495 26 80 31 100 42 164 3 18 7 41 9 50 2 10 6 57 10 106 l8 90 71 76 c39 43
98 120 130 173 33 53 63 96 67 96 4 0 57 32 116 72 274 183 507 489 612 805
72 218 76 261 86 923 2 184 6 351 9 370 2 19 7 76 11 125 3 50 8 104 10 120 2
17 7 51 10 78 12 104 17 145 25 202 14 91 21 135 26 159 2 11 7 41 10 66 3 25
8 47 9 50 2 3 6 26 10 50 3 25 15 86 27 135 11 50 21 99 24 110 12 60 16 75
22 76 4 1 18 2 32 4 135 13 195 23 395 61 66 12 253 71 353 110 289 114 530
270 713 461 134 140 179 228 185 359 5 122 -28 209 -121 324 -148 184 -351
347 -564 454 l-73 37 88 66 c276 209 484 505 592 845 26 82 35 117 57 228 20
100 26 343 12 480 -49 460 -257 902 -586 1243 -270 281 -653 495 -1036 582
-174 39 -253 26 -334 -57 -57 -57 -76 -104 -76 -188 0 -100 22 -140 145 -267
236 -244 419 -523 546 -833 40 -98 47 -127 50 -196 5 -141 -40 -257 -137 -349
-63 -61 -155 -109 -234 -124 -28 -5 -169 -10 -315 -10 l-265 -1 -18 39 c-38
84 -139 171 -237 206 -91 33 -173 30 -370 -10 -141 -29 -424 -23 -570 11 -14
3 -38 8 -53 11 -27 4 -87 24 -327 108 -107 37 -306 92 -370 101 -19 3 -42 7
-50 9 -8 2 -37 7 -65 11 -27 3 -59 8 -70 10 -121 23 -662 23 -795 0 -27 -5
-84 -14 -140 -22 -92 -13 -339 -81 -484 -134 -156 -57 -259 -88 -321 -97 -16
-2 -36 -6 -43 -8 -70 -24 -400 -24 -512 0 -14 3 -41 8 -60 11 -19 3 -50 9 -69
14 -18 5 -70 8 -115 6 -148 -6 -260 -70 -346 -199 l-45 -68 -265 1 c-146 1
-286 6 -310 11 -133 28 -257 121 -315 234 -67 133 -71 265 -11 415 123 307
308 593 550 847 63 67 123 139 132 160 76 178 -52 377 -246 381 -30 0 -71 -3
-90 -8z m-175 -442 c-68 -76 -178 -225 -252 -341 -116 -184 -267 -516 -290
-637 -10 -54 -10 -271 -1 -320 29 -144 119 -305 232 -414 105 -101 280 -192
407 -211 24 -3 53 -8 64 -10 11 -2 138 -4 283 -4 l263 -1 -2 -77 c-2 -91 -19
-156 -60 -233 -36 -67 -59 -93 -174 -194 -50 -43 -152 -142 -227 -219 -76 -78
-143 -142 -150 -143 -7 -1 -45 -4 -84 -8 -39 -4 -82 -9 -95 -11 -13 -3 -43 -8
-66 -11 -23 -3 -67 -11 -99 -19 l-57 -13 -116 59 c-362 184 -616 507 -712 904
-94 389 6 875 256 1251 178 268 409 472 690 610 97 47 204 91 228 93 5 1 -12
-22 -38 -51z m6615 5 c325 -132 602 -364 803 -668 119 -182 223 -440 253 -630
3 -22 7 -42 9 -45 7 -12 19 -172 19 -260 0 -146 -12 -237 -50 -369 -111 -380
-370 -687 -724 -855 -52 -25 -97 -43 -100 -41 -7 4 -21 7 -125 25 -100 18
-108 19 -180 26 -38 4 -75 7 -82 8 -7 1 -79 70 -160 152 -81 83 -179 177 -217
210 -108 92 -144 133 -181 209 -39 78 -55 148 -55 236 l0 59 258 1 c288 1 307
2 395 25 292 75 511 294 586 585 15 58 19 101 16 199 -3 139 -5 153 -42 259
-96 280 -272 584 -486 840 -78 93 -79 92 63 34z m-3101 -1437 c100 -8 126 -12
241 -32 155 -28 254 -57 505 -147 62 -23 168 -55 199 -61 6 -2 36 -8 66 -14
134 -28 220 -37 375 -37 129 0 237 8 325 24 96 18 114 21 146 26 17 3 43 1 57
-4 49 -19 56 -51 57 -254 3 -370 76 -531 355 -772 172 -149 396 -393 562 -613
85 -112 115 -191 112 -292 -3 -93 -27 -152 -114 -284 -144 -219 -250 -445
-329 -700 -39 -125 -86 -304 -100 -376 -2 -14 -9 -45 -14 -70 -6 -25 -13 -63
-16 -84 -4 -21 -8 -48 -11 -60 -2 -12 -7 -39 -10 -61 -3 -22 -10 -67 -15 -100
-5 -33 -12 -87 -15 -120 -4 -33 -8 -71 -10 -85 -2 -14 -7 -56 -10 -95 -3 -38
-8 -83 -10 -100 -2 -16 -7 -82 -10 -145 -4 -63 -8 -137 -10 -165 -2 -27 -6
-196 -10 -375 -8 -487 -10 -513 -45 -652 -37 -144 -86 -256 -168 -383 -47 -74
-119 -165 -130 -165 -4 0 -7 48 -7 108 0 252 -63 456 -208 672 -90 134 -286
312 -417 378 l-26 13 -1 167 c-2 168 -12 487 -18 552 -2 19 -6 78 -10 130 -3
52 -8 109 -9 125 -2 17 -7 66 -10 109 -4 43 -9 86 -11 95 -1 9 -6 49 -10 90
-7 69 -6 73 11 66 25 -10 102 -34 134 -41 60 -15 247 -13 315 3 357 80 604
388 603 752 -1 149 -41 284 -125 414 l-44 69 34 37 c41 45 88 113 115 166 58
115 -24 247 -153 247 -72 0 -106 -25 -170 -122 -107 -165 -320 -323 -561 -419
-95 -37 -351 -108 -360 -99 -2 3 -24 76 -49 162 -53 183 -68 222 -98 254 -73
78 -205 69 -263 -17 -34 -52 -37 -95 -13 -176 65 -220 83 -283 115 -410 33
-128 77 -331 90 -414 3 -18 8 -43 10 -55 7 -38 23 -130 29 -171 3 -22 10 -67
15 -100 5 -33 12 -85 15 -115 3 -30 8 -66 10 -80 4 -24 9 -77 20 -182 3 -29 8
-69 10 -88 2 -19 7 -78 10 -130 4 -52 8 -117 11 -145 2 -27 6 -173 10 -322 l7
-273 -64 -1 c-35 0 -71 -2 -79 -4 -8 -1 -35 -6 -60 -10 -90 -14 -207 -62 -350
-145 -113 -66 -273 -125 -421 -156 -95 -19 -311 -25 -426 -11 -159 19 -359 88
-513 176 -128 74 -161 89 -252 115 -97 28 -142 35 -222 36 l-59 0 7 293 c3
160 8 308 10 327 3 19 7 78 11 130 3 52 8 111 10 130 2 19 7 62 10 95 7 68 15
138 20 175 2 14 6 50 10 80 3 30 8 66 10 80 7 36 13 78 20 130 3 25 8 56 10
70 12 59 15 76 21 115 3 22 19 103 35 180 17 77 32 151 35 165 19 92 106 406
142 510 38 111 7 196 -87 238 -83 38 -175 2 -216 -82 -13 -28 -46 -125 -72
-214 l-47 -164 -30 7 c-17 3 -42 8 -56 11 -54 10 -205 56 -276 84 -243 97
-450 254 -572 435 -55 81 -93 107 -160 108 -109 1 -186 -90 -169 -198 6 -38
80 -158 133 -218 l34 -37 -40 -59 c-62 -91 -109 -208 -125 -316 -7 -49 -7
-189 0 -230 58 -312 273 -546 575 -624 59 -16 100 -19 195 -17 130 4 142 6
229 36 33 11 61 20 63 20 4 0 -5 -102 -12 -140 -2 -8 -6 -53 -10 -100 -4 -47
-8 -92 -10 -100 -2 -8 -6 -62 -10 -120 -4 -58 -8 -121 -10 -140 -7 -67 -18
-426 -19 -580 l-1 -155 -89 -55 c-344 -214 -567 -615 -562 -1013 0 -59 -2
-107 -6 -107 -11 0 -83 91 -130 165 -61 94 -100 173 -136 275 -26 75 -37 115
-57 220 -9 43 -15 202 -20 530 -3 173 -7 342 -10 375 -2 33 -6 107 -10 165 -3
58 -8 121 -10 140 -1 19 -6 70 -10 113 -4 43 -8 88 -10 100 -2 12 -6 49 -10
82 -6 58 -9 85 -20 150 -3 17 -7 50 -11 75 -3 25 -7 52 -9 60 -3 8 -7 33 -10
55 -16 101 -71 335 -116 484 -81 267 -179 487 -307 688 -113 177 -122 194
-137 251 -31 119 -12 223 61 333 121 182 436 528 642 703 153 131 241 267 286
447 21 81 24 120 25 283 2 208 8 234 60 255 22 10 42 10 83 2 29 -6 70 -13 92
-17 21 -3 48 -8 60 -10 125 -25 443 -25 573 1 11 2 36 6 54 9 19 3 46 8 60 11
58 11 205 57 331 104 134 49 183 65 273 84 11 3 38 10 60 15 22 6 57 13 78 16
20 3 54 9 75 12 20 3 48 7 62 10 14 2 70 7 125 10 55 4 101 7 102 8 5 4 310
-3 382 -8z m-3759 -1833 c-61 -124 -75 -181 -75 -323 0 -135 4 -165 34 -251
26 -77 42 -107 129 -238 73 -110 202 -351 202 -378 0 -17 -10 -17 -133 7 -398
77 -726 236 -969 468 -71 68 -107 120 -113 161 -5 40 35 95 154 211 222 215
452 335 808 420 1 0 -16 -35 -37 -77z m7204 15 c160 -52 348 -154 481 -261 60
-49 190 -179 228 -229 35 -45 40 -72 23 -112 -44 -99 -279 -291 -491 -400
-138 -71 -382 -159 -505 -181 -14 -3 -34 -7 -45 -9 -72 -14 -167 -27 -170 -24
-10 9 131 275 206 388 135 204 170 310 165 495 -2 61 -6 123 -10 139 -15 62
-47 146 -76 199 l-30 55 68 -15 c37 -9 107 -29 156 -45z m-5736 -955 c159 -96
378 -183 571 -226 73 -17 97 -26 95 -37 -11 -70 -18 -92 -41 -140 -119 -246
-463 -307 -664 -118 -145 136 -178 344 -82 519 14 27 30 49 35 49 5 0 44 -21
86 -47z m4211 -16 c38 -79 49 -130 46 -204 -5 -114 -39 -196 -113 -275 -116
-124 -289 -168 -445 -113 -76 26 -116 52 -173 111 -44 45 -90 128 -99 179 -2
17 -7 40 -9 51 -4 19 2 23 57 34 205 39 451 134 617 238 36 23 70 41 77 42 7
0 25 -28 42 -63z m-3204 -2521 c39 -12 120 -50 180 -84 215 -121 425 -192 646
-219 120 -15 435 -7 491 12 7 2 29 6 48 9 144 22 345 98 536 204 149 81 210
100 331 100 383 1 688 -392 678 -870 -2 -56 -6 -119 -9 -138 -4 -19 -9 -47
-12 -62 -10 -62 -64 -202 -105 -275 -60 -107 -190 -237 -285 -286 -195 -101
-385 -93 -586 26 -171 101 -384 182 -555 213 -13 2 -35 6 -50 9 -138 25 -401
25 -548 0 -211 -37 -406 -108 -589 -213 -105 -61 -178 -89 -262 -100 -191 -25
-370 47 -520 211 -110 121 -191 297 -218 474 -13 87 -14 252 -1 328 52 327
269 600 530 669 81 22 219 18 300 -8z m1200 -1690 c207 -29 360 -84 578 -209
168 -97 362 -137 557 -114 55 6 69 9 123 22 27 7 28 6 21 -21 -83 -344 -383
-624 -732 -681 -26 -5 -353 -8 -727 -8 -674 0 -681 0 -765 23 -262 69 -475
240 -593 477 -34 67 -81 204 -74 212 2 2 35 -4 73 -13 75 -17 207 -22 294 -11
127 16 235 56 415 157 158 88 352 151 507 166 40 3 74 7 75 8 5 4 207 -3 248
-8z M3853 2372 c-80 -41 -96 -77 -98 -225 -1 -70 4 -132 11 -153 49 -143 240
-155 312 -19 11 22 16 63 17 147 3 165 -17 211 -102 250 -48 21 -99 21 -140 0z
M6243 2372 c-80 -41 -96 -78 -98 -224 -2 -126 8 -174 47 -215 87 -93 240 -60
282 61 7 21 12 83 11 155 -2 113 -3 122 -29 161 -46 70 -142 98 -213 62z"/>
</g>
</svg>
