<svg xmlns="http://www.w3.org/2000/svg" viewBox="0 0 1024 1024">
<g transform="translate(0,1024) scale(0.1,-0.1)">
<path fill="currentColor" d="M1963 8768 c-140 -136 -229 -277 -279 -443 -22 -76 -27 -110 -28
-215 0 -69 2 -143 6 -165 45 -251 185 -504 400 -718 42 -42 55 -67 46 -94 -2
-5 -68 -8 -148 -8 -171 -1 -243 -9 -367 -40 -227 -58 -422 -189 -567 -382
-127 -170 -165 -284 -128 -391 31 -92 146 -174 232 -167 59 5 162 17 178 20 9
1 62 6 117 9 343 22 387 27 498 56 126 32 216 79 312 164 22 19 40 34 41 33 1
-1 4 -15 7 -32 3 -16 12 -60 21 -96 8 -37 17 -79 20 -93 3 -14 7 -34 10 -44 3
-9 7 -28 10 -42 3 -14 15 -69 27 -122 l22 -98 -61 -127 c-74 -155 -102 -246
-107 -338 -9 -168 85 -279 238 -281 79 0 93 -10 102 -74 3 -25 8 -52 10 -60 2
-8 6 -31 9 -50 3 -19 8 -46 11 -60 3 -14 7 -34 9 -45 16 -82 72 -280 106 -380
139 -403 361 -695 616 -812 30 -13 54 -25 54 -26 0 -1 9 -47 19 -102 11 -55
22 -118 25 -140 4 -23 9 -52 11 -65 3 -14 8 -45 11 -70 3 -25 8 -52 9 -60 2
-9 6 -43 10 -75 4 -33 8 -70 10 -83 17 -107 22 -347 11 -439 -10 -77 -46 -212
-77 -290 -28 -72 -147 -311 -234 -471 -49 -90 -56 -136 -31 -195 40 -95 193
-147 417 -144 l97 2 61 47 c34 27 62 48 64 48 1 0 3 -12 4 -26 1 -34 29 -70
82 -111 66 -51 166 -74 317 -75 75 0 88 3 138 31 136 78 230 216 291 426 25
84 36 218 21 243 -3 5 -8 23 -11 40 -3 17 -19 91 -36 163 -16 73 -32 153 -33
178 -2 25 10 111 26 191 15 80 31 159 33 175 12 68 25 141 30 165 3 13 7 42
10 65 3 22 8 51 10 65 7 36 13 78 20 130 5 41 11 84 20 150 2 14 6 50 10 80 3
30 8 71 10 90 6 52 14 126 21 205 3 39 8 73 10 76 2 4 29 1 60 -7 30 -7 74
-15 97 -18 23 -3 53 -8 66 -11 13 -2 49 -7 80 -11 31 -3 64 -8 75 -10 112 -21
575 -21 707 1 13 2 51 6 84 10 33 3 67 8 75 10 8 2 38 6 65 10 28 3 104 18
170 32 66 14 127 26 136 28 9 2 32 8 51 13 35 10 35 9 58 -36 84 -174 239
-335 399 -417 43 -22 152 -63 185 -70 14 -3 38 -8 53 -11 32 -6 36 -9 40 -32
5 -26 4 -154 -1 -177 -14 -70 -38 -132 -116 -305 -150 -333 -220 -511 -220
-557 0 -22 -39 -93 -85 -153 -61 -80 -90 -135 -120 -222 -35 -106 -28 -136 40
-178 101 -62 296 -89 481 -66 98 12 124 62 80 156 -47 100 -27 164 68 227 63
41 102 79 115 112 5 14 28 93 51 176 47 170 120 366 225 605 77 175 171 370
183 382 4 4 19 2 33 -6 14 -7 47 -21 73 -31 45 -17 50 -23 92 -107 85 -170
140 -342 160 -498 7 -62 8 -261 0 -306 -3 -16 -8 -49 -11 -73 -18 -125 -62
-253 -96 -281 -20 -16 -114 -150 -136 -193 -36 -71 -63 -154 -63 -192 0 -46
36 -77 122 -104 115 -36 212 -49 358 -49 199 1 215 11 224 138 11 141 23 189
97 365 50 120 54 162 30 293 -11 59 -23 123 -26 142 -11 57 -15 451 -6 495 5
22 25 84 44 138 19 53 34 97 32 97 -1 0 4 26 11 58 8 35 12 96 10 157 -4 114
-18 159 -99 328 -96 199 -108 252 -102 427 2 69 6 136 9 150 5 24 8 47 21 135
3 22 8 46 11 54 2 8 7 30 10 49 3 20 30 124 60 231 67 239 140 524 148 571 22
140 29 362 13 470 -17 120 -66 289 -109 374 -29 56 -4 35 64 -57 117 -159 185
-331 205 -523 12 -117 6 -327 -12 -435 -2 -13 -6 -42 -10 -64 -3 -22 -14 -89
-25 -150 -11 -60 -21 -121 -24 -135 -2 -14 -7 -43 -11 -65 -4 -22 -9 -49 -11
-60 -2 -11 -6 -31 -8 -45 -6 -28 -12 -71 -21 -145 -4 -27 -9 -61 -12 -75 -3
-14 -6 -113 -8 -221 l-2 -196 -45 -44 c-52 -52 -72 -111 -72 -209 0 -133 33
-265 116 -475 74 -186 276 -575 310 -597 46 -30 109 -14 128 32 7 16 9 46 6
67 -24 167 -25 470 -2 589 10 53 20 210 20 309 -1 86 -6 122 -23 165 -34 91
-114 156 -213 174 -21 4 -40 11 -43 17 -8 12 -8 290 -1 339 3 19 8 58 11 85
11 94 24 173 49 310 2 11 6 36 10 55 3 19 8 44 10 55 10 50 46 286 53 345 10
84 10 379 0 450 -30 210 -120 417 -253 581 -118 148 -295 300 -479 414 -44 28
-116 76 -160 107 -164 117 -368 197 -575 225 -72 10 -268 10 -351 1 -105 -12
-242 -51 -409 -116 -274 -106 -441 -152 -680 -187 -96 -14 -451 -15 -515 -1
-16 4 -55 11 -85 17 -30 6 -188 49 -350 95 -245 71 -483 135 -550 149 -79 17
-235 45 -275 51 -70 9 -68 8 -185 47 -149 50 -264 66 -456 63 l-162 -2 9 30
c5 17 28 51 52 76 201 209 317 403 377 630 22 80 25 113 24 245 0 190 -39 314
-150 480 -53 80 -153 192 -208 233 -51 39 -106 25 -140 -35 -4 -7 7 -80 24
-164 51 -247 46 -433 -15 -596 -30 -79 -97 -189 -154 -255 l-40 -45 -83 -1
c-59 0 -107 -8 -168 -26 -206 -63 -236 -69 -359 -63 -98 4 -134 10 -231 41
-137 44 -165 50 -253 48 l-67 -1 -49 59 c-129 155 -191 322 -194 522 -1 77 10
225 18 237 2 4 6 24 9 46 4 22 9 48 12 57 7 23 13 56 20 103 5 35 2 44 -21 68
-20 19 -38 27 -62 27 -30 0 -46 -11 -110 -72z m-38 -419 c-4 -234 47 -411 170
-593 30 -45 75 -103 100 -131 l46 -50 -2 -70 c-2 -67 -9 -95 -36 -140 -11 -19
-13 -19 -43 10 -52 49 -154 184 -203 270 -54 93 -100 214 -117 306 -13 66 -15
205 -5 249 3 14 7 37 10 51 8 45 70 199 80 199 1 0 1 -45 0 -101z m2018 54
c49 -97 68 -174 72 -292 5 -176 -54 -360 -175 -541 -58 -88 -171 -219 -185
-216 -24 5 -48 80 -49 150 l-1 71 63 75 c178 209 251 411 248 678 0 67 0 122
1 122 2 0 13 -21 26 -47z m-1388 -874 c127 -39 202 -48 370 -44 88 2 169 5
180 8 11 3 40 8 65 11 25 3 60 10 78 15 17 5 32 8 32 6 0 -2 16 3 35 11 19 7
44 14 55 14 18 0 13 -12 -42 -92 -76 -114 -204 -243 -278 -283 -129 -69 -256
-31 -401 118 -47 48 -144 178 -183 245 -10 17 11 15 89 -9z m-125 -246 c57
-76 173 -191 231 -227 l45 -29 -20 -41 c-31 -61 -29 -165 4 -230 67 -132 229
-181 359 -111 88 48 133 126 134 230 0 40 -6 75 -20 107 l-21 46 52 35 c64 42
165 143 221 219 32 42 45 54 54 45 6 -6 11 -16 11 -21 0 -6 19 -35 41 -65 l41
-55 -18 -85 c-10 -47 -19 -88 -19 -91 -1 -3 -4 -18 -8 -35 -4 -16 -9 -39 -12
-50 -2 -11 -36 -162 -75 -335 -39 -173 -73 -328 -76 -344 -3 -16 -6 -32 -8
-35 -2 -3 -7 -22 -10 -41 -10 -60 -22 -95 -32 -92 -107 34 -125 36 -344 37
-246 1 -287 -3 -366 -39 -48 -22 -54 -23 -58 -8 -5 18 -35 144 -42 177 -2 11
-31 142 -64 290 -34 149 -63 279 -65 290 -3 11 -22 97 -43 192 l-39 172 29 33
c15 18 38 52 50 76 13 23 24 42 24 42 1 0 21 -26 44 -57z m557 -348 c30 -35
30 -85 0 -121 -66 -77 -191 12 -142 102 31 57 101 67 142 19z m-839 13 c6 -1
12 -4 13 -7 0 -3 2 -16 5 -29 3 -18 -3 -26 -29 -37 -31 -13 -59 -17 -204 -30
-158 -15 -250 -52 -319 -128 -44 -49 -48 -59 -46 -107 2 -33 45 -70 84 -70 23
0 41 11 76 46 65 66 80 71 267 89 102 10 138 16 177 30 34 11 38 11 43 -5 18
-56 15 -61 -68 -144 -127 -128 -241 -172 -492 -191 -121 -9 -191 -14 -290 -21
-49 -3 -98 -8 -107 -9 -9 -2 -45 -7 -80 -10 -55 -6 -67 -4 -89 14 -39 30 -41
65 -9 126 76 144 183 265 306 345 75 49 202 104 264 115 18 3 36 8 40 10 4 2
35 7 71 11 35 3 66 8 68 10 3 3 282 -4 319 -8z m1962 -1 c8 -3 32 -9 54 -12
49 -7 175 -49 229 -77 150 -76 289 -215 380 -379 33 -60 36 -78 20 -111 -24
-49 -54 -54 -193 -33 -31 5 -147 13 -265 20 -349 19 -482 58 -604 177 -51 49
-111 124 -111 137 1 23 18 29 55 21 22 -5 76 -12 120 -15 157 -12 206 -27 254
-76 47 -48 76 -62 111 -54 51 11 78 61 60 109 -12 34 -68 95 -110 121 -64 40
-135 58 -270 70 -161 14 -173 18 -164 58 8 41 6 39 61 45 27 2 49 6 51 7 6 6
307 -2 322 -8z m3605 -112 c220 -26 446 -128 595 -267 158 -148 322 -442 376
-675 37 -162 37 -373 -2 -565 -2 -13 -6 -34 -9 -48 -2 -14 -29 -115 -60 -225
-69 -250 -132 -489 -139 -535 -3 -19 -8 -45 -10 -56 -6 -30 -14 -81 -21 -139
-4 -27 -8 -61 -11 -75 -6 -34 -5 -239 1 -270 2 -14 7 -38 11 -55 12 -66 39
-136 104 -275 37 -80 72 -166 78 -193 20 -98 1 -223 -59 -377 -16 -41 -31 -95
-33 -120 -6 -56 -7 -391 -1 -445 15 -142 15 -140 35 -240 5 -27 11 -62 14 -76
4 -25 -52 -181 -72 -201 -7 -7 -179 36 -191 48 -3 2 5 44 18 92 13 48 25 98
27 112 2 14 6 35 9 47 20 90 27 341 12 463 -9 78 -47 233 -77 316 -34 92 -137
295 -171 337 -33 40 -109 83 -219 124 -215 81 -439 308 -622 630 -36 65 -75
128 -85 141 -30 37 -63 36 -171 -7 -153 -61 -507 -180 -582 -196 -8 -1 -35 -8
-60 -15 -25 -7 -52 -14 -61 -15 -9 -2 -60 -13 -113 -24 -53 -12 -113 -24 -133
-27 -19 -3 -44 -7 -55 -9 -11 -3 -46 -7 -77 -11 -31 -3 -63 -8 -72 -9 -141
-27 -668 -27 -806 -1 -10 2 -40 7 -68 10 -27 4 -57 9 -65 11 -8 2 -26 6 -40 9
-75 13 -101 19 -104 25 -6 8 43 107 74 152 13 19 69 90 124 159 113 140 136
178 128 215 -6 34 -47 65 -88 65 -39 0 -41 -3 -199 -200 -159 -199 -231 -348
-259 -535 -3 -22 -12 -77 -20 -122 -8 -45 -17 -99 -21 -120 -5 -37 -8 -55 -20
-113 -2 -14 -7 -43 -10 -65 -3 -23 -7 -50 -9 -60 -4 -21 -15 -89 -22 -140 -2
-16 -6 -41 -9 -55 -2 -14 -7 -45 -10 -70 -4 -25 -8 -56 -10 -70 -2 -14 -6 -43
-9 -65 -11 -85 -17 -131 -21 -155 -2 -14 -6 -50 -10 -80 -3 -30 -8 -71 -10
-90 -2 -19 -7 -59 -10 -89 -14 -119 -7 -194 34 -376 41 -179 50 -242 37 -283
-6 -19 -13 -20 -59 -16 -98 8 -185 21 -239 35 l-36 9 59 140 c91 214 89 202
83 530 -2 157 -7 319 -9 360 -9 143 -16 245 -20 270 -2 14 -6 52 -10 85 -9 86
-41 241 -63 305 -23 64 -366 841 -390 882 -18 30 -60 49 -94 43 -37 -7 -71
-53 -65 -90 3 -17 74 -185 157 -373 89 -201 149 -347 144 -352 -21 -20 -220
-32 -313 -18 -393 58 -681 440 -825 1093 -39 180 -40 188 -19 177 51 -28 216
-37 302 -17 83 20 166 55 237 100 52 34 66 39 124 39 98 2 180 55 216 141 49
117 18 268 -103 510 -25 50 -53 99 -63 110 -21 23 -22 9 30 240 47 204 48 208
56 252 l6 33 57 -50 c78 -68 163 -117 251 -145 108 -34 165 -43 385 -60 38 -3
70 -7 72 -8 3 -4 11 -57 18 -127 4 -36 8 -76 10 -90 2 -14 6 -56 9 -95 3 -38
9 -99 12 -135 6 -71 6 -453 0 -510 -2 -19 3 -49 11 -67 17 -37 33 -44 161 -68
13 -2 31 -6 40 -9 9 -3 37 -8 62 -11 24 -4 47 -8 50 -10 3 -1 32 -6 65 -10 32
-3 62 -8 65 -10 3 -1 39 -6 80 -10 41 -4 83 -9 92 -10 9 -2 61 -7 115 -10 54
-4 114 -9 133 -11 43 -5 618 -5 680 0 25 2 103 7 175 11 71 4 136 8 145 10 8
1 56 6 105 9 50 4 101 9 115 11 14 2 50 6 80 10 104 11 207 24 240 30 14 2 49
7 79 10 30 4 61 8 70 10 16 3 86 14 131 20 21 3 64 11 240 40 88 15 132 26
149 37 22 13 40 53 36 79 -2 8 -6 42 -9 75 -4 32 -9 73 -11 89 -8 58 -14 121
-21 195 -3 41 -8 91 -10 110 -17 180 -24 699 -11 945 3 72 6 135 7 142 0 19
142 23 265 8z m-444 -142 c-11 -250 -4 -797 14 -973 2 -19 7 -73 10 -120 4
-47 9 -93 10 -102 2 -9 7 -48 10 -85 4 -37 9 -71 11 -74 2 -4 -24 -12 -59 -18
-34 -6 -73 -13 -87 -16 -14 -3 -45 -8 -70 -11 -25 -3 -54 -8 -65 -10 -11 -2
-40 -7 -65 -10 -25 -3 -53 -8 -64 -10 -10 -2 -44 -6 -75 -9 -31 -4 -63 -8 -71
-10 -8 -2 -42 -7 -75 -10 -33 -4 -70 -8 -83 -10 -13 -2 -53 -7 -90 -10 -37 -4
-78 -8 -90 -10 -13 -2 -63 -7 -110 -10 -48 -4 -103 -8 -122 -10 -250 -26
-1001 -26 -1136 -1 -11 2 -49 7 -86 10 -37 4 -77 9 -90 11 -13 2 -45 6 -71 10
-27 4 -57 8 -67 10 -9 2 -33 6 -51 9 -36 6 -67 12 -109 21 l-25 5 0 203 c0
216 -10 392 -30 544 -13 94 -17 165 -9 160 8 -5 121 -18 189 -22 30 -1 30 -2
35 -71 3 -38 5 -159 3 -269 -1 -118 2 -211 8 -226 13 -32 30 -41 139 -68 82
-20 106 -25 179 -37 18 -3 42 -7 51 -9 10 -2 40 -6 67 -10 26 -4 59 -9 73 -11
142 -22 696 -22 816 0 10 2 55 7 98 11 43 4 86 8 95 10 9 1 41 6 72 9 31 4 65
8 75 10 11 2 39 7 64 10 25 3 56 8 70 11 13 2 40 7 60 10 35 5 61 10 110 20
14 2 39 7 55 10 17 2 84 15 150 29 102 21 123 28 143 52 22 25 23 33 18 94 -4
37 -8 76 -10 86 -2 11 -7 57 -10 104 -4 47 -9 101 -11 120 -11 95 -18 256 -20
463 l-2 229 23 15 c26 17 196 73 204 68 4 -2 4 -52 1 -112z m-2372 67 c64 -16
244 -65 399 -110 283 -80 340 -95 410 -106 20 -3 39 -7 42 -9 11 -7 178 -19
265 -19 92 0 284 11 320 18 11 2 40 7 65 11 56 9 78 13 110 20 14 3 34 7 46 9
12 2 85 23 164 45 79 23 144 40 145 39 1 -2 5 -115 9 -253 4 -137 8 -268 11
-290 2 -22 6 -76 9 -120 4 -44 9 -109 13 -145 9 -99 9 -103 -7 -106 -8 -1 -28
-5 -45 -8 -16 -4 -46 -9 -65 -12 -19 -3 -42 -7 -50 -9 -8 -2 -28 -6 -45 -9
-16 -3 -73 -12 -125 -21 -128 -22 -137 -23 -195 -31 -27 -3 -58 -8 -67 -9 -9
-2 -48 -7 -85 -10 -37 -4 -79 -8 -93 -11 -163 -26 -744 -26 -879 1 -13 2 -48
7 -77 11 -30 3 -98 16 -150 27 l-97 22 -2 215 c-2 118 -6 241 -9 272 -6 49 -4
62 14 86 29 39 48 109 44 160 -5 73 -72 198 -169 317 -25 30 -40 55 -35 55 6
0 64 -13 129 -30z m-1700 -831 c70 -20 135 -91 197 -219 76 -154 100 -234 95
-318 -1 -32 -44 -72 -71 -67 -24 5 -39 12 -164 80 -122 67 -194 84 -331 81
-133 -3 -196 -22 -338 -103 -105 -60 -138 -67 -169 -35 -45 45 -18 173 77 368
77 156 135 210 239 223 89 11 415 4 465 -10z m-134 -626 c27 -8 67 -24 88 -36
37 -21 37 -21 15 -34 -54 -30 -155 -55 -228 -55 -60 0 -90 5 -149 28 -41 16
-76 34 -78 40 -4 12 75 50 134 63 59 13 163 10 218 -6z m4055 -1173 c0 -17
109 -191 182 -290 39 -52 117 -141 173 -197 l103 -101 -31 -5 c-65 -9 -275 -4
-347 9 -185 33 -326 107 -439 230 -51 55 -138 190 -129 199 3 3 98 36 212 75
114 38 215 74 224 80 22 12 52 13 52 0z m1985 -273 c53 -30 76 -78 78 -164 1
-61 -10 -222 -18 -263 -5 -26 -18 -191 -19 -237 -1 -24 -2 -43 -4 -43 -16 0
-148 340 -177 454 -55 223 4 329 140 253z m-5385 -272 c36 1 95 5 131 9 l67 7
-8 -43 c-5 -24 -11 -63 -14 -88 -3 -25 -8 -54 -10 -65 -3 -18 -10 -59 -22
-137 -5 -36 -12 -79 -24 -148 -5 -30 -12 -73 -15 -95 -3 -23 -7 -50 -9 -60 -2
-11 -9 -54 -16 -95 -12 -76 -14 -89 -27 -170 -10 -56 -10 -231 0 -285 8 -51
15 -82 21 -103 18 -58 26 -225 13 -238 -8 -8 -107 -8 -157 1 -57 9 -140 37
-140 47 0 5 10 27 21 50 45 89 102 267 115 363 3 22 9 59 14 81 8 48 6 278 -4
374 -9 89 -23 195 -31 250 -2 14 -7 45 -10 70 -5 42 -20 128 -29 177 -3 11 -8
41 -11 66 l-7 44 44 -6 c23 -4 72 -6 108 -6z m3950 -209 c0 -2 -43 -97 -96
-212 -153 -335 -259 -618 -315 -844 -13 -50 -19 -58 -69 -91 -52 -36 -67 -38
-120 -24 -8 2 -35 9 -58 15 -44 11 -44 11 -37 48 7 41 57 162 135 327 188 399
228 519 226 685 l-1 76 70 0 c74 1 217 13 224 20 5 5 41 5 41 0z m-3606 -66
c5 -42 10 -98 21 -245 2 -33 7 -199 10 -370 4 -251 3 -319 -9 -355 -13 -42
-92 -229 -100 -237 -1 -2 -3 20 -3 49 0 67 -9 136 -29 230 -19 87 -26 216 -14
278 8 46 17 97 26 160 3 19 9 60 14 90 18 104 19 115 25 155 3 22 10 65 15 95
5 30 11 69 14 85 20 133 21 135 30 65z m2916 -1261 c34 -10 35 -11 34 -61 -1
-28 3 -67 8 -86 11 -40 2 -51 -40 -47 -15 2 -55 6 -90 9 -34 4 -73 11 -87 16
-21 8 -23 13 -15 34 14 39 51 108 71 138 18 24 22 26 52 16 17 -5 48 -14 67
-19z m-3455 -124 c72 -23 131 -34 198 -34 l38 -1 -28 -52 c-15 -29 -51 -76
-80 -104 l-52 -53 -83 5 c-79 4 -196 27 -209 42 -4 4 21 58 55 119 45 83 65
111 76 106 8 -3 47 -16 85 -28z m4789 -60 c60 -19 118 -35 128 -35 20 0 20
-12 3 -105 -2 -11 -4 -26 -4 -34 -2 -23 -276 0 -328 28 -10 5 -8 16 8 46 14
28 84 139 84 135 0 0 49 -16 109 -35z m-4149 -69 c39 -8 104 -18 145 -22 41
-3 77 -8 79 -10 10 -9 -56 -98 -106 -144 l-58 -52 -92 6 c-50 3 -108 12 -128
20 -36 15 -36 15 -22 48 8 18 27 62 42 98 35 83 34 82 53 76 10 -3 49 -12 87
-20z M2555 6670 c-50 -19 -71 -76 -46 -122 19 -37 87 -77 119 -72 67 12 96 94
52 142 -44 47 -89 66 -125 52z M3233 6669 c-40 -15 -93 -77 -93 -110 0 -36 47
-89 80 -89 48 0 117 57 126 104 3 21 -18 86 -29 86 -1 0 -16 4 -32 9 -17 4
-40 5 -52 0z M2734 5780 c-30 -12 -84 -80 -84 -108 0 -71 67 -113 127 -79 94
53 87 175 -12 193 -5 1 -19 -2 -31 -6z M3072 5758 c-33 -36 -34 -71 -5 -116
43 -66 105 -81 148 -37 43 42 27 112 -35 162 -26 21 -84 16 -108 -9z"/>
</g>
</svg>
