<svg xmlns="http://www.w3.org/2000/svg" viewBox="0 0 1024 1024">
<g transform="translate(0,1024) scale(0.1,-0.1)">
<path fill="currentColor" d="M1789 9736 c-142 -48 -261 -166 -352 -351 -42 -85 -99 -244 -110
-310 -3 -16 -10 -55 -16 -85 -15 -81 -19 -111 -20 -152 l-1 -37 -354 -3 c-340
-3 -356 -4 -382 -24 -15 -11 -37 -33 -48 -48 l-21 -27 -3 -4046 c-2 -3736 -1
-4047 14 -4079 9 -20 33 -47 52 -62 l35 -27 3936 0 c2165 0 3961 3 3991 8 93
13 256 56 348 93 367 148 665 451 805 819 30 78 47 141 84 305 4 19 9 1593 10
3498 3 3205 2 3466 -13 3498 -9 19 -33 47 -52 62 l-35 27 -354 3 -353 3 0 27
c-2 85 -44 293 -82 401 -70 200 -153 329 -273 426 -97 79 -175 106 -293 101
-188 -8 -348 -134 -465 -371 -42 -85 -99 -244 -110 -310 -3 -16 -10 -55 -16
-85 -15 -82 -19 -111 -20 -152 l-1 -38 -170 0 -170 0 0 28 c-2 85 -44 292 -82
401 -70 200 -153 329 -273 426 -97 79 -175 106 -293 101 -188 -8 -348 -134
-465 -371 -42 -85 -99 -244 -110 -310 -3 -16 -10 -55 -16 -85 -15 -82 -19
-111 -20 -152 l-1 -38 -170 0 -170 0 0 28 c-2 85 -44 292 -82 401 -70 200
-153 329 -273 426 -97 79 -175 106 -293 101 -188 -8 -348 -134 -465 -371 -42
-85 -99 -244 -110 -310 -3 -16 -10 -55 -16 -85 -15 -82 -19 -111 -20 -152 l-1
-38 -170 0 -170 0 0 28 c-2 85 -44 292 -82 401 -70 200 -153 329 -273 426 -97
79 -175 106 -293 101 -188 -8 -348 -134 -465 -371 -42 -85 -99 -244 -110 -310
-3 -16 -10 -55 -16 -85 -15 -82 -19 -111 -20 -152 l-1 -38 -170 0 -170 0 0 28
c-2 137 -69 398 -141 547 -71 148 -184 277 -294 337 -92 50 -223 59 -326 24z
m180 -311 c88 -45 193 -235 230 -415 18 -87 20 -99 27 -156 l6 -54 -312 0
-312 0 7 58 c29 260 141 505 260 570 28 16 61 15 94 -3z m1600 0 c88 -45 193
-235 230 -415 18 -87 20 -99 27 -156 l6 -54 -312 0 -312 0 7 58 c29 260 141
505 260 570 28 16 61 15 94 -3z m1600 0 c88 -45 193 -235 230 -415 18 -87 20
-99 27 -156 l6 -54 -312 0 -312 0 7 58 c29 260 141 505 260 570 28 16 61 15
94 -3z m1600 0 c88 -45 193 -235 230 -415 18 -87 20 -99 27 -156 l6 -54 -312
0 -312 0 7 58 c29 260 141 505 260 570 28 16 61 15 94 -3z m1600 0 c88 -45
193 -235 230 -415 18 -87 20 -99 27 -156 l6 -54 -312 0 -312 0 7 58 c29 260
141 505 260 570 28 16 61 15 94 -3z m-7078 -977 c1 -36 1 -39 25 -178 32 -184
117 -401 204 -515 109 -146 236 -224 374 -231 82 -3 114 11 157 69 55 75 23
189 -64 231 -19 9 -47 16 -62 16 -100 0 -216 169 -275 402 -15 62 -31 141 -35
176 l-7 62 641 0 641 0 1 -32 c0 -18 2 -44 5 -58 24 -153 42 -231 70 -317 110
-338 303 -538 528 -549 82 -3 114 11 157 69 55 75 23 189 -64 231 -19 9 -47
16 -62 16 -100 0 -216 169 -275 402 -15 62 -31 141 -35 176 l-7 62 641 0 641
0 1 -32 c0 -18 2 -44 5 -58 24 -153 42 -231 70 -317 110 -338 303 -538 528
-549 82 -3 114 11 157 69 55 75 23 189 -64 231 -19 9 -47 16 -62 16 -100 0
-216 169 -275 402 -15 62 -31 141 -35 176 l-7 62 641 0 641 0 1 -32 c0 -18 2
-44 5 -58 24 -153 42 -231 70 -317 110 -338 303 -538 528 -549 82 -3 114 11
157 69 55 75 23 189 -64 231 -19 9 -47 16 -62 16 -100 0 -216 169 -275 402
-15 62 -31 141 -35 176 l-7 62 641 0 641 0 1 -32 c0 -18 2 -44 5 -58 24 -153
42 -231 70 -317 110 -338 303 -538 528 -549 82 -3 114 11 157 69 55 75 23 189
-64 231 -19 9 -47 16 -62 16 -100 0 -216 169 -275 402 -15 62 -31 141 -35 176
l-7 62 716 0 716 0 0 -640 0 -640 -4320 0 -4320 0 0 640 0 640 245 0 245 0 1
-32z m8149 -3968 l0 -2400 -589 -2 c-578 -3 -590 -3 -617 -24 -15 -11 -37 -33
-48 -48 -21 -27 -21 -39 -24 -617 l-2 -589 -3680 0 -3680 0 0 3040 0 3040
4320 0 4320 0 0 -2400z m-15 -2732 c-2 -7 -7 -31 -10 -52 -7 -53 -59 -204 -91
-268 -107 -215 -297 -405 -512 -512 -64 -32 -215 -84 -268 -91 -21 -3 -45 -8
-51 -10 -10 -3 -13 95 -13 470 l0 475 475 0 c375 0 473 -3 470 -12z M5055
6546 c-16 -8 -582 -567 -1257 -1243 -1072 -1073 -1228 -1233 -1233 -1264 -9
-49 -1 -93 23 -126 12 -15 426 -433 921 -928 496 -495 901 -904 901 -908 0 -5
-125 -169 -277 -365 -176 -227 -280 -369 -286 -392 -20 -74 20 -157 90 -186
27 -12 232 -14 1191 -14 l1158 0 35 24 c20 14 43 36 53 50 25 39 31 105 13
146 -9 19 -139 193 -290 385 l-275 350 923 925 c915 916 924 925 930 972 4 26
2 61 -4 80 -8 24 -349 371 -1238 1259 -676 675 -1237 1231 -1248 1236 -31 15
-97 14 -130 -1z m-98 -1302 c-2 -2 -30 -6 -63 -9 -156 -14 -181 -16 -204 -20
-14 -2 -45 -7 -70 -10 -38 -5 -195 -35 -265 -50 -11 -3 -60 -16 -110 -30 -49
-14 -99 -27 -110 -30 -12 -3 -48 -14 -80 -25 l-60 -20 480 480 480 480 3 -382
c1 -209 1 -383 -1 -384z m1283 -190 c0 -1 -42 12 -92 28 -119 37 -334 91 -418
104 -19 3 -42 7 -50 9 -8 2 -37 7 -65 11 -27 3 -59 8 -69 10 -10 2 -58 7 -105
10 -47 4 -97 8 -111 10 -14 1 -31 2 -37 3 -10 1 -13 86 -13 388 l0 388 480
-480 c264 -264 480 -481 480 -481z m-1280 -1206 l0 -1073 -168 -217 c-92 -119
-172 -217 -177 -217 -6 -1 -384 373 -840 830 l-830 830 95 91 c294 280 680
519 1055 654 127 45 389 116 472 128 22 3 52 7 65 10 33 8 87 15 165 22 37 4
69 7 70 8 1 0 22 2 47 4 l46 2 0 -1072z m490 1057 c109 -11 308 -47 438 -81
193 -50 363 -114 557 -209 306 -150 540 -314 780 -547 l70 -68 -830 -830
c-456 -456 -834 -830 -840 -829 -5 0 -85 98 -177 217 l-168 217 0 1072 0 1073
58 -5 c31 -3 82 -7 112 -10z m70 -2960 l389 -500 -395 -3 c-216 -1 -572 -1
-788 0 l-395 3 391 503 c215 276 395 501 400 500 5 -2 184 -228 398 -503z
M4026 4464 c-153 -37 -296 -153 -365 -297 -49 -102 -61 -159 -56 -267 3 -95 5
-104 33 -177 32 -83 69 -139 135 -204 67 -66 184 -129 272 -148 45 -9 197 -8
235 1 188 48 336 177 402 351 28 73 30 82 33 177 5 108 -7 165 -55 265 -90
188 -270 304 -480 310 -57 2 -118 -2 -154 -11z m234 -328 c147 -75 184 -250
79 -369 -97 -111 -241 -116 -345 -13 -69 70 -89 147 -62 240 15 51 99 137 148
153 54 17 134 12 180 -11z M5952 4465 c-250 -60 -430 -288 -430 -546 0 -260
189 -493 443 -547 48 -10 198 -10 240 1 182 46 331 178 397 350 28 73 30 82
33 177 5 108 -7 165 -56 266 -70 148 -209 260 -374 301 -45 11 -203 10 -253
-2z m196 -317 c88 -22 172 -131 172 -222 0 -159 -156 -278 -307 -235 -67 18
-145 97 -161 161 -25 99 -8 163 63 233 70 71 134 88 233 63z"/>
</g>
</svg>
