<svg xmlns="http://www.w3.org/2000/svg" viewBox="0 0 1024 1024">
<g transform="translate(0,1024) scale(0.1,-0.1)">
<path fill="currentColor" d="M1205 9791 c0 -443 0 -450 -20 -453 -11 -2 -282 -3 -602 -3 l-583 1
0 -4668 0 -4668 5120 0 5120 0 0 4668 0 4668 -582 -1 c-321 0 -592 1 -603 3
-20 3 -20 10 -20 453 l0 449 -301 0 -302 0 1 -444 c0 -244 -3 -447 -6 -452 -3
-5 -266 -9 -599 -8 l-593 0 -3 452 -2 452 -302 -2 -303 -3 0 -447 c1 -393 -1
-447 -15 -450 -13 -3 -870 -2 -1112 1 l-78 1 0 450 0 450 -300 0 -300 0 0
-449 0 -449 -22 -3 c-19 -3 -1140 -3 -1173 0 -7 1 -11 148 -11 449 l1 447
-303 3 -302 2 0 -452 0 -453 -595 1 c-327 0 -597 3 -601 7 -4 3 -7 207 -6 452
l0 445 -302 0 -301 0 0 -449z m8430 -1356 l0 -300 -4515 0 -4515 0 -3 290 c-1
159 -1 294 2 300 2 7 1481 10 4517 10 l4514 -1 0 -299z m5 -4370 l0 -3466
-4517 3 -4518 3 -3 3463 -2 3462 4520 0 4519 0 1 -3465z M3010 6631 c0 -230 3
-300 13 -303 6 -2 210 -3 452 -3 l440 1 0 -364 0 -364 -120 -52 c-281 -121
-514 -277 -714 -479 l-84 -85 -59 35 c-55 32 -158 73 -224 89 -16 4 -141 9
-279 10 -199 3 -265 1 -325 -12 -403 -84 -664 -470 -590 -873 48 -267 243
-489 505 -579 74 -25 140 -34 270 -38 55 -1 105 -3 110 -3 6 -1 11 -60 11
-154 2 -134 5 -166 32 -267 49 -188 133 -383 268 -616 207 -359 627 -904 991
-1284 l81 -85 1325 0 1325 0 118 105 c66 57 139 123 164 146 25 22 124 112
220 199 283 256 399 383 529 585 144 223 279 554 317 780 3 14 9 50 15 80 17
99 24 192 24 352 0 87 2 158 5 159 3 0 55 2 115 4 135 3 177 10 274 41 109 34
194 87 287 179 132 130 205 281 221 456 37 388 -205 721 -593 815 -46 11 -524
14 -579 4 -87 -17 -182 -51 -248 -90 l-65 -37 -59 61 c-212 218 -472 394 -756
510 l-102 42 -1 365 0 365 444 0 c244 -1 448 1 453 4 5 4 8 137 6 300 l-2 295
-2107 3 -2108 2 0 -299z m2712 -608 l-3 -303 -599 0 c-565 0 -600 1 -601 18
-1 29 -1 577 0 583 1 3 272 5 604 5 l602 0 -3 -303z m128 -926 c164 -32 244
-56 366 -109 210 -89 385 -210 540 -370 254 -263 402 -565 459 -938 10 -66 14
-325 6 -339 -6 -9 -60 10 -194 69 l-185 81 -345 -150 -344 -151 -345 151 -344
150 -334 -146 c-184 -81 -344 -147 -355 -147 -11 -1 -170 65 -354 146 l-334
148 -344 -151 -344 -151 -186 83 c-166 73 -187 85 -194 110 -7 28 -4 245 4
282 3 11 8 43 11 70 10 71 41 189 77 292 173 490 605 891 1111 1032 40 11 89
23 108 26 19 3 42 8 50 10 8 2 42 7 75 11 33 3 62 8 64 10 3 2 284 3 625 1
534 -2 633 -5 706 -20z m-3232 -592 c17 -8 32 -17 32 -20 0 -3 -13 -31 -28
-63 -16 -31 -42 -90 -57 -129 l-28 -73 -111 -1 c-225 -3 -248 3 -294 72 -30
44 -27 121 7 165 43 56 77 64 271 63 124 0 184 -5 208 -14z m5421 -1 c117 -49
122 -213 8 -267 -26 -12 -69 -17 -186 -18 -84 0 -154 1 -156 3 -2 2 -88 198
-112 256 -3 7 9 18 28 27 47 20 368 20 418 -1z m-3608 -1820 c184 -81 339
-147 344 -147 6 0 161 66 345 146 185 81 340 147 345 147 5 0 159 -66 343
-147 184 -80 340 -146 346 -146 6 0 161 66 345 147 184 80 338 146 342 146 5
0 56 -21 113 -46 l105 -46 -26 -51 c-37 -75 -122 -203 -180 -272 -76 -91 -148
-162 -368 -360 -48 -44 -93 -84 -99 -90 -6 -5 -48 -43 -92 -82 l-82 -73 -1084
0 -1085 0 -45 53 c-25 28 -60 68 -77 87 -118 132 -471 581 -471 600 0 6 620
279 636 280 6 0 161 -66 345 -146z"/>
</g>
</svg>
