<svg xmlns="http://www.w3.org/2000/svg" viewBox="0 0 1024 1024">
<g transform="translate(0,1024) scale(0.1,-0.1)">
<path fill="currentColor" d="M1815 9793 c-39 -7 -111 -34 -165 -60 -153 -75 -266 -204 -328 -375
-25 -69 -27 -86 -30 -285 l-4 -213 -41 -1 c-23 0 -49 -2 -57 -4 -8 -1 -33 -6
-55 -9 -196 -32 -379 -128 -526 -275 -148 -150 -234 -313 -274 -521 -12 -65
-14 -540 -12 -3430 l2 -3355 26 -95 c110 -395 424 -672 824 -728 66 -9 7824
-9 7895 0 90 12 199 46 296 93 256 124 445 352 522 632 l27 98 2 3360 c2 3279
1 3362 -18 3451 -73 348 -329 631 -666 738 -101 31 -120 35 -208 43 -38 3 -71
6 -72 7 0 0 -3 96 -5 211 -4 196 -6 215 -30 283 -72 199 -225 350 -423 417
-68 22 -117 29 -211 28 -242 -1 -465 -141 -573 -359 -60 -121 -69 -175 -70
-406 l-1 -178 -932 0 -933 0 -1 193 c-1 144 -5 208 -17 255 -76 288 -331 491
-622 495 -200 3 -338 -54 -480 -197 -59 -60 -90 -101 -117 -156 -60 -122 -70
-172 -73 -385 -2 -104 -4 -193 -4 -197 -1 -5 -419 -8 -931 -8 l-930 0 -1 178
c-1 193 -2 211 -25 292 -93 325 -426 529 -759 463z m232 -324 c84 -27 167
-103 207 -188 21 -45 21 -55 21 -611 0 -560 0 -565 -22 -612 -123 -264 -486
-269 -612 -8 l-26 55 -3 550 c-3 611 -4 604 64 696 82 112 239 162 371 118z
m3170 2 c78 -21 161 -91 203 -171 34 -64 36 -112 35 -645 -2 -526 -2 -530 -24
-588 -31 -80 -109 -157 -188 -187 -193 -72 -403 37 -448 234 -8 36 -11 208
-11 581 l1 530 26 55 c76 162 235 237 406 191z m3192 -5 c80 -29 146 -89 192
-176 l24 -45 0 -570 c0 -563 0 -571 -22 -617 -59 -127 -194 -210 -331 -202
-114 7 -234 92 -285 201 -22 48 -22 50 -22 613 l0 565 27 55 c78 160 254 234
417 176z m1191 -5463 c-1 -2961 5 -2720 -70 -2879 -88 -184 -291 -334 -489
-362 -66 -9 -7796 -8 -7855 1 -28 5 -82 21 -121 36 -209 81 -358 255 -409 476
-14 63 -16 329 -16 2728 l0 2657 4480 0 4480 0 0 -2657z M5304 6394 c-17 -8
-141 -126 -276 -262 -254 -256 -275 -283 -264 -349 2 -15 5 -35 5 -43 1 -8
119 -133 264 -278 185 -186 255 -262 237 -258 -14 3 -43 8 -65 11 -22 4 -51 9
-65 12 -156 28 -398 124 -604 241 -77 44 -95 50 -137 48 -87 -4 -144 -65 -144
-155 0 -50 6 -67 49 -142 185 -319 440 -548 716 -642 84 -28 139 -41 250 -57
56 -8 274 -6 320 4 14 2 41 7 60 10 226 36 515 155 745 306 124 83 152 111
163 163 15 74 0 101 -166 303 -86 105 -170 207 -187 228 -60 75 -141 98 -217
62 -36 -17 -37 -18 -99 -115 -97 -152 -225 -243 -376 -267 -21 -3 -42 -9 -48
-12 -5 -3 105 110 245 251 140 142 260 270 267 285 15 34 16 82 2 119 -13 36
-493 518 -535 538 -41 19 -100 19 -140 -1z M3398 5255 c-2 -1 -25 -5 -53 -9
-247 -30 -498 -148 -681 -318 -122 -114 -165 -207 -160 -338 10 -205 154 -354
356 -367 129 -9 222 27 330 126 68 63 129 96 206 114 196 46 399 -46 492 -222
40 -74 53 -129 53 -210 0 -166 -93 -317 -241 -391 -71 -36 -96 -42 -232 -54
-144 -14 -253 -90 -321 -226 -27 -55 -32 -76 -34 -147 -4 -157 64 -279 200
-357 53 -31 103 -44 192 -50 39 -3 79 -8 90 -10 252 -56 402 -318 326 -567
-80 -257 -384 -383 -624 -259 -148 77 -227 208 -242 403 -11 145 -70 246 -186
322 -72 47 -202 69 -292 49 -91 -19 -202 -102 -252 -188 -61 -105 -66 -264
-15 -483 108 -460 506 -833 976 -917 104 -18 319 -18 414 0 41 8 84 16 95 18
51 10 159 51 250 96 361 178 614 533 669 938 3 19 6 35 8 36 2 2 57 31 123 66
l119 63 -32 -40 c-59 -75 -76 -127 -76 -238 -1 -92 2 -105 30 -165 70 -148
331 -340 575 -424 79 -27 176 -49 264 -61 55 -7 265 -8 305 -1 14 3 43 7 65
11 22 3 81 16 131 30 333 88 625 320 793 628 69 128 163 378 187 497 3 14 10
45 15 70 6 25 13 63 15 85 3 22 7 51 10 65 6 40 6 250 -2 310 -20 173 -97 366
-202 506 -171 231 -403 365 -722 420 -44 7 -235 8 -275 0 -16 -3 -46 -8 -65
-11 -114 -19 -251 -70 -353 -131 -102 -61 -190 -138 -295 -256 -179 -203 -313
-322 -532 -470 -132 -90 -269 -173 -273 -167 -14 20 -92 125 -96 129 -34 30
-34 40 4 81 108 120 232 367 260 518 3 14 7 37 10 51 46 230 10 514 -96 739
-167 358 -497 613 -887 687 -72 14 -314 28 -324 19z m2914 -1993 c63 -31 114
-86 138 -147 15 -40 18 -70 15 -155 -3 -123 -5 -133 -50 -266 -89 -267 -187
-385 -372 -449 -58 -20 -84 -23 -178 -21 -134 3 -210 30 -301 106 -97 81 -143
111 -202 132 -61 21 -169 26 -218 9 l-29 -11 25 18 c13 9 72 50 130 90 235
164 475 379 665 596 90 103 137 126 250 123 60 -2 92 -8 127 -25z"/>
</g>
</svg>
