<svg xmlns="http://www.w3.org/2000/svg" viewBox="0 0 100 100"><path fill="currentColor" d="M94.022,16.2H83.8V9.98a4.981,4.981,0,0,0-9.961,0V16.2H54.98V9.98a4.98,4.98,0,1,0-9.96,0V16.2H26.166V9.98a4.981,4.981,0,0,0-9.961,0V16.2H5.978A.978.978,0,0,0,5,17.18V94.022A.978.978,0,0,0,5.978,95H94.022A.978.978,0,0,0,95,94.022V17.18A.978.978,0,0,0,94.022,16.2ZM6.957,34.17H93.043v4.447H6.957ZM75.79,9.98a3.024,3.024,0,0,1,6.048,0V21.186a3.024,3.024,0,0,1-6.048,0ZM50,6.957A3.027,3.027,0,0,1,53.024,9.98V21.186a3.024,3.024,0,0,1-6.048,0V9.98A3.027,3.027,0,0,1,50,6.957ZM18.162,9.98a3.024,3.024,0,0,1,6.048,0V21.186a3.024,3.024,0,0,1-6.048,0ZM16.2,18.158v3.028a4.981,4.981,0,0,0,9.961,0V18.158H45.02v3.028a4.98,4.98,0,1,0,9.96,0V18.158H73.834v3.028a4.981,4.981,0,0,0,9.961,0V18.158h9.248V32.214H6.957V18.158ZM6.957,93.043V40.573H93.043v52.47Zm66.692-8.7-4.261-2.131v-17.8a.978.978,0,0,0-.979-.978H53.379V54.18h15.03a.978.978,0,0,0,.979-.978V43.6a.979.979,0,0,0-1.854-.438L65.4,47.421H47.6a.978.978,0,0,0-.978.978v15.03h-9.25V48.4a.978.978,0,0,0-.978-.978h-9.6a.978.978,0,0,0-.437,1.853l4.261,2.131v17.8a.979.979,0,0,0,.979.979h15.03v9.249H31.591a.978.978,0,0,0-.979.978v9.6a.979.979,0,0,0,.754.952.96.96,0,0,0,.225.026.978.978,0,0,0,.875-.541L34.6,86.2H52.4a.978.978,0,0,0,.978-.979V70.188h9.25V85.217a.978.978,0,0,0,.978.979h9.605a.979.979,0,0,0,.437-1.854Zm-9.064-.1V69.209a.978.978,0,0,0-.978-.978H52.4a.978.978,0,0,0-.979.978v15.03H33.991a.979.979,0,0,0-.875.541l-.547,1.095V81.393H47.6a.978.978,0,0,0,.979-.978V69.209a.978.978,0,0,0-.979-.978H32.569V50.8a.979.979,0,0,0-.541-.876l-1.095-.547h4.482V64.407a.978.978,0,0,0,.978.979H47.6a.979.979,0,0,0,.979-.979V49.378H66.009a.981.981,0,0,0,.875-.541l.547-1.1v4.482H52.4a.978.978,0,0,0-.979.978v11.2a.979.979,0,0,0,.979.979h15.03v17.43a.977.977,0,0,0,.541.875l1.095.548Z"/></svg>