<svg viewBox="0 0 512 512" xmlns="http://www.w3.org/2000/svg"><g><path fill="currentColor" d="m497 32.134h-81.4v-17.134c0-8.284-6.716-15-15-15s-15 6.716-15 15v17.134h-66.4v-17.134c0-8.284-6.716-15-15-15s-15 6.716-15 15v17.134h-66.4v-17.134c0-8.284-6.716-15-15-15s-15 6.716-15 15v17.134h-66.4v-17.134c0-8.284-6.716-15-15-15s-15 6.716-15 15v17.134h-81.4c-8.284 0-15 6.716-15 15v449.866c0 8.284 6.716 15 15 15h482c8.284 0 15-6.716 15-15v-449.866c0-8.284-6.716-15-15-15zm-15 449.866h-452v-419.866h66.4v17.133c0 8.284 6.716 15 15 15s15-6.716 15-15v-17.133h66.4v17.133c0 8.284 6.716 15 15 15s15-6.716 15-15v-17.133h66.4v17.133c0 8.284 6.716 15 15 15s15-6.716 15-15v-17.133h66.4v17.133c0 8.284 6.716 15 15 15s15-6.716 15-15v-17.133h66.4z"/><path fill="currentColor" d="m400.6 321.333h-8.907c-16.266-20.105-72.358-89.443-96.119-118.825-9.703-12.005-24.128-18.89-39.582-18.89-15.445 0-29.869 6.885-39.57 18.887-23.764 29.385-79.849 98.721-96.114 118.828h-8.908c-8.284 0-15 6.716-15 15 0 43.788 35.408 79.267 79.267 79.267h160.666c43.766 0 79.267-35.412 79.267-79.267 0-8.284-6.716-15-15-15zm-160.851-99.966c3.981-4.925 9.901-7.749 16.251-7.749 6.342 0 12.262 2.824 16.245 7.751 18.661 23.076 57.265 70.798 80.859 99.964h-194.211c23.592-29.166 62.193-76.889 80.856-99.966zm96.584 164.233h-160.666c-29.914 0-43.436-23.198-46.956-34.267h254.575c-3.527 11.083-17.179 34.267-46.953 34.267z"/></g></svg>