<svg xmlns="http://www.w3.org/2000/svg" viewBox="0 0 1024 1024">
<g transform="translate(0,1024) scale(0.1,-0.1)">
<path fill="currentColor" d="M4190 10189 c-19 -5 -48 -10 -65 -13 -152 -26 -441 -102 -638 -167
-753 -252 -1422 -664 -1982 -1224 -665 -664 -1131 -1487 -1355 -2395 -21 -86
-41 -171 -44 -190 -5 -33 -9 -53 -21 -110 -3 -14 -8 -42 -11 -64 -3 -21 -7
-48 -10 -60 -5 -26 -31 -222 -38 -291 -28 -253 -28 -858 -1 -1026 2 -13 6 -51
10 -84 3 -33 7 -71 10 -85 2 -14 7 -45 10 -70 3 -25 7 -55 9 -66 2 -12 7 -39
10 -60 4 -22 8 -46 11 -54 2 -8 6 -31 9 -50 9 -56 14 -77 51 -230 248 -1008
777 -1894 1550 -2593 149 -134 215 -189 400 -329 316 -239 788 -499 1185 -651
362 -139 796 -253 1109 -292 30 -4 62 -8 72 -10 10 -2 49 -7 86 -10 37 -4 76
-9 87 -11 127 -24 805 -23 957 0 13 3 56 7 95 10 39 4 80 8 90 10 11 2 44 7
74 11 30 4 64 9 75 11 10 2 35 6 55 9 40 6 64 10 135 25 28 6 60 12 73 15 13
2 31 6 40 9 9 3 31 8 47 10 17 3 89 21 160 41 753 206 1386 539 2005 1053 154
129 492 468 620 622 525 633 875 1322 1066 2095 19 77 37 151 39 165 3 14 7
36 10 50 3 14 8 39 10 55 3 17 10 55 15 85 5 30 12 73 15 95 4 22 9 51 13 65
3 14 7 300 9 637 4 599 4 613 -16 652 -31 60 -74 86 -143 86 -42 0 -64 -5 -85
-21 -38 -28 -70 -89 -78 -149 -3 -27 -8 -59 -10 -70 -3 -11 -7 -36 -9 -55 -21
-144 -84 -394 -151 -595 -398 -1197 -1348 -2141 -2547 -2534 -130 -42 -310
-92 -383 -107 -11 -2 -42 -8 -70 -14 -61 -13 -77 -16 -135 -25 -25 -4 -53 -9
-64 -11 -10 -2 -44 -6 -75 -9 -31 -4 -67 -8 -80 -10 -161 -26 -750 -27 -888
-1 -10 2 -43 7 -74 10 -31 4 -67 9 -80 11 -13 3 -41 7 -64 11 -79 11 -232 45
-360 79 -450 118 -890 324 -1280 599 -824 580 -1402 1461 -1609 2451 -13 66
-27 138 -30 160 -4 23 -8 50 -10 60 -2 11 -7 49 -11 85 -4 36 -9 73 -11 83
-24 128 -24 726 0 854 2 10 7 43 10 74 4 31 8 66 11 77 3 19 11 65 21 132 33
209 128 537 229 785 376 927 1074 1677 1961 2106 66 33 128 67 137 77 47 52
57 160 20 210 -39 53 -105 76 -173 61z m-1070 -677 c-45 -35 -176 -160 -288
-275 -600 -614 -1022 -1465 -1147 -2312 -4 -22 -8 -47 -10 -55 -2 -8 -7 -46
-11 -85 -3 -38 -8 -79 -10 -89 -24 -130 -24 -735 1 -888 2 -13 6 -48 10 -79 3
-31 7 -65 9 -75 2 -11 7 -39 10 -64 8 -59 13 -83 42 -221 304 -1446 1345
-2643 2747 -3159 190 -69 459 -145 622 -174 17 -3 41 -8 55 -11 76 -15 182
-32 262 -41 29 -3 64 -7 77 -9 156 -25 731 -25 881 -1 14 3 52 7 85 11 232 24
586 104 830 186 649 219 1210 564 1686 1039 388 386 618 719 897 1300 11 22
12 18 7 -30 -2 -30 -9 -80 -14 -110 -6 -30 -13 -68 -15 -85 -14 -83 -50 -244
-82 -365 -397 -1512 -1507 -2736 -2979 -3285 -141 -52 -471 -154 -551 -169
-12 -3 -65 -14 -118 -25 -53 -12 -113 -24 -134 -27 -20 -3 -44 -7 -52 -9 -8
-2 -33 -7 -55 -10 -23 -3 -50 -7 -62 -9 -12 -3 -53 -8 -90 -11 -37 -4 -75 -9
-84 -10 -8 -2 -55 -6 -105 -10 -49 -3 -109 -9 -134 -11 -54 -6 -530 -6 -580 0
-19 2 -75 7 -124 11 -50 4 -97 8 -105 10 -9 1 -43 6 -76 9 -33 4 -71 9 -85 11
-14 3 -40 7 -57 10 -81 13 -137 22 -173 30 -14 3 -40 8 -59 11 -141 24 -490
124 -688 198 -664 248 -1233 615 -1738 1121 -427 426 -748 892 -992 1435 -124
275 -253 665 -309 935 -14 67 -54 288 -60 330 -3 28 -8 57 -9 66 -2 9 -6 52
-10 95 -4 43 -9 87 -11 98 -22 119 -22 758 1 897 2 13 6 51 10 84 6 65 15 138
21 170 2 11 7 40 10 65 3 25 7 52 9 60 2 8 7 29 10 45 2 17 7 41 10 55 3 14 8
41 11 60 3 19 23 103 44 187 135 530 341 1001 636 1450 475 726 1131 1305
1907 1684 78 38 146 69 152 69 5 0 -6 -13 -25 -28z"/>
</g>
</svg>
