<svg xmlns="http://www.w3.org/2000/svg" viewBox="0 0 1024 1024">
<g transform="translate(0,1024) scale(0.1,-0.1)">
<path fill="currentColor" d="M1720 9681 c-128 -41 -225 -137 -276 -271 -15 -40 -17 -104 -19 -566
-2 -571 1 -605 55 -699 38 -67 124 -147 185 -171 l47 -19 -6 -75 c-3 -41 -8
-85 -10 -96 -2 -12 -7 -37 -10 -55 -13 -74 -18 -97 -51 -198 -40 -122 -98
-243 -170 -351 -70 -105 -258 -292 -385 -381 -124 -88 -232 -188 -301 -278
-113 -150 -194 -354 -215 -538 -10 -85 -11 -4306 -1 -4388 60 -511 466 -930
982 -1012 64 -10 2265 -11 2327 0 26 4 53 10 60 12 7 2 24 6 38 9 14 2 54 14
89 26 434 146 736 517 796 975 8 64 8 4307 0 4360 -3 22 -9 54 -11 70 -47 289
-213 549 -464 728 -428 306 -623 632 -675 1129 l-6 57 57 27 c67 31 150 113
183 178 50 102 51 113 48 686 l-2 535 -23 55 c-51 119 -148 211 -264 251 -49
16 -118 17 -988 18 -868 0 -939 -1 -990 -18z m210 -622 c4 -326 7 -368 23
-392 47 -73 157 -79 216 -11 17 19 32 44 32 54 1 11 3 173 4 360 1 187 3 343
4 348 0 4 129 7 286 7 l285 0 0 -347 c0 -192 0 -351 1 -355 2 -13 31 -67 43
-78 61 -61 176 -41 215 37 19 39 20 61 21 386 0 190 2 348 4 351 3 4 125 6
273 6 303 -1 317 -4 355 -77 19 -36 20 -62 20 -533 0 -467 -1 -498 -19 -532
-30 -57 -107 -86 -198 -74 -7 1 -10 119 -10 339 0 185 -1 349 -3 364 -2 15
-18 44 -36 64 -27 31 -39 37 -82 41 -62 6 -106 -14 -134 -60 -19 -30 -20 -53
-20 -388 0 -277 -3 -358 -12 -361 -11 -4 -535 -3 -560 1 -5 1 -8 162 -8 359 0
336 -1 359 -20 389 -24 41 -72 65 -124 65 -43 -1 -77 -21 -110 -66 -20 -26
-21 -40 -21 -389 l0 -362 -270 1 c-163 0 -280 5 -295 11 -32 14 -66 50 -80 87
-17 46 -13 1001 4 1035 33 62 82 88 165 86 l46 -1 5 -365z m1501 -1171 c0 -24
2 -50 3 -58 2 -8 6 -38 10 -67 3 -28 12 -82 20 -120 94 -439 314 -774 698
-1061 75 -56 160 -125 188 -154 125 -129 203 -294 227 -483 9 -67 9 -4221 0
-4310 -28 -285 -219 -561 -476 -689 -105 -53 -199 -81 -306 -93 -77 -9 -2102
-9 -2175 0 -210 24 -386 112 -540 268 -103 105 -181 245 -222 399 l-23 85 0
2190 0 2190 28 90 c36 116 94 225 162 307 57 70 104 111 263 226 192 141 362
329 480 535 105 183 187 441 208 657 4 36 8 72 10 80 1 8 3 23 3 33 1 16 42
17 721 17 l720 0 1 -42z M1595 6070 c-118 -38 -220 -132 -268 -250 l-22 -55
-2 -2045 c-2 -1769 -1 -2052 12 -2093 44 -145 150 -251 300 -298 31 -10 270
-13 1065 -13 564 0 1048 3 1077 6 172 20 331 182 351 358 9 82 8 3998 -2 4063
-22 155 -165 303 -324 336 -38 8 -362 11 -1090 10 -991 0 -1040 -1 -1097 -19z
m2162 -273 c17 -9 42 -31 55 -49 l23 -33 1 -2002 c2 -1951 1 -2003 -17 -2041
-12 -23 -35 -47 -58 -60 l-38 -22 -1026 3 c-1025 2 -1026 2 -1054 23 -15 12
-37 36 -47 54 -20 33 -20 69 -20 2035 l0 2001 21 35 c24 38 54 60 96 68 15 3
479 6 1030 5 908 -1 1005 -2 1034 -17z M2664 4404 c-50 -17 -70 -41 -213 -254
-239 -355 -376 -618 -425 -814 -54 -216 27 -475 200 -636 139 -129 296 -192
478 -192 185 1 350 68 488 200 153 146 235 380 204 580 -18 114 -122 355 -241
559 -81 138 -298 462 -342 512 -46 51 -92 65 -149 45z m96 -449 c144 -214 297
-496 344 -635 51 -153 10 -308 -112 -422 -158 -148 -385 -153 -559 -11 -120
97 -175 281 -129 423 27 80 104 240 176 365 63 111 219 355 226 355 2 0 26
-34 54 -75z M7011 9679 c-15 -9 -34 -28 -44 -42 -17 -26 -21 -42 -32 -132 -3
-27 -8 -57 -10 -65 -2 -8 -6 -31 -9 -50 -25 -164 -118 -404 -231 -595 -49 -83
-96 -186 -116 -252 -7 -24 -13 -43 -15 -43 -1 0 -23 9 -49 20 -26 11 -83 30
-128 42 -115 31 -326 30 -442 -1 -116 -31 -264 -107 -390 -201 -241 -179 -453
-282 -727 -355 -71 -19 -141 -41 -154 -50 -38 -25 -57 -71 -51 -128 4 -42 11
-56 43 -86 184 -173 498 -335 729 -376 17 -2 41 -7 55 -10 91 -19 269 -24 405
-12 293 26 640 151 977 354 60 36 110 64 112 62 28 -30 169 -360 219 -511 63
-190 135 -488 122 -508 -12 -19 -64 11 -125 70 -288 279 -628 378 -939 274
-106 -35 -184 -81 -309 -181 -216 -173 -378 -263 -602 -336 -130 -41 -164 -62
-185 -112 -31 -72 -3 -129 101 -203 198 -143 417 -233 632 -259 106 -14 351
-6 404 12 7 2 27 6 43 8 58 8 188 49 299 93 174 71 340 164 524 297 78 55 86
59 124 53 82 -13 78 2 73 -254 -2 -125 -6 -238 -8 -252 -3 -14 -8 -54 -12 -90
-3 -36 -8 -74 -10 -85 -3 -11 -7 -36 -9 -56 -23 -166 -97 -441 -180 -669 -62
-169 -60 -160 -46 -212 27 -96 166 -125 234 -49 33 36 187 491 211 620 2 13 5
25 7 26 2 2 57 5 123 6 114 3 122 2 160 -22 98 -63 240 -119 375 -149 104 -24
292 -21 384 4 204 57 352 165 488 355 102 142 127 172 233 277 97 96 219 191
316 247 58 34 85 64 96 107 23 86 -19 142 -142 188 -101 38 -188 62 -285 77
-25 3 -58 9 -75 12 -40 6 -242 6 -280 -1 -16 -2 -50 -8 -75 -11 -351 -48 -740
-303 -1063 -697 l-87 -106 -50 -4 c-53 -3 -73 0 -66 10 2 4 7 36 11 72 4 36 9
73 11 84 5 27 16 214 18 310 l2 85 49 37 c28 21 75 59 106 86 39 33 68 50 95
54 79 11 100 15 160 29 317 73 559 265 662 525 47 119 55 180 57 455 1 143 5
270 8 281 3 12 8 37 11 55 20 116 39 188 82 306 18 53 34 109 34 125 0 52 -28
95 -76 118 -51 25 -78 23 -206 -20 -463 -155 -781 -509 -912 -1012 -13 -52
-27 -114 -31 -138 -4 -25 -8 -47 -10 -50 -2 -3 -6 -34 -10 -70 -4 -36 -9 -74
-11 -85 -3 -11 -7 -94 -11 -185 -3 -91 -7 -167 -9 -169 -10 -11 -13 4 -30 129
-5 34 -9 56 -19 110 -3 14 -8 41 -11 60 -13 80 -78 315 -125 454 l-51 148 50
102 c108 221 200 488 228 661 3 21 8 47 10 59 7 37 18 189 18 261 0 331 -111
639 -323 893 -77 93 -162 173 -198 188 -41 18 -86 15 -122 -7z m254 -584 c32
-63 66 -153 81 -210 24 -88 27 -120 28 -270 1 -93 -3 -195 -7 -225 -21 -133
-117 -454 -145 -482 -9 -9 -46 145 -59 247 -9 67 -9 209 0 268 8 52 38 134 62
170 14 22 19 56 16 105 0 12 -16 38 -34 58 -26 29 -42 37 -80 41 -28 3 -59 0
-78 -7 -52 -22 -125 -156 -149 -275 -17 -84 -18 -98 -19 -163 l-1 -63 -33 27
c-33 26 -34 27 -25 82 12 73 51 169 105 258 92 152 187 377 233 554 l12 44 19
-24 c11 -14 44 -74 74 -135z m-960 -800 c39 -9 100 -29 135 -46 62 -29 194
-109 188 -114 -2 -1 -70 -5 -153 -9 -82 -3 -161 -8 -175 -10 -14 -3 -47 -7
-75 -11 -227 -28 -504 -139 -567 -227 -28 -41 -31 -112 -5 -152 24 -36 75 -66
112 -66 30 0 45 6 155 68 56 31 181 77 235 85 17 3 46 8 65 11 19 3 49 8 65
11 17 3 80 8 140 10 l110 5 -105 -51 c-168 -81 -396 -153 -563 -176 -69 -10
-279 -10 -347 0 -134 19 -286 68 -400 130 -30 17 -56 31 -58 32 -1 1 26 12 60
25 177 64 389 180 568 313 163 120 271 171 389 184 31 3 57 6 59 8 6 5 103 -7
167 -20z m2186 -341 c-5 -22 -12 -57 -16 -79 -3 -23 -7 -52 -10 -65 -14 -73
-19 -166 -18 -358 1 -184 -1 -222 -18 -285 -31 -110 -87 -193 -181 -269 -37
-30 -118 -78 -132 -78 -2 0 25 48 61 108 64 106 135 245 158 312 32 91 -33
183 -130 183 -70 0 -91 -22 -175 -184 -72 -139 -139 -253 -146 -247 -1 2 4 41
12 88 57 334 206 623 405 787 69 57 190 136 197 129 2 -2 -1 -21 -7 -42z
m-1875 -1129 c87 -27 138 -54 109 -56 -11 0 -31 -2 -45 -4 -14 -1 -56 -5 -95
-9 -38 -4 -77 -9 -85 -11 -8 -2 -31 -6 -50 -9 -91 -14 -180 -36 -212 -52 -35
-18 -68 -73 -68 -114 0 -47 27 -97 67 -121 34 -21 78 -23 163 -4 62 13 83 17
165 30 17 3 64 7 105 11 l75 5 -55 -31 c-133 -77 -325 -149 -470 -176 -164
-31 -366 -22 -505 22 -70 23 -145 55 -145 63 1 3 45 27 100 53 114 55 304 180
405 267 79 68 176 124 256 145 78 22 202 18 285 -9z m2561 -569 l52 -8 -37
-31 c-81 -67 -251 -247 -310 -327 -184 -250 -236 -295 -385 -341 -75 -23 -297
-23 -297 0 0 3 30 17 68 30 94 32 273 113 339 153 110 66 120 187 20 249 -45
28 -100 23 -172 -16 -72 -39 -174 -84 -270 -119 l-70 -26 70 66 c214 200 490
345 703 370 32 3 58 7 60 8 5 5 180 -1 229 -8z M6337 5484 c-1 -1 -110 -5
-242 -8 -132 -4 -314 -9 -405 -12 -91 -2 -222 -6 -292 -8 -145 -5 -177 -16
-210 -76 -16 -30 -18 -50 -14 -145 3 -60 8 -173 11 -250 3 -77 8 -176 10 -220
2 -44 7 -152 11 -240 3 -90 11 -173 19 -190 6 -16 46 -70 87 -120 253 -307
779 -970 974 -1230 301 -402 772 -1119 1417 -2160 101 -163 145 -225 169 -240
31 -18 58 -19 573 -21 297 0 565 -5 595 -10 30 -5 120 -9 200 -9 139 0 147 1
202 28 74 36 103 78 124 178 6 30 6 215 0 249 -5 24 -10 62 -22 140 -3 19 -7
42 -9 50 -3 8 -7 33 -10 55 -3 22 -10 65 -15 95 -13 74 -19 115 -24 148 -20
129 -30 180 -39 197 -18 35 -388 535 -726 980 -661 871 -1075 1379 -1275 1565
-183 169 -263 259 -423 473 -90 119 -297 427 -458 678 -55 86 -78 101 -159
103 -36 1 -67 1 -69 0z m44 -330 c73 -117 259 -395 347 -517 182 -254 334
-430 522 -603 245 -226 772 -891 1791 -2259 5 -7 -139 -10 -427 -10 l-435 0
-112 170 c-62 94 -180 274 -263 400 -83 127 -241 365 -349 530 -109 165 -226
343 -260 395 -34 52 -150 228 -258 392 -195 296 -195 296 -270 346 -119 81
-222 168 -357 302 -119 118 -252 262 -316 340 -16 19 -31 37 -34 40 -30 27
-393 501 -387 506 1 1 139 5 307 9 168 4 306 8 307 8 1 1 37 3 81 4 l79 1 34
-54z m-811 -429 c51 -66 96 -122 99 -125 3 -3 24 -27 46 -55 22 -27 44 -55 50
-61 5 -6 32 -38 60 -70 197 -233 467 -490 649 -619 68 -48 76 -59 304 -405
262 -396 455 -688 607 -920 56 -85 182 -276 280 -425 98 -148 202 -307 232
-352 l53 -83 -24 -87 c-14 -49 -30 -115 -35 -148 -11 -74 -12 -225 -1 -283 4
-24 4 -40 0 -35 -4 4 -99 154 -211 333 -374 599 -750 1176 -977 1499 -179 256
-502 673 -953 1230 -199 247 -262 331 -264 355 -7 72 -16 381 -12 376 3 -3 46
-59 97 -125z m3654 -3352 c10 -65 20 -125 22 -134 1 -9 5 -33 8 -53 3 -20 9
-52 12 -72 3 -20 8 -46 10 -58 6 -33 17 -147 18 -191 l1 -40 -90 0 c-49 1
-119 5 -155 10 -36 5 -250 9 -476 9 l-411 1 22 50 c26 59 25 89 -5 175 -34 99
-30 236 12 383 l11 37 502 0 501 0 18 -117z"/>
</g>
</svg>
