<svg xmlns="http://www.w3.org/2000/svg" viewBox="0 0 32 32">
  <path fill="currentColor" transform="rotate(50, 16, 16) scale(-1, 1) translate(-32, 0)" d="M14.23,30 C9.287,29.641 2.047,23.732 2.047,16 C2.047,8.269 9.132,2.434 14.23,2 C15.764,1.87 14.953,1.875 16.372,2 C13.035,4.104 9.216,9.962 9.216,16 C9.216,22.038 11.994,27.619 16.372,30 C15.024,30.125 15.698,30.106 14.23,30 L14.23,30 Z M11.256,16 C11.256,9.1 15.735,3.236 22,0.991 C20.243,0.361 18.353,0 16.372,0 C7.33,0 0,7.164 0,16 C0,24.837 7.33,32 16.372,32 C18.353,32 20.243,31.639 22,31.009 C15.735,28.764 11.256,22.901 11.256,16 L11.256,16 Z"/>
</svg>
