<svg xmlns="http://www.w3.org/2000/svg" viewBox="0 0 1024 1024">
<g transform="translate(0,1024) scale(0.1,-0.1)">
<path fill="currentColor" d="M3876 9918 c-13 -18 -16 -52 -16 -166 0 -138 1 -144 24 -167 26 -26
57 -26 85 -1 13 12 16 38 15 166 -2 129 -4 154 -19 170 -25 27 -70 26 -89 -2z
M1555 9860 c-34 -13 -58 -47 -52 -72 10 -37 135 -188 156 -188 25 0 67 35 74
60 4 15 -13 46 -61 110 -68 91 -83 102 -117 90z M3532 9837 c-29 -31 -28 -41
13 -117 19 -36 47 -89 62 -119 40 -77 66 -103 100 -97 30 6 63 39 63 63 0 9
-21 54 -47 102 -101 187 -104 191 -143 191 -15 0 -36 -10 -48 -23z M4247 9838
c-28 -22 -155 -267 -150 -289 11 -39 48 -53 99 -36 24 9 154 239 154 274 0 49
-64 80 -103 51z M8543 9822 c-99 -35 -171 -114 -197 -214 -50 -196 99 -387
305 -389 114 -1 234 75 282 179 33 71 31 188 -4 262 -31 65 -86 122 -149 151
-63 31 -169 35 -237 11z m196 -153 c73 -41 96 -128 56 -213 -51 -108 -213
-111 -282 -7 -50 74 -11 201 72 236 41 18 106 11 154 -16z M2019 9802 c-19
-10 -64 -41 -101 -71 -54 -42 -68 -58 -68 -80 0 -33 33 -71 62 -71 11 0 61 30
109 66 73 54 89 71 89 93 -1 26 -12 46 -41 68 -12 10 -22 9 -50 -5z M1745
9578 c-31 -24 -32 -60 -3 -88 37 -35 98 -10 98 39 0 56 -52 83 -95 49z M3283
9587 c-28 -13 -43 -55 -30 -84 12 -27 245 -173 275 -173 53 0 94 76 62 115
-13 16 -247 146 -270 150 -8 1 -25 -2 -37 -8z M4410 9517 c-138 -74 -158 -94
-146 -142 8 -33 50 -54 74 -37 9 6 71 41 137 78 66 36 123 71 127 78 12 18 9
63 -4 73 -34 26 -58 20 -188 -50z M1617 9475 c-52 -27 -167 -126 -167 -144 0
-10 9 -30 21 -45 32 -41 64 -34 151 32 96 73 101 80 80 122 -21 41 -51 53 -85
35z M1858 9452 c-29 -20 -38 -32 -38 -56 0 -24 118 -183 142 -191 21 -7 73 19
82 40 12 32 5 47 -54 125 -78 103 -90 110 -132 82z M3824 9424 c-60 -22 -119
-77 -150 -140 -88 -179 46 -394 245 -394 184 0 318 177 267 353 -19 64 -80
138 -140 169 -53 27 -165 34 -222 12z m153 -119 c121 -51 130 -205 15 -264
-139 -71 -273 91 -182 220 40 55 102 71 167 44z M3169 9211 c-27 -22 -31 -56
-9 -83 17 -22 25 -23 164 -24 89 0 155 4 169 10 31 16 35 69 7 93 -18 15 -41
18 -166 19 -119 0 -150 -3 -165 -15z M4343 9204 c-29 -29 -29 -49 0 -78 22
-22 29 -23 167 -21 169 3 154 1 174 21 22 22 20 57 -5 80 -19 17 -38 19 -167
20 -140 0 -148 -1 -169 -22z M3391 8931 c-72 -40 -129 -78 -136 -92 -25 -46
15 -98 68 -90 25 3 252 128 267 146 32 39 -3 105 -54 105 -11 0 -77 -31 -145
-69z M4280 8980 c-25 -25 -26 -64 -1 -89 26 -26 253 -146 271 -143 55 10 83
56 57 96 -18 26 -255 156 -285 156 -12 0 -31 -9 -42 -20z M1170 8866 c-117
-24 -198 -93 -384 -325 -243 -301 -431 -695 -516 -1081 -17 -80 -21 -100 -36
-197 -3 -21 -7 -49 -10 -63 -22 -127 -22 -550 0 -665 2 -11 7 -42 10 -70 4
-27 9 -57 11 -65 2 -8 6 -31 9 -51 3 -20 21 -96 40 -170 146 -572 484 -1089
947 -1450 345 -270 813 -475 1214 -533 23 -4 51 -8 64 -11 107 -20 537 -28
671 -12 88 11 209 29 265 41 339 70 742 243 1000 429 l40 28 7 -42 c4 -23 10
-61 13 -83 3 -23 8 -48 10 -56 2 -8 7 -39 10 -69 4 -30 8 -62 10 -71 15 -78
20 -145 20 -265 0 -168 -7 -224 -46 -369 -41 -155 -66 -263 -74 -316 -4 -24
-8 -47 -10 -50 -6 -9 -18 -134 -20 -200 -8 -312 274 -549 579 -485 224 47 390
260 381 490 -3 58 -16 178 -20 185 -2 3 -6 26 -10 50 -4 25 -20 108 -36 185
-36 165 -43 233 -43 375 0 120 7 189 29 290 4 14 8 36 11 49 22 107 103 279
189 401 37 52 69 97 71 99 1 1 56 -37 121 -86 276 -207 585 -359 923 -452 41
-11 86 -22 100 -25 14 -2 45 -9 70 -15 25 -5 68 -13 95 -17 28 -3 52 -7 55 -9
44 -26 657 -26 760 0 8 2 35 6 60 9 54 7 80 12 141 26 26 6 53 13 60 14 80 15
336 102 453 153 693 303 1236 897 1469 1608 36 111 57 183 64 220 2 11 8 36
13 55 8 32 31 163 44 250 19 129 25 444 12 565 -4 33 -9 80 -12 105 -67 573
-332 1125 -744 1550 -90 93 -192 130 -337 123 -392 -18 -1043 -387 -1718 -972
-174 -151 -207 -182 -445 -421 -280 -280 -572 -603 -731 -809 l-27 -34 -53 11
c-54 11 -302 10 -349 -2 -13 -3 -42 -8 -63 -11 -22 -4 -50 -10 -63 -15 -13 -5
-24 -8 -24 -6 0 3 -187 -51 -225 -65 -5 -2 -40 13 -76 34 -92 52 -200 78 -329
80 -110 2 -218 -10 -282 -29 -10 -3 -29 -7 -43 -10 -14 -2 -62 -16 -106 -30
-44 -14 -84 -24 -89 -22 -4 2 -41 46 -81 98 -109 142 -256 316 -414 490 -73
80 -510 517 -581 580 -33 30 -79 72 -102 92 -99 91 -360 303 -502 410 -619
463 -1144 694 -1440 634z m210 -211 c113 -16 264 -71 444 -161 593 -297 1352
-927 1956 -1624 36 -41 67 -77 70 -80 11 -10 230 -279 230 -282 0 -2 -37 -3
-83 -4 -54 -1 -102 -8 -140 -21 l-58 -20 -87 101 c-48 55 -91 106 -97 112 -5
6 -48 53 -94 105 -87 96 -407 418 -541 544 -427 399 -810 696 -1068 824 -342
171 -469 47 -303 -293 74 -149 306 -480 473 -672 14 -16 60 -69 103 -119 234
-272 534 -575 815 -825 272 -242 354 -311 460 -388 109 -80 249 -205 483 -432
195 -188 317 -310 317 -315 0 -8 -175 69 -285 125 -354 182 -817 519 -1209
880 -332 304 -515 502 -830 895 -340 425 -566 757 -708 1039 -118 234 -157
427 -106 525 45 88 106 108 258 86z m7680 -13 c150 -73 67 -432 -207 -895
-467 -789 -1389 -1742 -2218 -2294 -289 -193 -588 -339 -769 -378 l-59 -12 69
64 c38 36 98 93 134 127 170 160 331 291 470 381 144 93 391 278 506 380 7 6
38 33 70 60 276 235 670 628 946 943 521 596 769 1030 669 1171 -97 136 -429
-19 -943 -440 -372 -305 -752 -674 -1070 -1041 -201 -232 -181 -215 -268 -222
-41 -4 -92 -10 -113 -15 -33 -8 -42 -6 -67 16 -17 14 -30 30 -30 35 0 14 163
216 287 355 365 412 744 776 1108 1065 649 513 1267 805 1485 700z m470 -587
c133 -257 238 -597 265 -860 3 -33 8 -78 11 -100 12 -97 5 -451 -11 -534 -1
-9 -6 -38 -9 -66 -33 -244 -134 -558 -258 -795 -327 -630 -904 -1085 -1598
-1260 -118 -30 -139 -34 -219 -46 -25 -4 -55 -8 -66 -10 -135 -25 -553 -24
-687 1 -12 3 -40 7 -63 11 -197 28 -467 112 -665 207 -166 80 -394 221 -387
240 2 6 16 12 33 14 69 9 290 93 434 164 352 175 746 456 1215 868 187 164
226 201 455 431 320 319 565 605 787 917 l30 42 114 -65 c63 -37 118 -69 122
-73 4 -5 -10 -59 -33 -121 -42 -120 -48 -151 -27 -168 21 -17 318 -132 341
-132 35 0 58 23 54 54 -3 25 -13 31 -145 83 l-142 56 11 26 c50 129 77 217 72
233 -3 10 -70 57 -150 104 -79 47 -141 90 -138 96 4 5 37 56 74 111 168 254
326 581 374 772 10 39 20 77 23 85 6 19 109 -141 183 -285z m-8596 235 c27
-171 232 -597 410 -855 23 -33 45 -65 49 -72 5 -8 -40 -40 -137 -98 -80 -47
-147 -93 -151 -104 -3 -10 0 -31 6 -47 6 -16 26 -70 44 -120 l33 -91 -131 -53
c-73 -29 -138 -57 -144 -62 -33 -27 -4 -78 43 -78 28 0 327 120 346 139 17 15
15 23 -27 146 -25 71 -45 130 -45 131 0 4 224 132 236 136 6 2 46 -44 89 -102
72 -96 278 -354 340 -425 14 -16 50 -57 78 -90 132 -153 449 -481 544 -563 13
-10 51 -46 86 -78 295 -274 680 -579 972 -769 284 -185 587 -332 765 -371 14
-3 32 -7 40 -9 8 -2 21 -4 28 -4 28 -2 7 -22 -80 -79 -258 -166 -573 -296
-873 -358 -47 -10 -73 -14 -115 -20 -25 -3 -54 -8 -65 -10 -96 -19 -444 -26
-585 -11 -73 7 -96 10 -170 23 -19 3 -48 8 -65 11 -16 2 -48 9 -70 15 -22 5
-50 12 -61 14 -54 10 -209 59 -312 100 -696 272 -1224 830 -1456 1537 -33 100
-79 286 -91 372 -4 22 -8 51 -11 65 -20 119 -26 453 -10 605 6 68 22 165 51
310 29 150 141 446 232 615 57 106 185 300 194 295 3 -3 9 -23 13 -45z m7655
-159 c28 -18 -4 -128 -71 -248 -179 -321 -530 -752 -994 -1217 -136 -137 -495
-474 -518 -488 -7 -4 -23 16 -44 55 -67 130 -185 218 -324 242 -18 3 -34 8
-36 10 -10 10 301 347 538 585 529 528 1027 919 1325 1041 73 30 101 34 124
20z m-6835 -21 c163 -56 463 -257 766 -514 172 -146 245 -212 430 -391 336
-326 492 -485 615 -630 28 -32 67 -78 88 -102 20 -24 37 -48 37 -52 0 -4 -21
-17 -47 -30 -63 -30 -197 -118 -294 -192 -43 -33 -81 -59 -86 -59 -4 0 -26 17
-48 38 -22 20 -83 75 -135 122 -295 264 -623 600 -885 905 -345 403 -599 813
-562 910 9 21 52 19 121 -5z m3226 -1565 c71 -19 104 -34 168 -77 48 -33 51
-33 158 5 271 98 524 118 694 54 42 -15 73 -38 127 -93 l72 -73 40 14 c59 20
143 30 251 29 198 -2 317 -70 393 -223 l31 -64 -24 -16 c-97 -63 -580 -429
-679 -514 -150 -129 -510 -484 -631 -622 -102 -117 -236 -305 -279 -390 -160
-320 -188 -661 -86 -1065 8 -30 17 -71 20 -90 4 -19 8 -39 9 -45 2 -5 6 -32
10 -60 4 -27 10 -61 12 -75 9 -54 4 -167 -10 -212 -51 -170 -210 -282 -385
-272 -162 10 -301 121 -341 274 -12 42 -16 212 -7 228 3 4 8 27 11 52 3 25 8
56 11 70 3 14 8 41 11 60 3 19 16 71 29 115 24 84 54 196 61 230 12 60 15 75
22 125 14 110 6 447 -13 520 -2 8 -7 35 -10 60 -3 25 -24 142 -46 260 l-41
215 -306 305 c-168 168 -337 334 -377 370 -39 36 -93 85 -120 111 -77 70 -263
229 -333 284 l-63 49 23 18 c163 128 426 274 543 301 73 17 153 14 195 -6 38
-20 41 -19 177 42 254 115 502 154 683 106z M5580 6180 c-26 -26 -25 -54 4
-115 55 -116 173 -190 327 -202 64 -5 68 -4 84 20 10 16 14 34 10 46 -6 21
-18 26 -85 36 -56 8 -74 12 -111 28 -53 22 -110 77 -132 127 -35 81 -60 97
-97 60z M4524 6124 c-96 -59 -247 -82 -404 -61 -69 10 -74 9 -91 -11 -18 -22
-16 -54 5 -71 33 -27 280 -38 375 -16 76 18 177 70 198 101 18 29 10 58 -21
72 -19 8 -30 6 -62 -14z M5219 5389 c-179 -127 -306 -337 -312 -516 -2 -53 1
-67 17 -79 43 -31 81 -2 85 63 7 162 96 309 263 439 65 50 82 86 52 109 -29
22 -57 18 -105 -16z M3653 8823 c-20 -18 -134 -219 -147 -260 -9 -30 13 -72
43 -80 51 -13 66 5 169 201 48 90 49 96 25 124 -26 31 -65 37 -90 15z M4132
8833 c-7 -3 -19 -17 -26 -32 -13 -24 -12 -32 3 -67 33 -73 123 -229 139 -241
38 -30 102 1 102 50 0 31 -126 263 -153 282 -22 15 -41 18 -65 8z M3885 8749
c-25 -20 -25 -22 -25 -170 0 -136 2 -151 20 -169 23 -23 58 -26 85 -7 16 12
18 30 18 153 0 169 -4 189 -42 202 -25 9 -34 7 -56 -9z M5001 7929 c-39 -32
-34 -59 20 -130 77 -100 87 -109 114 -109 30 0 65 36 65 68 0 15 -26 57 -66
108 -70 91 -89 100 -133 63z M5429 7844 c-87 -64 -119 -94 -119 -116 0 -26 44
-68 71 -68 22 0 161 100 184 133 7 10 10 27 8 38 -6 22 -49 59 -68 59 -7 0
-41 -21 -76 -46z M5200 7660 c-24 -24 -25 -48 -4 -78 26 -37 101 -22 105 21 7
65 -57 101 -101 57z M5005 7508 c-94 -72 -97 -75 -89 -108 7 -32 41 -59 70
-55 25 2 170 109 184 135 6 11 4 27 -6 46 -32 62 -60 59 -159 -18z M5315 7529
c-38 -31 -29 -62 46 -159 51 -66 67 -80 90 -80 30 0 69 40 69 70 0 10 -30 56
-66 104 -72 94 -90 103 -139 65z M8881 3689 c-20 -18 -21 -30 -21 -173 0 -135
2 -155 18 -169 21 -19 54 -22 83 -7 18 10 19 23 19 169 0 141 -2 160 -19 175
-27 25 -56 27 -80 5z M8535 3609 c-14 -12 -25 -31 -25 -44 0 -27 124 -263 148
-282 23 -19 66 -16 84 5 35 40 33 47 -72 237 -54 100 -87 121 -135 84z M9254
3618 c-25 -11 -164 -264 -160 -291 8 -54 70 -74 109 -34 27 26 147 247 147
270 0 22 -32 57 -55 61 -11 2 -29 -1 -41 -6z M1483 3609 c-13 -5 -24 -14 -24
-21 -2 -21 -7 -70 -13 -113 -16 -132 -103 -288 -208 -376 -80 -66 -191 -122
-273 -136 -16 -3 -37 -7 -45 -8 -8 -2 -34 -4 -57 -4 -51 -1 -73 -21 -73 -65 0
-44 17 -57 82 -61 77 -6 111 -13 174 -36 232 -87 387 -292 407 -542 6 -66 19
-87 56 -87 44 0 67 23 69 72 9 171 63 290 187 413 111 111 235 169 383 179 74
5 92 17 92 61 0 46 -24 62 -107 69 -297 25 -540 278 -554 579 -2 27 -8 55 -13
62 -14 18 -55 25 -83 14z m66 -364 c66 -141 189 -262 339 -332 l53 -25 -61
-29 c-157 -74 -291 -212 -346 -355 l-17 -44 -38 77 c-65 133 -173 241 -312
313 l-75 38 72 35 c137 69 252 186 322 330 16 31 29 57 30 57 1 0 16 -29 33
-65z M6763 3376 c-226 -74 -293 -353 -126 -521 163 -163 450 -90 516 132 45
150 -30 313 -172 376 -57 25 -162 32 -218 13z m166 -161 c113 -58 114 -226 1
-282 -24 -13 -59 -23 -77 -23 -70 0 -146 54 -161 114 -19 72 27 174 91 201 38
16 106 11 146 -10z M8254 3324 c-20 -19 -24 -31 -19 -52 7 -32 25 -47 103 -87
31 -16 82 -44 113 -62 61 -35 101 -37 125 -5 19 24 17 66 -3 85 -28 25 -258
147 -277 147 -9 0 -28 -11 -42 -26z M9403 3279 c-145 -78 -164 -99 -136 -152
25 -48 59 -41 208 40 130 70 152 93 134 140 -8 22 -38 43 -61 43 -7 0 -72 -32
-145 -71z M8848 3195 c-196 -50 -269 -293 -134 -452 60 -71 189 -106 284 -78
186 56 258 294 134 440 -67 80 -182 116 -284 90z m141 -143 c63 -34 87 -114
57 -187 -45 -108 -216 -101 -267 12 -56 121 88 241 210 175z M8160 2968 c-25
-28 -26 -52 0 -78 18 -18 33 -20 174 -20 127 0 157 3 170 16 22 21 20 56 -4
82 -20 21 -29 22 -170 22 -141 0 -150 -1 -170 -22z M9340 2970 c-25 -25 -26
-62 -2 -83 16 -14 43 -17 174 -17 137 0 157 2 171 18 22 25 21 44 -4 76 l-20
26 -150 0 c-136 0 -151 -2 -169 -20z M8498 2758 c-16 -5 -28 -15 -28 -20 0 -6
-3 -9 -6 -6 -7 7 -171 -86 -198 -112 -45 -44 -12 -117 48 -107 34 6 234 113
266 142 38 34 16 100 -36 109 -11 2 -31 -1 -46 -6z M9292 2757 c-12 -6 -25
-21 -29 -35 -11 -44 8 -72 77 -109 36 -19 93 -50 127 -69 71 -39 92 -41 122
-16 49 39 27 89 -59 135 -25 13 -76 41 -114 61 -79 44 -93 47 -124 33z M8643
2580 c-31 -36 -143 -251 -143 -274 0 -24 31 -58 57 -62 8 -2 25 2 37 7 26 12
159 251 159 286 0 55 -75 85 -110 43z M9111 2574 c-11 -14 -19 -34 -18 -43 5
-29 140 -272 158 -281 36 -20 99 17 99 58 0 18 -103 214 -137 260 -31 41 -72
44 -102 6z M8880 2510 c-19 -19 -20 -31 -18 -177 l3 -157 28 -16 c24 -13 30
-13 55 0 l27 16 3 155 c2 145 1 156 -18 177 -26 27 -54 28 -80 2z M5330 2244
c-80 -73 -165 -276 -196 -470 -3 -21 -8 -43 -11 -47 -3 -5 -7 -48 -9 -96 -2
-67 1 -99 14 -134 81 -213 337 -273 500 -117 107 101 119 227 47 505 -69 264
-156 395 -262 395 -35 0 -50 -7 -83 -36z m119 -85 c66 -71 164 -379 170 -536
7 -172 -149 -279 -296 -204 -110 56 -134 164 -82 376 5 22 12 50 14 62 8 34
65 194 82 228 24 48 63 95 78 95 8 0 23 -9 34 -21z M2770 2085 c-31 -33 -23
-56 51 -154 61 -80 88 -93 127 -64 47 35 40 67 -31 158 -73 93 -104 106 -147
60z M3177 1995 c-69 -52 -87 -71 -87 -91 0 -29 41 -74 67 -74 10 0 58 30 106
66 71 55 87 72 87 94 0 31 -37 70 -67 70 -11 0 -59 -29 -106 -65z M7660 1921
c-13 -11 -20 -36 -24 -83 -27 -300 -265 -540 -558 -564 -80 -6 -111 -27 -104
-67 3 -12 5 -27 5 -34 1 -15 26 -23 93 -29 152 -15 278 -73 382 -177 108 -109
165 -228 182 -382 9 -83 13 -94 39 -101 35 -9 73 3 79 24 2 9 7 44 11 77 15
147 75 274 180 380 110 111 225 164 395 181 67 7 78 12 85 44 13 58 -8 74
-115 85 -81 8 -126 22 -210 63 -88 43 -210 157 -254 237 -41 74 -74 182 -81
260 -4 40 -13 76 -21 85 -19 20 -62 20 -84 1z m82 -369 c60 -126 176 -241 316
-311 l63 -32 -83 -42 c-118 -59 -238 -180 -293 -294 -22 -45 -42 -82 -45 -82
-4 -1 -11 14 -18 32 -16 45 -83 144 -134 197 -64 68 -125 114 -202 153 l-68
35 53 27 c66 34 140 85 197 139 50 47 134 168 153 221 7 19 15 35 19 34 3 0
22 -35 42 -77z M3000 1837 c-35 -18 -46 -41 -34 -74 13 -38 54 -52 88 -29 42
27 33 80 -20 109 -5 3 -21 0 -34 -6z M2880 1742 c-8 -3 -52 -34 -97 -69 -92
-71 -101 -91 -58 -137 30 -33 42 -33 92 2 112 78 143 106 143 133 0 42 -45 83
-80 71z M3130 1722 c-27 -9 -60 -45 -60 -67 0 -28 115 -178 146 -189 19 -8 30
-5 52 11 45 34 40 60 -29 152 -64 85 -84 102 -109 93z M4675 1444 c-59 -20
-103 -70 -156 -179 -82 -169 -160 -489 -154 -636 6 -133 96 -261 218 -308 72
-27 202 -24 269 6 71 32 141 103 173 176 45 98 41 205 -17 451 -45 194 -114
357 -185 436 -51 57 -95 73 -148 54z m79 -120 c87 -95 209 -513 200 -687 -5
-91 -58 -168 -146 -214 -62 -32 -157 -27 -221 10 -129 76 -150 196 -82 473 43
178 119 370 167 422 28 29 52 28 82 -4z M1063 1170 c-130 -46 -214 -170 -209
-311 6 -194 201 -335 391 -282 216 61 301 326 158 492 -86 101 -224 142 -340
101z m178 -156 c97 -42 118 -184 38 -260 -37 -35 -110 -54 -161 -41 -41 10
-107 74 -109 105 -1 9 -3 34 -4 55 -3 46 27 109 62 133 54 35 106 37 174 8z"/>
</g>
</svg>
