<svg xmlns="http://www.w3.org/2000/svg" viewBox="0 0 1024 1024">
<g transform="translate(0,1024) scale(0.1,-0.1)">
<path fill="currentColor" d="M2925 9984 c-123 -23 -151 -31 -250 -71 -93 -38 -511 -291 -522 -316
-15 -33 -6 -69 23 -94 22 -20 36 -23 122 -24 53 0 106 -2 117 -4 11 -2 40 -5
65 -8 25 -3 81 -15 126 -26 434 -111 777 -430 916 -851 14 -41 46 -151 72
-245 l48 -170 -37 -58 -38 -57 -35 42 c-119 145 -300 288 -465 368 -80 38
-217 88 -267 97 -14 2 -45 9 -70 14 -156 35 -393 30 -565 -11 -289 -68 -456
-171 -753 -464 -111 -110 -205 -211 -208 -223 -14 -55 39 -109 96 -98 13 2 42
7 64 11 22 3 43 7 46 9 3 1 30 6 61 9 31 4 66 9 78 11 140 27 735 27 877 1 10
-2 44 -7 74 -11 30 -4 64 -9 75 -11 11 -2 45 -8 75 -14 88 -16 89 -16 220 -50
124 -31 359 -104 393 -122 13 -7 15 -13 7 -28 -6 -11 -12 -43 -15 -72 -2 -29
-4 -56 -4 -59 -1 -4 -40 -19 -88 -34 -367 -114 -684 -386 -852 -728 -97 -198
-142 -386 -145 -597 -1 -123 7 -248 19 -282 2 -7 7 -31 10 -53 13 -90 84 -265
207 -513 72 -145 140 -272 151 -283 29 -26 73 -24 102 6 21 20 25 34 26 82 5
415 109 825 304 1201 129 247 264 429 484 655 85 86 156 156 157 154 2 -2 -6
-37 -17 -78 -58 -210 -166 -638 -193 -769 -3 -14 -27 -133 -55 -265 -27 -132
-52 -258 -55 -279 -4 -21 -8 -48 -11 -60 -5 -24 -6 -25 -39 -226 -14 -80 -27
-163 -31 -185 -23 -153 -34 -237 -40 -285 -3 -30 -8 -62 -10 -70 -2 -8 -7 -44
-10 -80 -3 -36 -8 -72 -10 -80 -2 -8 -7 -49 -10 -90 -4 -41 -8 -82 -10 -90 -2
-8 -6 -53 -10 -100 -4 -47 -8 -92 -10 -100 -2 -8 -6 -58 -10 -110 -3 -52 -8
-106 -10 -120 -2 -14 -7 -77 -10 -140 -4 -63 -8 -131 -10 -150 -27 -287 -27
-1522 0 -1810 2 -19 6 -87 10 -150 3 -63 8 -133 10 -155 2 -22 6 -87 10 -145
6 -103 5 -107 -34 -220 -30 -90 -41 -111 -47 -95 -4 11 -58 146 -120 300 -61
153 -121 290 -132 302 -28 31 -75 30 -107 -2 l-25 -24 0 -336 0 -335 -261 196
c-286 214 -308 226 -353 181 -14 -15 -26 -37 -26 -51 0 -14 61 -147 135 -295
l135 -271 -111 0 c-105 0 -111 -1 -136 -26 -21 -21 -24 -32 -19 -62 4 -30 32
-63 172 -203 92 -92 177 -173 190 -179 45 -25 101 7 110 62 6 36 4 40 -96 142
l-103 106 67 0 c85 0 123 18 131 63 6 29 -6 59 -79 205 -47 95 -86 174 -86
177 0 3 8 -2 18 -10 9 -8 96 -73 192 -146 162 -121 178 -130 209 -125 64 10
65 15 71 243 l5 207 84 -212 c92 -232 105 -249 167 -237 43 8 54 25 95 152 18
57 36 103 39 103 3 0 19 -54 35 -121 31 -127 51 -159 99 -159 35 0 59 23 197
193 73 89 136 167 141 172 6 6 7 -2 4 -20 -51 -300 -66 -403 -61 -426 7 -29
43 -59 72 -59 33 0 71 34 168 149 l96 114 -4 -119 c-5 -151 9 -183 82 -184 31
0 53 18 247 211 l212 211 -13 -64 c-7 -34 -16 -81 -19 -102 -4 -21 -8 -48 -11
-60 -6 -28 -14 -72 -21 -122 -5 -33 -2 -45 18 -69 35 -40 70 -36 175 24 49 28
92 51 96 51 4 0 -20 -35 -52 -77 -111 -149 -130 -181 -125 -211 11 -57 66 -88
114 -62 10 5 107 132 216 282 108 150 201 278 206 285 5 6 10 26 10 44 1 37
-39 79 -75 79 -12 0 -105 -47 -207 -104 -102 -57 -186 -103 -187 -102 -2 2 6
49 17 107 60 311 66 355 51 382 -16 30 -47 45 -81 40 -16 -2 -74 -53 -161
-139 l-135 -135 -32 103 c-17 57 -45 160 -62 230 -36 147 -31 124 -71 343 -17
94 -33 179 -35 190 -2 10 -6 35 -9 55 -3 20 -7 47 -10 60 -3 13 -7 42 -10 65
-6 39 -22 146 -30 195 -4 24 -9 63 -21 155 -3 22 -7 51 -9 65 -2 14 -7 50 -10
80 -3 30 -8 66 -10 80 -2 14 -6 54 -10 90 -4 36 -8 76 -10 90 -2 14 -6 59 -10
100 -4 41 -8 86 -10 100 -2 14 -7 66 -10 115 -4 50 -8 106 -10 125 -2 19 -6
87 -10 150 -4 63 -8 131 -10 150 -27 284 -27 1326 0 1755 5 86 16 233 20 280
1 22 6 83 10 135 4 52 8 102 10 110 2 8 6 53 10 100 4 47 8 92 10 100 2 8 6
49 10 90 3 41 8 82 10 90 2 8 7 44 10 80 4 36 9 72 10 81 2 9 6 40 10 70 3 30
10 81 15 114 5 33 12 78 15 100 4 22 8 51 10 65 15 89 18 107 20 120 2 8 4 17
4 20 5 20 162 -376 224 -560 77 -230 164 -562 192 -730 3 -19 8 -42 10 -50 2
-8 7 -33 10 -55 3 -23 7 -50 9 -60 4 -20 14 -88 21 -135 2 -14 7 -52 11 -85 3
-33 8 -67 9 -76 2 -8 6 -55 10 -105 4 -49 9 -105 11 -124 2 -19 6 -156 10
-305 3 -153 10 -279 16 -291 17 -35 59 -47 103 -30 19 7 527 643 580 726 112
172 177 352 210 575 8 53 8 259 0 310 -49 325 -173 576 -394 793 -86 85 -167
144 -412 297 l-206 128 23 51 c16 35 29 51 41 50 28 -2 146 -16 163 -19 8 -2
44 -6 80 -10 36 -4 72 -8 80 -10 8 -2 44 -6 80 -10 36 -4 72 -8 80 -10 8 -1
40 -6 70 -10 363 -48 684 -245 889 -545 47 -67 448 -848 439 -851 -2 0 -16 -3
-33 -5 -107 -15 -422 -129 -462 -166 -47 -44 -14 -122 55 -133 149 -25 282
-82 397 -170 71 -54 81 -64 146 -145 108 -132 166 -293 184 -505 4 -44 9 -87
10 -95 2 -8 6 -49 10 -90 l6 -75 -40 68 c-149 251 -369 407 -648 461 -77 15
-270 16 -338 2 -73 -15 -175 -51 -240 -83 -71 -36 -330 -209 -358 -241 -30
-33 -29 -72 3 -103 28 -28 32 -29 132 -30 57 0 119 -2 138 -4 19 -2 62 -6 95
-9 33 -3 85 -10 115 -16 30 -5 66 -11 80 -14 179 -32 409 -111 602 -207 l118
-59 -22 -45 c-12 -25 -29 -45 -37 -46 -9 0 -23 -2 -31 -4 -8 -2 -30 -6 -49 -9
-19 -4 -61 -16 -94 -27 -400 -135 -675 -527 -661 -946 4 -112 17 -177 79 -390
59 -199 78 -233 130 -233 44 0 72 38 90 125 86 406 324 779 659 1032 54 41
100 72 103 70 2 -3 -36 -85 -85 -183 -272 -544 -482 -1111 -628 -1697 -31
-125 -39 -147 -53 -141 -28 12 -71 7 -91 -11 -22 -20 -27 -41 -35 -145 -3 -41
-8 -95 -10 -120 -2 -25 -7 -74 -10 -110 -3 -36 -8 -85 -10 -110 -3 -25 -7 -76
-10 -115 -3 -38 -7 -90 -10 -115 -2 -25 -7 -74 -11 -110 -3 -36 -7 -66 -8 -68
-2 -1 -31 7 -66 19 -34 11 -76 21 -92 21 -35 1 -68 -28 -72 -65 -1 -15 14
-106 35 -204 41 -193 51 -213 111 -213 35 0 78 40 78 72 -1 13 -9 63 -20 113
-10 49 -17 91 -15 93 2 2 28 -4 58 -14 47 -15 60 -15 87 -4 45 18 46 22 65
245 2 28 7 75 9 105 13 142 19 207 20 227 1 12 4 24 7 27 2 3 47 -121 98 -275
95 -286 111 -319 157 -319 42 0 56 13 176 164 67 83 125 156 131 161 6 6 7 -8
3 -40 -3 -27 -8 -99 -12 -158 -7 -103 -6 -109 16 -132 31 -32 58 -32 158 5 46
17 85 30 87 30 2 0 -25 -44 -61 -97 -57 -86 -64 -102 -60 -133 9 -58 63 -85
114 -57 28 16 281 399 289 437 7 38 -21 78 -60 85 -23 4 -65 -6 -152 -38 -66
-25 -131 -48 -144 -52 l-23 -7 7 88 c4 49 8 105 10 124 2 19 7 81 11 138 6 92
4 105 -12 124 -11 11 -29 24 -41 29 -14 5 -21 15 -19 26 2 10 7 72 11 138 3
66 8 131 10 145 2 14 7 59 10 100 4 41 8 82 10 90 2 8 6 49 10 90 4 41 8 77
10 80 1 3 6 30 9 61 4 31 9 67 11 80 3 13 8 44 11 69 3 25 7 52 9 60 3 8 7 33
10 55 4 22 8 47 10 55 3 8 7 33 10 55 4 22 8 48 11 57 5 18 12 48 19 93 39
218 242 943 274 978 7 7 43 -174 56 -288 4 -27 8 -61 10 -74 26 -160 26 -691
0 -854 -2 -12 -6 -44 -10 -72 -3 -27 -8 -59 -10 -70 -3 -11 -7 -36 -9 -55 -3
-19 -10 -60 -16 -90 -13 -69 -6 -104 27 -125 43 -28 76 -13 196 92 62 54 114
100 117 103 3 3 41 36 85 75 217 187 309 325 366 543 23 89 32 259 18 347 -30
190 -120 372 -251 505 -24 25 -80 78 -125 118 -77 69 -81 75 -72 101 l10 28
169 -52 c93 -29 199 -66 234 -83 169 -79 300 -208 385 -379 27 -53 82 -222
176 -538 145 -489 147 -494 208 -495 29 0 76 38 78 62 0 7 2 22 4 33 3 18 16
90 29 165 3 14 10 52 16 85 5 33 12 71 15 85 2 14 9 54 15 90 7 36 14 74 15
85 2 11 9 47 14 80 20 116 23 141 25 227 13 480 -315 912 -784 1033 -142 37
-335 41 -480 10 -109 -24 -108 -17 10 50 63 36 147 79 187 95 78 33 230 75
303 85 25 3 59 8 75 11 43 8 252 7 305 0 58 -9 135 -22 270 -46 30 -5 66 -11
80 -14 14 -2 52 -9 85 -15 33 -6 75 -13 93 -16 17 -3 47 -8 65 -11 78 -14 97
-13 122 9 31 27 37 64 18 97 -19 32 -514 442 -602 497 -82 53 -169 87 -306
120 -48 11 -237 10 -301 -2 -176 -34 -338 -118 -460 -240 -22 -23 -96 -115
-164 -205 -132 -177 -155 -205 -146 -180 13 37 117 412 131 473 17 72 22 193
11 267 -29 198 -149 383 -323 499 l-58 38 -1 409 c-1 225 -4 423 -7 439 -3 17
-9 53 -13 80 -3 28 -8 53 -10 56 -2 3 -6 21 -9 40 -23 132 -134 383 -231 522
-72 102 -84 116 -179 212 -245 247 -537 387 -915 441 -51 7 -304 7 -336 0 -12
-2 -45 -7 -75 -11 -30 -4 -57 -9 -60 -11 -3 -2 -20 -6 -37 -9 -52 -9 -181 -52
-363 -120 -172 -65 -199 -73 -199 -56 0 9 294 258 405 342 230 176 584 336
850 383 17 3 40 8 52 10 11 3 43 7 70 11 26 4 59 9 73 12 14 3 273 8 575 10
533 4 551 5 572 25 28 26 33 49 18 84 -10 25 -87 72 -465 288 -494 283 -593
331 -745 362 -91 19 -193 30 -275 28 -400 -5 -750 -176 -984 -479 -87 -112
-87 -112 -227 -389 -72 -142 -129 -244 -133 -237 -4 6 -29 22 -56 36 -35 18
-48 30 -46 42 2 10 7 56 11 103 4 47 8 92 10 100 2 8 6 53 10 100 4 47 9 93
10 102 6 30 18 202 18 248 -2 324 -158 637 -416 831 -129 98 -292 168 -472
204 -62 13 -262 12 -330 -1z m313 -158 c209 -48 338 -115 471 -240 173 -166
275 -402 274 -641 0 -75 -21 -285 -29 -294 -2 -2 -4 20 -5 50 0 30 -2 62 -4
71 -2 9 -6 34 -9 55 -14 88 -19 110 -48 192 -96 271 -282 487 -534 618 -82 43
-230 97 -294 107 -88 15 -152 20 -239 19 -85 0 -91 1 -63 12 30 13 176 51 222
58 34 5 230 0 258 -7z m-282 -230 c84 -8 223 -49 308 -92 245 -123 429 -349
495 -610 26 -103 30 -142 46 -485 5 -105 4 -127 -8 -132 -11 -4 -25 31 -62
161 -82 287 -134 408 -248 576 -80 117 -257 294 -369 370 -111 73 -255 145
-352 176 -41 13 -73 27 -71 30 2 3 25 7 52 9 26 1 49 3 50 5 4 3 68 0 159 -8z
m2781 -451 c46 -9 117 -27 156 -42 68 -24 231 -103 225 -108 -2 -2 -34 3 -73
11 -158 31 -428 36 -555 9 -13 -2 -42 -7 -64 -11 -22 -3 -43 -7 -47 -9 -3 -2
-21 -7 -40 -10 -73 -13 -220 -68 -344 -130 -161 -80 -284 -167 -419 -294 l-49
-46 34 65 c102 194 286 374 487 474 59 30 210 82 262 90 19 3 60 9 90 12 30 4
56 7 58 9 9 7 208 -7 279 -20z m183 -280 c82 -10 187 -33 260 -56 78 -25 272
-99 282 -108 4 -3 -113 -6 -260 -6 -231 0 -424 -9 -442 -20 -3 -2 -30 -6 -60
-10 -86 -11 -305 -69 -420 -113 -150 -56 -329 -148 -466 -240 -94 -63 -303
-228 -455 -359 -14 -12 -17 -11 -22 6 -5 22 126 224 231 355 249 310 612 510
1007 552 33 3 61 7 63 9 5 4 229 -3 282 -10z m-3284 -429 c193 -26 397 -110
556 -229 66 -50 217 -195 193 -185 -5 2 -71 33 -145 70 -165 81 -352 145 -480
164 -19 3 -42 7 -50 9 -15 4 -69 12 -145 20 -51 6 -332 7 -365 1 -14 -2 -50
-7 -80 -11 -30 -4 -62 -8 -70 -10 -8 -2 -33 -6 -55 -10 -22 -4 -43 -9 -46 -11
-3 -2 -20 -6 -37 -9 -18 -3 -66 -16 -107 -29 -41 -13 -73 -20 -70 -16 9 15
138 96 202 129 128 64 256 102 393 117 30 4 56 7 58 9 5 4 200 -3 248 -9z
m1411 -318 c76 -35 132 -125 133 -210 0 -26 -3 -49 -7 -51 -5 -3 -33 -8 -63
-12 -30 -3 -85 -20 -122 -37 l-68 -31 -32 24 c-52 38 -160 84 -171 72 -11 -10
-18 40 -12 78 14 85 100 170 189 189 46 9 105 1 153 -22z m-1532 8 c110 -7
130 -9 280 -40 64 -14 206 -61 291 -97 95 -41 265 -133 311 -169 l22 -17 -30
-22 -31 -23 -171 56 c-95 30 -192 60 -217 67 -25 7 -49 14 -55 15 -42 12 -353
74 -396 79 -30 3 -65 8 -79 10 -103 16 -200 20 -443 20 l-277 0 42 18 c50 22
283 82 348 91 25 3 88 9 140 12 52 4 96 8 98 9 1 1 17 1 35 -1 17 -1 77 -5
132 -8z m2940 -311 c33 -3 69 -8 80 -10 11 -3 32 -7 46 -9 54 -9 157 -41 244
-76 452 -183 785 -619 840 -1100 8 -68 15 -263 9 -257 -2 2 -19 51 -38 109
-175 540 -606 956 -1151 1113 -69 20 -123 33 -210 49 -87 16 -355 23 -455 12
-19 -2 -84 -7 -145 -11 -60 -4 -113 -9 -117 -12 -5 -2 -8 0 -8 4 0 13 351 140
450 163 47 11 119 23 160 26 41 4 76 7 77 8 5 4 157 -2 218 -9z m-1703 -119
c46 -22 92 -65 115 -108 24 -44 24 -170 1 -214 -42 -77 -122 -127 -209 -130
-140 -5 -252 111 -244 252 10 164 189 270 337 200z m511 -35 c153 -75 178
-281 47 -393 -73 -64 -171 -76 -258 -32 -29 14 -52 30 -52 34 0 5 9 30 21 57
30 69 37 196 15 264 -17 50 -17 53 1 63 67 40 153 43 226 7z m907 -175 c87 -8
107 -12 226 -42 488 -120 888 -479 1069 -961 28 -72 72 -247 79 -315 4 -27 8
-69 11 -95 3 -27 8 -58 11 -70 2 -13 2 -23 -1 -23 -3 0 -84 159 -181 353 -216
432 -265 510 -417 666 -153 157 -354 282 -561 349 -126 42 -223 61 -438 87
-215 27 -260 34 -267 41 -2 2 13 4 35 4 48 1 218 12 221 14 4 4 142 -2 213 -8z
m-1771 -313 c25 -20 48 -38 50 -40 2 -2 -43 -51 -100 -110 -232 -239 -403
-478 -538 -752 -80 -163 -172 -411 -202 -548 -17 -76 -21 -69 -35 60 -59 570
195 1086 677 1377 46 27 88 50 93 50 5 0 30 -17 55 -37z m-534 -115 c-184
-187 -301 -374 -379 -609 -19 -57 -37 -115 -39 -129 -3 -14 -8 -36 -11 -50
-34 -144 -40 -438 -12 -586 8 -44 17 -134 12 -134 -9 0 -74 189 -76 220 0 3
-5 21 -10 40 -15 52 -24 153 -24 265 0 137 12 222 51 355 77 266 267 525 501
681 57 38 104 69 106 69 1 0 -52 -55 -119 -122z m1047 75 c10 -9 18 -24 18
-33 0 -14 -8 -17 -42 -15 -24 2 -51 4 -60 4 -29 2 -21 26 15 44 41 20 47 20
69 0z m470 -160 c314 -305 504 -680 555 -1093 19 -152 6 -480 -22 -580 -2 -8
-7 -28 -9 -45 -9 -53 -53 -191 -97 -302 -47 -119 -55 -134 -55 -100 -1 46 -16
289 -19 310 -2 12 -6 52 -10 89 -3 37 -8 77 -10 90 -2 13 -6 46 -10 73 -6 54
-22 155 -30 195 -2 13 -7 42 -11 65 -3 22 -17 92 -30 155 -14 63 -27 125 -30
136 -43 219 -199 694 -315 961 -27 61 -49 116 -49 122 0 5 8 12 18 14 9 3 18
5 20 6 2 0 48 -43 104 -96z m429 -139 c343 -224 539 -580 540 -979 1 -289 -80
-513 -276 -766 -38 -48 -70 -87 -71 -86 -2 2 8 38 21 81 21 67 35 128 60 256
21 105 28 423 12 550 -41 335 -185 693 -384 952 -30 40 -61 80 -67 88 -13 17
33 -10 165 -96z m-917 55 c-1 -36 -12 -123 -19 -149 -2 -8 -6 -40 -10 -70 -3
-30 -7 -64 -10 -75 -2 -11 -4 -29 -4 -40 -1 -19 -8 -20 -96 -20 -58 0 -95 4
-95 10 0 5 5 28 11 50 5 22 11 48 14 57 8 35 66 253 70 266 3 9 24 11 72 9
l68 -3 -1 -35z m-71 -518 c5 0 6 -9 3 -18 -2 -10 -8 -52 -11 -93 -4 -41 -9
-83 -11 -93 -1 -9 -6 -54 -10 -100 -4 -45 -8 -89 -10 -97 -1 -8 -3 -29 -3 -45
l-1 -30 -130 -2 c-71 -1 -132 2 -134 6 -3 4 -1 25 4 47 5 21 28 122 50 224 22
102 42 190 44 195 3 8 163 13 209 6z m-62 -646 c1 -16 -2 -96 -6 -135 -2 -19
-7 -93 -10 -165 -4 -71 -8 -155 -10 -185 -2 -30 -4 -65 -4 -77 -1 -23 -1 -23
-176 -23 -138 0 -175 3 -175 13 0 7 4 38 10 68 5 30 12 68 14 84 3 17 8 46 11
65 3 19 8 49 11 65 2 17 14 82 25 145 12 63 22 122 24 130 1 12 24 16 106 20
149 7 179 6 180 -5z m2909 -55 c186 -63 326 -211 376 -397 15 -57 20 -194 10
-242 -12 -56 -141 -510 -144 -507 -4 5 -9 41 -16 116 -12 119 -24 222 -32 265
-53 296 -251 563 -521 702 -83 43 -84 43 -56 54 115 44 271 48 383 9z m-2949
-1030 c-1 -184 -3 -336 -4 -337 -8 -7 -442 -6 -441 2 1 6 5 47 8 92 4 46 9 91
10 100 2 10 7 50 10 88 4 39 9 81 11 95 2 14 7 48 10 75 9 75 16 128 20 150 2
11 4 32 4 48 l1 27 187 -2 186 -3 -2 -335z m4454 316 c103 -28 213 -90 335
-192 136 -114 199 -168 185 -161 -5 3 -28 8 -50 11 -40 6 -129 22 -175 31 -13
3 -41 7 -62 10 -21 3 -56 8 -79 11 -92 12 -310 6 -403 -12 -11 -2 -38 -6 -59
-9 -137 -21 -326 -95 -515 -201 -80 -45 -149 -81 -154 -78 -9 6 217 314 285
390 90 100 229 178 372 209 76 17 241 12 320 -9z m-2118 -113 c218 -49 396
-180 513 -379 27 -46 50 -87 50 -89 0 -2 -17 -9 -39 -16 -37 -11 -42 -9 -153
50 -224 119 -518 225 -718 257 -14 2 -34 6 -46 9 -11 2 -45 7 -75 11 -30 4
-61 8 -69 10 -8 1 -30 3 -47 3 -18 1 -33 5 -33 9 0 11 133 86 190 106 123 45
302 57 427 29z m971 -526 c40 -36 55 -76 48 -123 -7 -55 -22 -80 -64 -106 -39
-24 -44 -21 -49 28 -5 49 -43 121 -87 165 -32 32 -35 38 -21 49 41 34 129 27
173 -13z m-302 -123 c106 -51 106 -207 0 -258 -63 -30 -124 -17 -175 38 -34
36 -40 118 -12 164 42 66 118 89 187 56z m-2996 -156 c1 -57 3 -128 5 -158 5
-118 17 -317 20 -352 2 -21 1 -38 -3 -39 -44 -5 -126 -11 -359 -25 -54 -3
-115 -7 -136 -9 l-38 -3 6 132 c13 281 31 531 39 545 2 3 107 7 234 9 l230 3
2 -103z m4121 69 c184 -44 335 -130 454 -259 205 -221 280 -499 220 -808 -6
-30 -22 -122 -30 -170 -3 -19 -10 -52 -14 -72 -5 -20 -8 -38 -7 -40 0 -2 -2
-1 -5 2 -4 3 -43 129 -88 280 -46 156 -99 312 -122 359 -98 207 -267 376 -470
471 -35 16 -158 58 -273 94 -115 35 -213 70 -217 78 -15 23 -10 38 14 39 12 0
29 2 37 4 185 44 376 52 501 22z m-1455 -182 l31 -63 -66 -49 c-90 -66 -263
-239 -346 -347 -91 -117 -182 -270 -234 -392 -23 -54 -47 -110 -53 -124 -20
-44 -50 101 -50 240 0 359 226 665 572 774 107 34 110 34 146 -39z m767 -24
c-6 -45 -46 -99 -86 -116 -62 -26 -138 -4 -173 51 -16 24 -16 26 2 45 12 11
39 21 64 24 48 5 140 46 161 71 12 15 15 14 25 -11 6 -16 9 -44 7 -64z m-380
-177 c18 -23 18 -27 1 -69 -16 -43 -19 -45 -55 -45 -22 0 -39 2 -39 5 0 10 65
134 70 134 3 0 13 -11 23 -25z m479 -101 c109 -98 187 -181 226 -242 139 -214
157 -489 47 -726 -49 -106 -109 -180 -253 -308 -72 -64 -133 -117 -136 -117
-6 0 -1 66 9 129 27 165 27 704 1 861 -3 14 -7 48 -11 75 -12 95 -24 169 -51
303 -3 17 2 24 23 32 16 6 39 17 53 25 14 8 28 15 32 15 3 0 30 -21 60 -47z
m-552 -180 c0 -5 -11 -46 -26 -94 l-26 -85 -69 0 c-38 0 -69 4 -69 8 0 4 19
46 42 93 l42 85 53 0 c29 0 53 -3 53 -7z m-2947 -123 c7 -6 14 -63 22 -165 3
-44 8 -91 10 -105 2 -14 6 -56 10 -95 3 -38 8 -83 10 -100 2 -16 7 -52 10 -80
12 -101 17 -141 21 -167 2 -15 1 -29 -4 -32 -4 -2 -39 -7 -77 -11 -39 -4 -80
-8 -92 -10 -12 -2 -57 -7 -100 -10 -43 -4 -86 -9 -96 -11 -27 -5 -178 -17
-222 -18 l-40 -1 -2 388 c-2 298 0 387 10 388 7 0 26 2 42 4 38 4 188 13 325
21 58 3 106 7 107 8 5 4 61 1 66 -4z m2842 -222 c4 -3 -1 -30 -9 -59 -8 -30
-20 -73 -26 -96 l-11 -43 -99 0 c-55 0 -100 2 -100 3 0 2 18 46 39 98 l40 94
63 5 c76 6 96 6 103 -2z m-85 -365 c0 -5 -13 -69 -28 -143 l-28 -135 -132 -3
c-91 -2 -132 1 -132 8 0 7 21 72 47 146 l48 134 112 0 c62 0 113 -3 113 -7z
m-2630 -444 c10 -68 21 -142 24 -164 4 -23 8 -50 10 -62 3 -11 7 -38 11 -59 7
-45 8 -54 33 -191 11 -56 16 -101 13 -101 -6 2 -121 -11 -156 -18 -11 -2 -45
-6 -75 -10 -30 -3 -62 -8 -71 -9 -9 -2 -40 -6 -69 -10 -29 -4 -60 -8 -69 -10
-9 -1 -45 -6 -81 -10 -36 -4 -72 -9 -81 -10 -9 -2 -39 -6 -67 -10 -46 -6 -52
-4 -53 12 -1 10 -2 29 -4 43 -1 14 -6 81 -10 150 -3 69 -8 141 -10 160 -2 19
-6 108 -10 198 l-7 162 29 1 c15 0 36 2 45 4 9 2 54 6 100 10 46 4 90 9 99 10
9 2 52 6 95 10 43 4 86 9 95 10 9 2 52 6 95 10 43 4 81 9 83 11 9 8 12 -7 31
-127z m2536 -51 c-3 -29 -8 -64 -10 -78 -6 -31 -13 -79 -22 -147 l-7 -53 -168
0 c-93 0 -169 2 -169 6 0 7 45 168 72 257 l20 67 145 0 145 0 -6 -52z m-60
-470 c-2 -18 -8 -76 -12 -128 -4 -52 -8 -106 -10 -120 -1 -14 -2 -33 -3 -42
-1 -17 -18 -18 -205 -18 l-204 0 25 113 c13 61 26 121 28 132 3 11 8 34 11 50
3 17 8 33 11 38 2 4 85 7 184 7 l180 0 -5 -32z m-2317 -346 c19 -75 38 -145
43 -155 9 -17 8 -18 -15 -2 -60 39 -81 28 -183 -90 -42 -50 -78 -92 -81 -95
-4 -5 5 85 12 110 3 8 7 33 10 55 3 22 8 51 11 65 11 58 13 69 17 101 3 19 9
55 12 81 8 51 4 48 95 62 46 6 45 8 79 -132z m-365 86 c-12 -20 -304 -377
-313 -382 -7 -4 -19 35 -45 144 -2 8 -14 53 -26 99 -11 46 -20 85 -18 87 5 4
67 14 188 29 25 4 56 8 70 10 14 2 50 7 80 10 30 4 57 9 59 11 9 9 12 3 5 -8z
m2646 -264 l0 -56 -107 -134 c-58 -74 -108 -132 -111 -130 -2 3 -32 88 -66
190 l-63 186 174 0 173 0 0 -56z m-2191 -136 l29 -86 -35 -33 -34 -34 2 123
c1 67 4 120 6 119 2 -2 16 -42 32 -89z"/>
</g>
</svg>
