<svg xmlns="http://www.w3.org/2000/svg" viewBox="0 0 1024 1024">
<g transform="translate(0,1024) scale(0.1,-0.1)">
<path fill="currentColor" d="M3059 10236 c-2 -2 -33 -6 -69 -10 -72 -7 -98 -11 -180 -28 -30 -6
-59 -12 -65 -14 -106 -21 -304 -93 -436 -159 -193 -97 -418 -264 -489 -363
-134 -186 -111 -434 54 -597 60 -59 88 -76 246 -146 178 -79 434 -221 673
-371 155 -98 477 -319 477 -328 0 -3 -89 -5 -198 -5 -175 0 -281 -6 -348 -19
-12 -2 -45 -7 -75 -11 -30 -4 -56 -8 -59 -10 -3 -2 -25 -6 -48 -10 -68 -10
-281 -71 -388 -110 -702 -261 -1296 -838 -1561 -1517 -79 -205 -46 -399 94
-535 138 -135 296 -162 523 -90 113 35 358 102 413 111 15 3 35 7 45 10 9 3
28 7 42 10 14 2 68 14 120 24 52 11 109 22 125 25 17 3 84 14 150 26 66 11
140 23 165 26 56 8 107 15 140 20 14 2 52 7 85 11 33 3 68 8 77 9 9 2 48 7 85
10 37 4 79 8 93 10 25 4 132 12 262 20 177 10 508 16 509 9 1 -17 7 -41 28
-118 43 -155 135 -303 263 -420 l70 -65 -86 -148 c-294 -502 -561 -1131 -756
-1783 -75 -254 -185 -691 -214 -855 -3 -16 -8 -41 -11 -55 -3 -14 -7 -36 -10
-50 -5 -25 -10 -51 -20 -100 -6 -30 -9 -49 -34 -200 -11 -63 -23 -135 -26
-160 -3 -25 -8 -56 -10 -70 -2 -14 -7 -45 -10 -70 -3 -25 -8 -56 -10 -70 -2
-14 -7 -50 -10 -80 -3 -30 -8 -66 -10 -80 -2 -14 -6 -54 -10 -90 -4 -36 -8
-76 -10 -90 -2 -14 -6 -59 -10 -100 -3 -41 -8 -91 -10 -110 -2 -19 -7 -78 -10
-130 -3 -52 -8 -115 -10 -140 -7 -88 -17 -306 -20 -476 -2 -125 1 -191 11
-236 43 -188 177 -342 355 -407 49 -18 154 -50 183 -55 6 -2 36 -8 66 -14 68
-14 103 -20 160 -28 25 -3 56 -7 70 -10 157 -25 800 -25 936 0 11 2 44 7 75
10 31 4 67 9 80 11 13 3 41 7 63 11 98 14 271 65 333 98 134 71 229 182 277
327 21 64 24 88 21 184 -1 61 -6 124 -9 140 -7 31 -23 112 -31 155 -3 13 -7
42 -10 65 -3 22 -10 65 -15 95 -14 82 -18 110 -25 169 -4 30 -8 61 -10 70 -1
9 -6 43 -9 76 -4 33 -9 71 -11 85 -4 26 -12 106 -21 200 -2 30 -7 73 -9 95 -2
22 -7 81 -10 130 -4 50 -9 106 -10 125 -2 19 -7 96 -10 170 -4 74 -9 164 -11
200 -5 90 -5 759 0 845 2 39 7 124 11 190 3 66 8 134 10 150 2 17 7 62 10 100
7 79 13 143 20 195 3 19 7 53 10 75 7 53 16 115 21 140 2 10 6 37 10 60 35
241 121 573 206 793 l40 104 32 -6 c65 -12 82 -16 110 -22 37 -8 210 -8 256 1
192 34 372 117 500 232 l44 40 111 -80 c100 -72 360 -277 410 -323 12 -11 54
-48 95 -84 41 -35 100 -87 130 -115 70 -63 519 -512 586 -585 77 -84 252 -295
323 -390 116 -155 177 -207 287 -245 219 -76 466 28 565 239 26 56 69 219 84
316 3 20 7 46 10 58 20 105 28 494 12 642 -83 806 -504 1517 -1162 1967 l-110
75 250 -7 c138 -4 270 -8 295 -10 98 -5 246 -17 270 -20 14 -2 61 -6 104 -10
43 -4 86 -8 95 -10 9 -1 39 -6 66 -9 54 -7 80 -11 165 -26 62 -10 67 -12 200
-38 184 -36 325 -2 446 110 141 130 176 310 107 543 -167 560 -547 1005 -1074
1258 -136 65 -371 144 -489 163 -14 2 -34 6 -46 9 -12 3 -39 7 -60 10 -21 4
-50 8 -63 10 -138 23 -527 23 -661 1 -25 -5 -65 -11 -137 -22 -21 -3 -93 -18
-160 -34 -468 -112 -882 -343 -1235 -689 -92 -90 -128 -119 -129 -105 0 10 -2
28 -4 39 -2 11 -7 43 -11 70 -3 28 -7 52 -9 55 -2 3 -6 25 -10 50 -4 25 -8 47
-10 51 -2 3 -7 21 -10 40 -9 50 -51 197 -81 281 -193 544 -557 1009 -1044
1336 -130 86 -302 178 -438 232 -93 36 -276 93 -342 105 -14 3 -36 7 -50 10
-14 3 -45 8 -70 11 -25 3 -54 8 -65 11 -25 6 -390 14 -396 9z m326 -291 c370
-39 733 -196 1059 -459 350 -284 611 -656 759 -1082 36 -102 81 -276 92 -349
3 -23 7 -51 10 -64 2 -13 7 -49 10 -80 4 -31 8 -67 11 -81 2 -14 4 -80 5 -147
l0 -121 -39 -69 c-64 -114 -129 -255 -175 -386 -6 -15 -14 -11 -64 29 -32 26
-73 56 -91 67 -20 12 -55 53 -86 101 -211 326 -546 605 -897 745 -37 14 -101
60 -195 137 -478 397 -1145 821 -1604 1020 -137 59 -180 123 -157 236 22 107
359 330 637 422 129 43 279 74 397 82 48 4 89 7 90 9 5 3 179 -4 238 -10z
m4485 -1440 c296 -52 417 -88 605 -180 279 -137 499 -326 674 -578 120 -174
250 -482 257 -611 5 -95 -58 -170 -153 -183 -18 -3 -67 3 -110 12 -43 9 -89
18 -103 21 -57 10 -137 24 -175 29 -22 3 -51 8 -65 10 -14 3 -47 7 -75 10 -27
3 -63 8 -80 10 -16 2 -66 7 -110 10 -44 4 -90 8 -103 10 -174 28 -1075 27
-1327 -1 -22 -2 -79 5 -127 16 -49 11 -105 23 -125 25 -21 3 -67 9 -103 14
-66 9 -417 8 -456 -2 -12 -3 -45 -8 -75 -12 -90 -11 -271 -61 -370 -101 -87
-35 -102 -38 -199 -39 -110 -2 -188 -10 -242 -26 -57 -16 -58 -14 -34 59 191
552 676 1067 1242 1316 173 76 423 153 554 170 25 3 56 8 69 11 13 2 56 7 95
11 39 3 73 8 75 10 6 6 422 -4 461 -11z m-4550 -579 c19 -3 55 -8 80 -11 278
-34 604 -165 831 -335 98 -73 249 -212 249 -229 0 -5 -29 -9 -64 -10 -35 -1
-74 -4 -87 -6 -13 -3 -41 -7 -64 -11 -97 -14 -243 -75 -345 -144 -200 -135
-364 -385 -395 -600 -4 -25 -10 -48 -13 -51 -4 -4 -131 -10 -282 -13 -151 -4
-291 -8 -310 -10 -19 -2 -77 -7 -128 -11 -51 -3 -101 -8 -110 -10 -9 -1 -48
-6 -85 -10 -37 -3 -76 -8 -85 -10 -9 -1 -44 -6 -77 -9 -33 -4 -71 -9 -85 -11
-14 -2 -61 -9 -105 -15 -44 -7 -87 -14 -96 -15 -18 -4 -75 -13 -129 -21 -30
-5 -297 -57 -355 -69 -11 -3 -33 -8 -50 -11 -16 -4 -32 -7 -35 -7 -3 0 -54
-13 -115 -29 -60 -16 -120 -31 -133 -34 -12 -2 -75 -21 -140 -40 -152 -47
-171 -51 -207 -47 -37 5 -95 38 -115 66 -50 70 -48 128 9 262 117 277 281 516
511 746 210 211 435 368 706 492 83 38 327 128 344 128 3 0 21 4 40 9 19 5 46
11 60 14 14 2 45 9 70 15 25 5 68 13 95 17 28 3 59 8 69 10 10 2 58 6 105 10
47 4 87 8 89 9 6 5 315 -3 352 -9z m1312 -887 c244 -68 428 -260 484 -506 13
-60 13 -210 -2 -276 -56 -265 -270 -475 -534 -524 -49 -9 -196 -9 -250 1 -120
21 -271 106 -363 205 -297 321 -204 852 183 1046 68 34 119 53 167 61 15 3 29
7 31 9 2 2 51 4 109 3 72 0 126 -6 175 -19z m2093 -203 c168 -20 285 -47 435
-103 279 -104 549 -281 781 -513 210 -210 337 -386 465 -645 229 -465 300
-978 209 -1502 -15 -88 -51 -203 -72 -231 -49 -66 -135 -87 -208 -52 -36 17
-64 47 -135 140 -209 274 -506 597 -841 915 -266 253 -405 370 -701 590 -134
100 -174 135 -167 146 28 44 80 213 94 304 9 65 7 219 -5 287 -40 229 -169
446 -354 593 -48 39 -48 39 -22 46 32 9 93 18 171 26 33 3 61 6 62 8 6 4 232
-3 288 -9z m-945 -171 c263 -55 469 -268 518 -535 11 -55 9 -200 -3 -254 -36
-168 -148 -330 -294 -424 -287 -186 -683 -123 -877 141 -24 32 -44 63 -44 68
0 4 18 25 41 46 64 59 155 186 198 276 38 77 73 193 86 282 7 48 7 210 0 245
-2 13 -7 42 -11 64 -3 22 -7 43 -10 47 -4 7 58 32 116 47 59 15 201 14 280 -3z
m-920 -1202 c37 -53 153 -172 214 -219 l38 -30 -50 -134 c-60 -161 -136 -420
-156 -532 -6 -33 -15 -50 -24 -44 -4 2 -32 7 -62 11 -174 21 -464 100 -645
175 -152 63 -375 177 -375 192 0 20 167 337 272 515 54 92 62 102 79 92 46
-24 195 -48 303 -48 116 0 207 15 297 48 30 10 59 20 65 20 6 1 26 -20 44 -46z
m-1058 -918 c214 -112 452 -202 683 -259 112 -28 293 -62 343 -65 13 -1 12
-29 -4 -115 -2 -10 -6 -44 -10 -75 -3 -31 -8 -64 -9 -73 -2 -9 -7 -48 -10 -85
-4 -37 -9 -75 -10 -83 -2 -9 -6 -58 -10 -110 -4 -52 -8 -111 -10 -130 -2 -19
-7 -109 -10 -200 -11 -250 -11 -260 -19 -267 -9 -9 -395 -10 -486 -1 -141 14
-296 39 -395 64 -11 3 -31 7 -45 10 -130 25 -560 187 -560 210 0 21 103 361
170 565 62 188 247 679 256 679 1 0 58 -29 126 -65z m-530 -1501 c201 -87 432
-159 636 -198 141 -27 194 -34 362 -51 108 -10 417 -4 458 10 14 5 13 11 17
-100 5 -179 16 -471 20 -505 1 -19 6 -82 9 -140 4 -58 9 -123 11 -145 2 -22 7
-70 10 -107 l6 -67 -127 -41 c-70 -22 -136 -42 -148 -45 -12 -2 -32 -6 -46 -9
-35 -8 -120 -25 -150 -31 -14 -3 -45 -8 -70 -11 -25 -3 -56 -7 -69 -9 -185
-30 -565 -25 -781 11 -19 3 -46 8 -60 10 -14 2 -47 9 -75 15 -27 6 -61 13 -75
15 -14 3 -74 19 -135 36 -101 29 -129 43 -120 58 2 3 6 37 10 75 4 39 9 77 10
86 2 9 6 40 10 70 3 30 8 65 10 79 2 14 9 61 15 105 7 44 14 89 16 100 2 10 6
35 9 55 3 20 8 47 10 60 3 14 8 45 11 70 3 25 8 47 9 50 2 3 6 26 10 50 8 52
53 277 91 450 16 73 22 90 29 90 2 0 41 -16 87 -36z m1562 -1629 c2 -17 7 -52
11 -80 7 -60 15 -121 20 -155 2 -14 7 -45 10 -70 3 -25 8 -58 11 -75 3 -16 7
-43 10 -60 2 -16 16 -93 30 -169 27 -150 26 -201 -5 -271 -20 -46 -76 -107
-118 -128 -30 -16 -124 -45 -170 -53 -15 -3 -35 -7 -43 -9 -8 -3 -32 -7 -54
-11 -21 -3 -47 -7 -58 -9 -11 -3 -46 -7 -77 -10 -31 -4 -67 -8 -81 -11 -137
-22 -685 -22 -830 0 -14 2 -43 7 -65 10 -103 14 -127 19 -225 42 -58 14 -127
35 -155 48 -84 39 -141 108 -160 196 -11 47 -5 349 10 535 2 28 7 102 11 165
3 63 8 117 10 119 2 2 56 -10 121 -27 65 -17 132 -34 148 -37 17 -2 41 -7 55
-10 14 -3 40 -8 59 -11 18 -3 43 -8 55 -10 11 -2 41 -7 66 -10 25 -3 56 -7 70
-10 40 -6 247 -17 335 -18 89 0 329 12 360 18 11 2 45 7 76 10 31 4 67 9 80
11 13 3 49 9 79 15 30 6 65 12 77 14 41 8 248 65 288 79 22 8 41 14 42 13 1
-1 4 -15 7 -31z"/>
</g>
</svg>
