<svg xmlns="http://www.w3.org/2000/svg" viewBox="0 0 1024 1024">
<g transform="translate(0,1024) scale(0.1,-0.1)">
<path fill="currentColor" d="M4859 10236 c-2 -2 -55 -7 -117 -11 -62 -3 -121 -8 -130 -10 -9 -1
-48 -6 -85 -10 -37 -3 -76 -8 -85 -10 -9 -1 -37 -6 -62 -9 -25 -3 -56 -8 -70
-11 -13 -2 -42 -7 -65 -11 -22 -3 -59 -10 -83 -15 -23 -5 -59 -12 -80 -15 -20
-3 -40 -8 -43 -10 -3 -2 -21 -6 -40 -9 -81 -14 -318 -81 -494 -139 -1090 -365
-2021 -1083 -2660 -2051 -146 -221 -218 -348 -331 -580 -108 -223 -192 -430
-262 -645 -45 -137 -113 -380 -126 -450 -2 -14 -14 -68 -24 -120 -11 -52 -23
-113 -26 -135 -4 -23 -9 -52 -11 -65 -3 -14 -8 -45 -11 -70 -3 -25 -7 -52 -9
-60 -2 -8 -7 -46 -11 -85 -3 -38 -8 -78 -10 -88 -25 -135 -25 -853 0 -1007 3
-14 7 -55 11 -92 3 -37 8 -77 10 -90 2 -13 6 -41 10 -63 5 -36 12 -80 30 -180
11 -67 16 -91 20 -105 2 -8 7 -28 9 -45 3 -16 23 -100 45 -185 224 -879 691
-1699 1331 -2340 212 -212 366 -346 590 -512 589 -436 1261 -741 1963 -893
130 -28 386 -70 487 -81 36 -3 73 -8 82 -9 134 -26 848 -26 1010 0 12 2 50 6
83 10 33 3 74 8 90 10 17 3 48 7 70 10 22 3 65 10 95 15 30 5 68 12 84 14 16
3 52 10 80 16 28 6 60 12 71 14 11 2 38 9 60 14 22 6 51 13 65 15 58 11 355
99 485 145 943 331 1784 944 2389 1741 443 583 751 1241 916 1954 17 70 32
140 35 155 3 15 7 36 9 47 2 11 7 40 11 65 4 25 9 54 11 65 2 11 6 40 9 65 3
25 8 56 10 70 3 14 7 52 10 85 4 33 8 71 10 84 26 158 26 873 1 1008 -2 10 -7
45 -10 78 -7 61 -25 194 -32 230 -2 10 -6 37 -9 60 -13 87 -77 370 -114 501
-460 1622 -1689 2922 -3282 3469 -135 46 -410 127 -477 140 -11 2 -62 13 -113
24 -52 11 -110 23 -129 26 -19 3 -60 10 -90 15 -88 15 -112 19 -165 25 -27 4
-61 8 -75 10 -14 2 -61 7 -105 11 -44 4 -93 9 -110 11 -37 5 -641 13 -646 9z
m621 -609 c14 -3 60 -8 103 -12 43 -4 88 -8 100 -10 12 -2 45 -6 72 -10 41 -5
248 -42 331 -59 12 -2 91 -23 175 -45 768 -201 1467 -601 2029 -1161 182 -182
211 -213 348 -384 377 -469 649 -985 818 -1556 57 -189 108 -418 130 -580 3
-25 8 -53 10 -64 2 -10 6 -44 9 -75 4 -31 8 -67 11 -81 26 -164 26 -737 -1
-945 -2 -16 -7 -52 -10 -80 -6 -49 -31 -216 -40 -265 -3 -14 -7 -38 -10 -55
-19 -105 -96 -389 -150 -550 -223 -672 -591 -1265 -1099 -1770 -500 -498
-1078 -858 -1737 -1083 -149 -51 -405 -123 -489 -139 -14 -2 -44 -8 -68 -14
-23 -5 -59 -12 -80 -15 -20 -3 -44 -7 -52 -9 -8 -2 -33 -7 -55 -10 -23 -3 -50
-7 -62 -9 -12 -3 -53 -8 -90 -11 -37 -4 -76 -9 -85 -11 -138 -25 -780 -25
-938 0 -14 3 -50 7 -81 11 -31 3 -65 7 -75 9 -11 2 -41 7 -69 10 -72 10 -250
45 -320 63 -33 8 -68 17 -78 18 -45 9 -183 49 -297 86 -668 218 -1283 595
-1785 1094 -78 77 -159 160 -181 185 -362 409 -653 875 -840 1345 -139 352
-255 798 -289 1120 -4 33 -8 70 -10 83 -26 161 -26 813 -1 950 2 9 7 44 10 77
4 33 9 71 11 85 6 30 12 70 20 125 39 253 145 625 257 905 461 1146 1384 2069
2528 2528 175 70 500 174 610 196 14 3 34 7 45 10 73 17 114 26 145 31 19 3
42 8 50 10 8 2 33 7 55 10 22 3 56 8 75 11 19 3 46 7 60 9 14 3 50 7 80 11 30
3 63 8 72 10 10 1 66 6 125 10 60 3 110 8 112 10 6 5 572 -4 601 -9z M4889
9036 c-2 -2 -45 -7 -95 -10 -51 -4 -100 -8 -110 -10 -11 -2 -44 -7 -75 -10
-31 -4 -67 -9 -80 -11 -13 -3 -41 -7 -64 -11 -387 -57 -877 -231 -1260 -448
-324 -184 -572 -374 -846 -646 -414 -412 -713 -875 -918 -1423 -75 -201 -160
-516 -185 -692 -4 -23 -8 -51 -11 -64 -2 -13 -7 -49 -11 -80 -3 -31 -8 -65
-10 -76 -26 -136 -25 -718 0 -875 3 -14 7 -47 11 -75 47 -381 175 -807 350
-1170 199 -412 442 -754 769 -1080 417 -416 871 -708 1421 -915 137 -51 377
-122 485 -144 225 -45 251 -49 345 -61 28 -4 61 -8 75 -11 158 -25 740 -25
880 1 8 1 40 6 71 9 31 4 65 8 75 10 11 2 39 7 64 11 82 13 95 16 156 30 34 8
73 16 86 19 50 9 247 66 358 104 332 113 588 239 890 437 255 167 419 301 640
524 430 432 740 933 937 1516 39 116 104 350 118 422 3 16 7 39 10 53 5 24 8
38 22 120 3 19 7 43 9 54 2 10 6 44 10 75 3 31 8 63 9 72 26 137 26 741 1 876
-2 10 -7 43 -10 74 -4 31 -9 67 -11 80 -3 13 -7 41 -11 64 -22 148 -84 395
-146 580 -159 477 -426 943 -759 1328 -80 92 -313 325 -399 398 -459 392 -965
663 -1529 819 -62 17 -122 33 -132 36 -10 2 -27 6 -36 8 -49 11 -234 46 -278
52 -27 3 -58 8 -67 9 -9 2 -48 7 -85 11 -37 4 -81 9 -98 11 -39 5 -561 13
-566 9z m541 -609 c14 -3 52 -8 85 -12 94 -10 279 -43 395 -70 351 -83 742
-259 1070 -482 187 -128 299 -221 476 -398 283 -283 483 -561 653 -910 148
-305 256 -656 297 -970 3 -22 7 -51 10 -65 26 -152 26 -640 0 -800 -3 -14 -7
-47 -11 -75 -3 -27 -8 -57 -10 -65 -2 -8 -6 -33 -10 -55 -3 -22 -7 -47 -10
-55 -2 -8 -6 -26 -9 -40 -20 -113 -87 -335 -151 -500 -171 -439 -409 -804
-745 -1141 -347 -348 -695 -578 -1145 -759 -161 -64 -393 -135 -515 -156 -14
-3 -32 -7 -40 -9 -8 -3 -33 -7 -55 -10 -22 -4 -47 -8 -55 -10 -8 -2 -37 -7
-65 -10 -27 -4 -61 -8 -75 -11 -150 -25 -667 -25 -795 0 -11 2 -45 7 -75 10
-45 6 -184 32 -320 61 -76 17 -309 92 -418 136 -429 171 -795 412 -1123 739
-162 161 -177 179 -286 317 -177 228 -337 499 -448 763 -97 231 -192 574 -220
796 -4 27 -8 60 -11 74 -26 157 -26 652 1 810 4 24 8 56 21 138 3 20 7 44 9
52 3 8 7 33 11 55 11 74 64 269 110 405 120 355 316 710 560 1015 114 143 369
398 509 510 304 242 671 444 1020 561 133 44 329 97 400 108 22 4 47 8 55 11
8 2 31 6 50 9 69 10 115 17 140 21 14 3 63 7 110 11 47 4 87 8 89 10 6 5 493
-4 521 -9z M3620 6920 l0 -300 483 0 c265 -1 500 -3 522 -6 159 -20 334 -94
457 -193 110 -87 181 -178 249 -316 l40 -80 -876 -3 -875 -2 0 -300 0 -300
875 -2 875 -3 -34 -72 c-126 -263 -351 -441 -633 -503 -78 -17 -137 -19 -612
-20 -289 0 -526 -2 -528 -3 -2 -3 92 -118 166 -202 14 -17 84 -100 156 -185
71 -85 132 -157 135 -160 3 -3 63 -75 135 -160 71 -85 132 -157 135 -160 3 -3
63 -75 135 -160 71 -85 132 -157 135 -160 3 -3 63 -75 135 -160 71 -85 132
-157 135 -160 3 -3 63 -75 135 -160 71 -85 132 -157 135 -160 3 -3 63 -75 135
-160 71 -85 132 -157 135 -160 3 -3 30 -34 59 -70 30 -36 58 -65 62 -65 5 0
110 85 234 189 224 189 225 190 206 210 -10 12 -253 300 -541 641 -287 341
-533 632 -546 647 l-24 27 43 11 c434 110 788 385 986 769 54 106 105 240 131
349 l11 42 314 0 315 0 0 300 0 300 -315 0 -315 0 -5 28 c-32 150 -125 366
-216 500 l-49 72 450 0 450 0 0 300 0 300 -1500 0 -1500 0 0 -300z"/>
</g>
</svg>
