<svg xmlns="http://www.w3.org/2000/svg" viewBox="0 0 1024 1024">
<g transform="translate(0,1024) scale(0.1,-0.1)">
<path fill="currentColor" d="M985 9491 c-347 -260 -413 -320 -497 -451 -100 -156 -148 -312 -153
-500 -4 -135 9 -231 45 -340 23 -69 80 -188 111 -232 11 -14 19 -29 19 -32 0
-3 -115 -6 -256 -6 l-255 0 2 -125 c0 -68 7 -155 14 -192 61 -318 299 -569
613 -646 l89 -22 18 -73 c27 -117 450 -1372 485 -1443 18 -35 47 -84 65 -109
l33 -45 6 -195 c4 -108 8 -207 10 -220 3 -14 7 -60 11 -103 4 -43 8 -88 10
-100 2 -12 6 -44 10 -72 12 -100 67 -353 105 -486 196 -685 576 -1117 988
-1122 101 -2 146 5 222 31 102 36 186 85 275 162 l46 39 177 -180 c97 -100
200 -211 227 -248 88 -116 165 -284 200 -435 24 -104 28 -187 29 -579 l0 -377
-132 -133 c-166 -168 -204 -241 -196 -383 7 -145 98 -280 228 -340 73 -33 113
-38 326 -38 191 0 241 5 298 25 27 9 43 8 90 -7 46 -14 94 -18 255 -19 224 -1
290 9 387 57 78 38 177 132 213 204 29 56 53 137 62 204 3 25 8 56 10 70 2 14
7 45 10 70 3 25 8 56 10 70 2 14 7 45 10 70 3 25 8 56 10 70 2 14 7 45 10 70
3 25 8 56 10 70 2 14 7 45 10 70 3 25 8 56 10 70 2 14 7 45 10 70 13 93 40
173 160 475 147 371 168 440 182 599 3 39 6 72 7 72 0 1 84 4 186 7 102 3 195
8 206 10 12 3 37 8 56 11 54 8 196 55 268 88 l65 29 63 -67 c129 -138 227
-318 279 -511 27 -98 27 -99 31 -541 l4 -444 -134 -136 c-139 -142 -168 -186
-189 -283 -11 -53 -6 -149 12 -197 51 -141 177 -249 316 -271 56 -8 401 -7
455 2 108 19 236 96 302 182 71 93 95 167 122 370 3 28 8 57 9 66 2 9 6 40 10
69 4 29 8 61 10 70 2 9 6 41 10 70 4 29 8 61 10 70 2 9 6 41 10 70 4 29 8 61
10 70 2 9 6 41 10 71 14 118 49 227 165 519 113 284 158 420 175 529 l7 45 24
-40 c52 -85 112 -256 140 -394 4 -19 9 -223 11 -453 l5 -418 -132 -135 c-170
-175 -195 -221 -195 -369 0 -92 3 -106 32 -167 56 -119 171 -207 295 -226 65
-10 385 -8 452 2 175 27 330 160 385 330 11 34 45 239 76 456 31 217 63 424
71 460 8 36 53 161 100 279 47 118 90 225 95 237 l8 24 59 -38 c32 -20 99 -57
148 -81 l90 -43 105 52 c125 63 169 93 229 154 179 182 210 479 71 693 -46 72
-114 139 -180 178 l-51 30 6 45 c3 25 7 61 9 80 2 19 7 62 10 95 4 33 8 71 10
85 2 14 7 57 11 95 3 39 8 77 9 85 2 8 6 49 10 90 4 41 8 82 10 90 2 8 6 49
10 90 4 41 8 82 10 90 2 8 6 49 10 90 4 41 8 82 10 90 2 8 6 49 10 90 4 41 9
84 11 95 7 39 18 201 18 280 0 81 -12 254 -19 264 -1 3 -6 24 -9 46 -12 77
-49 201 -89 300 -85 210 -182 357 -349 530 -85 89 -87 93 -118 190 -146 458
-439 837 -842 1087 -97 60 -254 137 -353 172 -66 23 -184 59 -195 59 -3 0 -18
4 -35 9 -16 5 -46 11 -65 14 -19 3 -41 7 -48 9 -78 27 -639 27 -778 1 -10 -2
-41 -7 -69 -10 -45 -6 -94 -14 -190 -32 -16 -3 -50 -10 -75 -15 -25 -6 -56
-13 -70 -15 -92 -17 -298 -83 -586 -187 -88 -32 -118 -38 -214 -41 -167 -6
-338 60 -470 182 -103 95 -183 152 -281 200 -86 42 -222 86 -307 99 -62 9
-248 9 -342 0 -64 -6 -102 -13 -234 -42 -73 -16 -281 -92 -439 -159 l-38 -17
19 38 c28 56 59 150 71 219 9 50 16 220 12 287 -1 16 -20 17 -257 17 l-256 0
21 33 c74 112 134 271 156 412 8 53 8 198 -1 265 -24 196 -132 414 -281 564
-56 57 -691 542 -699 534 -2 -2 -4 -173 -4 -379 -1 -352 -5 -413 -33 -561 -24
-122 -101 -315 -179 -448 l-56 -95 -93 -22 c-54 -13 -136 -43 -194 -71 l-101
-49 -55 28 c-94 49 -220 93 -304 106 -16 3 -33 10 -37 16 -121 186 -215 419
-244 602 -3 20 -8 47 -11 59 -3 11 -7 190 -10 396 -2 206 -5 385 -6 397 -2 19
-49 -13 -332 -226z m10 -482 c6 -72 15 -151 21 -183 39 -208 103 -402 179
-545 19 -35 34 -66 32 -67 -1 -1 -32 -15 -68 -32 -85 -38 -161 -87 -227 -147
-30 -27 -57 -44 -61 -39 -20 22 -129 193 -144 226 -27 57 -47 119 -55 163 -9
52 -8 200 1 247 20 108 76 220 150 304 47 52 157 147 164 140 1 -1 5 -31 8
-67z m2049 22 c126 -101 206 -226 242 -380 31 -134 10 -310 -52 -433 -33 -66
-142 -228 -152 -228 -5 0 -21 14 -38 31 -61 65 -210 159 -292 184 l-23 7 30
51 c43 76 128 289 146 367 2 8 9 38 15 65 23 97 28 124 36 195 10 84 12 102
13 148 1 23 4 42 7 42 3 0 34 -22 68 -49z m-1410 -1125 c33 -10 125 -51 206
-91 l146 -73 70 36 c121 64 268 131 299 137 60 13 171 12 227 -1 186 -44 339
-200 379 -385 11 -52 7 -294 -6 -364 -29 -156 -63 -275 -175 -611 -72 -214
-130 -390 -130 -391 0 -1 -23 12 -50 29 -75 47 -188 76 -293 76 -104 0 -180
-18 -266 -63 l-63 -34 -38 24 c-78 49 -156 69 -275 69 -143 1 -218 -18 -313
-78 l-38 -24 -127 382 c-118 354 -158 491 -172 591 -4 22 -8 51 -10 65 -3 14
-7 79 -11 145 -10 196 32 318 148 435 127 128 318 177 492 126z m-965 -348
c-4 -24 -7 -93 -6 -154 l2 -111 -35 16 c-99 45 -190 128 -239 220 -17 32 -31
62 -31 65 0 3 71 6 159 6 l158 0 -8 -42z m2925 20 c-13 -42 -75 -130 -124
-177 -41 -39 -142 -101 -164 -101 -3 0 -6 44 -5 98 0 53 -3 121 -6 150 l-7 52
157 0 156 0 -7 -22z m1351 -337 c125 -35 211 -86 340 -205 182 -168 418 -259
670 -260 154 0 230 17 436 95 119 45 320 110 381 124 13 2 73 16 133 29 104
23 135 29 230 42 22 3 51 8 65 10 128 20 538 27 651 11 158 -22 347 -81 494
-154 489 -244 827 -719 892 -1253 15 -120 7 -416 -12 -472 -2 -7 -6 -26 -9
-43 -2 -16 -49 -232 -104 -480 -55 -247 -105 -479 -111 -515 -10 -64 -8 -371
3 -420 3 -14 7 -36 9 -50 20 -110 70 -261 130 -390 79 -168 107 -298 102 -470
-6 -179 -14 -208 -163 -580 -153 -384 -164 -419 -198 -675 -9 -68 -12 -87 -19
-93 -10 -10 -268 -7 -271 3 -2 6 -5 181 -7 390 -2 209 -7 392 -11 408 -7 31
-14 66 -22 117 -21 125 -118 356 -206 492 -74 113 -127 175 -323 373 -261 266
-357 433 -409 710 -15 80 -16 339 -2 395 3 14 9 40 12 59 10 58 64 201 107
286 32 61 202 303 318 451 6 7 -37 45 -120 107 -70 53 -131 97 -133 97 -12 0
-288 -380 -332 -455 -76 -133 -151 -336 -172 -469 -9 -58 -13 -78 -17 -82 -6
-7 -115 108 -153 161 -79 111 -152 278 -170 390 -3 20 -8 47 -10 59 -7 32 -5
205 2 256 23 159 79 292 207 485 l86 129 -132 88 c-73 48 -135 88 -140 88 -11
0 -184 -265 -222 -340 -165 -330 -182 -721 -44 -1067 67 -168 154 -298 294
-438 69 -70 144 -133 201 -170 l91 -60 12 -60 c6 -33 14 -69 17 -80 4 -18 0
-21 -28 -23 -19 -1 -45 -4 -58 -7 -13 -3 -42 -7 -63 -10 -57 -9 -199 -51 -270
-81 -139 -59 -279 -153 -407 -273 -89 -84 -227 -175 -323 -212 -135 -52 -228
-67 -415 -69 l-167 -1 -19 73 c-10 40 -30 102 -44 138 -30 76 -249 520 -257
520 -15 0 -285 -142 -285 -149 0 -6 53 -117 118 -248 65 -131 125 -261 134
-288 62 -190 68 -388 17 -575 -11 -41 -72 -204 -135 -362 -140 -350 -159 -410
-180 -568 -3 -25 -8 -52 -9 -61 -2 -9 -6 -40 -10 -70 -4 -30 -8 -56 -10 -58
-4 -3 -205 -5 -260 -2 -20 1 -20 8 -21 499 0 273 -3 531 -7 573 -19 227 -105
473 -235 674 -68 106 -102 146 -283 330 -188 192 -210 216 -266 300 -246 366
-263 852 -44 1226 20 35 96 144 169 242 73 98 130 182 127 188 -8 12 -245 189
-254 189 -3 -1 -49 -59 -101 -130 -52 -71 -97 -129 -100 -130 -4 0 -6 10 -6
23 -1 34 -14 199 -18 227 -3 14 -7 48 -11 75 -10 83 -15 119 -20 141 -3 12 -7
39 -11 60 -3 21 -12 68 -20 104 -9 36 -18 76 -20 90 -22 112 -107 361 -174
512 -27 59 -45 110 -41 112 3 3 231 94 506 204 538 214 624 243 780 258 33 4
61 8 63 9 2 1 49 1 105 0 67 -2 130 -10 182 -24z m-1784 -1002 c29 -98 73
-282 84 -354 3 -23 7 -50 9 -62 3 -12 7 -43 11 -70 4 -26 8 -59 10 -72 2 -12
7 -60 11 -105 3 -44 8 -97 10 -116 5 -45 5 -464 0 -510 -2 -19 -7 -73 -11
-120 -19 -249 -93 -597 -170 -806 -170 -460 -419 -731 -658 -718 -133 7 -296
128 -416 309 -133 200 -259 530 -316 825 -3 14 -7 34 -9 45 -2 11 -7 40 -11
65 -4 25 -9 53 -11 64 -2 10 -6 44 -9 75 -4 31 -8 67 -11 81 -2 14 -7 75 -10
137 l-7 112 75 -24 c72 -23 159 -38 226 -39 17 0 32 -5 33 -11 0 -5 2 -17 3
-25 2 -8 6 -52 10 -97 4 -46 9 -91 10 -100 2 -10 7 -38 10 -63 55 -399 241
-875 372 -952 55 -32 139 -25 185 15 46 40 126 172 179 297 48 114 119 343
136 440 3 14 7 32 9 40 3 8 7 33 10 55 4 22 8 47 10 55 2 8 7 38 10 65 4 28 8
61 10 74 2 12 7 60 11 105 3 44 8 97 10 116 5 48 4 436 -1 485 -15 141 -20
169 -51 282 l-26 92 103 308 102 308 19 -55 c11 -30 33 -98 49 -151z m-1381
-334 c19 -13 73 -61 119 -108 l83 -85 95 95 c102 102 154 133 225 135 73 1
123 -19 180 -71 l53 -49 -34 -103 c-44 -138 -85 -212 -151 -279 -217 -217
-581 -199 -771 37 -51 64 -72 108 -113 231 l-38 112 29 31 c88 95 224 118 323
54z m7822 -585 c50 -90 107 -259 122 -362 3 -21 9 -54 12 -74 12 -77 6 -336
-10 -421 -2 -10 -7 -52 -11 -93 -4 -41 -8 -82 -10 -90 -2 -8 -6 -49 -10 -90
-4 -41 -8 -82 -10 -90 -1 -8 -6 -46 -9 -85 -4 -38 -9 -81 -11 -95 -2 -14 -6
-52 -10 -85 -3 -33 -8 -76 -10 -95 -8 -66 -14 -125 -20 -185 -4 -33 -8 -71
-10 -85 -2 -14 -7 -56 -11 -95 -3 -38 -8 -77 -9 -85 -2 -8 -4 -22 -4 -31 -1
-16 -49 -44 -59 -35 -2 3 -15 37 -28 75 -13 39 -40 105 -60 148 -57 122 -97
248 -112 352 -4 25 -7 111 -6 191 l0 145 112 501 c62 276 115 528 118 560 4
32 8 66 10 74 1 8 3 35 3 59 1 24 3 42 5 40 2 -2 14 -24 28 -49z m-6965 -247
c-4 -104 -9 -199 -11 -213 -2 -14 -7 -50 -10 -80 -16 -147 -71 -386 -118 -513
l-21 -59 -14 34 c-27 63 -82 277 -102 400 -28 171 -29 181 -37 288 l-6 96 63
33 c73 38 156 101 214 160 21 23 41 41 44 41 2 0 1 -84 -2 -187z m830 -1232
c74 -153 164 -272 348 -457 229 -230 280 -294 351 -434 52 -105 81 -187 105
-302 20 -97 22 -133 23 -623 1 -286 1 -524 -1 -530 -4 -12 -309 -12 -321 -1
-4 4 -7 155 -8 334 -1 287 -8 484 -19 502 -2 3 -6 25 -10 49 -10 70 -52 203
-93 298 -90 209 -175 327 -402 558 -93 94 -180 185 -196 204 l-28 33 27 47
c42 71 132 259 157 329 13 34 25 62 29 61 3 0 21 -31 38 -68z m4049 -478 c39
-59 104 -143 144 -186 65 -70 74 -84 86 -140 13 -60 14 -305 1 -352 -3 -11
-11 -42 -18 -70 -6 -27 -65 -183 -129 -345 -150 -378 -171 -445 -194 -620 -3
-25 -9 -65 -12 -90 -4 -25 -7 -51 -7 -57 0 -10 -36 -13 -144 -13 l-143 0 -1
363 c0 199 -2 371 -4 382 -1 11 -6 40 -9 65 -36 275 -176 577 -363 785 -24 26
-43 51 -43 55 0 15 124 122 193 167 116 76 263 134 378 148 30 4 55 8 56 9 1
1 32 3 70 4 l68 3 71 -108z m2279 -437 c145 -85 151 -297 11 -393 -26 -18 -54
-33 -60 -33 -7 0 -34 14 -59 31 -63 42 -98 103 -104 182 -4 54 -1 69 24 117
20 38 43 65 77 88 27 17 53 32 59 32 6 0 29 -11 52 -24z m-5756 -1800 c-52
-79 -79 -170 -73 -250 3 -32 0 -46 -9 -47 -63 -5 -258 -3 -278 4 -26 8 -47 40
-43 65 1 6 2 16 3 20 0 5 53 60 116 123 l114 115 95 0 95 0 -20 -30z m815 9
c-1 -20 -11 -90 -20 -155 -9 -55 -43 -106 -87 -130 -37 -21 -53 -23 -211 -24
-94 -1 -183 2 -198 7 -25 8 -37 27 -44 67 -2 8 51 69 116 135 l120 121 162 -1
c157 0 163 -1 162 -20z m2480 10 c-1 -6 -5 -32 -9 -60 -20 -154 -27 -176 -70
-214 -19 -17 -51 -33 -72 -37 -52 -10 -327 -11 -363 -1 -29 7 -50 37 -50 72 0
8 52 67 115 133 l115 118 168 -1 c103 0 166 -4 166 -10z m1480 -15 c-3 -124
-28 -217 -69 -256 -46 -43 -84 -50 -277 -48 -188 1 -208 7 -208 68 0 26 18 49
115 146 l115 116 163 -1 162 0 -1 -25z M1914 7581 c-118 -54 -126 -227 -14
-290 112 -63 244 15 244 145 0 45 -5 60 -31 91 -53 67 -128 87 -199 54z M1436
7260 c-39 -12 -93 -66 -107 -107 -21 -65 6 -144 63 -185 45 -31 143 -33 184
-2 53 39 69 70 69 137 0 68 -21 109 -73 139 -35 21 -99 29 -136 18z M2425
7259 c-34 -9 -85 -60 -102 -100 -14 -33 -9 -99 11 -137 39 -75 157 -107 225
-60 59 40 76 72 76 141 0 95 -47 149 -140 160 -22 3 -54 1 -70 -4z M5285 5948
c-77 -39 -141 -71 -143 -73 -1 -1 17 -44 42 -96 58 -125 75 -180 92 -293 13
-86 10 -193 -10 -300 -10 -54 -49 -162 -87 -238 -22 -43 -39 -79 -39 -81 0 -7
290 -150 294 -146 11 12 80 158 102 216 100 265 104 565 11 830 -27 74 -103
240 -115 247 -4 2 -70 -28 -147 -66z"/>
</g>
</svg>
