<svg xmlns="http://www.w3.org/2000/svg" viewBox="0 0 1024 1024">
<g transform="translate(0,1024) scale(0.1,-0.1)">
<path fill="currentColor" d="M3811 10218 c-74 -28 -142 -97 -171 -174 -19 -51 -21 -71 -16 -149 8
-135 27 -214 81 -331 55 -120 155 -249 248 -321 l28 -21 -93 -91 -93 -91 -855
-1 c-470 0 -866 -2 -880 -5 -49 -9 -130 -56 -165 -96 -19 -23 -44 -67 -56 -97
-19 -50 -20 -69 -15 -171 7 -132 10 -152 38 -275 94 -411 383 -787 753 -978
81 -42 81 -42 55 -68 -12 -13 -66 -79 -120 -145 -329 -408 -560 -904 -665
-1429 -13 -66 -27 -144 -30 -174 -4 -30 -8 -63 -11 -74 -26 -136 -25 -683 1
-812 2 -11 7 -42 10 -70 3 -27 17 -104 30 -170 144 -713 500 -1335 1048 -1829
l87 -79 0 -707 0 -707 -95 -47 c-224 -111 -392 -306 -464 -539 -28 -92 -36
-146 -36 -252 0 -79 4 -97 28 -147 33 -67 93 -121 167 -149 48 -18 84 -19
1013 -16 954 2 962 2 1008 23 66 31 114 78 146 142 l28 57 3 790 2 790 300 0
300 0 2 -790 3 -790 28 -57 c33 -67 93 -121 167 -149 48 -18 84 -19 1013 -16
954 2 962 2 1008 23 66 31 114 78 146 142 24 50 28 69 28 147 0 111 -9 169
-41 263 -33 99 -74 177 -135 258 -95 127 -202 214 -345 280 l-74 35 0 708 0
708 72 64 c424 375 739 841 935 1379 43 119 125 419 137 505 4 23 9 52 11 65
3 14 8 45 11 70 3 25 7 56 10 70 26 162 26 671 -1 810 -2 12 -7 48 -11 79 -3
31 -8 59 -10 62 -1 3 -6 28 -10 55 -11 84 -72 318 -119 459 -78 235 -210 514
-338 715 -99 156 -258 366 -344 456 -7 7 -13 15 -13 18 0 2 39 25 88 51 362
191 647 565 740 970 30 130 32 147 37 280 3 102 1 128 -16 171 -27 70 -79 128
-147 161 l-57 28 -876 5 -877 5 -91 88 -91 88 32 26 c154 125 272 322 313 528
4 17 8 73 10 125 3 76 0 105 -16 146 -92 240 -432 258 -545 29 -18 -38 -29
-82 -35 -136 -14 -142 -79 -234 -193 -278 -49 -19 -82 -20 -704 -20 -615 -1
-655 0 -702 18 -128 49 -189 141 -204 308 -17 197 -218 322 -405 251z m1463
-1189 c22 -4 59 -10 80 -13 22 -4 79 -20 127 -36 184 -61 308 -140 473 -300
l118 -115 243 -486 243 -485 -80 -100 c-274 -342 -486 -748 -611 -1170 -25
-82 -53 -184 -63 -226 l-18 -78 -665 0 -666 0 -34 133 c-127 502 -349 954
-659 1341 l-80 100 243 485 243 486 118 115 c131 126 221 191 347 250 93 44
226 85 307 95 30 4 57 9 59 10 7 7 233 2 275 -6z m-1844 -594 c0 -6 -280 -568
-286 -574 -8 -9 -141 34 -212 70 -210 103 -359 260 -447 472 l-15 37 480 0
c264 0 480 -2 480 -5z m4329 -22 c-66 -174 -214 -347 -380 -446 -70 -41 -200
-94 -251 -102 l-33 -5 -142 285 c-79 157 -143 287 -143 290 0 3 216 5 480 5
l480 0 -11 -27z m-4402 -1376 c143 -192 273 -428 362 -657 58 -146 86 -238
139 -449 l39 -155 -68 -84 c-103 -128 -173 -277 -196 -420 -10 -61 -10 -243 0
-304 10 -64 51 -188 83 -251 126 -249 384 -441 649 -484 66 -11 1457 -10 1515
0 270 50 518 236 643 484 34 66 74 184 84 248 10 64 10 246 0 310 -25 155
-121 344 -239 470 -15 16 -26 37 -23 45 3 8 23 87 45 175 90 355 199 618 372
895 66 104 178 260 189 260 13 0 209 -211 279 -301 192 -246 327 -492 430
-780 36 -97 81 -253 95 -324 49 -242 60 -351 60 -585 0 -211 -7 -301 -35 -462
-25 -145 -24 -140 -55 -255 -143 -525 -447 -1006 -855 -1352 -47 -40 -109 -93
-138 -118 -29 -24 -65 -68 -80 -96 l-27 -52 0 -985 0 -985 28 -57 c33 -66 92
-120 164 -148 l48 -19 -422 -1 -423 0 0 805 c0 781 -1 806 -20 858 -27 71 -79
130 -143 162 -77 37 -133 40 -276 16 -68 -12 -160 -24 -205 -29 -157 -14 -552
-6 -626 13 -8 2 -33 6 -55 10 -22 3 -69 10 -104 16 -84 15 -150 6 -212 -28
-64 -34 -113 -91 -139 -160 -19 -52 -20 -77 -20 -858 l0 -805 -427 0 c-424 1
-427 1 -376 19 100 34 171 114 193 215 8 36 10 336 8 1006 l-3 955 -27 50
c-27 52 -67 94 -153 161 -171 134 -380 357 -517 551 -268 379 -444 851 -485
1306 -10 107 -10 431 0 527 64 620 334 1200 761 1638 49 50 93 92 96 92 3 0
33 -37 67 -83z m2495 -1650 c225 -111 218 -435 -11 -541 -45 -21 -59 -21 -708
-23 -633 -3 -665 -2 -713 16 -207 79 -265 337 -110 491 28 29 67 55 101 68 53
21 66 21 719 19 l665 -2 57 -28z"/>
</g>
</svg>
