<svg xmlns="http://www.w3.org/2000/svg" viewBox="0 0 1024 1024">
<g transform="translate(0,1024) scale(0.1,-0.1)">
<path fill="currentColor" d="M3455 10225 c-109 -29 -219 -91 -370 -211 -327 -258 -580 -625 -714
-1034 -34 -106 -67 -239 -77 -315 -3 -27 -8 -52 -9 -55 -8 -13 -19 -206 -19
-320 0 -113 8 -243 18 -295 2 -11 7 -40 10 -65 11 -82 64 -283 106 -404 l42
-118 -34 -37 c-35 -36 -86 -93 -129 -144 l-24 -27 -1005 -1 c-994 0 -1006 0
-1060 -21 -67 -26 -141 -99 -167 -165 -19 -52 -24 -183 -10 -298 11 -87 20
-135 42 -214 116 -411 396 -750 774 -941 155 -78 308 -125 476 -147 86 -11 94
-11 341 -12 l240 -1 23 -97 c81 -340 233 -734 506 -1308 32 -66 70 -147 85
-180 15 -33 46 -99 68 -147 178 -381 312 -731 373 -974 l12 -45 -71 -70 c-294
-289 -450 -642 -457 -1039 -5 -221 20 -370 92 -565 112 -302 326 -565 609
-747 160 -103 388 -185 597 -216 70 -10 2727 -9 2798 1 560 78 1041 474 1218
1003 62 183 76 283 75 509 -1 134 -5 192 -22 272 -65 301 -210 566 -429 780
l-74 73 26 97 c82 300 182 545 488 1199 310 661 436 981 519 1318 l33 136 240
1 c132 1 251 2 265 4 94 9 150 19 237 40 493 119 902 493 1062 971 56 167 76
284 76 454 0 100 -3 120 -23 157 -35 66 -79 110 -140 140 l-57 28 -1017 5
-1016 5 -43 50 c-23 28 -74 82 -112 121 l-69 72 40 121 c53 156 91 324 109
481 10 85 10 404 0 500 -65 609 -412 1197 -912 1542 -170 118 -265 149 -429
144 -171 -5 -288 -56 -406 -176 -118 -119 -174 -261 -172 -431 3 -162 63 -298
192 -434 111 -116 164 -204 209 -346 35 -110 45 -241 28 -349 -16 -95 -83
-260 -105 -260 -4 0 -29 7 -57 15 -50 16 -65 19 -120 30 -16 3 -38 8 -47 11
-19 5 -49 12 -93 19 -16 3 -41 8 -55 10 -58 12 -77 15 -120 21 -25 3 -53 8
-62 9 -9 2 -48 7 -85 10 -37 4 -76 9 -85 11 -136 25 -810 25 -946 0 -9 -2 -44
-7 -77 -10 -56 -7 -72 -9 -147 -21 -106 -18 -134 -23 -168 -30 -14 -3 -41 -8
-60 -11 -19 -3 -38 -8 -41 -10 -3 -2 -21 -6 -40 -9 -19 -3 -75 -17 -125 -30
-51 -14 -97 -25 -102 -25 -24 0 -91 146 -110 240 -4 19 -7 94 -6 165 0 120 3
137 33 227 42 123 107 227 214 346 47 51 99 121 116 156 97 189 89 411 -21
593 -71 117 -217 225 -364 267 -64 18 -222 18 -289 1z m3270 -681 c129 -99
258 -244 354 -395 77 -123 174 -352 195 -461 2 -13 9 -43 14 -68 27 -117 37
-413 19 -539 -9 -65 -45 -232 -51 -238 -2 -3 -39 16 -83 40 -43 24 -124 67
-180 96 l-102 51 29 67 c27 66 74 217 85 278 24 132 24 354 2 470 -3 11 -8 38
-12 60 -26 146 -133 389 -230 525 -60 82 -72 97 -139 169 -37 39 -38 42 -11
25 17 -10 66 -46 110 -80z m-3197 24 c-176 -200 -289 -427 -345 -689 -25 -122
-25 -396 1 -527 14 -70 51 -186 83 -259 20 -46 34 -85 32 -87 -2 -1 -56 -30
-119 -63 -63 -33 -142 -77 -174 -96 -33 -20 -63 -34 -67 -31 -7 4 -40 135 -53
209 -20 109 -26 314 -13 440 36 359 196 700 448 956 73 74 239 209 256 209 3
0 -19 -28 -49 -62z m1932 -1781 c14 -3 57 -8 96 -11 39 -4 80 -8 90 -10 11 -2
39 -7 64 -10 43 -6 62 -9 120 -21 14 -2 40 -7 58 -10 72 -12 343 -85 452 -123
318 -109 629 -274 852 -454 339 -273 563 -622 615 -958 15 -103 8 -414 -12
-521 -3 -13 -7 -40 -10 -61 -12 -79 -76 -323 -119 -451 -84 -252 -167 -446
-413 -971 -274 -586 -375 -825 -464 -1106 -23 -74 -43 -136 -44 -138 -1 -1
-40 7 -86 18 -46 10 -109 23 -139 27 -70 10 -2728 10 -2795 1 -66 -10 -101
-17 -150 -29 -81 -20 -85 -20 -85 -5 0 25 -97 309 -158 462 -59 147 -143 341
-217 499 -20 44 -48 105 -62 135 -14 30 -56 119 -94 198 -38 80 -69 146 -69
147 0 2 -21 47 -46 102 -202 431 -344 844 -390 1132 -3 18 -8 43 -10 55 -18
94 -25 387 -11 486 86 609 669 1170 1502 1444 127 41 334 97 410 110 17 2 55
9 85 15 59 11 95 16 175 26 28 4 61 8 74 10 13 2 67 7 120 11 53 4 98 8 100
10 6 5 532 -4 561 -9z m-3540 -1190 c0 -2 -11 -39 -24 -83 -31 -106 -50 -198
-62 -309 -11 -96 -12 -107 -13 -158 l-1 -49 -227 5 c-126 2 -241 7 -258 11
-310 68 -550 265 -668 549 l-16 37 635 0 c348 0 634 -1 634 -3z m7655 -34
c-111 -266 -332 -459 -610 -534 -68 -19 -115 -23 -312 -26 l-233 -5 -1 53 c-1
105 -14 216 -40 334 -11 49 -45 174 -56 201 -4 12 96 14 631 14 l636 0 -15
-37z m-3075 -4182 c121 -26 211 -64 321 -137 202 -133 337 -336 384 -579 14
-69 14 -278 1 -336 -54 -239 -188 -441 -379 -573 -69 -47 -197 -105 -287 -128
l-85 -23 -1320 0 c-726 0 -1341 3 -1367 8 -270 44 -525 233 -651 483 -25 49
-65 157 -73 199 -2 11 -7 31 -10 45 -15 67 -12 257 5 340 58 272 235 501 486
627 70 36 176 70 243 79 26 3 49 8 51 10 2 2 587 4 1300 3 1206 0 1302 -2
1381 -18z M3811 5378 c-108 -41 -183 -148 -187 -268 -3 -89 23 -156 86 -220
149 -148 395 -103 484 89 30 66 29 190 -2 248 -76 144 -234 207 -381 151z
M6211 5378 c-108 -41 -183 -148 -187 -268 -3 -89 23 -156 86 -220 149 -148
395 -103 484 89 30 66 29 190 -2 248 -76 144 -234 207 -381 151z M4411 1778
c-108 -41 -183 -148 -187 -268 -3 -89 23 -156 86 -220 149 -148 395 -103 484
89 30 66 29 190 -2 248 -76 144 -234 207 -381 151z M5611 1778 c-108 -41 -183
-148 -187 -268 -3 -89 23 -156 86 -220 149 -148 395 -103 484 89 30 66 29 190
-2 248 -76 144 -234 207 -381 151z"/>
</g>
</svg>
