<svg xmlns="http://www.w3.org/2000/svg" viewBox="0 0 1024 1024">
<g transform="translate(0,1024) scale(0.1,-0.1)">
<path fill="currentColor" d="M5969 10124 c-49 -32 -52 -46 -55 -259 -2 -110 -5 -218 -8 -240 -3
-22 -8 -65 -11 -95 -12 -109 -21 -161 -46 -275 -26 -121 -60 -226 -70 -219
-28 17 -180 234 -289 413 -42 69 -87 133 -102 144 -33 25 -97 26 -133 3 -35
-23 -52 -66 -61 -157 -18 -175 -5 -240 91 -434 94 -191 124 -282 129 -382 6
-147 -41 -270 -135 -358 -102 -94 -212 -112 -388 -65 -38 10 -256 7 -310 -4
-19 -4 -45 -12 -59 -17 -14 -5 -26 -8 -28 -7 -1 2 6 35 17 73 72 254 91 465
54 613 -30 125 -7 260 77 461 23 53 43 117 45 142 4 41 1 51 -24 79 -113 126
-354 -61 -477 -372 -28 -73 -72 -229 -81 -293 -3 -23 -8 -52 -10 -65 -3 -14
-8 -83 -10 -155 -10 -247 -14 -282 -40 -360 -42 -126 -120 -231 -238 -322
l-58 -45 -78 30 c-104 41 -151 51 -226 47 -121 -6 -246 -73 -395 -211 -54 -50
-114 -99 -134 -108 -20 -9 -159 -53 -309 -97 -149 -44 -286 -89 -302 -99 -34
-21 -66 -61 -83 -105 -34 -90 -38 -266 -7 -345 56 -140 140 -197 356 -245 59
-12 101 -31 179 -77 56 -34 108 -71 115 -82 21 -33 74 -231 88 -331 13 -86 14
-263 2 -315 -3 -14 -7 -37 -10 -52 -7 -38 -38 -114 -79 -195 -136 -273 -176
-603 -106 -878 11 -44 18 -86 15 -93 -7 -20 -90 -53 -142 -56 -26 -2 -81 7
-132 21 -113 31 -151 37 -241 36 -109 -2 -180 -31 -251 -104 -86 -87 -119
-195 -114 -363 4 -102 12 -158 60 -396 30 -150 110 -352 173 -440 42 -57 136
-143 199 -179 32 -19 67 -40 79 -47 13 -8 36 -54 65 -130 46 -125 77 -172 133
-198 68 -32 141 -16 221 49 l43 36 28 -48 c16 -26 65 -104 110 -173 92 -142
122 -196 145 -260 14 -41 14 -49 -3 -103 -22 -73 -23 -166 -2 -260 28 -122 66
-173 145 -194 78 -22 108 -9 309 129 178 123 198 159 176 313 -15 108 -18 122
-32 180 -28 110 -78 198 -164 287 -113 117 -153 200 -200 415 -27 121 -34 185
-26 218 7 27 93 113 194 194 78 63 187 141 197 141 4 0 32 -23 63 -51 125
-112 330 -230 524 -303 98 -36 294 -88 378 -100 25 -3 56 -8 69 -11 104 -20
455 -26 757 -12 l131 6 48 -112 c222 -517 476 -924 670 -1074 22 -17 86 -53
141 -80 136 -67 231 -132 320 -220 131 -129 229 -280 302 -463 29 -73 76 -249
86 -320 25 -178 25 -329 2 -384 -9 -22 -53 -88 -98 -149 -74 -99 -82 -114 -86
-163 -4 -42 0 -61 18 -91 35 -60 92 -91 160 -88 19 1 105 5 191 9 l157 7 6
-25 c9 -38 62 -93 101 -106 32 -11 374 -6 450 6 78 13 161 78 191 150 30 71
25 124 -22 261 -76 218 -83 269 -77 558 12 590 11 621 -33 771 -52 180 -116
285 -268 442 -56 57 -114 125 -130 150 -118 189 -136 426 -51 693 26 84 41
143 51 205 3 20 7 46 10 58 11 57 19 185 19 313 0 87 4 142 10 140 20 -7 54
-94 56 -145 4 -89 61 -149 133 -139 97 13 117 71 117 338 1 297 -60 496 -191
630 -92 93 -209 138 -354 135 -42 -1 -76 1 -76 5 0 12 -166 175 -225 220 -229
173 -525 298 -835 353 -147 26 -161 27 -370 31 -113 3 -214 6 -226 9 -12 2
-45 7 -75 11 -30 4 -57 9 -60 11 -3 2 -19 6 -35 8 -56 11 -160 44 -238 76
-117 49 -219 121 -336 240 -146 147 -206 190 -465 325 -228 119 -351 246 -454
467 -67 143 -125 363 -133 502 l-3 50 40 4 c65 6 196 55 260 97 134 88 262
246 351 432 43 89 46 93 87 103 190 48 449 156 602 250 242 149 431 344 569
588 155 273 239 630 239 1007 0 85 -10 273 -17 315 -5 25 -12 71 -22 140 -22
150 -59 209 -135 216 -30 3 -52 -1 -70 -12z m-323 -1300 c46 -40 93 -56 155
-52 65 4 65 13 3 -117 -39 -83 -115 -206 -163 -265 l-21 -25 10 35 c26 92 31
227 13 333 -7 43 -18 87 -23 98 -14 25 -9 24 26 -7z m-1302 -148 c-3 -78 -14
-170 -21 -176 -4 -4 3 263 8 280 5 19 15 -56 13 -104z m-110 -619 c-5 -146
129 -241 242 -171 117 72 141 79 264 79 63 0 129 -4 145 -8 17 -5 47 -11 68
-14 27 -4 34 -9 25 -15 -17 -11 -224 -77 -263 -84 -16 -2 -38 -7 -47 -10 -20
-6 -51 -12 -97 -20 -18 -3 -43 -8 -55 -10 -11 -3 -57 -7 -101 -9 -262 -13
-404 -54 -509 -146 -106 -93 -114 -209 -18 -255 53 -25 98 -11 152 46 25 26
56 53 70 60 40 21 121 39 200 46 41 3 90 7 108 8 18 2 35 -1 38 -5 3 -5 -9
-30 -27 -56 -119 -177 -235 -257 -388 -269 -87 -7 -148 -37 -186 -92 -26 -39
-30 -53 -31 -120 -2 -69 2 -108 22 -246 3 -22 16 -80 29 -130 72 -278 189
-494 357 -664 90 -90 175 -149 343 -236 193 -101 260 -148 365 -256 218 -224
426 -335 747 -399 135 -27 196 -32 412 -36 102 -2 202 -6 221 -10 44 -7 137
-24 171 -30 14 -3 71 -18 127 -35 574 -170 889 -512 960 -1040 14 -106 7 -408
-12 -506 -3 -12 -7 -37 -10 -55 -9 -52 -13 -69 -35 -139 -48 -153 -65 -262
-65 -410 0 -169 21 -274 84 -405 53 -112 79 -147 212 -284 103 -106 122 -130
161 -213 75 -155 83 -209 78 -498 -8 -520 -6 -634 13 -727 10 -49 48 -173 75
-250 17 -45 27 -84 23 -87 -6 -4 -225 -10 -244 -7 -4 0 2 27 13 59 25 72 25
142 0 212 -42 118 -57 307 -66 800 -3 217 -11 266 -59 373 -34 78 -76 136
-177 247 -212 234 -441 449 -674 634 -60 48 -127 101 -147 117 -86 69 -158
227 -192 422 -29 165 -28 492 3 687 7 41 5 58 -11 89 -46 94 -176 86 -212 -12
-24 -66 -40 -229 -41 -415 0 -96 -2 -112 -15 -108 -8 2 -67 23 -130 46 -231
83 -374 107 -610 101 -278 -7 -584 -6 -650 2 -100 11 -202 29 -255 43 -5 2
-23 6 -40 9 -64 13 -241 77 -329 119 -88 43 -211 119 -270 168 l-29 24 79 28
c238 85 382 212 496 441 52 103 107 276 123 390 3 17 9 56 13 87 5 32 8 92 8
134 -1 76 -1 77 -39 109 -33 29 -45 33 -83 31 -33 -2 -52 -10 -74 -31 -32 -31
-36 -45 -45 -155 -9 -107 -17 -155 -40 -245 -54 -210 -158 -377 -288 -464 -26
-18 -95 -50 -154 -72 -243 -90 -509 -263 -720 -470 -99 -97 -127 -156 -130
-271 -1 -48 2 -102 7 -120 5 -18 11 -49 14 -68 23 -145 82 -321 144 -426 22
-38 72 -101 110 -139 100 -102 123 -153 147 -335 l6 -45 -83 -58 -83 -57 -3
46 c-2 25 4 67 13 94 46 138 9 251 -175 535 -110 170 -162 265 -208 379 -56
137 -76 229 -76 346 0 165 65 255 239 328 209 88 341 203 438 383 38 69 83
194 93 254 3 21 8 47 10 59 12 58 5 126 -15 154 -51 72 -162 66 -203 -11 -5
-10 -12 -39 -14 -65 -11 -94 -35 -179 -75 -260 l-41 -82 -38 30 c-182 144
-311 362 -346 583 -30 196 9 423 108 636 74 159 92 211 113 331 22 123 8 361
-31 511 -8 31 -14 62 -14 67 0 6 32 11 78 11 42 1 91 3 107 6 136 25 287 103
332 171 36 56 11 136 -52 167 -45 21 -85 13 -155 -32 -162 -105 -337 -98 -534
22 -170 103 -202 117 -336 146 -110 24 -137 41 -151 94 -9 36 -6 143 5 154 2
3 125 40 272 84 148 44 295 94 327 111 32 17 106 76 164 129 112 105 189 152
256 155 36 2 80 -12 189 -60 55 -23 133 -20 193 8 115 54 256 187 342 323 26
40 47 73 47 73 1 0 1 -24 0 -53z m-1292 -3584 c54 -75 203 -233 220 -233 20 0
5 -19 -24 -31 -44 -18 -51 -19 -138 -23 -132 -6 -258 30 -401 115 -93 54 -126
60 -176 29 -55 -33 -102 -158 -108 -285 -8 -175 40 -255 340 -570 44 -46 54
-65 79 -149 16 -53 27 -97 25 -99 -2 -1 -16 -12 -30 -25 l-26 -22 -37 94 c-44
111 -76 148 -171 195 -170 85 -245 218 -321 566 -23 108 -40 246 -38 315 5
176 76 217 279 160 116 -32 114 -31 190 -34 76 -3 163 16 230 51 22 11 43 21
46 22 3 0 31 -34 61 -76z m4850 -115 c34 -39 76 -135 92 -209 l6 -26 -55 21
-55 21 -26 80 c-15 44 -37 104 -50 132 l-23 53 37 -15 c20 -8 54 -34 74 -57z
m-5060 -378 l46 -12 -32 -66 c-19 -37 -36 -80 -40 -95 -7 -32 -7 -32 -71 48
-61 75 -75 100 -82 150 l-6 45 69 -29 c39 -16 91 -35 116 -41z m3335 -705 c55
-19 134 -50 176 -69 63 -29 78 -41 83 -63 38 -176 72 -269 134 -375 51 -86
114 -148 275 -275 72 -56 146 -116 165 -133 150 -133 199 -179 305 -286 234
-235 298 -314 336 -412 19 -50 22 -81 25 -257 3 -219 12 -477 19 -540 16 -153
19 -176 46 -280 25 -98 22 -101 -88 -104 -43 -2 -99 -4 -125 -6 -27 -2 -46 0
-43 4 2 5 20 31 39 60 57 84 78 166 78 306 0 108 -7 213 -18 270 -2 11 -7 40
-10 65 -4 25 -21 99 -39 166 -122 443 -397 781 -790 971 -79 38 -114 62 -165
113 -103 104 -225 293 -364 565 -63 123 -146 299 -146 309 0 9 0 9 107 -29z"/>
</g>
</svg>
