<svg xmlns="http://www.w3.org/2000/svg" viewBox="0 0 1024 1024">
<g transform="translate(0,1024) scale(0.1,-0.1)">
<path fill="currentColor" d="M2434 9737 c-17 -15 -26 -33 -27 -52 0 -31 10 -102 17 -114 2 -3 7
-26 10 -51 3 -25 8 -55 10 -67 21 -108 29 -475 13 -618 -19 -174 -76 -374
-145 -511 l-39 -77 -27 47 c-54 92 -69 152 -71 276 -1 132 -6 152 -39 170 -52
28 -119 4 -133 -48 -5 -15 -8 -76 -8 -137 1 -85 6 -127 24 -185 25 -82 76
-184 123 -243 l30 -37 -56 -65 c-31 -35 -90 -92 -131 -127 -72 -60 -254 -182
-262 -175 -2 2 19 46 46 98 61 117 105 240 131 371 30 146 35 202 35 398 l0
175 55 41 c70 52 109 94 153 165 38 59 75 156 83 217 9 73 -54 128 -119 103
-33 -13 -54 -45 -61 -96 -9 -55 -48 -132 -94 -183 -40 -44 -52 -45 -52 -6 0
41 -77 326 -115 430 -49 130 -117 276 -138 292 -21 18 -67 22 -95 9 -23 -11
-52 -54 -52 -78 0 -6 24 -66 54 -133 92 -208 166 -471 193 -686 10 -82 10
-428 1 -495 -11 -70 -19 -109 -23 -113 -2 -2 -20 12 -42 31 -70 64 -133 193
-148 302 -10 80 -65 120 -127 94 -57 -23 -66 -82 -33 -210 38 -147 144 -301
262 -382 18 -12 33 -26 33 -31 0 -21 -84 -183 -129 -249 -62 -89 -83 -109
-140 -131 -106 -41 -226 -133 -421 -321 -230 -223 -414 -400 -539 -521 -91
-87 -129 -118 -145 -116 -58 8 -106 4 -131 -12 -59 -39 -82 -124 -50 -186 24
-46 66 -71 137 -79 4 -1 9 -10 13 -20 3 -11 27 -40 53 -65 130 -126 304 -199
552 -231 41 -5 252 -6 375 -2 l49 2 13 -80 c10 -62 59 -323 78 -415 10 -49 91
-361 115 -445 176 -607 430 -1133 714 -1479 38 -47 60 -85 71 -124 126 -441
419 -1004 772 -1480 77 -104 83 -116 79 -150 -5 -38 -11 -90 -22 -197 -3 -33
-7 -71 -9 -85 -2 -14 -7 -56 -11 -95 -3 -38 -8 -77 -9 -85 -2 -8 -6 -49 -10
-90 -4 -41 -8 -82 -10 -90 -2 -8 -6 -49 -10 -90 -4 -41 -8 -82 -10 -90 -2 -8
-6 -49 -10 -90 -3 -41 -8 -86 -10 -100 -2 -14 -6 -54 -10 -90 -4 -36 -8 -76
-10 -90 -2 -14 -6 -54 -10 -90 -12 -119 -13 -123 -68 -175 -108 -102 -187
-216 -187 -270 0 -43 27 -94 62 -115 32 -19 49 -20 483 -20 415 0 453 2 490
19 50 23 53 26 162 196 103 161 105 164 119 275 3 25 7 52 9 60 2 8 7 35 10
60 5 41 16 107 30 185 2 17 7 50 11 75 3 25 7 52 9 60 2 8 7 38 10 65 4 28 8
57 10 65 2 8 7 38 10 65 4 28 8 57 10 65 2 8 7 35 10 60 3 25 8 57 11 73 2 15
6 39 8 55 3 15 7 45 10 67 3 22 15 103 26 180 11 77 22 158 25 180 3 22 7 56
10 75 10 76 23 221 30 340 3 47 7 114 10 150 2 36 7 124 11 195 4 72 8 146 9
165 2 19 3 49 4 67 1 27 4 31 22 28 141 -27 686 -27 959 0 19 2 69 6 110 9 41
4 91 8 110 11 19 2 64 7 100 10 36 4 76 8 90 10 14 2 54 6 90 10 36 4 76 8 90
10 14 2 50 6 81 10 31 3 65 7 75 9 11 2 50 7 87 11 37 3 76 8 85 10 9 1 46 6
82 10 36 4 72 8 80 10 8 1 42 6 75 9 33 4 71 9 85 11 29 4 90 11 175 21 33 3
68 8 78 10 9 1 27 -7 40 -20 21 -22 177 -191 207 -226 8 -9 53 -59 100 -110
47 -51 92 -101 101 -111 9 -10 56 -62 105 -115 49 -53 96 -105 104 -114 8 -9
55 -61 104 -114 49 -53 96 -105 105 -115 21 -24 192 -210 254 -275 26 -28 61
-79 78 -113 52 -103 49 -129 -75 -643 -58 -245 -108 -454 -110 -465 -14 -76
-27 -103 -56 -115 -61 -25 -178 -160 -234 -267 -32 -63 -12 -137 47 -173 31
-19 54 -20 595 -20 602 0 604 0 657 50 26 25 173 325 179 365 7 50 18 119 22
140 2 11 7 40 10 65 3 25 7 52 9 60 2 8 7 35 10 60 3 25 10 70 15 100 5 30 12
73 15 95 3 22 10 65 15 95 5 30 12 73 15 95 3 22 10 65 15 95 5 30 12 73 15
95 3 22 10 65 15 95 5 30 12 73 15 95 3 22 10 65 15 95 6 30 13 75 17 100 5
25 8 101 8 170 0 108 -5 143 -33 260 -19 74 -36 144 -38 155 -2 11 -8 43 -14
71 -6 28 -13 61 -15 75 -2 13 -9 53 -15 89 -6 36 -13 75 -15 88 -2 13 -7 53
-10 90 -4 37 -8 78 -11 92 -5 32 -6 288 -1 315 3 11 8 38 11 59 4 22 27 83 51
136 66 146 131 353 151 475 3 20 8 47 10 59 2 11 7 53 10 91 4 39 8 72 10 74
2 2 16 -8 31 -24 130 -130 386 -257 523 -258 121 -1 218 64 264 178 21 51 24
70 20 169 -2 61 -5 120 -8 132 -2 12 -7 45 -11 75 -4 30 -9 57 -11 60 -2 3 -6
21 -9 40 -3 19 -20 74 -36 123 -103 307 -308 547 -597 694 -120 62 -305 127
-412 147 -8 1 -33 6 -55 10 -22 4 -51 9 -65 11 -14 2 -39 6 -55 9 -20 3 -49
24 -80 56 -174 179 -469 336 -775 414 -58 15 -112 28 -120 30 -8 1 -31 5 -50
9 -19 3 -46 8 -59 11 -13 2 -49 7 -80 11 -31 3 -65 8 -75 10 -127 24 -745 24
-872 0 -11 -2 -50 -7 -87 -11 -37 -3 -76 -8 -85 -10 -9 -1 -44 -6 -77 -9 -33
-4 -67 -9 -75 -11 -8 -2 -32 -6 -52 -9 -21 -3 -55 -9 -75 -12 -21 -3 -105 -19
-188 -35 -195 -39 -193 -38 -245 -50 -77 -18 -83 -19 -140 -27 -112 -15 -634
-6 -753 13 -12 2 -53 6 -90 10 -37 3 -76 8 -85 10 -9 1 -44 6 -77 9 -33 4 -71
9 -85 11 -14 2 -45 7 -70 10 -25 3 -56 8 -70 10 -14 2 -43 6 -65 10 -23 3 -52
8 -65 10 -14 3 -45 8 -70 11 -25 3 -52 7 -60 9 -8 3 -32 7 -54 11 -21 3 -48 8
-60 10 -11 2 -37 7 -56 10 -143 23 -273 58 -364 99 -197 88 -470 268 -746 492
-165 134 -436 400 -494 485 l-38 56 32 66 c77 163 72 338 -16 506 -56 108
-119 166 -204 191 -25 7 -47 14 -49 16 -3 2 14 22 36 46 97 100 211 286 276
452 43 107 94 297 96 351 1 17 18 30 78 58 130 62 224 152 286 272 38 75 21
136 -45 156 -34 10 -42 9 -65 -8 -15 -11 -41 -47 -58 -79 -21 -40 -52 -78 -95
-114 -35 -30 -65 -50 -66 -45 -1 5 -5 101 -8 214 -2 113 -7 214 -9 225 -3 11
-8 43 -11 70 -22 173 -48 268 -78 290 -33 22 -82 19 -114 -8z m-179 -2097 c31
-29 75 -112 90 -170 37 -142 -12 -273 -162 -431 -79 -84 -88 -99 -83 -144 2
-27 40 -64 70 -68 31 -5 63 11 119 61 l45 40 30 -42 c44 -61 326 -340 441
-435 264 -219 540 -410 759 -526 131 -69 240 -109 351 -130 32 -5 65 -12 105
-20 105 -21 129 -25 155 -30 140 -24 207 -35 245 -40 25 -3 52 -8 60 -10 8 -2
40 -7 70 -10 30 -3 62 -8 70 -10 8 -2 44 -7 80 -10 36 -4 73 -9 82 -10 9 -2
48 -7 85 -10 37 -4 78 -8 90 -10 75 -12 273 -20 493 -20 262 0 314 3 435 29
39 8 82 17 95 20 14 2 79 16 145 30 66 13 138 27 160 30 23 4 52 8 65 11 13 3
42 7 65 10 22 3 47 8 55 10 8 2 40 6 71 10 31 3 66 7 77 10 12 2 52 7 89 11
37 4 82 8 98 10 228 24 681 23 826 -1 13 -2 59 -9 102 -15 110 -16 115 -17
240 -49 304 -79 534 -202 721 -384 79 -77 90 -84 158 -91 97 -10 257 -46 362
-83 316 -109 537 -308 658 -589 31 -72 64 -189 73 -254 3 -25 8 -52 11 -61 2
-8 6 -62 8 -119 5 -113 -4 -146 -46 -168 -49 -27 -98 -18 -223 38 -176 79
-304 204 -376 368 -47 105 -50 110 -80 122 -40 17 -87 4 -108 -31 -14 -23 -17
-42 -12 -87 8 -82 7 -316 -2 -392 -21 -186 -73 -366 -164 -575 -62 -141 -68
-175 -68 -405 0 -154 7 -283 19 -345 2 -11 7 -40 10 -65 3 -25 8 -56 11 -70 4
-22 11 -60 20 -110 3 -15 67 -302 84 -373 12 -48 12 -203 1 -254 -5 -21 -11
-58 -14 -83 -3 -25 -10 -70 -16 -100 -5 -30 -12 -73 -15 -95 -3 -22 -10 -65
-15 -95 -5 -30 -12 -73 -15 -95 -3 -22 -10 -65 -15 -95 -5 -30 -12 -73 -15
-95 -3 -22 -10 -65 -15 -95 -5 -30 -12 -75 -15 -100 -3 -25 -8 -52 -10 -60 -2
-8 -6 -35 -9 -60 -3 -25 -8 -55 -10 -67 -3 -11 -8 -43 -12 -70 -3 -26 -8 -57
-10 -68 -2 -11 -6 -40 -9 -65 -4 -26 -33 -102 -70 -178 l-64 -132 -231 0
c-126 0 -230 4 -230 9 0 4 24 33 53 63 35 36 66 58 95 66 23 7 48 23 56 35 22
33 162 546 190 692 2 11 12 61 21 110 9 50 19 97 20 106 2 9 6 40 10 69 4 29
8 60 10 69 16 83 21 291 10 385 -11 92 -57 160 -259 386 -17 19 -67 76 -111
125 -93 104 -77 87 -185 205 -47 51 -92 101 -100 110 -8 9 -50 56 -94 103 -43
48 -86 95 -95 105 -17 20 -160 178 -176 196 -101 108 -273 330 -350 451 -56
88 -121 222 -140 289 -23 79 -23 81 -24 159 -1 62 -4 71 -30 97 -23 24 -35 28
-66 25 -63 -6 -80 -32 -82 -129 -3 -165 60 -332 218 -577 38 -58 69 -108 69
-110 0 -3 -10 -5 -22 -5 -34 -1 -195 -15 -215 -18 -10 -2 -58 -7 -107 -11 -50
-4 -97 -8 -105 -10 -9 -1 -50 -6 -91 -10 -41 -4 -82 -8 -90 -10 -8 -2 -49 -6
-90 -10 -41 -4 -82 -8 -90 -10 -8 -1 -46 -6 -83 -10 -37 -3 -76 -8 -85 -10 -9
-1 -46 -6 -82 -10 -36 -4 -72 -8 -80 -10 -8 -1 -42 -6 -75 -9 -33 -4 -78 -9
-100 -12 -65 -8 -106 -13 -165 -19 -30 -3 -71 -8 -90 -10 -19 -2 -66 -7 -105
-11 -38 -3 -77 -8 -85 -9 -9 -2 -60 -6 -115 -10 -55 -4 -107 -9 -116 -10 -140
-26 -787 -26 -914 -1 -11 3 -23 5 -28 5 -4 1 -5 22 -3 49 3 26 8 106 11 177 4
72 8 155 10 185 3 55 7 214 6 258 -2 63 -95 94 -145 50 -31 -28 -33 -40 -41
-273 -4 -99 -8 -196 -10 -215 -2 -19 -6 -96 -10 -170 -4 -74 -8 -151 -10 -170
-2 -19 -6 -84 -10 -145 -3 -60 -8 -138 -10 -172 -3 -35 -7 -91 -10 -125 -2
-35 -7 -108 -10 -163 -4 -55 -8 -120 -10 -145 -2 -25 -7 -90 -11 -145 -3 -55
-7 -107 -9 -115 -2 -8 -8 -51 -15 -95 -17 -121 -20 -138 -25 -165 -2 -14 -7
-45 -10 -70 -7 -53 -14 -95 -20 -130 -2 -14 -7 -45 -10 -70 -3 -25 -8 -52 -10
-60 -2 -8 -7 -39 -10 -69 -4 -30 -8 -61 -10 -70 -2 -15 -12 -77 -20 -131 -2
-14 -9 -54 -14 -90 -5 -36 -13 -85 -16 -110 -3 -25 -8 -52 -10 -60 -2 -8 -6
-37 -10 -65 -6 -53 -13 -95 -20 -135 -3 -14 -7 -47 -11 -75 -6 -53 -13 -66
-112 -218 l-63 -97 -155 0 c-85 0 -154 4 -154 9 0 5 41 47 90 93 50 47 90 94
91 104 0 10 2 27 4 36 2 9 6 59 10 110 3 51 8 109 10 128 2 19 6 73 10 120 3
47 8 101 10 120 2 19 6 71 9 115 8 97 15 195 21 255 2 25 7 79 10 120 11 137
22 266 30 360 2 25 7 79 10 121 l6 76 -89 209 c-245 571 -458 1134 -557 1476
-19 64 -40 126 -47 137 -15 25 -70 45 -96 37 -31 -10 -63 -52 -64 -82 0 -31
49 -204 107 -373 19 -58 33 -106 31 -109 -6 -6 -178 81 -233 119 -82 55 -185
140 -259 214 l-72 70 3 85 c2 78 12 223 20 310 27 279 27 887 1 1025 -2 11 -7
47 -10 80 -11 95 -55 279 -97 409 -100 306 -266 556 -438 660 -145 88 -305
104 -466 47 -94 -33 -106 -36 -194 -46 -71 -7 -303 -7 -361 1 -170 22 -339 89
-423 166 -37 35 -46 49 -42 69 2 14 43 61 97 113 51 49 207 200 347 335 290
280 274 265 366 350 82 76 196 153 268 179 53 20 137 36 137 26 0 -3 -11 -20
-24 -37 -38 -50 -98 -176 -103 -217 -7 -49 27 -90 78 -95 49 -4 72 17 117 110
83 172 240 310 424 375 58 20 97 14 133 -20z m-479 -1495 c156 -76 292 -279
394 -585 38 -115 73 -262 85 -355 4 -27 8 -61 11 -75 19 -119 26 -612 11 -840
-12 -183 -18 -273 -22 -295 -2 -11 -4 -29 -4 -40 -2 -42 -172 241 -277 460
-110 229 -212 503 -300 805 -25 85 -47 162 -49 170 -2 8 -20 85 -40 170 -20
85 -39 164 -41 175 -2 11 -6 31 -9 45 -10 48 -15 75 -21 110 -3 19 -7 42 -9
50 -3 8 -7 33 -10 55 -3 22 -8 51 -10 65 -13 70 -15 100 -8 100 4 1 31 7 58
14 81 21 159 12 241 -29z m804 -2810 c19 -23 183 -122 259 -157 35 -17 102
-45 149 -62 l83 -31 83 -215 c95 -246 163 -413 281 -690 63 -147 83 -204 80
-230 -2 -19 -6 -75 -10 -125 -3 -49 -8 -101 -10 -115 -2 -14 -7 -68 -10 -120
-4 -52 -9 -113 -11 -135 -1 -22 -6 -76 -9 -120 -4 -44 -8 -96 -10 -115 -2 -19
-6 -75 -10 -125 -3 -49 -8 -101 -10 -115 -2 -14 -6 -68 -10 -120 -4 -52 -8
-106 -10 -120 -2 -14 -7 -68 -10 -120 l-7 -95 -74 -73 c-41 -41 -93 -102 -116
-138 l-42 -64 -98 0 c-54 0 -98 4 -98 9 0 5 41 47 90 93 50 46 92 92 94 103 2
11 7 54 11 95 4 41 8 82 10 90 2 8 6 49 10 90 4 41 8 82 10 90 1 8 6 51 10 94
4 43 8 86 10 95 1 9 6 50 10 91 4 41 8 82 10 90 1 8 6 47 9 85 4 39 9 81 11
95 2 14 6 52 10 85 3 33 8 76 10 95 9 75 14 128 21 195 3 39 8 79 10 90 2 11
7 59 10 106 l7 87 -93 123 c-194 260 -382 562 -520 839 -59 117 -160 342 -160
355 0 11 18 4 30 -10z m4929 -325 c46 -52 122 -137 170 -189 47 -52 93 -102
101 -111 8 -9 53 -59 100 -110 47 -51 92 -101 100 -110 8 -9 53 -59 100 -110
47 -51 93 -102 103 -114 10 -12 33 -37 50 -56 18 -19 64 -71 102 -115 39 -44
78 -89 88 -100 10 -11 37 -44 60 -74 l42 -54 0 -151 c0 -134 -6 -224 -19 -292
-3 -12 -7 -39 -11 -60 -11 -72 -16 -99 -40 -209 -40 -186 -107 -450 -141 -557
-12 -38 -24 -52 -59 -72 -56 -33 -151 -138 -195 -215 l-35 -60 -148 -1 -148 0
20 28 c33 47 97 99 129 106 57 13 67 33 117 238 26 106 49 204 51 218 3 14 14
61 26 105 11 44 22 89 24 101 2 11 29 126 60 255 60 251 69 331 47 422 -24
107 -69 181 -174 292 -26 28 -56 59 -66 71 -10 12 -58 65 -107 118 -49 53 -96
105 -105 115 -9 10 -56 62 -105 115 -49 53 -96 105 -105 115 -9 10 -56 62
-105 115 -49 53 -97 105 -106 116 -9 11 -55 61 -102 112 -47 51 -106 116 -131
143 -53 58 -50 61 53 64 35 1 66 3 67 5 1 1 49 2 105 1 l104 0 83 -95z M1163
7118 c-28 -13 -46 -57 -38 -91 16 -64 98 -84 141 -33 62 72 -16 166 -103 124z
M7271 5628 c-80 -41 -81 -75 -2 -115 78 -40 198 -18 220 40 29 76 -119 126
-218 75z M6088 5540 c-47 -14 -98 -51 -104 -76 -12 -45 31 -75 115 -79 89 -5
175 44 166 93 -2 9 -4 20 -4 23 -1 4 -13 15 -28 24 -29 20 -102 27 -145 15z
M4857 5415 c-44 -15 -86 -50 -83 -70 6 -42 70 -77 151 -80 70 -4 122 16 144
56 13 24 13 29 -3 53 -9 15 -29 32 -44 38 -40 17 -122 18 -165 3z M8113 5340
c-18 -11 -33 -27 -33 -36 0 -84 172 -123 236 -53 58 65 -118 143 -203 89z
M6695 5128 c-39 -14 -75 -47 -75 -69 0 -22 40 -54 87 -70 49 -16 138 -7 171
18 38 28 37 78 -1 106 -32 25 -134 33 -182 15z M7615 4995 c-22 -8 -41 -15
-42 -15 -1 0 -7 -9 -13 -19 -29 -55 78 -132 175 -125 17 1 38 2 47 3 9 0 30
12 47 26 30 26 33 44 12 83 -25 47 -154 74 -226 47z M5536 4928 c-80 -17 -129
-65 -107 -105 51 -96 276 -116 336 -29 21 29 19 50 -10 85 -40 47 -132 68
-219 49z"/>
</g>
</svg>
