<svg xmlns="http://www.w3.org/2000/svg" viewBox="0 0 1024 1024">
<g transform="translate(0,1024) scale(0.1,-0.1)">
<path fill="currentColor" d="M5018 7494 c-316 -359 -541 -762 -584 -1044 -11 -74 -5 -207 12 -273
57 -223 221 -392 455 -470 68 -23 125 -31 219 -31 208 -1 390 79 528 229 178
194 210 455 95 765 -97 263 -305 587 -549 857 -36 40 -70 73 -74 73 -5 0 -51
-48 -102 -106z m185 -290 c304 -398 455 -766 396 -965 -53 -180 -193 -312
-374 -354 -244 -57 -489 84 -577 332 -56 157 7 389 187 693 80 135 272 393
288 387 7 -2 43 -44 80 -93z M1639 6786 c-2 -2 -22 -6 -44 -9 -158 -23 -265
-55 -410 -126 -333 -162 -598 -461 -797 -896 -37 -81 -118 -294 -118 -311 0
-2 46 -4 103 -4 l103 0 38 98 c150 384 373 689 628 861 108 72 287 148 394
166 21 3 62 10 89 15 52 9 318 6 370 -4 17 -4 66 -14 110 -22 221 -44 568
-189 827 -347 383 -233 771 -541 1171 -927 54 -52 102 -96 105 -98 4 -1 38 29
76 67 l68 68 -40 39 c-760 747 -1475 1218 -2083 1374 -92 24 -94 24 -159 35
-25 4 -54 10 -65 12 -24 6 -361 14 -366 9z M8358 6785 c-2 -1 -34 -5 -73 -8
-38 -4 -95 -11 -125 -17 -30 -7 -68 -14 -85 -17 -16 -3 -68 -16 -115 -29 -496
-142 -1043 -476 -1650 -1008 -124 -109 -179 -159 -338 -312 l-82 -79 69 -70
69 -70 73 69 c635 593 1032 888 1501 1116 150 73 414 170 498 184 33 5 49 9
110 21 52 10 158 19 240 19 335 0 597 -110 841 -353 180 -180 322 -407 434
-693 l38 -98 104 0 c57 0 103 2 103 4 0 3 -14 44 -31 93 -191 544 -518 946
-916 1128 -57 27 -191 74 -228 81 -11 2 -42 8 -70 14 -84 16 -145 22 -257 25
-59 1 -109 1 -110 0z M2038 5225 c-1 -1 -37 -6 -78 -9 -503 -46 -1151 -358
-1577 -760 l-92 -87 46 -72 c102 -159 141 -218 237 -352 520 -730 1049 -1160
1576 -1279 127 -29 297 -38 440 -23 262 27 527 143 790 345 112 87 317 292
418 419 150 190 362 534 362 587 0 10 -34 63 -76 119 -262 348 -572 644 -856
815 -232 140 -528 250 -753 278 -22 3 -51 8 -65 10 -28 6 -366 14 -372 9z
m-248 -240 c0 -2 -24 -17 -52 -31 -135 -68 -278 -192 -380 -329 -103 -138
-190 -344 -214 -505 -10 -69 -11 -267 -2 -340 10 -72 44 -204 69 -259 11 -24
18 -46 16 -47 -4 -5 -101 96 -183 191 -175 201 -501 655 -487 677 3 5 51 46
107 91 204 163 471 322 708 421 99 42 265 99 319 110 13 3 37 8 54 11 16 3 32
8 34 11 6 5 11 5 11 -1z m613 -100 c190 -21 398 -121 539 -258 258 -252 352
-596 258 -946 -90 -332 -372 -594 -729 -677 -58 -14 -306 -13 -371 1 -366 78
-652 351 -741 706 -24 96 -33 281 -18 374 58 368 334 677 692 775 119 33 232
40 370 25z m823 -196 c209 -141 444 -368 646 -628 l66 -84 -51 -86 c-134 -228
-277 -414 -452 -586 -186 -184 -369 -310 -560 -384 -129 -51 -178 -62 -95 -21
533 259 785 871 589 1427 -53 148 -130 276 -245 402 l-58 64 44 -28 c25 -15
77 -50 116 -76z M7908 5225 c-1 -1 -34 -6 -73 -9 -258 -25 -567 -133 -823
-288 -289 -174 -593 -464 -857 -817 l-85 -113 57 -111 c64 -125 218 -360 320
-487 75 -94 288 -312 373 -382 316 -259 656 -389 997 -383 477 10 919 251
1419 776 171 180 358 422 566 734 l147 220 -47 48 c-178 184 -511 414 -805
558 -175 85 -440 181 -567 204 -14 3 -36 7 -50 10 -35 7 -68 13 -125 21 -27 3
-59 9 -70 11 -24 5 -372 13 -377 8z m795 -309 c204 -67 458 -195 670 -337 113
-76 299 -217 311 -237 11 -18 -279 -427 -435 -614 -85 -102 -231 -260 -236
-255 -2 2 6 26 17 52 51 118 74 250 75 415 0 189 -28 319 -104 484 -101 219
-295 426 -498 531 -29 15 -53 29 -53 30 0 5 164 -40 253 -69z m-628 -30 c147
-16 333 -92 460 -189 123 -94 243 -251 303 -396 83 -203 91 -452 21 -661 -98
-291 -331 -520 -624 -609 -108 -34 -129 -36 -295 -35 -138 1 -165 4 -244 28
-408 123 -683 479 -689 891 -2 139 7 207 44 320 86 268 298 492 562 594 96 37
141 47 242 58 33 3 61 6 62 7 4 3 99 -2 158 -8z m-965 -163 c-133 -145 -248
-360 -275 -513 -3 -18 -8 -36 -10 -40 -17 -27 -25 -278 -12 -380 44 -366 280
-697 622 -877 44 -23 77 -43 74 -43 -13 0 -149 50 -212 78 -334 152 -699 518
-948 948 l-47 83 106 133 c132 165 364 398 499 501 83 63 247 174 261 176 2 1
-24 -29 -58 -66z"/>
</g>
</svg>
