<svg xmlns="http://www.w3.org/2000/svg" viewBox="0 0 1024 1024">
<g transform="translate(0,1024) scale(0.1,-0.1)">
<path fill="currentColor" d="M9868 10226 c-50 -18 -74 -35 -194 -131 -359 -291 -836 -523 -1429
-694 -136 -39 -479 -126 -540 -137 -16 -3 -50 -10 -75 -15 -25 -6 -55 -13 -66
-15 -12 -2 -66 -13 -120 -24 -55 -12 -115 -23 -134 -26 -19 -3 -54 -10 -78
-15 -23 -5 -59 -12 -80 -15 -20 -3 -44 -7 -52 -9 -8 -3 -33 -7 -55 -10 -22 -4
-47 -8 -55 -10 -8 -3 -33 -7 -55 -10 -22 -4 -47 -8 -55 -10 -8 -3 -33 -7 -55
-10 -22 -4 -47 -8 -55 -10 -8 -3 -33 -7 -55 -10 -22 -4 -47 -8 -55 -10 -8 -2
-31 -7 -50 -10 -30 -5 -109 -20 -210 -40 -14 -3 -41 -8 -60 -11 -19 -3 -43 -7
-52 -10 -17 -5 -44 -11 -93 -20 -16 -3 -77 -16 -135 -30 -58 -14 -113 -27
-123 -29 -100 -21 -321 -90 -452 -140 -296 -114 -508 -255 -750 -499 -276
-279 -419 -516 -614 -1016 -113 -290 -144 -361 -211 -474 -115 -193 -268 -345
-463 -460 -107 -64 -173 -93 -467 -207 -497 -194 -740 -340 -1005 -604 -263
-263 -385 -443 -508 -756 -66 -167 -173 -554 -211 -759 -2 -14 -9 -45 -14 -70
-6 -25 -13 -61 -16 -80 -3 -19 -12 -66 -20 -105 -8 -38 -17 -88 -20 -110 -4
-22 -8 -47 -11 -55 -2 -8 -6 -33 -10 -55 -3 -22 -7 -47 -10 -55 -2 -8 -6 -33
-10 -55 -3 -22 -7 -47 -10 -55 -2 -8 -6 -33 -10 -55 -3 -22 -7 -47 -10 -55 -2
-8 -6 -33 -10 -55 -3 -22 -7 -47 -10 -55 -2 -8 -6 -32 -9 -52 -3 -21 -10 -57
-15 -80 -5 -24 -12 -59 -15 -78 -3 -19 -8 -46 -11 -60 -2 -14 -12 -59 -20
-100 -8 -41 -17 -84 -19 -95 -3 -11 -9 -40 -15 -65 -5 -25 -12 -57 -15 -73 -2
-15 -7 -35 -10 -45 -3 -9 -7 -28 -10 -42 -7 -41 -75 -307 -111 -435 -166 -591
-404 -1083 -703 -1453 -125 -156 -137 -180 -137 -277 1 -69 5 -87 30 -133 81
-149 267 -195 408 -101 65 43 243 259 413 504 62 88 581 611 4403 4432 2892
2893 4353 4347 4394 4375 113 75 281 203 404 307 150 125 178 171 178 291 0
80 -12 112 -67 182 -61 78 -206 118 -300 84z m149 -164 c28 -15 54 -58 55 -90
3 -78 -9 -92 -213 -256 -424 -340 -950 -619 -1603 -851 -223 -79 -507 -165
-967 -294 -685 -192 -832 -249 -1041 -402 -107 -79 -274 -248 -364 -369 -38
-52 -122 -174 -186 -271 -166 -251 -262 -347 -383 -382 -99 -29 -284 -7 -475
54 -139 45 -461 187 -475 209 -9 15 80 207 150 325 160 266 414 535 670 710
86 58 277 151 410 199 90 32 311 99 368 110 41 9 62 14 102 24 22 6 51 13 65
16 14 3 77 16 140 30 63 13 131 27 150 30 19 3 46 8 60 11 14 3 34 7 45 9 21
5 393 72 435 80 14 2 111 20 215 40 105 19 204 37 220 41 41 7 75 14 105 20
14 3 36 7 50 10 34 6 50 10 155 34 50 11 101 22 115 24 65 12 471 120 603 162
558 173 997 396 1365 693 56 46 113 87 125 92 26 11 75 7 104 -8z m-988 -1069
c-106 -119 -7808 -7811 -7800 -7791 6 15 21 49 35 75 40 79 140 319 204 489
116 308 188 542 412 1334 116 408 186 595 271 722 142 211 290 348 589 543
286 188 394 282 464 408 50 88 66 170 62 297 -4 102 -8 131 -26 215 -5 22 -6
43 -2 46 4 3 66 26 137 50 163 55 386 164 530 259 462 306 794 738 970 1264
36 106 41 111 95 94 92 -27 292 -33 381 -10 168 44 291 162 502 480 219 329
344 469 539 603 105 71 187 110 367 173 110 38 576 176 646 191 32 6 491 141
610 178 345 109 711 250 940 361 50 25 92 45 94 45 3 1 -6 -11 -20 -26z
m-4552 -1824 c37 -17 113 -49 168 -71 55 -22 102 -41 103 -43 2 -2 -7 -39 -21
-82 -184 -580 -606 -1068 -1152 -1334 -115 -56 -355 -149 -384 -149 -4 0 -27
48 -50 108 -23 59 -68 160 -99 225 -49 100 -55 120 -42 126 8 5 97 41 197 81
289 115 460 219 622 380 183 181 296 373 431 732 l44 116 58 -29 c31 -16 87
-43 125 -60z m-1603 -1372 c150 -313 225 -552 231 -732 6 -214 -64 -304 -423
-542 -307 -204 -425 -303 -568 -479 -132 -162 -194 -282 -281 -539 -43 -128
-65 -205 -238 -815 -277 -981 -571 -1639 -977 -2189 -100 -135 -244 -306 -271
-320 -78 -41 -167 1 -182 88 -8 44 4 67 105 192 288 359 514 807 686 1356 41
131 166 609 179 684 5 25 22 108 41 194 2 11 6 31 9 45 3 14 7 36 10 50 3 14
7 36 10 50 2 14 38 210 80 435 41 226 77 421 80 435 3 14 8 41 11 60 3 19 15
78 26 130 10 52 22 106 24 120 3 14 14 63 25 110 11 47 22 92 24 100 56 256
178 587 277 754 167 283 479 585 782 757 105 60 271 139 291 139 6 0 28 -37
49 -83z"/>
</g>
</svg>
