<svg xmlns="http://www.w3.org/2000/svg" viewBox="0 0 1024 1024">
<g transform="translate(0,1024) scale(0.1,-0.1)">
<path fill="currentColor" d="M6380 9753 c-77 -29 -108 -92 -108 -218 -1 -102 -5 -131 -32 -233
-41 -151 -84 -214 -232 -345 -169 -149 -251 -326 -247 -537 4 -225 86 -420
235 -561 175 -164 306 -204 398 -120 23 21 27 22 18 6 -13 -25 -12 -15 -12
-159 l0 -123 -68 -31 c-228 -102 -742 -243 -1084 -297 -18 -3 -44 -7 -58 -10
-14 -3 -38 -7 -55 -9 -45 -7 -118 -18 -135 -21 -8 -2 -44 -6 -80 -10 -36 -4
-72 -8 -80 -10 -8 -2 -49 -6 -90 -10 -41 -3 -86 -8 -100 -10 -14 -2 -63 -7
-110 -10 -110 -8 -142 -19 -179 -60 -38 -44 -45 -83 -37 -207 22 -350 164
-663 413 -911 191 -192 435 -336 728 -432 122 -40 308 -86 400 -100 23 -3 50
-7 61 -9 12 -2 45 -7 75 -11 30 -3 65 -8 79 -10 41 -6 189 -17 277 -20 68 -2
88 1 119 19 52 29 76 66 82 125 4 41 0 58 -21 94 -35 60 -73 76 -193 82 -55 3
-117 7 -139 10 -22 2 -67 7 -100 10 -33 4 -89 11 -125 17 -36 5 -78 12 -95 15
-16 2 -86 18 -155 35 -301 72 -557 202 -740 375 -72 67 -176 191 -167 199 3 4
44 10 110 18 82 10 141 18 159 21 9 2 38 7 65 11 26 3 57 8 68 10 10 2 35 6
55 9 43 6 50 8 210 40 69 14 134 27 145 29 11 2 38 9 60 14 22 6 51 13 65 16
125 22 538 155 701 225 l95 41 160 -63 c168 -68 273 -104 314 -110 64 -10 140
34 165 95 21 53 19 93 -7 139 -28 50 -47 62 -160 100 -93 31 -294 112 -378
153 -75 37 -104 34 -242 -27 -197 -88 -549 -207 -688 -233 -14 -3 -52 -12 -85
-21 -63 -16 -80 -20 -130 -29 -16 -3 -48 -9 -70 -14 -22 -5 -53 -11 -70 -14
-16 -3 -41 -8 -55 -11 -13 -2 -40 -7 -60 -10 -20 -3 -47 -8 -60 -10 -14 -3
-45 -8 -70 -11 -25 -3 -53 -8 -64 -10 -10 -2 -44 -6 -75 -10 -31 -3 -64 -8
-73 -9 -32 -7 -153 -18 -192 -19 -37 -1 -39 1 -50 39 -17 56 -15 107 4 110 8
1 47 5 85 9 39 4 88 9 110 12 22 3 57 7 78 9 58 8 120 16 147 20 14 2 43 6 65
10 23 3 52 7 65 10 13 3 40 7 60 10 35 5 61 10 110 20 14 2 39 7 55 10 17 3
41 7 55 10 14 3 37 7 52 10 15 3 126 30 247 60 229 58 506 147 666 216 l93 40
74 -31 c228 -98 617 -220 838 -264 14 -2 79 -16 145 -29 66 -14 138 -28 160
-31 22 -4 47 -8 55 -11 8 -2 35 -6 60 -9 25 -4 56 -8 70 -10 14 -3 43 -7 65
-10 22 -4 51 -8 65 -11 14 -2 50 -7 81 -10 31 -3 66 -7 76 -10 11 -2 56 -6 99
-10 43 -4 86 -9 94 -11 8 -1 19 -3 23 -3 8 -1 5 -39 -8 -101 -11 -56 -59 -186
-96 -263 -44 -90 -47 -123 -20 -183 37 -82 146 -113 225 -65 99 62 218 402
233 670 7 125 -3 168 -50 207 -43 36 -61 41 -163 48 -49 4 -105 8 -124 11 -19
2 -60 7 -90 10 -80 9 -190 22 -240 30 -14 2 -45 6 -70 10 -25 3 -56 8 -70 10
-14 3 -41 7 -60 10 -43 7 -136 23 -170 30 -31 6 -66 13 -105 21 -163 30 -434
101 -599 156 -121 40 -315 115 -328 127 -3 3 -8 65 -10 137 l-3 130 40 -23
c22 -12 54 -23 72 -23 76 0 229 87 323 183 100 103 161 218 195 367 19 84 14
304 -10 415 -69 328 -248 612 -560 890 -93 82 -242 194 -282 211 -33 14 -85
17 -113 7z m332 -591 c141 -149 272 -396 302 -573 3 -19 10 -52 14 -74 15 -83
7 -226 -17 -287 -12 -32 -26 -60 -30 -63 -5 -2 -21 26 -37 63 -66 157 -190
316 -318 406 -95 67 -152 77 -219 39 -58 -34 -77 -75 -78 -167 -1 -88 -2 -100
-19 -162 -8 -29 -31 -60 -76 -104 -35 -35 -64 -67 -64 -72 0 -26 -23 0 -52 59
-32 65 -33 73 -33 183 0 110 1 118 33 183 25 49 49 81 95 119 206 176 306 332
352 551 l6 28 47 -39 c26 -22 68 -62 94 -90z m-35 -1162 c5 -36 5 -85 1 -110
-5 -25 -6 -57 -4 -73 l4 -27 -29 21 c-60 42 -138 37 -196 -14 -31 -28 -35 -29
-24 -8 7 13 12 46 11 75 -5 131 -8 120 61 194 36 37 73 86 84 107 l19 40 32
-70 c18 -39 36 -100 41 -135z M2036 7818 c-62 -36 -80 -76 -82 -185 -3 -116
-9 -159 -34 -251 -42 -153 -84 -214 -232 -345 -169 -149 -251 -326 -247 -537
4 -225 86 -420 235 -561 175 -164 306 -204 398 -120 23 21 27 22 18 6 -5 -11
-11 -78 -11 -150 -1 -71 -5 -133 -9 -136 -13 -12 -235 -96 -364 -138 -113 -36
-442 -123 -523 -137 -16 -3 -48 -9 -70 -14 -22 -5 -56 -11 -75 -15 -19 -3 -46
-8 -60 -10 -49 -10 -75 -15 -110 -20 -20 -3 -45 -7 -56 -9 -12 -2 -45 -7 -74
-11 -29 -4 -61 -8 -70 -10 -9 -2 -41 -6 -71 -10 -30 -3 -65 -8 -79 -10 -42 -6
-171 -19 -305 -30 -106 -8 -138 -19 -174 -60 -38 -44 -45 -83 -37 -207 34
-544 358 -993 900 -1248 175 -83 458 -169 641 -195 23 -3 51 -7 64 -10 13 -2
49 -7 80 -11 31 -3 65 -8 75 -10 101 -19 668 -26 841 -11 97 9 110 10 255 33
140 22 144 22 285 56 120 28 133 33 167 69 64 67 63 154 -2 219 -54 54 -93 58
-232 25 -62 -15 -120 -28 -128 -30 -8 -1 -35 -6 -60 -11 -25 -4 -47 -8 -50 -9
-3 -1 -32 -5 -65 -9 -32 -4 -66 -9 -75 -11 -137 -26 -777 -27 -915 -1 -11 2
-47 7 -80 11 -163 18 -407 78 -551 135 -197 79 -344 168 -478 292 -68 62 -181
196 -173 204 3 4 45 11 110 18 82 10 141 18 159 21 9 2 38 7 65 11 26 3 57 8
68 10 10 2 35 6 55 9 43 6 50 8 210 40 69 14 134 27 145 29 211 42 630 171
826 255 l95 41 160 -63 c262 -105 316 -120 373 -105 73 20 121 84 121 159 0
37 -35 104 -66 124 -12 7 -70 30 -129 50 -59 20 -164 61 -234 92 -166 73 -191
82 -224 83 -16 0 -83 -24 -150 -54 -194 -86 -542 -204 -685 -232 -12 -2 -62
-14 -110 -25 -48 -12 -98 -23 -112 -26 -14 -2 -44 -8 -68 -14 -23 -5 -59 -12
-80 -15 -20 -3 -44 -7 -52 -9 -8 -3 -32 -7 -54 -11 -21 -3 -48 -8 -60 -10 -11
-2 -41 -7 -66 -10 -25 -3 -53 -8 -64 -10 -10 -2 -44 -6 -75 -10 -31 -3 -64 -8
-73 -9 -33 -7 -154 -18 -193 -19 l-39 -1 -13 55 c-7 30 -12 64 -10 74 2 21 1
20 102 30 76 8 145 15 185 21 14 2 49 7 79 10 30 4 62 8 72 10 9 2 39 7 66 11
26 3 57 8 68 10 10 2 35 6 55 9 38 6 55 9 135 25 28 5 61 11 75 14 20 3 159
34 280 62 180 41 531 155 696 225 l92 40 124 -52 c152 -64 437 -159 498 -165
131 -15 220 128 150 241 -28 45 -51 57 -197 101 -111 33 -390 138 -405 153 -3
3 -8 65 -10 137 l-3 130 40 -23 c51 -29 91 -29 164 1 196 79 357 265 417 481
22 81 27 294 9 405 -43 256 -152 488 -335 705 -124 148 -303 310 -462 419 -74
50 -134 58 -192 24z m356 -576 c68 -72 154 -195 200 -286 40 -79 92 -224 102
-287 3 -19 8 -45 12 -59 3 -14 7 -66 10 -117 3 -93 -9 -162 -43 -227 l-15 -30
-49 103 c-57 120 -122 212 -211 297 -140 134 -226 166 -311 117 -58 -34 -77
-75 -78 -167 -1 -88 -2 -100 -19 -162 -8 -29 -31 -60 -76 -104 -35 -35 -64
-67 -64 -72 0 -26 -23 0 -52 59 -32 65 -33 73 -33 183 0 110 1 118 33 183 25
49 49 81 95 119 206 176 306 332 352 551 l6 28 47 -39 c26 -22 68 -62 94 -90z
m-35 -1162 c5 -36 5 -85 1 -110 -5 -25 -6 -57 -4 -73 l4 -27 -29 21 c-60 42
-138 37 -196 -14 -31 -28 -35 -29 -24 -8 7 13 12 46 11 75 -5 131 -8 120 61
194 36 37 73 86 84 107 l19 40 32 -70 c18 -39 36 -100 41 -135z M7455 6706
c-41 -18 -83 -69 -89 -109 -3 -18 -7 -81 -10 -142 -7 -169 -40 -316 -96 -425
-29 -58 -113 -145 -224 -234 -156 -124 -251 -265 -296 -436 -29 -112 -22 -312
14 -434 63 -210 185 -377 358 -492 166 -111 269 -125 339 -48 36 41 47 73 42
124 -3 25 -6 71 -6 102 l-1 56 85 84 c77 76 108 120 139 202 l10 28 31 -38
c17 -21 45 -70 64 -109 52 -111 67 -203 51 -316 -7 -47 -4 -65 12 -101 38 -87
115 -115 216 -79 265 93 475 342 530 626 21 110 15 317 -13 452 -53 253 -182
510 -371 735 -130 155 -361 358 -561 493 -111 75 -163 89 -224 61z m304 -525
c290 -249 473 -530 537 -825 23 -100 27 -287 9 -355 -18 -69 -56 -146 -96
-194 l-32 -39 -22 69 c-66 207 -199 397 -367 523 -116 87 -150 103 -215 98
-44 -4 -60 -11 -88 -38 -44 -42 -54 -75 -54 -175 0 -87 -3 -104 -27 -181 -13
-42 -29 -63 -86 -114 -39 -35 -84 -86 -101 -113 l-31 -50 -32 39 c-76 90 -111
193 -113 335 -1 77 3 106 23 162 31 86 90 164 164 219 82 60 207 183 258 255
59 82 118 210 147 319 28 104 27 98 27 125 0 25 -1 26 99 -60z M3775 6226
c-36 -16 -70 -52 -84 -88 -5 -14 -11 -73 -12 -130 -2 -94 -9 -175 -25 -282 -3
-21 -16 -76 -30 -123 -42 -146 -81 -209 -210 -333 -202 -197 -240 -244 -299
-374 -58 -128 -70 -192 -69 -376 1 -144 4 -177 27 -262 69 -261 255 -496 485
-613 139 -72 270 5 255 149 -5 51 -7 119 -4 166 1 16 27 52 75 102 72 75 146
196 146 239 0 80 109 -112 144 -253 18 -71 22 -162 13 -270 -5 -58 -3 -71 16
-100 72 -106 167 -104 340 8 190 123 330 319 389 544 19 70 22 112 23 245 0
177 -6 245 -36 384 -61 280 -213 580 -421 830 -139 167 -355 368 -529 493 -83
59 -134 71 -194 44z m353 -606 c238 -243 398 -513 466 -787 34 -135 41 -196
40 -353 0 -120 -3 -144 -27 -213 -27 -76 -89 -187 -105 -187 -4 0 -15 30 -25
68 -46 176 -158 365 -306 513 -126 126 -193 171 -259 172 -61 0 -110 -27 -138
-80 -17 -30 -21 -57 -22 -134 -1 -105 -6 -139 -27 -213 -19 -63 -29 -78 -103
-152 -33 -34 -72 -84 -86 -113 l-27 -52 -23 28 c-57 70 -108 189 -120 286 -11
79 -8 210 5 262 28 114 95 221 186 299 102 87 213 212 262 294 83 140 157 360
160 476 l1 30 37 -35 c20 -18 70 -68 111 -109z M7615 4466 c-37 -17 -70 -52
-84 -89 -7 -17 -11 -112 -11 -232 l0 -203 -87 -37 c-246 -103 -576 -196 -963
-270 -13 -3 -42 -7 -65 -10 -22 -4 -80 -13 -130 -20 -49 -8 -112 -17 -140 -20
-27 -4 -61 -8 -75 -10 -14 -2 -56 -7 -95 -10 -38 -4 -81 -8 -95 -10 -14 -2
-65 -7 -115 -10 -49 -4 -106 -9 -125 -10 -19 -2 -111 -6 -205 -10 -93 -3 -184
-11 -202 -16 -95 -30 -132 -161 -69 -243 48 -63 76 -69 280 -62 100 4 197 9
216 11 19 2 79 6 133 10 54 3 106 8 115 10 9 1 53 6 96 10 43 4 86 8 95 10 9
1 41 6 72 9 31 4 65 8 75 10 11 2 44 7 74 11 30 4 62 9 71 10 9 2 33 6 53 9
20 3 52 9 72 12 44 7 58 9 154 29 41 8 84 17 95 19 11 2 38 9 60 14 22 6 51
13 65 16 24 5 63 14 85 20 6 1 30 8 55 15 183 49 390 120 551 187 l107 45 123
-52 c212 -89 656 -223 839 -253 19 -3 46 -8 60 -11 33 -8 116 -23 160 -30 19
-3 42 -8 50 -10 8 -2 35 -6 60 -9 25 -3 54 -8 66 -10 12 -2 45 -7 75 -11 30
-3 61 -8 69 -10 8 -2 46 -6 83 -10 37 -3 76 -8 85 -10 9 -1 55 -6 102 -10 47
-4 99 -9 115 -11 42 -4 273 -18 314 -18 l33 0 -6 -70 c-7 -71 -18 -98 -39 -91
-7 2 -66 6 -132 10 -66 3 -138 8 -160 10 -22 2 -69 7 -105 10 -71 6 -141 14
-180 20 -14 2 -52 7 -85 11 -33 3 -69 8 -80 10 -10 2 -37 6 -60 9 -46 7 -198
32 -235 40 -14 3 -36 7 -50 10 -29 5 -62 12 -105 21 -107 21 -369 92 -495 133
-135 45 -398 151 -426 173 -6 4 -31 11 -56 14 -39 5 -59 0 -169 -49 -145 -64
-332 -134 -476 -177 -88 -27 -107 -37 -133 -68 -57 -69 -52 -154 11 -214 47
-45 93 -56 163 -38 95 23 320 101 453 156 l131 55 121 -51 c195 -82 577 -201
751 -234 14 -3 79 -16 145 -29 66 -14 138 -28 159 -31 21 -4 48 -8 60 -11 12
-2 39 -7 61 -10 22 -3 67 -10 100 -15 33 -5 85 -12 115 -15 30 -3 66 -8 80
-10 14 -2 54 -6 90 -10 36 -4 76 -8 90 -10 14 -2 70 -7 125 -11 55 -4 111 -8
125 -9 14 -2 40 -3 58 -4 l32 -1 -29 -58 c-200 -395 -609 -682 -1160 -814
-107 -25 -121 -28 -208 -43 -73 -12 -91 -14 -148 -21 -33 -3 -69 -8 -79 -10
-137 -26 -817 -25 -977 1 -13 2 -44 6 -69 9 -104 13 -137 18 -172 26 -61 13
-125 6 -155 -16 -61 -46 -87 -109 -70 -175 16 -67 73 -111 157 -123 43 -6 77
-11 130 -21 14 -2 52 -7 85 -11 33 -3 68 -8 79 -10 137 -26 842 -25 1008 1 13
2 50 6 83 9 33 3 69 8 80 10 11 2 40 7 65 10 345 47 777 203 1035 373 380 251
634 601 740 1023 14 52 27 113 30 135 4 22 8 51 11 65 2 14 7 82 10 152 8 148
-5 202 -59 242 -42 31 -61 34 -257 41 -91 4 -181 8 -200 10 -19 2 -75 6 -125
10 -49 3 -101 8 -115 10 -14 2 -56 6 -93 10 -37 3 -76 8 -85 10 -9 1 -44 6
-77 9 -75 9 -115 15 -185 26 -30 5 -72 12 -94 16 -21 3 -48 8 -60 10 -11 2
-37 7 -56 10 -89 14 -370 80 -509 120 -144 42 -329 108 -436 155 l-45 20 0
205 c0 230 -5 254 -67 301 -41 31 -113 40 -158 19z M3935 3826 c-37 -17 -70
-52 -84 -89 -7 -17 -11 -112 -11 -231 l0 -204 -52 -22 c-196 -84 -632 -207
-868 -245 -19 -3 -46 -8 -60 -10 -49 -10 -75 -15 -110 -20 -20 -3 -45 -7 -56
-9 -12 -2 -45 -7 -74 -11 -29 -4 -62 -8 -73 -11 -10 -2 -45 -6 -76 -9 -31 -4
-67 -8 -81 -10 -14 -2 -52 -7 -85 -10 -33 -3 -76 -8 -95 -10 -19 -2 -66 -7
-105 -11 -38 -3 -86 -7 -105 -9 -19 -2 -84 -6 -145 -10 -60 -4 -130 -8 -155
-10 -25 -2 -135 -7 -245 -10 -110 -3 -214 -11 -232 -16 -40 -13 -89 -67 -98
-109 -6 -28 -1 -102 10 -161 3 -13 7 -36 10 -50 35 -188 138 -478 241 -676
203 -388 465 -683 816 -917 241 -160 596 -312 868 -372 19 -4 40 -9 45 -10 65
-15 161 -34 201 -40 27 -3 51 -8 54 -9 3 -2 37 -6 75 -10 39 -4 79 -9 90 -11
136 -25 776 -25 937 1 13 2 48 6 79 10 31 3 67 8 80 10 13 3 39 7 59 10 38 6
70 12 110 20 14 3 34 7 45 9 129 25 336 89 495 153 657 263 1141 759 1395
1429 90 237 156 525 140 610 -8 44 -57 100 -98 113 -18 5 -124 13 -237 16
-113 3 -230 8 -260 10 -30 2 -93 7 -140 10 -112 8 -196 14 -245 20 -22 2 -71
7 -110 10 -38 4 -81 8 -95 11 -14 2 -56 6 -95 10 -38 4 -72 8 -75 9 -3 2 -33
7 -65 10 -57 6 -371 58 -425 70 -14 3 -38 8 -55 11 -201 35 -561 140 -737 214
l-78 33 0 204 c0 232 -5 255 -71 302 -42 31 -107 38 -154 17z m185 -854 c145
-60 485 -168 587 -185 15 -3 66 -15 113 -26 85 -20 316 -64 400 -76 25 -3 52
-8 60 -10 8 -2 39 -7 69 -10 30 -4 61 -8 70 -10 9 -1 41 -6 72 -9 31 -4 65 -8
75 -10 11 -2 51 -7 89 -11 39 -3 84 -8 100 -10 49 -6 134 -14 225 -21 47 -3
101 -7 120 -9 19 -2 100 -7 180 -10 133 -7 223 -12 243 -14 10 -1 3 -47 -15
-110 l-13 -44 -75 2 c-41 1 -102 4 -135 6 -104 6 -249 16 -285 20 -19 2 -71 6
-115 10 -44 3 -91 8 -105 10 -14 2 -52 6 -85 10 -33 3 -71 8 -85 10 -14 2 -45
6 -70 9 -81 10 -145 18 -165 22 -10 2 -37 6 -60 9 -22 3 -67 11 -100 17 -33 5
-73 12 -90 15 -31 5 -295 60 -330 69 -11 3 -31 7 -45 10 -134 27 -429 126
-597 200 -67 30 -136 54 -153 54 -17 0 -86 -24 -154 -54 -179 -80 -522 -190
-689 -222 -12 -2 -44 -8 -72 -14 -27 -6 -52 -10 -55 -10 -3 0 -21 -4 -40 -10
-19 -6 -55 -13 -80 -16 -25 -3 -47 -8 -50 -9 -3 -2 -24 -6 -46 -9 -22 -4 -51
-9 -64 -11 -14 -3 -45 -8 -70 -11 -25 -3 -53 -8 -64 -10 -10 -2 -44 -6 -75
-10 -31 -3 -64 -8 -73 -9 -9 -2 -48 -7 -85 -10 -37 -4 -75 -9 -83 -10 -8 -2
-49 -6 -90 -10 -41 -4 -88 -9 -105 -11 -16 -1 -70 -5 -120 -9 -49 -4 -106 -8
-125 -10 -19 -2 -107 -7 -195 -10 l-161 -7 -17 72 c-10 40 -15 75 -12 78 3 4
25 7 48 8 222 10 338 16 367 19 19 2 79 6 132 10 54 3 105 8 115 9 10 2 56 7
103 11 47 4 92 8 100 10 8 2 44 6 80 10 36 3 76 8 90 10 14 2 45 7 70 10 25 3
56 8 70 10 14 2 43 6 65 10 23 3 50 7 60 9 11 2 40 7 65 11 54 9 70 12 135 25
28 5 61 12 75 14 245 44 655 163 845 245 50 22 99 38 110 36 11 -1 63 -21 115
-43z m4 -481 c174 -70 500 -173 622 -195 16 -2 81 -16 144 -30 63 -13 129 -27
145 -29 17 -3 57 -10 90 -16 92 -16 213 -35 293 -45 97 -13 128 -17 152 -21
14 -2 54 -6 90 -10 36 -4 76 -8 90 -10 14 -2 63 -7 110 -10 47 -4 101 -8 120
-10 19 -2 85 -7 145 -11 61 -4 126 -8 145 -9 19 -2 52 -3 73 -4 l38 -1 -44
-82 c-232 -433 -538 -726 -972 -934 -169 -81 -418 -166 -554 -190 -14 -3 -45
-9 -69 -15 -23 -5 -59 -12 -78 -15 -20 -3 -45 -7 -56 -9 -11 -3 -46 -7 -77
-11 -31 -3 -63 -8 -72 -9 -141 -27 -733 -27 -924 0 -150 21 -199 29 -260 42
-38 8 -81 17 -95 19 -56 11 -151 38 -260 74 -489 162 -870 449 -1143 858 -59
89 -152 260 -145 268 2 2 44 6 94 9 147 9 356 24 404 30 19 2 69 7 110 10 41
4 86 8 100 10 14 2 50 7 80 10 30 3 66 8 80 10 14 2 49 7 79 10 30 4 62 8 72
10 9 2 39 7 66 11 26 3 55 8 63 9 8 2 35 6 60 10 56 9 67 11 160 30 41 8 87
17 103 19 15 3 35 7 45 10 9 3 28 7 42 10 152 27 549 148 705 215 50 21 94 39
99 40 5 1 63 -21 130 -48z"/>
</g>
</svg>
