<svg xmlns="http://www.w3.org/2000/svg" viewBox="0 0 1000 1000">
  <path fill="currentColor" d="M500 30c-25 60-85 150-85 230 0 95 38 145 85 145s85-50 85-145c0-80-60-170-85-230zm0 70c15 42 50 105 50 160 0 62-18 100-50 100s-50-38-50-100c0-55 35-118 50-160z"/>
  <path fill="currentColor" d="M420 395h160v120H420zm35 35v50h90v-50z"/>
  <path fill="currentColor" d="M100 500h800c25 0 42 18 33 45-10 24-30 38-58 38H125c-28 0-48-14-58-38-9-27 8-45 33-45zm38 35c-4 0-6 3-3 10 5 10 15 15 28 15h674c13 0 23-5 28-15 3-7 1-10-3-10H138z"/>
  <path fill="currentColor" d="M160 545c6 60 30 120 72 158 48 42 120 60 218 60s170-18 218-60c42-38 66-98 72-158H160zm38 35h604c-7 48-26 94-58 120-42 36-102 55-194 55s-152-19-194-55c-32-26-51-72-58-120z"/>
  <path fill="currentColor" d="M445 730h110v55H445zm35 22v12h40v-12z"/>
  <path fill="currentColor" d="M280 800h440c30 0 55 24 55 55v25c0 26-25 48-55 48H280c-30 0-55-22-55-48v-25c0-31 25-55 55-55zm0 35c-10 0-18 9-18 20v25c0 7 8 13 18 13h440c10 0 18-6 18-13v-25c0-11-8-20-18-20H280z"/>
  <path fill="currentColor" d="M240 905h520c24 0 45 20 45 45v15c0 24-21 35-45 35H240c-24 0-45-11-45-35v-15c0-25 21-45 45-45zm0 32c-6 0-10 4-10 13v15c0 2 4 3 10 3h520c6 0 10-1 10-3v-15c0-9-4-13-10-13H240z"/>
</svg>
