<svg xmlns="http://www.w3.org/2000/svg" viewBox="0 0 1024 1024">
<g transform="translate(0,1024) scale(0.1,-0.1)">
<path fill="currentColor" d="M711 9204 c-12 -15 -21 -31 -21 -37 0 -5 18 -62 39 -126 34 -100 63
-219 87 -351 11 -61 13 -412 3 -480 -17 -119 -19 -134 -35 -200 -48 -213 -151
-438 -305 -670 -218 -329 -308 -574 -314 -855 -14 -640 513 -1083 1106 -930
196 51 404 198 531 376 101 141 203 393 234 579 3 14 7 36 9 50 3 14 7 43 11
65 3 22 7 51 10 65 21 129 22 645 0 756 -2 12 -7 45 -11 75 -18 145 -75 364
-137 519 -184 464 -547 866 -1023 1134 -115 64 -152 70 -184 30z m377 -349
c190 -142 389 -355 517 -554 114 -176 234 -477 269 -676 3 -16 8 -41 11 -55 3
-14 8 -45 11 -70 3 -25 7 -56 10 -70 22 -128 21 -579 -2 -740 -16 -113 -37
-215 -63 -305 -95 -334 -308 -581 -577 -669 -80 -26 -92 -28 -214 -31 -181 -6
-321 41 -455 152 -144 119 -240 295 -270 498 -12 82 -6 237 11 315 3 14 8 36
11 50 10 57 66 209 111 299 25 53 84 151 129 219 157 233 226 364 295 561 31
91 74 259 84 331 3 25 8 54 11 65 10 38 11 401 2 475 -9 69 -38 228 -55 294
l-7 29 32 -19 c18 -10 81 -55 139 -99z M7797 5845 c-1 -1 -81 -5 -177 -9 -96
-3 -186 -8 -200 -10 -14 -3 -56 -7 -93 -11 -37 -3 -76 -8 -85 -10 -9 -1 -44
-6 -77 -9 -33 -4 -67 -9 -75 -11 -8 -2 -33 -6 -55 -10 -58 -8 -97 -15 -125
-20 -52 -11 -76 -15 -103 -20 -62 -12 -176 -37 -232 -51 -33 -9 -69 -18 -80
-20 -59 -11 -338 -92 -530 -154 -332 -107 -759 -229 -895 -255 -10 -2 -62 -13
-116 -25 -125 -27 -134 -29 -164 -35 -14 -3 -36 -7 -50 -10 -14 -3 -41 -8 -60
-11 -19 -3 -42 -7 -50 -9 -8 -2 -28 -6 -45 -9 -16 -3 -73 -12 -125 -21 -134
-23 -140 -24 -185 -30 -22 -4 -51 -8 -65 -10 -14 -2 -45 -7 -70 -10 -25 -3
-56 -8 -70 -10 -14 -2 -52 -7 -85 -10 -33 -4 -71 -8 -85 -10 -14 -2 -56 -7
-95 -10 -38 -4 -81 -8 -95 -10 -14 -2 -61 -7 -105 -11 -44 -4 -93 -8 -110 -10
-16 -1 -77 -5 -135 -9 -58 -4 -121 -8 -140 -10 -262 -26 -1293 -26 -1560 0
-19 2 -86 6 -149 10 -63 4 -122 8 -130 10 -9 2 -56 6 -106 9 -49 4 -101 9
-115 11 -14 2 -54 6 -90 10 -36 4 -76 8 -90 10 -14 2 -49 7 -79 10 -30 4 -63
9 -75 11 -12 2 -51 7 -87 10 -63 6 -67 5 -87 -21 -12 -15 -22 -38 -22 -51 0
-47 136 -366 272 -639 426 -852 974 -1577 1627 -2153 142 -125 405 -325 576
-437 335 -220 738 -416 1105 -538 99 -33 334 -100 390 -111 14 -3 90 -19 170
-35 80 -16 168 -32 195 -35 28 -4 57 -9 65 -11 8 -2 46 -6 83 -10 37 -3 77 -8
87 -10 133 -26 964 -26 1120 0 14 2 61 6 105 9 44 4 91 8 105 10 14 3 50 7 81
11 31 3 66 7 76 9 11 3 44 7 73 11 29 4 62 9 74 11 19 3 86 15 156 28 14 2 88
18 165 35 656 148 1216 405 1670 767 142 113 428 400 531 534 250 323 438 678
564 1065 35 108 90 315 105 395 3 14 7 34 9 45 2 11 7 40 11 65 4 25 9 54 11
65 2 11 7 47 10 80 3 33 8 71 10 85 6 32 6 219 0 246 -2 12 -7 39 -10 60 -38
239 -179 482 -395 686 -220 207 -575 388 -946 483 -74 19 -149 37 -167 40 -18
3 -60 10 -93 16 -33 6 -69 12 -81 14 -11 1 -52 6 -90 10 -38 4 -78 9 -88 11
-11 2 -83 6 -160 10 -78 3 -165 7 -194 8 -29 1 -53 2 -55 1z m383 -178 c14 -3
57 -8 95 -11 79 -7 90 -9 235 -36 103 -20 133 -26 168 -34 408 -104 752 -295
970 -541 192 -216 275 -431 268 -690 -5 -168 -40 -283 -132 -435 -226 -374
-747 -699 -1476 -920 -113 -34 -412 -112 -481 -126 -12 -2 -67 -13 -122 -24
-131 -26 -143 -29 -185 -35 -20 -3 -45 -7 -57 -9 -30 -6 -81 -14 -138 -22 -27
-3 -58 -8 -69 -10 -10 -2 -44 -6 -75 -10 -31 -3 -63 -8 -72 -9 -9 -2 -52 -6
-95 -10 -43 -4 -87 -9 -96 -10 -9 -2 -58 -7 -110 -10 -51 -4 -109 -8 -128 -10
-258 -26 -1088 -26 -1360 0 -19 2 -78 6 -130 10 -52 4 -101 8 -110 10 -8 1
-51 6 -94 10 -43 4 -86 8 -95 10 -9 1 -43 6 -76 9 -33 4 -71 9 -85 11 -33 5
-84 12 -140 20 -52 7 -263 42 -300 50 -14 3 -41 8 -60 11 -75 12 -363 77 -510
115 -825 214 -1527 544 -2050 963 -183 146 -377 337 -512 502 -57 71 -162 215
-179 246 -5 9 46 -23 114 -71 701 -503 1541 -883 2466 -1116 177 -45 468 -108
551 -120 24 -4 47 -8 50 -10 3 -1 25 -6 50 -9 25 -3 56 -8 70 -11 13 -2 42 -7
65 -10 22 -3 47 -8 55 -10 8 -2 38 -6 65 -10 28 -3 61 -8 75 -10 14 -2 46 -6
73 -9 26 -3 68 -9 95 -12 26 -3 58 -7 72 -9 14 -2 57 -7 95 -10 39 -4 81 -8
95 -10 14 -2 70 -7 125 -10 55 -4 116 -9 135 -10 246 -24 1072 -24 1310 0 19
2 79 6 133 10 53 3 107 8 120 10 12 2 53 6 90 10 37 3 77 8 89 10 11 3 46 7
77 10 31 3 72 8 91 10 19 2 64 7 100 10 36 4 76 8 90 10 14 2 49 7 79 10 30 4
61 8 70 10 9 1 41 6 71 10 30 4 64 9 75 11 10 2 35 6 55 9 35 5 61 10 110 20
14 2 41 7 60 10 19 4 53 10 75 15 22 5 54 11 70 14 17 3 86 19 155 36 1060
260 1418 659 1068 1192 -163 249 -435 425 -801 519 -125 32 -136 34 -355 64
-175 25 -604 25 -837 1 -16 -2 -61 -6 -98 -10 -37 -4 -76 -9 -85 -11 -9 -1
-39 -6 -67 -9 -27 -4 -66 -9 -85 -12 -36 -5 -175 -30 -220 -39 -14 -3 -40 -8
-59 -11 -19 -3 -45 -10 -58 -15 -13 -5 -23 -6 -23 -4 0 3 -37 -9 -82 -25 -258
-95 -801 -244 -1103 -304 -43 -9 -201 -38 -225 -42 -14 -3 -50 -9 -80 -14 -55
-9 -76 -13 -160 -25 -80 -12 -94 -14 -135 -19 -87 -11 -122 -16 -180 -21 -33
-4 -71 -8 -85 -10 -14 -2 -63 -7 -110 -10 -47 -4 -101 -8 -120 -10 -274 -27
-1080 -27 -1350 0 -19 2 -78 6 -130 10 -52 4 -101 8 -110 10 -8 1 -46 6 -85 9
-38 4 -81 9 -95 11 -14 2 -49 7 -79 10 -30 4 -61 8 -70 10 -9 1 -38 6 -66 9
-57 8 -277 43 -315 51 -14 3 -36 7 -50 10 -14 3 -36 7 -50 10 -14 3 -38 8 -55
10 -101 18 -152 29 -165 36 -9 5 1 7 25 4 257 -25 1193 -25 1560 0 28 2 95 6
150 10 55 3 118 8 140 10 22 2 69 7 105 10 66 6 110 11 190 19 25 3 72 8 105
11 33 4 71 8 85 10 14 2 52 7 85 11 33 3 67 8 76 9 9 2 40 6 69 10 29 4 61 8
71 10 9 2 39 7 66 11 26 3 57 8 68 10 40 8 131 24 165 29 19 3 105 20 190 36
85 17 164 33 175 35 15 3 314 74 415 99 90 22 423 122 615 185 290 95 620 184
790 214 17 3 41 8 55 11 14 3 40 8 59 11 18 3 43 8 55 10 60 12 136 24 181 29
28 4 57 8 65 10 8 2 47 7 85 11 39 3 79 8 89 10 11 2 65 6 120 10 56 4 103 8
105 10 6 5 563 -3 591 -9z m-230 -581 c197 -20 217 -23 353 -51 413 -86 724
-301 851 -589 78 -177 33 -330 -137 -464 -129 -102 -298 -185 -538 -265 -120
-40 -446 -127 -532 -143 -18 -3 -50 -9 -72 -14 -22 -5 -56 -11 -75 -15 -19 -3
-46 -8 -60 -10 -49 -10 -75 -15 -110 -20 -20 -3 -45 -7 -56 -9 -12 -2 -45 -7
-74 -11 -29 -4 -60 -8 -69 -10 -9 -1 -45 -6 -81 -10 -36 -4 -72 -8 -80 -10 -8
-1 -46 -6 -85 -9 -98 -9 -177 -18 -195 -21 -8 -2 -46 -6 -85 -10 -38 -4 -77
-9 -86 -10 -8 -2 -53 -6 -100 -10 -46 -4 -100 -8 -119 -10 -277 -27 -1149 -27
-1420 0 -19 2 -75 6 -125 10 -49 3 -101 8 -115 10 -14 2 -56 6 -93 10 -37 3
-76 8 -85 10 -9 1 -44 6 -77 9 -33 4 -71 9 -85 11 -14 2 -47 6 -73 10 -27 4
-56 8 -65 10 -10 1 -39 6 -67 9 -27 4 -61 9 -75 11 -53 11 -76 15 -115 20 -22
3 -47 8 -55 10 -8 2 -28 7 -45 10 -16 2 -41 7 -55 10 -14 3 -38 8 -55 11 -16
3 -70 14 -120 25 -49 11 -101 22 -115 25 -64 13 -314 78 -452 119 -774 224
-1519 579 -2110 1003 -77 54 -100 81 -55 62 22 -9 189 -55 237 -64 14 -3 72
-16 130 -30 58 -14 116 -27 130 -30 14 -2 57 -11 95 -19 39 -9 88 -18 109 -21
21 -4 48 -8 60 -11 12 -3 35 -7 51 -10 17 -3 55 -9 85 -15 30 -5 78 -12 105
-16 28 -3 52 -7 55 -9 3 -2 34 -6 70 -10 36 -4 73 -9 84 -11 10 -2 44 -6 75
-9 31 -4 67 -8 81 -10 14 -2 52 -7 85 -10 33 -3 76 -8 95 -10 19 -2 73 -7 120
-11 47 -3 101 -7 120 -9 241 -25 1030 -25 1290 0 19 2 73 6 120 10 47 3 96 8
110 10 14 2 59 7 100 10 41 4 82 8 90 10 8 1 46 6 83 10 37 3 76 8 85 10 29 5
103 16 197 30 23 3 52 7 65 10 14 3 50 9 80 15 60 10 99 17 145 26 17 3 93 19
170 36 77 16 147 31 155 33 134 27 558 148 800 229 91 30 201 62 245 70 78 15
99 19 179 31 21 4 47 8 58 10 11 3 46 7 77 11 31 3 64 8 73 9 9 2 48 7 85 10
37 4 75 9 85 10 9 2 72 7 140 10 67 4 124 8 125 9 6 5 404 -2 463 -8z m-6510
-1162 c25 -22 47 -41 50 -44 19 -19 163 -130 256 -197 603 -433 1422 -767
2349 -957 94 -19 188 -37 210 -40 22 -4 47 -8 55 -11 8 -2 37 -6 64 -10 27 -3
52 -8 55 -9 3 -2 31 -7 62 -10 31 -4 66 -8 76 -10 11 -3 44 -7 73 -11 29 -4
60 -8 69 -10 9 -1 45 -6 81 -10 36 -3 76 -8 90 -10 14 -2 54 -6 90 -10 36 -3
81 -8 100 -10 19 -2 78 -7 130 -11 52 -3 111 -7 130 -9 226 -23 1043 -23 1270
0 19 2 79 6 133 10 53 3 107 8 120 10 12 2 58 6 101 10 43 4 86 8 95 10 9 1
43 6 76 9 33 4 71 9 85 11 14 2 61 9 105 15 127 18 192 29 215 35 8 2 31 6 50
9 19 3 68 12 107 20 40 9 85 18 100 21 120 21 478 118 668 180 527 174 1018
455 1247 715 29 33 54 58 56 56 7 -8 -99 -307 -153 -431 -361 -830 -1015
-1420 -1950 -1762 -107 -39 -429 -136 -487 -147 -13 -2 -77 -15 -143 -29 -66
-14 -136 -28 -155 -32 -51 -8 -102 -17 -125 -21 -11 -2 -40 -6 -65 -9 -25 -3
-56 -8 -70 -10 -14 -3 -47 -7 -75 -10 -27 -3 -63 -8 -80 -10 -16 -2 -66 -7
-110 -10 -44 -4 -96 -9 -115 -11 -220 -22 -882 -22 -1020 0 -14 3 -56 7 -93
11 -37 3 -77 8 -89 10 -11 3 -46 7 -77 11 -31 3 -58 8 -61 9 -3 2 -26 6 -50
10 -25 4 -76 13 -115 22 -38 8 -81 17 -95 19 -14 3 -84 20 -155 39 -919 240
-1756 783 -2480 1610 -280 319 -614 796 -820 1170 l-39 70 105 -101 c57 -56
124 -119 149 -140z"/>
</g>
</svg>
