<svg xmlns="http://www.w3.org/2000/svg" viewBox="0 0 1024 1024">
<g transform="translate(0,1024) scale(0.1,-0.1)">
<path fill="currentColor" d="M5086 9509 c-22 -17 -34 -54 -60 -184 -13 -65 -95 -374 -141 -534
-130 -450 -301 -901 -454 -1200 -52 -102 -116 -229 -142 -281 -129 -261 -185
-571 -155 -860 55 -539 375 -1081 806 -1368 94 -62 153 -92 181 -92 36 0 184
89 294 177 372 298 647 804 692 1275 12 124 4 391 -12 417 -2 4 -6 22 -9 41
-3 19 -8 49 -11 65 -19 110 -88 277 -225 549 -206 410 -356 799 -499 1297 -42
147 -152 575 -165 643 -8 41 -18 55 -46 65 -24 8 -34 6 -54 -10z m159 -784
c147 -502 305 -912 478 -1240 141 -269 212 -439 231 -555 3 -19 8 -46 11 -60
21 -100 28 -347 13 -460 -42 -313 -186 -642 -391 -894 -110 -135 -284 -289
-414 -364 l-52 -31 -58 35 c-369 222 -669 651 -766 1094 -36 162 -38 179 -42
330 -6 290 53 508 221 820 154 287 280 587 413 986 85 254 179 572 226 764 2
8 4 17 5 20 1 3 19 -60 40 -140 20 -80 59 -217 85 -305z M5081 7493 c-11 -10
-22 -30 -25 -44 -9 -57 -79 -312 -117 -429 -58 -177 -108 -299 -188 -457 -92
-183 -113 -261 -113 -408 1 -255 133 -521 341 -684 75 -59 125 -83 156 -75 14
3 51 23 83 44 262 171 422 517 380 824 -12 91 -43 176 -119 326 -110 219 -189
440 -265 740 -38 151 -52 180 -89 180 -13 0 -32 -8 -44 -17z M4287 4744 c-1
-1 -200 -4 -442 -8 -242 -4 -478 -9 -525 -11 -47 -1 -157 -6 -245 -10 -88 -4
-182 -8 -210 -10 -27 -1 -106 -6 -175 -10 -69 -4 -141 -8 -160 -10 -19 -2 -82
-6 -140 -10 -58 -3 -116 -8 -130 -10 -14 -2 -63 -6 -110 -10 -47 -4 -96 -8
-110 -10 -14 -2 -54 -6 -90 -10 -36 -3 -81 -8 -100 -10 -61 -7 -190 -24 -230
-30 -14 -2 -50 -7 -80 -10 -30 -4 -64 -9 -75 -11 -10 -2 -35 -6 -55 -9 -20 -3
-47 -7 -60 -10 -13 -3 -42 -7 -65 -11 -22 -3 -59 -10 -83 -15 -23 -5 -59 -12
-80 -15 -20 -3 -40 -8 -43 -10 -3 -2 -21 -6 -40 -9 -19 -3 -42 -8 -51 -11 -9
-3 -25 -6 -35 -8 -120 -24 -343 -97 -459 -150 -150 -70 -256 -157 -304 -253
-33 -63 -34 -170 -4 -328 103 -554 363 -1087 749 -1535 58 -68 301 -308 371
-367 499 -421 1122 -725 1869 -912 66 -16 131 -32 145 -35 14 -2 68 -14 120
-24 52 -11 111 -23 130 -26 19 -3 49 -8 65 -11 72 -13 144 -25 190 -31 28 -3
58 -8 69 -10 10 -2 44 -6 75 -9 31 -4 66 -8 79 -10 13 -2 53 -7 90 -10 37 -3
81 -8 97 -10 17 -2 73 -7 125 -10 52 -4 111 -9 130 -11 210 -21 1034 -21 1250
1 19 2 79 6 133 10 54 3 106 8 115 10 9 1 55 6 102 10 47 4 92 8 100 10 8 2
44 6 80 10 36 4 72 9 81 10 9 2 40 6 69 10 29 4 62 9 74 11 11 2 36 6 56 9 38
6 55 9 135 25 28 5 61 12 75 14 72 13 281 61 400 92 354 94 682 218 999 379
406 206 682 405 981 704 275 276 455 523 624 854 180 357 311 800 311 1057 0
92 -26 149 -102 226 -174 175 -610 315 -1273 409 -63 9 -126 18 -140 20 -14 2
-52 7 -85 10 -33 4 -71 8 -85 10 -14 2 -54 6 -90 10 -36 3 -81 8 -100 10 -19
2 -71 7 -115 11 -44 4 -93 8 -110 10 -16 1 -73 5 -125 9 -52 3 -115 8 -140 10
-25 2 -92 7 -150 10 -58 4 -132 8 -165 10 -54 3 -261 12 -474 20 -344 14 -777
17 -1826 17 -264 0 -554 0 -643 1 -90 1 -164 1 -165 1z m883 -645 c412 -368
915 -622 1555 -784 94 -24 186 -46 205 -49 19 -3 46 -8 60 -11 34 -8 176 -33
225 -39 22 -4 51 -8 65 -11 29 -5 129 -16 265 -30 263 -27 770 -27 1030 0 81
8 151 16 175 20 14 2 42 6 63 9 62 10 108 17 131 22 11 2 32 6 46 9 327 63
651 183 830 309 35 25 66 43 68 42 7 -8 -62 -227 -113 -358 -335 -857 -1011
-1515 -1976 -1923 -205 -87 -666 -235 -838 -270 -9 -2 -81 -17 -161 -33 -150
-32 -164 -35 -240 -47 -25 -4 -54 -9 -65 -11 -11 -2 -40 -7 -65 -10 -25 -3
-53 -8 -64 -10 -10 -2 -44 -6 -75 -9 -31 -4 -67 -8 -81 -10 -14 -2 -52 -7 -85
-10 -33 -3 -76 -8 -95 -10 -19 -2 -71 -7 -115 -11 -44 -3 -96 -8 -115 -9 -264
-26 -1095 -26 -1360 -1 -19 2 -71 7 -115 11 -44 3 -93 8 -110 9 -16 2 -64 7
-105 11 -41 4 -83 9 -94 11 -10 2 -44 6 -75 10 -31 3 -65 8 -76 10 -10 2 -37
6 -60 9 -75 11 -175 28 -235 40 -50 10 -76 15 -105 21 -16 3 -50 10 -75 15
-25 6 -56 13 -70 15 -126 24 -426 111 -625 181 -1087 384 -1868 1089 -2230
2016 -51 132 -120 355 -112 364 4 3 20 -6 38 -21 88 -74 296 -175 484 -236
192 -61 501 -125 700 -145 33 -4 71 -8 84 -10 162 -26 768 -27 1036 -1 88 9
168 18 183 21 9 1 42 6 73 9 31 4 66 8 77 11 11 2 42 7 69 11 26 5 50 9 53 9
3 1 25 5 50 9 25 5 54 10 65 12 11 2 32 6 46 9 94 17 381 96 529 144 488 161
902 392 1225 685 28 25 52 46 55 46 3 0 25 -18 50 -41z M5062 3268 c-17 -9
-30 -36 -57 -120 -48 -152 -83 -310 -109 -497 l-11 -83 -60 97 c-100 162 -252
337 -367 421 -62 46 -84 49 -115 18 -23 -23 -24 -28 -18 -112 5 -85 8 -108 20
-202 9 -65 19 -129 30 -180 3 -14 7 -36 10 -50 2 -14 13 -58 23 -97 10 -40 17
-73 15 -73 -2 0 -42 30 -90 66 -148 111 -288 186 -448 240 -89 29 -107 33
-129 22 -29 -13 -41 -45 -31 -80 24 -77 155 -314 262 -472 40 -60 71 -111 69
-114 -3 -3 -18 0 -33 6 -54 22 -206 58 -283 68 -25 3 -56 7 -70 10 -36 6 -270
6 -305 -1 -40 -8 -68 -41 -60 -74 9 -42 210 -221 400 -357 266 -191 592 -348
877 -423 108 -29 132 -34 207 -47 18 -3 43 -8 55 -10 127 -25 356 -25 482 0
12 2 39 7 60 10 22 4 46 8 54 11 8 2 26 6 40 9 14 2 72 16 130 31 577 147
1028 421 1271 772 59 86 66 112 37 143 -19 20 -28 22 -82 16 -142 -14 -398
-73 -564 -130 -42 -14 -70 -20 -65 -13 4 7 25 38 46 70 97 144 194 371 228
535 15 71 8 91 -35 107 -22 8 -37 3 -89 -24 -99 -54 -304 -192 -414 -280 -57
-44 -103 -75 -103 -68 0 6 4 27 10 46 5 19 12 50 15 70 3 20 7 46 9 56 16 84
24 353 13 410 -3 11 -8 44 -12 74 -8 59 -32 91 -67 91 -32 0 -36 -4 -113 -100
-118 -146 -315 -458 -307 -485 2 -7 0 -7 -6 0 -6 6 -13 33 -17 60 -10 82 -42
214 -74 308 -34 99 -126 289 -150 311 -24 21 -53 26 -79 14z"/>
</g>
</svg>
