<svg xmlns="http://www.w3.org/2000/svg" data-name="Layer 2" viewBox="0 0 64 64"><path fill="currentColor" d="M2.379,52.025a1,1,0,0,0-1.2.75l-1.154,5a.955.955,0,0,0-.006.127.951.951,0,0,0-.008.16A.969.969,0,0,0,.06,58.3a.932.932,0,0,0,.021.1c.006.013.016.023.022.036a.983.983,0,0,0,.062.1.979.979,0,0,0,.129.167.975.975,0,0,0,.086.075.98.98,0,0,0,.19.119c.021.01.037.028.059.037l10,4A1.007,1.007,0,0,0,11,63h6a1,1,0,0,0,.406-.086l9-4c.016-.007.027-.021.043-.029a.987.987,0,0,0,.189-.127c.024-.02.05-.036.071-.058a.994.994,0,0,0,.185-.253h0a1,1,0,0,0,.1-.356,505.425,505.425,0,0,0-.016-.316L24.257,46H32v4a1,1,0,0,0,2,0V46h4v4a1,1,0,0,0,2,0V45a1,1,0,0,0-1-1H33V41h5a1,1,0,0,0,0-2H33V37a1,1,0,0,0-1-1H23a1,1,0,0,0,0,2h8v6H23.5a.961.961,0,0,0-.23.046A.985.985,0,0,0,23,44V41a1,1,0,0,0-2,0v3H17V38h2a1,1,0,0,0,0-2H16a1,1,0,0,0-1,1v7H7V41a1,1,0,0,0-2,0v3H4a1,1,0,0,0-.975.775l-.923,4a1,1,0,1,0,1.949.449L4.8,46H22.2l2.344,10.156-4.1-2.05a1,1,0,0,0-.895,1.789l4.1,2.052L16.788,61h-5.6l-7.58-3.032,4.781-2.049a1,1,0,1,0-.787-1.838L2.418,56.3l.711-3.08A1,1,0,0,0,2.379,52.025Z"/><path fill="currentColor" d="M19,52a1,1,0,0,0,0-2H9a1,1,0,0,0,0,2h4v4H11a1,1,0,0,0,0,2h6a1,1,0,0,0,0-2H15V52Z"/><path fill="currentColor" d="M61,56a1,1,0,0,0-1,1v6a1,1,0,0,0,2,0V57A1,1,0,0,0,61,56Z"/><path fill="currentColor" d="M33,53a1,1,0,0,0-1,1v4a1,1,0,0,0,2,0V54A1,1,0,0,0,33,53Z"/><path fill="currentColor" d="M51,59a1,1,0,0,0-1,1v3a1,1,0,0,0,2,0V60A1,1,0,0,0,51,59Z"/><path fill="currentColor" d="M45,41a1,1,0,0,0-1,1V57H40V54a1,1,0,0,0-2,0v4a1,1,0,0,0,1,1h2v4a1,1,0,0,0,2,0V59h2a1,1,0,0,0,1-1V46h4V56a1,1,0,0,0,2,0V46h3a5.006,5.006,0,0,1,5,5v2a1,1,0,0,0,2,0V51a7.008,7.008,0,0,0-7-7H46V42A1,1,0,0,0,45,41Z"/><path fill="currentColor" d="M16,15a1,1,0,0,0,2,0V14a1,1,0,0,0-2,0Z"/><path fill="currentColor" d="M63,30H57.2L46,25.333V25h9a1,1,0,0,0,1-1V16a1,1,0,0,0-2,0v7H47.512a7.042,7.042,0,0,0,.008-5.7,5.277,5.277,0,0,0-1.541-1.858A8.193,8.193,0,0,0,42,9.426V8a1,1,0,0,0-.293-.707L37,2.586V1a1,1,0,0,0-2,0V2.586L30.293,7.293A1,1,0,0,0,30,8V9.426a8.193,8.193,0,0,0-3.979,6.018A5.277,5.277,0,0,0,24.48,17.3a7.042,7.042,0,0,0,.008,5.7H18V19a1,1,0,0,0-2,0v5a1,1,0,0,0,1,1h8.867l-.051.41L14.8,30H10V26.906a4.768,4.768,0,0,0,4-4.573c0-2.245-3.5-7-4.2-7.935a1.036,1.036,0,0,0-1.6,0c-.7.931-4.2,5.689-4.2,7.935a4.768,4.768,0,0,0,4,4.573V35a1,1,0,0,0,2,0V32h5a1,1,0,0,0,.385-.077L25.53,27.7l-.523,4.18A1,1,0,0,0,26,33h8a1,1,0,0,0,1-1V28a1,1,0,0,0-2,0v3H27.133l.793-6.345,2.954-1.477a8.378,8.378,0,0,0,4.9,1.589,10.1,10.1,0,0,0,5.275-1.624L44,24.618V34H40V31a1,1,0,0,0-2,0v4a1,1,0,0,0,1,1h5v2a1,1,0,0,0,2,0V27.5l10.615,4.423A1,1,0,0,0,57,32h6a1,1,0,0,0,0-2ZM6,22.333c0-.977,1.564-3.58,3-5.63,1.436,2.05,3,4.653,3,5.63A2.851,2.851,0,0,1,9,25,2.851,2.851,0,0,1,6,22.333ZM32,11h8v5.323l-4,1.6-4-1.6Zm0-2.586,4-4,4,4V9H32ZM30,21.382,26.764,23h-.121c-1.972-4.453.512-5.95.8-6.105A1,1,0,0,0,28,16a5.534,5.534,0,0,1,2-4.063v9.445Zm2,.156V18.477l3.629,1.452a1,1,0,0,0,.742,0L40,18.477v2.959C35.829,23.964,32.9,22.234,32,21.538Zm10-.156V11.937A5.534,5.534,0,0,1,44,16a1,1,0,0,0,.553.895c.122.061,2.841,1.5.8,6.105h-.12Z"/><path fill="currentColor" d="M50,0a1,1,0,0,0-1,1V7a1,1,0,0,0,1,1h4v4a1,1,0,0,0,2,0V8h4a1,1,0,0,0,1-1V1a1,1,0,0,0-2,0V6H56V1a1,1,0,0,0-2,0V6H51V1A1,1,0,0,0,50,0Z"/><path fill="currentColor" d="M60,17V27a1,1,0,0,0,2,0V17a1,1,0,0,0-2,0Z"/><path fill="currentColor" d="M17,11a1,1,0,0,0,1-1V1a1,1,0,0,0-2,0v9A1,1,0,0,0,17,11Z"/><path fill="currentColor" d="M38,28a1,1,0,0,0,0-2H37a1,1,0,0,0,0,2Z"/><path fill="currentColor" d="M42,28a1,1,0,0,0,0-2H41a1,1,0,0,0,0,2Z"/></svg>