<svg xmlns="http://www.w3.org/2000/svg" viewBox="0 0 1024 1024">
<g transform="translate(0,1024) scale(0.1,-0.1)">
<path fill="currentColor" d="M2619 10236 c-2 -2 -29 -7 -59 -10 -291 -35 -601 -235 -768 -495 -20
-31 -172 -326 -337 -656 -166 -330 -321 -631 -345 -670 -137 -222 -244 -358
-447 -565 l-83 -86 82 -73 c366 -326 579 -540 816 -824 471 -561 844 -1203
1107 -1903 78 -208 210 -635 200 -646 -19 -19 -323 -1103 -359 -1278 -3 -14
-7 -34 -10 -45 -2 -11 -16 -67 -30 -125 -14 -58 -28 -120 -31 -139 -3 -19 -7
-37 -9 -40 -2 -3 -7 -26 -10 -51 -3 -25 -8 -56 -11 -70 -23 -113 -24 -455 -1
-576 2 -10 7 -39 11 -64 29 -189 115 -439 212 -620 102 -189 202 -320 387
-507 l130 -133 328 0 c180 0 328 4 328 8 0 5 -42 94 -94 198 -107 215 -130
268 -180 413 -57 163 -95 323 -130 551 -8 51 -20 253 -20 345 0 85 13 305 18
314 2 3 6 29 10 56 7 56 12 87 26 160 6 28 11 55 12 60 0 6 5 24 10 40 5 17
11 45 14 64 3 19 10 45 15 58 5 13 7 23 4 23 -2 0 1 15 6 33 5 17 12 48 15 67
3 19 8 38 10 41 2 4 6 24 10 45 29 186 191 714 294 964 28 69 59 144 68 168 9
23 19 42 23 42 8 0 81 -158 125 -271 64 -165 137 -451 158 -619 3 -25 8 -54
10 -65 2 -11 7 -40 10 -65 3 -25 8 -54 10 -65 2 -11 7 -40 10 -65 3 -25 8 -54
10 -65 2 -11 7 -40 10 -65 3 -25 8 -54 10 -65 2 -11 7 -40 10 -65 3 -25 8 -54
10 -65 2 -11 7 -40 10 -65 3 -25 8 -54 10 -65 2 -11 7 -40 10 -65 3 -25 8 -54
10 -65 2 -11 7 -40 10 -65 3 -25 8 -54 10 -65 2 -11 7 -40 10 -65 3 -25 8 -54
10 -65 2 -11 7 -40 10 -65 3 -25 8 -54 10 -65 2 -11 7 -40 10 -65 3 -25 8 -54
10 -65 2 -11 7 -40 10 -65 3 -25 8 -54 10 -65 2 -11 7 -40 10 -65 3 -25 8 -54
10 -65 2 -11 7 -40 10 -65 3 -25 8 -54 10 -65 2 -11 7 -40 10 -65 3 -25 8 -54
10 -65 2 -11 7 -40 10 -65 3 -25 8 -54 10 -65 2 -11 7 -40 10 -65 3 -25 8 -54
10 -65 2 -11 7 -40 10 -65 3 -25 8 -54 10 -65 2 -11 7 -40 10 -65 3 -25 8 -54
10 -65 2 -11 7 -40 10 -65 3 -25 8 -54 10 -65 2 -11 7 -40 10 -65 3 -25 8 -54
10 -65 2 -11 7 -40 10 -65 3 -25 8 -54 10 -65 2 -11 7 -40 10 -65 3 -25 8 -54
10 -65 2 -11 7 -40 10 -65 3 -25 8 -56 10 -70 3 -14 7 -41 10 -60 20 -129 78
-211 189 -268 l52 -27 265 -2 c302 -2 328 3 414 78 75 66 107 135 122 259 3
30 8 57 9 60 2 3 7 33 10 65 4 33 9 62 10 65 2 3 7 33 10 65 4 33 9 62 10 65
2 3 7 33 10 65 4 33 9 62 10 65 2 3 7 33 10 65 4 33 9 62 10 65 2 3 7 33 10
65 4 33 9 62 10 65 2 3 7 33 10 65 4 33 9 62 10 65 2 3 7 33 10 65 4 33 9 62
10 65 2 3 7 33 10 65 4 33 9 62 10 65 2 3 7 33 10 65 4 33 9 62 10 65 2 3 7
33 10 65 4 33 9 62 10 65 2 3 7 33 10 65 4 33 9 62 10 65 2 3 7 33 10 65 4 33
9 62 10 65 2 3 7 33 10 65 4 33 9 62 10 65 2 3 7 33 10 65 4 33 9 62 10 65 2
3 7 33 10 65 4 33 9 62 10 65 2 3 7 33 10 65 4 33 9 62 10 65 2 3 7 33 10 65
4 33 9 62 10 65 2 3 7 33 10 65 4 33 9 62 10 65 2 3 7 33 10 65 4 33 9 62 10
65 2 3 7 33 10 65 4 33 9 62 10 65 2 3 7 33 10 65 4 33 9 62 10 65 2 3 7 33
10 65 4 33 9 62 10 65 2 3 6 30 10 60 3 30 8 62 10 70 2 8 7 35 10 60 13 93
55 284 89 398 43 147 171 461 187 462 16 0 175 -411 246 -635 61 -195 145
-534 218 -880 58 -277 70 -385 70 -630 0 -147 -8 -293 -19 -352 -2 -10 -7 -38
-10 -63 -8 -56 -15 -100 -21 -120 -2 -8 -7 -28 -9 -45 -10 -56 -64 -239 -107
-359 -23 -66 -91 -218 -151 -339 -59 -120 -108 -220 -108 -223 0 -2 150 -4
334 -4 l334 0 114 119 c203 210 314 361 418 568 149 296 218 590 217 928 0
164 -9 255 -43 420 -18 92 -89 391 -128 545 -2 8 -14 53 -26 100 -44 172 -123
452 -201 714 l-81 268 37 130 c264 929 714 1761 1349 2498 137 159 409 432
624 627 105 96 192 177 192 180 0 3 -60 67 -133 142 -141 145 -275 314 -372
471 -32 52 -196 370 -365 705 -168 336 -325 639 -349 674 -57 83 -178 209
-259 270 -199 149 -442 224 -702 216 -186 -5 -288 -29 -449 -105 -137 -66
-212 -121 -353 -258 -64 -63 -121 -111 -126 -108 -5 3 -23 8 -40 11 -18 3 -64
12 -102 20 -38 8 -84 17 -102 20 -18 3 -60 10 -93 16 -33 6 -71 12 -85 14 -14
3 -50 7 -80 10 -30 4 -62 8 -70 10 -8 2 -46 7 -85 10 -38 4 -81 8 -95 11 -163
26 -1176 26 -1341 -1 -13 -2 -55 -6 -92 -10 -37 -3 -76 -8 -85 -10 -9 -1 -44
-6 -77 -9 -33 -4 -67 -9 -75 -11 -8 -2 -32 -6 -52 -9 -89 -14 -118 -19 -208
-38 -52 -10 -106 -21 -120 -24 -14 -3 -31 -7 -38 -9 -6 -2 -58 41 -115 96
-130 129 -236 208 -351 264 -84 41 -213 84 -296 100 -41 7 -304 17 -311 11z
m261 -342 c126 -24 245 -77 340 -152 25 -20 114 -105 199 -189 84 -84 158
-153 163 -153 5 0 44 9 86 19 43 11 92 23 111 26 19 3 37 7 40 9 3 2 22 7 41
10 19 3 46 8 60 11 53 12 210 39 290 50 25 3 56 8 70 10 14 2 54 7 90 10 36 4
72 9 82 10 138 27 1141 27 1309 0 13 -2 53 -6 89 -10 63 -6 81 -8 165 -20 56
-8 228 -37 295 -50 52 -10 69 -14 203 -46 l137 -33 183 180 c195 193 252 235
385 284 106 39 147 45 282 44 259 -1 472 -108 628 -315 24 -31 123 -217 222
-413 203 -405 201 -381 15 -247 -127 91 -161 119 -310 256 -151 140 -209 175
-342 210 -75 20 -221 20 -298 0 -86 -22 -194 -79 -258 -135 -79 -72 -138 -166
-203 -330 -31 -80 -61 -149 -65 -153 -3 -5 -37 42 -74 105 -38 62 -70 115 -71
117 -3 3 -205 -114 -273 -158 -10 -7 21 -66 142 -267 168 -281 212 -365 246
-463 49 -143 66 -250 65 -416 0 -139 -6 -186 -39 -313 -25 -96 -92 -262 -105
-262 -4 0 -12 11 -18 25 -6 14 -16 25 -22 25 -6 0 -73 -32 -150 -70 l-140 -70
205 -410 c254 -507 270 -551 270 -745 0 -129 -13 -201 -57 -315 -47 -119 -101
-200 -226 -331 -251 -266 -406 -485 -557 -787 -121 -244 -229 -557 -270 -787
-17 -96 -35 -206 -40 -245 -3 -25 -8 -52 -10 -60 -2 -8 -7 -40 -10 -70 -4 -30
-8 -57 -10 -60 -1 -3 -6 -32 -10 -65 -3 -32 -8 -62 -10 -65 -1 -3 -6 -32 -10
-65 -3 -32 -8 -62 -10 -65 -1 -3 -6 -32 -10 -65 -3 -32 -8 -62 -10 -65 -1 -3
-6 -32 -10 -65 -3 -32 -8 -62 -10 -65 -1 -3 -6 -32 -10 -65 -3 -32 -8 -62 -10
-65 -1 -3 -6 -32 -10 -65 -3 -32 -8 -62 -10 -65 -1 -3 -6 -32 -10 -65 -3 -32
-8 -62 -10 -65 -1 -3 -6 -32 -10 -65 -3 -32 -8 -62 -10 -65 -1 -3 -6 -32 -10
-65 -3 -32 -8 -62 -10 -65 -1 -3 -6 -32 -10 -65 -3 -32 -8 -62 -10 -65 -1 -3
-6 -32 -10 -65 -3 -32 -8 -62 -10 -65 -1 -3 -6 -32 -10 -65 -3 -32 -8 -62 -10
-65 -1 -3 -6 -32 -10 -65 -3 -32 -8 -62 -10 -65 -1 -3 -6 -32 -10 -65 -3 -32
-8 -62 -10 -65 -1 -3 -6 -32 -10 -65 -3 -32 -8 -62 -10 -65 -1 -3 -6 -32 -10
-65 -3 -32 -8 -62 -10 -65 -1 -3 -6 -32 -10 -65 -3 -32 -8 -62 -10 -65 -1 -3
-6 -32 -10 -65 -3 -32 -8 -62 -10 -65 -1 -3 -6 -32 -10 -65 -3 -32 -8 -62 -10
-65 -1 -3 -6 -32 -10 -65 -3 -32 -8 -62 -10 -65 -1 -3 -6 -32 -10 -65 -3 -32
-8 -62 -10 -65 -1 -3 -6 -29 -9 -59 -4 -30 -9 -65 -12 -78 l-6 -23 -188 0
-188 0 -7 53 c-4 28 -8 61 -10 72 -2 11 -6 38 -10 61 -5 39 -9 61 -20 129 -2
17 -7 48 -10 70 -3 22 -8 49 -10 61 -2 11 -7 45 -11 75 -3 30 -8 56 -9 59 -2
3 -7 33 -10 65 -4 33 -9 62 -10 65 -2 3 -7 33 -10 65 -4 33 -9 62 -10 65 -2 3
-7 33 -10 65 -4 33 -9 62 -10 65 -2 3 -7 33 -10 65 -4 33 -9 62 -10 65 -2 3
-7 33 -10 65 -4 33 -9 62 -10 65 -2 3 -7 33 -10 65 -4 33 -9 62 -10 65 -2 3
-7 33 -10 65 -4 33 -9 62 -10 65 -2 3 -7 33 -10 65 -4 33 -9 62 -10 65 -2 3
-7 33 -10 65 -4 33 -9 62 -10 65 -2 3 -7 33 -10 65 -4 33 -9 62 -10 65 -2 3
-7 33 -10 65 -4 33 -9 62 -10 65 -2 3 -7 33 -10 65 -4 33 -9 62 -10 65 -2 3
-7 33 -10 65 -4 33 -9 62 -10 65 -2 3 -7 33 -10 65 -4 33 -9 62 -10 65 -2 3
-7 33 -10 65 -4 33 -9 62 -10 65 -2 3 -7 33 -10 65 -4 33 -9 62 -10 65 -2 3
-7 33 -10 65 -4 33 -9 62 -10 65 -2 3 -7 33 -10 65 -4 33 -9 62 -10 65 -2 3
-6 30 -10 60 -3 30 -8 62 -10 70 -2 8 -7 35 -10 60 -6 46 -21 135 -30 180 -3
14 -8 40 -11 59 -10 62 -64 260 -95 353 -150 447 -389 842 -719 1191 -51 53
-107 116 -124 140 -149 197 -204 461 -146 706 19 81 53 156 236 523 118 236
214 431 214 433 0 6 -277 145 -289 145 -5 0 -14 -14 -21 -31 l-13 -31 -13 24
c-24 41 -83 201 -99 265 -51 202 -51 407 -1 607 39 150 87 250 263 544 89 151
163 278 163 282 0 5 -61 46 -137 91 -157 95 -130 101 -221 -53 -31 -54 -60
-98 -63 -98 -3 0 -27 55 -53 123 -27 67 -62 149 -78 181 -113 231 -374 368
-633 334 -142 -19 -263 -84 -397 -214 -117 -114 -478 -393 -478 -369 0 16 339
680 376 736 53 81 159 182 242 233 70 42 197 91 263 101 24 4 46 8 47 10 9 9
188 1 252 -11z m-92 -843 c93 -47 108 -73 236 -393 106 -266 107 -268 91 -299
-31 -60 -83 -205 -103 -289 -103 -422 -31 -851 202 -1224 l55 -87 -103 -207
c-102 -204 -158 -342 -170 -416 -4 -21 -8 -41 -10 -45 -7 -11 -19 -150 -20
-216 0 -59 10 -170 18 -210 25 -119 61 -225 104 -312 l32 -62 -70 -195 c-39
-108 -70 -200 -70 -206 0 -27 -18 -5 -34 43 -222 632 -555 1266 -939 1787 -62
85 -243 317 -257 330 -3 3 -30 34 -60 70 -143 169 -369 405 -555 578 l-78 73
19 24 c145 178 262 343 325 455 20 36 41 50 178 122 328 171 560 333 804 560
55 51 117 103 138 116 71 44 185 45 267 3z m4852 26 c0 2 21 -8 48 -21 51 -27
73 -45 172 -140 205 -199 493 -395 830 -567 l104 -54 71 -112 c72 -116 194
-283 263 -362 l39 -45 -232 -230 c-294 -292 -468 -492 -695 -796 -376 -505
-698 -1101 -914 -1690 -31 -85 -60 -163 -64 -173 -6 -14 -25 31 -71 160 -34
98 -68 192 -75 208 -12 27 -10 36 19 95 79 159 119 329 119 510 2 251 -28 356
-191 683 -56 114 -103 212 -103 218 0 5 18 37 40 69 103 151 200 393 234 585
22 120 28 351 13 477 -16 135 -59 282 -138 474 -11 29 -6 47 97 304 87 217
117 282 148 317 63 72 153 106 244 92 23 -3 42 -4 42 -2z m-4119 -4281 c45
-54 85 -108 90 -120 8 -17 -5 -54 -69 -196 -200 -441 -309 -780 -442 -1375
-68 -306 -75 -337 -86 -404 -3 -18 -7 -42 -9 -51 -2 -10 -6 -40 -10 -67 -4
-26 -9 -59 -11 -73 -22 -136 -21 -555 1 -691 2 -13 6 -46 10 -74 24 -194 114
-534 186 -703 l20 -46 -23 19 c-180 154 -365 443 -452 705 -86 259 -113 577
-71 815 14 79 30 152 62 285 18 80 36 156 39 170 2 14 7 32 10 40 3 8 8 26 10
40 7 38 110 426 155 585 124 431 293 957 411 1274 l21 54 39 -44 c21 -24 75
-88 119 -143z m3442 -96 c115 -324 278 -853 376 -1212 111 -409 223 -884 238
-1008 15 -126 9 -392 -12 -500 -20 -102 -31 -148 -62 -245 -78 -245 -217 -475
-407 -672 -32 -35 -61 -61 -63 -60 -2 2 15 53 38 113 57 151 105 330 144 534
3 13 7 42 10 65 4 22 8 51 10 65 13 88 20 210 20 380 0 252 -13 385 -60 625
-6 31 -112 504 -121 540 -3 11 -7 31 -10 45 -10 55 -86 322 -125 445 -76 241
-185 516 -299 759 l-41 88 70 92 c38 50 98 122 132 160 l62 68 23 -63 c12 -35
47 -134 77 -219z M3626 7603 c1 -87 2 -161 3 -166 0 -4 74 -6 164 -5 l162 3 1
163 0 162 -165 0 -166 0 1 -157z M6270 7595 l0 -165 163 2 162 3 3 163 2 162
-165 0 -165 0 0 -165z M4969 6766 c-2 -2 -26 -7 -54 -10 -83 -11 -224 -47
-328 -83 -99 -34 -207 -79 -207 -86 0 -5 139 -279 144 -284 3 -3 51 13 108 35
181 70 303 96 458 97 74 0 158 -3 185 -7 79 -12 232 -56 328 -94 58 -23 93
-32 99 -26 5 5 40 71 77 145 l67 136 -60 27 c-114 51 -284 103 -461 139 -35 8
-349 17 -356 11z M4979 6106 c-2 -2 -31 -7 -64 -11 -148 -17 -545 -146 -533
-173 20 -49 141 -282 146 -282 4 0 43 14 87 31 90 35 217 75 267 83 18 3 44 8
58 12 42 10 262 14 310 4 25 -4 59 -10 75 -13 76 -12 278 -77 345 -112 l28
-14 74 149 75 149 -60 26 c-117 53 -312 111 -467 140 -40 8 -334 17 -341 11z
M4989 5446 c-2 -2 -26 -6 -54 -10 -83 -10 -116 -17 -211 -42 -90 -23 -322
-108 -337 -123 -4 -4 24 -72 63 -150 57 -115 74 -142 88 -138 9 3 69 24 132
47 337 122 594 116 937 -20 l93 -37 74 148 73 148 -86 36 c-47 20 -137 52
-198 70 -110 34 -131 39 -202 51 -18 3 -43 8 -55 11 -27 6 -311 15 -317 9z"/>
</g>
</svg>
