<svg xmlns="http://www.w3.org/2000/svg" viewBox="0 0 1024 1024">
<g transform="translate(0,1024) scale(0.1,-0.1)">
<path fill="currentColor" d="M1609 10236 c-2 -2 -30 -6 -62 -10 -169 -17 -384 -91 -548 -187 -426
-249 -783 -723 -922 -1229 -25 -90 -30 -110 -43 -189 -3 -18 -8 -43 -10 -55
-13 -67 -19 -174 -19 -356 0 -202 5 -288 26 -405 5 -33 12 -70 14 -83 2 -12 6
-30 9 -40 3 -9 7 -28 10 -42 2 -14 16 -65 30 -114 65 -219 162 -425 297 -626
43 -64 352 -462 399 -513 4 -5 95 57 201 137 107 79 195 143 196 142 1 -1 -45
-167 -102 -369 -58 -202 -105 -372 -105 -378 0 -17 642 -910 699 -971 113
-122 285 -229 448 -278 l71 -21 18 -72 c73 -305 245 -644 451 -890 40 -47 243
-249 277 -275 l29 -22 0 -1080 c0 -594 2 -1078 5 -1075 3 2 150 403 327 890
177 487 324 878 326 868 7 -30 2 -1265 -5 -1313 -3 -25 -8 -57 -11 -72 -12
-66 -62 -179 -123 -282 -96 -162 -138 -267 -173 -438 -16 -77 -20 -568 -5
-632 24 -100 82 -172 178 -223 l53 -28 237 -3 c218 -2 241 0 292 18 l54 21 62
-21 c55 -19 84 -21 277 -20 189 1 223 4 269 21 l52 20 63 -21 c58 -20 80 -21
288 -18 220 3 228 4 281 29 96 46 158 119 183 217 16 63 15 307 -1 366 -7 22
-10 41 -9 42 1 1 18 5 37 8 19 3 114 32 211 64 l177 58 32 -33 c18 -18 58 -45
89 -60 56 -28 57 -28 291 -30 225 -3 237 -2 291 20 102 42 174 118 201 211 15
50 19 504 6 603 -23 169 -75 312 -179 488 -59 98 -102 193 -115 250 -3 11 -7
29 -9 40 -3 11 -8 40 -11 65 -9 61 -11 671 -2 662 3 -4 151 -405 328 -892 177
-487 323 -886 324 -888 2 -1 3 484 3 1078 l0 1081 122 116 c312 296 523 652
631 1065 l23 87 71 21 c162 49 334 156 447 278 58 62 699 954 699 972 0 6 -47
175 -105 377 -58 202 -103 368 -102 369 2 2 90 -62 196 -142 107 -80 197 -141
201 -137 51 58 348 438 388 496 212 308 351 683 389 1057 10 96 10 455 0 540
-72 627 -426 1202 -942 1532 -124 80 -343 171 -462 193 -15 2 -39 7 -53 10
-67 14 -147 20 -275 20 -124 0 -259 -10 -276 -21 -3 -2 -21 -6 -40 -9 -72 -12
-129 -32 -621 -216 l-508 -190 -62 52 c-243 203 -558 338 -873 377 -79 9
-1944 9 -2015 -1 -100 -13 -124 -18 -218 -42 -244 -64 -422 -159 -677 -359
l-30 -23 -475 179 c-426 161 -612 222 -735 243 -46 7 -349 17 -356 11z m321
-340 c14 -4 37 -8 52 -11 55 -10 165 -49 559 -197 l407 -152 -37 -56 c-21 -30
-50 -78 -65 -106 l-27 -51 -222 89 c-352 141 -440 162 -667 163 -293 0 -536
-77 -765 -244 -159 -116 -235 -206 -465 -551 l-177 -265 137 -92 138 -91 186
279 c206 308 275 388 411 477 157 103 315 152 506 157 176 5 258 -15 554 -131
132 -53 240 -96 241 -97 1 -1 -6 -42 -17 -92 -10 -49 -22 -124 -25 -165 -4
-41 -8 -82 -9 -90 -3 -20 -55 -18 -175 5 -13 3 -40 7 -60 10 -20 3 -47 7 -60
10 -13 3 -40 7 -60 10 -20 3 -47 7 -60 10 -13 3 -40 7 -60 10 -20 3 -47 7 -60
10 -90 17 -99 17 -105 -7 -10 -46 -45 -266 -45 -285 0 -17 14 -22 118 -38 64
-10 122 -20 127 -21 6 -1 28 -5 50 -8 23 -4 52 -8 65 -11 13 -3 40 -7 60 -10
20 -3 47 -7 60 -10 13 -3 40 -7 60 -10 20 -3 45 -7 57 -9 11 -3 38 -7 59 -10
45 -8 43 -7 49 -37 3 -13 7 -36 10 -50 l6 -26 -271 -54 c-150 -30 -276 -57
-282 -60 -10 -7 37 -285 53 -310 4 -8 31 -6 85 5 44 8 90 18 104 20 14 2 48 9
75 15 28 6 61 13 75 15 14 3 78 16 142 29 l117 24 30 -64 c17 -35 31 -67 30
-71 0 -4 -97 -79 -215 -167 -118 -88 -221 -167 -229 -175 -12 -13 -2 -31 76
-135 50 -66 94 -124 99 -129 5 -4 106 65 230 159 122 92 223 165 225 163 19
-22 151 -233 167 -267 84 -185 103 -267 113 -503 3 -64 8 -134 11 -155 50
-324 193 -605 419 -822 66 -63 84 -86 74 -92 -27 -18 -1035 -577 -1084 -602
-195 -98 -428 -94 -628 10 -125 66 -182 131 -476 543 -149 209 -274 386 -277
393 -3 8 94 359 214 780 121 422 217 767 215 767 -3 0 -209 -153 -458 -340
-249 -187 -455 -340 -459 -340 -10 0 -153 185 -209 271 -166 256 -272 550
-304 844 -10 89 -10 433 -1 505 67 496 316 926 705 1215 154 114 362 202 520
220 32 4 60 9 62 11 7 6 271 -3 301 -10z m4180 1 c14 -3 36 -8 50 -11 447 -82
834 -398 1007 -821 41 -101 78 -244 89 -341 14 -124 9 -315 -11 -415 -3 -13
-7 -36 -10 -50 -7 -37 -45 -160 -57 -182 -9 -17 -13 -15 -44 21 -105 123 -307
185 -474 146 -219 -51 -382 -253 -381 -473 1 -111 17 -174 67 -259 70 -118
209 -217 331 -235 12 -2 25 -6 28 -9 3 -3 -8 -46 -25 -95 -50 -151 -65 -242
-75 -463 -9 -179 -42 -313 -112 -455 -86 -173 -183 -282 -393 -440 l-136 -103
-83 -333 c-74 -297 -130 -547 -144 -634 -3 -16 -12 -70 -20 -120 -9 -49 -18
-108 -21 -130 -4 -22 -8 -51 -11 -65 -4 -23 -7 -53 -21 -170 -3 -25 -7 -58 -9
-75 -2 -16 -6 -64 -10 -105 -3 -41 -8 -97 -10 -125 -22 -257 -22 -846 -1
-1055 2 -19 7 -73 11 -120 3 -47 8 -96 10 -110 2 -14 6 -52 10 -85 3 -33 8
-71 10 -85 2 -14 6 -47 10 -75 3 -27 8 -63 11 -80 3 -16 7 -43 10 -60 2 -16 9
-55 14 -85 5 -30 12 -68 14 -85 3 -16 15 -75 26 -130 11 -55 23 -111 25 -125
3 -14 41 -182 84 -375 45 -203 75 -356 71 -365 -9 -17 -341 -130 -382 -130
-21 0 -39 14 -78 60 -220 265 -443 642 -584 987 -71 175 -170 484 -192 603 -3
14 -10 45 -15 70 -11 48 -12 52 -24 115 -10 58 -12 71 -25 160 -6 44 -13 91
-15 105 -2 14 -7 49 -10 79 -4 30 -8 61 -10 70 -1 9 -6 45 -10 81 -4 36 -9 72
-10 81 -2 9 -6 40 -10 70 -3 30 -8 65 -10 79 -2 14 -7 49 -10 79 -4 30 -8 61
-10 70 -1 9 -6 45 -10 81 -4 36 -9 72 -10 81 -2 9 -6 40 -10 70 -3 30 -8 65
-10 79 -2 14 -7 49 -10 79 -4 30 -8 61 -10 70 -1 9 -6 45 -10 81 -4 36 -9 72
-10 81 -2 9 -6 40 -10 70 -3 30 -8 65 -10 79 -2 14 -7 49 -10 79 -4 30 -8 61
-10 70 -1 9 -6 45 -10 81 -4 36 -9 72 -10 81 -2 9 -6 40 -10 70 -3 30 -8 65
-10 79 -2 14 -7 49 -10 79 -4 30 -8 61 -10 70 -1 9 -6 45 -10 81 -4 36 -9 72
-10 81 -2 9 -6 40 -10 70 -3 30 -8 65 -10 79 -2 14 -7 49 -10 79 -4 30 -8 61
-10 70 -1 9 -6 41 -9 71 -4 30 -8 64 -10 75 -1 12 -54 59 -137 122 -217 165
-313 270 -397 439 -77 152 -109 281 -117 473 -9 211 -30 328 -82 474 -14 38
-23 71 -20 73 2 2 30 11 62 19 180 47 322 200 360 386 7 33 7 147 0 184 -42
225 -237 391 -470 400 -137 5 -262 -43 -363 -140 -30 -30 -57 -54 -58 -52 -1
1 -13 40 -27 87 -22 74 -31 109 -44 170 -17 84 -22 306 -10 420 21 194 97 398
213 572 215 323 558 539 929 584 28 4 52 8 54 10 8 7 1904 -2 1931 -9z m2575
-2 c209 -42 353 -105 516 -226 91 -68 243 -215 315 -304 160 -201 282 -448
342 -695 21 -83 26 -112 42 -235 9 -66 5 -450 -5 -505 -3 -19 -11 -62 -16 -95
-43 -252 -140 -497 -286 -724 -53 -81 -198 -271 -208 -271 -3 0 -209 153 -458
340 -250 187 -456 340 -459 340 -3 0 93 -345 214 -767 120 -421 217 -772 214
-780 -3 -7 -128 -184 -277 -393 -202 -283 -289 -396 -340 -444 -199 -184 -499
-232 -744 -117 -50 23 -1060 581 -1104 610 -10 6 8 29 74 92 226 217 369 498
419 822 3 21 8 91 11 155 9 199 25 290 76 418 34 87 65 143 144 261 l62 93
219 -165 c120 -90 222 -165 225 -165 4 0 39 44 80 98 40 53 83 111 96 129 l24
32 -228 171 c-125 94 -229 175 -231 179 -1 5 11 37 28 72 l30 64 295 -59 c162
-33 298 -56 301 -53 3 3 21 76 38 161 l32 155 -46 10 c-25 5 -152 31 -283 57
l-238 47 6 26 c3 14 7 37 10 50 2 13 6 25 7 27 2 1 60 12 128 24 164 28 168
28 215 36 22 3 45 7 50 8 6 1 76 13 158 26 134 22 147 26 147 44 0 31 -46 295
-52 301 -3 3 -142 -17 -308 -45 -167 -28 -309 -49 -315 -46 -7 2 -15 37 -18
80 -4 41 -16 117 -27 168 -11 51 -20 97 -20 103 0 11 458 199 510 209 14 3 36
8 50 11 69 16 114 20 215 20 123 -1 157 -5 265 -35 156 -44 318 -142 433 -264
32 -33 142 -186 244 -338 l186 -277 134 90 c88 59 133 95 129 104 -11 30 -347
525 -393 580 -122 146 -268 262 -426 338 -190 93 -349 130 -562 131 -251 2
-323 -16 -724 -177 l-185 -75 -64 105 c-35 58 -62 106 -60 108 6 6 813 307
873 326 32 10 75 21 95 24 19 4 55 10 80 15 48 8 296 5 345 -5z m-5138 -1988
c65 -34 101 -123 77 -192 -57 -167 -297 -145 -318 30 -8 66 37 144 99 170 38
17 102 13 142 -8z m3297 2 c115 -56 121 -220 11 -284 -113 -67 -249 12 -247
143 3 117 130 193 236 141z m-454 -2636 l159 -88 47 -113 c26 -62 45 -114 43
-116 -36 -31 -577 -382 -585 -379 -8 3 -9 18 -2 51 4 26 11 58 13 72 3 14 7
36 10 50 3 14 8 39 11 55 11 64 47 217 86 370 22 88 41 166 41 173 0 6 4 12 9
12 5 0 80 -39 168 -87z m-2385 15 c4 -35 9 -70 10 -78 1 -8 6 -40 10 -70 3
-30 8 -66 10 -80 2 -14 7 -50 10 -80 3 -30 8 -62 10 -70 2 -8 7 -44 10 -80 4
-36 9 -72 10 -81 2 -9 6 -39 10 -68 l7 -52 -244 162 c-134 89 -245 163 -247
165 -2 2 17 54 43 116 l47 113 147 82 c81 45 150 82 154 82 3 1 9 -27 13 -61z
m-803 -460 c-34 -104 -116 -414 -126 -478 -3 -19 -8 -46 -11 -60 -15 -74 -33
-176 -41 -235 -3 -27 -8 -58 -10 -69 -2 -10 -6 -51 -10 -90 -3 -39 -8 -72 -9
-74 -6 -7 -138 156 -196 242 -80 119 -180 325 -223 456 -39 121 -48 106 84
138 127 30 177 52 385 167 105 57 190 105 190 105 1 0 -14 -46 -33 -102z
m4160 -94 c76 -38 196 -80 260 -90 24 -3 50 -7 58 -9 19 -3 16 -17 -21 -130
-40 -121 -143 -329 -218 -440 -67 -100 -177 -235 -191 -235 -6 0 -10 15 -11
33 0 17 -2 39 -3 47 -2 8 -6 39 -10 68 -10 87 -27 190 -41 262 -10 49 -15 75
-21 105 -20 109 -81 340 -134 504 -11 35 -20 67 -20 71 0 5 64 -28 143 -72 78
-44 172 -95 209 -114z m-3624 -266 c122 -82 222 -151 222 -154 0 -3 -26 -43
-59 -87 -223 -310 -400 -633 -536 -977 -31 -80 -59 -147 -60 -149 -5 -5 3 525
9 579 2 25 7 77 11 115 11 123 45 346 76 490 28 134 76 322 86 338 5 9 -18 23
251 -155z m3047 46 c29 -116 26 -102 59 -254 13 -63 27 -135 30 -160 3 -25 8
-54 10 -66 2 -12 7 -45 11 -75 3 -30 8 -65 10 -79 2 -14 7 -52 9 -85 3 -33 8
-89 12 -125 6 -70 14 -570 9 -570 -2 0 -15 33 -30 73 -142 377 -356 773 -577
1066 -26 35 -48 68 -48 72 0 14 464 319 471 311 4 -4 19 -53 34 -108z m-719
-476 c41 -57 105 -150 142 -208 l67 -104 1 -686 c1 -377 4 -707 8 -735 23
-165 81 -327 171 -475 57 -92 79 -134 89 -165 5 -19 1 -20 -107 -20 -100 -1
-120 -4 -180 -29 -38 -15 -70 -26 -71 -24 -3 2 -80 349 -102 453 -6 30 -53
295 -58 330 -6 43 -17 116 -21 145 -2 14 -6 50 -10 80 -3 30 -8 71 -10 90 -2
19 -7 69 -10 110 -4 41 -8 95 -10 120 -16 188 -23 685 -11 850 3 36 8 109 11
162 4 53 8 105 10 115 2 10 4 35 4 56 1 20 3 37 6 37 3 0 39 -46 81 -102z
m-1881 -123 c3 -36 8 -74 10 -83 1 -9 6 -42 10 -72 3 -30 8 -66 10 -80 2 -14
7 -50 10 -80 3 -30 8 -62 10 -70 2 -8 6 -42 10 -75 7 -66 13 -117 20 -155 2
-14 7 -52 11 -85 3 -33 7 -67 9 -75 1 -8 6 -40 10 -70 3 -30 8 -66 10 -80 2
-14 7 -45 10 -70 83 -607 324 -1232 682 -1769 57 -85 102 -155 101 -157 -2 -1
-19 -5 -38 -8 -76 -13 -97 -18 -137 -36 -23 -10 -63 -32 -87 -49 l-45 -31 -57
36 c-95 61 -154 78 -274 78 -122 1 -176 -14 -270 -75 -33 -21 -63 -39 -66 -39
-3 0 -14 9 -25 19 -34 32 -140 79 -207 92 -34 6 -94 9 -132 7 -68 -5 -70 -5
-64 16 10 32 32 73 89 166 90 147 148 309 171 475 4 28 7 507 8 1065 1 562 5
1022 10 1030 5 8 50 77 100 153 101 153 97 152 111 22z m2329 -2615 c23 -11
52 -36 65 -56 22 -32 25 -46 25 -142 l1 -107 -165 0 -165 0 1 101 c2 107 12
141 56 180 54 50 114 57 182 24z m-2657 -651 c15 -6 39 -20 51 -32 44 -41 54
-74 56 -181 l1 -101 -166 -3 -167 -2 2 109 c2 97 5 114 27 145 44 65 125 92
196 65z m666 -3 c75 -32 103 -92 102 -222 l0 -89 -166 -3 -165 -2 1 102 c3
132 16 165 85 207 40 24 96 27 143 7z m660 0 c43 -18 83 -63 94 -106 5 -19 9
-73 8 -120 l0 -85 -165 -3 -166 -2 2 102 c2 132 15 165 84 207 40 24 96 27
143 7z M5008 6935 c-2 -1 -34 -5 -73 -9 -109 -10 -142 -16 -265 -47 -196 -51
-390 -138 -557 -250 l-74 -50 18 -28 c87 -136 159 -241 165 -241 4 0 45 24 90
54 157 102 359 186 500 210 18 3 44 8 58 11 95 19 279 25 405 12 230 -23 450
-102 653 -233 45 -30 86 -54 90 -54 6 0 78 105 165 241 l18 28 -77 52 c-208
140 -495 252 -724 283 -19 3 -55 8 -80 12 -43 6 -307 13 -312 9z M5027 6274
c-1 -1 -31 -4 -67 -8 -126 -12 -283 -48 -383 -87 -85 -33 -187 -81 -187 -89 0
-7 137 -280 144 -287 2 -2 26 7 53 20 62 32 208 83 257 91 21 4 41 8 45 10 12
8 152 20 226 20 111 0 202 -11 308 -38 82 -21 130 -39 273 -102 10 -5 162 282
153 290 -11 10 -112 56 -174 79 -121 45 -242 75 -380 93 -46 6 -262 13 -268 8z
M5055 5612 c-109 -11 -231 -70 -317 -151 l-63 -60 114 -115 115 -115 43 40
c57 52 105 72 173 71 68 -1 112 -19 171 -70 l46 -41 111 112 c62 62 112 116
112 120 0 13 -83 88 -135 122 -104 67 -246 101 -370 87z M5011 4944 c-98 -20
-199 -73 -272 -142 l-64 -61 114 -115 115 -115 37 34 c114 103 244 103 354 2
l40 -37 113 114 c130 129 128 119 35 196 -134 111 -310 157 -472 124z"/>
</g>
</svg>
