<svg viewBox="0 0 53 53" xmlns="http://www.w3.org/2000/svg"><g><path fill="currentColor" d="m37.4936523 38.1367188c-.3725586-.3198242-.9296875-.3139648-1.3041992.0009766-.1176758.0996094-1.2021484.9262695-3.1567383-.3808594-2.0058594-1.3417969-4.0566406-1.4575195-6.0932617-.3452148-.1602783.0875854-.3046265.1843262-.4395142.2861328-.1348267-.1018066-.2791748-.1985474-.4393921-.2861328-2.0351563-1.1123047-4.0854492-.996582-6.09375.3452148-1.9404297 1.2993164-3.0249023.4897461-3.1542969.3828125-.3676758-.3266602-.9169922-.3378906-1.2983398-.0253906-.3852539.315918-.4790039.8681641-.2197266 1.293457.8432617 1.3828125 3.847168 3.4267578 7.0722656 3.5053711.0546875.0014648.1088867.0019531.1635742.0019531 1.5724487 0 3.0397339-.5604858 3.9696045-1.4111938.9296265.850708 2.3966064 1.4111938 3.9693604 1.4111938.0541992 0 .1088867-.0004883.1635742-.0019531 3.2250977-.0786133 6.2290039-2.1225586 7.0722656-3.5053711.2548829-.4179688.1601564-.9516602-.2114257-1.2709961zm-15.078125 2.7773437c-1.0585938-.0258789-2.0527344-.3168945-2.8955078-.7016602.4848633-.1679688 1.0058594-.4233398 1.5585938-.7929688.9394531-.628418 2.2456055-1.2241211 4.0229492-.2529297.1313477.0717773.4326172.2558594.390625.4125977-.1274414.4750977-1.3369141 1.3730469-3.0766602 1.334961zm8.1684571 0c-1.7314453.0454102-2.9487305-.859375-3.0766602-1.3349609-.0419922-.15625.2597656-.3408203.3911133-.4125977.6772461-.3701172 1.2861328-.5126953 1.8320313-.5126953.887207 0 1.6088867.3764648 2.1899414.7651367.5532227.3701172 1.0742188.6254883 1.559082.793457-.8427734.3847657-1.8369141.6757813-2.8955078.7016602z"/><circle cx="21.68" cy="30.741" r="1.005"/><circle cx="31.319" cy="30.741" r="1.005"/><path fill="currentColor" d="m44.6542969 17.9692383c0-8.3487301-7.3294945-15.4692383-18.1542969-15.4692383-9.8623714 0-18.1542969 5.8262758-18.1542969 15.4692383 0 3.0532227 1.3457031 12.737793 3.109375 15.6328125.0136108.0222778.0330811.0390625.0482178.0599976-.5530128 9.1915054 6.3986664 16.8379516 14.9967041 16.8379516 8.2875977 0 15.0302734-7.0981445 15.0302734-15.8227539 0-.3375244-.022522-.6708374-.0424194-1.0045776.0182495-.0245361.0409546-.0446167.0570679-.071106 1.7636719-2.8955078 3.109375-12.5795898 3.109375-15.6323242zm-2 0c0 2.4750977-.8828125 8.7099609-1.9453125 12.3544922-.0147705-.036377-.03302-.0753174-.0478516-.1117554-2.0229607-4.9667034-5.1266518-10.9646912-8.7574463-16.524292 2.0433578-1.5276613 3.9272079-2.8436632 6.8185425-4.6780396 1.9069824 1.9302979 3.9320679 4.9291993 3.9320679 8.9595948zm-12.3546143-3.0573731c1.2770996 1.9614868 2.5147705 4.0228271 3.6884155 6.1349487-3.4292603-1.2198486-6.8214722-1.414917-10.1446533-.5796509 1.9730835-1.8989257 4.1025391-3.7311401 6.4562378-5.5552978zm-3.7996826-10.4118652c.5599976 0 1.1102905.0236816 1.6531982.0632935-9.0725098 5.2495117-15.0908203 13.1749878-17.5463257 16.8374023-.1655273-1.3990479-.2611694-2.6184692-.2611694-3.4314575 0-8.4368067 7.3999233-13.4692383 16.1542969-13.4692383zm-15.4628906 19.9450073c.0211792-.0291748.0471191-.0531616.0654297-.085144.074585-.130249 7.5380249-12.9593506 20.3300171-19.2850342 2.1594238.5194702 4.1027832 1.3783569 5.7114868 2.5623779-5.5110073 3.5288515-10.898613 7.6030531-15.4907227 12.1582031-3.5644531 3.5112305-6.5820313 7.1831055-9.1694336 11.1538086-.5488281-1.6800537-1.06073-4.1241455-1.4467773-6.5042114zm15.4628906 24.0549927c-7.1850586 0-13.0302734-6.2006836-13.0302734-13.8227539 0-.6069946.0400391-1.1820068.1081543-1.7244263 2.0160522-3.2047119 4.2857666-6.1860352 6.8847046-9.0355835 4.9002075-2.6121216 9.8216553-2.6328735 15.029541-.0655518 1.3837662 2.6778374 2.6089401 5.2102776 3.8444214 8.449646.128418.7677002.1937256 1.5661011.1937256 2.3759155-.0000001 7.6220704-5.8452149 13.822754-13.0302735 13.822754z"/></g></svg>