<svg viewBox="0 0 64 64" xmlns="http://www.w3.org/2000/svg" data-name="Family Gathering"><path fill="currentColor" d="m47 39c2.08 0 3.99-.98 4.87-2.5.28-.48.11-1.09-.36-1.37-.48-.28-1.09-.11-1.37.36-.52.9-1.78 1.5-3.13 1.5s-2.61-.6-3.13-1.5c-.28-.48-.89-.64-1.37-.36s-.64.89-.36 1.37c.88 1.52 2.79 2.5 4.87 2.5z"/><path fill="currentColor" d="m22.87 32.5c.28-.48.11-1.09-.36-1.37-.48-.28-1.09-.11-1.37.36-.52.9-1.78 1.5-3.13 1.5s-2.61-.6-3.13-1.5c-.28-.48-.89-.64-1.37-.36s-.64.89-.36 1.37c.88 1.52 2.79 2.5 4.87 2.5s3.99-.98 4.87-2.5z"/><path fill="currentColor" d="m60 47.64v-9.02c.61-.7 1-1.61 1-2.62s-.39-1.91-1-2.62v-1.19c.5-.44.85-1.03.96-1.7.14-.88-.1-1.77-.67-2.44-.09-.1-.19-.18-.29-.27v-3.79c0-3.52-1.38-6.81-3.89-9.28-2.51-2.46-5.83-3.77-9.35-3.72-7.04.12-12.76 6.13-12.76 13.39v3.41c-.5.44-.85 1.03-.96 1.7-.14.88.1 1.77.67 2.44.09.1.19.18.29.27v1.17c-.61.7-1 1.61-1 2.62s.39 1.91 1 2.62v9.02c-.21.19-.4.39-.58.6-.72-1.54-2.07-2.75-3.77-3.24l-3.22-.92-2.87-1.91c-.17-.11-.36-.17-.55-.17v-4.21c3.28-1.68 5.61-4.96 5.96-8.8h.04c1.65 0 3-1.35 3-3 0-1.3-.84-2.4-2-2.82v-1.18c1.04 0 1.99-.53 2.54-1.41.87-1.39.46-3.24-.93-4.12.84-.68 1.39-1.68 1.39-2.8 0-.2-.02-.42-.06-.61-.27-1.51-1.47-2.65-2.94-2.96v-1.1c0-.9-.37-1.78-1-2.42-.81-.81-2.06-1.14-3.15-.91-1.18-1.07-2.73-1.68-4.35-1.68h-7c-1.61 0-3.16.6-4.35 1.68-1.09-.23-2.34.09-3.15.91-.64.64-1 1.52-1 2.42v1.1c-1.48.31-2.68 1.45-2.94 2.93-.04.22-.06.43-.06.64 0 1.12.54 2.13 1.39 2.8-1.38.88-1.8 2.73-.93 4.12.57.91 1.54 1.4 2.54 1.4v1.19c-1.16.41-2 1.51-2 2.82 0 1.65 1.35 3 3 3h.04c.35 3.84 2.68 7.12 5.96 8.8v4.21c-.19 0-.39.05-.55.17l-2.87 1.91-3.22.92c-2.56.73-4.35 3.1-4.35 5.77v6.23c0 1.65 1.35 3 3 3h54c1.65 0 3-1.35 3-3v-4.9c0-1.75-.77-3.35-2-4.46zm-18.02-23.19c2.28 1.9 6.91 4.55 15.02 4.55h1c.29 0 .57.13.76.35.19.23.27.52.22.82-.08.46-.56.83-1.09.83h-.89c-.55 0-1 .45-1 1 0 4.96-4.04 9-9 9s-9-4.04-9-9c0-.55-.45-1-1-1h-1c-.29 0-.57-.13-.76-.35-.19-.23-.27-.52-.22-.82.08-.46.56-.83 1.09-.83h.89c2.61 0 4.75-2 4.98-4.55zm15.8 9.71c.72.3 1.22 1.02 1.22 1.84 0 1.1-.9 2-2 2-.24 0-.48-.05-.7-.13.71-1.12 1.22-2.37 1.48-3.71zm-22.78 1.84c0-.83.5-1.54 1.22-1.84.27 1.34.78 2.59 1.48 3.71-.22.08-.46.13-.7.13-1.1 0-2-.9-2-2zm2 4c.69 0 1.35-.19 1.94-.53.87.94 1.91 1.73 3.06 2.32v3.39l-5.17 1.04c-.29.06-.56.15-.83.24v-6.6c.32.08.65.14 1 .14zm6.2 6.98c.47-.09.8-.5.8-.98v-3.42c.95.27 1.96.42 3 .42s2.05-.15 3-.42v3.42c0 .48.34.89.8.98l1.23.25c-1.08 1.69-2.98 2.77-5.04 2.77s-3.95-1.08-5.04-2.77l1.23-.25zm8.8-1.8v-3.39c1.15-.59 2.18-1.38 3.06-2.32.59.33 1.25.53 1.94.53.35 0 .68-.06 1-.14v6.6c-.27-.09-.54-.18-.82-.24zm-16-18.18v-2.6c0-6.18 4.84-11.29 10.8-11.39 2.98-.03 5.79 1.06 7.91 3.15 2.12 2.08 3.29 4.87 3.29 7.85v3h-1c-11.24 0-15.13-5.5-15.17-5.55-.19-.28-.5-.45-.83-.45-.1 0-.19.01-.29.04-.42.13-.71.52-.71.96v2c0 1.65-1.35 3-3 3h-1zm-9.97-6.62c.71.27 1.37.59 1.97.93v1.51c-1.05-.37-1.82-1.31-1.97-2.45zm4.95-6.95c.02.08.02.17.02.24 0 .83-.68 1.53-1.58 1.65-2.46-1.12-5.36-1.86-8.43-2.16 0-.03 0-.05 0-.08l7.88-1.05s.09-.01.18-.01c.92-.05 1.77.56 1.92 1.42zm-13.98-.4s0-.02 0-.03c0-1.2.6-2 1-2s1 .8 1 2v.03c-.33-.01-.66-.03-1-.03s-.67.02-1 .03zm10.58-5.03c.27.26.42.63.42 1v1.12l-7.36.98c-.05-.12-.09-.24-.14-.35l5.4-3s.01 0 .02 0h.02c.03-.01.06-.02.08-.03.46-.23 1.16-.12 1.57.29zm-6.08-2c.81 0 1.59.24 2.28.65l-4.71 2.62c-.33-.16-.69-.26-1.07-.26s-.74.1-1.07.26l-4.71-2.61c.69-.41 1.46-.65 2.28-.65h7zm-13.08 2c.41-.41 1.1-.52 1.57-.29.04.02.09.04.13.06l5.39 2.99c-.05.11-.09.23-.14.35l-7.36-.98v-1.12c0-.37.15-.74.42-1zm-3.39 5.41c.15-.84.98-1.45 1.98-1.4.04 0 .08 0 .12.01l7.89 1.05s0 .05 0 .08c-3.07.3-5.97 1.04-8.43 2.16-.89-.11-1.58-.82-1.58-1.65 0-.08 0-.16.02-.26zm.13 6.12c-.29-.47-.15-1.08.32-1.38 3.2-2 7.77-3.15 12.53-3.15s9.33 1.15 12.53 3.15c.47.29.61.91.32 1.38-.28.45-.92.6-1.38.32-1.17-.73-2.55-1.33-4.06-1.79-.03-.01-.06-.02-.09-.03-2.22-.66-4.72-1.03-7.31-1.03s-5.1.37-7.32 1.03c-.03 0-.06.01-.09.03-1.52.46-2.9 1.06-4.06 1.79-.47.29-1.09.15-1.38-.32zm2.85 1.78c.6-.35 1.26-.66 1.97-.93-.15 1.14-.92 2.08-1.97 2.45v-1.51zm1 6.69c0-.55-.45-1-1-1h-1c-.55 0-1-.45-1-1s.45-1 1-1c2.76 0 5-2.24 5-5v-.26c1.84-.48 3.89-.74 6-.74s4.16.26 6 .74v.26c0 2.76 2.24 5 5 5 .55 0 1 .45 1 1s-.45 1-1 1h-1c-.55 0-1 .45-1 1 0 4.96-4.04 9-9 9s-9-4.04-9-9zm9 11c1.04 0 2.05-.15 3-.42v4.07c-.92.21-2.06.35-3 .35s-2.08-.14-3-.35v-4.07c.95.27 1.96.42 3 .42zm-4.93 5.15c1.4.58 3.61.85 4.93.85s3.53-.27 4.93-.85l1.38.92c-1.75 1.23-3.98 1.93-6.31 1.93s-4.56-.7-6.31-1.93zm-9.07 12.85v-6.23c0-1.78 1.19-3.36 2.9-3.85l2.84-.81c2.18 1.84 5.16 2.89 8.25 2.89s6.07-1.05 8.25-2.89l2.84.81c1.71.49 2.9 2.07 2.9 3.85v7.23h-26.99c-.55 0-1-.45-1-1zm56 0c0 .55-.45 1-1 1h-25v-5.9c0-1.9 1.35-3.55 3.22-3.92l2.69-.54c1.35 2.63 4.09 4.36 7.1 4.36s5.75-1.73 7.1-4.36l2.69.54c1.86.37 3.21 2.01 3.21 3.92v4.9z"/></svg>