<svg viewBox="0 0 480.002 480.002" xmlns="http://www.w3.org/2000/svg"><g><path fill="currentColor" d="m90.258 349.364c3.729-2.37 4.831-7.314 2.461-11.043-23.232-36.559-22.854-82.337.988-119.47 14.114-21.983 30.819-58.64 30.246-108.431-.616-54.7 42.6-94.42 92.018-94.42h48c49.42 0 92.634 39.722 92.018 94.42-.573 49.792 16.131 86.448 30.246 108.431 24.387 37.984 24.255 84.546-.344 121.517-3.568 5.363.367 12.433 6.653 12.433 2.587 0 5.127-1.253 6.668-3.569 28.172-42.342 28.359-95.613.486-139.025-12.933-20.143-28.238-53.773-27.71-99.603.729-63.315-49.454-110.604-108.017-110.604h-48c-58.554 0-108.746 47.271-108.017 110.604.528 45.829-14.778 79.46-27.71 99.603-27.247 42.438-27.641 94.817-1.028 136.696 2.369 3.729 7.313 4.831 11.042 2.461z"/><path fill="currentColor" d="m360.183 360.057-43.109-14.864c-6.775-2.336-12.993-6.275-17.982-11.391-3.084-3.163-8.15-3.227-11.313-.142s-3.227 8.15-.142 11.313c2.94 3.015 6.211 5.705 9.708 8.064-22.074 39.914-65.215 63.522-107.324 57.912-39.389-5.248-69.535 24.673-65.889 61.833.435 4.425 4.375 7.611 8.743 7.18 4.397-.431 7.612-4.346 7.181-8.743-2.644-26.934 18.707-48.294 47.853-44.41 49.443 6.587 98.956-21.299 123.737-66.571 2.134.746-8.696-2.991 31.772 10.962-6.636 18.521-15.386 35.905-26.256 52.145-2.458 3.672-1.474 8.64 2.198 11.098 3.656 2.446 8.63 1.49 11.098-2.198 11.14-16.641 20.671-35.128 28.03-55.672 16.587 7.329 27.485 23.827 27.485 42.2v53.227c0 4.418 3.582 8 8 8s8-3.582 8-8v-53.227c-.002-26.467-16.79-50.05-41.79-58.716z"/><path fill="currentColor" d="m125.074 375.149c.059-.02 43.154-14.884 43.226-14.909 6.106 11.197 13.663 21.382 22.573 30.321 3.114 3.125 8.18 3.143 11.313.019 3.129-3.119 3.138-8.184.019-11.313-7.707-7.732-14.265-16.536-19.599-26.212 13.804-9.34 23.391-23.947 26.372-40.486 68.602 20.763 137.993-30.862 137.993-102.443v-59.35c0-4.417-3.579-7.997-7.995-8-35.917-.021-68.914-15.564-92.912-43.766-3.193-3.752-8.993-3.751-12.186 0-23.999 28.201-56.996 43.745-92.912 43.766-4.417.003-7.995 3.583-7.995 8v59.35c0 24.476 8.044 47.511 23.263 66.617 2.752 3.455 7.785 4.026 11.242 1.273 3.456-2.753 4.026-7.786 1.273-11.242-12.938-16.244-19.778-35.833-19.778-56.649v-51.582c34.625-1.996 66.419-16.825 91-42.424 24.581 25.599 56.375 40.428 91 42.424v51.582c0 64.775-66.161 108.874-125.87 84.082-5.222-2.168-11.098 1.599-11.131 7.622-.109 19.561-12.607 36.988-31.101 43.364l-43.11 14.864c-25 8.666-41.788 32.249-41.788 58.716v53.227c0 4.418 3.582 8 8 8s8-3.582 8-8v-53.227c0-19.992 12.82-37.32 31.103-43.624z"/><path fill="currentColor" d="m248.932 161.538c4.411-4.412 4.93-11.514 1.207-16.52l-3.748-5.041c-3.195-4.297-9.643-4.3-12.84 0l-3.748 5.041c-3.723 5.006-3.204 12.108 1.208 16.521 4.951 4.951 12.967 4.953 17.921-.001z"/><path fill="currentColor" d="m214.971 177c-4.418 0-8 3.582-8 8v14c0 4.418 3.582 8 8 8s8-3.582 8-8v-14c0-4.418-3.582-8-8-8z"/><path fill="currentColor" d="m264.971 207c4.418 0 8-3.582 8-8v-14c0-4.418-3.582-8-8-8s-8 3.582-8 8v14c0 4.418 3.582 8 8 8z"/><path fill="currentColor" d="m215.222 245.435c-3.125 3.124-3.125 8.189 0 11.314 13.677 13.678 35.818 13.68 49.497 0 3.125-3.124 3.125-8.189 0-11.314-3.124-3.124-8.189-3.124-11.313 0-7.426 7.425-19.443 7.426-26.87 0-3.124-3.124-8.189-3.124-11.314 0z"/></g></svg>