<svg viewBox="0 0 60 60" xmlns="http://www.w3.org/2000/svg"><path fill="currentColor" d="m52.12 5.02-12.83 2.89c-.36.08-.64.35-.74.7s0 .73.25.99l.63.63-21.51 21.51c-.39.39-.39 1.02 0 1.41l3.03 3.03c-1.03 1.05-3.38 2.95-6.45 2.29-.54-.11-1.07.23-1.19.77s.23 1.07.77 1.19c.59.13 1.16.18 1.7.18 3.13 0 5.45-1.88 6.58-3.02l2.12 2.12-13.58 13.58c-.39.39-.39 1.02 0 1.41.2.2.45.29.71.29s.51-.1.71-.29l14.28-14.28 21.51-21.51.63.63c.19.19.45.29.71.29.09 0 .19-.01.28-.04.35-.1.62-.39.7-.74l2.88-12.83c.08-.33-.03-.68-.27-.93s-.58-.34-.92-.27zm-26.22 33.28-5.85-5.85.89-.89 12.35-.64zm9.49-9.5-12.35.64 3.1-3.1 12.35-.64zm5.21-5.21-12.35.64 3.1-3.1 12.35-.63zm5.21-5.21-12.35.64 7.38-7.38 5.85 5.85zm3.07-1.54-.06-.06-7.27-7.27-.05-.05 9.52-2.14z"/><path fill="currentColor" d="m9.17 43.7c-.39.39-.39 1.02 0 1.41.2.2.45.29.71.29s.51-.1.71-.29l2.18-2.18c.39-.39.39-1.02 0-1.41s-1.02-.39-1.41 0z"/><path fill="currentColor" d="m7.66 40.86 3.09-.01c.55 0 1-.45 1-1s-.45-1-1-1l-3.08.01c-.55 0-1 .45-1 1-.01.55.44 1 .99 1z"/><path fill="currentColor" d="m12.2 36.52-2.2-2.17c-.39-.39-1.03-.38-1.41.01-.39.4-.39 1.03.01 1.42l2.2 2.16c.19.19.45.29.7.29.26 0 .52-.1.71-.3.39-.39.38-1.03-.01-1.41z"/><path fill="currentColor" d="m13.87 36.9h.01c.55-.01.99-.46.99-1.01l-.03-3.08c-.01-.55-.45-.99-1-.99h-.01c-.55.01-.99.46-.99 1.01l.03 3.08c.01.55.45.99 1 .99z"/></svg>