<svg viewBox="0 0 64 64" xmlns="http://www.w3.org/2000/svg" data-name="Layer 2 copy"><path fill="currentColor" d="m33 55 .867-.509c-.173-.375-.47-1.016-.827-1.875a1 1 0 0 0 -1.847.768c.371.893.678 1.558.9 2.035z"/><path fill="currentColor" d="m40.5 13.026a14 14 0 0 0 4.5-10.321v-1.705a1 1 0 0 0 -2 0v1.705a12 12 0 0 1 -3.847 8.847 41.6 41.6 0 0 0 -9.061 13.029c-4.046 8.767-2.448 18.286-.394 24.729a1 1 0 1 0 1.902-.61c-1.946-6.1-3.473-15.1.3-23.283a39.587 39.587 0 0 1 8.6-12.391z"/><path fill="currentColor" d="m10.791 22.978 14 3a.96.96 0 0 0 .209.022 1 1 0 0 0 .894-.553l3-6a1 1 0 0 0 -.5-1.366l-6-2.572a1 1 0 0 0 -.788 1.838l5.025 2.153-2.179 4.36-12.15-2.6 2.3-6.908 3 1.287a1 1 0 0 0 .798-1.839l-4-1.716a1 1 0 0 0 -1.343.6l-3 9a1 1 0 0 0 .739 1.294z"/><path fill="currentColor" d="m18.354 9.05 11.125 6.8a1 1 0 0 0 1.3-.229l4-5a1 1 0 0 0 -.192-1.434l-11-8a1 1 0 0 0 -1.421.255l-4.125 6.2a1 1 0 0 0 .311 1.407zm4.9-5.628 9.31 6.771-2.8 3.493-9.486-5.8z"/><path fill="currentColor" d="m55.3 26.66a1 1 0 0 0 .9-.565l3.7-7.66a1 1 0 0 0 -.516-1.357l-12-5a1 1 0 0 0 -1.2.342l-5 7a1 1 0 0 0 .422 1.5l13.3 5.66a.989.989 0 0 0 .394.08zm-11.762-7.093 3.813-5.338 10.289 4.288-2.827 5.85z"/><path fill="currentColor" d="m51.973 29.771a1 1 0 0 0 -.554-.679l-13-6a1 1 0 0 0 -1.38.634l-2 7a1 1 0 0 0 .62 1.214l11 4a1 1 0 0 0 1.123-.314l4-5a1 1 0 0 0 .191-.855zm-5.306 4.045-9.45-3.437 1.424-4.979 10.781 4.976z"/><path fill="currentColor" d="m45 49a1 1 0 0 0 .833-.445l4-6a1 1 0 0 0 -.5-1.5l-4-1.429a1 1 0 1 0 -.673 1.883l2.795 1-2.839 4.26-8.616-3.446v-4.9l4.662 1.665a1 1 0 1 0 .673-1.883l-6-2.143a1 1 0 0 0 -1.335.938v7a1 1 0 0 0 .628.929l10 4a1.01 1.01 0 0 0 .372.071z"/><path fill="currentColor" d="m8 29v7a1 1 0 0 0 1 1h14a1 1 0 0 0 1-1v-6a1 1 0 0 0 -.929-1l-14-1a.976.976 0 0 0 -.753.266 1 1 0 0 0 -.318.734zm2 1.074 12 .856v4.07h-12z"/><path fill="currentColor" d="m22.929 40-14 1a1 1 0 0 0 -.918 1.139l1 7a1 1 0 0 0 .989.861 1.035 1.035 0 0 0 .145-.011l14-2.055a1 1 0 0 0 .841-1.155l-1-5.945a.994.994 0 0 0 -1.057-.834zm-12.081 7.865-.707-4.944 12.023-.858.68 4.042z"/><path fill="currentColor" d="m24 60a1 1 0 0 0 .707-.293l3-3a1 1 0 0 0 -1.414-1.414l-3 3a1 1 0 0 0 .707 1.707z"/><path fill="currentColor" d="m30 60v3a1 1 0 0 0 2 0v-3a1 1 0 0 0 -2 0z"/><path fill="currentColor" d="m36.293 56.293a1 1 0 0 0 0 1.414l3 3a1 1 0 0 0 1.414-1.414l-3-3a1 1 0 0 0 -1.414 0z"/><path fill="currentColor" d="m42 52a1 1 0 0 0 -1-1h-4a1 1 0 0 0 0 2h4a1 1 0 0 0 1-1z"/></svg>