<svg xmlns="http://www.w3.org/2000/svg" viewBox="0 0 1024 1024">
<g transform="translate(0,1024) scale(0.1,-0.1)">
<path fill="currentColor" d="M9637 9744 c-1 -1 -45 -5 -97 -9 -52 -4 -102 -8 -110 -10 -8 -2 -58
-6 -110 -10 -52 -4 -102 -8 -110 -10 -8 -2 -58 -6 -110 -10 -52 -4 -102 -8
-110 -10 -8 -2 -58 -6 -110 -10 -52 -4 -102 -8 -110 -10 -8 -2 -58 -6 -110
-10 -52 -4 -104 -9 -115 -11 -11 -2 -285 -269 -610 -593 -514 -513 -593 -588
-615 -585 -316 56 -590 -22 -808 -230 -211 -200 -314 -512 -262 -796 l12 -63
-1618 -1618 -1617 -1617 -1157 -407 c-637 -223 -1181 -414 -1209 -423 l-51
-16 -35 34 -36 34 -272 -272 -272 -272 1184 -1184 1184 -1184 273 271 273 272
-34 35 c-19 20 -35 41 -35 47 0 6 169 491 376 1079 206 588 396 1128 420 1199
l44 130 1620 1619 c1139 1138 1624 1617 1635 1612 46 -17 222 -25 318 -13 125
16 289 81 401 161 85 61 184 168 244 265 52 86 107 232 119 322 14 102 6 310
-13 341 -6 9 457 478 472 478 5 0 100 -91 212 -202 l202 -203 675 675 c371
371 675 680 675 685 0 6 -116 126 -258 268 l-258 258 -42 -2 c-24 -2 -44 -4
-45 -5z m323 -519 c0 -3 -241 -246 -536 -541 l-537 -536 -393 393 -394 394
257 257 258 257 50 5 c28 3 75 8 105 10 146 13 198 18 232 21 20 2 69 7 110
10 40 4 89 8 108 10 19 2 69 6 110 10 41 4 91 8 110 10 19 2 71 6 115 10 44 4
82 8 83 10 4 4 322 -313 322 -320z m-1810 -620 l185 -185 -188 -188 -189 -189
-184 184 c-101 102 -184 187 -184 191 0 8 362 372 370 372 3 0 88 -83 190
-185z m-893 -329 c240 -44 453 -228 532 -459 26 -75 33 -117 36 -212 8 -296
-174 -563 -454 -665 -96 -35 -150 -44 -258 -43 -306 5 -577 220 -654 522 -19
75 -27 215 -15 276 3 17 8 41 11 54 25 125 125 290 227 373 85 70 199 128 281
144 17 4 48 10 67 13 39 8 178 6 227 -3z m-768 -1327 c100 -99 181 -184 181
-187 0 -4 -133 -140 -295 -302 l-295 -295 -187 188 -188 187 295 295 c162 162
298 295 302 295 3 0 88 -81 187 -181z m-1765 -2140 l-1215 -1215 -414 -1178
c-228 -648 -416 -1180 -418 -1182 -1 -2 -432 426 -956 950 l-953 953 84 29
c46 17 577 203 1180 415 l1097 384 1218 1217 1218 1218 187 -187 188 -188
-1216 -1216z m-2234 -3944 l-130 -130 -1042 1042 -1043 1043 130 130 130 130
1042 -1042 1043 -1043 -130 -130z"/>
</g>
</svg>
