<svg xmlns="http://www.w3.org/2000/svg" viewBox="0 0 1024 1024">
<g transform="translate(0,1024) scale(0.1,-0.1)">
<path fill="currentColor" d="M7917 10224 c-64 -15 -163 -62 -217 -101 -121 -90 -213 -243 -236
-391 -5 -33 -10 -41 -23 -38 -129 39 -286 74 -416 92 -27 3 -58 8 -68 10 -102
18 -435 25 -587 11 -82 -7 -104 -10 -180 -23 -19 -3 -46 -8 -60 -10 -14 -2
-36 -7 -50 -10 -14 -3 -36 -8 -50 -10 -14 -3 -68 -16 -120 -31 -591 -164
-1087 -548 -1391 -1078 -136 -236 -246 -555 -285 -820 -3 -22 -7 -51 -9 -65
-25 -147 -25 -579 -1 -707 2 -10 7 -38 10 -63 15 -110 55 -291 92 -411 3 -13
-5 -18 -38 -23 -80 -12 -169 -48 -241 -96 -98 -65 -152 -128 -206 -237 -82
-165 -79 -358 7 -533 29 -58 61 -100 146 -188 l109 -113 -30 -32 c-16 -18 -92
-102 -169 -187 -76 -85 -143 -160 -149 -166 -13 -14 -124 -138 -306 -339 -79
-88 -148 -165 -154 -171 -12 -13 -107 -118 -306 -339 -79 -88 -148 -165 -154
-171 -5 -6 -44 -48 -85 -94 -41 -46 -80 -88 -85 -94 -6 -6 -91 -101 -190 -211
-99 -110 -184 -205 -190 -211 -11 -12 -99 -110 -306 -339 -79 -88 -148 -165
-154 -171 -12 -13 -107 -118 -306 -339 -79 -88 -148 -165 -154 -171 -5 -6 -44
-48 -85 -94 -41 -46 -79 -88 -85 -94 -5 -6 -47 -53 -93 -103 l-84 -92 -51 38
c-282 211 -665 150 -861 -137 -119 -174 -137 -410 -45 -596 30 -60 76 -128 91
-134 4 -2 -6 -24 -23 -48 -130 -189 -162 -457 -83 -699 24 -72 84 -192 114
-225 46 -52 235 -134 362 -157 53 -9 239 -10 291 0 92 17 273 96 292 127 11
17 35 11 73 -19 94 -75 247 -124 372 -120 257 9 472 169 554 412 63 185 24
405 -98 557 l-36 45 47 45 c47 44 201 184 245 222 13 11 41 36 63 56 22 21
107 98 190 172 82 74 168 152 190 172 22 20 49 45 61 55 20 17 176 157 198
178 6 6 78 71 161 145 82 74 155 140 161 145 6 6 48 44 94 85 46 41 88 80 94
85 6 6 78 71 161 145 82 74 155 140 161 145 6 6 48 44 94 85 46 41 88 80 94
85 6 6 78 71 161 145 82 74 155 140 161 145 6 6 48 44 94 85 46 41 88 80 94
85 6 6 101 91 211 190 110 99 205 184 211 190 6 5 48 44 94 85 46 41 88 80 94
85 6 6 58 53 116 104 58 52 120 108 137 125 l33 30 102 -100 c167 -162 273
-214 449 -220 307 -11 563 200 614 504 6 35 10 42 23 37 20 -7 243 -62 287
-70 218 -39 332 -50 540 -49 131 0 301 9 353 19 9 1 37 6 62 9 59 8 130 22
158 30 9 3 28 7 42 10 50 10 67 15 180 51 708 230 1240 752 1482 1455 26 77
75 254 83 305 4 22 21 123 29 168 26 151 26 575 1 707 -2 12 -7 48 -11 79 -3
31 -8 58 -9 61 -2 3 -6 25 -10 50 -4 24 -21 103 -40 175 -18 71 -32 131 -31
132 0 0 19 4 40 7 67 11 176 53 232 91 257 170 344 496 207 774 -31 63 -62
100 -175 216 l-137 141 57 49 c165 142 278 345 312 560 16 104 5 288 -23 395
-39 147 -112 304 -166 356 -51 50 -275 150 -379 169 -15 3 -38 7 -52 11 -14 3
-79 7 -145 9 -142 5 -210 -5 -340 -47 -137 -45 -284 -147 -390 -270 l-49 -57
-141 137 c-152 150 -225 196 -352 226 -77 17 -200 18 -276 0z m220 -403 c59
-27 1657 -1625 1684 -1685 60 -132 -36 -275 -184 -276 -28 0 -63 8 -85 19 -21
11 -397 380 -851 834 -754 755 -814 818 -831 866 -55 163 110 313 267 242z
m1450 -1 c39 -10 94 -28 121 -40 47 -20 52 -26 77 -87 97 -243 61 -468 -100
-628 -33 -33 -73 -67 -88 -74 l-28 -15 -296 297 -297 296 15 28 c7 15 41 55
74 89 64 66 149 115 238 138 73 19 199 17 284 -4z m-2737 -414 c19 -3 58 -8
85 -11 127 -15 406 -81 360 -85 -11 -1 -27 -3 -35 -5 -8 -1 -33 -6 -55 -9 -88
-14 -104 -18 -205 -42 -124 -29 -229 -62 -363 -115 -124 -49 -295 -135 -325
-163 -85 -77 -80 -232 9 -298 78 -58 147 -60 256 -5 107 54 210 97 316 133
125 43 233 71 346 90 18 3 43 8 55 10 44 8 184 18 271 18 129 0 208 -9 362
-38 65 -13 57 -22 -92 -94 -247 -121 -453 -250 -730 -457 -272 -204 -452 -362
-746 -655 -523 -520 -901 -1021 -1131 -1496 -38 -79 -73 -142 -77 -139 -5 2
-14 33 -21 67 -6 35 -14 72 -16 83 -22 110 -22 420 1 535 2 13 7 42 10 65 25
171 110 418 228 663 41 85 44 143 11 207 -61 117 -232 140 -320 43 -43 -46
-156 -292 -216 -468 -26 -76 -69 -233 -82 -300 -21 -108 -33 -181 -36 -215 -1
-19 -2 -19 -10 1 -10 26 -57 232 -65 289 -4 22 -8 51 -10 65 -19 112 -26 415
-13 545 27 262 87 481 194 703 292 612 889 1018 1589 1078 39 4 71 8 73 9 6 5
346 -3 382 -9z m1574 -983 c137 -137 133 -117 59 -298 -384 -944 -1787 -2314
-2690 -2628 l-72 -25 -121 120 c-66 66 -120 128 -120 138 0 49 103 287 192
444 449 792 1383 1725 2175 2174 158 91 388 190 439 192 13 0 62 -41 138 -117z
m463 -504 c35 -158 45 -344 29 -526 -4 -46 -9 -91 -11 -102 -2 -10 -6 -36 -9
-57 -11 -69 -44 -197 -76 -297 -90 -283 -235 -550 -440 -817 -88 -113 -341
-369 -460 -464 -111 -88 -293 -210 -405 -271 -221 -121 -520 -227 -729 -261
-21 -3 -47 -7 -57 -9 -90 -17 -304 -23 -435 -12 -93 8 -235 35 -248 47 -4 4
49 35 119 69 359 172 752 442 1158 799 138 121 503 481 625 617 291 325 567
697 737 995 60 105 165 320 165 338 0 8 6 12 12 10 7 -3 18 -29 25 -59z m467
-760 c14 -63 28 -136 32 -164 3 -27 8 -52 9 -55 8 -14 19 -209 19 -335 0 -120
-8 -258 -19 -314 -1 -9 -6 -36 -10 -61 -12 -71 -13 -77 -40 -180 -82 -319
-248 -619 -469 -849 -243 -252 -575 -445 -917 -530 -92 -23 -99 -25 -169 -36
-25 -4 -53 -9 -63 -11 -133 -24 -518 -24 -649 1 -12 3 -40 7 -63 10 -56 8
-263 55 -289 65 -20 8 -20 9 -1 10 25 2 42 5 178 30 1043 197 2015 1096 2321
2147 35 123 77 322 86 413 2 26 17 -22 44 -141z m-4896 -1014 c46 -19 1653
-1621 1683 -1677 35 -67 19 -169 -34 -226 -63 -68 -183 -80 -254 -26 -21 16
-400 391 -843 834 -857 858 -830 828 -830 921 0 42 30 107 61 135 61 54 143
69 217 39z m292 -1400 l355 -355 -55 -53 c-30 -29 -100 -93 -155 -142 -55 -50
-105 -94 -111 -100 -6 -5 -48 -44 -94 -85 -46 -41 -88 -80 -94 -85 -6 -6 -101
-91 -211 -190 -110 -99 -205 -184 -211 -190 -12 -11 -110 -99 -339 -306 -88
-79 -165 -148 -171 -154 -13 -12 -118 -107 -339 -306 -88 -79 -165 -148 -171
-154 -6 -5 -48 -44 -94 -85 -46 -41 -88 -80 -94 -85 -6 -6 -101 -91 -211 -190
-110 -99 -205 -184 -211 -190 -12 -11 -110 -99 -339 -306 -88 -79 -165 -148
-171 -154 -17 -15 -168 -152 -264 -238 l-85 -76 -192 191 -192 192 31 35 c27
31 163 183 193 215 6 6 75 83 154 171 199 221 294 326 306 339 6 6 75 83 154
171 207 229 295 327 306 339 6 6 91 101 190 211 99 110 184 205 190 211 5 6
44 48 85 94 41 46 80 88 85 94 6 6 75 83 154 171 199 221 294 326 306 339 6 6
75 83 154 171 199 221 294 326 306 339 6 6 75 83 154 171 80 88 179 198 220
244 42 46 78 87 79 92 2 5 9 9 15 9 7 0 172 -160 367 -355z m-4069 -3028 c49
-21 1025 -1000 1038 -1041 18 -54 19 -80 6 -129 -27 -107 -145 -171 -253 -137
-29 10 -144 119 -535 509 -274 273 -506 512 -516 531 -25 49 -26 111 -3 162
22 50 80 105 120 114 15 3 32 7 37 8 20 6 73 -3 106 -17z m117 -1292 c-61 -28
-201 -27 -282 3 -33 12 -63 27 -68 34 -43 66 -57 268 -24 342 l18 39 199 -199
200 -199 -43 -20z M5665 8484 c-55 -19 -86 -44 -114 -94 -83 -148 57 -330 219
-287 132 34 193 182 123 296 -49 78 -144 114 -228 85z"/>
</g>
</svg>
