<svg viewBox="0 0 32 32" xmlns="http://www.w3.org/2000/svg"><path fill="currentColor" d="m29 6c-2.417 0-4.333.609-5.586 1.701-.687-1.312-1.921-2.295-3.414-2.6v-.101c0-2.206-1.794-4-4-4s-4 1.794-4 4v.101c-1.493.304-2.726 1.287-3.414 2.6-1.253-1.092-3.169-1.701-5.586-1.701-.552 0-1 .447-1 1 0 5.149.272 10.687 2.293 12.707.187.188.442.293.707.293 1.401 0 2.758-.725 3.704-1.798.866 1.956 2.488 3.527 4.549 4.286.138 1.412.341 2.696.64 3.52 1.292 3.564 7.443 4.167 11.159 3.991.904-.047 1.285-1.183.589-1.767-.359-.3-.641-1.061-.641-1.732 0-.522-.402-.956-.923-.997-2.37-.185-4.813-.814-5.111-1.28-.051-.213-.086-.902-.098-1.782 2.004-.776 3.579-2.321 4.427-4.239.948 1.073 2.304 1.798 3.705 1.798.265 0 .52-.105.707-.293 2.021-2.02 2.293-7.558 2.293-12.707 0-.553-.448-1-1-1zm-21 9c0 1.312-1.25 2.694-2.564 2.956-1.254-1.89-1.413-7.127-1.433-9.914 2.093.181 3.514.948 3.997 2.163zm8-12c1.103 0 2 .897 2 2h-4c0-1.103.897-2 2-2zm-3 4h6c1.104 0 2.06.606 2.581 1.497-1.737-.342-3.79-.149-5.581 1.191-1.79-1.341-3.844-1.533-5.581-1.191.521-.891 1.477-1.497 2.581-1.497zm9 8c0 2.203-1.24 4.203-3.117 5.243.02-.766.057-1.524.113-2.154.049-.55-.357-1.036-.907-1.085-.551-.058-1.036.357-1.085.907-.169 1.898-.217 5.909.031 6.829.475 1.759 3.703 2.427 6.06 2.681.039.194.089.391.152.585-2.678-.095-6.743-.667-7.473-2.68-.398-1.099-.681-3.778-.774-7.353-.014-.552-.471-.997-1.025-.974-.552.015-.988.474-.974 1.026.018.691.045 1.439.086 2.198-1.86-1.044-3.087-3.033-3.087-5.223v-4.331c1.537-.542 3.656-.546 5.305 1.049.388.375 1.003.375 1.391 0 1.649-1.595 3.768-1.59 5.305-1.049v4.331zm4.564 2.956c-1.314-.262-2.564-1.644-2.564-2.956v-4.795c.483-1.215 1.904-1.983 3.997-2.163-.02 2.787-.179 8.024-1.433 9.914z"/><path fill="currentColor" d="m14 14c0 .552-.448 1-1 1s-1-.448-1-1 .448-1 1-1 1 .448 1 1z"/><path fill="currentColor" d="m20 14c0 .552-.448 1-1 1s-1-.448-1-1 .448-1 1-1 1 .448 1 1z"/></svg>