<svg xmlns="http://www.w3.org/2000/svg" viewBox="0 0 1024 1024">
<g transform="translate(0,1024) scale(0.1,-0.1)">
<path fill="currentColor" d="M4820 9771 l0 -469 -40 -60 c-55 -82 -173 -201 -385 -387 -314 -276
-346 -306 -521 -480 -240 -239 -351 -372 -494 -592 -144 -220 -277 -537 -315
-748 -12 -70 -16 -91 -20 -105 -2 -8 -7 -46 -11 -85 -4 -38 -8 -81 -9 -95 -2
-14 -3 -53 -4 -87 l-1 -63 -300 0 -300 0 -1 488 c0 268 -3 501 -5 517 -35 228
-224 467 -516 649 l-78 48 0 359 0 359 -300 0 -300 0 0 -359 0 -360 -61 -36
c-300 -183 -498 -427 -533 -660 -2 -16 -5 -519 -5 -1117 l-1 -1088 -310 0
-310 0 0 -300 0 -300 310 0 310 0 0 -900 0 -900 -310 0 -310 0 0 -1500 0
-1500 5120 0 5120 0 0 1500 0 1500 -310 0 -310 0 0 900 0 900 310 0 310 0 0
300 0 300 -310 0 -310 0 -1 1088 c0 598 -3 1101 -5 1117 -35 228 -224 467
-516 649 l-78 48 0 359 0 359 -300 0 -300 0 0 -359 0 -360 -61 -36 c-300 -183
-498 -427 -533 -660 -2 -16 -5 -249 -5 -517 l-1 -488 -300 0 -300 0 -1 58 c-1
31 -2 68 -4 82 -1 14 -5 61 -9 105 -5 44 -9 82 -11 85 -2 3 -6 21 -9 40 -13
79 -18 99 -43 190 -57 208 -164 442 -289 633 -141 215 -252 347 -493 587 -185
184 -195 193 -386 360 -66 58 -122 107 -125 110 -3 3 -48 43 -100 90 -134 119
-245 235 -291 304 l-39 58 0 469 0 469 -300 0 -300 0 0 -469z m353 -1631 c69
-177 150 -440 171 -550 2 -14 9 -45 14 -70 6 -25 13 -63 16 -85 4 -23 8 -51
11 -64 2 -13 7 -49 10 -80 4 -31 9 -67 11 -81 3 -14 8 -157 11 -317 l6 -293
-303 0 -303 0 6 293 c3 160 8 303 10 317 3 14 8 50 12 81 3 31 8 67 10 80 3
13 7 41 10 64 22 153 95 414 177 635 27 74 55 150 61 168 6 18 14 29 18 25 4
-5 28 -60 52 -123z m-789 -137 c-36 -117 -95 -367 -108 -458 -4 -23 -8 -51
-11 -64 -2 -13 -7 -49 -11 -80 -3 -31 -8 -65 -10 -75 -3 -18 -13 -130 -19
-226 -2 -25 -4 -147 -4 -272 l-1 -228 -301 0 -301 0 6 93 c6 94 12 143 22 187
3 14 8 38 11 55 11 67 76 243 128 347 105 212 238 390 464 621 79 81 145 147
147 147 2 0 -4 -21 -12 -47z m1622 -113 c208 -214 345 -399 448 -606 52 -104
118 -282 129 -349 3 -17 8 -41 11 -55 10 -44 16 -93 22 -187 l6 -93 -301 0
-301 0 -1 228 c0 125 -2 247 -4 272 -6 96 -16 208 -19 226 -2 10 -7 44 -10 74
-18 155 -78 434 -131 605 l-15 49 41 -39 c23 -22 79 -78 125 -125z m-4394
-167 c73 -49 164 -131 192 -173 14 -22 16 -75 16 -487 l0 -463 -300 0 -300 0
0 464 0 463 34 44 c55 73 246 215 274 204 8 -3 46 -26 84 -52z m7200 0 c73
-49 164 -131 192 -173 14 -22 16 -75 16 -487 l0 -463 -300 0 -300 0 0 464 0
463 34 44 c55 73 246 215 274 204 8 -3 46 -26 84 -52z m208 -2023 l0 -300
-3900 0 -3900 0 0 300 0 300 3900 0 3900 0 0 -300z m-6000 -1800 l0 -900 -900
0 -900 0 0 900 0 900 900 0 900 0 0 -900z m3600 0 l0 -900 -300 0 -300 0 -1
188 c0 103 -2 196 -4 207 -2 11 -7 40 -10 65 -8 59 -48 176 -85 249 -53 106
-149 221 -250 303 -94 76 -274 155 -395 175 -63 10 -245 10 -307 0 -136 -22
-302 -98 -416 -190 -157 -127 -292 -357 -317 -540 -3 -23 -8 -51 -10 -62 -2
-11 -4 -104 -4 -207 l-1 -188 -300 0 -300 0 0 900 0 900 1500 0 1500 0 0 -900z
m2400 0 l0 -900 -900 0 -900 0 0 900 0 900 900 0 900 0 0 -900z m-3767 -334
c66 -32 120 -92 147 -163 15 -40 18 -80 20 -226 l1 -177 -301 0 -301 0 1 177
c2 193 11 239 65 309 82 108 241 143 368 80z m4387 -2066 l0 -900 -610 0 -610
0 0 600 0 600 -900 0 -900 0 0 -600 0 -600 -300 0 -300 0 0 600 0 600 -900 0
-900 0 0 -600 0 -600 -300 0 -300 0 0 600 0 600 -900 0 -900 0 0 -600 0 -600
-610 0 -610 0 0 900 0 900 4520 0 4520 0 0 -900z m-6620 -600 l0 -300 -300 0
-300 0 0 300 0 300 300 0 300 0 0 -300z m2400 0 l0 -300 -300 0 -300 0 0 300
0 300 300 0 300 0 0 -300z m2400 0 l0 -300 -300 0 -300 0 0 300 0 300 300 0
300 0 0 -300z M1820 3900 l0 -300 300 0 300 0 0 300 0 300 -300 0 -300 0 0
-300z M7820 3900 l0 -300 300 0 300 0 0 300 0 300 -300 0 -300 0 0 -300z"/>
</g>
</svg>
