<svg viewBox="0 0 64 64" xmlns="http://www.w3.org/2000/svg"><path fill="currentColor" d="m54.37542 44.94393h-34.13469v-38.01443h34.13469v7.74112h1.92858v-9.6697c-.00858-.00287-37.02493.00208-37.03217 0h-.88291a10.83035 10.83035 0 0 0 -10.8181 10.81808v36.15273a7.0361 7.0361 0 0 0 7.02827 7.02827h40.11251a.96534.96534 0 0 0 .0965-1.92385c-6.068-.69012-6.09065-9.451-.04081-10.21165.70409-.00075 1.52219-.10552 1.53667-.99638v-27.57719h-1.92854zm-44.87603-29.12493a8.89773 8.89773 0 0 1 8.81277-8.88563v38.01056h-3.71307a6.98277 6.98277 0 0 0 -4.97068 2.05758c-.36791.84637-.00591-31.35838-.12902-31.18251zm38.84548 35.18844h-28.37629v1.92856h28.3757a7.025 7.025 0 0 0 2.09878 4.13541h-35.844c-6.73483-.21022-6.74382-9.99808.00012-10.19893h35.84876a7.05227 7.05227 0 0 0 -2.10307 4.13496z"/><path fill="currentColor" d="m49.024 36.761v-11.789h-10.825v-8.896h9.861v-1.928h-11.789v10.824h-8.896v-9.86h-1.929v11.788h10.825v8.896h-9.86v1.929h11.788v-10.825h8.896v9.861z"/><path fill="currentColor" d="m40.32889 20.54121a2.7063 2.7063 0 0 0 5.41227-.00008 2.7063 2.7063 0 0 0 -5.41227.00008z"/><path fill="currentColor" d="m34.141 20.54121a2.70627 2.70627 0 0 0 -5.41222.00008 2.70627 2.70627 0 0 0 5.41222-.00008z"/><path fill="currentColor" d="m40.32889 31.33128a2.7063 2.7063 0 0 0 5.41227-.00008 2.7063 2.7063 0 0 0 -5.41227.00008z"/><path fill="currentColor" d="m34.141 31.33128a2.70627 2.70627 0 0 0 -5.41222.00008 2.70627 2.70627 0 0 0 5.41222-.00008z"/><path fill="currentColor" d="m54.25 15.433h2.179v2.179h-2.179z"/></svg>