<svg xmlns="http://www.w3.org/2000/svg" viewBox="0 0 1024 1024">
<g transform="translate(0,1024) scale(0.1,-0.1)">
<path fill="currentColor" d="M2259 10236 c-2 -2 -29 -7 -60 -10 -31 -4 -97 -18 -148 -31 -517
-139 -905 -593 -958 -1123 -8 -86 -8 -8146 0 -8232 21 -210 129 -430 281 -573
103 -97 241 -182 361 -221 148 -48 -46 -45 3809 -43 l3609 2 0 5108 c-1 2809
-2 5112 -2 5117 -1 10 -6882 16 -6892 6z m211 -595 c3 0 4 -484 3 -1073 0
-590 1 -1080 3 -1088 3 -13 42 -15 281 -14 153 1 287 2 298 3 20 1 20 8 19
1086 l0 1085 2738 0 c1818 0 2738 -3 2739 -10 0 -5 1 -1750 2 -3877 l0 -3868
-2740 -3 -2739 -2 0 432 c1 238 0 440 -2 448 -3 13 -43 15 -295 13 -161 0
-295 -1 -298 -2 -3 -1 -6 -200 -5 -442 1 -286 -3 -443 -9 -445 -5 -2 -138 -5
-295 -7 -295 -4 -314 -6 -415 -38 -33 -10 -62 -19 -65 -19 -3 0 -4 1623 -4
3607 2 4030 -5 3676 74 3839 72 149 195 259 360 320 84 32 109 38 205 50 28 4
51 7 52 8 2 2 85 0 93 -3z m6081 -8371 c0 -5 1 -157 2 -337 l0 -328 -3284 -3
c-3625 -2 -3335 -7 -3435 61 -58 39 -118 124 -134 187 -26 100 -9 200 50 285
38 56 84 90 157 121 l58 23 3293 1 c2194 0 3292 -3 3293 -10z M5800 8320 l0
-300 300 0 300 0 0 300 0 300 -300 0 -300 0 0 -300z M5403 7681 c-150 -53
-275 -99 -279 -103 -3 -3 12 -45 34 -92 177 -377 554 -611 969 -600 396 10
746 239 915 600 22 47 36 90 31 94 -4 5 -73 31 -153 58 -80 28 -203 70 -273
95 l-128 44 -25 -49 c-71 -139 -221 -237 -374 -243 -172 -6 -329 85 -410 236
-17 33 -32 58 -33 58 -1 -1 -124 -45 -274 -98z M4107 7304 c-1 -1 -29 -4 -62
-8 -96 -10 -125 -16 -217 -47 -163 -53 -299 -138 -419 -259 -123 -123 -205
-256 -258 -418 -34 -100 -43 -149 -55 -290 l-4 -42 301 2 c273 3 300 5 303 20
1 9 4 34 7 55 23 156 146 304 298 358 225 80 472 -19 574 -230 43 -88 54 -138
50 -229 -8 -203 -167 -396 -356 -431 -19 -3 -43 -8 -54 -10 -11 -2 -28 -4 -37
-4 -17 -1 -18 -22 -18 -300 l0 -298 69 -6 c147 -12 301 -86 410 -197 79 -80
133 -168 168 -275 32 -101 36 -262 9 -365 -77 -287 -339 -497 -631 -506 -126
-4 -212 14 -325 69 -68 33 -102 58 -171 127 -135 134 -192 269 -203 477 -7
131 -14 175 -43 263 -55 169 -165 321 -315 432 -110 82 -305 152 -435 157
l-63 2 0 -300 c0 -301 0 -301 21 -301 44 0 102 -25 144 -62 60 -53 85 -109 90
-205 22 -383 136 -647 384 -893 250 -247 507 -359 841 -366 612 -12 1134 375
1285 953 30 114 39 188 39 318 0 221 -40 391 -140 586 -24 47 -44 87 -44 90 0
2 42 5 93 7 111 3 147 7 253 32 274 64 492 207 684 450 37 47 88 100 114 118
275 198 644 76 752 -248 17 -50 19 -93 19 -435 0 -376 0 -381 -24 -445 -54
-147 -158 -239 -308 -273 -137 -32 -269 5 -379 105 -64 59 -111 147 -127 242
l-11 66 -299 0 -299 0 6 -80 c38 -481 420 -881 893 -937 205 -24 399 9 578 99
288 145 481 394 551 714 14 67 17 141 19 475 1 218 -2 427 -7 465 -55 432
-377 802 -793 910 -106 28 -178 38 -280 38 -227 0 -444 -70 -630 -202 -86 -61
-177 -150 -255 -251 -101 -131 -242 -218 -384 -238 -57 -8 -286 -9 -286 -2 0
4 11 36 24 71 23 61 48 146 61 213 11 53 13 258 4 320 -53 349 -273 652 -584
807 -104 52 -220 87 -338 103 -47 7 -185 13 -190 9z"/>
</g>
</svg>
