<svg xmlns="http://www.w3.org/2000/svg" viewBox="0 0 1024 1024">
<g transform="translate(0,1024) scale(0.1,-0.1)">
<path fill="currentColor" d="M6105 10233 c-326 -44 -608 -237 -785 -537 -22 -37 -43 -60 -55 -62
-111 -16 -214 -65 -298 -143 -104 -99 -172 -240 -177 -367 0 -6 -24 -22 -52
-34 -458 -195 -860 -522 -1140 -925 l-51 -73 -47 57 c-178 214 -450 412 -721
524 l-37 15 19 67 c38 138 11 308 -70 434 -43 67 -134 150 -204 186 l-57 30 0
92 c0 162 -40 278 -131 377 -195 214 -516 221 -720 17 -107 -107 -149 -218
-149 -394 l0 -92 -57 -30 c-116 -60 -218 -180 -264 -311 -30 -83 -34 -220 -10
-308 l18 -66 -112 -53 c-222 -107 -373 -211 -528 -364 -148 -146 -258 -298
-338 -469 -42 -89 -94 -238 -103 -298 -4 -21 -8 -41 -10 -45 -12 -19 -21 -155
-20 -291 1 -118 6 -180 23 -258 66 -313 212 -575 447 -804 159 -154 292 -247
505 -352 l145 -71 -19 -55 c-44 -123 -26 -308 41 -435 36 -67 154 -183 224
-220 l58 -30 0 -1832 0 -1831 -72 -22 c-179 -54 -345 -165 -459 -306 -145
-178 -219 -384 -216 -594 2 -86 5 -102 35 -162 37 -77 90 -128 172 -167 l55
-26 4421 -2 c4101 -3 4424 -2 4470 14 66 22 111 52 158 103 36 41 71 105 82
153 7 27 6 167 0 216 -3 20 -8 61 -11 91 -17 159 -46 324 -86 490 -38 155
-131 440 -159 485 -46 74 -161 87 -225 25 -34 -33 -52 -83 -46 -125 2 -11 23
-78 47 -150 41 -117 96 -310 108 -375 2 -14 11 -56 19 -95 9 -38 18 -95 22
-125 4 -30 8 -57 10 -60 2 -3 6 -39 10 -80 4 -41 9 -84 11 -94 2 -10 4 -48 5
-84 2 -53 -1 -68 -16 -79 -16 -11 -272 -13 -1482 -13 -805 0 -1463 2 -1463 5
0 2 15 28 33 57 43 69 72 132 94 205 l17 60 133 67 c494 250 841 617 1026
1086 32 82 97 295 97 319 0 25 13 34 105 66 226 78 380 187 481 340 l38 57 49
-53 c85 -95 210 -257 297 -386 102 -151 122 -168 195 -168 60 0 98 21 127 71
41 71 29 114 -73 265 -56 84 -213 297 -228 309 -3 3 -21 23 -40 45 -36 42 -83
95 -168 187 l-52 55 15 59 c36 146 67 199 159 273 146 119 261 334 293 546 13
94 8 298 -11 398 -1 5 35 19 81 33 290 85 525 315 656 642 69 171 91 301 90
517 -1 197 -35 348 -117 510 -129 258 -366 438 -617 470 -30 4 -57 9 -60 11
-2 3 -5 26 -6 52 -3 85 -15 258 -19 283 -2 13 -6 44 -9 69 -3 25 -8 65 -12 90
-11 91 -65 342 -95 442 -123 418 -307 767 -568 1083 -71 85 -319 320 -413 390
-174 131 -435 281 -595 345 -18 7 -33 20 -34 29 -3 71 -39 182 -80 247 -85
135 -237 236 -389 257 -18 3 -34 20 -60 64 -114 195 -266 340 -450 430 -81 40
-186 78 -240 88 -14 3 -36 8 -50 11 -30 7 -273 13 -315 7z m310 -314 c143 -35
273 -112 377 -223 l47 -51 -147 -5 c-131 -4 -150 -7 -178 -27 -75 -53 -84
-161 -21 -224 17 -17 41 -35 54 -40 12 -5 164 -9 335 -9 312 -1 313 -1 365
-26 95 -46 143 -133 143 -260 0 -115 26 -160 109 -190 703 -253 1234 -815
1481 -1564 47 -144 96 -349 115 -485 3 -22 7 -53 10 -70 22 -144 39 -473 26
-506 -5 -14 -44 -49 -286 -264 -38 -34 -99 -88 -134 -119 -98 -86 -131 -72
-146 59 -3 33 -8 76 -11 95 -3 19 -7 49 -9 65 -2 17 -7 59 -11 95 -22 214
-100 358 -252 462 -64 44 -385 198 -547 261 -335 132 -765 248 -895 241 -105
-5 -153 -31 -272 -146 -107 -103 -213 -151 -338 -150 -116 1 -218 51 -333 165
-76 74 -122 104 -189 121 -84 21 -145 14 -387 -45 -315 -77 -595 -181 -926
-344 -168 -83 -221 -114 -263 -154 -84 -82 -148 -193 -167 -292 -3 -13 -7 -35
-9 -49 -3 -14 -8 -47 -11 -75 -11 -93 -16 -140 -20 -165 -2 -14 -7 -52 -10
-85 -15 -131 -48 -145 -146 -59 -150 133 -204 182 -251 224 -28 25 -57 49 -64
53 -22 13 -17 23 45 98 169 200 278 426 333 683 23 109 31 354 15 471 -13 94
-53 246 -91 339 l-34 85 78 118 c188 284 397 496 664 674 129 87 375 214 481
249 69 23 108 49 127 83 7 12 15 70 18 128 6 91 11 114 34 153 14 25 42 57 61
72 67 51 86 53 422 54 347 0 373 4 415 63 32 45 32 131 0 172 -45 57 -65 63
-228 64 -81 1 -150 3 -151 5 -2 1 24 30 58 64 107 110 242 186 381 216 93 20
239 17 333 -5z m-4382 -208 c19 -11 47 -39 62 -62 25 -34 29 -53 33 -125 l5
-84 -203 0 -202 0 3 84 c4 74 7 89 34 127 44 62 105 92 177 86 33 -3 72 -14
91 -26z m283 -588 c124 -42 190 -186 148 -321 -7 -25 -6 -25 -89 -6 -11 2 -35
7 -54 10 -18 3 -42 7 -52 9 -104 20 -446 27 -584 12 -74 -8 -172 -24 -255 -42
-21 -5 -27 -1 -37 25 -6 17 -11 59 -9 94 3 102 67 187 163 222 29 10 122 13
380 13 290 0 348 -2 389 -16z m-348 -700 c28 -72 64 -198 76 -268 6 -28 9 -47
21 -105 2 -14 7 -47 11 -75 3 -27 8 -58 9 -67 2 -9 7 -48 10 -85 4 -37 9 -76
11 -86 25 -136 25 -929 -1 -1088 -2 -13 -6 -55 -10 -94 -9 -101 -50 -339 -75
-436 -26 -100 -78 -239 -90 -239 -25 0 -111 290 -136 460 -3 19 -9 62 -14 95
-5 33 -12 87 -15 120 -3 33 -8 74 -10 90 -26 199 -27 955 -1 1092 2 10 7 52
11 93 6 66 33 241 50 325 27 135 97 345 115 345 5 0 22 -35 38 -77z m-402 -20
c-9 -29 -53 -225 -60 -263 -24 -150 -35 -222 -42 -295 -3 -38 -8 -77 -9 -87
-27 -141 -26 -867 0 -1133 10 -101 16 -152 20 -175 2 -14 7 -47 10 -75 3 -27
8 -57 10 -65 2 -8 6 -32 9 -53 9 -56 43 -205 59 -259 l15 -48 -44 32 c-54 38
-149 135 -199 201 -149 196 -260 493 -292 782 -10 92 -10 371 0 460 5 39 15
102 24 140 8 39 17 81 19 95 12 59 77 236 118 319 69 141 131 228 242 339 99
98 131 121 120 85z m802 -38 c191 -164 342 -432 410 -730 38 -167 47 -248 47
-440 0 -180 -7 -257 -36 -399 -55 -270 -179 -529 -333 -694 -63 -68 -155 -146
-163 -138 -2 2 1 24 8 47 17 61 17 61 23 89 48 218 74 410 93 680 10 148 10
682 0 825 -8 107 -10 129 -22 245 -5 51 -23 184 -30 220 -1 8 -6 35 -10 60 -7
45 -50 239 -61 274 -9 27 8 18 74 -39z m-1349 -97 c-133 -205 -246 -543 -276
-828 -15 -141 -8 -485 11 -586 3 -12 7 -37 10 -55 39 -234 131 -482 248 -672
l48 -78 -58 32 c-127 73 -220 145 -337 263 -192 194 -311 422 -352 677 -10 61
-10 282 0 349 54 348 309 701 659 911 45 27 83 49 84 49 2 0 -15 -28 -37 -62z
m1976 -57 c103 -72 276 -245 341 -341 113 -165 185 -338 211 -505 10 -64 10
-264 1 -335 -49 -372 -310 -727 -701 -955 l-49 -28 35 54 c125 197 235 492
263 704 3 22 7 45 9 52 19 60 27 443 12 583 -32 293 -129 585 -269 814 l-48
78 57 -32 c32 -18 94 -58 138 -89z m2672 -1403 c22 -23 22 -27 23 -273 1 -137
6 -272 12 -300 5 -27 27 -86 48 -130 143 -299 524 -400 799 -213 109 75 204
216 229 343 6 28 11 162 12 300 1 220 3 251 18 268 32 35 45 36 159 12 320
-67 630 -176 968 -339 184 -89 233 -124 264 -189 20 -43 25 -63 36 -152 4 -27
8 -61 10 -75 2 -14 7 -52 11 -85 3 -33 8 -67 9 -76 2 -9 6 -40 10 -70 10 -77
32 -137 71 -192 l35 -48 -15 -49 c-8 -28 -13 -50 -11 -50 3 0 1 -10 -4 -23
-22 -58 -33 -287 -19 -387 5 -30 10 -70 13 -87 3 -18 9 -52 14 -75 5 -24 13
-68 16 -98 4 -30 8 -57 10 -60 10 -17 20 -205 20 -380 0 -181 -6 -291 -20
-355 -3 -11 -7 -31 -9 -45 -41 -250 -167 -516 -322 -680 -193 -205 -447 -303
-784 -303 -89 0 -249 11 -260 18 -3 2 -30 6 -60 10 -30 4 -58 9 -61 11 -4 2
-24 6 -45 10 -58 9 -257 68 -359 106 l-90 34 0 368 0 368 75 27 c147 52 279
140 417 279 89 90 111 132 99 196 -4 20 -20 52 -37 70 -37 43 -67 52 -149 47
-12 0 -70 -48 -130 -106 -235 -223 -406 -276 -606 -185 -89 40 -146 81 -254
185 -105 101 -127 113 -185 109 -68 -6 -135 -76 -135 -141 0 -56 24 -96 106
-179 136 -136 279 -231 424 -280 l65 -22 0 -368 0 -368 -60 -23 c-33 -13 -112
-40 -175 -59 -137 -42 -125 -39 -245 -64 -158 -33 -248 -42 -400 -42 -109 0
-147 3 -240 18 -324 54 -569 243 -730 563 -35 71 -108 275 -120 336 -35 191
-39 230 -39 450 -1 254 3 313 40 525 32 180 38 234 38 335 0 105 -11 192 -34
288 l-20 79 24 31 c52 70 72 130 90 272 13 100 16 127 21 163 8 68 16 127 21
157 9 53 40 109 78 143 68 59 375 204 646 304 122 45 336 111 393 122 12 2 40
9 62 14 22 6 54 14 70 17 17 3 46 9 65 14 47 11 70 6 97 -21z m358 -238 c50
-19 138 -33 210 -33 76 1 139 9 201 28 27 8 51 15 52 15 2 0 2 -69 0 -152 -4
-174 -15 -208 -88 -270 -121 -104 -307 -67 -383 76 -19 36 -22 60 -25 194 -2
83 -1 152 1 152 3 0 17 -4 32 -10z m3512 -551 c152 -51 273 -178 342 -359 90
-233 75 -531 -39 -769 -106 -221 -283 -378 -467 -417 -54 -11 -93 -12 -93 -3
0 6 20 57 45 114 40 92 74 198 90 280 3 17 7 77 9 135 7 226 -56 424 -208 654
-36 54 -70 115 -76 135 l-10 36 72 65 c40 36 93 84 118 108 43 41 47 42 105
41 33 -1 83 -10 112 -20z m-6257 -129 c64 -58 67 -63 60 -93 -9 -41 -19 -61
-86 -158 -134 -197 -198 -397 -198 -614 0 -159 25 -270 100 -443 25 -56 42
-107 39 -112 -13 -21 -137 10 -227 57 -155 81 -301 263 -367 455 l-18 53 51
56 c63 69 99 133 125 228 26 92 23 228 -6 311 l-20 55 146 71 c80 40 187 99
236 133 50 33 92 61 93 61 2 0 34 -27 72 -60z m425 -357 c22 -12 55 -24 73
-28 40 -8 49 -27 66 -145 15 -101 12 -225 -8 -335 -23 -120 -25 -136 -32 -185
-3 -25 -8 -52 -9 -61 -27 -143 -27 -637 0 -778 2 -10 6 -36 9 -57 42 -263 183
-588 339 -779 191 -234 467 -395 751 -441 21 -3 47 -7 58 -9 92 -18 321 -24
433 -11 33 4 80 9 105 12 167 20 458 96 644 168 l109 43 38 -19 c98 -47 446
-151 579 -172 19 -3 62 -10 95 -16 157 -26 450 -30 570 -7 11 3 38 8 60 12 22
4 50 9 62 11 57 11 210 67 289 107 154 78 296 192 401 322 158 196 293 507
339 784 3 18 7 43 9 54 21 105 28 526 12 682 -5 44 -23 168 -41 275 -39 234
-40 331 -5 483 6 27 16 50 23 52 86 30 131 51 168 79 l45 34 63 -96 c136 -206
176 -321 174 -502 -1 -108 -20 -178 -90 -343 -44 -103 -57 -145 -60 -194 -3
-59 0 -68 61 -190 77 -153 94 -225 91 -373 -4 -119 -23 -205 -69 -300 -24 -51
-58 -91 -152 -185 -151 -151 -176 -197 -240 -451 -53 -211 -92 -299 -166 -373
-93 -91 -294 -177 -484 -208 -49 -7 -130 -48 -172 -87 -23 -21 -60 -74 -89
-128 -92 -174 -234 -286 -409 -321 -74 -15 -184 -14 -243 3 -20 5 -79 8 -131
6 -100 -4 -106 -5 -311 -88 -83 -34 -183 -62 -264 -76 -54 -9 -260 -8 -311 1
-128 22 -185 39 -310 92 -173 74 -264 88 -420 62 -131 -21 -219 -12 -327 33
-130 54 -224 142 -295 276 -81 153 -143 200 -309 234 -116 24 -193 50 -289 97
-181 89 -254 194 -315 453 -63 270 -88 317 -245 475 -94 93 -128 135 -152 185
-47 96 -64 172 -68 295 -5 153 12 222 90 378 61 122 64 131 61 190 -3 49 -16
91 -60 194 -72 169 -89 236 -90 348 0 180 39 292 174 497 l64 97 35 -28 c20
-16 54 -37 76 -48z m-2115 33 c124 -18 179 -21 345 -21 174 0 234 5 360 26 33
6 70 12 83 14 12 2 31 6 41 10 27 8 55 -55 57 -130 4 -105 -56 -196 -159 -238
-54 -23 -702 -25 -766 -2 -108 38 -172 131 -167 245 1 36 10 79 19 96 l16 32
63 -13 c35 -7 83 -16 108 -19z m542 -1328 c3 -735 0 -690 61 -738 59 -47 164
-30 209 33 l23 32 3 539 3 538 50 -72 c127 -180 345 -339 524 -380 28 -7 55
-13 61 -15 7 -2 7 -24 -2 -71 -7 -40 -11 -126 -9 -204 5 -204 49 -354 149
-510 43 -66 72 -98 193 -212 55 -52 84 -104 107 -194 25 -101 28 -93 -71 -200
-384 -416 -655 -864 -832 -1379 -29 -82 -53 -151 -55 -153 -2 -2 -24 2 -47 9
-24 7 -48 13 -54 13 -7 1 -12 295 -15 851 l-5 850 -23 30 c-37 47 -62 59 -122
60 -41 0 -63 -6 -86 -22 -67 -48 -64 -4 -64 -917 l0 -826 -200 0 -200 0 0
1805 0 1805 200 0 199 0 3 -672z m1561 -1759 c95 -136 240 -236 457 -313 62
-22 97 -40 101 -52 4 -11 19 -62 34 -114 101 -369 298 -697 566 -943 155 -143
360 -282 564 -381 l101 -48 17 -60 c22 -74 51 -137 94 -206 18 -29 33 -55 33
-57 0 -3 -558 -5 -1240 -5 l-1240 0 0 63 c-2 242 -105 483 -286 664 l-75 75
17 56 c109 379 310 780 553 1106 107 143 242 299 251 289 3 -4 27 -38 53 -74z
m1073 -790 c164 -113 395 -164 599 -134 125 19 182 13 280 -29 50 -22 91 -41
93 -42 2 -1 -18 -29 -45 -62 -26 -33 -63 -86 -82 -117 -46 -75 -106 -251 -110
-323 -1 -17 -69 18 -191 98 -178 117 -331 257 -445 405 -57 75 -159 235 -149
235 3 0 26 -14 50 -31z m2955 -49 c-149 -250 -388 -475 -673 -634 -62 -34 -68
-36 -68 -18 0 32 -49 190 -77 251 -30 63 -89 155 -135 207 -17 19 -29 36 -27
37 2 1 38 18 79 36 119 53 139 56 254 40 173 -23 281 -16 417 27 89 28 171 66
229 107 19 14 37 23 39 21 2 -2 -15 -35 -38 -74z m-1320 -288 c125 -60 216
-174 267 -335 11 -36 16 -88 16 -172 0 -104 -4 -131 -27 -198 -77 -223 -238
-350 -435 -343 -187 6 -341 146 -408 371 -24 80 -25 269 -2 340 50 153 126
258 233 321 69 40 122 53 210 50 66 -2 91 -8 146 -34z m-4013 -372 c276 -72
471 -307 489 -592 l6 -88 -936 0 c-1079 0 -973 -11 -964 104 23 276 218 505
491 576 63 17 112 19 456 19 344 -1 393 -3 458 -19z M6144 8744 c-156 -32
-298 -150 -377 -314 -59 -123 -76 -204 -72 -345 4 -130 21 -201 74 -310 176
-357 594 -424 851 -137 57 64 122 186 146 277 22 84 26 263 8 350 -8 39 -36
113 -61 165 -114 236 -341 361 -569 314z m184 -313 c42 -21 87 -72 117 -131
77 -149 48 -366 -62 -476 -169 -169 -400 8 -389 299 6 160 79 283 193 322 46
16 91 12 141 -14z M4770 8433 c-96 -24 -175 -91 -218 -183 -82 -172 15 -510
188 -662 132 -115 268 -166 485 -182 38 -3 123 21 167 47 57 33 114 96 140
155 23 51 30 185 15 269 -44 240 -197 429 -417 515 -119 47 -271 64 -360 41z
m169 -297 c91 -12 197 -77 250 -154 50 -71 90 -249 60 -267 -20 -13 -94 -6
-163 15 -151 47 -241 163 -262 339 -7 60 7 83 49 76 12 -2 42 -6 66 -9z M7520
8438 c-261 -35 -478 -210 -558 -453 -29 -85 -37 -137 -36 -240 0 -77 4 -98 27
-146 44 -91 140 -167 232 -185 59 -11 142 -7 231 10 46 9 166 55 209 80 208
122 337 360 331 611 -3 122 -55 216 -154 279 -74 46 -160 60 -282 44z m129
-303 c16 -9 8 -99 -16 -170 -49 -150 -178 -245 -338 -249 l-70 -1 1 50 c2 71
11 113 39 170 55 112 155 184 280 202 22 3 41 7 43 8 6 5 48 -2 61 -10z M4946
5625 c-92 -32 -107 -71 -105 -271 1 -140 3 -157 22 -186 70 -103 216 -92 263
19 10 23 14 78 14 185 0 134 -2 157 -20 185 -37 61 -110 90 -174 68z M7445
5625 c-44 -16 -79 -47 -95 -85 -7 -18 -10 -83 -8 -188 3 -174 7 -188 70 -235
57 -42 159 -17 205 51 19 30 21 46 22 190 1 136 -1 162 -17 192 -37 67 -109
98 -177 75z"/>
</g>
</svg>
