<svg viewBox="0 0 468.046 468.046" xmlns="http://www.w3.org/2000/svg"><g><path fill="currentColor" d="m450.927 311.451-47.856-12.748c.795-3.09.592-1.78.592-32.589 0-8.077-5.25-15.11-12.765-17.103l-46.741-12.448c5.313-11.531 8.721-24.619 10.148-39.173 4.149-42.276-1.131-70.051-14.124-74.296-7.236-2.366-15.587 3.117-23.779 15.489-2.386-8.925-8.573-29.329-19.566-48.323-2.251-3.888-5.745-9.009-10.126-8.491-4.887.567-7.917 7.506-11.432 18.518-2.118-49.319-28.032-80.904-51.133-93.457-27.878-15.149-52.351-4.686-47.022 27.315 4.864 29.196.373 55.759-13.352 79.035-1.054-4.212-1.784-8.138-2.177-11.716-.755-6.836-4.504-10.553-10.039-9.956-8.83.961-19.963 12.792-27.704 29.438-16.448 35.374-14.644 83.625 1.022 115.358l-47.722 12.706c-7.517 1.993-12.768 9.026-12.768 17.103 0 33.405-.062 30.967.154 32.71l-47.418 12.627c-10.066 2.676-17.096 12.106-17.096 22.933v42.1c0 10.33 6.34 19.391 15.776 22.547l203.091 67.881c4.471 1.49 9.204 1.515 13.69.064l219.489-71.28c9.542-3.096 15.953-12.18 15.953-22.603v-38.71c.001-10.826-7.029-20.256-17.095-22.931zm-333.624-117.001c-2.804-26.171.809-51.677 10.173-71.817 8.238-17.717 18.479-26.492 24.509-27.148 3.229-.35 5.121 1.808 5.631 6.418 2.158 19.629 14.321 47.273 23.38 63.265.544.959 1.764 1.299 2.727.753.961-.545 1.298-1.766.753-2.727-.128-.225-12.676-22.477-19.256-44.734 15.762-24.872 21.099-53.453 15.847-84.972-2.037-12.237.385-21.197 7.003-25.912 22.289-15.877 86.721 22.253 83.204 105.768-2.571 8.422-5.652 18.116-9.717 27.028-.459 1.005-.016 2.191.989 2.65 1.007.458 2.192.014 2.649-.99 10.275-22.521 16.061-55.603 21.975-56.29.683-.071 2.654.392 6.203 6.521 12.875 22.247 19.021 46.494 20.102 51.041-4.604 7.891-9.513 18.071-14.602 30.286-.424 1.02.058 2.19 1.077 2.615 1.02.425 2.191-.058 2.616-1.077 8.748-21.001 14.953-30.806 14.76-30.479 7.813-13.216 15.685-19.69 21.612-17.754 8.164 2.668 16.045 22.629 11.386 70.104-2.342 23.896-10.133 43.675-23.143 58.811l-95.221 30.493c-2.539.819-5.228.791-7.775-.082l-78.062-26.85c-16.251-16.39-25.951-38.226-28.82-64.921zm-48.92 71.663c0-6.265 4.027-11.708 9.795-13.237l48.587-12.937c3.266 6.001 7.083 11.576 11.446 16.712l-20.218-6.954c-1.044-.36-2.182.196-2.542 1.241-.359 1.044.196 2.182 1.241 2.542l106.193 36.525c3.27 1.121 6.835 1.225 10.298.107l114.8-36.763c1.052-.337 1.631-1.463 1.294-2.515-.336-1.051-1.456-1.634-2.515-1.295l-12.703 4.068c3.114-4.169 5.886-8.633 8.315-13.379l47.495 12.649c5.766 1.528 9.792 6.972 9.792 13.237v27.97c0 6.036-3.676 11.284-9.146 13.058l-158.601 51.5c-2.536.822-5.212.811-7.739-.035l-146.75-49.05c-4.375-1.461-7.586-5.164-8.655-9.691-.522-2.421-.387-.026-.387-33.753zm395.64 106.98c0 8.684-5.3 16.238-13.188 18.798l-219.488 71.279c-3.662 1.185-7.532 1.167-11.19-.054l-203.089-67.88c-7.802-2.61-13.044-10.146-13.044-18.753v-42.1c0-9.016 5.808-16.857 14.125-19.067l47.312-12.6c1.774 4.965 5.633 8.942 10.7 10.634l146.75 49.05c3.343 1.118 6.886 1.134 10.242.045l158.6-51.5c4.366-1.415 7.847-4.512 9.894-8.484l48.255 12.855c8.316 2.21 14.124 10.051 14.124 19.067v38.71z"/><path fill="currentColor" d="m401.052 336.235-169.655 54.329c-3.659 1.186-7.549 1.144-11.244-.118l-158.311-54.45c-1.045-.361-2.182.196-2.542 1.241-.359 1.044.196 2.183 1.241 2.542l158.315 54.451c4.445 1.519 9.209 1.619 13.768.142l169.649-54.327c1.052-.337 1.631-1.463 1.294-2.515s-1.463-1.632-2.515-1.295z"/><path fill="currentColor" d="m113.705 272.332 109.18 37.551c3.318 1.134 6.881 1.213 10.297.106l118.399-37.916c1.052-.337 1.631-1.463 1.294-2.515s-1.462-1.632-2.515-1.295l-118.405 37.917c-2.53.82-5.219.79-7.774-.083l-109.176-37.55c-1.045-.361-2.183.196-2.542 1.241-.358 1.047.197 2.185 1.242 2.544z"/><path fill="currentColor" d="m153.981 239.403c1.194 0 2.123-1.036 1.99-2.223-2.288-20.403-2.55-53.832 6.484-56.673 4.347-1.368 15.5 3.433 41.326 50.958.528.97 1.74 1.331 2.712.802.97-.527 1.33-1.742.802-2.712-4.712-8.671-8.96-15.972-12.8-22.117 1.195-6.859 11.028-59.288 32.49-62.007 10.409-1.326 28.143 9.402 53.557 67.952.327.754 1.063 1.204 1.836 1.204 1.425 0 2.411-1.467 1.834-2.797-21.496-49.521-40.376-72.524-57.729-70.328-21.74 2.754-32.16 45.981-35.143 61.041-16.846-25.675-25.105-27.375-30.084-25.812-15.107 4.751-9.903 55.198-9.26 60.935.115 1.021.98 1.777 1.985 1.777z"/></g></svg>