<svg xmlns="http://www.w3.org/2000/svg" viewBox="0 0 1024 1024">
<g transform="translate(0,1024) scale(0.1,-0.1)">
<path fill="currentColor" d="M4960 10075 c0 -91 -3 -165 -7 -166 -5 0 -19 -2 -33 -5 -307 -53
-565 -196 -767 -427 -27 -31 -39 -36 -92 -42 l-61 -7 0 166 0 166 -160 0 -160
0 0 -223 0 -223 -69 -48 c-179 -122 -326 -334 -381 -550 l-18 -71 -115 -5
c-125 -5 -147 -14 -191 -74 -19 -25 -21 -45 -26 -264 -3 -130 -7 -225 -8 -209
-1 15 -2 28 -2 30 0 1 -9 34 -19 72 -53 191 -163 353 -321 472 -36 27 -80 55
-98 62 l-32 13 0 189 0 189 -160 0 -160 0 0 -188 0 -189 -27 -12 c-83 -38
-198 -136 -272 -229 -81 -106 -149 -256 -166 -372 -4 -25 -9 -52 -10 -60 -2
-8 -4 -27 -4 -42 -1 -20 -6 -28 -19 -28 -9 0 -34 -9 -54 -19 l-36 -20 -59 47
c-32 26 -80 58 -106 72 l-47 25 0 187 0 188 -160 0 -160 0 0 -188 0 -189 -27
-12 c-167 -76 -340 -280 -407 -481 -31 -96 -36 -123 -43 -245 l-5 -100 -148
-150 c-82 -82 -154 -163 -160 -178 -5 -16 -10 -105 -10 -202 l0 -173 -35 -6
c-47 -9 -102 -59 -115 -104 -8 -26 -10 -1001 -8 -3193 l3 -3156 27 -35 c15
-19 42 -43 61 -52 32 -15 418 -16 5035 -16 l5001 0 43 33 c25 19 48 47 55 67
9 27 12 771 12 3183 1 2899 0 3152 -15 3184 -20 41 -69 81 -112 89 l-32 7 0
173 c0 96 -5 185 -10 201 -6 15 -78 96 -159 178 l-149 150 -5 100 c-11 183
-50 308 -142 444 -78 116 -216 244 -303 280 l-32 13 0 189 0 189 -160 0 -160
0 0 -188 0 -187 -47 -25 c-26 -14 -74 -46 -107 -73 -54 -43 -61 -46 -80 -33
-12 7 -36 17 -54 20 -20 5 -32 14 -33 24 -6 143 -60 307 -144 431 -78 116
-216 244 -303 280 l-32 13 0 189 0 189 -160 0 -160 0 0 -188 0 -189 -27 -12
c-83 -38 -198 -136 -272 -229 -83 -108 -151 -261 -166 -377 -4 -27 -9 -52 -11
-54 -2 -2 -4 96 -4 218 0 250 -4 270 -68 319 -33 25 -45 27 -151 32 -106 5
-116 7 -119 25 -7 45 -44 159 -72 217 -42 91 -98 175 -169 250 l-61 66 0 281
0 281 -160 0 -160 0 0 -185 c0 -102 -2 -185 -5 -185 -2 0 -30 7 -62 15 -65 17
-85 21 -161 30 -46 6 -58 12 -90 48 -205 230 -457 368 -764 421 l-38 7 0 164
0 165 -160 0 -160 0 0 -165z m328 -489 c268 -62 420 -155 593 -363 78 -93 91
-99 224 -107 95 -5 102 -6 177 -29 142 -44 296 -175 366 -313 38 -74 63 -166
69 -248 6 -96 23 -138 71 -174 33 -25 44 -27 144 -30 l108 -4 0 -241 0 -240
-68 66 c-126 125 -327 252 -407 256 -77 4 -280 -120 -416 -255 l-69 -67 -1 34
c-11 519 -338 998 -823 1206 -117 50 -147 51 -242 13 -402 -161 -709 -513
-813 -930 -11 -47 -24 -110 -27 -140 -4 -30 -8 -62 -10 -70 -1 -8 -3 -37 -3
-64 l-1 -49 -68 66 c-124 123 -327 251 -404 256 -76 5 -265 -108 -405 -243
l-83 -79 0 242 0 241 93 1 c115 1 121 2 161 33 45 34 63 77 69 171 11 156 72
289 187 405 113 116 253 178 420 187 138 7 150 12 229 106 90 109 154 167 248
227 161 104 334 151 533 145 69 -2 135 -6 148 -9z m-33 -870 c179 -108 305
-245 398 -431 35 -71 78 -196 93 -270 4 -22 9 -358 11 -747 l4 -708 -641 0
-641 0 4 708 c2 389 7 725 11 747 61 313 265 587 550 736 82 43 83 43 211 -35z
m-2931 -295 c105 -72 192 -200 221 -323 26 -109 59 -98 -305 -98 -364 0 -331
-11 -305 98 31 131 121 257 238 333 66 43 75 42 151 -10z m5760 0 c105 -72
192 -200 221 -323 26 -109 59 -98 -305 -98 -364 0 -331 -11 -305 98 31 131
121 257 238 333 66 43 75 42 151 -10z m-6880 -640 c49 -34 140 -130 161 -170
10 -20 11 -38 5 -67 -5 -21 -11 -52 -14 -69 -3 -16 -10 -46 -16 -65 -5 -19 -9
-37 -8 -40 2 -3 -117 -6 -264 -8 -306 -3 -279 -13 -253 96 31 131 121 257 238
333 66 43 75 42 151 -10z m8000 0 c105 -72 192 -200 221 -323 26 -109 53 -99
-252 -96 -148 2 -267 5 -265 8 1 3 -3 21 -8 40 -6 19 -13 49 -16 65 -3 17 -9
48 -14 69 -6 29 -5 47 5 67 25 46 118 141 178 180 66 43 75 42 151 -10z
m-5466 2 c213 -142 371 -391 411 -648 5 -33 10 -176 10 -317 l2 -258 -482 0
-481 0 5 293 c5 312 10 349 63 486 47 119 114 220 209 316 71 72 182 162 203
165 2 0 29 -17 60 -37z m2880 0 c213 -142 371 -391 411 -648 5 -33 10 -176 10
-317 l2 -258 -482 0 -481 0 5 293 c5 312 10 349 63 486 47 119 114 220 209
316 71 72 182 162 203 165 2 0 29 -17 60 -37z m-3738 -663 l0 -560 -701 0
c-686 0 -700 0 -694 19 3 11 8 30 10 43 3 13 7 34 10 48 3 14 5 27 5 30 0 3 5
21 10 40 6 19 13 50 16 69 3 19 10 45 15 58 5 13 7 23 4 23 -2 0 1 15 6 33 5
17 12 46 15 62 7 42 144 656 150 678 5 16 41 17 580 17 l574 0 0 -560z m5634
543 c5 -18 61 -266 70 -313 2 -14 11 -54 20 -90 8 -36 18 -80 21 -99 3 -19 7
-37 9 -40 2 -3 7 -22 10 -41 3 -19 10 -50 15 -67 5 -18 8 -33 6 -33 -3 0 -1
-10 4 -23 5 -13 12 -39 15 -58 3 -19 10 -50 16 -69 5 -19 9 -35 9 -35 -1 0 1
-13 5 -30 3 -16 8 -39 10 -50 8 -40 27 -121 32 -137 5 -17 -33 -18 -695 -18
l-701 0 0 560 0 560 574 0 c539 0 575 -1 580 -17z m-7274 -640 c0 -10 -5 -36
-10 -58 -5 -22 -11 -53 -14 -70 -9 -44 -15 -77 -21 -105 -3 -14 -7 -36 -10
-50 -3 -14 -7 -36 -10 -50 -3 -14 -8 -38 -11 -55 -3 -16 -7 -37 -9 -45 -2 -8
-4 -18 -4 -22 -1 -5 -152 -8 -336 -8 l-335 0 0 127 0 128 112 112 113 113 267
0 c249 0 268 -1 268 -17z m8407 -95 l113 -113 0 -127 0 -128 -335 0 c-184 0
-335 1 -335 3 0 2 -20 104 -45 227 -25 123 -45 230 -45 237 0 10 53 13 267 13
l268 0 112 -112z m273 -848 l0 -160 -4800 0 -4800 0 0 160 0 160 4800 0 4800
0 0 -160z m-9280 -1200 l0 -720 -160 0 -160 0 0 720 0 720 160 0 160 0 0 -720z
m800 661 c-67 -97 -131 -259 -145 -364 -3 -23 -8 -51 -10 -62 -2 -11 -4 -230
-4 -487 l-1 -468 -160 0 -160 0 0 720 0 720 260 0 260 0 -40 -59z m1440 -661
l0 -720 -160 0 -160 0 0 160 0 160 -160 0 -160 0 0 -160 0 -160 -320 0 -320 0
1 468 c0 424 2 474 19 540 37 143 139 290 253 367 l49 33 49 -35 c109 -78 207
-217 243 -343 22 -79 24 -100 25 -252 l1 -138 161 0 161 0 -5 183 c-3 140 -9
200 -25 259 -29 108 -76 215 -127 292 l-45 66 260 0 260 0 0 -720z m640 0 l0
-720 -160 0 -160 0 0 720 0 720 160 0 160 0 0 -720z m1120 661 c-67 -97 -131
-259 -145 -364 -3 -23 -8 -51 -10 -62 -2 -11 -4 -230 -4 -487 l-1 -468 -320 0
-320 0 0 720 0 720 420 0 420 0 -40 -59z m1760 -661 l0 -720 -320 0 -320 0 0
463 c-1 254 -3 480 -6 502 -18 137 -78 303 -149 409 l-45 66 420 0 420 0 0
-720z m640 0 l0 -720 -160 0 -160 0 0 720 0 720 160 0 160 0 0 -720z m800 661
c-67 -97 -131 -259 -145 -364 -3 -23 -8 -51 -10 -62 -2 -11 -4 -230 -4 -487
l-1 -468 -160 0 -160 0 0 720 0 720 260 0 260 0 -40 -59z m1440 -661 l0 -720
-160 0 -160 0 0 463 c-1 254 -3 480 -6 502 -18 137 -78 303 -149 409 l-45 66
260 0 260 0 0 -720z m640 0 l0 -720 -160 0 -160 0 0 720 0 720 160 0 160 0 0
-720z m-4646 558 c67 -73 121 -173 146 -270 17 -66 19 -116 19 -540 l1 -468
-320 0 -320 0 1 468 c0 424 2 474 19 540 37 143 139 290 253 367 l49 33 49
-35 c27 -19 73 -62 103 -95z m3200 0 c67 -73 121 -173 146 -270 17 -66 19
-116 19 -540 l1 -468 -320 0 -320 0 1 468 c0 424 2 474 19 540 37 143 139 290
253 367 l49 33 49 -35 c27 -19 73 -62 103 -95z m-4192 -1655 c-64 -76 -113
-146 -147 -210 l-27 -53 -1894 0 -1894 0 0 160 0 160 2006 0 2006 0 -50 -57z
m984 42 c270 -52 496 -238 598 -493 37 -91 74 -126 151 -142 131 -27 262 -124
324 -240 64 -120 61 -53 61 -1402 l0 -1228 -160 0 -160 0 0 998 c0 548 -3
1022 -6 1052 -15 132 -73 311 -141 433 -90 162 -180 256 -468 487 -265 212
-277 221 -317 227 -69 11 -92 -3 -346 -206 -339 -271 -422 -360 -520 -556
-100 -201 -119 -312 -121 -697 l-2 -298 161 0 160 0 1 278 c0 152 2 286 4 297
2 11 7 40 10 65 18 123 103 291 201 399 53 58 386 335 417 347 18 7 358 -267
430 -347 69 -76 127 -168 161 -260 55 -147 54 -123 55 -1211 l1 -1008 -640 0
-640 0 0 560 0 560 -160 0 -160 0 0 -560 0 -560 -160 0 -160 0 0 1228 c0 1350
-3 1282 61 1403 61 114 190 210 323 240 78 17 116 53 150 138 99 253 347 458
601 497 22 3 42 7 43 9 9 9 188 2 248 -10z m4654 -145 l0 -160 -640 0 -640 0
0 -160 0 -160 640 0 640 0 0 -1120 0 -1120 -80 0 -80 0 0 543 c-1 298 -3 560
-6 582 -29 215 -129 417 -280 568 -38 38 -122 104 -187 147 -113 76 -119 79
-172 77 -50 -2 -63 -9 -168 -80 -166 -113 -289 -245 -363 -390 -32 -62 -81
-210 -89 -267 -3 -25 -8 -54 -10 -65 -2 -11 -4 -266 -4 -567 l-1 -548 -160 0
-160 0 0 543 c-1 298 -3 560 -6 582 -29 215 -129 417 -280 568 -38 38 -122
104 -187 147 -113 76 -119 79 -172 77 -50 -2 -63 -9 -168 -80 -166 -113 -289
-245 -363 -390 -32 -62 -81 -210 -89 -267 -3 -25 -8 -54 -10 -65 -2 -11 -4
-266 -4 -567 l-1 -548 -80 0 -80 0 -1 918 c0 504 -2 924 -4 932 -1 8 -6 34 -9
57 -14 91 -64 214 -120 296 l-25 37 879 0 880 0 0 160 0 160 -1094 0 -1094 0
-27 53 c-34 64 -83 134 -147 210 l-50 57 2006 0 2006 0 0 -160z m-6266 -517
c-56 -82 -106 -205 -120 -296 -3 -23 -8 -49 -9 -57 -2 -8 -4 -428 -4 -932 l-1
-918 -80 0 -80 0 0 543 c-1 298 -3 560 -6 582 -29 215 -129 417 -280 568 -38
38 -122 104 -187 147 -113 76 -119 79 -172 77 -50 -2 -63 -9 -168 -80 -166
-113 -289 -245 -363 -390 -32 -62 -81 -210 -89 -267 -3 -25 -8 -54 -10 -65 -2
-11 -4 -266 -4 -567 l-1 -548 -160 0 -160 0 0 543 c-1 298 -3 560 -6 582 -29
215 -129 417 -280 568 -38 38 -122 104 -187 147 -113 76 -119 79 -172 77 -50
-2 -63 -9 -168 -80 -166 -113 -289 -245 -363 -390 -32 -62 -81 -210 -89 -267
-3 -25 -8 -54 -10 -65 -2 -11 -4 -266 -4 -567 l-1 -548 -80 0 -80 0 0 1120 0
1120 1680 0 1679 0 -25 -37z m-2380 -765 c67 -73 121 -173 146 -270 17 -67 19
-117 19 -620 l1 -548 -320 0 -320 0 1 548 c0 503 2 553 19 620 37 143 139 290
253 367 l49 33 49 -35 c27 -19 73 -62 103 -95z m1600 0 c67 -73 121 -173 146
-270 17 -67 19 -117 19 -620 l1 -548 -320 0 -320 0 1 548 c0 503 2 553 19 620
37 143 139 290 253 367 l49 33 49 -35 c27 -19 73 -62 103 -95z m4800 0 c67
-73 121 -173 146 -270 17 -67 19 -117 19 -620 l1 -548 -320 0 -320 0 1 548 c0
503 2 553 19 620 37 143 139 290 253 367 l49 33 49 -35 c27 -19 73 -62 103
-95z m1600 0 c67 -73 121 -173 146 -270 17 -67 19 -117 19 -620 l1 -548 -320
0 -320 0 1 548 c0 503 2 553 19 620 37 143 139 290 253 367 l49 33 49 -35 c27
-19 73 -62 103 -95z m-5754 -1918 l0 -160 -1600 0 -1600 0 0 160 0 160 1600 0
1600 0 0 -160z m6400 0 l0 -160 -1600 0 -1600 0 0 160 0 160 1600 0 1600 0 0
-160z M3840 8480 l0 -160 80 0 80 0 0 160 0 160 -80 0 -80 0 0 -160z M6240
8480 l0 -160 80 0 80 0 0 160 0 160 -80 0 -80 0 0 -160z M2080 7120 l0 -240
160 0 160 0 0 240 0 240 -160 0 -160 0 0 -240z M7840 7120 l0 -240 160 0 160
0 0 240 0 240 -160 0 -160 0 0 -240z"/>
</g>
</svg>
