<svg xmlns="http://www.w3.org/2000/svg" viewBox="0 0 1024 1024">
<g transform="translate(0,1024) scale(0.1,-0.1)">
<path fill="currentColor" d="M4820 7725 c0 -2005 -3 -2515 -12 -2516 -44 -3 -519 -1 -522 2 -2 2
-169 414 -371 914 -202 501 -450 1113 -550 1360 -170 420 -263 651 -712 1760
-95 237 -183 453 -195 481 l-20 51 -257 -104 c-141 -56 -266 -107 -278 -112
l-22 -10 40 -98 c22 -54 315 -777 651 -1608 336 -830 713 -1762 838 -2070 163
-401 223 -561 214 -565 -7 -3 -225 -5 -485 -4 l-471 1 5 -351 c3 -193 8 -364
11 -381 3 -16 7 -50 11 -75 3 -25 10 -72 16 -105 5 -33 12 -70 14 -83 2 -12 6
-30 9 -40 3 -9 7 -28 10 -42 13 -67 71 -254 112 -358 62 -157 132 -294 253
-497 56 -93 100 -173 99 -176 -2 -4 -39 -51 -83 -104 -407 -492 -697 -1110
-809 -1725 -13 -74 -28 -166 -31 -205 -4 -38 -10 -79 -12 -90 -3 -11 -8 -235
-10 -498 l-5 -477 2862 0 2862 0 -5 477 c-2 263 -7 489 -10 503 -3 14 -8 48
-11 75 -11 95 -18 140 -37 240 -11 55 -22 111 -25 125 -2 14 -20 83 -40 153
-145 527 -423 1054 -768 1457 -31 36 -56 68 -56 72 0 3 47 84 104 180 124 207
187 332 250 492 71 179 143 458 162 629 3 29 8 63 11 77 3 14 7 183 10 376 l5
351 -481 0 c-265 0 -483 2 -485 4 -1 2 224 564 501 1249 989 2443 1243 3073
1243 3084 0 16 -538 232 -549 220 -5 -5 -422 -1030 -926 -2279 -505 -1248
-919 -2272 -921 -2274 -3 -3 -478 -5 -521 -2 -10 1 -13 511 -13 2516 l0 2515
-300 0 -300 0 0 -2515z m2136 -3192 c-8 -110 -51 -308 -95 -443 -52 -157 -134
-324 -267 -545 l-109 -180 -1365 0 -1365 0 -103 170 c-188 312 -300 574 -338
795 -3 14 -9 50 -15 80 -5 30 -12 87 -15 126 l-6 70 1842 0 1842 0 -6 -73z
m-399 -1808 c20 -22 59 -66 87 -99 28 -32 56 -64 62 -70 25 -26 185 -248 233
-324 124 -195 248 -476 315 -714 35 -123 79 -329 91 -423 3 -27 7 -66 10 -85
2 -19 6 -55 9 -80 3 -25 8 -109 11 -187 l7 -143 -2262 0 -2262 0 6 143 c4 78
8 158 11 177 2 19 6 55 9 80 14 121 19 154 42 270 103 523 324 962 692 1380
l101 115 1401 0 1401 0 36 -40z"/>
</g>
</svg>
