<svg viewBox="0 0 3000 3000" xmlns="http://www.w3.org/2000/svg"><g transform="translate(-1686)"><g transform="matrix(1.061 0 0 1.061 -123.189 -17.905)"><g><path fill="currentColor" clip-rule="evenodd" d="m2146.013 1269.107c-116.298-21.179-98.868-16.708-188.981 39.35-88.377 68.11-14.801 74.495 23.863 121.566-70.898 90.538 27.108 129.286 96.691 174.566 132.573 71.445 131.605 4.769 198.387-37.943 41.209 141.927-27.474 275.442 24.836 421.809 29.704 88.626 98.25 160.884 110.308 256.594 20.698 151.373 53.544 151.95 98.774 226.365 41.474 77.894 19.852 251.106 125.313 297.864 100.198 39.131 123.19-67.423 163.56-97.162 31.161-26.385 74.694-49.049 108.456-81.834 68.593-66.324 20.332-96.389 27.131-154.646 31.649-111.266 54.656-106.039 23.161-203.7-7.357-26.464-16.061-49.093-16.761-73.238 39.901-66.338 124.151-63.235 176.112-115.475 85.757-86.989 162.336-181.493 244.639-272.012 21.057-23.057 40.76-47.525 68.359-63.078 137.464-93.776-26.684-90.177 177.136-160.106 24.157-11.718 44.864-27.361 59.275-51.916 56.97-100.675-113.516-297.917-41.956-358.082 6.46-5.9 10.216-5.999 18.057-.547 76.883 85.344 86.68 76.379 178.132 83.97-27.494 50.217-48.885 126.679 3.034 180.045 28.016 19.061 67.921 2.325 99.212.265 82.49 196.611 138.601 94.727 130.62 46.881-1.027-41.669-77.814-120.153-23.729-142.144 23.323-6.202 56.63-5.818 73.705-25.088 22.124-29.036 51.293-101.421 38.638-129.777-31.98-70.283-24.818-60.824 17.168-115.588 87.749-97.714 136.361-80.805 153.14-106.91 56.425-111.566-202.003-203.468-287.833-165.988-31.136 11.323-61.131 40.289-90.848 72.647-38.256 47.535-75.502 76.8-72.091 136.872-28.828 5.848-134.531 18.627-164.942 20.654-15.529-27.322-19.496-67.786-45.166-90.518-29.821-32.759-116.021-21.797-125.531 18.517-14.575 77.946 53.086 151.46-72.475 131.444-49.559-15.148-97.961-49.969-143.991-66.243-146.968-38.039-159.007 53.621-280.282-85.328-17.256-17.495-39.072-26.345-71.772-44.77 54.442-78.71 78.553-120.229-14.482-167.442-118.111-62.695-135.212-81.479-90.691-113.252 119.953-73.782 26.467-116.385 31.943-176.386 10.167-30.63 33.943-51.986 50.536-79.437 21.171-31.938 27.311-64.584 14.18-90.979-82.914-132.002-165.828 33.998-225.868-13.962-49.137-25.631-116.511-83.756-152.924-105.533-170.824-76.832-315.853 23.294-179.577 153.919 11.714 18.639 8.111 31.011 7.092 57.094-3.439 56.573-6.948 115.145 13.687 166.213 30.06 54.907 100.138 79.602 64.376 116.527-22.519 26.94-58.474 54.366-78.392 77.892-52.545 63.441-60.574 171.59-126.853 227.513-43.494 41.549-102.959 2.589-155.816 7.2-87.631.525-105.172 106.58-92.179 130.963 8.393 23.266 35.798 39.633 47.801 57.063 27.371 40.322 72.008 116.658 75.818 165.291zm723.164-765.826c-5.685 12.242-19.452 20.704-31.531 28.749-165.577 113.153 104.253 189.825 121.157 220.736 10.433 24.498-38.48 71.568-42.698 88.646-32.115 49.471 48.182 61.93 72.972 83.336 27.918 23.016 53.395 57.737 85.879 78.468 76.187 50.14 167.651-5.155 235.553 30.632 79.662 39.179 191.616 114.783 257.434 26.437 20.922-39.43-3.286-84.858-1.033-123.375 41.387-24.221 63.434-1.805 72.613 32.56 12.107 37.211 25.807 73.238 61.73 67.8 38.513-2.895 163.466-18.939 180.105-24.095 13.751-4.333 22.915-18.038 24.313-35.133 1.009-42.35 1.004-35.849 16.43-57.592 33.413-45.656 80.18-103.31 122.136-117.395 76.349-19.21 223.69 36.167 232.947 98.641-73.485 29.532-96.005 47.636-150.266 105.075-118.63 133.675 18.654 115.111-44.926 223.294-10.68 23.46-9.957 24.707-33.427 27.984-171.218 23.394-18.896 190.578-39.389 207.6-52.313-66.55-40.792-98.859-70.088-106.165-25.877-7.651-57.496 8.041-86.672 7.027-39.791-49.176.656-108.999 17.469-147.459 10.038-18.715 1.403-35.972-14.73-40.73-166.973-6.552-109.017-13.718-192.75-79.993-35.75-24.37-77.227 4.144-93.351 42.977-13.715 37.772-4.02 73.038 5.678 108.608 69.285 205.219 105.541 230.744-47.958 282.382-28.856 11.986-61.613 28.666-72.155 59.801-8.42 28.67-.694 46.416-26.481 63.582-57.223 36.273-75.358 58.717-98.798 85.303-74.969 82.769-145.027 167.521-221.277 247.979-55.242 72.518-177.463 69.801-209.332 158.202-2.763 12.156-1.654 27.973 1.606 43.396 48.239 158.44 24.137 112.885-8.174 231.049-14.039 72.554 36.574 94.803-19.866 141.232-34.572 30.639-80.84 55.713-109.058 81.727-42.415 39.627-59.036 117.41-121.219 78.34-60.483-42.573-60.735-194.683-80.41-242.889-46.896-104.156-89.868-100.136-102.936-218.305-27.065-194.478-139.3-222.032-134.24-417.157-1.416-109.542 63.649-471.489-143.003-255.28-47.183 13.261-130.472-55.244-150.1-66.992-64.204-42.78-11.516-46.669-3.685-90.508-1.772-33.406-44.205-57.711-62.045-73.716 124.166-95.92 98.865-40.969 193.441-45.776 85.361-12.188-28.989-201.08-50.953-231.289-42.551-49.675-66.388-52.397-22.384-111.081 46.399-29.101 112.004 14.61 164.656-.81 127.427-41.269 126.847-219.168 196.489-276.363 27.278-25.803 65.538-57.174 78.712-87.894 9.621-19.645 4.456-44.911-11.089-66.108-18.746-26.808-45.535-43.124-62.238-68.553-37.322-98.188 20.476-192.376-37.345-246.905-99.21-95.023 39.174-111.823 114.63-83.743 44.431 17.143 102.976 75.073 161.203 107.639 95.913 66.053 149.833-47.328 197.379-21.419 77.724 50.077-71.537 126.513-47.39 196.248 5.195 21.523 25.359 59.094 28.465 81.275z" fill-rule="evenodd"/></g></g></g></svg>