<svg xmlns="http://www.w3.org/2000/svg" data-name="Layer 1" viewBox="0 0 512 512"><path fill="currentColor" d="M488.329,108.44H23.671A12.685,12.685,0,0,0,11,121.111V390.89a12.685,12.685,0,0,0,12.671,12.67H488.329A12.685,12.685,0,0,0,501,390.89V121.111A12.685,12.685,0,0,0,488.329,108.44ZM21,207.049H223.328a58.9,58.9,0,0,0,0,97.9H21ZM250.862,242.01q-.7.248-1.362.557l-24.394-24.394a48.734,48.734,0,0,1,25.756-10.835Zm5.276,9.073a5.776,5.776,0,1,1-5.776,5.775A5.782,5.782,0,0,1,256.138,251.083Zm-13.912-1.648A15.53,15.53,0,0,0,241.5,251H207.441a48.717,48.717,0,0,1,10.627-25.723ZM240.932,261a15.661,15.661,0,0,0,.735,2.124l-23.6,23.6A48.717,48.717,0,0,1,207.441,261Zm7.432,9.568a15.669,15.669,0,0,0,2.5,1.139v32.954a48.73,48.73,0,0,1-25.756-10.834Zm12.5,34.15V271.91a15.694,15.694,0,0,0,2.7-1.14l23.3,23.3A48.708,48.708,0,0,1,260.862,304.718Zm9.567-41.222a15.593,15.593,0,0,0,.915-2.5h33.492a48.725,48.725,0,0,1-10.871,26.032Zm.345-12.5a15.723,15.723,0,0,0-.925-1.916l24.117-24.116A48.732,48.732,0,0,1,304.836,251Zm-8.371-8.613a15.639,15.639,0,0,0-1.541-.58V207.281a48.723,48.723,0,0,1,26,10.648ZM491,390.89a2.674,2.674,0,0,1-2.671,2.67H23.671A2.674,2.674,0,0,1,21,390.89V314.95H491Zm0-85.94H288.948a58.9,58.9,0,0,0,0-97.9H491Zm0-107.9H21V121.111a2.674,2.674,0,0,1,2.671-2.671H488.329A2.674,2.674,0,0,1,491,121.111Z"/></svg>