<svg xmlns="http://www.w3.org/2000/svg" viewBox="0 0 1024 1024">
<g transform="translate(0,1024) scale(0.1,-0.1)">
<path fill="currentColor" d="M4455 10226 c-17 -7 -42 -27 -56 -44 -15 -16 -110 -173 -213 -348
l-188 -319 -647 0 -648 0 -42 -28 c-28 -19 -49 -44 -62 -73 -19 -41 -20 -64
-17 -302 3 -233 5 -260 22 -289 35 -58 73 -78 147 -78 56 0 71 4 101 27 60 46
70 80 70 248 0 105 3 149 11 152 7 2 995 3 2197 2 l2185 -1 0 -489 0 -489
-2666 -5 -2666 -5 -35 -27 c-69 -52 -69 -57 -70 -459 l0 -359 -431 0 c-403 0
-435 -2 -474 -19 -123 -57 -128 -235 -8 -304 11 -7 76 -14 145 -17 l125 -5 2
-1747 2 -1748 -112 0 c-136 0 -181 -17 -223 -80 -58 -87 -19 -212 79 -249 19
-8 381 -11 1153 -11 892 0 1124 -3 1125 -12 3 -42 4 -2776 1 -2790 -4 -17 -52
-18 -843 -18 l-839 0 0 555 0 554 503 3 c467 3 504 4 532 21 46 28 77 80 83
137 6 64 -31 131 -88 160 -38 19 -59 20 -535 20 l-495 0 -1 380 c-1 209 -2
383 -4 388 -1 4 -5 19 -9 34 -11 38 -78 96 -119 103 -77 15 -144 -15 -182 -79
l-26 -45 -2 -388 -2 -388 -125 -5 c-69 -3 -134 -10 -145 -17 -98 -56 -118
-203 -38 -275 40 -36 89 -48 202 -48 l110 0 -2 -552 -2 -553 -276 -5 -276 -5
-36 -28 c-45 -34 -68 -76 -69 -126 -1 -76 33 -133 96 -162 40 -18 172 -19
4446 -19 4274 0 4406 1 4446 19 118 54 130 216 21 293 -31 22 -41 23 -307 28
l-275 5 -2 553 -1 552 109 0 c141 0 199 22 234 90 46 89 0 210 -91 240 -18 6
-81 12 -141 13 l-108 2 -1 683 -2 682 113 0 c63 0 126 5 142 11 98 37 137 162
79 249 -42 63 -87 80 -222 80 l-112 0 0 1750 0 1750 114 0 c124 0 163 10 202
53 77 82 51 216 -51 268 -23 12 -43 21 -44 20 -2 0 -1578 -1 -3503 -1 l-3500
0 0 255 0 255 2998 1 c1648 0 3005 2 3014 4 38 7 90 49 109 88 43 83 8 192
-74 231 -30 14 -77 16 -321 16 l-286 0 -2 603 -3 603 -27 41 c-14 22 -43 48
-65 59 -37 18 -96 18 -1600 19 -860 0 -1563 2 -1563 5 0 3 49 88 109 190 l109
185 578 5 c414 4 585 8 599 17 28 16 69 63 82 93 12 30 10 95 -4 130 -12 28
-56 71 -89 88 -34 18 -1289 16 -1329 -2z m4205 -3504 l0 -277 -3172 0 c-2899
-1 -3176 -2 -3203 -17 -129 -69 -131 -245 -3 -307 l44 -21 3167 0 3167 0 0
-1300 0 -1300 -842 0 -843 0 -1 138 c-1 248 -25 407 -94 614 -254 763 -960
1272 -1765 1272 -90 0 -218 -9 -265 -19 -13 -2 -42 -7 -65 -10 -63 -10 -186
-42 -278 -75 -545 -192 -965 -620 -1147 -1170 -69 -205 -93 -364 -94 -612 l-1
-138 -842 0 -843 0 0 1750 0 1750 3540 0 3540 0 0 -278z m-3395 -1547 c490
-39 949 -346 1192 -796 54 -98 119 -274 138 -369 1 -3 4 -18 8 -35 21 -93 29
-180 31 -332 1 -74 0 -136 -4 -138 -3 -2 -55 -5 -116 -6 -146 -2 -192 -25
-229 -113 -33 -79 2 -168 82 -210 29 -14 137 -16 1163 -16 l1130 0 0 -685 0
-685 -840 0 c-462 0 -840 3 -841 8 -1 4 -2 126 -3 272 -2 285 -4 297 -58 347
-81 75 -211 50 -266 -52 -14 -27 -16 -130 -17 -1025 l0 -995 -1515 -3 -1515
-2 0 1407 0 1408 125 5 c97 4 132 9 155 23 69 42 100 132 70 203 -37 88 -83
111 -229 113 -61 1 -113 4 -116 6 -8 5 -5 251 4 326 8 64 14 105 22 139 3 14
8 36 10 50 9 50 67 215 102 289 231 490 718 830 1239 867 49 4 89 8 90 9 4 2
101 -3 188 -10z m3395 -4280 l0 -555 -842 2 -842 3 -1 545 c0 300 1 548 3 553
2 4 381 7 843 7 l839 0 0 -555z M2377 5499 c-155 -23 -278 -163 -283 -322 -6
-163 92 -296 250 -342 180 -52 381 69 421 255 50 230 -152 443 -388 409z
M7750 5498 c-187 -33 -315 -223 -275 -408 31 -144 165 -259 311 -266 207 -10
368 149 360 354 -8 204 -196 356 -396 320z"/>
</g>
</svg>
