<svg xmlns="http://www.w3.org/2000/svg" viewBox="0 0 1024 1024">
<g transform="translate(0,1024) scale(0.1,-0.1)">
<path fill="currentColor" d="M4969 10142 c-233 -155 -425 -316 -629 -525 l-86 -87 -114 -31 c-950
-249 -1699 -809 -2070 -1549 -87 -173 -176 -416 -194 -534 -4 -21 -8 -41 -10
-45 -2 -3 -7 -26 -10 -51 -3 -25 -8 -56 -11 -70 -30 -144 -27 -515 4 -690 6
-30 12 -66 15 -80 19 -110 90 -337 144 -460 183 -419 504 -816 881 -1090 l69
-50 -23 -88 c-92 -343 -261 -661 -497 -937 -93 -108 -220 -231 -308 -298 -25
-18 -85 -48 -135 -66 -634 -232 -1133 -780 -1304 -1431 -16 -63 -32 -128 -35
-145 -2 -16 -7 -50 -11 -75 -4 -25 -10 -56 -13 -70 -3 -14 -7 -418 -9 -898
l-4 -872 4501 0 4501 0 -4 872 c-2 480 -6 882 -9 893 -3 11 -9 40 -12 65 -3
25 -8 56 -11 70 -3 14 -8 39 -11 55 -27 151 -107 374 -197 545 -124 236 -335
492 -547 661 -158 127 -395 260 -585 329 -111 41 -166 81 -320 235 -304 303
-514 665 -624 1076 l-20 74 26 20 c213 162 438 374 559 525 267 332 432 678
509 1065 35 178 36 184 40 390 3 170 -2 261 -19 370 -3 19 -9 52 -12 73 -3 20
-7 45 -10 54 -3 9 -7 25 -9 35 -38 186 -129 429 -233 618 -121 221 -269 413
-471 615 -340 337 -747 588 -1236 760 -79 28 -307 97 -350 106 -11 2 -33 7
-50 10 -20 5 -65 41 -135 113 -148 149 -267 255 -409 365 -71 55 -353 246
-362 246 -2 -1 -70 -44 -150 -98z m201 -668 c177 -141 371 -335 502 -504 182
-235 290 -455 332 -678 13 -70 15 -207 3 -257 -3 -11 -8 -45 -11 -75 -4 -30
-10 -78 -14 -106 l-8 -51 120 -68 c67 -38 146 -88 177 -111 154 -118 280 -311
323 -495 15 -62 13 -67 -19 -46 -62 42 -272 110 -385 125 -74 9 -281 9 -353
-1 -148 -20 -349 -100 -490 -194 -40 -26 -107 -81 -150 -122 l-78 -74 -62 59
c-34 32 -64 61 -67 64 -23 23 -99 76 -161 113 -130 77 -301 137 -439 155 -74
9 -281 9 -353 -1 -105 -15 -309 -81 -373 -122 -12 -8 -24 -12 -27 -9 -8 9 31
139 62 209 57 125 160 255 271 340 30 23 110 73 177 110 67 38 120 71 119 74
-4 6 -9 42 -22 149 -3 26 -8 58 -11 72 -14 69 -10 200 8 289 61 292 248 598
553 905 108 109 310 286 325 286 3 0 26 -16 51 -36z m-1465 -842 c-14 -43 -28
-90 -31 -103 -3 -13 -7 -33 -10 -44 -20 -80 -35 -180 -40 -268 l-6 -102 -41
-34 c-131 -107 -275 -277 -361 -426 -90 -157 -165 -378 -182 -537 -4 -35 -8
-70 -10 -78 -1 -8 -3 -334 -3 -725 l-1 -709 -51 49 c-246 240 -467 643 -515
935 -2 14 -6 35 -9 47 -21 90 -27 368 -12 493 38 313 200 667 427 935 138 163
320 324 497 443 116 77 363 215 371 207 2 -1 -9 -39 -23 -83z m3010 -20 c209
-119 368 -241 541 -415 266 -268 437 -563 518 -892 31 -128 41 -218 41 -385 0
-167 -6 -225 -39 -370 -72 -316 -267 -662 -505 -895 l-51 -49 -1 709 c0 391
-2 717 -3 725 -2 8 -6 41 -10 73 -36 338 -240 713 -511 939 -72 60 -75 64 -76
108 -3 146 -32 309 -84 472 -14 42 -25 80 -25 83 0 7 101 -44 205 -103z
m-2362 -2008 c243 -55 438 -274 463 -519 l7 -65 297 0 297 0 7 65 c23 224 180
419 404 503 85 31 226 39 322 17 200 -46 360 -189 439 -393 26 -67 26 -69 26
-347 0 -308 -4 -353 -39 -500 -132 -543 -558 -969 -1101 -1101 -55 -13 -127
-27 -160 -31 -77 -10 -325 -10 -392 0 -611 87 -1105 526 -1253 1112 -41 162
-45 205 -45 520 0 278 0 280 26 347 77 199 234 342 429 392 71 18 194 18 273
0z m-788 -2293 c169 -183 399 -361 583 -451 l71 -35 1 -102 0 -103 -600 0
-600 0 49 68 c141 196 289 477 367 699 l18 52 31 -37 c16 -20 52 -61 80 -91z
m3356 -199 c70 -144 156 -291 240 -409 l59 -83 -600 0 -600 0 0 100 0 100 71
37 c89 48 268 165 345 227 81 65 247 229 302 299 l45 57 38 -101 c21 -56 66
-158 100 -227z m-1806 -487 c88 0 193 3 233 7 l72 8 0 -310 0 -310 556 0 555
0 -22 -32 c-71 -102 -221 -232 -364 -316 -125 -74 -386 -173 -513 -197 -15 -3
-38 -7 -52 -10 -14 -3 -41 -8 -60 -10 -19 -3 -44 -7 -55 -10 -57 -12 -199 -20
-355 -20 -218 0 -306 9 -499 52 -376 82 -703 270 -872 501 l-31 42 556 0 556
0 0 310 0 310 68 -7 c37 -5 139 -8 227 -8z m-2095 -1814 l0 -1211 -72 0 -73 0
-600 857 c-330 471 -626 894 -657 939 l-57 82 98 99 c118 118 233 202 381 278
105 54 276 117 350 129 19 3 46 8 60 11 14 3 48 8 75 11 28 4 51 8 53 9 2 1
102 3 222 4 l220 2 0 -1210z m4720 1194 c359 -66 614 -198 851 -438 l88 -89
-57 -82 c-31 -45 -327 -468 -657 -939 l-600 -857 -72 0 -73 0 0 1211 0 1211
243 -5 c133 -3 258 -8 277 -12z m-3990 -826 c244 -151 623 -286 910 -323 25
-3 55 -8 68 -10 139 -28 607 -28 773 -1 13 2 45 6 71 10 26 3 53 7 60 10 7 2
29 6 48 9 174 27 469 125 654 218 70 35 172 95 259 152 l27 18 0 -831 0 -831
-1500 0 -1500 0 0 831 0 831 28 -18 c15 -10 61 -39 102 -65z m-2054 -941 c236
-336 433 -617 437 -625 7 -11 -69 -13 -453 -13 l-461 0 4 553 c2 303 7 568 12
587 13 60 13 64 14 88 1 12 5 22 10 22 5 0 202 -275 437 -612z m7291 600 c1
-19 14 -87 21 -112 3 -11 7 -270 9 -573 l4 -553 -461 0 c-384 0 -460 2 -453
14 30 49 867 1236 873 1236 3 0 7 -6 7 -12z M4905 8330 l-210 -210 213 -213
212 -212 212 212 213 213 -210 210 c-115 115 -212 210 -215 210 -3 0 -100 -95
-215 -210z"/>
</g>
</svg>
