<svg viewBox="0 0 512 512" xmlns="http://www.w3.org/2000/svg"><g data-name="43.Kumbh Kalash"><path fill="currentColor" d="m288.3635 179.4069a5.9993 5.9993 0 0 1 -5.8914-4.8672c-5.46-28.4033-18.8984-51.4966-26.4231-62.7344-7.6239 11.2373-21.0625 34.33-26.5227 62.7344a6 6 0 0 1 -9.7817 3.4355 150.2847 150.2847 0 0 0 -40.3268-24.1011 6.0005 6.0005 0 0 1 -3.7073-5.28c-.1433-3.21-.2159-6.5035-.2159-9.7876 0-56.9468 46.2794-105.2984 66.1768-123.4434a21.158 21.158 0 0 1 28.6577.0015c19.8958 18.1435 66.1753 66.4951 66.1753 123.4419 0 3.291-.0727 6.5874-.216 9.7978a6 6 0 0 1 -3.7123 5.2818 149.7768 149.7768 0 0 0 -40.3222 24.0888 5.9987 5.9987 0 0 1 -3.8904 1.432zm-100.7976-35.1109a165.7059 165.7059 0 0 1 32.3113 18.4766c6.6991-26.0762 18.9237-46.9248 26.1016-57.6441a12.0637 12.0637 0 0 1 20.0394-.0029c7.18 10.7227 19.404 31.5713 26.103 57.646a165.0369 165.0369 0 0 1 32.3119-18.4687c.0473-1.8213.0713-3.6592.0713-5.4961 0-52.1661-43.5422-97.5049-62.2626-114.5762a9.214 9.214 0 0 0 -12.483-.0015c-18.7221 17.0728-62.2642 62.4116-62.2642 114.5777 0 1.8332.0239 3.6689.0713 5.4892z"/><path fill="currentColor" d="m256.0044 215.0367a6 6 0 0 1 -4.83-2.44 247.7127 247.7127 0 0 0 -24.2228-27.9867c-2.2652-2.2656-4.6876-4.4956-7.2-6.6284a6 6 0 0 1 -2.0094-5.7071c5.86-30.4833 20.2064-55.1533 28.2366-67.1455a12.0637 12.0637 0 0 1 20.0394-.0029c8.0322 11.9961 22.3786 36.6665 28.2381 67.1484a6.0007 6.0007 0 0 1 -2.009 5.7071c-2.5123 2.1328-4.935 4.3628-7.2 6.6284a246.58 246.58 0 0 0 -24.21 27.9839 6 6 0 0 1 -4.83 2.4433zm-25.7912-43.8535c1.8029 1.6148 3.5517 3.2686 5.2241 4.9414a266.5281 266.5281 0 0 1 20.5645 23.0264 265.6329 265.6329 0 0 1 20.56-23.0269c1.6726-1.6723 3.4213-3.3261 5.2237-4.94-5.83-26.8618-18.51-48.5864-25.7362-59.3784-7.3217 10.7911-20.0054 32.5143-25.8361 59.3775z"/><path fill="currentColor" d="m245.9843 229.9669h-69.42a6 6 0 0 1 -4.495-2.0259c-25.3042-28.6186-35.1776-63.6967-38.8108-82.06a12.0485 12.0485 0 0 1 14.1642-14.16c16.3372 3.2276 57.6292 14.0176 88.0142 44.4028a259.7907 259.7907 0 0 1 25.3972 29.3526 6 6 0 0 1 -.0026 7.1235c-3.6 4.877-6.8661 9.7427-9.7069 14.4614a6 6 0 0 1 -5.1403 2.9056zm-66.6771-12h63.3251c1.8387-2.9238 3.8173-5.8852 5.9177-8.8574a251.6547 251.6547 0 0 0 -21.5984-24.5c-28.0564-28.0566-66.5936-38.1006-81.86-41.1167 2.6089 13.5459 11.2267 47.3072 34.2156 74.4741z"/><path fill="currentColor" d="m335.4345 229.9669h-89.45a6 6 0 0 1 -5.1407-9.0937c8.9309-14.8394 21.282-30.313 35.7179-44.7491 30.3994-30.3886 71.6821-41.1762 88.02-44.4038a12.0485 12.0485 0 0 1 14.16 14.1519l-.0011.0059c-3.6189 18.3471-13.4734 53.4052-38.8116 82.0629a6 6 0 0 1 -4.4945 2.0259zm-78.44-12h75.6969c23.019-27.1977 31.6161-60.9277 34.2753-74.4062a.1748.1748 0 0 0 .0045-.0391c-15.3263 2.9863-53.8552 13.0283-81.9254 41.0884a241.739 241.739 0 0 0 -28.051 33.3569z"/><path fill="currentColor" d="m114.0722 319.5968a6 6 0 0 1 -4.477-9.9922l.23-.26 7.815-8.746a6 6 0 0 1 8.9482 7.996l-8.0351 8.9942a5.9845 5.9845 0 0 1 -4.4811 2.008z"/><path fill="currentColor" d="m315.7544 472.817h-119.51a80.34 80.34 0 0 1 -59.823-26.771l-26.59-29.74a80.36 80.36 0 0 1 -13.4341-86.259 6 6 0 1 1 10.9541 4.8994 68.3457 68.3457 0 0 0 11.4264 73.3618l26.59 29.74a68.3259 68.3259 0 0 0 50.8771 22.769h119.51a68.3255 68.3255 0 0 0 50.8769-22.769l26.59-29.74a68.1975 68.1975 0 0 0 0-90.9721l-46.9418-52.5093h-180.5613l-22.2311 24.8686a6 6 0 1 1 -8.9465-7.997l24.02-26.87a6 6 0 0 1 4.4733-2.0014h185.93a6.0009 6.0009 0 0 1 4.4732 2.001l48.73 54.51a80.1879 80.1879 0 0 1 0 106.9673l-26.59 29.7407a80.3393 80.3393 0 0 1 -59.8232 26.771z"/><path fill="currentColor" d="m363.42 264.8253h-214.84a20.608 20.608 0 0 1 -20.5844-20.5845v-5.6855a20.608 20.608 0 0 1 20.5844-20.5845h214.84a20.6078 20.6078 0 0 1 20.5842 20.5845v5.6855a20.6078 20.6078 0 0 1 -20.5842 20.5845zm-214.84-34.8545a8.5943 8.5943 0 0 0 -8.5844 8.5845v5.6855a8.5943 8.5943 0 0 0 8.5844 8.5845h214.84a8.5941 8.5941 0 0 0 8.5842-8.5845v-5.6855a8.5941 8.5941 0 0 0 -8.5842-8.5845z"/><path fill="currentColor" d="m336.4586 507h-160.9173a20.1975 20.1975 0 0 1 -20.1745-20.1748v-5.8388a20.1974 20.1974 0 0 1 20.1745-20.1744h160.9173a20.1974 20.1974 0 0 1 20.1747 20.1744v5.8388a20.1975 20.1975 0 0 1 -20.1747 20.1748zm-160.9173-34.188a8.1837 8.1837 0 0 0 -8.1745 8.1744v5.8388a8.1838 8.1838 0 0 0 8.1745 8.1748h160.9173a8.1838 8.1838 0 0 0 8.1747-8.1748v-5.8388a8.1838 8.1838 0 0 0 -8.1747-8.1744z"/><path fill="currentColor" d="m256 419.8532h-54.5043a6 6 0 1 1 0-12h48.5043v-103.0088a6 6 0 0 1 6-6h54.5044a6 6 0 0 1 0 12h-48.5044v103.0088a6 6 0 0 1 -6 6z"/><path fill="currentColor" d="m310.5044 419.8532a6 6 0 0 1 -6-6v-48.5044h-103.0087a6 6 0 0 1 -6-6v-54.5044a6 6 0 0 1 12 0v48.5044h103.0087a6 6 0 0 1 6 6v54.5044a6 6 0 0 1 -6 6z"/><path fill="currentColor" d="m228.1787 338.4952a6 6 0 0 1 -6-6v-.2407a6 6 0 0 1 12 0v.2407a6 6 0 0 1 -6 6z"/><path fill="currentColor" d="m283.9065 338.4952a6 6 0 0 1 -6-6v-.2407a6 6 0 0 1 12 0v.2407a6 6 0 0 1 -6 6z"/><path fill="currentColor" d="m283.9065 396.4977a6 6 0 0 1 -6-6v-.2407a6 6 0 0 1 12 0v.2407a6 6 0 0 1 -6 6z"/><path fill="currentColor" d="m228.1787 396.4977a6 6 0 0 1 -6-6v-.2407a6 6 0 0 1 12 0v.2407a6 6 0 0 1 -6 6z"/></g></svg>