<svg xmlns="http://www.w3.org/2000/svg" viewBox="0 0 1024 1024">
<g transform="translate(0,1024) scale(0.1,-0.1)">
<path fill="currentColor" d="M3330 10224 c-45 -19 -87 -59 -110 -104 -23 -46 -83 -272 -114 -430
-25 -128 -30 -157 -41 -245 -4 -27 -8 -61 -11 -75 -12 -76 -19 -217 -19 -390
0 -232 9 -348 39 -512 13 -66 12 -68 -8 -69 -12 0 -30 -2 -41 -4 -11 -2 -38
-6 -60 -10 -22 -3 -51 -7 -65 -10 -14 -3 -38 -8 -55 -10 -219 -39 -617 -202
-815 -333 -331 -221 -607 -536 -795 -908 -72 -142 -79 -181 -44 -243 43 -75
295 -253 504 -356 274 -135 473 -187 730 -189 59 -1 99 -6 98 -11 -25 -156
-24 -619 2 -755 3 -13 7 -40 10 -60 8 -53 11 -66 39 -186 67 -278 179 -543
331 -783 36 -57 65 -106 65 -110 0 -3 -15 -14 -32 -24 -18 -10 -53 -37 -78
-60 -135 -125 -210 -282 -215 -449 -1 -43 -5 -81 -8 -84 -3 -4 -37 -17 -74
-30 -238 -83 -411 -335 -411 -599 0 -82 24 -196 54 -263 22 -46 87 -143 107
-161 14 -11 11 -19 -27 -66 -60 -73 -104 -168 -123 -265 -9 -45 -10 -193 -1
-246 27 -164 166 -361 301 -430 18 -9 33 -18 35 -19 1 -1 -10 -38 -25 -81 -22
-66 -27 -96 -27 -184 -1 -112 2 -137 29 -215 53 -156 183 -305 326 -373 99
-47 158 -62 256 -65 39 -1 73 -4 76 -7 3 -3 7 -21 10 -40 16 -107 77 -225 162
-311 197 -201 477 -256 724 -143 83 38 81 38 81 23 0 -5 18 -36 40 -68 67 -99
186 -190 302 -231 79 -28 102 -32 208 -35 154 -6 293 40 406 131 l54 44 54
-44 c161 -131 383 -169 593 -102 141 45 274 149 341 266 14 25 26 46 27 48 1
1 29 -11 61 -27 142 -70 307 -83 459 -34 140 44 294 161 363 275 36 60 72 154
79 208 3 19 7 37 10 40 2 3 30 6 61 6 80 2 128 10 195 33 209 73 378 266 425
486 4 17 7 77 6 135 0 88 -5 118 -27 184 -15 43 -26 80 -25 81 2 1 17 10 35
19 135 69 274 266 301 430 9 53 8 201 -1 246 -19 97 -63 192 -123 265 -42 53
-42 53 -23 71 36 33 107 158 129 229 29 90 35 236 15 323 -52 223 -203 398
-401 467 -36 13 -68 25 -71 28 -3 4 -7 41 -8 84 -3 124 -52 260 -128 358 -42
54 -125 131 -164 152 -18 10 -33 21 -33 25 0 4 25 45 55 92 181 277 333 673
380 986 3 20 7 45 9 56 28 143 29 611 2 751 -4 18 3 19 102 19 195 0 309 22
521 101 278 104 641 330 710 443 33 54 27 99 -25 209 -258 535 -702 951 -1236
1158 -80 30 -220 77 -268 88 -162 38 -187 43 -310 60 -25 4 -47 8 -49 10 -2 3
4 51 12 107 25 161 32 258 32 468 0 173 -7 314 -19 390 -3 14 -7 45 -10 70
-13 104 -20 142 -47 273 -15 76 -45 200 -66 275 -35 127 -40 140 -83 183 -88
92 -217 92 -306 0 -33 -34 -42 -59 -109 -301 -21 -74 -59 -194 -86 -266 -27
-72 -49 -145 -49 -163 0 -130 146 -196 244 -110 27 23 44 56 79 152 25 67 51
141 58 165 7 23 14 40 16 38 5 -5 40 -191 48 -255 4 -30 8 -63 11 -74 19 -101
26 -526 11 -662 -25 -221 -72 -418 -138 -591 -17 -43 -32 -80 -34 -82 -2 -2
-41 23 -87 55 -116 83 -223 146 -365 217 l-122 62 95 144 c176 268 194 315
152 391 -61 109 -196 100 -268 -17 -19 -31 -88 -137 -153 -236 -105 -161 -120
-179 -140 -174 -41 12 -232 56 -267 61 -20 3 -46 7 -59 10 -13 2 -56 7 -95 11
-39 3 -82 8 -96 10 -29 5 -361 5 -405 0 -16 -2 -61 -6 -98 -10 -37 -4 -78 -9
-90 -12 -12 -2 -42 -7 -66 -10 -24 -3 -87 -17 -140 -31 -152 -38 -131 -48
-238 112 -309 460 -504 875 -632 1346 -21 79 -44 155 -49 169 -14 34 -56 76
-95 97 -43 22 -133 25 -177 7z m220 -905 c114 -268 283 -575 472 -858 38 -56
68 -104 66 -106 -2 -1 -61 -31 -133 -67 -138 -68 -256 -139 -366 -219 -37 -27
-69 -49 -72 -49 -5 0 -58 140 -86 230 -21 67 -57 222 -67 288 -3 20 -7 47 -9
59 -26 162 -27 623 -1 760 3 11 7 44 11 74 4 30 15 99 26 154 10 55 19 102 19
105 1 3 20 -52 44 -121 24 -69 67 -182 96 -250z m1789 -1063 c44 -4 89 -9 98
-10 10 -2 40 -7 66 -10 27 -4 59 -9 70 -12 12 -2 31 -6 43 -8 64 -12 225 -60
311 -92 581 -217 1045 -660 1313 -1254 77 -171 154 -431 176 -595 3 -27 8 -59
10 -70 16 -87 21 -333 10 -477 -26 -311 -127 -639 -279 -904 -50 -87 -947
-1426 -977 -1458 -4 -4 -33 6 -63 22 -113 62 -245 99 -377 107 -41 2 -78 4
-81 4 -4 1 -5 16 -4 34 2 17 6 91 10 162 4 72 8 146 10 165 2 19 6 91 10 160
4 69 8 141 10 160 2 19 6 89 10 155 3 66 8 140 10 165 2 25 6 95 10 155 3 61
8 139 10 175 2 36 7 108 10 160 3 52 8 124 10 160 2 36 7 108 10 160 3 52 8
124 10 160 2 36 7 108 10 160 6 96 9 151 20 313 12 171 38 210 248 369 174
132 193 156 184 234 -12 112 -141 166 -237 99 -147 -104 -311 -239 -353 -290
-92 -115 -131 -227 -142 -415 -3 -58 -8 -130 -10 -160 -2 -30 -7 -102 -10
-160 -3 -58 -8 -130 -10 -160 -2 -30 -7 -102 -10 -160 -3 -58 -8 -130 -10
-160 -2 -30 -7 -109 -11 -175 -3 -66 -7 -136 -9 -155 -2 -19 -6 -91 -10 -160
-4 -69 -8 -141 -10 -160 -2 -19 -6 -91 -10 -160 -4 -69 -8 -141 -10 -160 -2
-19 -6 -93 -10 -165 -4 -71 -8 -146 -10 -165 -2 -19 -6 -91 -10 -160 -4 -69
-8 -136 -8 -150 -1 -14 -5 -27 -9 -30 -5 -4 -412 -5 -453 -1 -6 1 -11 11 -11
24 -1 34 -15 288 -19 327 -2 19 -6 91 -10 160 -4 69 -8 141 -10 160 -2 19 -6
91 -10 160 -4 69 -8 141 -10 160 -2 19 -6 91 -10 160 -4 69 -8 141 -10 160 -2
19 -6 94 -10 165 -4 72 -8 146 -10 165 -2 19 -6 91 -10 160 -4 69 -8 141 -10
160 -2 19 -6 89 -10 155 -3 66 -8 140 -10 165 -2 25 -6 95 -10 155 -16 284
-81 397 -345 598 -173 131 -198 145 -254 141 -68 -5 -136 -76 -136 -141 0 -70
21 -96 172 -209 252 -190 251 -189 273 -539 3 -44 8 -115 10 -157 6 -99 14
-215 20 -320 3 -46 8 -118 10 -160 3 -43 7 -115 10 -160 10 -150 15 -232 20
-333 3 -55 8 -125 10 -155 2 -30 7 -104 10 -165 4 -60 8 -130 10 -155 2 -25 7
-99 10 -165 4 -66 8 -136 10 -155 2 -19 6 -91 10 -160 4 -69 8 -142 10 -162 3
-25 0 -38 -8 -39 -7 0 -37 -2 -67 -3 -44 -2 -134 -14 -160 -21 -3 -1 -20 -5
-39 -9 -50 -12 -161 -60 -209 -89 l-41 -27 -142 213 c-79 116 -297 442 -485
723 -367 548 -442 678 -518 904 -42 126 -79 272 -92 370 -3 25 -8 54 -10 65
-24 128 -21 457 6 620 6 33 13 76 16 95 29 185 121 447 232 665 107 209 253
410 429 588 231 234 483 402 783 521 120 47 345 109 439 121 30 4 63 9 75 11
12 2 62 7 111 10 50 4 91 7 92 9 6 4 267 -3 342 -9z m-2145 -236 c18 -47 45
-113 60 -147 l28 -62 -91 -99 -92 -98 -97 34 c-168 59 -322 86 -487 86 -79 0
-215 -11 -238 -19 -7 -3 -24 -7 -39 -10 -64 -12 -83 -17 -156 -40 l-77 -24 30
25 c120 100 324 221 482 285 102 42 293 103 353 113 19 3 49 9 65 12 68 14
182 30 203 30 21 -1 29 -13 56 -86z m3996 75 c47 -5 62 -8 145 -25 83 -17 87
-18 165 -40 237 -67 537 -222 700 -360 l35 -29 -35 10 c-19 6 -64 19 -100 30
-36 11 -76 21 -90 24 -14 3 -36 7 -50 10 -39 9 -178 19 -250 19 -164 -1 -366
-40 -512 -99 l-57 -23 -32 36 c-17 21 -59 65 -92 99 l-60 61 40 94 c38 87 46
109 72 180 9 24 15 27 43 23 18 -2 53 -7 78 -10z m-4495 -670 c22 -4 77 -18
122 -31 46 -13 85 -24 88 -24 12 0 2 -24 -35 -85 -91 -148 -191 -369 -245
-539 -35 -113 -22 -105 -175 -110 -201 -6 -398 44 -625 159 -119 59 -285 163
-285 177 0 14 180 163 266 220 159 106 377 202 509 223 22 4 60 10 85 14 52 9
236 6 295 -4z m5175 1 c14 -3 39 -8 55 -12 235 -46 506 -193 725 -393 64 -58
70 -47 -71 -135 -206 -130 -442 -222 -624 -244 -91 -11 -296 -5 -309 9 -2 2
-14 38 -26 79 -45 152 -160 407 -250 555 -22 36 -40 69 -40 73 0 15 144 56
240 68 25 4 47 8 48 9 5 5 223 -4 252 -9z m-4540 -3521 c144 -216 181 -277
172 -288 -20 -23 -106 -66 -148 -72 -38 -6 -40 -5 -79 46 -64 85 -153 148
-275 195 l-55 22 1 73 c2 85 24 145 76 204 32 37 104 95 118 95 3 0 89 -124
190 -275z m3808 251 c94 -59 152 -158 158 -267 5 -112 -30 -196 -113 -268
-121 -107 -302 -113 -430 -15 l-33 25 73 107 c40 59 124 182 187 275 62 92
115 167 117 167 2 0 20 -11 41 -24z m-4240 -650 c93 -33 165 -106 203 -204 29
-79 23 -187 -15 -265 -34 -70 -99 -131 -130 -123 -11 4 -30 9 -41 12 -43 12
-203 11 -260 -1 -58 -12 -61 -12 -93 12 -37 28 -77 87 -97 144 -22 63 -14 183
16 249 45 96 138 172 226 186 21 3 39 7 41 9 8 7 113 -6 150 -19z m4710 -19
c62 -29 118 -87 150 -155 23 -48 27 -71 27 -142 0 -76 -4 -93 -33 -152 -37
-76 -83 -120 -162 -157 -77 -36 -202 -36 -275 -1 -101 49 -176 150 -192 260
-15 95 -8 109 69 140 37 15 89 41 116 58 48 32 138 117 168 160 14 20 22 23
52 17 20 -4 56 -16 80 -28z m-3796 -395 c-111 -173 -155 -432 -107 -629 3 -13
19 -38 36 -57 92 -106 269 -23 251 117 -8 62 -7 187 1 230 39 206 226 392 437
435 45 9 1335 9 1375 0 17 -4 39 -9 50 -12 38 -8 116 -46 159 -75 317 -219
323 -690 10 -904 -94 -64 -195 -98 -304 -103 -197 -7 -313 52 -492 253 -63 72
-157 72 -218 0 -158 -187 -302 -260 -499 -253 -63 2 -108 10 -168 30 -97 33
-136 30 -188 -15 -56 -49 -64 -137 -18 -197 29 -39 94 -70 198 -98 102 -26
302 -24 410 5 105 28 224 86 308 149 l68 52 69 -53 c99 -75 233 -138 345 -163
68 -15 260 -13 330 2 173 39 330 129 457 262 120 126 200 284 227 447 14 84 7
237 -14 320 -16 68 -97 250 -128 290 -14 18 -9 28 65 138 78 116 80 118 101
103 54 -39 127 -78 185 -97 l62 -21 1 -71 c0 -40 2 -79 4 -87 2 -8 6 -26 8
-40 19 -87 71 -194 127 -261 39 -46 39 -47 19 -64 -50 -46 -122 -185 -145
-282 -4 -15 -8 -75 -10 -133 -2 -99 13 -185 49 -270 5 -11 -9 -25 -49 -50
-131 -82 -243 -238 -280 -392 l-17 -68 -61 -1 c-34 0 -68 -2 -76 -4 -8 -2 -30
-6 -48 -9 -146 -28 -307 -138 -398 -274 -21 -31 -39 -58 -40 -60 0 -1 -30 11
-65 27 -217 102 -493 68 -671 -80 l-48 -40 -47 40 c-112 93 -239 135 -408 135
-128 1 -178 -11 -280 -62 -32 -16 -50 -21 -53 -13 -5 14 -83 120 -110 147
-115 119 -283 191 -454 193 l-56 1 -11 48 c-36 169 -149 332 -289 415 -37 23
-50 36 -46 47 4 8 17 49 30 90 19 62 22 93 20 180 -4 118 -7 135 -40 224 -27
71 -60 127 -106 179 -27 31 -28 36 -14 48 22 18 70 90 100 148 40 80 54 139
61 243 l6 97 51 17 c63 21 130 54 175 88 l33 25 81 -119 80 -119 -31 -49z
m-889 -481 c158 -77 234 -250 182 -414 -24 -78 -51 -106 -105 -113 -76 -9
-152 -34 -227 -74 l-71 -38 -59 27 c-240 114 -259 453 -33 589 72 43 100 50
190 48 56 -1 87 -8 123 -25z m4422 -50 c62 -12 196 -8 252 8 54 15 70 7 123
-60 146 -185 48 -474 -180 -532 -212 -54 -405 91 -418 313 -3 60 0 87 18 134
27 71 108 161 137 152 10 -3 41 -10 68 -15z m-4147 -795 c121 -44 206 -159
214 -288 2 -42 0 -45 -83 -128 -58 -59 -95 -106 -119 -153 -33 -63 -38 -68
-75 -74 -148 -26 -292 47 -361 184 -25 51 -29 69 -29 143 1 97 26 166 85 234
81 92 243 128 368 82z m3954 -21 c77 -41 142 -63 213 -71 62 -7 95 -40 120
-120 46 -147 -27 -323 -165 -398 -60 -33 -86 -39 -165 -38 -203 1 -354 184
-323 390 16 106 86 200 184 247 27 14 54 25 59 25 6 0 41 -16 77 -35z m-3274
-534 c85 -26 168 -107 201 -197 25 -65 24 -89 -7 -174 -19 -51 -29 -93 -31
-130 -2 -38 -97 -115 -168 -136 -161 -49 -337 25 -410 174 -25 50 -28 68 -27
147 0 69 5 101 22 137 40 89 114 152 217 184 44 13 152 11 203 -5z m2680 11
c6 -2 24 -27 38 -56 38 -76 97 -150 159 -198 l56 -43 -4 -61 c-17 -246 -300
-389 -510 -257 -178 112 -213 351 -75 509 65 74 158 114 258 112 36 0 71 -3
78 -6z m-1735 -285 c51 -26 135 -106 130 -125 -20 -80 -23 -252 -5 -314 13
-46 -7 -81 -74 -132 -127 -97 -324 -83 -440 31 -143 141 -129 380 30 504 93
73 250 89 359 36z m854 17 c88 -30 158 -94 168 -155 8 -49 35 -140 50 -169 10
-20 10 -35 -1 -77 -25 -99 -91 -178 -184 -222 -47 -22 -68 -26 -145 -26 -73 1
-99 5 -136 23 -75 37 -125 87 -161 160 -30 60 -33 75 -32 152 0 67 5 95 22
130 44 91 113 151 210 186 51 18 152 17 209 -2z M5059 7895 c-72 -39 -71 -167
3 -206 26 -14 90 -14 117 1 50 26 71 101 45 156 -28 59 -105 82 -165 49z
M5075 7211 c-111 -49 -82 -220 39 -226 104 -6 162 123 88 197 -31 32 -91 45
-127 29z M5073 6515 c-62 -27 -88 -115 -52 -174 16 -24 67 -51 99 -51 34 0 86
28 100 56 55 102 -43 214 -147 169z M3303 5789 c-31 -15 -48 -33 -64 -66 -20
-42 -21 -51 -11 -102 36 -173 185 -321 362 -360 125 -28 288 9 393 88 101 75
184 222 180 318 -5 108 -124 173 -219 119 -38 -21 -48 -36 -93 -136 -67 -147
-289 -126 -331 31 -28 103 -128 153 -217 108z M6180 5802 c-52 -17 -95 -70
-103 -128 -10 -72 54 -205 139 -289 147 -144 366 -175 556 -79 69 35 168 135
201 204 15 31 32 80 39 111 10 50 9 60 -10 100 -63 131 -243 106 -282 -40 -42
-157 -264 -178 -331 -31 -43 97 -55 115 -88 134 -34 19 -91 28 -121 18z M4305
2866 c-32 -14 -84 -68 -86 -89 -15 -135 62 -263 201 -334 49 -25 65 -28 150
-28 83 0 103 4 156 28 151 70 246 247 192 356 -21 44 -82 81 -132 81 -60 0
-122 -49 -141 -110 -12 -40 -36 -60 -70 -60 -35 0 -58 20 -70 60 -26 84 -123
131 -200 96z M5383 2864 c-62 -31 -97 -127 -70 -194 43 -109 104 -179 197
-227 49 -25 66 -28 150 -28 82 0 103 4 152 27 120 56 211 181 211 291 1 84
-67 147 -153 143 -64 -3 -98 -27 -131 -95 -29 -59 -42 -71 -80 -71 -30 0 -50
20 -69 70 -34 86 -126 124 -207 84z"/>
</g>
</svg>
