<svg viewBox="-64 0 496 496" xmlns="http://www.w3.org/2000/svg"><path fill="currentColor" d="m208 368h16v16h-16zm0 0"/><path fill="currentColor" d="m144 368h16v16h-16zm0 0"/><path fill="currentColor" d="m211.3125 88-27.3125-27.3125-27.3125 27.3125 27.3125 27.3125zm-27.3125-4.6875 4.6875 4.6875-4.6875 4.6875-4.6875-4.6875zm0 0"/><path fill="currentColor" d="m256 104h16v16h-16zm0 0"/><path fill="currentColor" d="m96 104h16v16h-16zm0 0"/><path fill="currentColor" d="m232 192c0 4.417969-3.582031 8-8 8s-8-3.582031-8-8 3.582031-8 8-8 8 3.582031 8 8zm0 0"/><path fill="currentColor" d="m152 192c0 4.417969-3.582031 8-8 8s-8-3.582031-8-8 3.582031-8 8-8 8 3.582031 8 8zm0 0"/><path fill="currentColor" d="m184 248c-8.824219 0-16-7.175781-16-16h-16c0 17.648438 14.351562 32 32 32s32-14.351562 32-32h-16c0 8.824219-7.175781 16-16 16zm0 0"/><path fill="currentColor" d="m176 160h16v16h-16zm0 0"/><path fill="currentColor" d="m325.585938 335.152344-29.585938-7.398438v-127.195312l7.222656-50.574219c.519532-3.59375.777344-7.257813.777344-10.886719 0-13.945312-3.792969-27.632812-10.96875-39.59375l-17.671875-29.464844-5.648437 2.265626c-10.390626-12.382813-23.277344-22.375-37.710938-29.265626v-3.039062c0-22.054688-21.527344-40-48-40s-48 17.945312-48 40v3.039062c-14.433594 6.890626-27.320312 16.890626-37.703125 29.265626l-5.648437-2.265626-17.671876 29.464844c-7.183593 11.96875-10.976562 25.65625-10.976562 39.59375 0 3.628906.257812 7.292969.777344 10.886719l7.222656 50.574219v127.195312l-29.585938 7.390625c-24.972656 6.246094-42.414062 28.589844-42.414062 54.335938v106.519531h368v-106.519531c0-25.746094-17.441406-48.089844-42.414062-54.328125zm26.414062 54.328125v26.519531h-45.296875c-1.597656-5.9375-2.976563-10.121094-3.109375-10.527344l-15.179688 5.0625c.074219.226563 7.585938 22.929688 7.585938 37.464844 0 11.648438-3.648438 22.59375-10.265625 32h-93.734375v-21.335938l88.6875-118.25 41.015625 10.257813c17.832031 4.464844 30.296875 20.417969 30.296875 38.808594zm-41.664062 42.519531h9.664062v16h-8c0-4.96875-.6875-10.550781-1.664062-16zm25.664062 0h16v16h-16zm-121.238281-30.351562-20.648438-25.808594 21.605469-28.808594 22.855469 22.855469zm33.519531-44.679688-22.855469-22.855469 4.742188-6.320312 33.6875 8.421875zm-64.28125-68.96875c-35.289062 0-64-28.710938-64-64v-72c0-4.40625 3.59375-8 8-8h112c4.40625 0 8 3.59375 8 8v72c0 35.289062-28.710938 64-64 64zm0 16c14.574219 0 28.214844-3.984375 40-10.824219v16.160157l-40 53.335937-40-53.335937v-16.160157c11.785156 6.839844 25.425781 10.824219 40 10.824219zm-46.160156 23.785156 4.746094 6.320313-22.859376 22.855469-15.566406-20.761719zm14.441406 19.246094 21.605469 28.808594-20.648438 25.808594-23.8125-31.761719zm31.511719 42.023438.207031.28125.207031-.273438 20.648438 25.808594-20.855469 27.792968-20.847656-27.800781zm56.207031-75.300782v-32.722656c11.3125-11.101562 19.335938-25.527344 22.488281-41.6875 6.519531-1.070312 12.457031-3.71875 17.511719-7.550781v91.960937zm24-136.28125c9.289062 3.3125 16 12.113282 16 22.527344s-6.710938 19.214844-16 22.527344zm-9.984375-98.898437-14.984375 5.992187c-1.511719-8.894531-4.800781-17.308594-9.566406-24.839844 9.09375 4.929688 17.429687 11.25 24.550781 18.847657zm-70.015625-62.574219c16.183594 0 29.457031 9.089844 31.566406 20.800781-4.917968-1.457031-9.925781-2.625-15.03125-3.386719l-16.535156-11.03125-16.535156 11.023438c-5.105469.761719-10.113282 1.929688-15.03125 3.386719 2.109375-11.703125 15.382812-20.792969 31.566406-20.792969zm-45.464844 43.734375c-4.765625 7.523437-8.054687 15.945313-9.566406 24.839844l-14.984375-5.988281c7.121094-7.609376 15.457031-13.929688 24.550781-18.851563zm-49.847656 48 10.664062-17.78125 44.648438 17.863281v-11.816406c0-17.351562 8.625-33.464844 23.0625-43.097656l16.9375-11.285156 16.9375 11.292968c14.4375 9.625 23.0625 25.738282 23.0625 43.089844v11.816406l44.648438-17.855468 10.664062 17.773437c5.679688 9.480469 8.6875 20.320313 8.6875 31.363281 0 2.878906-.207031 5.78125-.609375 8.621094l-3.398437 23.785156c-5.40625-5.3125-12.289063-9.121094-19.992188-10.6875v-8.816406c0-13.230469-10.769531-24-24-24h-112c-13.230469 0-24 10.769531-24 24v8.808594c-7.703125 1.566406-14.585938 5.382812-19.992188 10.6875l-3.398437-23.777344c-.402344-2.839844-.609375-5.742188-.609375-8.621094 0-11.042968 3-21.890625 8.6875-31.363281zm15.3125 114.792969c-9.289062-3.3125-16-12.113282-16-22.527344s6.710938-19.214844 16-22.527344zm-16 9.265625c5.054688 3.832031 10.992188 6.472656 17.511719 7.550781 3.152343 16.160156 11.175781 30.585938 22.488281 41.6875v32.722656l-40 10zm-41.695312 118.878906 41.015624-10.257813 88.679688 118.25v21.335938h-93.734375c-6.617187-9.414062-10.265625-20.351562-10.265625-32 0-14.488281 7.511719-37.238281 7.59375-37.472656l-15.179688-5.054688c-.132812.414063-1.519531 4.597656-3.109374 10.527344h-45.304688v-26.519531c0-18.390625 12.464844-34.34375 30.304688-38.808594zm-30.304688 97.328125v-16h16v16zm32-16h9.664062c-.976562 5.449219-1.664062 11.03125-1.664062 16h-8zm-32 32h41.871094c1.265625 5.542969 3.183594 10.910156 5.714844 16h-47.585938zm288.425781 16c2.519531-5.089844 4.4375-10.457031 5.710938-16h41.863281v16zm0 0"/><path fill="currentColor" d="m248 448h16v16h-16zm0 0"/><path fill="currentColor" d="m104 448h16v16h-16zm0 0"/></svg>