<svg xmlns="http://www.w3.org/2000/svg" viewBox="0 0 1024 1024">
<g transform="translate(0,1024) scale(0.1,-0.1)">
<path fill="currentColor" d="M4889 10016 c-2 -2 -48 -7 -101 -10 -53 -4 -105 -8 -115 -10 -10 -2
-43 -7 -74 -10 -31 -4 -67 -9 -80 -11 -13 -3 -41 -7 -64 -11 -54 -8 -220 -42
-270 -55 -22 -6 -48 -13 -57 -14 -46 -9 -188 -53 -318 -97 -1251 -432 -2232
-1501 -2554 -2784 -38 -149 -80 -369 -91 -474 -4 -36 -9 -74 -11 -85 -24 -126
-24 -709 0 -855 3 -14 7 -52 11 -85 3 -33 8 -69 10 -80 3 -11 7 -38 10 -60 3
-22 7 -47 10 -55 2 -8 6 -31 9 -50 10 -62 16 -90 51 -224 114 -445 283 -826
541 -1217 221 -336 481 -625 803 -892 l34 -28 -20 -28 c-39 -52 -81 -147 -99
-222 -15 -62 -15 -207 0 -271 15 -63 14 -69 -5 -125 -92 -263 -95 -537 -11
-798 27 -81 65 -166 106 -234 19 -31 45 -86 59 -122 34 -94 69 -150 144 -230
157 -166 400 -299 754 -414 133 -43 408 -115 489 -129 19 -3 46 -8 60 -11 14
-3 36 -7 50 -10 14 -3 36 -7 50 -10 13 -2 40 -7 60 -10 20 -3 45 -7 56 -9 12
-2 45 -7 74 -11 29 -4 61 -8 71 -10 10 -2 49 -7 86 -11 37 -4 82 -8 98 -10
240 -25 829 -25 985 0 14 3 55 7 92 11 37 3 77 8 90 10 13 2 43 6 68 9 25 3
54 8 65 10 11 2 40 7 65 11 58 9 74 12 135 25 28 6 60 12 73 15 13 2 31 6 40
9 9 3 28 7 42 10 14 2 45 9 70 16 25 7 52 14 60 15 8 2 69 19 135 39 570 167
918 410 1015 709 6 21 29 66 49 100 64 107 131 286 146 392 3 17 8 55 13 85
22 154 -2 361 -62 538 -19 58 -22 80 -15 105 30 102 29 224 -2 342 -13 46 -59
143 -90 186 -12 17 -20 32 -18 33 2 2 38 31 79 66 94 78 311 289 410 398 317
353 589 806 763 1272 31 84 103 309 112 350 1 8 8 35 15 60 7 25 14 56 16 70
3 14 7 33 10 42 3 10 7 28 9 40 2 13 13 73 24 133 11 61 22 137 26 170 4 33 8
71 11 85 24 144 24 709 -1 860 -2 14 -6 48 -10 75 -37 295 -108 589 -211 866
-426 1154 -1358 2050 -2524 2427 -113 37 -296 87 -360 99 -14 2 -44 8 -68 14
-23 5 -59 12 -80 15 -20 3 -44 7 -52 9 -8 2 -37 7 -65 11 -27 3 -57 8 -66 9
-9 2 -52 6 -95 10 -43 4 -88 9 -99 12 -23 6 -560 14 -566 9z m561 -209 c14 -3
54 -8 90 -11 36 -4 120 -15 187 -26 103 -17 164 -29 323 -65 54 -12 271 -79
350 -108 524 -190 987 -485 1381 -877 380 -379 642 -768 842 -1251 106 -257
197 -574 231 -804 4 -23 8 -51 11 -64 2 -13 7 -49 11 -80 3 -31 8 -65 10 -75
24 -127 24 -706 0 -831 -2 -11 -7 -47 -10 -80 -4 -33 -9 -73 -12 -90 -11 -70
-15 -91 -19 -105 -2 -8 -6 -31 -9 -51 -10 -66 -86 -351 -122 -458 -155 -456
-401 -894 -704 -1251 -89 -106 -359 -373 -462 -459 l-87 -72 -58 30 c-106 54
-157 66 -288 66 -66 -1 -131 -3 -144 -6 -22 -5 -32 5 -88 82 -35 48 -63 90
-63 93 0 3 12 1 28 -5 41 -17 202 -19 275 -3 181 38 339 134 422 257 18 26 93
110 166 185 177 181 189 196 189 239 0 51 -45 93 -101 93 -37 0 -48 -6 -90
-49 -27 -26 -49 -48 -50 -47 0 1 -3 17 -5 36 -6 47 -33 139 -49 171 -13 24
-10 31 49 120 262 392 430 825 496 1276 6 43 13 89 15 103 10 58 19 224 19
355 0 131 -11 352 -19 365 -1 3 -6 34 -10 70 -4 36 -8 67 -10 70 -2 3 -6 26
-10 50 -11 79 -65 290 -106 413 -329 988 -1158 1761 -2164 2017 -84 22 -166
42 -182 44 -15 3 -73 12 -127 21 -55 9 -103 18 -108 21 -4 3 -16 20 -25 37 -9
18 -48 82 -88 143 -67 103 -71 113 -59 135 29 52 7 121 -44 140 -38 14 -320
11 -447 -6 -85 -11 -122 -104 -65 -165 25 -27 34 -30 90 -30 l61 0 -24 -32
c-13 -18 -50 -77 -82 -130 -32 -54 -61 -98 -65 -98 -6 0 -160 -28 -245 -45
-190 -37 -465 -135 -690 -245 -321 -157 -570 -335 -826 -590 -257 -256 -432
-493 -581 -785 -160 -314 -279 -691 -313 -985 -3 -30 -8 -66 -10 -80 -16 -105
-22 -430 -10 -550 11 -117 20 -184 30 -240 3 -14 7 -38 10 -55 35 -210 134
-506 246 -740 83 -173 262 -473 325 -545 11 -13 8 -30 -18 -105 -25 -73 -31
-107 -32 -182 l-1 -91 -36 -6 c-67 -11 -103 -81 -73 -142 25 -49 386 -322 490
-369 29 -13 81 -32 116 -41 70 -19 225 -26 269 -14 16 5 29 6 29 2 -1 -4 -29
-40 -64 -81 l-64 -74 -108 1 c-125 0 -186 -13 -292 -63 l-74 -35 -46 38 c-539
434 -955 1027 -1192 1703 -45 125 -124 417 -136 499 -3 19 -7 42 -9 50 -3 8
-7 32 -11 54 -3 21 -7 47 -9 58 -3 11 -7 46 -10 77 -4 31 -8 67 -11 81 -24
149 -24 705 0 836 2 10 7 44 10 75 4 31 9 67 11 80 3 13 7 39 10 59 3 20 8 47
10 60 3 14 8 40 11 59 14 83 76 317 118 441 151 455 382 867 700 1250 98 118
350 369 476 474 351 292 779 532 1210 678 107 36 376 110 445 121 278 48 308
52 450 63 44 4 82 8 84 10 6 5 533 -3 561 -9z m-296 -599 c233 -358 390 -713
440 -993 14 -79 16 -312 3 -364 -13 -51 -39 -121 -47 -126 -4 -3 -21 0 -38 6
-28 10 -30 13 -21 36 5 14 12 40 14 57 3 17 10 56 15 86 16 98 5 294 -24 404
-53 204 -181 424 -329 564 -49 46 -61 52 -98 52 -37 0 -47 -5 -86 -47 -110
-119 -231 -334 -283 -503 -39 -127 -41 -144 -46 -300 -3 -126 0 -159 32 -307
5 -26 3 -33 -9 -33 -20 0 -42 36 -66 107 -27 81 -32 113 -35 218 -8 303 130
676 421 1138 41 64 77 117 79 117 3 0 38 -51 78 -112z m-604 -411 c-47 -101
-100 -252 -130 -372 l-22 -90 -91 -33 c-313 -114 -629 -316 -871 -558 -378
-378 -607 -834 -690 -1374 -20 -129 -26 -377 -12 -530 37 -418 177 -852 385
-1195 l40 -65 -27 -6 c-127 -28 -217 -66 -290 -123 -26 -20 -52 -40 -58 -44
-7 -4 -30 22 -59 65 l-47 71 31 24 c150 118 16 359 -165 297 -21 -7 -39 -12
-40 -11 -6 7 -44 97 -44 104 0 4 14 17 30 28 38 25 70 89 70 138 0 101 -86
180 -187 171 l-42 -4 -15 54 c-22 75 -21 80 19 95 38 13 77 58 92 106 19 60 3
122 -43 168 -35 35 -98 59 -135 52 -14 -3 -19 2 -19 18 0 12 -3 54 -6 92 -4
39 -3 67 1 63 9 -9 63 10 99 35 34 24 65 89 66 135 0 72 -52 143 -124 164
l-38 12 6 73 c10 118 15 133 42 133 13 0 25 -1 27 -1 1 -1 21 8 44 19 71 37
106 102 97 180 -6 47 -47 107 -85 124 -16 7 -29 17 -29 22 0 6 12 47 27 92
l27 82 55 -3 c113 -7 194 73 185 184 -4 48 -44 117 -75 126 -25 8 -24 14 8 80
27 54 28 55 63 49 19 -4 36 -8 38 -9 9 -7 89 19 115 37 36 26 66 90 67 142 0
37 -35 116 -52 116 -16 0 -7 19 35 72 l42 55 44 -24 c71 -37 145 -26 198 29
67 69 70 158 11 241 -11 15 -7 23 37 61 l49 44 37 -38 c45 -46 95 -64 155 -55
49 7 106 49 128 94 29 59 15 140 -32 194 -8 9 -13 19 -11 21 28 24 144 94 150
90 4 -2 10 -17 14 -33 3 -16 21 -44 40 -62 58 -57 126 -68 199 -34 94 45 123
170 59 253 -14 18 -23 35 -22 37 6 4 127 55 134 55 3 0 12 -18 21 -39 9 -22
32 -53 52 -68 32 -24 46 -28 103 -28 56 0 71 4 101 27 19 15 43 44 53 64 19
41 22 119 5 139 -9 11 -4 16 27 24 80 21 158 37 165 34 4 -2 -11 -40 -32 -86z
m1100 79 c8 -2 34 -7 58 -11 34 -6 42 -11 36 -24 -4 -9 -9 -41 -11 -71 -15
-206 291 -249 334 -47 l8 34 77 -29 78 -30 -35 -32 c-41 -39 -57 -77 -56 -133
1 -110 106 -189 211 -160 76 20 129 89 130 165 0 19 4 32 8 30 24 -9 192 -113
192 -118 0 -4 -11 -13 -25 -20 -78 -42 -104 -161 -52 -239 31 -46 91 -81 142
-81 70 0 142 54 165 126 6 19 13 34 16 34 4 0 35 -26 99 -85 26 -24 36 -38 27
-42 -32 -13 -72 -57 -87 -97 -18 -47 -15 -98 9 -144 57 -110 223 -117 292 -14
l22 32 56 -70 c59 -73 63 -80 44 -80 -20 0 -78 -50 -94 -82 -77 -150 89 -310
236 -227 22 12 40 26 40 31 0 24 23 1 54 -54 43 -78 54 -104 38 -94 -21 13
-87 -13 -119 -46 -42 -45 -53 -70 -53 -119 0 -93 68 -169 156 -174 56 -4 91 7
126 40 l26 24 40 -117 39 -118 -31 1 c-60 4 -132 -39 -162 -97 -19 -36 -18
-112 2 -151 46 -89 141 -117 245 -73 17 7 19 1 33 -119 3 -22 8 -61 11 -87 l5
-47 -30 11 c-73 25 -170 -14 -205 -83 -44 -84 -8 -191 79 -236 33 -17 106 -19
135 -3 16 8 21 8 22 -2 2 -25 -2 -115 -6 -134 -2 -10 -4 -37 -4 -58 -1 -36 -2
-38 -18 -24 -43 36 -124 43 -179 15 -108 -56 -127 -198 -38 -278 42 -37 75
-48 132 -44 58 4 56 14 22 -114 -22 -78 -32 -96 -43 -68 -3 8 -21 22 -41 31
-100 47 -204 9 -242 -89 -41 -108 34 -224 149 -231 60 -4 60 2 10 -111 -32
-73 -53 -102 -53 -74 0 17 -52 71 -83 87 -40 21 -114 21 -154 1 -18 -10 -45
-34 -60 -54 -24 -31 -28 -46 -28 -98 0 -49 5 -69 25 -98 32 -48 97 -80 150
-75 l39 3 -18 -30 c-38 -64 -66 -105 -74 -105 -4 0 -20 11 -35 25 -58 55 -196
125 -276 141 -10 2 -20 5 -22 7 -2 2 23 55 55 118 129 248 214 504 275 834 2
11 7 45 11 75 4 30 9 64 11 74 19 101 26 484 11 626 -6 65 -20 150 -42 265 -3
17 -13 55 -21 85 -8 30 -17 63 -19 72 -10 43 -72 212 -107 293 -191 436 -523
819 -928 1070 -138 85 -330 176 -478 225 l-129 44 -32 106 c-35 114 -88 252
-131 340 -14 31 -29 64 -33 73 -7 18 -4 18 73 3z m-485 -307 c108 -161 159
-321 159 -504 1 -122 -2 -154 -23 -235 l-12 -45 -199 0 -199 0 -11 40 c-29
107 -36 286 -15 395 21 112 93 282 168 397 l41 63 23 -21 c12 -12 43 -52 68
-90z m758 -479 c135 -53 129 -48 113 -95 -17 -48 -11 -90 19 -136 56 -87 179
-91 248 -10 l27 32 45 -31 c25 -17 45 -33 45 -35 0 -2 -35 -28 -79 -58 -101
-71 -188 -152 -253 -236 -28 -36 -55 -70 -59 -75 -4 -5 -31 12 -60 38 -44 39
-136 104 -214 151 -16 10 -16 13 -1 49 40 96 57 197 57 339 0 59 3 107 5 107
3 0 51 -18 107 -40z m-1548 -60 c3 -78 9 -117 26 -185 12 -49 49 -146 61 -162
7 -9 -10 -22 -59 -47 -77 -38 -147 -88 -210 -149 -24 -22 -44 -39 -46 -36
-100 141 -161 205 -266 284 -44 33 -80 62 -80 65 0 3 20 19 46 37 l46 31 21
-30 c26 -38 80 -68 121 -68 46 0 117 40 139 79 22 39 26 122 7 145 -7 9 -11
20 -9 27 4 12 178 90 192 86 5 -2 10 -36 11 -77z m2305 -480 c-54 -54 -52
-159 4 -216 45 -45 120 -55 179 -25 l37 19 21 -30 c12 -16 20 -31 18 -33 -2
-1 -55 -26 -117 -54 -182 -82 -468 -249 -526 -307 -9 -8 -16 -12 -17 -7 0 4
-3 31 -5 58 -6 70 -40 179 -78 252 l-33 62 31 56 c62 110 171 214 327 310 l72
44 54 -54 54 -54 -21 -21z m-2962 58 c94 -66 193 -163 242 -240 50 -77 55 -99
31 -146 -42 -82 -69 -188 -76 -292 0 -14 -5 -23 -11 -21 -5 2 -70 44 -144 93
-74 49 -210 127 -303 173 l-167 82 17 22 c18 21 19 22 58 5 143 -59 276 103
189 231 l-25 38 52 53 c30 30 55 54 57 54 2 0 38 -24 80 -52z m1587 -34 c44
-7 123 -28 176 -45 l97 -31 -38 -82 c-43 -93 -90 -240 -116 -361 -9 -44 -18
-81 -19 -83 -1 -2 -22 10 -46 26 -126 85 -327 74 -457 -24 -18 -14 -35 -24
-37 -23 -2 2 -6 24 -10 49 -4 24 -8 47 -10 51 -2 3 -6 19 -9 35 -12 64 -67
234 -110 336 -24 59 -42 109 -38 112 13 7 149 35 203 42 30 3 56 8 58 10 10 9
287 0 356 -12z m-771 -212 c37 -86 102 -283 111 -337 2 -16 9 -44 14 -61 l9
-31 -56 23 c-134 54 -327 9 -439 -102 -25 -25 -47 -43 -50 -40 -3 3 -6 40 -6
83 -1 142 56 274 175 407 58 65 187 160 200 148 4 -4 23 -44 42 -90z m1377
-101 c124 -135 177 -276 160 -428 0 -7 -23 10 -49 36 -87 87 -225 109 -352 58
-35 -15 -66 -25 -67 -23 -7 7 37 202 61 278 14 42 39 108 57 147 l31 70 46
-32 c24 -17 75 -65 113 -106z m1180 -255 c21 -46 39 -88 39 -92 -1 -5 -15 -18
-32 -29 -46 -30 -70 -67 -73 -116 -3 -58 16 -101 61 -136 31 -23 47 -28 95
-28 l59 0 15 -67 c18 -81 19 -98 3 -99 -7 0 -20 -2 -29 -4 -8 -1 -42 -6 -75
-9 -32 -4 -66 -9 -74 -11 -14 -4 -35 -8 -105 -20 -60 -11 -220 -57 -310 -90
-172 -62 -328 -146 -474 -253 -71 -52 -75 -54 -89 -36 -37 49 -66 143 -76 242
-5 51 -3 56 37 105 23 29 57 77 76 107 111 180 443 418 794 571 62 27 113 49
115 49 2 0 21 -38 43 -84z m-3701 -22 c162 -81 327 -186 434 -274 91 -75 197
-184 229 -235 13 -22 47 -69 75 -104 57 -70 58 -82 26 -183 -14 -44 -87 -168
-99 -168 -3 0 -40 26 -83 58 -175 133 -374 231 -606 298 -50 14 -100 28 -111
30 -70 14 -187 34 -230 40 -27 3 -53 9 -56 12 -4 4 1 38 10 76 l16 69 62 1
c99 2 157 57 158 151 0 61 -20 96 -78 134 l-36 23 41 83 41 83 31 -11 c17 -6
96 -43 176 -83z m1841 -142 c51 -20 109 -112 125 -197 l6 -36 -38 5 c-81 11
-173 17 -291 18 l-122 1 19 49 c21 56 60 111 96 134 60 40 143 50 205 26z
m-695 -72 c36 -14 70 -45 99 -91 29 -45 34 -71 15 -74 -8 -2 -33 -6 -55 -9
-72 -12 -221 -56 -306 -91 -13 -5 -20 2 -28 28 -29 86 36 198 133 231 48 16
107 19 142 6z m1331 -32 c33 -16 55 -72 58 -152 3 -66 -7 -102 -24 -91 -10 6
-268 72 -293 74 -4 1 -2 14 5 29 52 124 162 184 254 140z m-592 -321 c11 -2
45 -8 76 -11 31 -4 66 -8 77 -11 11 -2 36 -6 55 -9 20 -3 80 -15 134 -27 54
-12 103 -22 108 -23 52 -12 95 -29 96 -39 4 -60 11 -118 18 -149 5 -22 5 -36
0 -32 -5 3 -19 7 -31 10 -13 3 -30 7 -39 9 -136 31 -245 52 -309 61 -25 3 -53
8 -63 10 -138 26 -658 25 -757 -1 -8 -2 -31 -6 -50 -9 -19 -3 -46 -8 -60 -11
-14 -3 -38 -8 -55 -11 -16 -2 -46 -9 -65 -14 -57 -16 -60 -14 -49 25 8 29 15
80 18 132 1 10 119 55 182 69 13 3 33 7 44 10 41 9 71 14 120 20 28 4 52 8 54
10 6 6 471 -3 496 -9z m-2199 -181 c12 -2 37 -7 55 -10 58 -9 221 -54 299 -81
146 -53 307 -140 454 -247 5 -3 -15 -35 -46 -70 -30 -34 -68 -81 -84 -103 -16
-22 -33 -43 -37 -46 -4 -3 -31 0 -60 8 -90 23 -147 28 -327 28 -144 -1 -190
-5 -260 -22 -47 -12 -92 -24 -101 -28 -9 -3 -16 -1 -16 7 -1 7 -4 42 -8 78
l-7 65 41 18 c129 57 118 247 -18 288 -27 8 -38 16 -36 28 2 9 4 36 4 60 l1
43 63 -6 c34 -3 72 -8 83 -10z m4225 -8 c8 -86 6 -92 -34 -100 -50 -10 -82
-33 -108 -75 -56 -90 0 -213 106 -230 l35 -6 -6 -56 c-6 -68 -12 -102 -17
-108 -3 -2 -29 3 -58 11 -193 54 -472 65 -674 25 -27 -6 -61 -13 -74 -15 -14
-3 -28 -7 -31 -9 -4 -3 -26 22 -49 55 -23 32 -59 78 -80 102 l-39 43 51 37
c235 168 543 284 862 324 28 4 51 7 52 8 11 9 63 4 64 -6z m-2001 -211 c14 -3
49 -8 78 -11 86 -10 306 -55 400 -82 187 -54 343 -166 453 -326 130 -189 150
-402 59 -622 -35 -84 -41 -91 -68 -77 -48 25 -378 114 -512 137 -101 18 -140
24 -175 29 -22 4 -50 8 -61 10 -172 28 -720 28 -879 -1 -16 -3 -41 -7 -55 -9
-14 -3 -45 -8 -70 -11 -79 -11 -316 -73 -412 -109 -51 -19 -98 -35 -105 -35
-6 0 -27 28 -46 63 -108 192 -119 395 -32 567 64 127 215 268 368 346 53 28
205 80 256 89 19 3 37 7 40 9 3 2 26 7 51 10 25 3 56 8 70 11 14 3 52 8 85 11
33 4 62 8 64 10 6 6 461 -3 491 -9z m-1830 -501 c30 -4 81 -11 113 -17 46 -9
56 -15 52 -28 -21 -71 -25 -205 -7 -309 7 -46 12 -85 10 -86 -11 -9 -406 -196
-414 -196 -5 0 -24 29 -41 64 l-32 64 39 31 c119 95 41 290 -110 275 -38 -4
-39 -3 -54 44 -8 26 -17 61 -21 78 -6 31 -5 31 52 47 76 21 105 26 183 34 36
3 66 6 67 8 4 2 99 -3 163 -9z m3488 -11 c45 -3 88 -8 95 -10 7 -2 28 -6 48
-9 20 -3 42 -8 50 -10 8 -3 32 -10 55 -16 l41 -10 -17 -73 c-12 -52 -21 -71
-31 -68 -68 17 -143 -8 -181 -61 -34 -49 -33 -132 4 -180 15 -20 41 -42 58
-50 24 -10 30 -18 26 -34 -10 -39 -56 -134 -65 -134 -5 0 -116 52 -246 115
-131 63 -241 115 -245 115 -3 0 -6 64 -6 143 0 101 -4 158 -16 199 l-16 57 27
5 c60 13 90 17 161 22 41 4 76 7 77 8 3 3 79 -1 181 -9z m-1608 -618 c14 -3
52 -8 85 -11 85 -9 328 -53 445 -81 80 -19 239 -69 270 -85 59 -30 101 -93
115 -171 8 -42 -1 -51 -33 -35 -78 40 -409 128 -572 151 -19 3 -44 8 -56 10
-11 2 -45 7 -75 11 -30 3 -65 8 -79 10 -154 26 -623 25 -830 -2 -60 -7 -218
-32 -250 -39 -14 -3 -39 -8 -57 -11 -18 -3 -76 -16 -130 -30 -54 -13 -109 -27
-122 -30 -14 -3 -46 -15 -72 -28 l-47 -22 -11 23 c-16 35 -13 80 6 110 40 61
390 177 628 209 28 3 59 8 70 10 11 2 54 7 95 10 41 4 77 8 79 10 6 6 512 -3
541 -9z m-1597 -43 c32 -54 33 -58 8 -92 -52 -75 -54 -201 -4 -302 l29 -59
-24 -31 -24 -30 -57 58 c-58 59 -144 118 -216 146 -30 12 -53 34 -90 87 -27
38 -50 72 -50 75 0 7 376 192 390 193 6 0 22 -20 38 -45z m2924 -45 c104 -50
207 -100 230 -111 l42 -20 -32 -48 c-29 -44 -39 -51 -100 -71 -115 -37 -235
-120 -304 -210 -20 -27 -40 -49 -43 -49 -3 0 -13 12 -22 28 -14 24 -14 31 -1
67 16 44 21 170 10 224 -4 19 -19 58 -33 86 l-25 53 38 71 c20 39 40 71 45 71
4 0 92 -41 195 -91z m-1337 -302 c14 -3 55 -8 92 -12 37 -3 77 -8 90 -10 13
-2 41 -6 63 -10 181 -27 490 -107 573 -149 53 -27 120 -96 146 -150 31 -65 46
-157 41 -256 -4 -101 -8 -126 -17 -135 -3 -4 -25 6 -49 20 -203 129 -534 246
-795 281 -27 3 -58 8 -69 10 -36 7 -238 18 -340 18 -102 0 -292 -11 -304 -18
-3 -2 -28 -7 -55 -10 -27 -4 -77 -14 -110 -22 -34 -8 -72 -17 -86 -20 -115
-23 -403 -147 -540 -232 -36 -22 -68 -37 -72 -34 -15 15 -40 173 -41 262 -1
83 2 102 25 151 31 68 86 131 143 164 35 21 211 74 295 89 14 2 63 11 110 20
47 8 108 18 135 22 28 3 58 8 68 10 10 2 62 6 115 10 53 3 99 8 100 10 6 4
455 -4 482 -9z m1740 -121 c198 -21 365 -205 375 -411 10 -211 -94 -373 -284
-440 -298 -105 -569 69 -597 384 -17 187 102 376 278 443 48 18 151 37 173 32
6 -2 30 -5 55 -8z m-3746 -11 c282 -74 413 -372 281 -641 -46 -93 -173 -199
-266 -220 -47 -11 -147 -12 -195 -2 -116 24 -253 118 -307 211 -101 173 -80
375 55 523 111 121 276 170 432 129z m1962 -469 c51 -4 100 -8 110 -10 11 -2
39 -7 64 -10 70 -10 98 -15 201 -41 438 -111 771 -343 1053 -733 l39 -53 -24
-16 c-13 -9 -50 -42 -81 -73 l-56 -58 -17 51 c-47 143 -164 326 -290 453 -241
244 -553 347 -941 311 -72 -7 -191 -29 -234 -44 -31 -11 -25 -12 -136 15 -270
65 -520 46 -740 -57 -115 -54 -197 -112 -290 -207 -120 -120 -255 -338 -303
-485 l-12 -37 -50 53 c-41 44 -69 66 -138 112 -14 9 269 295 384 388 232 188
496 325 750 389 55 13 118 27 140 31 23 3 52 8 65 10 14 3 61 8 105 11 44 4
81 7 82 8 5 4 233 -2 319 -8z m-462 -380 c25 -4 89 -18 142 -32 101 -26 112
-26 209 -1 183 48 381 55 544 19 l33 -7 -47 -90 c-140 -265 -319 -456 -488
-520 -199 -75 -428 35 -622 299 -68 93 -175 274 -175 296 0 33 255 56 404 36z
m1187 -137 c131 -85 255 -235 341 -415 37 -76 43 -99 45 -159 0 -38 -8 -115
-19 -170 -30 -150 -28 -238 9 -370 17 -60 34 -123 37 -140 4 -16 9 -41 11 -55
15 -77 20 -139 20 -265 0 -181 -8 -236 -53 -363 -45 -126 -107 -226 -202 -322
-47 -48 -113 -106 -147 -128 -274 -184 -685 -278 -1088 -249 -49 4 -99 9 -110
11 -11 2 -42 7 -69 10 -295 40 -576 167 -752 341 -279 274 -341 668 -191 1195
18 63 24 105 22 160 -3 75 -5 92 -30 224 -22 115 -14 182 32 279 78 163 213
335 319 408 47 32 44 34 89 -51 113 -216 275 -415 427 -523 338 -242 708 -154
1004 238 71 94 151 224 194 313 19 39 37 72 41 72 3 0 35 -19 70 -41z m-2776
-443 c269 -71 398 -368 270 -621 -70 -136 -238 -235 -395 -230 -186 6 -345
127 -400 304 -71 227 53 470 277 541 69 22 178 25 248 6z m3990 -4 c352 -110
419 -580 110 -777 -239 -153 -555 -43 -644 223 -78 230 40 470 268 551 73 25
190 27 266 3z m-4517 -893 c56 -49 148 -101 218 -124 l50 -16 -96 -97 c-53
-54 -120 -135 -150 -180 -29 -45 -55 -80 -57 -79 -2 2 -12 43 -22 92 -14 62
-19 124 -19 214 1 118 13 231 25 231 3 0 26 -18 51 -41z m4863 29 c0 -7 2 -22
5 -33 29 -137 24 -301 -16 -457 l-12 -48 -35 58 c-53 87 -107 153 -193 236
l-79 75 63 21 c77 25 169 79 216 126 37 36 50 42 51 22z m-3997 -55 c-3 -16
-7 -95 -9 -178 -5 -233 29 -405 117 -580 145 -288 403 -497 758 -614 104 -35
297 -76 400 -86 36 -4 79 -9 95 -11 41 -7 278 -7 345 0 154 16 208 24 285 40
326 68 577 195 770 390 176 177 266 357 311 621 13 78 13 371 1 423 -3 12 -2
22 2 22 13 0 243 -135 316 -185 230 -159 370 -314 420 -464 25 -77 17 -181
-20 -256 -97 -199 -393 -379 -845 -515 -117 -35 -391 -102 -470 -115 -19 -3
-46 -7 -60 -10 -29 -5 -66 -11 -135 -21 -27 -3 -58 -8 -67 -10 -9 -1 -48 -6
-85 -9 -37 -4 -76 -9 -85 -10 -132 -25 -843 -25 -975 -1 -10 2 -49 7 -86 11
-37 3 -76 8 -85 10 -9 1 -39 6 -67 9 -48 6 -132 20 -185 31 -50 10 -76 15
-105 21 -380 69 -805 220 -1018 360 -107 71 -201 169 -240 251 -28 60 -32 78
-32 153 0 72 4 94 28 145 67 142 199 278 417 428 92 63 287 177 303 177 4 0 5
-12 1 -27z M5545 9539 c-32 -18 -55 -52 -55 -81 0 -69 35 -101 125 -112 28 -4
57 -9 65 -11 8 -2 31 -6 50 -9 42 -7 55 -9 145 -31 121 -28 135 -27 172 10 65
65 31 154 -64 171 -14 3 -55 12 -92 20 -36 9 -77 18 -91 20 -14 2 -36 7 -50 9
-63 13 -78 15 -130 20 -33 3 -63 1 -75 -6z M4310 9488 c-41 -10 -84 -20 -95
-23 -11 -3 -69 -19 -130 -37 -86 -25 -117 -39 -142 -64 -47 -46 -42 -103 11
-146 27 -23 60 -22 127 1 30 10 120 35 199 55 80 20 155 42 168 48 43 22 59
73 37 123 -24 59 -67 70 -175 43z M6314 9339 c-33 -17 -57 -65 -50 -103 9 -46
37 -68 139 -110 48 -20 133 -59 189 -87 105 -53 142 -61 183 -39 29 15 55 65
49 94 -9 53 -30 69 -169 136 -235 114 -292 132 -341 109z M3508 9192 c-265
-138 -324 -184 -315 -245 4 -31 24 -65 46 -76 47 -26 68 -20 183 46 62 36 152
85 200 109 96 48 118 71 118 124 0 32 -36 88 -58 91 -4 0 -19 3 -34 5 -20 3
-59 -12 -140 -54z M7024 8964 c-48 -23 -69 -88 -44 -134 5 -10 42 -41 80 -70
39 -28 117 -88 174 -134 56 -46 112 -87 124 -91 31 -9 88 12 106 40 29 43 21
92 -21 134 -64 63 -267 221 -321 250 -38 20 -65 21 -98 5z M2878 8778 c-113
-89 -276 -245 -295 -281 -30 -58 10 -134 73 -141 42 -5 55 2 126 69 99 92 148
136 210 188 54 46 78 84 73 118 -6 38 -17 56 -44 72 -48 28 -83 22 -143 -25z
M7599 8421 c-22 -22 -29 -39 -29 -68 0 -33 12 -52 96 -153 53 -63 116 -142
140 -176 57 -80 100 -99 158 -73 26 12 56 63 56 96 0 29 -138 215 -266 359
-48 53 -111 59 -155 15z M2330 8211 c-38 -40 -204 -281 -234 -340 -22 -42 -15
-89 18 -120 30 -28 86 -35 115 -14 12 8 58 69 103 136 45 67 101 148 125 179
48 63 59 109 35 150 -18 31 -51 48 -94 48 -23 0 -41 -10 -68 -39z M8067 7776
c-26 -24 -39 -58 -34 -86 2 -13 89 -196 180 -380 29 -58 65 -77 118 -61 45 14
72 49 71 92 -1 56 -164 396 -208 437 -35 31 -93 30 -127 -2z M1933 7544 c-32
-30 -92 -164 -153 -341 -37 -106 -35 -149 7 -183 35 -28 95 -27 126 3 14 13
38 61 57 117 18 52 53 142 77 199 23 57 43 119 43 137 0 47 -35 84 -86 91 -36
5 -45 1 -71 -23z M8392 7055 c-35 -15 -65 -64 -58 -97 3 -13 18 -81 35 -153
16 -71 32 -143 34 -160 18 -118 31 -146 77 -165 59 -24 126 15 133 78 8 72
-74 431 -107 468 -29 34 -75 45 -114 29z M1699 6795 c-27 -15 -45 -48 -54
-100 -2 -16 -7 -41 -9 -55 -6 -28 -12 -70 -21 -145 -4 -27 -8 -61 -11 -75 -9
-57 -6 -137 7 -158 18 -28 69 -53 99 -47 64 12 83 49 94 180 4 39 8 81 10 95
3 14 12 71 21 128 14 84 15 109 5 133 -22 52 -88 73 -141 44z M8515 6265 c-54
-23 -58 -39 -60 -283 -2 -187 0 -228 14 -255 32 -63 119 -66 165 -4 18 25 20
42 20 250 1 238 -3 263 -48 286 -34 18 -60 20 -91 6z M1660 6006 c-55 -18 -72
-52 -71 -137 1 -83 12 -284 16 -308 2 -9 4 -31 4 -48 2 -68 82 -117 142 -87
41 20 57 54 54 109 -1 28 -5 120 -9 205 -9 198 -11 213 -42 243 -31 32 -52 37
-94 23z M8474 5468 c-27 -13 -51 -54 -58 -103 -11 -74 -47 -243 -64 -307 -10
-34 -17 -69 -16 -75 1 -7 2 -19 3 -27 0 -7 13 -25 27 -40 37 -37 93 -36 133 2
30 28 50 88 86 262 39 182 39 230 4 266 -28 28 -80 38 -115 22z M1718 5205
c-54 -30 -59 -64 -28 -195 37 -153 92 -312 119 -343 56 -62 152 -26 167 62 1
7 -12 59 -30 115 -18 55 -46 151 -61 213 -30 123 -49 151 -106 158 -20 3 -45
-1 -61 -10z M8240 4707 c-14 -7 -38 -34 -55 -61 -38 -61 -154 -237 -194 -295
-44 -62 -32 -124 30 -153 38 -19 80 -10 116 24 29 27 144 195 201 295 60 102
53 167 -20 192 -39 14 -47 14 -78 -2z M1979 4441 c-44 -45 -40 -81 24 -183 44
-69 144 -206 192 -262 20 -24 60 -46 82 -46 55 0 103 48 103 103 0 21 -40 92
-59 107 -15 11 -101 130 -154 211 -30 47 -63 89 -72 93 -40 15 -87 6 -116 -23z
M5055 8240 c-70 -27 -89 -125 -33 -177 83 -77 211 20 162 122 -22 46 -83 72
-129 55z M5063 7410 c-88 -53 -82 -192 11 -242 90 -48 208 31 201 135 -8 101
-125 161 -212 107z M4342 7227 c-62 -36 -73 -117 -23 -168 51 -50 136 -36 166
28 33 69 -6 140 -82 149 -21 2 -48 -1 -61 -9z M5804 7196 c-37 -16 -65 -71
-58 -112 13 -79 118 -112 175 -55 80 80 -12 212 -117 167z M5017 5838 c-84
-18 -155 -74 -195 -154 -71 -140 8 -323 161 -375 178 -60 361 72 360 261 -1
78 -20 126 -74 185 -63 68 -164 102 -252 83z m107 -217 c41 -45 14 -115 -48
-125 -41 -7 -87 40 -80 80 12 66 85 92 128 45z M4184 5706 c-180 -83 -216
-325 -67 -455 109 -97 276 -91 377 14 55 56 71 100 71 191 0 85 -8 112 -56
175 -68 88 -220 124 -325 75z m164 -196 c32 -30 30 -82 -4 -109 -50 -39 -108
-16 -120 46 -13 65 74 109 124 63z M5720 5698 c-65 -32 -118 -93 -140 -162
-28 -86 5 -212 71 -277 167 -164 457 -49 465 184 3 78 -19 137 -71 195 -84 93
-212 117 -325 60z m177 -194 c66 -66 -35 -167 -104 -102 -30 28 -30 74 -1 105
29 31 72 30 105 -3z M6930 4273 c-264 -67 -352 -392 -158 -584 24 -23 68 -54
98 -68 46 -22 69 -26 145 -26 78 0 98 4 145 27 203 100 264 345 130 524 -82
110 -227 161 -360 127z m160 -210 c41 -24 63 -63 68 -117 5 -61 -23 -111 -78
-138 -131 -66 -267 83 -189 208 41 67 130 88 199 47z M3126 4264 c-102 -32
-189 -114 -227 -213 -17 -45 -20 -72 -17 -136 7 -139 79 -244 206 -303 47 -21
72 -26 138 -26 71 0 89 4 147 32 249 123 269 461 37 607 -82 51 -195 67 -284
39z m183 -211 c85 -64 82 -194 -6 -245 -102 -60 -223 8 -223 124 0 116 137
189 229 121z M5003 3401 c-152 -69 -187 -270 -66 -384 49 -47 101 -66 170 -63
130 6 223 101 224 229 1 72 -25 130 -78 177 -71 62 -168 78 -250 41z m122
-216 c0 -38 -37 -48 -55 -15 -14 27 4 52 34 48 16 -2 21 -10 21 -33z M3041
2854 c-68 -18 -108 -42 -159 -98 -49 -53 -72 -95 -87 -161 -37 -160 42 -320
195 -394 46 -22 69 -26 140 -26 97 0 165 25 234 86 137 120 153 332 36 479
-80 101 -227 148 -359 114z m168 -210 c97 -57 89 -209 -13 -258 -68 -32 -139
-11 -188 55 -35 47 -26 131 20 183 40 45 123 54 181 20z M7020 2853 c-103 -26
-186 -98 -233 -201 -16 -36 -21 -67 -22 -132 0 -77 3 -92 33 -152 119 -242
453 -264 601 -41 89 134 70 325 -44 438 -83 84 -217 119 -335 88z m151 -201
c27 -11 78 -65 80 -85 11 -94 -12 -146 -79 -178 -80 -39 -166 -6 -198 76 -48
126 70 238 197 187z"/>
</g>
</svg>
