<svg xmlns="http://www.w3.org/2000/svg" viewBox="0 0 1024 1024">
<g transform="translate(0,1024) scale(0.1,-0.1)">
<path fill="currentColor" d="M4609 8936 c-2 -2 -58 -7 -125 -10 -66 -4 -131 -8 -145 -11 -13 -2
-55 -6 -92 -10 -37 -3 -76 -8 -85 -10 -9 -1 -39 -6 -67 -9 -48 -6 -132 -21
-185 -31 -35 -7 -70 -14 -105 -20 -16 -3 -48 -11 -70 -17 -22 -5 -48 -12 -57
-13 -98 -19 -430 -127 -457 -149 -7 -6 -28 -42 -46 -81 -83 -179 -139 -294
-296 -609 -444 -888 -858 -1615 -1262 -2218 -51 -75 -93 -135 -93 -135 -1 1
-4 41 -8 89 -7 105 -18 156 -51 243 -90 240 -322 389 -595 382 -104 -3 -149
-19 -204 -73 -50 -51 -69 -101 -74 -195 -11 -209 123 -488 333 -695 l72 -71
-48 12 c-253 67 -533 243 -664 418 -48 65 -65 54 -157 -103 -109 -187 -130
-229 -123 -249 6 -21 150 -131 250 -192 136 -82 392 -189 456 -189 10 0 19 -4
19 -8 0 -5 -32 -49 -72 -98 -204 -254 -356 -565 -432 -884 -24 -102 -28 -120
-41 -204 -4 -21 -8 -48 -10 -59 -3 -11 -7 -52 -11 -91 -3 -39 -8 -82 -10 -96
-5 -34 -5 -388 0 -420 3 -14 7 -45 10 -70 22 -174 93 -366 197 -537 l38 -63
-44 -31 c-135 -97 -215 -300 -167 -420 12 -29 74 -86 108 -100 97 -36 236 -24
399 35 44 16 72 21 76 15 6 -11 4 -84 -5 -141 -15 -98 -85 -224 -175 -319 -52
-55 -61 -78 -37 -98 7 -6 82 -32 166 -57 173 -52 179 -52 250 18 49 49 92 131
120 229 18 66 23 99 35 219 2 19 4 38 4 43 1 4 22 -3 49 -17 90 -45 344 -131
442 -150 14 -2 59 -11 100 -20 168 -34 248 -41 480 -41 246 0 315 7 499 51
307 72 556 202 753 392 l47 45 32 -27 c107 -91 299 -129 395 -79 22 11 52 38
68 61 85 121 10 393 -160 581 l-37 42 17 77 c10 42 19 87 22 98 5 26 44 211
50 239 2 11 6 31 9 45 3 14 7 36 10 50 5 24 10 47 20 100 2 14 16 81 30 150
15 69 29 136 31 150 37 192 109 462 160 598 132 351 279 394 559 166 439 -358
784 -579 1149 -734 96 -40 305 -114 356 -124 14 -3 43 -10 65 -15 22 -6 54
-12 70 -15 17 -3 41 -8 55 -11 99 -20 411 -28 507 -12 252 40 504 151 681 300
24 21 47 37 51 37 3 0 13 -15 20 -32 8 -18 42 -60 75 -94 66 -65 149 -106 243
-120 188 -28 289 53 282 228 -5 128 -78 296 -179 411 l-29 33 22 26 c12 14 51
58 87 98 36 40 73 82 83 94 10 12 33 37 50 56 18 19 70 78 117 130 496 555
759 738 1060 738 207 0 408 -99 623 -307 76 -74 108 -91 131 -71 30 24 17 50
-61 127 -185 180 -369 287 -561 327 -81 18 -229 14 -312 -8 -102 -27 -274
-116 -390 -202 -110 -83 -366 -330 -516 -499 -49 -55 -120 -136 -159 -180 -38
-43 -108 -121 -154 -173 l-84 -93 -26 24 c-35 33 -107 77 -125 77 -20 0 -46
-38 -39 -57 3 -8 31 -31 62 -52 107 -73 206 -194 266 -324 53 -117 64 -221 29
-275 -35 -53 -131 -62 -237 -22 -154 58 -227 176 -229 370 0 71 8 153 22 200
11 39 -17 73 -53 65 -83 -19 -116 -22 -223 -23 -130 0 -214 14 -286 47 -126
60 -201 186 -163 276 25 61 141 93 254 70 110 -22 244 -89 379 -189 46 -34 56
-38 77 -28 38 18 32 53 -15 91 l-40 32 69 92 c37 51 101 144 142 207 175 274
306 439 493 625 398 396 795 535 1199 420 218 -62 382 -177 604 -423 30 -33
43 -41 61 -36 41 12 39 48 -9 106 -199 243 -438 397 -711 457 -75 17 -119 20
-233 17 -77 -2 -153 -7 -170 -10 -466 -102 -855 -425 -1273 -1056 -74 -113
-160 -237 -190 -277 l-54 -72 -86 44 c-78 39 -151 68 -207 82 -60 15 -175 14
-229 -1 -223 -65 -208 -349 27 -485 l48 -28 -71 -31 c-83 -38 -193 -70 -270
-79 -359 -44 -728 85 -1255 437 -142 95 -524 367 -550 392 -6 6 6 8 35 4 25
-3 72 -8 105 -11 33 -4 71 -8 85 -10 14 -2 52 -7 85 -11 33 -3 68 -8 79 -10
10 -2 44 -6 75 -10 31 -3 65 -8 76 -10 10 -2 37 -6 60 -9 53 -8 88 -14 155
-25 30 -5 69 -12 85 -14 17 -3 51 -9 76 -14 27 -5 54 -5 63 0 21 12 161 217
286 417 451 724 805 1490 1031 2231 28 91 52 173 54 182 2 9 13 51 25 93 12
42 23 84 25 93 2 9 11 49 20 87 9 39 19 81 21 95 3 14 7 33 10 42 6 20 17 76
29 143 3 17 10 53 15 80 18 93 20 110 26 165 5 41 2 59 -8 67 -23 20 -542 163
-718 199 -14 3 -45 10 -70 15 -64 15 -61 14 -205 42 -112 22 -325 60 -405 72
-14 2 -45 6 -70 10 -25 4 -56 8 -70 10 -14 2 -47 7 -75 10 -27 4 -61 8 -75 10
-14 2 -61 7 -105 11 -44 3 -88 8 -97 9 -9 2 -61 7 -115 10 -54 4 -114 9 -133
11 -42 6 -736 15 -741 10z m761 -99 c19 -3 78 -8 130 -12 52 -4 101 -8 110
-10 8 -1 47 -6 85 -9 74 -7 144 -15 185 -21 14 -2 61 -9 105 -15 142 -20 280
-43 395 -65 41 -8 89 -17 105 -20 59 -10 92 -17 165 -34 25 -5 56 -12 70 -14
14 -3 43 -10 65 -15 22 -6 52 -13 66 -16 40 -6 383 -97 388 -102 2 -2 -2 -4
-10 -5 -8 0 -21 -2 -29 -4 -20 -4 -75 -12 -130 -20 -25 -3 -52 -8 -60 -10 -8
-2 -31 -7 -50 -10 -19 -3 -46 -8 -60 -10 -40 -8 -73 -15 -100 -20 -14 -3 -36
-7 -50 -10 -14 -3 -38 -8 -55 -11 -16 -3 -50 -10 -75 -15 -25 -6 -56 -13 -70
-15 -14 -3 -33 -7 -42 -10 -10 -3 -30 -7 -45 -10 -16 -3 -46 -10 -68 -16 -22
-5 -51 -12 -65 -14 -14 -3 -32 -7 -40 -10 -8 -3 -26 -8 -40 -10 -51 -10 -370
-97 -531 -144 -333 -100 -792 -261 -1061 -374 l-105 -44 -44 42 c-302 285
-681 567 -1027 764 l-123 70 38 15 c38 15 143 46 176 52 9 2 21 6 25 9 5 3 19
7 33 9 13 3 60 14 104 25 83 22 322 66 410 77 28 3 64 8 80 10 74 10 127 15
220 21 55 3 102 8 104 10 6 5 777 -4 821 -9z m-2033 -308 c277 -150 579 -355
842 -571 119 -98 279 -241 280 -249 1 -4 -27 -19 -61 -34 -727 -324 -1386
-720 -1943 -1169 -127 -103 -135 -111 -135 -140 0 -23 16 -36 44 -36 7 0 66
43 132 96 546 442 1176 826 1858 1133 l179 81 51 -53 c421 -438 705 -846 935
-1346 155 -337 296 -804 337 -1116 3 -27 7 -52 9 -55 2 -3 6 -39 10 -81 l7
-76 -105 18 c-127 21 -157 26 -222 35 -27 3 -58 8 -69 10 -10 2 -44 6 -75 9
-31 4 -63 8 -71 10 -8 2 -44 7 -80 10 -36 4 -73 9 -82 10 -9 2 -48 7 -85 10
-37 4 -78 8 -90 10 -12 2 -57 7 -100 10 -66 6 -87 13 -138 45 -268 167 -508
190 -710 69 -60 -37 -69 -39 -123 -35 -31 3 -102 8 -157 11 -55 3 -127 8 -160
10 -56 3 -244 13 -395 20 -36 2 -144 6 -240 10 -96 4 -204 9 -240 10 -36 2
-107 4 -158 5 l-92 2 -58 57 c-89 88 -210 144 -377 175 -80 15 -387 16 -445 2
-14 -3 -45 -9 -69 -12 -35 -5 -43 -3 -39 8 3 7 63 97 133 198 280 408 596 933
910 1515 59 110 121 225 138 255 59 108 435 858 508 1012 41 87 77 158 81 158
4 0 33 -14 65 -31z m4069 -107 c-2 -4 -7 -27 -10 -52 -9 -66 -13 -86 -58 -295
-194 -907 -613 -1900 -1188 -2815 -177 -282 -189 -297 -191 -242 0 15 -2 36
-5 47 -2 11 -6 40 -10 65 -13 99 -66 344 -104 482 -197 718 -584 1393 -1128
1968 l-90 95 52 23 c179 80 715 271 1031 367 138 42 606 168 665 179 14 2 64
14 112 25 47 11 99 23 115 26 15 2 37 7 48 9 84 19 166 35 195 40 19 3 46 8
60 11 14 3 40 8 59 11 18 3 43 8 55 10 49 9 134 24 176 29 25 3 52 8 60 10 8
2 42 7 75 10 33 4 62 8 64 11 6 6 22 -7 17 -14z m-6432 -2186 c234 -37 391
-191 441 -431 17 -83 19 -267 5 -347 -21 -109 -21 -126 -4 -142 9 -9 25 -14
35 -11 56 15 86 21 159 31 25 3 56 7 70 10 32 6 277 5 310 0 14 -3 41 -7 60
-10 62 -9 174 -47 226 -77 116 -66 207 -199 207 -304 -1 -176 -172 -247 -457
-190 -115 23 -304 112 -461 216 -60 40 -115 74 -122 75 -6 1 -19 -6 -29 -17
-24 -26 -13 -142 22 -240 62 -174 257 -391 458 -510 20 -11 36 -24 36 -27 0
-4 -28 -38 -63 -76 l-62 -68 -91 61 c-218 145 -363 327 -423 526 -34 114 -40
187 -26 308 6 49 4 57 -13 66 -19 10 -42 9 -82 -4 -46 -14 -73 -17 -190 -21
-191 -5 -334 29 -545 131 -96 47 -242 137 -313 193 l-24 19 30 49 c16 27 48
81 70 120 l41 70 83 -81 c98 -95 204 -168 343 -235 104 -50 282 -114 349 -124
21 -4 41 -8 45 -10 7 -5 94 -18 136 -21 34 -2 60 25 51 53 -4 10 -24 28 -46
41 -306 172 -575 618 -515 854 28 109 122 149 289 123z m3500 -1108 c132 -36
210 -82 491 -288 688 -504 1002 -684 1347 -775 135 -35 149 -37 308 -41 210
-5 349 26 528 118 90 46 95 48 147 40 54 -9 237 -8 285 1 l25 5 -1 -155 -1
-154 -54 -45 c-183 -152 -402 -251 -642 -292 -58 -9 -369 -9 -442 1 -52 7 -90
15 -170 33 -11 3 -29 7 -40 9 -11 3 -56 16 -100 29 -419 128 -830 363 -1307
747 -233 188 -314 231 -433 232 -199 0 -329 -205 -454 -715 -22 -90 -42 -174
-45 -188 -2 -14 -9 -45 -15 -70 -5 -25 -12 -56 -15 -70 -2 -14 -19 -92 -36
-175 -17 -82 -33 -161 -35 -175 -3 -14 -7 -34 -9 -45 -3 -11 -14 -64 -25 -119
-12 -54 -23 -108 -26 -120 -2 -11 -10 -49 -16 -83 -7 -35 -16 -63 -20 -63 -5
0 -30 14 -56 30 -56 36 -57 36 -83 10 -27 -27 -15 -49 53 -94 207 -137 368
-465 292 -594 -35 -58 -129 -66 -248 -21 -115 44 -182 130 -213 273 -9 41 -5
192 7 246 21 104 8 125 -67 107 -111 -27 -307 -25 -419 5 -204 53 -317 272
-182 353 52 32 199 27 297 -10 89 -33 181 -83 270 -148 66 -49 88 -55 108 -35
31 31 3 69 -100 136 -32 20 -58 42 -58 48 0 6 9 60 20 120 11 60 22 123 25
139 26 147 63 319 111 520 3 11 7 31 10 45 13 69 110 387 150 494 89 238 206
451 315 570 70 78 192 155 275 175 61 15 172 10 248 -11z m-1679 -33 c116 -4
230 -8 255 -10 25 -1 119 -6 210 -10 91 -3 183 -8 205 -10 22 -2 101 -7 175
-10 74 -4 149 -8 165 -10 17 -2 45 -3 63 -4 l32 -1 -58 -74 c-149 -187 -278
-471 -388 -853 -24 -84 -46 -163 -48 -175 -3 -13 -7 -32 -10 -43 -14 -56 -66
-283 -70 -305 -2 -14 -9 -45 -14 -70 -6 -25 -13 -61 -16 -80 -3 -19 -8 -46
-11 -60 -3 -14 -10 -52 -16 -85 -5 -33 -12 -71 -15 -85 -2 -14 -7 -41 -10 -61
l-6 -36 -67 27 c-315 131 -572 16 -503 -225 45 -158 185 -259 400 -289 19 -2
36 -7 39 -9 9 -10 -66 -116 -122 -172 -94 -93 -239 -177 -379 -217 -47 -13
-41 -12 -86 -21 -19 -4 -46 -9 -60 -12 -153 -32 -431 -22 -635 22 -38 8 -76
15 -83 16 -21 1 -1 12 62 36 121 45 230 143 299 271 38 70 39 93 8 144 -42 67
-142 133 -211 138 -32 3 -36 -1 -72 -64 -50 -85 -131 -160 -204 -187 -53 -20
-194 -40 -194 -28 0 4 16 35 35 69 61 111 79 177 78 275 -2 126 -77 209 -195
215 -179 9 -342 -136 -404 -360 -9 -34 -21 -62 -25 -62 -11 0 -84 85 -136 157
-74 104 -142 257 -160 358 -2 17 -8 48 -12 71 -9 48 -7 244 3 324 50 382 246
762 550 1062 l40 39 21 -59 c78 -217 257 -417 508 -571 37 -22 74 -41 83 -41
9 0 30 15 48 33 50 52 170 188 179 203 15 26 -3 49 -68 87 -237 138 -422 345
-469 524 -16 60 -17 60 67 3 119 -80 342 -173 481 -200 62 -13 190 -15 244 -6
166 31 272 140 272 282 0 34 -7 81 -15 104 -19 55 -19 58 8 55 12 -2 117 -6
232 -10z m-1620 -213 l0 -97 -84 -85 c-253 -255 -433 -558 -515 -861 -131
-490 -52 -869 248 -1187 45 -48 81 -93 80 -99 -1 -7 -2 -33 -3 -57 l-1 -44
-47 15 c-119 36 -284 50 -348 30 -16 -5 -27 4 -57 51 -111 173 -183 378 -205
582 -12 119 -6 440 11 540 3 14 7 45 10 70 56 435 255 869 541 1184 l35 39
110 0 c61 0 125 3 143 7 17 4 43 8 57 9 l25 1 0 -98z m230 -1886 c40 -26 58
-79 51 -148 -12 -125 -92 -262 -241 -411 -75 -75 -93 -99 -88 -116 8 -32 49
-38 77 -12 12 11 27 21 33 21 5 0 55 -21 109 -46 163 -77 390 -145 559 -170
22 -3 51 -8 65 -11 60 -13 387 -11 475 3 358 57 614 220 745 472 17 33 28 42
49 42 14 1 51 3 81 6 l56 6 -3 -124 c-3 -128 17 -241 53 -295 19 -29 19 -27
-23 -71 -92 -93 -224 -187 -358 -255 -128 -64 -346 -132 -490 -152 -22 -4 -51
-8 -65 -10 -144 -23 -413 -23 -595 1 -309 39 -666 159 -893 300 l-72 45 54 50
c62 57 73 82 45 110 -24 24 -34 19 -109 -51 -199 -187 -565 -269 -646 -146
-37 58 10 206 95 292 20 20 61 48 91 63 47 22 69 26 150 26 110 0 129 -3 230
-39 139 -50 143 -48 146 56 7 303 115 525 277 573 55 16 108 13 142 -9z m554
-287 c38 -23 50 -34 73 -68 15 -22 15 -26 -4 -60 -68 -122 -156 -197 -283
-241 -116 -40 -217 -43 -295 -8 -30 14 -74 33 -97 43 -24 10 -43 21 -43 24 0
3 11 18 24 32 22 26 28 27 122 27 193 1 344 81 431 229 14 24 28 43 31 43 4 0
22 -9 41 -21z m-1005 -754 l87 -50 -6 -90 c-5 -94 -7 -108 -26 -190 -26 -112
-109 -242 -148 -231 -9 3 -55 16 -103 31 l-87 26 49 64 c98 129 144 266 138
412 -2 46 0 82 3 81 4 -2 46 -25 93 -53z"/>
</g>
</svg>
