<svg xmlns="http://www.w3.org/2000/svg" data-name="Layer 2" viewBox="0 0 64 64"><path fill="currentColor" d="M63,53H56V32a1,1,0,0,0-.2-.6l-2.251-3a1,1,0,0,0-1.6,1.2L53,31H41.5L37,25H48.5l1.2,1.6a1,1,0,1,0,1.6-1.2L50,23.667V18a1,1,0,0,0-.317-.73L38.951,7.242A.962.962,0,0,0,39,7V4a4,4,0,0,0-4-4H29a4,4,0,0,0-4,4V7a.961.961,0,0,0,.049.242L14.317,17.27A1,1,0,0,0,14,18v5.667L8.2,31.4A1,1,0,0,0,8,32V42a1,1,0,0,0,2,0V39h5v8H10V46a1,1,0,0,0-2,0v7H1a1,1,0,0,0-1,1v9a1,1,0,0,0,1,1H63a1,1,0,0,0,1-1V54A1,1,0,0,0,63,53ZM38,53H36V41a1,1,0,0,0-.105-.447l-2-4A1,1,0,0,0,33,36H31a1,1,0,0,0-.895.553l-2,4A1,1,0,0,0,28,41V53H24V33H40V53Zm-4,0H30V41.236L31.618,38h.764L34,41.236ZM15.5,25H27l-4.5,6H11Zm.5-6h4v4H16ZM27.167,8h9.666l3.211,3H23.956ZM35,23H28V19h8v4Zm-9-4v4H22V19Zm2.868-2,2.667-4h.93l2.667,4ZM38,19h4v4H38Zm-.465-2-2.667-4h7.316l4.281,4Zm-8.4-4-2.667,4h-8.93l4.281-4ZM54,37H42V33H54ZM42,39h5v8H42Zm7,0h5v8H49ZM39,31H25l4.5-6h5Zm5-8V19h4v4ZM29,2h6a2,2,0,0,1,2,2V6H27V4A2,2,0,0,1,29,2ZM10,33H22v4H10Zm7,6h5v8H17ZM10,49H22v4H10ZM2,55H25v7H21V59a1,1,0,0,0-2,0v3H15V59a1,1,0,0,0-2,0v3H9V59a1,1,0,0,0-2,0v3H2Zm25,7V55H37v7Zm35,0H57V59a1,1,0,0,0-2,0v3H51V59a1,1,0,0,0-2,0v3H45V59a1,1,0,0,0-2,0v3H39V55h6a1,1,0,0,0,0-2H42V49H54v4H49a1,1,0,0,0,0,2H62Z"/></svg>