<svg xmlns="http://www.w3.org/2000/svg" data-name="Layer 2" viewBox="0 0 64 64"><path fill="currentColor" d="M8,7V6A1,1,0,0,0,6,6V7A1,1,0,0,0,8,7Z"/><path fill="currentColor" d="M13,14V13a1,1,0,0,0-2,0v1a1,1,0,0,0,2,0Z"/><path fill="currentColor" d="M17,6V7a1,1,0,0,0,2,0V6a1,1,0,0,0-2,0Z"/><path fill="currentColor" d="M5,54a1,1,0,0,0,.143.515l3,5A1,1,0,0,0,9,60h5a1,1,0,0,0,.781-.375l.1-.122L17,62.333V64h2V62a1,1,0,0,0-.2-.6l-2.632-3.509,2.613-3.266A1,1,0,0,0,19,54V52h3a1,1,0,0,0,0-2H19V46h4a1,1,0,0,0,0-2H19V41.5l3.6-2.7A1,1,0,0,0,23,38V33a1,1,0,0,0-2,0v4.5L17.667,40H13a1,1,0,0,0,0,2h4v4H14a1,1,0,0,0,0,2h3v5.649L13.52,58H9.566L7,53.723V48h3a1,1,0,0,0,0-2H7V42H9a1,1,0,0,0,0-2H6.333L3,37.5V33a1,1,0,0,0-2,0v5a1,1,0,0,0,.4.8L5,41.5V44H1a1,1,0,0,0,0,2H5Z"/><path fill="currentColor" d="M57,50H54.315A6.228,6.228,0,0,0,56,45.742V30a1,1,0,0,0-2,0v2H50.674L46.21,20.972a1,1,0,0,0,.3-.114L50,18.766V22a1,1,0,0,0,.553.895L54,24.618V26a1,1,0,0,0,2,0V24a1,1,0,0,0-.553-.895L52,21.382V7a5.006,5.006,0,0,0-5-5V1a1,1,0,0,0-2,0V2a5.006,5.006,0,0,0-5,5v3a1,1,0,0,0,2,0V9h8v7.434l-4,2.4-4-2.4V14a1,1,0,0,0-2,0v3a1,1,0,0,0,.485.857l.238.143H20a1,1,0,0,0,0,2h6.895l-.59,5.9a1,1,0,1,0,1.99.2L28.9,20h3.021L31,32.929a1,1,0,0,0,1.812.652L36,29.12v7.2L31.808,38H29.315a2,2,0,0,1-1.99-2.2l.57-5.7a1,1,0,1,0-1.99-.2l-.57,5.7a4,4,0,0,0,3.98,4.4H32a1.008,1.008,0,0,0,.372-.071L36,38.477V48.945a5.243,5.243,0,0,0-.483.419A4.641,4.641,0,0,0,31.932,48a4.732,4.732,0,0,0-3.466,2H26a1,1,0,0,0,0,2h2V64h2V51.277A2.8,2.8,0,0,1,32.068,50,2.681,2.681,0,0,1,34.5,51.266V64h2V51.277A2.8,2.8,0,0,1,38.568,50,2.677,2.677,0,0,1,41,51.266V64h2V52H57a4,4,0,0,1,4,4v8h2V56A6.007,6.007,0,0,0,57,50ZM42,7a3,3,0,0,1,3-3h2a3,3,0,0,1,3,3ZM38,37V24.618l2.664-1.332L42.735,36.4a3.988,3.988,0,0,0,3.98,3.6H54v4H38Zm12-3h4v4H46.715a2.011,2.011,0,0,1-2-1.857L42.17,20H43.66l5.414,13.375A1,1,0,0,0,50,34ZM33.25,29.529,33.931,20h6.214l.192,1.213-3.784,1.892A1,1,0,0,0,36,24v1.679ZM43,50h-.446a4.662,4.662,0,0,0-4.122-2,4.12,4.12,0,0,0-.432.075V46H53.974a4.251,4.251,0,0,1-4.232,4Z"/><path fill="currentColor" d="M52,58a1,1,0,0,0,0-2H51a1,1,0,0,0,0,2Z"/><path fill="currentColor" d="M56,56H55a1,1,0,0,0,0,2h1a1,1,0,0,0,0-2Z"/></svg>