<svg viewBox="0 0 511.436 511.436" xmlns="http://www.w3.org/2000/svg"><g><path fill="currentColor" d="m491.969 418.038c-.49-24.265-14.642-42.023-27.124-55.453-5.511-5.929-10.716-11.529-14.572-17.614-5.957-9.401-7.841-19.859-10.021-31.968-2.064-11.456-4.616-28.316-12.464-39.86 1.89-5.402 2.931-11.199 2.931-17.238 0-25.424-18.227-46.662-42.297-51.357 1.304-21.604-3.686-43.29-15.049-64.515h-.001c-9.625-17.979-22.125-33.071-37.229-44.971.385-23.582-9.594-45.609-28.142-61.484-22.211-19.009-52.284-33.578-52.284-33.578s-30.072 14.569-52.281 33.576c-11.299 9.67-19.41 21.625-23.944 34.821-52.205-39.757-130.385-13.521-130.385-13.521s-29.957 88.402 23.28 141.638l.347.336c8.608 8.071 18.015 14.078 27.956 17.971-12.151 9.592-19.973 24.436-19.973 41.083 0 6.039 2.931 17.238 2.931 17.238-8.264 12.627-10.399 28.404-12.463 39.86-2.182 12.11-4.065 22.568-10.022 31.969-3.856 6.086-9.062 11.685-14.572 17.614-12.483 13.43-26.634 31.178-27.124 55.455.582 32.255 26.991 58.643 59.413 60.007-.101 1.668-.168 33.389-.168 33.389h354.01s-.067-31.72-.168-33.389c32.424-1.364 58.833-27.753 59.415-60.009zm-119.918-155.98.001-28.487h6.333c12.315 0 22.333 10.019 22.333 22.333 0 12.315-10.018 22.333-22.333 22.333h-7.465c.739-5.289 1.131-10.689 1.131-16.179zm-149.109-205.689c12.469-10.671 25.305-18.533 32.775-22.735 7.476 4.205 20.309 12.065 32.775 22.734 17.924 15.34 18.491 34.133 17.235 43.969l-1.159 9.075 7.538 5.185c14.304 9.838 26.017 23.16 34.815 39.594 6.146 11.48 9.893 22.851 11.254 34.182-13.607-19.117-35.927-31.623-61.126-31.623 0 0-84.953.035-86.088.087 1.585-5.359 2.636-10.842 3.075-16.382 1.155-14.565-1.759-28.654-8.5-41.646-.985-10.163.368-27.858 17.406-42.44zm-8.557 130.382h82.667c24.813 0 45 20.187 45 44.999l-.001 30.307c0 47.604-38.729 86.333-86.333 86.333s-86.333-38.729-86.333-86.333v-30.307c0-24.813 20.186-44.999 45-44.999zm-73.87 91.487h-7.464c-12.315 0-22.334-10.019-22.334-22.333 0-12.315 10.019-22.333 22.334-22.333h6.333v28.486c.001 5.49.392 10.89 1.131 16.18zm-2.138-104.181c-11.971-12.142-11.288-29.592-9.636-39.484 9.918-1.641 27.411-2.315 39.513 9.612 9.852 10.691 5.626 22.215-1.023 28.862-6.647 6.644-18.17 10.865-28.854 1.01zm-44.95 1.071c-31.58-31.777-24.59-78.392-20.37-96.236 17.886-4.188 64.607-11.12 96.272 20.348 4.855 5.218 8.384 10.61 10.804 16.044-29.995-20.309-75.599-4.979-75.599-4.979s-15.39 45.34 4.753 75.361c-5.837-2.593-11.209-6.211-15.86-10.538zm-6.926 272.985h-4.986c-17.369 0-31.747-13.734-32.052-30.613.246-12.206 7.42-21.922 19.103-34.491 6.195-6.665 12.601-13.557 17.939-21.981 9.1-14.361 11.812-29.421 14.205-42.708 1.155-6.415 2.271-12.607 4.024-18.44 8.17 5.279 17.888 8.358 28.317 8.358h15.902c6.141 14.142 15.009 26.833 25.941 37.407v54.792h-13.532c-33.077-.001-61.663 19.54-74.861 47.676zm22.237 33.323c.876-28.27 24.147-51 52.625-51h14.104c2.545 20.281 12.617 38.242 27.335 51zm146.979-10.219c-27.113 0-49.34-21.31-50.822-48.06v-56.472c15.364 7.493 32.61 11.704 50.823 11.704 18.222 0 35.477-4.216 50.846-11.716l.031 54.796c-.62 27.536-23.196 49.748-50.878 49.748zm52.917 10.219c14.717-12.758 24.79-30.719 27.335-51h14.103c28.479 0 51.749 22.73 52.625 51zm121.287-33.323h-4.986c-13.198-28.137-41.785-47.677-74.862-47.677h-13.489l-.031-54.803c10.927-10.572 19.791-23.259 25.929-37.395h15.903c10.429 0 20.147-3.079 28.317-8.358 1.753 5.832 2.869 12.025 4.024 18.44 2.394 13.287 5.105 28.347 14.207 42.708 5.338 8.424 11.743 15.316 17.938 21.98 11.683 12.569 18.857 22.283 19.103 34.49-.305 16.882-14.683 30.615-32.053 30.615z"/><path fill="currentColor" d="m270.875 270.546c-3.123 5.4-8.932 8.754-15.157 8.754-6.226 0-12.033-3.354-15.156-8.754l-25.969 15.021c8.468 14.639 24.227 23.733 41.125 23.733 16.899 0 32.658-9.094 41.126-23.733z"/></g></svg>