<svg viewBox="0 0 512 512" xmlns="http://www.w3.org/2000/svg"><g><path fill="currentColor" d="m129.619 251.24h30v30h-30z"/><path fill="currentColor" d="m298.953 251.24h30v30h-30z"/><path fill="currentColor" d="m512 326.239h-62.386c5.897-19.427 8.952-39.833 8.952-60.709l.006-73.625c0-39.17-14.082-77.083-39.652-106.755s-60.988-49.2-99.728-54.985l-46.176-6.896c-19.516-16.53-43.73-23.175-43.73-23.175s-24.953 6.978-43.729 23.175l-46.176 6.896c-38.74 5.785-74.158 25.313-99.728 54.985-25.571 29.673-39.653 67.586-39.653 106.756l.007 73.623c-.001 55.568 21.639 107.811 60.931 147.106 9.165 9.166 19.043 17.358 29.495 24.552-9.451 17.84-14.814 38.163-14.814 59.718v15h307.333v-15c0-20.749-4.967-40.357-13.768-57.707h142.816zm-197.239-266.403c31.633 4.724 60.553 20.669 81.433 44.898 10.984 12.746 19.372 27.357 24.856 42.997-8.21-6.308-16.966-11.889-26.14-16.635-24.625-12.739-52.389-19.473-80.29-19.473-2.816 0-5.622.089-8.423.223 1.755-6.562 2.705-13.449 2.705-20.556 0-11.744-2.522-22.962-7.444-33.441zm-85.477-27.81c13.277 5.729 49.617 24.583 49.617 59.264 0 27.358-22.257 49.615-49.615 49.615s-49.615-22.257-49.615-49.615c0-34.693 36.369-53.549 49.613-59.264zm23.977 259.036c-4.94 8.539-14.126 13.844-23.975 13.844s-19.035-5.305-23.974-13.844l-25.969 15.021c4.833 8.355 11.623 15.223 19.592 20.156h-12.126c-23.439 0-43.585 14.354-52.119 34.732-29.016-25.999-47.307-63.735-47.307-105.663l.014-14.448c37.592-13.464 69.426-30.588 95.941-51.665.317 25.074 20.801 45.377 45.949 45.377 25.13 0 45.602-20.274 45.947-45.323 26.525 21.061 58.365 38.167 95.957 51.613v14.432c0 25.827-6.939 50.062-19.045 70.945h-92.508c7.969-4.933 14.759-11.8 19.592-20.155zm-39.938-102.453v-19.314c5.159 1.054 10.497 1.609 15.963 1.609s10.804-.555 15.963-1.609v19.314c0 8.802-7.161 15.963-15.963 15.963s-15.963-7.161-15.963-15.963zm-150.945-83.875c20.879-24.229 49.799-40.174 81.433-44.898l13.304-1.987c-4.922 10.478-7.444 21.697-7.444 33.441 0 7.107.95 13.995 2.705 20.556-2.801-.134-5.608-.223-8.423-.223-27.9 0-55.665 6.734-80.29 19.473-9.174 4.746-17.93 10.327-26.141 16.635 5.484-15.64 13.873-30.251 24.856-42.997zm19.774 286.689c-33.627-33.629-52.146-78.339-52.145-125.895l.181-68.783c12.784-16.143 29.027-29.571 47.26-39.003 20.675-10.696 43.05-16.119 66.505-16.119 8.653 0 17.232.77 25.65 2.275 2.935 3.326 6.138 6.409 9.584 9.208-28.507 26.787-65.38 47.524-111.501 62.819l-10.268 3.405-.035 35.963c0 56.825 27.722 107.289 70.345 138.604-7.396 5.463-14.183 11.703-20.244 18.598-8.979-6.171-17.463-13.202-25.332-21.072zm24.613 90.483c3.913-25.373 17.606-47.549 37.079-62.587 10.368 12.152 25.776 19.879 42.965 19.879h147.287c9.043 12.369 15.275 26.918 17.71 42.707h-245.041zm283.568-72.708h-203.524c-14.601 0-26.479-11.878-26.479-26.479s11.879-26.479 26.479-26.479h27.477v26.479h30v-26.479h65.059v26.479h30v-26.479h50.988zm-4.477-82.959c9.844-21.64 15.333-45.663 15.333-70.945v-35.966c-49.273-14.756-93.316-39.408-121.844-66.19 3.461-2.807 6.678-5.9 9.624-9.24 8.417-1.506 16.997-2.275 25.649-2.275 23.455 0 45.831 5.423 66.506 16.119 18.183 9.407 34.606 23.58 47.375 39.664l.066 68.126c0 21.031-3.628 41.502-10.577 60.708h-32.132zm96.144 82.959h-61.667v-52.959h61.667z"/></g></svg>