<svg viewBox="0 0 511.956 511.956" xmlns="http://www.w3.org/2000/svg"><g><path fill="currentColor" d="m484.852 333.672c23.301-23.3 32.491-57.55 23.986-89.386l-7.26-27.175-27.174-7.259c-21.146-5.652-43.357-3.484-62.72 5.433 1.802-25.924-7.33-48.414-18.338-65.628-13.182-20.616-31.073-37.42-52.061-49.607 3.52-8.343 5.109-17.933 2.775-28.516-9.277-42.067-88.083-71.181-88.083-71.181s-78.806 29.113-88.083 71.181c-2.334 10.582-.744 20.172 2.775 28.516-20.988 12.188-38.879 28.992-52.061 49.607-11.007 17.215-20.139 39.704-18.338 65.627-19.361-8.916-41.571-11.083-62.719-5.433l-27.174 7.26-7.261 27.175c-8.505 31.836.685 66.086 23.986 89.386l11.422 11.422c-11.488 27.967-17.513 58.185-17.513 89.33 0 22.554 3.208 44.897 9.537 66.411l3.167 10.767h444.525l3.167-10.767c6.329-21.512 9.537-43.855 9.537-66.411 0-31.146-6.026-61.363-17.513-89.331zm-23.908 100.752c0 15.948-1.836 31.77-5.467 47.178h-22.536c-.885-44.812-37.588-81-82.608-81h-13.489l-.023-41.845c21.87-21.164 35.491-50.804 35.491-83.569v-9.419c53.505 37.021 88.632 98.808 88.632 168.655zm-220.708 47.178c33.106-15.946 63.514-33.734 86.658-51h23.438c28.478 0 51.749 22.73 52.624 51zm-183.756 0c-3.631-15.409-5.468-31.23-5.468-47.178 0-69.847 35.127-131.634 88.633-168.655v9.419c0 32.775 13.629 62.423 35.511 83.588v41.826h-13.532c-45.02 0-81.723 36.188-82.608 81zm-8.164-169.143c-15.752-15.752-21.965-38.907-16.215-60.429l2.782-10.413 10.413-2.782c21.205-5.662 43.988.289 59.721 15.53-5.226 4.396-10.299 9.026-15.185 13.912-14.667 14.667-27.14 30.939-37.289 48.408zm148.872-234.449c3.997-18.2 36.26-36.733 58.779-45.699 20.21 8.131 54.66 26.917 58.798 45.684.329 1.491 1.031 4.698-.716 9.471-8.247-2.926-16.799-5.231-25.592-6.871-12.255-12.354-32.503-21.375-32.503-21.375s-20.164 9.054-32.383 21.361c-8.818 1.64-17.394 3.951-25.664 6.885-1.744-4.766-1.046-7.967-.719-9.456zm269.472 160.826 10.413 2.781 2.782 10.413c5.75 21.522-.463 44.677-16.215 60.429l-4.226 4.226c-10.149-17.469-22.622-33.741-37.289-48.408-4.886-4.886-9.959-9.516-15.185-13.912 15.732-15.242 38.518-21.196 59.72-15.529zm-210.682 122.686c-47.604 0-86.333-38.729-86.333-86.334v-21.306c0-24.814 20.187-45 45-45 9.547 0 18.701 3 26.333 8.533v26.15h30v-26.151c7.632-5.532 16.786-8.532 26.333-8.532 24.813 0 45 20.186 45 45v21.306c0 47.604-38.729 86.334-86.333 86.334zm50.87 46.584c-14.292 10.456-31.724 21.261-50.896 31.691-19.375-10.545-36.713-21.349-50.796-31.65v-28.329c15.364 7.494 32.61 11.705 50.823 11.705 18.225 0 35.482-4.217 50.854-11.72zm-50.899-315.382c2.851 1.822 6.378 4.376 9.84 7.661 9.272 8.801 13.973 18.854 13.973 29.878 0 19.667-15.013 32.03-23.767 37.567-8.722-5.543-23.802-17.962-23.802-37.567 0-19.583 15.014-31.98 23.756-37.539zm121.318 140.36c-3.212-1.943-6.466-3.804-9.76-5.584-10.7-28.375-38.123-48.617-70.196-48.617-2.779 0-5.538.152-8.267.452 10.802-11.101 20.718-27.235 20.718-49.071 0-4.513-.427-8.779-1.194-12.811 24.608 9.745 45.443 26.376 59.504 48.365 14.467 22.626 17.543 44.861 9.195 67.266zm-173.872-115.635c-.772 4.034-1.202 8.301-1.202 12.814 0 21.812 9.957 37.963 20.781 49.079-2.75-.304-5.53-.459-8.33-.459-32.073 0-59.496 20.242-70.196 48.617-3.294 1.781-6.548 3.642-9.76 5.584-8.347-22.405-5.271-44.64 9.196-67.266 14.062-21.992 34.9-38.624 59.511-48.369zm-94.396 364.153c.876-28.27 24.146-51 52.624-51h23.443c11.191 8.341 24.311 16.961 38.819 25.512-19.807 9.425-40.512 18.133-60.87 25.488z"/><path fill="currentColor" d="m271.135 285.692c-3.124 5.4-8.932 8.755-15.157 8.755-6.226 0-12.033-3.355-15.157-8.754l-25.969 15.02c8.467 14.64 24.226 23.734 41.125 23.734 16.898 0 32.657-9.094 41.125-23.733z"/></g></svg>