<svg xmlns="http://www.w3.org/2000/svg" viewBox="0 0 1024 1024">
<g transform="translate(0,1024) scale(0.1,-0.1)">
<path fill="currentColor" d="M4989 9856 c-2 -2 -35 -7 -74 -11 -38 -4 -72 -8 -75 -10 -3 -2 -23
-6 -45 -9 -129 -20 -344 -99 -480 -177 -341 -195 -591 -482 -736 -846 -36 -91
-84 -272 -96 -363 -16 -127 -10 -426 12 -530 3 -14 7 -37 10 -51 10 -52 54
-196 83 -266 l30 -73 -52 -1 c-116 -1 -312 -36 -447 -79 -130 -43 -335 -147
-449 -227 -114 -82 -284 -249 -363 -358 -124 -170 -220 -370 -271 -566 -25
-95 -30 -119 -43 -219 -10 -71 -10 -316 0 -400 12 -107 52 -269 95 -380 21
-58 39 -106 38 -106 -1 -1 -46 -5 -101 -9 -55 -4 -102 -8 -105 -10 -3 -1 -27
-6 -55 -9 -81 -11 -232 -54 -340 -97 -540 -216 -943 -730 -1015 -1296 -18
-141 -9 -128 -89 -129 -123 -3 -225 -55 -295 -152 -50 -68 -69 -138 -64 -230
6 -100 42 -175 115 -242 47 -43 139 -90 176 -90 8 0 30 -68 60 -188 109 -437
276 -854 500 -1242 237 -412 532 -694 932 -890 220 -108 473 -182 705 -207 98
-10 5043 -10 5138 0 40 4 78 10 85 12 7 2 31 6 55 9 24 3 60 10 80 15 20 6 48
12 62 15 116 23 346 111 488 187 300 159 576 408 761 684 122 181 307 540 400
775 90 228 208 604 237 753 11 63 17 77 29 77 37 0 129 46 175 87 52 47 72 76
102 152 25 64 20 200 -11 263 -66 135 -197 215 -349 213 -59 -1 -56 -5 -67 90
-36 314 -165 613 -367 857 -291 350 -704 560 -1168 594 -47 3 -86 7 -87 8 -1
1 13 40 32 86 34 86 79 243 89 316 20 134 24 181 24 289 -1 66 -4 145 -8 175
-4 30 -11 75 -14 100 -22 149 -106 383 -190 530 -117 204 -295 403 -477 532
-185 132 -466 251 -673 284 -21 3 -47 7 -58 9 -10 2 -63 7 -116 11 -53 3 -98
7 -98 8 -1 0 14 40 32 88 79 204 113 403 108 633 -3 154 -4 163 -30 300 -58
294 -228 609 -449 830 -236 237 -575 411 -895 461 -19 3 -46 8 -60 10 -29 6
-336 15 -341 10z m331 -130 c14 -2 41 -7 60 -10 153 -24 342 -92 491 -176 230
-130 437 -334 571 -563 91 -156 172 -392 194 -567 11 -82 11 -304 1 -390 -14
-130 -65 -310 -122 -435 -26 -57 -36 -71 -56 -72 -28 -2 -117 -13 -139 -18 -8
-2 -31 -6 -50 -9 -120 -22 -312 -93 -443 -164 -260 -141 -495 -367 -639 -616
-78 -134 -64 -129 -109 -46 -214 393 -593 689 -1031 805 -106 28 -132 33 -208
41 -30 4 -62 8 -70 9 -32 4 -113 216 -151 395 -18 85 -23 139 -23 285 -1 181
2 220 29 343 3 12 8 34 11 50 13 66 59 186 113 297 180 369 495 644 886 774
66 22 140 43 165 46 24 4 47 8 50 10 3 2 37 6 75 10 39 4 72 9 74 11 6 6 289
-3 321 -10z m-1460 -2341 c256 -48 449 -126 645 -259 117 -79 302 -265 382
-382 65 -96 164 -284 164 -312 0 -10 -13 -62 -29 -117 -16 -55 -33 -120 -36
-145 -4 -25 -10 -65 -14 -90 -9 -59 -9 -361 0 -427 19 -128 57 -270 106 -395
l30 -78 -42 -1 c-59 -1 -128 -8 -236 -25 -74 -11 -228 -56 -328 -96 -339 -135
-641 -400 -817 -718 -28 -49 -53 -90 -56 -90 -3 0 -13 17 -23 38 -85 180 -284
416 -468 555 -229 172 -518 291 -783 322 -94 11 -90 8 -130 102 -34 82 -79
223 -90 282 -3 14 -7 37 -10 51 -20 92 -27 359 -12 475 30 229 134 492 274
688 77 109 247 277 358 356 152 107 408 222 545 245 19 3 46 8 60 11 14 3 45
8 70 11 25 3 47 8 49 10 6 6 353 -4 391 -11z m2975 1 c214 -44 336 -85 483
-161 140 -73 248 -152 362 -265 231 -229 374 -498 435 -815 25 -136 27 -394 2
-530 -21 -118 -57 -239 -102 -348 -39 -92 -38 -91 -120 -101 -289 -36 -568
-150 -808 -333 -154 -117 -349 -345 -434 -510 -21 -40 -40 -73 -43 -73 -3 0
-25 37 -50 83 -145 264 -383 499 -662 651 -132 72 -370 153 -501 171 -23 3
-51 8 -62 10 -11 2 -35 4 -53 4 -31 1 -35 5 -67 75 -88 190 -127 369 -131 601
-2 158 2 204 32 370 13 69 76 240 123 335 178 356 486 629 858 763 107 39 174
55 308 74 22 3 42 7 44 9 6 6 353 -3 386 -10z m-4475 -2341 c19 -3 81 -17 137
-30 458 -109 840 -424 1039 -858 l31 -68 -24 -77 c-35 -111 -61 -246 -67 -347
0 -11 -4 -22 -8 -25 -5 -4 -2830 -5 -2849 -1 -5 1 4 97 15 156 4 17 9 45 12
63 7 45 47 175 73 239 204 512 679 883 1216 949 28 4 52 8 54 10 6 5 333 -4
371 -11z m2966 2 c12 -3 39 -8 59 -11 21 -4 75 -16 119 -27 505 -129 914 -517
1074 -1019 17 -52 33 -111 36 -130 3 -19 8 -46 11 -60 3 -14 8 -47 11 -75 3
-27 7 -59 9 -70 3 -20 -3 -20 -1524 -20 -1519 0 -1526 0 -1525 20 25 442 295
897 683 1152 141 93 383 196 511 217 19 3 46 8 60 11 14 3 50 8 80 11 30 4 57
8 59 10 5 5 313 -3 337 -9z m2990 0 c12 -3 39 -8 60 -11 185 -29 416 -125 597
-248 111 -76 290 -252 370 -365 145 -205 249 -472 273 -703 3 -36 7 -69 8 -75
0 -6 -527 -9 -1426 -10 -786 0 -1428 2 -1429 5 0 3 -2 12 -3 20 -2 8 -6 44
-10 80 -4 36 -12 85 -17 110 -6 25 -13 55 -15 68 -3 13 -15 56 -28 97 l-23 74
25 58 c107 238 303 480 509 626 198 141 471 249 688 273 33 3 62 8 64 10 5 5
332 -3 357 -9z m1595 -1549 c116 -51 174 -174 139 -299 -13 -47 -72 -114 -124
-142 l-41 -22 -4745 -2 c-3456 -2 -4756 0 -4785 8 -94 26 -169 117 -179 215
-10 110 79 231 187 253 16 3 2162 6 4770 5 4277 0 4746 -2 4778 -16z m-166
-600 c-2 -7 -20 -77 -39 -156 -38 -153 -113 -391 -127 -406 -12 -13 -8908 -14
-8919 -1 -17 23 -132 401 -147 485 -2 14 -8 40 -13 58 l-8 32 4628 0 c3699 0
4629 -3 4625 -12z m-215 -698 c0 -36 -262 -589 -302 -637 -8 -11 -790 -13
-4112 -13 l-4101 0 -24 43 c-97 173 -281 569 -281 604 0 11 818 13 4410 13
2893 0 4410 -3 4410 -10z m-386 -782 c-4 -7 -30 -44 -57 -83 -220 -308 -538
-555 -903 -698 -91 -36 -284 -91 -358 -103 -21 -3 -47 -7 -57 -9 -10 -2 -49
-7 -86 -12 -85 -10 -5034 -11 -5123 0 -75 8 -105 13 -175 28 -27 6 -63 13 -80
16 -70 12 -279 88 -394 143 -250 121 -471 291 -651 500 -56 64 -139 175 -164
218 -6 9 802 12 4024 12 3222 0 4030 -3 4024 -12z M5902 8884 c-41 -28 -29
-66 42 -139 l63 -64 -63 -66 c-66 -67 -77 -94 -51 -129 26 -36 64 -23 131 43
34 33 65 61 69 61 3 0 30 -24 59 -53 64 -65 86 -77 115 -66 23 8 43 38 43 62
0 7 -30 44 -66 81 l-66 67 66 68 c79 83 85 116 25 139 -32 13 -50 3 -120 -65
l-57 -55 -65 63 c-71 68 -92 77 -125 53z M3937 8862 c-31 -34 -21 -64 43 -127
33 -33 60 -64 60 -70 0 -6 -27 -37 -60 -70 -64 -63 -76 -98 -44 -129 32 -32
66 -20 134 49 l64 65 66 -65 c38 -37 74 -65 86 -65 28 0 52 20 59 51 6 23 -2
37 -59 95 l-65 68 65 67 c68 72 77 96 44 129 -33 33 -57 24 -129 -45 l-68 -65
-65 65 c-70 69 -101 80 -131 47z M4945 8386 c-33 -24 -24 -72 21 -115 71 -68
71 -66 27 -108 -60 -58 -75 -86 -64 -115 10 -26 29 -38 62 -38 10 0 43 24 72
54 l54 53 56 -53 c58 -55 87 -66 120 -41 32 23 29 55 -11 100 -20 23 -47 50
-59 60 l-23 18 54 54 c63 64 71 86 44 120 -30 38 -57 31 -123 -30 l-59 -55
-56 55 c-57 56 -82 65 -115 41z M3447 7149 c-25 -15 -37 -50 -24 -74 5 -11 28
-38 51 -60 77 -76 77 -67 3 -144 -70 -72 -79 -100 -40 -128 35 -26 63 -15 130
50 l65 63 64 -63 c64 -65 93 -76 126 -50 43 33 28 69 -67 159 l-40 38 62 62
c75 77 83 99 49 133 -14 14 -32 25 -42 25 -9 0 -47 -30 -85 -66 l-68 -66 -46
45 c-86 87 -103 96 -138 76z M4411 6541 c-34 -34 -26 -58 43 -129 l64 -67 -64
-68 c-68 -71 -78 -101 -46 -130 35 -32 64 -21 132 48 l64 65 66 -65 c69 -69
103 -81 134 -49 31 30 19 63 -49 133 l-64 67 64 64 c74 73 84 107 40 136 -36
24 -62 12 -130 -56 l-59 -60 -61 59 c-70 70 -103 83 -134 52z M2447 6522 c-30
-33 -20 -61 48 -131 l64 -67 -64 -64 c-70 -69 -81 -102 -47 -133 33 -30 61
-20 130 47 l67 65 66 -65 c71 -68 102 -79 132 -46 32 35 21 64 -48 132 l-65
64 65 66 c69 69 81 103 49 134 -32 32 -66 20 -134 -49 l-64 -65 -66 65 c-70
70 -102 81 -133 47z M6409 7139 c-31 -31 -18 -64 54 -137 l61 -62 -67 -68
c-69 -70 -77 -91 -48 -126 28 -33 68 -20 133 44 34 33 64 60 67 60 2 0 32 -27
67 -60 66 -63 98 -74 128 -44 34 33 25 59 -47 131 l-61 63 49 52 c28 29 53 55
56 58 32 28 26 80 -11 100 -31 17 -43 11 -115 -59 l-66 -64 -68 67 c-74 71
-98 79 -132 45z M7393 6545 c-40 -28 -30 -65 37 -131 33 -32 60 -63 60 -68 0
-5 -27 -37 -60 -72 -63 -66 -74 -98 -44 -128 32 -32 66 -20 134 49 l64 64 64
-64 c72 -72 108 -83 136 -43 26 37 19 55 -49 124 l-65 67 65 67 c69 73 78 97
45 130 -33 33 -57 24 -130 -46 l-68 -66 -59 60 c-65 67 -96 81 -130 57z M5427
6522 c-32 -35 -21 -64 48 -132 l65 -64 -65 -66 c-70 -70 -81 -102 -47 -133 33
-30 61 -20 131 48 l67 64 64 -64 c69 -70 96 -79 130 -45 33 33 24 57 -45 129
l-65 67 61 60 c67 67 79 93 55 129 -29 44 -63 34 -136 -40 l-64 -64 -67 64
c-71 69 -102 80 -132 47z M1957 4809 c-25 -15 -37 -50 -25 -74 6 -11 27 -36
47 -56 20 -19 45 -45 55 -58 l20 -22 -61 -62 c-59 -60 -67 -72 -64 -109 1 -24
51 -48 76 -38 11 5 45 33 75 64 30 31 57 56 61 56 3 0 31 -24 60 -54 65 -64
87 -76 116 -65 22 8 43 38 43 61 0 7 -30 44 -67 81 l-67 68 61 62 c34 34 64
73 67 87 7 31 -11 56 -47 65 -23 6 -36 -2 -97 -61 -39 -38 -74 -64 -78 -59
-19 27 -132 125 -144 125 -7 0 -21 -5 -31 -11z M2935 4208 c-53 -30 -46 -58
31 -138 l66 -68 -66 -69 c-69 -71 -79 -98 -47 -127 39 -35 59 -29 129 39 36
36 68 65 71 65 2 0 35 -29 71 -65 69 -66 91 -73 126 -44 31 26 17 68 -48 135
l-61 64 61 64 c64 66 75 95 50 129 -29 39 -57 30 -130 -40 l-69 -67 -62 61
c-67 66 -91 78 -122 61z M954 4175 c-24 -36 -12 -62 55 -129 l61 -60 -65 -67
c-68 -70 -75 -90 -49 -127 27 -39 60 -28 132 42 l67 65 66 -65 c70 -67 103
-79 133 -48 32 32 20 66 -49 134 l-65 64 65 66 c70 70 81 102 47 133 -33 30
-61 20 -131 -47 l-66 -65 -67 65 c-74 72 -106 81 -134 39z M4920 4793 c-28
-36 -19 -56 53 -130 l61 -62 -67 -69 c-69 -72 -77 -96 -43 -130 30 -30 65 -17
132 49 l64 63 57 -56 c32 -30 67 -60 78 -66 39 -19 86 18 79 62 -1 11 -31 48
-65 82 l-63 63 67 69 c52 55 65 74 62 93 -5 27 -39 59 -62 59 -8 0 -46 -30
-84 -67 l-70 -67 -63 63 c-74 73 -105 83 -136 44z M5920 4212 c-21 -7 -39 -33
-40 -58 0 -12 27 -48 65 -87 l64 -66 -64 -66 c-67 -68 -77 -94 -52 -129 26
-36 64 -23 131 43 34 33 65 61 70 61 4 0 35 -27 68 -60 33 -33 63 -60 66 -61
4 0 15 -2 24 -4 23 -4 58 31 58 59 0 15 -23 48 -65 92 l-64 68 64 65 c67 66
77 91 52 125 -28 39 -62 29 -133 -40 -36 -35 -67 -64 -69 -64 -2 0 -33 29 -69
63 -63 62 -75 69 -106 59z M3937 4182 c-32 -35 -21 -64 48 -132 l65 -64 -65
-66 c-70 -70 -81 -102 -47 -133 33 -30 61 -20 131 48 l67 64 64 -64 c69 -70
102 -81 133 -47 30 33 20 61 -47 131 l-65 66 65 67 c72 74 81 106 39 134 -36
24 -62 12 -129 -55 l-60 -61 -67 65 c-71 69 -102 80 -132 47z M7900 4800 c-33
-33 -24 -57 47 -131 l67 -70 -67 -67 c-37 -37 -67 -75 -67 -85 0 -10 11 -29
24 -42 22 -22 29 -23 53 -14 15 5 54 36 86 67 l57 56 63 -61 c72 -70 82 -75
120 -56 21 10 27 21 27 45 0 26 -12 45 -62 95 l-62 63 56 57 c30 32 60 67 66
78 19 38 -19 88 -62 81 -9 -1 -46 -31 -81 -66 l-65 -64 -65 64 c-71 70 -103
82 -135 50z M8882 4204 c-41 -29 -29 -68 41 -138 l63 -64 -63 -65 c-50 -51
-63 -71 -63 -96 0 -23 6 -34 28 -45 36 -18 56 -9 122 58 30 31 57 56 61 56 4
0 35 -28 69 -61 66 -66 95 -76 130 -44 34 31 24 57 -46 128 l-67 67 67 69 c36
38 66 77 66 88 -1 28 -23 51 -55 57 -24 4 -37 -4 -96 -61 l-69 -66 -64 63
c-69 68 -91 78 -124 54z M6918 4183 c-34 -40 -31 -52 37 -122 36 -37 65 -72
65 -77 0 -5 -27 -36 -60 -69 -64 -63 -76 -98 -44 -129 30 -31 63 -19 133 49
l67 64 64 -64 c69 -70 96 -79 130 -45 32 32 24 55 -45 127 l-64 68 59 60 c69
70 81 104 51 134 -35 35 -60 26 -131 -44 l-65 -65 -67 65 c-70 69 -102 80
-130 48z"/>
</g>
</svg>
