<svg viewBox="-48 0 496 496" xmlns="http://www.w3.org/2000/svg"><path fill="currentColor" d="m248 208c0 4.417969-3.582031 8-8 8s-8-3.582031-8-8 3.582031-8 8-8 8 3.582031 8 8zm0 0"/><path fill="currentColor" d="m168 208c0 4.417969-3.582031 8-8 8s-8-3.582031-8-8 3.582031-8 8-8 8 3.582031 8 8zm0 0"/><path fill="currentColor" d="m192 192h16v16h-16zm0 0"/><path fill="currentColor" d="m200 288c17.648438 0 32-14.351562 32-32h-16c0 8.824219-7.175781 16-16 16s-16-7.175781-16-16h-16c0 17.648438 14.351562 32 32 32zm0 0"/><path fill="currentColor" d="m336.414062 347.449219-.917968-.890625c-.945313-1.167969-1.625-2.230469-2.070313-3.222656-.769531-1.703126.414063-6.527344 1.269531-10.046876 1.464844-5.9375 3.113282-12.664062.878907-19.007812-2.230469-6.34375-7.742188-10.570312-12.589844-14.296875-2.871094-2.199219-6.808594-5.214844-7.273437-7.023437-.472657-1.792969 1.503906-6.335938 2.945312-9.664063 2.441406-5.617187 5.191406-11.984375 4.0625-18.617187-1.125-6.625-5.832031-11.703126-9.992188-16.191407-2.46875-2.664062-5.832031-6.304687-6-8.167969-.246093-2.976562.859376-6.128906 2.144532-9.777343.785156-2.238281 1.609375-4.664063 2.226562-7.269531.140625-.617188.253906-1.242188.367188-1.867188.304687-1.71875.535156-3.496094.535156-5.40625v-72h16v-16h-16c0-5.289062-.496094-10.457031-1.207031-15.550781l14.648437-3.929688-4.144531-15.457031-13.816406 3.707031c-1.503907-5.167969-3.382813-10.160156-5.585938-14.992187l11.882813-6.855469-8-13.859375-11.539063 6.65625c-2.925781-4.558594-6.167969-8.878906-9.703125-12.957031l9.273438-9.28125-11.3125-11.3125-9.273438 9.28125c-4.078125-3.539063-8.398437-6.777344-12.957031-9.707031l6.65625-11.535157-13.859375-8-6.855469 11.882813c-4.832031-2.203125-9.824219-4.082032-14.984375-5.585938l3.707032-13.808594-15.449219-4.136718-3.929688 14.648437c-2.496093-.351562-5.007812-.621093-7.542969-.800781v-16.40625h-16v16.40625c-5.167968.371094-10.265624 1-15.214843 2.050781l-4.273438-15.898437-15.457031 4.152344 4.371094 16.28125c-2.59375.953124-5.152344 1.976562-7.648438 3.113281l-6.855468-11.882813-13.859376 8 6.65625 11.539063c-4.558593 2.925781-8.878906 6.167969-12.957031 9.703125l-9.273437-9.28125-11.3125 11.3125 9.273437 9.28125c-3.535156 4.078125-6.777343 8.398437-9.703125 12.957031l-11.539062-6.65625-8 13.859375 11.882812 6.855469c-2.203125 4.832031-4.082031 9.824219-5.585937 14.992187l-13.816407-3.707031-4.144531 15.457031 14.648438 3.929688c-.703125 5.078125-1.199219 10.246094-1.199219 15.535156h-16v16h16v72c0 1.910156.230469 3.6875.542969 5.40625.113281.632812.21875 1.257812.367187 1.875.617188 2.605469 1.433594 5.03125 2.226563 7.269531 1.277343 3.65625 2.390625 6.808594 2.144531 9.785157-.167969 1.855468-3.527344 5.503906-6 8.160156-4.160156 4.488281-8.867188 9.574218-9.992188 16.191406-1.136718 6.632812 1.621094 13 4.0625 18.617188 1.441407 3.320312 3.417969 7.863281 2.945313 9.664062s-4.402344 4.816406-7.273437 7.015625c-4.847657 3.726563-10.359376 7.953125-12.589844 14.304687-2.226563 6.335938-.578125 13.0625.878906 19 .855469 3.519532 2.039062 8.34375 1.273438 10.046876-.433594.96875-1.082032 1.984374-1.960938 3.105468l-1.210938 1.054688-63.414062 14.089844v17.726562l19.878906 19.878906c3.90625 3.90625 7.96875 7.585938 12.121094 11.152344v85.65625h336v-85.65625c4.144531-3.566406 8.214844-7.253906 12.121094-11.152344l19.878906-19.878906v-17.726562zm-29.460937-80.074219c.328125 1.9375-1.503906 6.167969-2.976563 9.554688-2.625 6.054687-5.601562 12.925781-3.753906 20.039062 1.839844 7.128906 7.785156 11.679688 13.015625 15.703125 2.9375 2.25 6.585938 5.054687 7.242188 6.902344.648437 1.851562-.449219 6.3125-1.328125 9.898437-1.0625 4.335938-2.097656 9.054688-1.808594 13.734375l-61.34375-13.621093v-21.753907c17.847656-14.761719 29.71875-36.433593 31.648438-60.855469 1.398437-.34375 2.765624-.753906 4.085937-1.273437 1.746094 5.375 5.632813 9.761719 9.257813 13.664063 2.511718 2.703124 5.632812 6.082031 5.960937 8.007812zm-66.953125-203.375v16h-80v-16zm-12.449219 64c2.753907-4.726562 4.449219-10.144531 4.449219-16s-1.695312-11.273438-4.449219-16h38.6875l10.671875 32zm-19.550781-2.222656v-27.546875c4.761719 2.777343 8 7.882812 8 13.777343 0 5.894532-3.238281 10.992188-8 13.769532zm-16-27.554688v27.546875c-4.761719-2.777343-8-7.882812-8-13.777343 0-5.894532 3.238281-10.992188 8-13.769532zm-19.550781-2.222656c-2.753907 4.726562-4.449219 10.144531-4.449219 16s1.695312 11.273438 4.449219 16h-49.351563l10.671875-32zm-44.449219 48h64v14.0625l-.734375-.488281c-8.410156-5.597657-18.1875-8.558594-28.28125-8.558594-13.542969 0-25.839844 5.34375-34.984375 14zm80 0h64v19.007812c-9.144531-8.648437-21.441406-14-34.984375-14-10.09375 0-19.871094 2.960938-28.28125 8.558594l-.734375.496094zm80 0h8v44.449219c-2.480469-1.449219-5.152344-2.578125-8-3.3125zm5.761719-16-12.355469-37.054688c-2.175781-6.546874-8.269531-10.945312-15.175781-10.945312h-10.230469v-16c0-8.824219-7.175781-16-16-16h-16v-8c0-1.710938-.191406-3.367188-.535156-4.976562 41.605468 10.511718 72.535156 48.152343 72.535156 92.976562zm-85.761719-88v8h-16v-8c0-4.40625 3.585938-8 8-8s8 3.59375 8 8zm-32 0v8h-16c-8.824219 0-16 7.175781-16 16v16h-10.230469c-6.898437 0-13 4.398438-15.167969 10.9375l-12.363281 37.0625h-2.238281c0-44.824219 30.929688-82.464844 72.535156-92.976562-.34375 1.609374-.535156 3.265624-.535156 4.976562zm-64 104v41.136719c-2.847656.742187-5.519531 1.863281-8 3.3125v-44.449219zm16 56c0-19.289062 15.695312-34.984375 34.984375-34.984375 6.925781 0 13.640625 2.03125 19.40625 5.871094l9.609375 6.410156v6.703125h16v-6.703125l9.609375-6.410156c5.765625-3.839844 12.480469-5.871094 19.40625-5.871094 19.289063 0 34.984375 15.695313 34.984375 34.984375v40c0 39.695312-32.296875 72-72 72s-72-32.304688-72-72zm72 128c14.40625 0 27.984375-3.550781 40-9.710938v15.023438c-4.046875 4.917969-17.375 18.6875-40 18.6875-22.671875 0-35.929688-13.710938-40-18.6875v-15.023438c12.015625 6.160157 25.59375 9.710938 40 9.710938zm16 64c0 13.007812-7.328125 24-16 24s-16-10.992188-16-24 7.328125-24 16-24 16 10.992188 16 24zm-67.128906-47.113281c4.695312 5.335937 14.089844 14.128906 28.273437 19.191406-3.066406 3.921875-5.425781 8.648437-7.007812 13.867187-18.105469-7.632812-30.648438-20.839843-37.359375-29.480468zm19.320312 49.480469c1 20.9375 14.808594 37.632812 31.808594 37.632812s30.808594-16.695312 31.808594-37.632812c2.832031-1.03125 5.582031-2.136719 8.191406-3.375v89.007812h-80v-89c2.609375 1.230469 5.359375 2.34375 8.191406 3.367188zm61.664063-16.414063c-1.574219-5.226563-3.933594-9.953125-7.007813-13.875 14.183594-5.070313 23.578125-13.855469 28.273438-19.191406l16.085937 3.578125c-6.710937 8.640625-19.246093 21.855468-37.351562 29.488281zm65.511719-157.746094c-1.121094 4.082031-3.792969 7.480469-7.367188 9.570313v-27.546875c4.761719 2.777343 8 7.882812 8 13.777343 0 1.367188-.257812 2.761719-.632812 4.199219zm-183.367188-17.984375v27.546875c-3.574219-2.089843-6.246094-5.488281-7.367188-9.570312-.375-1.429688-.632812-2.824219-.632812-4.199219 0-5.894531 3.238281-11 8-13.777344zm-31.160156 127.257813c-.878906-3.585938-1.976563-8.046875-1.328125-9.886719.65625-1.859375 4.304687-4.664062 7.242187-6.914062 5.230469-4.015626 11.167969-8.574219 13.015625-15.695313 1.847657-7.128906-1.128906-13.992187-3.753906-20.046875-1.480469-3.394531-3.304687-7.617188-2.976563-9.5625.328126-1.925781 3.457032-5.304688 5.960938-8.007812 3.625-3.902344 7.511719-8.289063 9.257812-13.664063 1.316407.519531 2.695313.929687 4.085938 1.273437 1.929688 24.421876 13.800781 46.09375 31.648438 60.855469v21.753907l-61.351563 13.628906c.304687-4.679688-.738281-9.398438-1.800781-13.734375zm-63.425782 44.625 98.320313-21.847657c4.289063 6.414063 13.679687 18.6875 28.265625 29.222657v98.519531h-28.472656c-7.421875-8.496094-11.527344-19.238281-11.527344-30.632812v-.832032c0-9.230468 2.710938-18.175781 7.832031-25.863281 5.335938-8.007813 8.167969-17.335937 8.167969-26.976563v-19.695312h-16v19.695312c0 6.464844-1.894531 12.730469-5.488281 18.113282-3.160157 4.742187-5.550781 9.871094-7.304688 15.199218-22.359375-10.039062-42.597656-23.703124-60.015625-41.128906zm30.585938 48.765625c12.519531 8.882812 25.96875 16.394531 40.230469 22.496094-.054688 1.066406-.230469 2.105468-.230469 3.167968v.832032c0 10.914062 2.816406 21.375 8.03125 30.632812h-48.03125zm304 57.128906h-48.03125c5.214844-9.257812 8.03125-19.71875 8.03125-30.632812v-.832032c0-1.0625-.175781-2.109375-.230469-3.167968 14.261719-6.09375 27.710938-13.613282 40.230469-22.496094zm16.808594-92.121094c-17.417969 17.425782-37.65625 31.089844-60.015625 41.128906-1.753907-5.328124-4.144531-10.464843-7.304688-15.207031-3.59375-5.375-5.488281-11.640625-5.488281-18.105469v-19.695312h-16v19.695312c0 9.640626 2.832031 18.96875 8.167969 26.976563 5.121093 7.6875 7.832031 16.640625 7.832031 25.863281v.832032c0 11.394531-4.105469 22.136718-11.527344 30.632812h-28.472656v-98.527344c14.585938-10.527344 23.976562-22.808594 28.265625-29.226562l98.320313 21.851562zm0 0"/><path fill="currentColor" d="m192 448h16v16h-16zm0 0"/></svg>