<svg xmlns="http://www.w3.org/2000/svg" viewBox="0 0 1024 1024">
<g transform="translate(0,1024) scale(0.1,-0.1)">
<path fill="currentColor" d="M5013 9925 c-213 -59 -348 -242 -338 -455 3 -68 28 -149 61 -202 l24
-37 -43 -11 c-170 -43 -408 -156 -547 -260 -123 -92 -224 -193 -250 -248 -48
-102 -11 -253 78 -319 71 -52 103 -61 234 -62 l88 -1 -1 -135 c-1 -108 -4
-135 -15 -136 -8 -1 -17 -2 -21 -3 -5 -1 -26 -5 -48 -10 -52 -10 -143 -59
-187 -100 -99 -94 -137 -189 -138 -346 l0 -106 -97 0 c-202 -2 -319 -26 -458
-95 -263 -132 -447 -386 -490 -674 -6 -41 -9 -61 -25 -155 -5 -30 -12 -73 -15
-95 -3 -23 -7 -50 -9 -62 -3 -11 -7 -38 -10 -59 -4 -22 -11 -64 -16 -94 -5
-30 -12 -73 -15 -95 -3 -22 -8 -51 -10 -65 -27 -161 -35 -211 -40 -245 -6 -41
-9 -61 -25 -155 -5 -30 -12 -73 -15 -95 -3 -23 -7 -50 -9 -62 -3 -11 -7 -38
-10 -59 -4 -22 -11 -64 -16 -94 -5 -30 -12 -73 -15 -95 -6 -41 -9 -60 -25
-155 -5 -30 -12 -73 -15 -95 -3 -23 -7 -50 -9 -62 -3 -11 -7 -38 -10 -59 -4
-22 -11 -64 -16 -94 -5 -30 -12 -73 -15 -95 -6 -41 -9 -60 -25 -155 -5 -30
-12 -73 -15 -95 -3 -23 -7 -50 -9 -62 -3 -11 -7 -38 -10 -59 -4 -22 -11 -64
-16 -94 -5 -30 -12 -73 -15 -95 -6 -41 -9 -60 -25 -155 -5 -30 -12 -73 -15
-95 -3 -23 -7 -50 -9 -62 -3 -11 -7 -38 -10 -59 -4 -22 -11 -64 -16 -94 -5
-30 -12 -73 -15 -95 -3 -22 -8 -51 -10 -65 -27 -161 -35 -211 -40 -245 -6 -41
-9 -61 -25 -155 -5 -30 -12 -73 -15 -95 -3 -23 -7 -50 -9 -62 -3 -11 -7 -38
-10 -59 -4 -22 -11 -64 -16 -94 -5 -30 -12 -73 -15 -95 -3 -23 -7 -50 -9 -60
-15 -82 -19 -121 -18 -200 2 -205 63 -384 187 -545 118 -153 327 -290 497
-324 13 -3 43 -9 68 -14 25 -4 48 -9 53 -10 4 -1 61 -2 127 -2 l120 0 0 -235
c0 -129 -3 -235 -7 -236 -5 0 -87 -2 -183 -4 -197 -3 -240 -12 -326 -69 -29
-20 -71 -60 -94 -90 -165 -218 -76 -527 180 -628 l55 -21 2210 -2 c1216 0
2235 3 2265 8 158 23 294 153 328 313 34 156 -38 331 -172 420 -93 62 -148 70
-453 73 l-63 1 0 235 0 235 123 1 c125 1 132 1 227 20 159 32 338 135 461 267
187 200 267 453 235 737 -4 38 -9 72 -11 75 -1 3 -6 25 -9 50 -3 25 -8 56 -11
70 -2 13 -7 42 -10 65 -3 22 -10 65 -15 95 -5 30 -12 72 -16 94 -3 21 -7 48
-10 59 -2 12 -6 39 -9 62 -3 22 -10 65 -15 95 -5 30 -12 72 -16 94 -3 21 -7
48 -10 59 -2 12 -6 39 -9 62 -3 22 -10 65 -15 95 -16 94 -19 114 -25 155 -5
34 -13 84 -40 245 -2 14 -7 43 -10 65 -3 22 -10 65 -15 95 -5 30 -12 72 -16
94 -3 21 -7 48 -10 59 -2 12 -6 39 -9 62 -3 22 -10 65 -15 95 -5 30 -12 72
-16 94 -3 21 -7 48 -10 59 -2 12 -6 39 -9 62 -3 22 -10 65 -15 95 -5 30 -12
72 -16 94 -3 21 -7 48 -10 59 -2 12 -6 39 -9 62 -3 22 -10 65 -15 95 -5 30
-12 72 -16 94 -3 21 -7 48 -10 59 -2 12 -6 39 -9 62 -3 22 -10 65 -15 95 -5
30 -12 72 -16 94 -3 21 -7 48 -10 59 -2 12 -6 39 -9 62 -3 22 -10 65 -15 95
-5 30 -12 72 -16 94 -3 21 -7 48 -10 59 -2 12 -6 39 -9 62 -3 22 -10 65 -15
95 -16 94 -19 114 -25 155 -5 34 -13 84 -40 245 -2 14 -7 43 -10 65 -3 22 -13
78 -20 125 -8 47 -17 103 -20 125 -48 333 -297 625 -619 724 -104 32 -120 34
-361 44 l-60 3 -6 119 c-7 159 -39 235 -136 326 -66 63 -176 113 -260 118 -8
1 -12 39 -12 136 l0 135 92 1 c117 1 131 3 192 38 90 51 136 134 136 246 0 74
-34 137 -121 218 -189 179 -404 300 -668 377 l-73 21 21 29 c32 45 61 138 64
207 11 200 -104 373 -292 443 -73 28 -191 34 -259 15z m190 -228 c146 -62 182
-248 71 -361 -81 -81 -222 -83 -304 -3 -144 140 -52 376 148 377 29 0 67 -6
85 -13z m62 -661 c61 -6 70 -8 163 -27 146 -30 342 -117 480 -212 84 -58 212
-173 212 -191 0 -7 -6 -21 -14 -31 -13 -18 -50 -18 -986 -18 -935 0 -974 1
-986 18 -8 11 -14 24 -14 31 0 21 140 143 242 211 123 81 316 167 422 187 6 1
25 5 41 9 57 13 90 17 165 23 41 4 76 7 77 9 4 3 131 -3 198 -9z m431 -838
l-1 -133 -576 -3 -576 -2 0 135 0 135 577 0 577 0 -1 -132z m249 -372 c60 -12
107 -48 142 -111 16 -27 18 -82 19 -580 1 -421 -2 -560 -12 -594 -15 -50 -53
-95 -106 -122 -35 -18 -73 -19 -863 -19 -788 0 -829 1 -868 19 -56 25 -95 68
-111 122 -10 34 -13 173 -12 594 2 595 0 573 56 633 53 56 56 57 320 62 359 7
1390 4 1435 -4z m-2040 -761 l0 -200 -115 -5 c-101 -5 -121 -9 -160 -32 -82
-48 -130 -120 -144 -213 -4 -22 -11 -65 -16 -95 -5 -30 -12 -73 -15 -95 -3
-23 -7 -50 -9 -62 -3 -11 -7 -38 -10 -59 -4 -22 -11 -64 -16 -94 -5 -30 -12
-73 -15 -95 -3 -23 -7 -50 -9 -62 -3 -11 -7 -38 -10 -59 -4 -22 -11 -64 -16
-94 -5 -30 -12 -73 -15 -95 -3 -22 -8 -51 -10 -65 -27 -161 -35 -211 -40 -245
-3 -22 -8 -51 -10 -65 -27 -161 -35 -211 -40 -245 -6 -41 -9 -61 -25 -155 -5
-30 -12 -73 -15 -95 -3 -23 -7 -50 -9 -62 -3 -11 -7 -38 -10 -59 -4 -22 -11
-64 -16 -94 -5 -30 -12 -73 -15 -95 -3 -23 -7 -50 -9 -62 -3 -11 -7 -38 -10
-59 -4 -22 -11 -64 -16 -94 -5 -30 -12 -73 -15 -95 -3 -22 -8 -51 -10 -65 -27
-161 -35 -211 -40 -245 -3 -22 -8 -51 -10 -65 -27 -161 -35 -211 -40 -245 -3
-22 -8 -51 -10 -65 -27 -161 -35 -211 -40 -245 -6 -41 -9 -61 -25 -155 -5 -30
-12 -73 -15 -95 -3 -23 -7 -50 -9 -62 -3 -11 -7 -38 -10 -59 -4 -22 -11 -64
-16 -94 -5 -30 -12 -73 -15 -95 -3 -23 -7 -50 -9 -62 -3 -11 -7 -38 -10 -59
-4 -22 -11 -66 -17 -99 -32 -173 8 -281 131 -353 l45 -27 2105 0 2105 0 41 22
c56 30 119 103 133 155 18 63 19 104 5 182 -13 79 -20 122 -29 181 -3 22 -10
65 -15 95 -5 30 -12 72 -16 94 -3 21 -7 48 -10 59 -2 12 -6 39 -9 62 -3 22
-10 65 -15 95 -16 95 -19 114 -25 155 -3 22 -10 65 -15 95 -5 30 -12 72 -16
94 -3 21 -7 48 -10 59 -2 12 -6 39 -9 62 -3 22 -10 65 -15 95 -16 95 -19 114
-25 155 -3 22 -10 65 -15 95 -5 30 -12 72 -16 94 -3 21 -7 48 -10 59 -2 12 -6
39 -9 62 -3 22 -10 65 -15 95 -16 95 -19 114 -25 155 -3 22 -10 65 -15 95 -5
30 -12 72 -16 94 -3 21 -7 48 -10 59 -2 12 -6 39 -9 62 -3 22 -10 65 -15 95
-16 95 -19 114 -25 155 -3 22 -10 65 -15 95 -5 30 -12 72 -16 94 -3 21 -7 48
-10 59 -2 12 -6 39 -9 62 -3 22 -10 65 -15 95 -16 95 -19 114 -25 155 -3 22
-10 65 -15 95 -5 30 -12 72 -16 94 -3 21 -7 48 -10 59 -2 12 -6 39 -9 62 -3
22 -10 65 -15 95 -16 95 -19 114 -25 155 -3 22 -10 65 -15 95 -5 30 -12 72
-16 94 -3 21 -7 48 -10 59 -2 12 -6 39 -9 62 -3 22 -10 65 -15 95 -5 30 -12
72 -16 93 -16 109 -102 206 -204 230 -14 3 -69 7 -123 8 l-97 2 2 201 3 201
105 0 c269 1 468 -99 607 -304 38 -57 88 -173 96 -226 3 -16 10 -57 15 -90 6
-33 14 -78 17 -100 6 -41 9 -60 25 -155 5 -30 12 -73 15 -95 3 -23 7 -50 9
-62 3 -11 7 -38 10 -59 4 -22 11 -64 16 -94 5 -30 12 -73 15 -95 3 -23 7 -50
9 -62 3 -11 7 -38 10 -59 4 -22 11 -64 16 -94 5 -30 12 -73 15 -95 3 -23 7
-50 9 -62 3 -11 7 -38 10 -59 4 -22 11 -64 16 -94 5 -30 12 -73 15 -95 3 -23
7 -50 9 -62 3 -11 7 -38 10 -59 4 -22 11 -64 16 -94 5 -30 12 -73 15 -95 3
-23 7 -50 9 -62 3 -11 7 -38 10 -59 4 -22 11 -64 16 -94 5 -30 12 -73 15 -95
3 -23 7 -50 9 -62 3 -11 7 -38 10 -59 4 -22 11 -64 16 -94 5 -30 12 -73 15
-95 3 -22 8 -51 10 -65 27 -161 35 -211 40 -245 3 -22 8 -51 10 -65 27 -161
35 -211 40 -245 6 -41 9 -61 25 -155 5 -30 12 -73 15 -95 3 -23 7 -50 9 -62 3
-11 7 -38 10 -59 4 -22 11 -64 16 -94 5 -30 12 -73 15 -95 3 -23 7 -50 9 -62
3 -11 7 -38 10 -59 4 -22 11 -64 16 -94 5 -30 12 -73 15 -95 3 -23 7 -50 9
-62 3 -11 7 -38 10 -59 4 -22 11 -64 16 -94 22 -128 25 -160 24 -260 -1 -82
-7 -122 -27 -183 -80 -247 -293 -428 -547 -464 -61 -9 -4182 -9 -4247 0 -170
23 -360 144 -459 295 -37 55 -87 170 -99 228 -13 61 -13 202 0 284 8 47 17
101 20 120 3 20 7 47 10 60 3 13 7 42 10 65 3 22 10 65 15 95 16 94 19 114 25
155 5 34 13 84 40 245 2 14 7 43 10 65 3 22 10 65 15 95 5 30 12 72 16 94 3
21 7 48 10 59 2 12 6 39 9 62 3 22 10 65 15 95 16 95 19 114 25 155 3 22 10
65 15 95 5 30 12 72 16 94 3 21 7 48 10 59 2 12 6 39 9 62 3 22 10 65 15 95
16 95 19 114 25 155 3 22 10 65 15 95 5 30 12 72 16 94 3 21 7 48 10 59 2 12
6 39 9 62 3 22 10 65 15 95 16 95 19 114 25 155 3 22 10 65 15 95 5 30 12 72
16 94 3 21 7 48 10 59 2 12 6 39 9 62 3 22 10 65 15 95 16 94 19 114 25 155 5
34 13 84 40 245 2 14 7 43 10 65 3 22 10 65 15 95 5 30 12 72 16 94 3 21 7 48
10 59 2 12 6 39 9 62 3 22 10 65 15 95 16 95 19 114 25 155 3 22 11 67 17 100
5 33 12 74 15 90 3 17 17 62 32 101 66 170 204 312 367 378 97 39 171 52 309
51 l100 0 0 -200z m7 -505 c15 -150 106 -277 245 -342 l62 -30 -23 -36 c-74
-118 -219 -424 -301 -637 -135 -348 -269 -841 -300 -1104 -4 -30 -8 -63 -11
-74 -8 -41 -18 -195 -18 -277 0 -251 51 -474 161 -695 55 -111 154 -261 223
-338 29 -32 51 -59 49 -61 -2 -1 -20 -12 -40 -24 -20 -12 -48 -37 -62 -55 -49
-64 -55 -94 -57 -268 0 -89 -3 -165 -5 -169 -2 -3 -172 -6 -378 -5 -308 0
-377 3 -391 14 -18 15 -18 36 4 161 5 30 12 72 16 94 3 21 7 48 10 59 2 12 6
39 9 62 3 22 10 65 15 95 5 30 12 72 16 94 3 21 7 48 10 59 2 12 6 39 9 62 3
22 10 65 15 95 5 30 12 72 16 94 3 21 7 48 10 59 2 12 6 39 9 62 3 22 10 65
15 95 5 30 12 72 16 94 3 21 7 48 10 59 2 12 6 39 9 62 3 22 10 65 15 95 5 30
12 72 16 94 3 21 7 48 10 59 2 12 6 39 9 62 3 22 10 65 15 95 16 94 19 114 25
155 5 34 13 84 40 245 2 14 7 43 10 65 5 34 13 84 40 245 2 14 7 43 10 65 3
22 10 65 15 95 5 30 12 72 16 94 3 21 7 48 10 59 2 12 6 39 9 62 3 22 10 65
15 95 5 30 12 72 16 94 3 21 7 48 10 59 2 12 6 39 9 62 3 22 10 65 15 95 5 30
12 72 16 94 3 21 7 48 10 59 2 12 6 39 9 62 3 22 10 65 15 95 5 30 12 72 16
94 3 21 7 48 10 59 2 12 6 39 9 62 3 22 10 65 15 95 14 81 19 111 25 154 4 21
8 46 10 55 1 9 6 40 10 69 9 68 24 78 122 77 l78 0 7 -75z m2601 62 c8 -7 18
-32 22 -55 4 -23 8 -54 11 -69 5 -36 12 -79 24 -148 5 -30 12 -73 15 -95 3
-23 7 -50 9 -62 3 -11 7 -38 10 -59 4 -22 11 -64 16 -94 5 -30 12 -73 15 -95
6 -41 9 -60 25 -155 5 -30 12 -73 15 -95 3 -23 7 -50 9 -62 3 -11 7 -38 10
-59 4 -22 11 -64 16 -94 5 -30 12 -73 15 -95 6 -41 9 -60 25 -155 5 -30 12
-73 15 -95 3 -23 7 -50 9 -62 3 -11 7 -38 10 -59 4 -22 11 -64 16 -94 5 -30
12 -73 15 -95 3 -23 7 -50 9 -62 3 -11 7 -38 10 -59 4 -22 11 -64 16 -94 5
-30 12 -73 15 -95 6 -41 9 -60 25 -155 5 -30 12 -73 15 -95 3 -23 7 -50 9 -62
3 -11 7 -38 10 -59 4 -22 11 -64 16 -94 5 -30 12 -73 15 -95 6 -41 9 -60 25
-155 5 -30 12 -73 15 -95 3 -23 7 -50 9 -62 3 -11 7 -38 10 -59 4 -22 11 -64
16 -94 5 -30 12 -73 15 -95 6 -41 9 -60 25 -155 5 -30 12 -73 15 -95 3 -23 7
-50 9 -62 3 -11 7 -38 10 -59 4 -22 11 -64 16 -94 5 -30 12 -73 15 -95 3 -23
7 -52 10 -65 3 -13 7 -41 10 -61 3 -20 11 -70 18 -110 18 -104 16 -131 -9
-144 -21 -10 -748 -15 -758 -5 -2 3 -6 84 -8 181 -3 176 -3 176 -33 225 -17
27 -52 64 -77 83 l-46 35 50 55 c195 218 347 566 376 861 11 120 5 358 -12
460 -3 14 -7 42 -10 63 -10 62 -17 108 -22 131 -2 11 -7 37 -10 56 -12 78 -95
404 -139 545 -109 350 -283 764 -411 976 -19 31 -34 61 -34 65 0 5 27 22 60
37 140 65 239 218 240 368 l0 46 83 -1 c53 -1 90 -6 100 -14z m-747 -455 c32
-19 212 -358 299 -562 117 -275 264 -726 299 -915 2 -14 9 -45 15 -70 5 -25
12 -56 14 -70 18 -95 27 -152 33 -195 3 -27 8 -59 11 -70 13 -56 11 -355 -2
-440 -51 -306 -206 -591 -428 -787 l-77 -68 -349 0 -348 0 0 85 c0 56 3 85 11
86 19 1 39 6 91 24 289 99 482 370 471 665 -7 181 -125 440 -379 828 -55 84
-118 168 -139 187 -104 89 -262 81 -355 -17 -67 -71 -287 -426 -373 -603 -86
-175 -123 -291 -126 -395 -10 -298 182 -568 472 -666 40 -13 79 -24 87 -24 12
0 15 -17 15 -85 l0 -85 -347 0 c-257 1 -350 4 -362 13 -155 118 -299 302 -391
499 -38 81 -85 238 -102 343 -15 86 -16 378 -2 445 2 14 7 45 10 70 3 25 8 55
10 66 2 12 7 37 10 55 3 19 8 45 11 59 3 14 8 40 11 58 3 19 19 88 35 155 119
490 341 1044 540 1352 l45 70 640 -1 c352 0 644 -3 650 -7z m-532 -1609 c164
-254 271 -452 320 -600 38 -113 33 -211 -16 -314 l-21 -46 -18 59 c-26 84
-103 231 -192 363 -111 167 -135 188 -207 181 -39 -4 -68 -36 -158 -171 -103
-154 -173 -285 -202 -376 l-17 -56 -20 44 c-73 154 -58 272 67 520 76 151 264
458 318 521 32 37 50 22 146 -125z m-94 -690 c40 -64 109 -189 129 -238 47
-110 13 -201 -89 -243 -129 -53 -269 77 -224 207 26 74 149 296 164 296 3 0
12 -10 20 -22z m1023 -1117 c8 -8 12 -59 12 -159 l0 -148 -1055 0 -1055 1 0
147 c0 84 5 152 10 157 14 14 191 16 1208 15 654 -1 871 -4 880 -13z m602
-1401 l1 -235 -1643 0 c-904 0 -1644 3 -1644 7 -4 21 -5 454 -2 461 3 4 743 6
1646 5 l1642 -3 0 -235z m612 -492 c46 -31 83 -97 83 -149 -1 -50 -33 -112
-76 -145 l-37 -29 -2201 -3 c-1211 -1 -2216 0 -2234 3 -43 8 -108 67 -123 112
-29 88 13 187 95 224 40 18 109 19 2247 16 l2205 -2 41 -27z M4545 7551 c-75
-32 -94 -127 -37 -184 l32 -32 204 0 c222 0 245 5 272 57 29 57 10 124 -45
153 -31 15 -391 20 -426 6z M5263 7544 c-31 -16 -63 -66 -63 -99 0 -9 7 -32
16 -50 27 -58 109 -80 171 -47 70 38 71 156 0 193 -35 19 -90 20 -124 3z"/>
</g>
</svg>
