<svg xmlns="http://www.w3.org/2000/svg" viewBox="0 0 1024 1024">
<g transform="translate(0,1024) scale(0.1,-0.1)">
<path fill="currentColor" d="M4979 9905 c-216 -52 -391 -212 -466 -427 -45 -126 -39 -299 13 -433
43 -110 148 -238 246 -300 27 -17 48 -33 48 -36 0 -10 -71 -54 -156 -97 -151
-76 -363 -144 -714 -232 -579 -144 -881 -305 -1060 -565 -72 -105 -137 -277
-154 -410 -3 -22 -5 -41 -6 -42 0 -1 -87 -3 -194 -5 -213 -3 -221 -5 -270 -72
-20 -26 -21 -42 -24 -391 -3 -407 -3 -411 64 -461 l37 -29 2429 -3 2428 -2 0
-198 0 -197 -97 -70 c-115 -82 -355 -317 -436 -427 -146 -197 -242 -417 -260
-598 -4 -30 -6 -499 -7 -1042 l0 -988 -160 0 -160 0 -1 993 c0 545 -2 1012 -5
1037 -41 364 -297 722 -761 1067 -124 93 -163 112 -208 106 -100 -14 -460
-312 -626 -518 -177 -219 -284 -450 -313 -670 -3 -22 -5 -484 -6 -1027 l0
-988 -160 0 -160 0 -1 998 c0 548 -3 1017 -6 1042 -25 203 -133 438 -291 630
-117 143 -356 355 -546 483 -56 39 -76 47 -113 47 -55 0 -94 -20 -130 -67
l-28 -36 -3 -1548 -2 -1548 -189 -3 c-207 -3 -216 -6 -265 -72 -20 -26 -21
-42 -24 -391 -3 -407 -3 -411 64 -461 l37 -29 194 -3 c106 -2 193 -6 194 -10
17 -147 79 -323 154 -437 56 -87 198 -221 298 -283 114 -71 278 -144 458 -203
123 -41 356 -106 441 -123 13 -3 82 -21 153 -40 238 -64 398 -128 522 -209 95
-62 135 -99 199 -184 63 -84 87 -103 142 -110 60 -8 122 24 170 88 160 217
350 313 912 459 285 74 589 174 727 240 266 127 435 292 526 518 28 67 70 224
76 284 1 3 88 8 194 10 192 3 194 3 228 29 70 55 69 45 66 457 -2 357 -3 372
-23 398 -11 15 -33 37 -48 48 -27 21 -39 21 -617 24 l-590 2 3 1023 c4 1121 0
1053 64 1193 58 129 130 224 297 392 l112 113 5 -1153 5 -1153 22 -31 c33 -46
84 -67 150 -62 62 5 100 29 125 79 17 32 18 128 18 1576 l0 1541 188 4 c186 3
189 3 223 29 70 55 69 45 66 457 -2 357 -3 372 -23 398 -49 67 -57 69 -269 72
l-193 3 -7 37 c-4 20 -9 48 -11 62 -9 49 -47 166 -74 226 -109 242 -342 435
-673 558 -82 31 -300 98 -357 111 -174 38 -546 145 -663 191 -100 39 -247 113
-287 145 -22 17 -23 21 -9 29 215 128 334 345 325 590 -7 164 -66 298 -186
419 -89 90 -189 146 -315 178 -46 12 -223 10 -276 -2z m285 -341 c103 -50 167
-149 172 -266 6 -134 -54 -239 -170 -298 -61 -31 -78 -35 -145 -35 -85 0 -124
13 -192 61 -85 62 -130 158 -125 271 2 38 9 82 17 98 41 92 118 164 203 191
68 21 172 11 240 -22z m-75 -1081 c181 -153 425 -257 871 -373 548 -144 690
-195 846 -306 125 -89 230 -233 264 -364 6 -25 13 -53 16 -62 5 -17 -98 -18
-2066 -18 l-2070 0 6 28 c60 259 217 425 514 543 101 40 375 121 675 199 404
106 665 222 825 368 25 23 46 41 48 42 1 0 33 -26 71 -57z m2491 -1603 l0
-160 -2560 0 -2560 0 0 160 0 160 2560 0 2560 0 0 -160z m-2300 -1380 c175
-175 284 -337 347 -515 l28 -80 3 -1012 3 -1013 -641 0 -640 0 1 998 c0 1130
-4 1060 83 1237 85 172 259 375 459 536 l98 79 77 -62 c42 -34 124 -109 182
-168z m-2195 -31 c163 -174 271 -353 314 -519 19 -72 20 -118 20 -1072 l1
-998 -240 0 -240 0 0 1361 0 1361 48 -40 c26 -22 70 -64 97 -93z m4495 -3069
l0 -160 -2560 0 -2560 0 0 160 0 160 2560 0 2560 0 0 -160z m-496 -504 c-39
-220 -203 -409 -449 -521 -116 -53 -373 -131 -596 -180 -11 -2 -29 -7 -39 -10
-10 -3 -29 -8 -42 -11 -369 -80 -712 -229 -882 -383 l-57 -52 -52 47 c-177
160 -418 266 -862 379 -445 113 -603 163 -752 239 -83 41 -193 122 -243 178
-73 83 -135 208 -154 314 l-5 24 2069 0 2069 0 -5 -24z"/>
</g>
</svg>
