<svg viewBox="0 0 510.667 510.667" xmlns="http://www.w3.org/2000/svg"><g><path fill="currentColor" d="m444.732 220.335h-128.7v-121.245c0-54.639-44.451-99.09-99.09-99.09-54.638 0-99.09 44.452-99.09 99.09v121.245h-101.287v92.158h56.673v1.508c0 20.745 9.552 39.295 24.484 51.5-14.932 12.205-24.484 30.755-24.484 51.5v1.508h-56.673v92.158h400.752v-92.158h-56.673v-1.508c0-20.745-9.552-39.295-24.484-51.5 14.932-12.205 24.484-30.755 24.484-51.5v-1.508h56.673v-62.158h27.414c10.681 0 19.369 8.689 19.369 19.37v44.242h30v-44.242c.001-27.223-22.145-49.37-49.368-49.37zm-296.88-121.245c0-38.097 30.994-69.09 69.09-69.09s69.09 30.994 69.09 69.09v121.245h-138.18zm239.466 349.419v32.158h-340.753v-32.158zm-56.673-31.508v1.508h-227.406v-1.508c0-20.126 16.374-36.5 36.5-36.5h154.406c20.126 0 36.5 16.374 36.5 36.5zm0-103c0 20.126-16.374 36.5-36.5 36.5h-154.406c-20.126 0-36.5-16.374-36.5-36.5v-1.508h227.406zm56.673-31.508h-340.753v-32.158h340.752v32.158z"/><path fill="currentColor" d="m183.486 151.903h65.814v30h-65.814z"/><path fill="currentColor" d="m183.486 82.857h65.814v30h-65.814z"/></g></svg>