<svg xmlns="http://www.w3.org/2000/svg" viewBox="0 0 1024 1024">
<g transform="translate(0,1024) scale(0.1,-0.1)">
<path fill="currentColor" d="M3458 10183 c-37 -23 -62 -77 -55 -118 3 -19 46 -94 96 -169 89 -133
101 -153 81 -141 -12 8 -355 8 -430 1 -95 -10 -153 -17 -205 -28 -27 -5 -61
-12 -75 -14 -128 -25 -290 -83 -421 -151 -263 -135 -466 -347 -596 -619 -61
-127 -64 -177 -15 -226 32 -33 33 -33 146 -36 l114 -4 -66 -81 c-302 -374
-500 -864 -548 -1353 -8 -79 12 -125 64 -150 34 -16 41 -16 125 0 49 9 91 15
94 12 3 -2 -5 -26 -17 -53 -71 -158 -167 -448 -194 -583 -38 -190 -42 -221
-53 -345 -37 -433 58 -843 273 -1166 67 -100 98 -124 156 -116 53 7 67 21 163
165 46 68 85 120 88 115 3 -5 19 -47 35 -93 17 -47 38 -104 47 -127 l18 -42
-56 -168 c-47 -141 -122 -409 -141 -503 -23 -111 -56 -295 -61 -339 -4 -30 -8
-62 -10 -72 -2 -10 -7 -49 -11 -86 -3 -37 -8 -75 -9 -83 -2 -8 -4 -22 -4 -31
-1 -10 -13 -20 -28 -24 -58 -14 -272 -125 -356 -186 -320 -228 -539 -589 -594
-979 -10 -69 -10 -329 0 -395 23 -161 57 -264 188 -570 55 -126 99 -233 99
-236 0 -4 -29 -23 -64 -43 -183 -102 -320 -278 -372 -476 -22 -85 -27 -232
-10 -295 41 -157 163 -280 320 -321 43 -12 582 -14 3311 -13 3125 0 3262 1
3317 18 207 66 322 233 314 454 -7 198 -86 372 -232 514 -60 59 -186 143 -212
143 -7 0 -12 6 -12 12 0 7 49 127 109 268 151 357 188 500 188 742 1 211 -38
392 -124 586 l-45 102 89 94 c474 495 856 1218 1013 1916 32 141 34 150 45
224 4 21 8 47 10 58 3 11 7 46 10 77 4 31 8 63 10 71 2 8 7 53 11 100 4 47 8
96 10 110 1 14 2 52 3 85 l1 61 58 28 c231 113 340 337 347 716 3 133 -1 178
-31 345 -3 17 -24 84 -46 150 -71 216 -204 459 -370 678 -34 45 -67 87 -73 93
-5 6 -25 27 -43 48 -57 65 -105 80 -167 50 -39 -18 -61 -59 -69 -129 -13 -99
-17 -130 -21 -145 -2 -8 -7 -34 -10 -57 -7 -52 -67 -294 -93 -379 -26 -84 -81
-163 -160 -232 -226 -196 -281 -303 -268 -522 6 -120 9 -137 37 -240 40 -147
120 -262 237 -337 56 -36 53 -28 36 -118 -84 -447 -292 -931 -565 -1316 -189
-267 -481 -567 -717 -737 -38 -27 -47 -29 -73 -20 -16 5 -29 15 -30 21 0 7 -2
19 -3 27 -2 8 -7 51 -11 95 -4 44 -8 82 -10 85 -1 3 -6 32 -9 65 -4 33 -9 67
-11 75 -4 14 -8 37 -21 115 -11 69 -47 229 -80 354 -35 133 -124 416 -142 447
-6 11 4 48 33 124 24 59 46 122 50 139 4 17 10 29 15 26 4 -3 45 -61 91 -129
84 -126 116 -156 164 -156 52 0 89 28 142 108 89 133 203 385 228 500 2 9 10
49 18 87 29 136 41 246 41 395 0 93 -10 255 -18 295 -2 11 -7 40 -10 65 -3 25
-8 56 -11 70 -3 14 -8 39 -11 55 -25 144 -117 433 -189 597 l-43 99 31 -5 c18
-3 43 -8 57 -11 154 -35 219 14 205 153 -6 67 -20 164 -30 212 -3 14 -8 41
-11 60 -3 19 -8 38 -10 41 -2 3 -6 19 -8 36 -3 16 -17 69 -31 118 -89 307
-262 640 -458 883 l-67 82 101 0 c118 0 159 15 183 65 25 51 20 78 -32 189
-73 154 -153 267 -272 387 -218 219 -466 339 -856 413 -23 5 -89 13 -174 22
-30 3 -141 6 -247 6 l-192 0 90 135 c50 74 93 150 96 168 8 47 -21 100 -65
121 -30 14 -54 16 -151 10 -64 -3 -125 -8 -137 -10 -12 -2 -44 -7 -73 -11 -62
-8 -197 -45 -269 -74 -128 -51 -229 -116 -319 -204 l-62 -60 -77 72 c-88 83
-192 147 -309 192 -88 34 -202 65 -274 75 -25 3 -55 8 -66 10 -11 2 -76 7
-145 10 -109 4 -129 3 -152 -13z m477 -280 c135 -42 231 -98 318 -184 51 -51
85 -94 101 -130 32 -73 65 -102 119 -105 57 -3 97 28 131 102 36 78 159 198
251 246 106 55 211 91 306 104 33 5 40 3 33 -7 -4 -8 -48 -75 -98 -149 -82
-122 -91 -139 -91 -182 0 -40 5 -53 32 -80 26 -26 41 -33 79 -34 25 -1 60 2
77 6 75 20 246 34 407 34 113 0 277 -10 302 -19 7 -2 31 -6 53 -9 49 -7 63
-10 143 -30 237 -62 457 -186 596 -337 55 -59 159 -199 153 -205 -2 -2 -76 -4
-166 -4 l-163 -2 -37 -33 c-32 -30 -36 -39 -36 -84 l0 -51 101 -100 c291 -285
467 -562 585 -923 30 -91 89 -336 89 -370 0 -3 -10 -4 -22 -1 -38 7 -72 14
-98 19 -14 3 -36 7 -50 10 -111 25 -166 11 -195 -51 -24 -50 -19 -71 44 -194
108 -210 199 -448 250 -655 20 -77 25 -101 37 -174 3 -18 7 -42 9 -53 28 -141
28 -507 1 -637 -30 -141 -79 -288 -131 -392 l-27 -52 -112 169 c-62 93 -123
178 -136 189 -34 30 -110 28 -145 -5 -32 -30 -41 -49 -49 -115 -4 -28 -18 -93
-31 -145 -117 -468 -433 -904 -891 -1227 -112 -79 -263 -167 -339 -197 -258
-101 -544 -291 -757 -503 l-98 -97 -97 97 c-215 212 -501 402 -758 503 -92 36
-272 145 -409 248 -304 229 -534 500 -686 810 -49 100 -119 285 -135 355 -13
57 -24 110 -30 151 -11 74 -17 88 -44 114 -37 36 -98 45 -137 21 -17 -10 -76
-87 -142 -186 -61 -93 -116 -169 -121 -169 -27 0 -137 307 -157 440 -2 14 -8
52 -13 85 -10 63 -7 422 4 490 53 325 153 634 302 928 73 145 77 176 27 228
-38 40 -76 44 -195 20 -150 -31 -149 -30 -149 -24 0 37 60 283 94 386 111 334
272 593 540 865 l141 143 0 50 c0 42 -5 53 -33 81 l-32 33 -170 5 -170 5 46
69 c102 152 258 288 429 374 82 41 229 96 281 106 16 2 40 7 54 11 129 30 229
40 425 40 197 0 294 -8 434 -36 70 -14 111 -5 147 32 24 25 29 39 29 77 0 42
-9 60 -91 182 -50 74 -94 141 -99 149 -11 19 63 8 170 -26z m5049 -2813 c64
-125 96 -205 129 -320 35 -118 42 -175 42 -320 -1 -343 -86 -510 -284 -556
-85 -20 -291 -13 -357 13 -151 59 -214 175 -231 426 -8 131 3 152 149 289 122
115 185 191 231 285 25 48 91 250 101 310 3 14 11 52 17 82 12 61 17 83 18 91
2 12 138 -207 185 -300z m-286 -1449 l54 -1 -7 -87 c-6 -87 -11 -145 -20 -213
-3 -19 -8 -57 -11 -85 -3 -27 -7 -57 -9 -65 -2 -8 -10 -55 -20 -105 -99 -533
-330 -1078 -651 -1536 -96 -137 -231 -305 -316 -394 l-66 -70 -39 45 c-84 98
-295 280 -325 280 -21 0 0 23 102 110 476 403 857 962 1064 1560 51 146 105
343 132 482 15 80 19 87 38 83 11 -2 45 -4 74 -4z m-6090 -1296 c163 -199 370
-387 591 -536 129 -86 168 -107 441 -236 308 -146 575 -355 710 -556 88 -130
172 -130 260 1 56 83 220 250 320 324 110 81 289 186 415 243 184 84 292 141
408 219 278 186 516 416 705 681 l61 86 24 -78 c27 -84 73 -252 81 -293 3 -14
14 -66 25 -117 23 -101 57 -305 66 -398 4 -33 8 -71 11 -85 24 -152 25 -795 0
-925 -2 -11 -7 -51 -11 -88 -3 -37 -8 -76 -10 -85 -2 -16 -11 -67 -21 -137 -3
-16 -7 -37 -9 -45 -2 -8 -6 -31 -9 -50 -23 -148 -99 -423 -207 -748 -94 -283
-113 -332 -127 -327 -58 22 -148 39 -219 39 -80 1 -83 0 -115 -32 -28 -28 -33
-39 -33 -82 0 -40 5 -54 29 -79 29 -31 45 -36 141 -45 214 -22 400 -186 450
-397 28 -121 14 -200 -47 -259 -38 -38 -93 -60 -146 -60 l-30 0 -4 125 -3 125
-33 32 c-28 28 -39 33 -82 33 -43 0 -54 -5 -82 -33 l-33 -32 -3 -125 -4 -125
-118 0 -118 0 -4 125 -3 125 -33 32 c-28 28 -39 33 -82 33 -43 0 -54 -5 -82
-33 l-33 -32 -3 -125 -4 -125 -118 0 -118 0 -4 125 c-3 124 -3 125 -33 155
-39 39 -90 48 -138 25 -54 -25 -67 -63 -67 -195 l0 -112 -47 5 c-65 6 -95 19
-137 61 -43 43 -60 101 -53 176 9 86 15 110 51 185 74 158 235 272 408 290
100 11 114 15 144 46 24 25 29 39 29 79 0 43 -5 54 -33 82 -28 29 -39 33 -90
35 -53 1 -131 -9 -174 -23 -17 -5 -18 33 -20 615 l-3 621 -33 32 c-28 28 -39
33 -82 33 -43 0 -54 -5 -82 -33 l-33 -32 -3 -678 -3 -677 -46 -35 c-64 -48
-156 -166 -197 -253 -47 -98 -68 -185 -72 -297 -3 -79 1 -107 20 -162 l23 -68
-247 0 -247 0 23 68 c52 152 9 381 -103 550 -38 56 -118 143 -165 179 l-28 21
-2 676 -3 676 -33 32 c-28 28 -39 33 -82 33 -43 0 -54 -5 -82 -33 l-33 -32 -3
-621 c-2 -584 -3 -621 -20 -614 -31 11 -95 19 -164 20 -63 0 -70 -2 -100 -33
-28 -28 -33 -39 -33 -82 0 -40 5 -54 29 -79 29 -31 45 -36 141 -45 214 -22
400 -186 450 -397 28 -121 14 -200 -47 -259 -38 -38 -93 -60 -146 -60 l-30 0
-4 125 -3 125 -33 32 c-28 28 -39 33 -82 33 -43 0 -54 -5 -82 -33 l-33 -32 -3
-125 -4 -125 -118 0 -118 0 -4 125 -3 125 -33 32 c-28 28 -39 33 -82 33 -43 0
-54 -5 -82 -33 l-33 -32 -3 -125 -4 -125 -118 0 -118 0 -4 125 c-3 124 -3 125
-34 156 -40 40 -99 49 -143 23 -49 -29 -61 -67 -61 -194 l0 -112 -42 3 c-153
10 -226 134 -184 313 51 216 234 379 451 402 96 9 112 14 141 45 24 25 29 39
29 79 0 43 -5 54 -33 82 -32 33 -33 33 -125 32 -62 -2 -113 -9 -157 -23 -35
-11 -67 -17 -71 -13 -9 11 -205 615 -239 737 -31 113 -94 411 -106 500 -3 28
-8 58 -10 69 -2 10 -6 44 -9 75 -4 31 -8 67 -11 81 -25 158 -25 786 1 952 2
13 6 49 10 82 4 32 8 68 10 80 4 20 6 33 20 131 3 22 8 47 10 55 2 8 7 30 10
48 21 124 79 354 121 485 l26 78 51 -73 c27 -40 80 -109 115 -153z m-634
-1295 c3 -135 8 -261 10 -280 2 -19 7 -71 11 -114 4 -43 8 -86 10 -95 1 -9 6
-41 9 -71 8 -65 13 -100 50 -300 33 -183 97 -411 225 -795 l109 -330 -55 -55
c-90 -89 -164 -216 -200 -345 -8 -27 -16 -95 -18 -150 -4 -85 -1 -110 19 -167
l23 -68 -303 0 -302 0 -4 125 c-3 124 -3 125 -33 155 -39 39 -90 48 -138 25
-54 -25 -67 -63 -67 -195 l0 -112 -47 5 c-65 6 -95 19 -137 61 -43 44 -60 101
-52 181 12 128 60 231 151 322 88 88 187 134 315 149 92 10 107 15 136 45 24
25 29 39 29 79 0 43 -5 54 -33 82 -27 28 -40 33 -85 34 l-52 2 -121 281 c-107
247 -138 334 -170 481 -13 60 -12 298 1 381 62 374 293 695 625 873 46 25 85
44 86 43 1 -1 4 -112 8 -247z m5256 109 c165 -125 274 -255 365 -437 88 -178
126 -350 121 -557 -6 -217 -29 -299 -193 -679 l-108 -248 -52 -2 c-45 -1 -58
-6 -85 -34 -28 -28 -33 -39 -33 -82 0 -40 5 -54 29 -79 29 -31 45 -36 141 -45
214 -22 400 -186 450 -397 28 -121 14 -200 -47 -259 -38 -38 -93 -60 -146 -60
l-30 0 -4 125 -3 125 -33 32 c-28 28 -39 33 -82 33 -43 0 -54 -5 -82 -33 l-33
-32 -3 -125 -4 -125 -302 0 -303 0 23 68 c20 57 23 82 19 167 -2 55 -10 123
-18 150 -37 130 -110 256 -200 346 l-56 56 105 314 c141 425 211 678 249 909
3 19 7 46 10 60 7 39 14 81 20 135 4 28 8 61 10 75 2 14 7 61 11 105 4 44 8
94 10 110 3 24 15 465 14 513 0 19 150 -62 240 -129z M3690 8273 c-368 -56
-672 -327 -770 -688 -29 -104 -35 -298 -14 -406 21 -112 37 -153 188 -486
l138 -301 -31 -109 c-39 -140 -49 -207 -46 -312 9 -265 139 -505 356 -657 73
-51 76 -55 88 -109 46 -207 199 -417 390 -540 86 -54 141 -79 248 -111 77 -23
107 -27 233 -28 176 -1 263 19 415 93 227 111 410 334 471 571 19 71 20 73 79
113 88 59 203 182 253 270 40 69 89 191 98 241 32 187 27 264 -31 482 l-26 99
139 305 c76 168 146 328 156 355 33 102 45 197 42 325 -4 141 -25 233 -80 354
-128 280 -399 487 -701 535 -56 8 -261 7 -313 -2 -140 -26 -303 -101 -421
-196 l-74 -59 -26 25 c-77 73 -229 162 -336 197 -116 37 -315 56 -425 39z
m315 -257 c125 -35 224 -97 353 -223 103 -100 140 -98 262 18 104 98 172 144
264 180 98 38 164 48 281 45 179 -6 332 -73 460 -202 83 -83 136 -169 172
-279 23 -68 27 -98 27 -200 0 -83 -5 -139 -17 -182 -9 -35 -86 -217 -172 -404
-85 -188 -155 -351 -155 -363 0 -12 14 -68 31 -126 59 -204 67 -305 34 -432
-54 -211 -228 -382 -441 -431 -136 -32 -270 -14 -416 55 l-88 41 0 207 0 207
28 12 c61 28 220 142 268 193 76 80 98 128 99 213 0 205 -195 331 -515 332
-141 1 -233 -17 -327 -62 -162 -79 -233 -241 -167 -380 38 -81 162 -192 302
-270 l72 -40 0 -206 0 -206 -87 -41 c-106 -50 -187 -70 -283 -70 -162 0 -303
59 -420 177 -115 115 -171 248 -173 405 -1 98 3 123 48 279 19 67 35 130 35
141 0 11 -69 173 -154 360 -197 437 -191 419 -191 596 1 92 5 129 24 184 64
197 187 340 364 425 77 37 96 44 172 57 17 3 32 8 34 10 10 10 222 -6 276 -20z
m662 -1601 c66 -23 99 -55 84 -83 -21 -39 -143 -133 -226 -175 l-48 -25 -56
30 c-90 48 -221 157 -221 183 0 30 72 68 165 88 50 11 252 -1 302 -18z m-95
-1156 c145 -71 233 -92 385 -93 73 -1 133 -3 133 -5 0 -2 -15 -31 -32 -65 -19
-35 -64 -92 -108 -136 -123 -124 -276 -190 -450 -196 -259 -8 -482 122 -612
356 l-25 45 131 1 c156 1 241 21 379 88 51 24 97 45 104 45 7 1 50 -17 95 -40z
M3775 7346 c-92 -40 -122 -160 -61 -240 87 -115 269 -64 284 79 11 117 -116
209 -223 161z M5055 7346 c-92 -40 -122 -160 -61 -240 87 -115 269 -64 284 79
11 117 -116 209 -223 161z"/>
</g>
</svg>
