<svg xmlns="http://www.w3.org/2000/svg" viewBox="0 0 1024 1024">
<g transform="translate(0,1024) scale(0.1,-0.1)">
<path fill="currentColor" d="M3212 10194 c-37 -33 -46 -66 -32 -109 8 -23 33 -45 100 -89 50 -32
90 -59 90 -60 0 0 -100 -1 -222 -1 -259 0 -358 -8 -553 -46 -55 -11 -111 -22
-125 -25 -59 -11 -251 -69 -322 -96 -87 -33 -118 -63 -118 -114 0 -40 42 -91
80 -98 14 -2 43 -9 65 -14 22 -6 51 -13 65 -16 14 -2 65 -14 114 -26 98 -23
124 -28 144 -29 6 -1 12 -5 12 -10 0 -18 -50 -21 -114 -6 -360 84 -626 -117
-672 -508 -5 -39 -15 -68 -33 -90 -14 -19 -66 -83 -114 -143 -228 -283 -442
-649 -619 -1059 -90 -206 -179 -451 -175 -478 5 -35 26 -66 55 -81 48 -24 72
-14 272 112 69 44 126 79 126 78 1 0 -34 -73 -77 -161 -200 -405 -324 -816
-366 -1215 -15 -146 -8 -538 12 -640 2 -13 7 -40 10 -60 19 -126 51 -174 115
-172 61 2 91 35 104 118 15 92 69 224 117 284 l20 25 -5 -45 c-7 -63 -15 -143
-22 -225 -7 -92 -7 -478 1 -580 12 -167 16 -211 20 -252 3 -24 7 -64 10 -90 3
-27 7 -59 10 -73 2 -14 7 -45 10 -70 3 -25 7 -54 9 -65 2 -11 7 -40 11 -65 17
-103 43 -229 71 -344 13 -54 24 -100 24 -102 0 -1 16 -12 35 -24 46 -29 91
-21 127 20 23 28 25 38 20 78 -11 83 -7 295 7 370 7 40 14 72 16 70 1 -2 5
-57 8 -123 8 -158 14 -213 43 -380 31 -186 29 -177 69 -317 109 -379 279 -715
513 -1013 70 -90 100 -115 137 -115 81 0 123 70 90 152 -38 95 -47 211 -31
376 10 108 21 130 31 62 10 -75 9 -74 40 -196 61 -244 170 -495 285 -657 116
-162 316 -337 388 -339 44 -1 79 25 93 70 10 35 8 45 -29 132 -42 97 -93 259
-91 289 0 9 4 4 9 -10 4 -15 41 -91 81 -170 138 -269 331 -529 520 -701 141
-128 157 -137 214 -118 65 21 83 93 41 164 -13 23 -33 72 -45 110 -22 73 -28
120 -9 76 113 -256 232 -449 364 -589 115 -122 156 -153 205 -157 32 -2 44 3
69 28 28 27 30 35 31 106 0 42 3 70 6 62 85 -233 134 -339 221 -470 66 -100
174 -216 256 -277 97 -72 141 -59 285 84 150 149 264 336 355 584 l35 94 -1
-71 c-1 -81 10 -107 54 -130 53 -27 86 -13 187 82 167 157 332 409 421 644 13
35 36 70 26 40 -3 -8 -12 -44 -21 -79 -8 -36 -29 -91 -45 -123 -46 -89 -36
-151 29 -177 61 -26 116 10 299 197 183 186 350 430 478 696 31 64 58 116 60
116 3 0 2 -5 -1 -10 -4 -6 -8 -22 -11 -35 -9 -49 -57 -191 -86 -255 -38 -83
-43 -112 -23 -149 35 -69 96 -69 191 -2 267 187 467 525 572 966 35 146 40
170 41 204 1 31 9 24 15 -14 15 -90 18 -129 18 -215 0 -113 -5 -146 -33 -222
-27 -72 -20 -119 20 -148 52 -37 103 -24 158 40 158 184 337 480 439 727 58
140 131 364 150 463 3 14 7 33 10 42 3 10 7 30 10 45 2 16 9 51 14 78 5 28 12
68 16 90 3 22 7 51 9 64 9 51 22 221 25 321 l2 65 15 -65 c16 -69 22 -284 11
-377 -6 -47 -4 -56 18 -82 13 -16 38 -32 54 -36 39 -9 95 19 109 53 10 26 48
179 57 232 3 14 7 32 9 40 3 8 7 33 10 55 4 22 8 47 10 55 3 8 7 33 10 55 3
22 8 51 10 65 3 14 7 43 11 65 3 22 7 50 9 63 2 13 7 53 11 90 3 37 8 75 10
85 3 15 6 60 20 257 4 69 4 476 -1 550 -5 71 -13 169 -21 240 -4 43 -4 44 11
25 38 -47 105 -203 118 -278 8 -42 21 -84 28 -94 36 -42 107 -46 150 -7 16 15
33 69 45 154 3 19 7 46 10 60 26 155 26 568 0 720 -3 14 -7 42 -10 63 -3 20
-9 54 -12 75 -43 285 -181 687 -350 1021 -35 69 -62 126 -61 127 1 1 74 -44
162 -99 173 -108 202 -118 253 -80 51 38 49 73 -8 229 -220 592 -487 1073
-813 1462 -68 81 -70 85 -83 166 -66 409 -322 581 -723 482 -29 -7 -76 3 -64
14 6 6 149 42 216 54 201 37 267 71 267 139 0 66 -49 98 -240 156 -63 19 -214
59 -255 67 -246 49 -351 59 -631 59 l-220 0 88 55 c121 76 147 136 83 199
l-26 26 -187 0 c-165 -1 -345 -9 -414 -20 -12 -2 -50 -6 -83 -10 -32 -4 -66
-8 -75 -10 -8 -1 -37 -6 -65 -9 -156 -21 -379 -76 -544 -136 -194 -69 -335
-145 -471 -255 l-65 -52 -35 34 c-54 52 -186 137 -299 194 -196 97 -538 193
-796 224 -27 3 -61 8 -75 10 -14 2 -56 7 -95 11 -38 4 -83 8 -100 10 -16 2
-127 7 -246 10 l-215 7 -32 -29z m593 -200 c56 -5 117 -13 155 -19 14 -2 43
-6 65 -10 23 -3 52 -8 65 -10 14 -3 38 -8 53 -10 67 -13 298 -76 367 -100 175
-63 325 -147 439 -247 116 -101 206 -102 316 -3 100 91 248 176 415 238 84 31
279 88 350 101 14 3 48 9 75 15 28 5 70 12 95 16 25 3 56 8 70 10 60 9 115 15
270 31 l65 6 -25 -19 c-14 -11 -112 -76 -219 -144 -153 -98 -197 -131 -207
-155 -22 -53 -4 -102 47 -127 37 -17 44 -16 207 48 96 37 247 80 317 90 23 3
52 8 65 10 135 27 492 27 680 -1 43 -6 66 -10 150 -26 36 -7 68 -11 73 -10 4
1 7 -2 7 -7 0 -8 -24 -15 -95 -28 -11 -2 -38 -8 -60 -14 -22 -6 -50 -13 -61
-15 -128 -23 -279 -65 -295 -81 -32 -31 -40 -77 -21 -115 21 -41 49 -54 131
-62 35 -4 87 -12 115 -18 28 -6 57 -11 64 -11 19 0 0 -16 -83 -67 -71 -43
-255 -180 -333 -246 l-43 -37 -58 18 c-87 26 -142 -1 -155 -77 -9 -52 29 -89
129 -125 597 -219 1139 -611 1578 -1141 225 -271 450 -693 586 -1099 38 -114
103 -362 115 -443 33 -214 35 -228 42 -400 4 -104 3 -152 -4 -145 -5 6 -63 78
-129 160 -148 188 -236 317 -351 518 -114 197 -168 277 -262 391 -47 58 -225
233 -288 285 -115 93 -297 210 -341 218 -57 10 -111 -38 -111 -99 0 -48 18
-67 114 -126 284 -174 508 -410 691 -729 43 -76 109 -185 146 -243 58 -90 72
-120 93 -205 14 -55 27 -118 31 -140 3 -23 7 -50 9 -62 3 -12 7 -43 11 -70 4
-26 8 -59 10 -72 2 -12 7 -60 10 -105 4 -44 8 -99 11 -121 5 -50 5 -498 0
-545 -2 -19 -7 -78 -11 -130 -6 -93 -14 -162 -19 -168 -2 -1 -16 35 -31 80
-62 185 -206 498 -244 532 -24 22 -75 28 -107 14 -25 -11 -54 -58 -54 -86 0
-11 9 -58 19 -104 11 -46 22 -101 26 -123 3 -22 8 -56 11 -75 3 -19 7 -46 10
-60 27 -162 26 -620 -2 -810 -4 -31 -9 -58 -29 -178 -25 -151 -119 -439 -202
-621 -33 -73 -154 -293 -159 -289 -1 2 -5 30 -8 63 -26 237 -156 703 -213 760
-32 31 -74 36 -118 14 -41 -20 -48 -48 -50 -184 -3 -127 -12 -287 -20 -336 -2
-13 -6 -46 -10 -74 -34 -266 -127 -562 -242 -767 -43 -76 -71 -110 -59 -72 6
20 10 48 22 129 3 28 8 59 10 70 26 144 23 732 -5 783 -19 35 -50 54 -92 55
-35 1 -46 -4 -70 -31 -16 -18 -29 -45 -30 -60 0 -15 -2 -36 -4 -47 -2 -11 -7
-40 -10 -65 -21 -158 -95 -435 -170 -635 -84 -227 -283 -581 -401 -713 l-39
-44 0 169 c0 148 -7 266 -19 328 -4 23 -18 118 -18 125 0 37 -70 93 -109 86
-69 -12 -85 -36 -104 -156 -3 -19 -19 -89 -36 -155 -79 -319 -188 -579 -331
-787 -72 -105 -88 -120 -89 -87 0 13 -2 31 -3 39 -2 8 -6 42 -10 75 -3 33 -8
69 -10 81 -2 12 -7 43 -11 70 -18 144 -53 285 -75 309 -32 34 -81 42 -119 19
-38 -22 -48 -50 -56 -144 -9 -118 -17 -174 -40 -290 -9 -41 -17 -84 -19 -95
-2 -11 -12 -47 -21 -80 -79 -282 -191 -497 -337 -649 l-68 -71 -68 72 c-168
176 -289 429 -362 753 -32 142 -44 222 -55 360 -8 97 -19 125 -60 144 -42 20
-60 20 -96 -1 -29 -17 -45 -46 -54 -98 -2 -16 -7 -41 -10 -55 -8 -38 -16 -83
-30 -170 -3 -19 -7 -46 -10 -60 -2 -14 -7 -52 -11 -84 -3 -33 -8 -67 -9 -75
-2 -9 -4 -29 -5 -46 l-1 -30 -30 35 c-109 127 -241 384 -322 630 -25 74 -74
249 -83 293 -2 12 -11 60 -20 106 -18 97 -33 125 -75 140 -63 22 -121 -13
-135 -82 -32 -166 -39 -246 -39 -444 0 -95 -2 -173 -5 -173 -10 0 -157 206
-211 295 -147 241 -255 503 -335 812 -37 146 -38 149 -63 316 -15 100 -22 123
-43 144 -47 46 -127 31 -159 -29 -29 -54 -32 -618 -4 -790 2 -13 6 -45 10 -73
3 -27 10 -68 15 -90 5 -22 7 -41 5 -43 -4 -5 -40 51 -82 128 -95 175 -187 481
-218 725 -4 28 -8 61 -10 75 -9 56 -17 186 -19 322 -4 150 -10 177 -51 197
-44 22 -86 17 -118 -14 -62 -62 -212 -621 -217 -805 0 -21 -6 -17 -35 30 -59
93 -163 311 -211 441 -40 108 -104 334 -118 416 -43 247 -51 336 -51 593 0
277 9 381 52 590 36 172 38 200 14 227 -41 48 -109 52 -149 10 -41 -43 -220
-448 -253 -570 -6 -22 -12 -37 -14 -36 -6 7 -14 71 -20 159 -3 47 -8 108 -11
135 -6 65 -6 485 0 550 3 28 8 84 11 125 7 83 9 102 25 205 19 127 21 139 45
238 20 82 34 114 83 190 33 51 94 153 137 227 142 246 221 351 378 503 102 99
199 175 325 253 103 64 122 85 122 130 0 48 -25 82 -70 95 -35 11 -44 9 -92
-16 -65 -34 -223 -142 -298 -203 -81 -67 -248 -237 -311 -317 -80 -101 -128
-175 -231 -352 -128 -222 -213 -347 -369 -539 -41 -51 -84 -105 -97 -120 l-23
-29 6 155 c6 172 7 184 41 400 3 19 20 98 39 175 122 506 399 1063 703 1415
463 536 962 885 1587 1111 75 27 100 99 56 159 -29 40 -75 45 -155 17 l-70
-23 -56 53 c-79 75 -179 153 -293 231 -101 68 -104 75 -37 86 19 3 46 8 60 11
14 3 52 8 85 11 78 8 106 22 127 62 18 38 11 84 -20 114 -12 12 -102 37 -272
76 -249 57 -263 63 -180 77 19 3 42 8 50 10 8 2 38 7 65 11 28 3 59 8 70 10
136 26 534 25 680 -2 163 -30 330 -78 434 -125 35 -16 74 -31 86 -33 36 -7 85
21 99 56 32 76 12 98 -230 253 -118 75 -214 139 -214 141 0 4 57 0 165 -12z
m-1412 -745 c87 -26 162 -60 257 -117 78 -47 227 -156 294 -216 l39 -34 -52
-26 -51 -26 -72 61 c-178 149 -403 203 -557 133 -186 -83 -263 -332 -185 -594
9 -30 22 -67 30 -82 13 -25 12 -27 -54 -83 l-67 -58 -7 34 c-7 34 -13 66 -24
135 -3 20 -7 45 -9 55 -19 98 -26 399 -12 499 41 290 203 400 470 319z m5746
-6 c135 -68 193 -235 186 -538 -2 -77 -6 -153 -9 -170 -2 -16 -7 -52 -11 -80
-10 -83 -37 -230 -44 -237 -3 -3 -32 17 -63 45 -55 50 -56 53 -43 78 29 55 52
165 54 259 3 145 -33 257 -111 345 -151 171 -457 137 -678 -77 l-46 -44 -66
31 c-36 16 -67 33 -69 37 -5 9 131 115 236 183 84 55 229 130 305 159 135 50
270 54 359 9z m-5657 -398 c44 -10 138 -58 176 -90 l32 -27 -108 -65 c-59 -36
-151 -96 -204 -134 -53 -38 -101 -69 -106 -69 -6 0 -16 23 -22 51 -38 156 6
314 93 337 34 10 86 8 139 -3z m5429 -3 c55 -22 95 -107 98 -215 2 -68 -16
-177 -30 -177 -4 0 -57 35 -118 79 -60 43 -153 104 -206 136 l-96 58 22 23
c28 30 146 91 195 102 46 10 99 8 135 -6z m-6186 -337 c7 -67 11 -95 25 -175
22 -131 20 -121 44 -220 l15 -65 -27 -29 c-15 -17 -46 -51 -69 -76 -24 -25
-82 -92 -130 -150 -85 -102 -93 -109 -256 -210 -93 -58 -187 -116 -208 -129
l-40 -23 21 53 c80 202 211 465 341 684 81 135 268 410 275 403 1 -2 5 -30 9
-63z m6857 -10 c193 -258 429 -686 558 -1014 l21 -53 -40 23 c-21 13 -115 71
-208 129 -164 102 -171 108 -256 210 -48 58 -108 128 -133 155 -26 28 -58 62
-71 76 l-24 26 20 84 c22 95 29 128 36 179 3 19 8 44 10 56 2 11 7 45 11 75 4
30 8 61 10 69 1 8 3 26 3 40 1 27 1 27 63 -55z M4107 7904 c-1 -1 -30 -4 -64
-7 -179 -17 -383 -110 -578 -262 -91 -72 -270 -249 -346 -345 -227 -283 -343
-630 -343 -1025 0 -77 12 -278 18 -310 2 -11 7 -40 10 -65 28 -206 111 -505
210 -758 30 -75 53 -138 52 -138 0 -1 -28 -4 -61 -8 -128 -13 -245 -40 -369
-83 -149 -52 -230 -95 -249 -134 -30 -64 9 -136 78 -141 11 -1 65 17 119 40
97 42 229 85 296 96 19 3 44 8 56 10 24 5 97 14 169 21 l50 5 47 -93 c59 -117
60 -119 23 -123 -119 -16 -323 -75 -443 -130 -94 -43 -226 -130 -242 -160 -37
-68 11 -148 87 -146 16 0 67 25 116 55 126 79 315 152 444 172 21 3 48 7 59 9
12 2 44 7 71 11 l50 6 57 -92 c32 -50 56 -92 54 -93 -2 0 -41 -14 -88 -29
-184 -62 -364 -169 -533 -317 -54 -47 -66 -95 -38 -149 30 -54 110 -59 163 -9
42 41 131 110 180 142 115 73 298 154 387 171 12 2 30 6 39 9 12 3 31 -13 62
-55 67 -89 174 -181 266 -227 39 -20 40 -22 52 -94 14 -91 44 -183 88 -272 51
-100 89 -152 173 -236 205 -203 501 -304 891 -304 85 0 231 10 283 19 15 3 38
7 52 9 14 3 33 7 43 10 9 3 28 7 42 10 57 10 227 78 291 116 243 144 410 396
445 670 3 25 12 50 21 55 169 108 244 173 313 269 33 45 37 47 70 42 57 -9 71
-13 160 -41 163 -52 325 -142 460 -257 78 -66 97 -77 130 -71 60 9 96 60 85
119 -12 67 -226 231 -426 327 -75 36 -238 95 -288 104 -14 2 -27 5 -28 7 -2 1
21 40 50 87 l53 84 39 -3 c268 -18 512 -94 688 -214 39 -27 70 -40 92 -40 80
0 123 76 84 149 -13 24 -111 91 -204 140 -86 44 -273 108 -380 129 -11 2 -31
6 -45 9 -14 3 -45 7 -70 10 -25 3 -57 8 -71 11 l-25 5 50 100 51 101 110 -6
c61 -3 120 -8 131 -10 12 -2 39 -7 59 -10 114 -19 325 -86 394 -127 59 -35
127 -25 152 23 37 69 11 119 -87 167 -106 52 -277 107 -394 127 -14 2 -36 7
-50 9 -39 8 -90 14 -154 20 -33 3 -61 7 -64 9 -2 3 21 69 52 148 64 167 125
367 160 523 26 114 30 136 42 220 3 28 8 58 10 69 22 123 21 450 -2 569 -2 12
-6 39 -9 62 -34 236 -179 545 -346 735 -298 338 -559 508 -869 565 -43 8 -221
9 -247 1 -10 -3 -34 -8 -53 -11 -99 -16 -244 -82 -367 -167 -42 -29 -155 -129
-251 -223 -96 -93 -178 -170 -183 -170 -4 0 -75 66 -156 146 -195 191 -272
254 -393 321 -114 62 -265 105 -398 111 -34 2 -63 3 -65 1z m128 -209 c85 -9
172 -41 265 -95 108 -63 144 -95 501 -447 61 -60 84 -76 110 -78 19 -1 41 1
49 5 8 5 106 98 217 208 204 204 279 266 387 327 261 145 556 108 848 -106
105 -77 325 -300 400 -404 136 -192 220 -419 245 -660 12 -122 5 -437 -12
-487 -2 -7 -6 -32 -9 -55 -3 -22 -8 -52 -10 -65 -3 -12 -8 -34 -10 -48 -8 -54
-67 -270 -101 -375 -51 -158 -156 -415 -169 -416 -62 -6 -179 -19 -201 -23
-11 -2 -40 -6 -65 -10 l-45 -6 -52 59 c-38 42 -51 65 -48 81 32 165 22 298
-30 401 -28 54 -172 304 -227 391 -39 62 -91 79 -150 47 -24 -13 -47 -65 -42
-96 2 -12 57 -114 122 -225 135 -232 142 -247 146 -314 4 -82 1 -87 -45 -64
-48 25 -77 30 -111 18 -52 -18 -76 -91 -47 -144 6 -12 34 -35 63 -50 76 -40
196 -136 196 -155 0 -4 -12 -10 -27 -14 -15 -3 -87 -29 -161 -57 -145 -55
-172 -77 -172 -135 0 -42 22 -77 59 -92 35 -15 52 -11 181 39 58 22 135 49
172 60 l68 19 15 -52 c22 -74 21 -77 -27 -78 -24 0 -52 -2 -63 -4 -11 -2 -40
-7 -65 -10 -116 -15 -259 -44 -285 -57 -79 -40 -69 -164 14 -183 16 -3 78 3
137 14 122 23 151 27 242 37 l64 6 -5 -30 c-3 -17 -10 -46 -16 -64 l-11 -33
-137 0 c-219 -1 -309 -17 -338 -61 -31 -48 -18 -108 30 -140 21 -13 40 -15
112 -9 139 12 203 14 203 5 0 -22 -121 -115 -203 -155 -113 -55 -202 -74 -327
-70 -163 5 -333 79 -530 230 -114 88 -117 92 -118 168 l0 68 44 20 c75 36 138
121 143 195 1 6 29 21 64 34 532 192 755 566 587 987 -17 43 -44 98 -60 123
-69 107 -110 241 -135 435 -20 158 -213 136 -198 -23 7 -81 50 -274 77 -346
14 -38 48 -107 75 -155 62 -107 91 -193 95 -279 3 -79 -7 -129 -39 -197 -38
-81 -35 -80 -96 -22 -163 158 -400 155 -653 -7 l-57 -37 -62 49 c-111 87 -209
131 -304 136 -98 5 -206 -37 -278 -108 l-46 -46 -19 42 c-28 64 -38 118 -34
190 4 89 33 172 97 286 31 53 67 131 81 172 31 95 66 262 68 336 2 52 0 58
-30 85 -37 33 -84 38 -120 13 -28 -19 -41 -43 -47 -91 -29 -198 -62 -307 -128
-420 -204 -347 -149 -688 146 -921 88 -70 189 -127 314 -177 59 -25 109 -48
110 -52 1 -5 7 -26 12 -49 15 -55 77 -124 140 -153 28 -14 51 -29 52 -35 0 -6
1 -37 2 -70 l2 -58 -60 -48 c-158 -125 -347 -229 -470 -258 -81 -20 -206 -23
-290 -7 -107 19 -236 87 -326 169 -36 34 -39 41 -24 46 22 8 152 5 263 -5 93
-8 132 2 151 39 36 67 3 137 -70 151 -92 18 -322 26 -436 14 l-51 -6 -16 57
c-22 77 -21 89 7 85 12 -2 59 -6 104 -10 46 -3 91 -8 100 -9 10 -2 38 -7 63
-10 25 -3 56 -9 70 -12 114 -25 152 -28 178 -13 39 21 62 73 51 111 -4 17 -16
39 -25 49 -18 20 -129 48 -254 65 -25 3 -54 8 -64 10 -17 3 -154 15 -216 19
-29 1 -31 17 -11 89 l14 48 40 -6 c36 -6 273 -82 378 -122 43 -17 47 -17 85 2
72 35 76 123 8 169 -30 20 -261 105 -344 126 l-45 11 53 47 c28 26 83 65 121
85 38 21 74 49 81 61 28 51 8 114 -43 138 -35 17 -64 14 -118 -14 -43 -22 -39
-26 -43 46 -4 63 19 116 139 323 69 117 127 223 129 236 5 28 -21 83 -45 96
-56 31 -108 14 -147 -48 -55 -87 -199 -337 -227 -391 -53 -105 -62 -233 -29
-404 2 -12 -14 -39 -44 -74 -42 -48 -50 -54 -77 -49 -30 6 -99 14 -165 21 -19
2 -58 4 -87 4 -46 1 -52 4 -61 29 -6 15 -28 70 -50 123 -71 170 -170 487 -197
628 -37 192 -49 315 -49 481 0 264 41 452 145 665 121 248 421 556 664 682
164 85 281 108 450 88z m530 -2689 c58 -25 157 -99 199 -150 61 -75 93 -73
216 15 118 85 209 123 301 126 69 2 81 -1 120 -26 25 -15 53 -40 63 -55 17
-27 17 -28 -1 -42 -37 -28 -221 -114 -313 -146 -123 -42 -140 -59 -140 -136 0
-67 -6 -74 -67 -92 -37 -11 -46 -10 -80 7 -34 18 -38 25 -39 59 -1 21 -2 47
-3 58 -2 34 -63 82 -136 106 -133 44 -365 164 -365 189 0 4 18 25 39 46 63 63
125 75 206 41z m-1272 -224 c4 -1 12 -2 18 -2 5 0 7 -6 3 -12 -5 -7 -15 -43
-24 -80 l-16 -68 -42 78 c-23 44 -42 84 -42 89 0 8 69 4 103 -5z m3357 1 c0
-2 -19 -40 -42 -84 l-41 -79 -19 71 c-10 39 -16 74 -14 78 3 4 19 8 37 9 18 1
34 4 35 5 6 5 44 6 44 0z m-1650 -852 c137 -111 324 -214 467 -257 73 -22 109
-27 213 -28 69 0 140 2 157 6 32 6 33 5 27 -20 -44 -184 -168 -351 -330 -446
-77 -45 -228 -101 -302 -112 -20 -3 -43 -7 -50 -9 -22 -8 -193 -19 -277 -19
-113 1 -230 13 -305 30 -14 3 -36 8 -49 10 -39 8 -143 45 -196 71 -68 34 -186
125 -228 176 -68 83 -127 200 -151 298 -6 26 -5 27 32 20 82 -14 255 -5 342
17 137 35 383 169 534 290 42 35 39 36 116 -27z M3729 6876 c-2 -2 -22 -6 -44
-10 -39 -5 -62 -10 -117 -22 -36 -7 -78 -58 -78 -94 0 -38 17 -73 42 -89 21
-13 90 -17 106 -7 5 3 10 -16 10 -42 6 -165 136 -333 291 -379 103 -30 251
-14 339 38 l34 19 30 -25 c48 -41 120 -30 150 23 44 76 -44 305 -161 421 -77
76 -169 124 -305 158 -26 6 -291 15 -297 9z m316 -222 c77 -27 134 -66 178
-125 l27 -36 -39 -27 c-143 -100 -325 -39 -358 119 -5 22 -8 46 -7 53 1 6 2
19 3 28 1 14 11 16 74 11 39 -3 95 -13 122 -23z M6186 6859 c-210 -51 -358
-190 -425 -399 -28 -87 -32 -139 -13 -172 31 -53 102 -64 151 -22 23 19 35 23
44 16 7 -6 36 -20 65 -31 226 -89 458 4 551 223 17 39 31 103 35 161 1 11 7
19 14 17 43 -9 60 -8 84 4 63 32 77 103 31 154 -24 25 -43 33 -123 49 -128 26
-307 26 -414 0z m204 -226 c-1 -184 -201 -278 -359 -168 -47 32 -46 38 18 101
70 69 170 108 284 113 l57 2 0 -48z M4402 4590 c-59 -36 -64 -127 -8 -163 45
-30 89 -25 127 12 81 82 -20 211 -119 151z M5834 4600 c-12 -5 -31 -21 -44
-37 -17 -22 -21 -36 -17 -68 16 -115 178 -115 194 1 4 36 1 45 -23 72 -30 32
-74 45 -110 32z M4665 4431 c-33 -14 -56 -46 -59 -87 -4 -32 1 -43 29 -71 44
-44 94 -46 136 -4 75 76 -7 202 -106 162z M5571 4427 c-13 -8 -30 -25 -37 -38
-48 -87 39 -179 130 -138 33 15 59 71 51 108 -13 60 -92 97 -144 68z M4399
4297 c-52 -40 -60 -100 -19 -147 66 -78 185 -17 166 84 -4 20 -18 44 -33 56
-29 22 -89 26 -114 7z M5799 4281 c-68 -68 -4 -184 91 -166 33 6 80 59 80 91
0 33 -25 81 -49 94 -39 20 -91 12 -122 -19z"/>
</g>
</svg>
