<svg xmlns="http://www.w3.org/2000/svg" viewBox="0 0 1024 1024">
<g transform="translate(0,1024) scale(0.1,-0.1)">
<path fill="currentColor" d="M3759 10236 c-2 -2 -41 -7 -86 -10 -46 -4 -91 -9 -100 -10 -10 -2
-40 -7 -66 -10 -26 -4 -71 -11 -100 -17 -29 -6 -63 -13 -77 -15 -379 -74 -836
-280 -1170 -527 -519 -384 -899 -919 -1075 -1515 -47 -162 -69 -264 -100 -472
-26 -180 -27 -630 0 -768 1 -9 6 -37 9 -62 38 -277 157 -649 287 -901 l39 -75
-29 -66 c-78 -171 -99 -381 -56 -558 13 -52 26 -105 30 -117 6 -18 -2 -27 -52
-58 -214 -136 -371 -371 -410 -613 -10 -59 -10 -242 0 -304 10 -63 51 -187 83
-251 76 -150 212 -289 365 -376 62 -35 195 -86 249 -95 95 -17 132 -20 220
-19 223 2 436 93 601 256 l56 54 109 -106 c60 -58 131 -124 157 -146 l49 -40
1 -286 c1 -185 -2 -286 -8 -286 -17 0 -159 -15 -175 -18 -8 -1 -46 -6 -85 -9
-38 -4 -81 -9 -95 -11 -14 -2 -56 -6 -93 -10 -37 -3 -76 -8 -85 -10 -9 -1 -51
-6 -92 -10 -41 -4 -82 -8 -90 -10 -8 -1 -51 -6 -94 -10 -43 -4 -86 -8 -95 -10
-9 -1 -50 -6 -91 -10 -41 -4 -82 -8 -90 -10 -8 -2 -49 -6 -90 -10 -41 -4 -82
-8 -90 -10 -8 -2 -49 -6 -90 -10 -41 -4 -82 -8 -90 -10 -8 -1 -46 -6 -85 -10
-38 -4 -72 -8 -75 -10 -3 -2 -25 -6 -49 -10 -24 -3 -83 -19 -131 -35 -471
-154 -818 -564 -887 -1050 -4 -30 -8 -345 -8 -700 l0 -645 28 -57 c33 -67 93
-121 166 -149 50 -19 125 -19 3735 -19 3215 0 3689 2 3725 15 57 20 125 70
154 114 58 88 57 77 54 770 -2 350 -7 652 -11 671 -21 108 -30 142 -53 215
-14 44 -45 120 -69 169 -24 49 -44 90 -44 92 0 1 47 21 105 44 1041 419 1879
1306 2238 2370 40 119 109 366 122 440 3 14 7 36 10 50 7 35 13 69 20 114 4
21 8 47 10 58 3 11 7 46 10 77 4 31 8 67 10 80 26 162 27 727 1 881 -3 14 -7
48 -11 75 -12 99 -13 106 -51 305 -16 83 -72 286 -114 413 -122 366 -302 721
-524 1032 -57 79 -186 245 -227 290 -15 17 -37 41 -49 55 -32 37 -158 165
-242 246 -370 355 -855 652 -1371 838 -91 33 -353 111 -408 121 -13 3 -37 8
-54 12 -16 4 -32 7 -35 8 -3 1 -25 5 -50 10 -25 5 -47 9 -50 10 -3 0 -27 4
-53 9 -27 4 -58 9 -69 11 -11 3 -46 7 -77 10 -31 4 -66 8 -77 10 -168 26 -711
27 -875 0 -103 -16 -105 -16 -156 24 -124 98 -376 251 -532 323 -222 103 -493
192 -681 224 -14 3 -50 9 -80 14 -30 5 -80 12 -110 16 -30 3 -66 8 -80 11 -30
6 -475 14 -481 9z m426 -609 c11 -2 47 -8 80 -12 62 -7 65 -8 155 -26 695
-137 1310 -613 1635 -1267 81 -163 166 -394 189 -516 2 -11 9 -41 14 -66 6
-25 13 -63 16 -85 4 -23 8 -52 11 -65 25 -130 26 -508 1 -646 -2 -10 -6 -35
-9 -54 -22 -128 -22 -124 -52 -236 -31 -113 -64 -208 -112 -321 l-35 -82 -61
22 -61 22 -2 475 c-1 473 -3 525 -30 652 -71 343 -278 591 -649 776 -129 65
-253 113 -500 196 -263 89 -407 158 -467 224 -60 68 -70 108 -73 293 -3 190
-16 237 -83 310 -148 158 -399 117 -490 -81 -24 -50 -26 -68 -28 -209 -1 -85
-5 -170 -9 -190 -10 -53 -39 -103 -83 -143 -77 -70 -164 -110 -452 -210 -468
-162 -690 -278 -866 -453 -171 -170 -270 -380 -302 -640 -5 -44 -10 -285 -11
-535 -1 -249 -4 -456 -7 -459 -5 -6 -118 -41 -119 -38 -1 1 -18 40 -37 87 -53
125 -113 311 -134 415 -11 54 -15 73 -20 104 -3 18 -7 43 -10 55 -29 151 -25
551 7 720 5 28 12 65 15 81 21 124 75 299 140 453 289 689 886 1207 1599 1387
72 18 155 36 185 40 30 4 57 8 60 10 3 2 44 7 90 10 47 4 87 9 89 11 5 4 393
-3 416 -9z m2440 -602 c67 -7 139 -15 165 -20 14 -2 43 -6 65 -10 22 -3 47 -7
55 -10 8 -2 31 -6 50 -9 57 -9 238 -55 345 -87 282 -87 605 -242 860 -412 79
-53 213 -153 248 -186 l28 -25 -432 -432 -432 -432 -106 70 c-134 89 -333 186
-481 234 -63 21 -116 39 -117 39 -1 0 -14 56 -28 124 -79 373 -226 725 -432
1035 l-92 138 132 -7 c72 -3 150 -8 172 -10z m-2673 -898 c29 -29 141 -99 225
-141 119 -60 157 -74 433 -168 372 -126 494 -185 596 -287 62 -61 115 -163
135 -256 15 -77 20 -546 4 -550 -5 -2 -111 -6 -235 -10 -124 -3 -243 -7 -265
-10 -22 -2 -68 -7 -102 -10 -70 -7 -96 -11 -213 -31 -189 -34 -435 -127 -585
-222 -30 -19 -30 -19 -69 6 -133 83 -369 176 -531 208 -58 11 -135 25 -175 30
-25 3 -56 7 -70 10 -24 4 -155 13 -275 19 -33 2 -118 4 -189 4 l-128 1 5 263
c5 293 15 347 78 453 89 148 219 221 664 374 344 118 511 196 648 304 38 30
33 29 49 13z m5015 -410 c299 -397 508 -857 602 -1327 30 -145 36 -186 47
-290 4 -30 7 -59 8 -65 1 -7 -209 -10 -613 -10 l-614 0 -23 116 c-55 270 -182
566 -338 784 l-36 50 432 432 c238 238 435 433 438 433 3 -1 46 -56 97 -123z
m-1927 -684 c351 -194 619 -535 724 -920 l25 -93 -579 0 -579 0 38 88 c46 106
100 263 136 395 28 105 28 104 50 222 22 122 24 135 31 210 4 38 8 77 10 85 1
8 3 30 3 48 l1 32 37 -15 c21 -9 67 -32 103 -52z m-4075 -928 c91 -9 144 -16
163 -20 11 -2 35 -6 53 -9 69 -11 216 -58 288 -92 82 -38 146 -82 232 -156 69
-60 134 -86 216 -86 75 0 154 34 223 97 99 91 233 162 380 205 80 23 104 28
198 42 20 3 48 7 62 10 47 8 265 17 420 18 l155 1 1 -65 c1 -114 25 -178 89
-242 62 -62 114 -80 250 -88 136 -9 186 -26 250 -88 146 -142 104 -393 -82
-483 -41 -20 -61 -23 -205 -33 -152 -11 -260 -119 -283 -281 -64 -465 -401
-907 -842 -1106 -75 -34 -228 -83 -303 -98 -30 -6 -68 -13 -85 -17 -16 -3
-100 -7 -185 -9 -236 -5 -402 28 -613 120 -430 189 -744 576 -843 1040 -3 11
-7 38 -10 60 -16 120 -78 216 -166 259 -63 30 -85 34 -192 37 -104 2 -172 27
-229 83 -139 137 -118 363 42 465 62 40 108 50 229 52 89 1 110 5 160 29 65
31 110 75 143 140 18 34 24 65 27 138 l4 94 207 -6 c113 -4 224 -8 246 -11z
m4799 -776 c-84 -314 -277 -604 -534 -799 -73 -55 -159 -113 -161 -108 0 2 -3
17 -5 33 -15 99 -80 256 -146 354 -67 98 -195 216 -296 271 -30 17 -41 29 -37
40 16 39 45 182 49 236 2 32 5 60 5 62 1 1 259 2 575 2 l575 0 -25 -91z m1860
76 c-1 -5 -4 -36 -8 -68 -5 -52 -17 -137 -32 -222 -65 -379 -230 -803 -451
-1159 -63 -102 -254 -368 -260 -363 -1 1 -198 197 -437 436 l-435 434 60 89
c156 231 289 563 324 805 3 21 8 44 10 51 6 16 1231 13 1229 -3z m-7799 -845
c176 -85 220 -330 84 -470 -124 -127 -318 -125 -437 4 -221 243 57 609 353
466z m4476 11 c187 -88 231 -338 85 -483 -109 -108 -288 -116 -401 -16 -77 68
-105 130 -106 233 -1 129 91 247 221 285 46 14 153 4 201 -19z m2139 -1402 c0
-3 -37 -35 -82 -70 -297 -233 -612 -401 -986 -525 l-165 -56 -86 40 c-91 42
-230 89 -290 98 -20 3 -42 7 -49 9 -8 3 -44 8 -80 11 -86 9 -85 8 -97 16 -10
6 -14 803 -4 811 2 2 30 21 62 42 33 21 82 60 111 86 47 43 68 53 192 94 165
54 382 159 514 249 l95 64 433 -431 c237 -238 432 -435 432 -438z m-2882 480
c70 -66 169 -134 242 -167 50 -22 167 -62 184 -62 8 0 11 -98 11 -332 -1 -208
-4 -332 -10 -331 -6 0 -44 4 -85 8 -41 4 -82 8 -90 10 -8 2 -49 6 -90 10 -41
3 -86 8 -100 10 -14 2 -50 6 -80 10 -30 3 -71 8 -90 10 -19 2 -64 7 -100 10
-36 4 -76 8 -90 10 -14 2 -54 7 -90 10 -36 4 -67 11 -70 15 -3 5 -5 119 -5
253 l0 245 95 73 c52 40 140 119 195 174 55 56 102 102 104 103 2 1 33 -26 69
-59z m-2175 -573 c45 -13 98 -27 117 -30 19 -3 46 -8 60 -10 137 -26 197 -31
370 -31 149 0 251 6 320 20 13 2 40 7 60 10 19 3 68 14 108 24 39 11 72 16 73
13 1 -4 2 -126 3 -272 2 -279 6 -309 52 -381 28 -45 91 -95 141 -113 43 -15
108 -25 268 -41 88 -9 149 -17 155 -20 8 -5 4 -511 -4 -570 -66 -475 -386
-858 -835 -999 -46 -15 -100 -29 -120 -32 -20 -3 -56 -10 -81 -14 -69 -13
-316 -5 -397 14 -351 77 -643 294 -816 606 -62 112 -120 294 -134 420 -4 36
-8 179 -8 319 0 246 1 254 20 257 11 2 49 6 85 9 36 4 76 8 90 10 14 2 52 7
85 11 156 17 266 108 291 239 4 21 7 162 7 312 0 150 2 273 4 273 1 0 40 -11
86 -24z m-1272 -909 c0 -7 2 -127 3 -267 2 -140 6 -266 9 -280 3 -14 8 -43 11
-65 40 -306 207 -676 406 -897 l52 -58 -996 0 -996 0 1 432 c1 314 5 450 14
494 44 204 183 387 365 478 101 52 156 67 295 81 33 4 71 8 85 10 14 2 57 7
95 11 39 3 77 8 85 9 8 2 49 6 90 10 41 4 82 8 90 10 8 2 49 6 90 10 41 4 82
8 90 10 8 2 49 6 90 10 41 4 76 8 77 9 9 8 43 2 44 -7z m3764 -3 c39 -4 77 -8
85 -10 8 -1 20 -3 25 -3 7 -1 10 -260 10 -776 l0 -775 -378 0 -378 0 53 63
c199 234 349 551 394 832 3 21 7 47 10 58 12 63 19 218 18 410 l0 219 45 -6
c25 -3 78 -8 116 -12z m880 -107 c224 -62 398 -229 476 -456 31 -89 33 -130
34 -571 l0 -425 -332 -3 c-263 -2 -333 0 -334 10 -3 43 -4 1455 -1 1462 6 10
91 1 157 -17z"/>
</g>
</svg>
