<svg xmlns="http://www.w3.org/2000/svg" viewBox="0 0 1024 1024">
<g transform="translate(0,1024) scale(0.1,-0.1)">
<path fill="currentColor" d="M5108 9935 c-2 -2 -26 -5 -55 -9 -107 -13 -236 -80 -320 -167 -47
-50 -107 -144 -124 -198 -15 -45 -23 -51 -79 -51 -155 0 -341 -109 -438 -255
l-32 -48 -167 -2 c-182 -3 -209 -6 -325 -40 l-78 -22 -21 43 c-30 64 -110 139
-187 176 -63 30 -74 33 -172 33 -93 0 -111 -3 -162 -27 -81 -38 -123 -72 -173
-143 -43 -59 -46 -62 -90 -63 -82 -4 -177 -45 -243 -106 -119 -110 -165 -282
-114 -431 l21 -60 -47 -39 c-82 -68 -188 -185 -251 -274 -33 -48 -66 -94 -73
-104 -9 -12 -35 -18 -92 -21 -61 -4 -92 -12 -142 -37 -70 -34 -148 -105 -178
-162 -18 -34 -22 -36 -82 -41 -73 -5 -171 -47 -228 -97 -170 -150 -185 -423
-31 -586 35 -37 36 -40 26 -79 -6 -22 -9 -78 -7 -125 2 -71 7 -95 34 -150 17
-36 44 -80 60 -99 l29 -34 -24 -49 c-23 -47 -73 -208 -73 -233 0 -7 -32 -23
-71 -35 -135 -44 -268 -158 -326 -279 l-28 -60 -70 -1 c-91 -2 -116 -6 -196
-34 -235 -81 -391 -317 -376 -566 9 -147 66 -272 174 -378 l63 -62 -22 -63
c-30 -87 -34 -240 -9 -330 67 -234 283 -410 514 -418 27 -1 50 -7 52 -13 2 -6
6 -43 10 -82 3 -39 8 -82 10 -95 3 -13 8 -37 11 -54 9 -50 62 -201 89 -255 14
-27 24 -50 23 -51 -2 0 -23 -3 -48 -5 -339 -31 -500 -431 -275 -682 37 -41 41
-50 32 -72 -16 -40 -17 -172 -2 -222 76 -254 320 -368 572 -267 28 11 35 11
50 -4 29 -25 125 -66 174 -74 50 -7 69 -8 120 -2 35 3 40 0 84 -56 62 -77 171
-185 230 -225 43 -29 45 -33 46 -80 1 -28 2 -53 4 -57 1 -5 5 -21 10 -38 14
-51 51 -118 93 -165 34 -39 38 -49 29 -65 -17 -30 -18 -175 -2 -227 54 -181
207 -300 385 -300 79 0 105 5 164 31 l46 20 43 -29 c142 -96 349 -88 478 17
25 21 57 53 70 71 56 78 41 76 164 22 221 -96 456 -160 677 -186 29 -3 56 -9
59 -13 4 -3 1 -33 -5 -66 -21 -98 -11 -213 24 -308 83 -221 303 -373 534 -369
75 2 85 3 156 22 58 15 166 72 209 110 40 36 40 36 84 10 19 -12 59 -29 89
-40 300 -104 625 56 728 360 28 82 35 213 15 295 -18 74 -18 72 -2 72 55 1
253 51 353 88 38 15 108 47 156 72 49 26 89 45 90 42 2 -2 13 -24 26 -49 107
-212 389 -284 587 -151 l43 29 41 -19 c191 -85 430 0 526 190 43 85 57 217 30
293 -11 35 -11 39 12 60 73 67 123 186 123 291 l0 64 83 55 c94 63 183 141
218 192 23 34 24 34 94 34 98 0 188 28 266 84 13 9 24 8 51 -5 149 -71 350
-29 465 96 94 102 133 248 100 373 l-13 51 42 46 c224 248 62 651 -274 680
-29 3 -54 6 -55 8 -2 2 -8 15 -15 29 -7 14 -28 42 -47 63 -27 31 -33 43 -25
57 30 56 69 258 71 368 2 53 2 54 28 47 14 -3 69 -8 121 -12 264 -15 493 143
575 396 32 100 30 252 -4 350 l-22 64 50 44 c78 68 150 189 178 298 13 49 11
195 -2 253 -34 144 -148 299 -270 366 -96 53 -176 74 -290 76 l-70 1 -29 60
c-55 118 -191 235 -319 276 -34 11 -57 24 -58 33 0 8 -2 22 -4 30 -2 8 -6 30
-9 48 -9 44 -41 129 -69 177 l-23 40 33 46 c57 81 76 135 79 229 2 47 -2 103
-7 126 -10 39 -9 42 27 80 48 51 92 144 102 219 26 196 -82 373 -268 442 -64
24 -58 23 -113 23 -38 0 -44 3 -61 34 -43 80 -131 152 -226 184 -67 23 -59 22
-122 22 -53 0 -53 0 -80 48 -27 50 -155 223 -204 277 -15 17 -52 56 -82 87
l-55 56 12 46 c35 139 1 279 -93 383 -72 79 -170 127 -281 135 -36 3 -43 8
-78 60 -73 109 -180 169 -313 176 -101 5 -170 -13 -251 -67 -50 -34 -133 -127
-145 -162 -2 -7 -25 -1 -58 16 -100 51 -279 101 -425 120 -40 6 -55 13 -75 38
-68 86 -154 149 -254 186 -68 25 -115 33 -204 35 l-63 1 -33 62 c-18 34 -52
85 -75 112 -74 88 -222 172 -331 187 -44 6 -129 12 -132 9z m132 -257 c58 -17
128 -67 163 -116 41 -58 52 -83 66 -154 21 -98 73 -125 186 -98 174 42 319
-25 393 -180 39 -79 38 -191 0 -271 -36 -72 -87 -122 -168 -165 -73 -38 -90
-59 -95 -116 -3 -31 4 -49 33 -91 55 -79 71 -132 68 -218 -4 -130 -71 -231
-189 -285 -122 -55 -262 -32 -362 60 -66 61 -100 72 -162 52 -13 -4 -36 -27
-53 -51 -46 -67 -114 -121 -180 -144 -216 -72 -433 85 -432 313 0 73 18 127
66 198 70 103 33 189 -93 214 -74 15 -166 90 -206 170 -26 52 -30 69 -30 149
0 79 4 96 28 144 47 88 136 159 224 176 43 8 124 7 158 -3 83 -25 147 25 159
123 12 95 34 142 95 208 82 88 210 121 331 85z m-2051 -538 c47 -23 78 -70 90
-136 14 -71 19 -81 56 -104 28 -17 45 -20 111 -16 67 4 84 2 117 -17 79 -44
109 -145 67 -227 -23 -46 -44 -61 -122 -90 -74 -28 -103 -69 -93 -135 3 -25
10 -47 16 -50 15 -10 41 -67 46 -102 9 -64 -31 -139 -89 -169 -40 -21 -115
-21 -154 -1 -17 9 -50 39 -73 66 -66 78 -125 82 -205 12 -74 -64 -164 -66
-230 -5 -65 61 -72 135 -21 231 19 36 35 76 35 88 0 34 -41 86 -87 111 -52 27
-65 40 -88 84 -41 80 -6 183 79 227 32 16 98 19 136 6 22 -8 43 -9 79 -4 27 3
72 56 77 91 20 127 145 196 253 140z m4021 0 c44 -22 84 -83 94 -142 7 -37 52
-87 82 -89 8 -1 20 -2 27 -3 6 -1 35 4 62 10 115 26 214 -48 217 -161 1 -70
-39 -126 -116 -165 -17 -8 -41 -31 -54 -50 -19 -28 -22 -43 -17 -75 3 -22 12
-46 19 -55 69 -78 55 -202 -28 -259 -67 -45 -181 -31 -222 28 -19 26 -78 44
-119 37 -25 -5 -47 -22 -80 -60 -63 -74 -126 -96 -199 -71 -49 17 -75 41 -97
90 -27 58 -23 91 17 173 28 57 35 80 30 106 -9 45 -45 82 -93 95 -129 35 -181
157 -114 262 39 62 89 82 182 73 59 -6 72 -4 102 15 39 24 44 34 58 105 5 27
18 64 30 83 42 68 142 92 219 53z m-805 -105 c33 -9 61 -18 63 -20 3 -2 -10
-21 -28 -42 -18 -20 -45 -62 -59 -93 -23 -48 -26 -68 -26 -160 0 -97 2 -110
31 -171 30 -62 96 -142 136 -165 15 -8 15 -16 7 -54 -40 -178 56 -373 224
-454 123 -60 273 -52 389 20 57 35 60 35 91 21 57 -27 107 -36 185 -33 223 8
391 184 392 411 l0 60 29 -31 c48 -51 175 -217 195 -255 l19 -36 -36 -38 c-29
-30 -55 -73 -83 -133 -1 -2 -19 -5 -40 -8 -137 -16 -249 -99 -317 -234 -30
-61 -32 -71 -32 -170 0 -103 1 -109 38 -183 28 -56 52 -89 93 -124 38 -33 52
-52 48 -63 -14 -31 -13 -168 1 -214 56 -185 223 -309 406 -300 92 4 163 27
227 73 27 19 28 19 97 -5 48 -16 91 -24 135 -23 36 0 70 0 76 0 11 -1 56 -87
68 -128 3 -13 8 -32 11 -42 5 -16 -3 -22 -47 -36 -181 -60 -334 -210 -373
-368 -6 -23 -13 -27 -44 -28 -20 0 -43 -2 -51 -4 -8 -1 -32 -5 -52 -9 -174
-28 -343 -167 -415 -341 -105 -252 -8 -552 226 -699 32 -20 41 -32 36 -44 -33
-78 -46 -207 -32 -297 18 -117 75 -225 168 -317 73 -72 170 -126 267 -148 51
-12 175 -15 217 -6 62 13 115 31 157 52 26 13 50 24 54 24 11 0 -3 -152 -21
-225 -26 -104 -25 -103 -98 -104 -147 -1 -288 -90 -355 -225 -13 -26 -31 -46
-40 -47 -73 -3 -176 -47 -236 -99 -88 -77 -139 -191 -138 -305 1 -38 3 -77 5
-85 20 -89 75 -181 140 -234 39 -32 45 -41 37 -60 -4 -12 -8 -57 -8 -101 0
-95 25 -173 79 -244 l38 -50 -56 -52 c-57 -51 -151 -119 -166 -119 -4 0 -18 9
-30 21 -63 61 -175 106 -269 108 -20 1 -32 11 -51 44 -107 182 -354 246 -546
142 -62 -34 -142 -118 -167 -175 -19 -42 -24 -45 -89 -55 -62 -9 -140 -49
-196 -101 -86 -82 -130 -180 -130 -293 1 -36 2 -73 4 -81 22 -92 47 -140 104
-202 45 -47 46 -49 27 -69 -52 -58 -217 -145 -345 -184 l-49 -14 16 37 c24 58
42 167 39 241 -10 265 -214 491 -485 535 -14 3 -54 5 -90 5 l-65 1 -30 62
c-57 120 -213 249 -340 283 -16 5 -37 10 -45 12 -35 10 -189 11 -235 2 -96
-20 -212 -85 -286 -160 -61 -62 -118 -154 -143 -231 -4 -12 -16 -18 -38 -19
-147 -3 -284 -63 -389 -168 -119 -119 -170 -241 -170 -407 0 -67 23 -179 46
-224 8 -16 15 -33 15 -39 0 -18 -239 54 -400 121 -149 63 -190 86 -200 114 -9
23 -4 30 50 80 167 155 177 406 23 574 -72 79 -125 106 -263 134 -18 4 -31 17
-43 45 -54 122 -201 219 -344 226 -150 7 -298 -70 -370 -192 -17 -29 -32 -43
-46 -44 -110 -3 -208 -44 -285 -119 -30 -28 -35 -30 -50 -17 -9 8 -30 25 -46
38 -15 13 -52 52 -82 87 l-53 62 29 43 c68 96 99 240 71 334 -9 30 -7 34 36
69 158 130 192 376 75 547 -62 89 -171 158 -273 172 -45 6 -50 10 -71 52 -89
179 -306 268 -497 203 -33 -11 -62 -20 -65 -20 -5 0 -40 105 -55 165 -24 99
-30 237 -11 260 25 31 48 27 111 -20 109 -80 213 -116 339 -115 115 0 166 12
270 66 124 65 218 171 267 304 47 127 46 285 -2 402 -5 12 4 24 36 44 234 147
331 448 226 699 -24 59 -92 157 -139 202 -90 86 -255 151 -389 153 -21 0 -28
6 -34 28 -18 75 -76 166 -152 238 -47 45 -133 96 -225 132 l-27 11 15 53 c9
29 24 72 34 96 l19 42 65 0 c82 0 69 -2 145 25 l63 23 45 -29 c235 -149 547
-27 618 242 14 54 16 150 4 192 -8 28 -4 34 51 87 41 39 70 80 93 126 30 64
32 76 32 174 0 98 -2 109 -33 171 -58 121 -166 203 -297 229 -59 11 -62 13
-83 58 -12 26 -38 64 -57 85 l-35 39 52 75 c56 80 173 211 181 203 3 -3 7 -27
8 -55 4 -62 28 -131 69 -194 99 -155 320 -223 488 -151 l52 22 47 -30 c72 -45
138 -64 223 -64 228 1 402 172 404 397 0 44 -3 94 -7 110 -6 26 -2 33 29 54
46 32 88 86 122 158 24 52 27 70 27 163 0 101 -1 108 -37 178 l-36 73 94 -2
94 -2 0 -46 c1 -161 97 -339 237 -437 37 -26 69 -48 70 -49 1 0 -7 -30 -18
-65 -21 -66 -28 -188 -16 -262 34 -197 197 -380 392 -440 71 -23 201 -30 275
-16 82 15 185 63 251 119 l47 38 68 -34 c93 -46 179 -65 278 -60 258 12 464
181 531 435 21 79 14 228 -14 311 l-23 66 62 58 c117 112 178 254 180 418 0
54 0 54 85 32z m-4411 -1165 c50 -24 86 -75 93 -132 13 -102 50 -128 174 -125
99 2 131 -12 173 -76 32 -50 34 -111 6 -167 -23 -46 -60 -74 -116 -89 -51 -14
-92 -53 -99 -95 -7 -42 -4 -54 28 -109 38 -63 44 -107 23 -161 -19 -50 -47
-79 -96 -99 -72 -30 -145 -6 -205 67 -61 75 -129 83 -195 25 -74 -65 -145 -76
-218 -33 -83 49 -106 152 -52 237 62 98 47 154 -54 216 -69 42 -98 88 -98 155
0 52 20 94 62 129 37 32 85 42 148 31 43 -7 66 -9 99 -5 27 3 73 54 79 89 22
129 139 196 248 142z m6403 1 c46 -21 86 -80 97 -142 10 -58 67 -99 126 -91
19 2 62 5 96 6 52 1 66 -3 96 -26 104 -79 90 -223 -28 -290 -101 -56 -115
-116 -53 -217 28 -44 31 -57 27 -104 -5 -67 -36 -113 -92 -138 -78 -35 -141
-21 -218 51 -28 26 -81 35 -118 20 -16 -7 -46 -32 -65 -56 -20 -24 -51 -52
-67 -60 -93 -48 -210 2 -238 102 -15 54 -8 93 27 153 32 54 35 66 28 107 -7
42 -48 81 -99 95 -119 32 -171 152 -111 255 37 63 93 87 183 79 108 -11 152
22 165 123 15 119 133 183 244 133z m-6884 -1714 c112 -51 178 -148 191 -279
9 -90 64 -136 145 -123 159 26 266 -4 350 -100 51 -58 74 -119 77 -205 6 -162
-90 -286 -258 -334 -115 -33 -139 -115 -65 -224 54 -78 69 -148 55 -241 -32
-202 -246 -324 -440 -251 -58 21 -126 79 -181 152 -19 26 -38 39 -62 44 -52 9
-78 -1 -141 -56 -139 -121 -326 -122 -450 -2 -64 61 -96 128 -102 214 -5 82
12 143 67 228 62 95 45 159 -54 206 -77 37 -136 92 -170 160 -25 51 -29 71
-30 144 0 101 20 153 85 224 84 91 229 129 345 89 92 -31 155 7 176 105 27
133 109 227 234 269 60 19 161 11 228 -20z m7479 6 c102 -46 172 -139 199
-262 20 -94 81 -126 184 -96 248 72 482 -155 411 -399 -31 -106 -80 -162 -187
-217 -103 -52 -120 -116 -57 -212 75 -112 87 -227 36 -338 -91 -199 -351 -252
-515 -105 -61 55 -83 66 -129 66 -33 0 -44 -7 -78 -47 -119 -136 -166 -164
-286 -171 -101 -5 -171 21 -244 91 -115 113 -132 283 -39 419 77 113 51 190
-77 228 -245 73 -330 354 -164 539 80 89 208 128 324 99 54 -14 112 3 138 40
11 15 23 50 26 77 10 69 16 95 34 130 39 79 110 139 200 171 54 19 168 12 224
-13z m-7410 -2534 c35 -19 69 -77 79 -137 8 -45 18 -67 41 -88 28 -28 34 -29
121 -29 102 0 141 -14 175 -63 70 -97 30 -220 -86 -262 -69 -26 -87 -38 -106
-75 -19 -36 -11 -87 20 -134 69 -105 25 -236 -90 -265 -82 -21 -144 6 -206 91
-47 63 -121 58 -200 -14 -93 -86 -256 -25 -275 101 -8 50 3 91 36 137 51 72
31 148 -52 194 -85 46 -119 108 -106 191 7 44 48 99 89 120 33 17 96 20 143 6
76 -23 145 24 160 108 12 70 74 129 150 143 21 3 79 -9 107 -24z m7239 11 c16
0 71 -62 85 -96 9 -21 16 -40 15 -41 -12 -27 39 -90 82 -101 18 -5 45 -5 62 0
47 14 121 11 154 -6 54 -28 86 -82 88 -147 1 -50 -2 -64 -28 -98 -16 -22 -48
-50 -71 -62 -97 -49 -113 -117 -51 -211 40 -59 39 -140 0 -192 -66 -86 -183
-97 -258 -24 -48 47 -106 61 -152 36 -26 -14 -36 -23 -65 -64 -28 -40 -81 -66
-137 -66 -54 0 -96 22 -132 69 -24 31 -28 46 -28 98 0 51 5 69 29 105 51 77
34 163 -39 190 -117 45 -139 63 -159 131 -23 76 -2 138 61 186 34 26 43 28
134 28 89 0 100 2 123 24 26 24 40 57 51 123 14 86 107 146 195 126 19 -4 38
-8 41 -8z m-5850 -1258 c38 -15 87 -77 94 -119 21 -127 68 -162 191 -141 63
11 143 -35 170 -99 43 -100 -20 -218 -128 -238 -33 -7 -66 -33 -84 -66 -20
-39 -12 -87 23 -141 58 -87 32 -198 -58 -246 -77 -42 -180 -14 -224 60 -28 48
-69 65 -137 59 -9 0 -36 -17 -59 -37 -53 -44 -81 -56 -135 -56 -53 0 -96 22
-131 68 -23 31 -28 47 -28 99 0 52 5 68 28 103 59 84 41 156 -48 202 -65 34
-97 78 -103 144 -9 110 83 199 186 181 91 -16 110 -16 141 -1 33 18 54 52 65
105 14 77 103 146 176 137 20 -3 47 -9 61 -14z m4448 -7 c39 -20 78 -72 86
-114 15 -85 67 -129 139 -116 125 22 192 1 235 -75 49 -87 11 -194 -84 -239
-88 -41 -107 -119 -48 -203 23 -34 28 -52 28 -103 0 -52 -4 -67 -28 -98 -36
-48 -78 -69 -138 -70 -48 0 -70 10 -149 72 -55 43 -132 29 -171 -32 -53 -81
-148 -108 -228 -65 -91 48 -116 159 -57 248 59 90 34 169 -65 205 -69 25 -91
41 -118 85 -25 41 -28 117 -7 158 32 62 110 105 170 94 122 -21 170 14 191
141 8 47 65 113 109 126 39 12 97 6 135 -14z m-2095 -51 c92 -45 165 -140 180
-237 9 -54 27 -86 61 -107 39 -24 60 -25 133 -4 112 33 253 -5 329 -89 59 -66
87 -139 87 -228 0 -66 -5 -86 -32 -142 -37 -75 -78 -115 -163 -157 -107 -54
-123 -120 -55 -219 94 -138 82 -314 -30 -424 -128 -128 -337 -132 -456 -10
-90 92 -164 85 -237 -21 -87 -126 -277 -174 -413 -105 -180 92 -236 313 -122
485 47 71 53 118 22 164 -17 25 -36 39 -68 48 -74 22 -133 51 -171 85 -146
131 -148 353 -4 486 84 77 188 104 310 78 43 -8 57 -7 88 8 45 21 62 51 71
124 22 181 163 304 341 297 53 -2 84 -10 129 -32z M5086 9043 c-68 -20 -128
-63 -165 -120 -41 -61 -54 -114 -48 -190 12 -149 125 -262 272 -271 74 -5 126
8 187 47 88 56 131 140 131 256 1 189 -193 332 -377 278z m130 -259 c35 -53
-39 -111 -87 -68 -22 20 -25 53 -6 76 26 33 69 29 93 -8z M3047 8828 c-54 -11
-90 -32 -126 -73 -87 -99 -81 -240 14 -330 149 -140 399 -25 391 182 -5 142
-141 250 -279 221z M7102 8828 c-184 -32 -254 -266 -120 -397 47 -46 95 -65
163 -65 131 1 229 94 234 224 3 64 -16 114 -60 165 -54 61 -133 88 -217 73z
M1805 7541 c-117 -54 -168 -199 -110 -317 72 -148 259 -177 378 -58 117 118
67 330 -92 383 -50 17 -131 13 -176 -8z M8235 7539 c-148 -74 -179 -264 -61
-380 112 -110 302 -77 371 66 48 96 24 210 -58 280 -67 58 -175 73 -252 34z
M1241 5528 c-154 -59 -229 -247 -159 -398 105 -229 423 -235 535 -10 29 57 32
72 30 140 -2 56 -8 87 -26 120 -73 142 -235 205 -380 148z m151 -235 c35 -32
16 -88 -34 -97 -50 -9 -84 58 -48 94 24 24 57 26 82 3z M8780 5532 c-63 -22
-149 -111 -174 -180 -40 -115 -2 -253 92 -330 193 -158 483 -22 486 228 1 77
-13 116 -65 187 -73 98 -214 137 -339 95z m142 -234 c27 -22 30 -53 8 -81 -23
-29 -66 -30 -87 -1 -40 54 26 123 79 82z M1400 3310 c-195 -66 -212 -337 -26
-432 55 -28 146 -29 201 0 83 42 124 102 132 194 16 168 -145 293 -307 238z
M8715 3320 c-182 -40 -248 -268 -115 -397 114 -111 299 -81 372 62 88 170 -70
376 -257 335z M2818 2060 c-70 -22 -130 -81 -158 -155 -26 -69 5 -190 62 -241
68 -62 173 -80 255 -44 90 40 135 105 139 204 4 97 -42 178 -124 218 -50 24
-130 32 -174 18z M7288 2060 c-70 -22 -130 -81 -158 -155 -26 -69 5 -190 62
-241 68 -62 173 -80 255 -44 90 40 135 105 139 204 4 97 -42 178 -124 218 -50
24 -130 32 -174 18z M5106 1704 c-76 -27 -134 -82 -172 -161 -109 -228 123
-485 363 -404 257 87 278 435 34 553 -56 27 -167 33 -225 12z m130 -232 c48
-31 22 -112 -36 -112 -21 0 -60 48 -53 67 16 45 58 66 89 45z"/>
</g>
</svg>
