<svg viewBox="0 0 512 512" xmlns="http://www.w3.org/2000/svg"><g><path fill="currentColor" d="m358 343.718h-12.151c4.104-10.685 6.359-22.278 6.359-34.39v-31.437c36.148-28.53 59.401-72.706 59.401-122.224 0-85.835-69.831-155.667-155.666-155.667s-155.667 69.832-155.667 155.667c0 49.571 23.302 93.789 59.516 122.315v31.346c0 12.112 2.256 23.705 6.359 34.39h-12.151c-41.355 0-75 33.645-75 75v93.282h354v-93.282c0-41.356-33.645-75-75-75zm-102 31.818c-36.507 0-66.208-29.701-66.208-66.208v-45.685l24.985 13.761 7.386-4.403c10.206-6.085 21.906-9.301 33.837-9.301s23.631 3.216 33.837 9.301l7.386 4.403 24.985-13.761v45.685c0 36.507-29.701 66.208-66.208 66.208zm-66.265-200.122 66.26-33.646 66.156 33.64v54.018l-24.752 13.632c-12.878-6.143-27.027-9.358-41.398-9.358s-28.521 3.216-41.398 9.358l-24.867-13.695v-53.949zm162.473 60.918-.057-79.324-63.04-32.056 72.705-36.919c12.525 19.538 19.794 42.753 19.794 67.633-.001 30.684-11.066 58.823-29.402 80.666zm-221.932-80.665c0-69.293 56.374-125.667 125.667-125.667 33.36 0 63.723 13.071 86.245 34.355l-182.453 92.647v79.397c-18.37-21.852-29.459-50.017-29.459-80.732zm-21.276 263.051c0-24.813 20.187-45 45-45h30.58c14.445 16.007 34.179 27.15 56.42 30.647v77.635h-69.5v-38.984h-30v38.984h-32.5zm294 63.282h-32.5v-38.984h-30v38.984h-69.5v-77.636c22.241-3.497 41.975-14.64 56.42-30.647h30.58c24.813 0 45 20.187 45 45z"/></g></svg>