<svg xmlns="http://www.w3.org/2000/svg" viewBox="0 0 512 512"><g><path fill="currentColor" d="M407.938,487.008l-.124-.988a152.947,152.947,0,0,0-86.033-119.157,95.589,95.589,0,0,0,40.643-83.007L362.091,272h2.867a27.981,27.981,0,0,0,21.432-45.992,50.766,50.766,0,0,0-2.065-35.072l12.416-68.291a38.059,38.059,0,0,0-13.06-35.991c-.062-.051-.125-.1-.189-.153L331.9,44.237a117.293,117.293,0,0,0-151.423-1.05L128.319,86.654a38.058,38.058,0,0,0-13.06,35.99l12.416,68.292a50.812,50.812,0,0,0-1.608,36.565l.092.274A27.978,27.978,0,0,0,148.958,272h1.784l-.6,11.761a95.468,95.468,0,0,0,27.93,72.448,96.5,96.5,0,0,0,12.48,10.493A152.361,152.361,0,0,0,104.186,486.02l-.124.988A8,8,0,0,0,112,496H400a8,8,0,0,0,7.938-8.992ZM360.691,200h10a34.8,34.8,0,0,1,1.42,16.929c-2.284-.6-11.308-.929-11.308-.929Zm4.267,56h-3.316l-.673-24h3.989a12,12,0,1,1,0,24Zm8.566-156.982A22.033,22.033,0,0,1,381,119.782l-6.827,37.55-18.86-12.07a8,8,0,0,0-8.625,13.476l24.391,15.61L369.323,184H353.711l-82.649-51.815,17.244-10.811,20.881,13.364a8,8,0,1,0,8.625-13.476L303.3,111.974l18.346-11.5,34.041,21.786a8,8,0,1,0,8.625-13.477L336.64,91.072l14.85-9.31ZM253.4,241.344a8,8,0,0,0-11.094,2.218l-7.124,10.688a16.525,16.525,0,0,0-2.5,12.195,107.131,107.131,0,0,0-24.321,8.58l-8.559,4.247-.428-2.719a81.35,81.35,0,0,0-30.457-51.463l-.306-28.673,21.61-13.548.826-.191a321.927,321.927,0,0,1,130.726.18l22.9,14.359.2,29.026c-2.823,2.981-7.8,8.431-13.007,15.052-10.893,13.86-17.177,25.723-18.676,35.258l-.421,2.679L304.7,275.2a108.258,108.258,0,0,0-54.938-11.155,7.986,7.986,0,0,0-.807-.041.562.562,0,0,1-.468-.875l7.124-10.687A8,8,0,0,0,253.4,241.344Zm-29.226-79.761L256,141.627l31.845,19.964A336.292,336.292,0,0,0,224.169,161.583ZM151.566,256h-2.608a12,12,0,1,1,0-24H152.8Zm-11.585-38.516A34.813,34.813,0,0,1,141.311,200h11.331l.171,16S142.8,216.527,139.981,217.484Zm2.7-33.484-1.755-9.652,39.39-25.209a8,8,0,1,0-8.625-13.477l-33.859,21.67-3.785-20.821,38.269-24.492a8,8,0,1,0-8.625-13.477l-32.729,20.947a22.03,22.03,0,0,1,7.6-20.544l52.161-43.467a101.223,101.223,0,0,1,118.685-7.957L275.687,69.1a8,8,0,1,0,8.625,13.476l38.78-24.819L338.538,71,158.289,184Zm46.681,160.873a79.445,79.445,0,0,1-23.243-60.29l1.978-38.411a65.235,65.235,0,0,1,15.469,32.866l2.121,13.488a8,8,0,0,0,11.459,5.924l18.325-9.093a92.471,92.471,0,0,1,82.074.146l17.848,8.935a8,8,0,0,0,11.484-5.911l2.121-13.489c1.316-8.372,8.947-19.761,16.47-29.163l.969,34.521c0,.063,0,.125.007.187A79.337,79.337,0,0,1,267.208,368h-21.86A78.834,78.834,0,0,1,189.358,344.873ZM121.3,480a136.606,136.606,0,0,1,28.745-61.969L172.578,480Zm68.305,0-27.293-75.054a136.774,136.774,0,0,1,33.836-23.206L228.9,480Zm76.63,0H245.766L211.742,377.927A95.334,95.334,0,0,0,245.348,384h21.86a95.373,95.373,0,0,0,32.972-5.838Zm56.162,0H283.1l32.752-98.259a136.773,136.773,0,0,1,34.241,23.577,7.978,7.978,0,0,0-1.427,2.44Zm17.026,0,22.537-61.977A136.568,136.568,0,0,1,390.7,480Z"/><ellipse cx="212.958" cy="244" rx="12" ry="20"/><ellipse cx="300.958" cy="244" rx="12" ry="20"/><path fill="currentColor" d="M278.614,299.657A8,8,0,0,0,267.3,288.343,19.187,19.187,0,0,1,253.644,294H240.958a8,8,0,1,0,0,16h12.686A35.08,35.08,0,0,0,278.614,299.657Z"/><path fill="currentColor" d="M231.687,97.262l-28,17.92a8,8,0,1,0,8.625,13.476l28-17.92a8,8,0,1,0-8.625-13.476Z"/><path fill="currentColor" d="M192.007,97.921a7.96,7.96,0,0,0,4.305-1.263l65.5-41.92a8,8,0,1,0-8.625-13.476l-65.5,41.92a8,8,0,0,0,4.32,14.739Z"/><circle cx="257" cy="401" r="9"/><circle cx="257" cy="432" r="9"/><circle cx="257" cy="464" r="9"/></g></svg>