<svg xmlns="http://www.w3.org/2000/svg" viewBox="0 0 1024 1024">
<g transform="translate(0,1024) scale(0.1,-0.1)">
<path fill="currentColor" d="M5010 10218 c-42 -16 -73 -39 -130 -97 -220 -223 -518 -607 -701
-903 -44 -73 -88 -143 -96 -156 l-14 -23 -72 41 c-309 175 -765 370 -1115 476
-159 48 -235 48 -317 -1 -51 -29 -110 -93 -128 -138 -20 -47 -73 -274 -92
-397 -3 -19 -8 -42 -10 -50 -2 -8 -6 -35 -9 -60 -3 -25 -8 -54 -10 -65 -2 -11
-7 -45 -11 -75 -3 -30 -8 -66 -10 -80 -2 -14 -7 -56 -11 -95 -3 -38 -8 -77 -9
-86 -7 -34 -23 -349 -24 -474 l-1 -50 -123 -1 c-121 -1 -341 -11 -388 -18 -13
-3 -56 -7 -95 -10 -39 -4 -80 -8 -90 -10 -11 -2 -46 -7 -79 -11 -32 -4 -68 -9
-80 -11 -11 -2 -40 -7 -65 -10 -25 -3 -52 -7 -60 -9 -8 -3 -33 -7 -55 -11 -22
-3 -60 -10 -85 -16 -25 -5 -56 -12 -70 -14 -80 -13 -211 -50 -251 -70 -76 -38
-140 -120 -155 -199 -15 -79 -8 -118 47 -291 106 -333 288 -755 454 -1051 l46
-82 -23 -14 c-13 -8 -82 -51 -153 -95 -308 -190 -699 -494 -916 -712 -82 -82
-108 -143 -105 -241 4 -126 44 -177 324 -418 238 -204 557 -435 792 -571 41
-24 77 -45 78 -46 2 -1 -30 -65 -72 -141 -152 -277 -301 -622 -407 -945 -73
-219 -80 -254 -66 -337 13 -76 66 -151 138 -197 33 -21 140 -53 224 -68 48 -9
75 -15 93 -20 9 -3 37 -8 62 -11 24 -4 47 -8 50 -10 3 -1 25 -6 50 -9 25 -3
54 -8 65 -10 48 -9 206 -31 300 -40 28 -3 73 -8 100 -10 96 -10 191 -16 350
-21 87 -3 161 -7 162 -9 2 -1 5 -72 8 -157 6 -176 16 -326 30 -449 2 -19 7
-60 10 -90 4 -30 8 -66 10 -80 2 -14 7 -45 10 -70 24 -169 97 -519 121 -575
32 -77 128 -156 209 -171 65 -13 110 -7 223 26 331 99 778 286 1084 456 67 37
123 63 125 57 2 -5 39 -68 82 -139 193 -315 490 -701 716 -930 97 -98 152
-124 256 -120 101 3 159 36 267 154 258 280 490 584 676 885 47 76 86 143 89
150 2 6 42 -11 98 -42 308 -172 696 -339 1044 -450 143 -46 182 -55 238 -53
99 2 214 77 255 165 18 38 78 293 97 407 3 19 7 46 10 60 5 25 11 64 19 118 3
15 8 52 11 82 4 30 9 62 10 70 2 8 6 49 9 90 4 41 9 91 11 110 8 67 15 196 20
344 2 82 6 150 8 152 2 2 71 6 153 9 152 5 292 13 354 20 19 2 67 7 105 11 39
3 77 8 85 9 8 1 40 6 70 10 240 30 603 106 670 140 116 59 180 192 157 325 -9
48 -80 271 -134 415 -94 254 -246 585 -362 790 -28 50 -51 93 -51 96 0 3 12
11 26 17 14 7 80 46 147 88 300 188 594 413 874 670 112 103 146 163 149 263
4 105 -22 159 -125 261 -224 221 -610 518 -916 705 -60 37 -120 74 -133 82
l-23 14 32 57 c193 343 381 782 489 1144 33 113 39 158 26 223 -15 81 -94 177
-171 209 -56 24 -406 97 -575 121 -25 3 -56 8 -70 10 -14 2 -50 6 -80 10 -30
3 -71 8 -90 10 -120 14 -266 24 -445 30 -88 3 -161 7 -162 9 -2 2 -5 75 -8
162 -6 188 -10 245 -30 447 -11 97 -31 251 -41 302 -2 10 -6 37 -10 60 -4 33
-33 185 -49 260 -16 73 -40 165 -52 193 -30 72 -126 151 -203 168 -78 17 -137
6 -347 -65 -345 -115 -666 -253 -943 -406 -74 -40 -138 -71 -141 -69 -4 2 -26
36 -49 76 -149 252 -453 668 -625 854 -5 6 -50 55 -98 107 -107 117 -165 150
-266 153 -47 2 -82 -4 -121 -18z m289 -953 c363 -482 598 -952 686 -1377 32
-152 44 -380 26 -493 -55 -336 -293 -617 -612 -722 -52 -17 -110 -34 -129 -37
-70 -12 -270 -7 -335 9 -363 84 -631 361 -701 725 -20 101 -16 306 7 445 76
450 343 993 730 1490 43 55 93 119 111 142 l33 43 43 -48 c24 -26 87 -105 141
-177z m-2171 -434 c196 -80 409 -182 567 -271 l111 -63 -52 -156 c-58 -175
-97 -337 -120 -504 -9 -61 -17 -113 -18 -114 -1 -1 -42 15 -92 36 -156 68
-376 131 -574 167 l-100 19 5 190 c3 104 7 206 9 225 2 19 7 71 11 114 4 43 8
86 10 95 1 9 6 43 9 76 4 33 9 71 11 85 3 14 7 39 9 55 14 97 19 115 30 115 7
0 90 -31 184 -69z m4183 52 c0 -10 2 -25 4 -33 4 -23 13 -80 21 -135 3 -27 8
-58 9 -67 2 -9 7 -48 10 -85 4 -37 9 -75 10 -85 7 -37 19 -272 19 -398 l1
-134 -45 -9 c-239 -44 -460 -107 -624 -178 -50 -21 -91 -37 -92 -36 -1 1 -7
36 -13 77 -18 133 -22 153 -48 270 -14 63 -48 186 -77 272 l-53 157 166 90
c179 97 340 173 546 257 143 58 165 63 166 37z m-4791 -1507 c14 -2 57 -7 95
-11 340 -32 702 -146 919 -289 244 -163 397 -450 398 -746 1 -250 -81 -458
-247 -626 -183 -187 -397 -276 -660 -276 -96 0 -140 5 -216 25 -502 130 -1050
782 -1403 1668 -36 91 -66 170 -66 177 0 6 21 14 48 18 26 3 54 8 64 10 9 1
38 5 65 9 26 4 58 8 71 10 13 2 53 7 90 11 37 3 75 8 86 10 10 2 73 6 140 10
66 3 122 8 124 9 5 5 465 -3 492 -9z m5830 0 c19 -2 71 -7 115 -11 44 -3 94
-8 110 -10 84 -11 109 -15 213 -30 61 -10 112 -22 112 -27 0 -17 -104 -275
-165 -408 -304 -669 -728 -1182 -1139 -1375 -476 -225 -1035 -6 -1231 483 -63
155 -75 374 -32 543 64 245 219 448 442 576 165 95 438 189 630 217 23 4 51 8
64 11 13 2 49 7 80 11 31 3 64 8 73 9 9 2 59 7 110 11 51 3 94 8 96 9 5 4 481
-4 522 -9z m-3044 -1371 c332 -69 613 -341 693 -672 28 -116 27 -320 -3 -433
-68 -263 -238 -470 -482 -592 -129 -64 -233 -86 -394 -86 -157 0 -249 18 -366
72 -210 97 -362 250 -458 458 -53 115 -67 179 -73 335 -5 123 -3 156 16 237
75 324 335 590 655 671 116 29 296 33 412 10z m-3721 -387 c95 -121 320 -337
473 -452 l63 -48 -38 -26 c-121 -81 -355 -300 -479 -447 -32 -38 -60 -72 -61
-74 -4 -6 -206 117 -333 202 -158 106 -444 322 -453 342 -6 12 153 141 338
273 124 89 430 283 444 282 4 -1 24 -24 46 -52z m7265 -35 c191 -117 413 -274
573 -406 l68 -56 -68 -56 c-167 -139 -426 -321 -625 -439 l-97 -58 -28 33
c-144 174 -339 361 -496 478 l-57 42 77 58 c153 113 348 302 465 448 20 26 39
40 48 37 8 -3 71 -40 140 -81z m-5650 -784 c357 -66 637 -336 714 -689 56
-256 -7 -533 -171 -747 -196 -257 -559 -416 -1118 -488 -193 -25 -730 -25
-861 -1 -11 2 -50 7 -87 11 -37 3 -76 8 -85 10 -9 1 -39 6 -67 9 -55 8 -112
17 -135 21 -8 2 -23 4 -32 4 -10 1 -18 7 -18 14 0 18 97 259 161 399 263 579
617 1047 975 1289 237 159 473 214 724 168z m4145 6 c425 -56 917 -530 1285
-1239 100 -194 270 -585 270 -622 0 -6 -21 -15 -46 -19 -25 -3 -54 -8 -63 -10
-10 -2 -42 -6 -71 -10 -29 -4 -61 -8 -71 -10 -10 -2 -49 -7 -86 -10 -37 -4
-79 -8 -92 -10 -154 -25 -692 -25 -853 0 -13 2 -45 6 -73 10 -98 13 -121 17
-220 37 -207 42 -477 147 -612 239 -122 83 -218 186 -286 305 -196 347 -148
781 116 1062 141 149 353 259 539 278 35 3 64 8 66 9 4 4 151 -3 197 -10z
m-2112 -1199 c90 -7 248 -62 348 -122 219 -132 368 -344 424 -604 15 -65 15
-356 1 -425 -52 -257 -98 -408 -191 -621 -95 -217 -201 -405 -368 -653 -94
-140 -247 -343 -300 -398 l-30 -32 -54 66 c-263 321 -497 694 -638 1017 -93
213 -139 364 -191 621 -14 69 -14 360 1 425 87 403 416 701 805 729 52 3 102
5 110 4 8 -1 45 -4 83 -7z m-1612 -1103 c0 -10 2 -25 3 -33 2 -8 6 -40 10 -70
18 -148 80 -395 141 -565 l33 -91 -32 -18 c-121 -70 -308 -167 -420 -218 -136
-62 -397 -168 -414 -168 -8 0 -22 76 -47 250 -6 46 -14 114 -20 185 -4 39 -8
90 -10 114 -3 24 -7 125 -10 226 l-6 182 78 13 c183 29 479 115 617 180 74 34
76 35 77 13z m3065 -9 c163 -73 397 -143 604 -180 l101 -19 -6 -179 c-3 -99
-8 -205 -10 -236 -11 -127 -25 -265 -30 -290 -2 -9 -7 -43 -11 -75 -4 -33 -8
-62 -9 -65 -1 -3 -5 -29 -9 -57 -4 -29 -12 -53 -18 -53 -15 0 -219 81 -353
141 -131 58 -342 164 -446 225 l-67 39 25 65 c61 163 134 453 149 595 4 33 8
67 10 75 1 8 3 21 3 28 1 16 -1 16 67 -14z"/>
</g>
</svg>
