<svg viewBox="0 0 512 512" xmlns="http://www.w3.org/2000/svg"><g><g><g><path fill="currentColor" d="m256 434.063c-98.469 0-178.58-80.11-178.58-178.58 0-98.469 80.11-178.579 178.58-178.579 98.469 0 178.579 80.11 178.579 178.579s-80.11 178.58-178.579 178.58zm0-341.159c-89.646 0-162.58 72.933-162.58 162.579 0 89.647 72.933 162.58 162.58 162.58s162.579-72.933 162.579-162.58-72.933-162.579-162.579-162.579z"/></g><g><path fill="currentColor" d="m180.327 81.316c-.806 0-1.625-.123-2.435-.381-4.209-1.343-6.532-5.845-5.188-10.054 12.78-40.04 77.446-67.664 80.192-68.82 1.984-.836 4.222-.836 6.208 0 2.746 1.156 67.412 28.78 80.191 68.82 1.344 4.209-.979 8.71-5.188 10.054-4.21 1.343-8.711-.979-10.054-5.188-8.267-25.9-49.268-49.069-68.018-57.563-12.453 5.75-58.935 28.879-68.09 57.563-1.084 3.4-4.231 5.569-7.618 5.569z"/></g><g><path fill="currentColor" d="m256 510.564c-1.056 0-2.112-.209-3.104-.627-2.747-1.156-67.413-28.78-80.192-68.819-1.344-4.209.979-8.71 5.188-10.054 4.208-1.342 8.71.979 10.054 5.188 8.267 25.9 49.268 49.069 68.018 57.563 12.452-5.75 58.935-28.879 68.09-57.563 1.343-4.21 5.838-6.536 10.054-5.188 4.209 1.343 6.532 5.845 5.188 10.054-12.779 40.039-77.445 67.663-80.191 68.819-.994.418-2.049.627-3.105.627z"/></g><g><path fill="currentColor" d="m417.707 209.023c-2.685 0-5.306-1.35-6.817-3.802-2.319-3.761-1.15-8.689 2.611-11.008 4.552-2.807 8.809-6.179 12.652-10.023 2.112-2.112 3.936-4.645 5.419-7.526 13.806-26.753-2.771-76.136-7.428-88.808-12.667-4.656-62.051-21.237-88.801-7.431-2.89 1.487-5.422 3.311-7.533 5.422-.271.271-.562.522-.868.751l-16.242 12.139c-3.538 2.645-8.552 1.92-11.197-1.618-2.645-3.539-1.92-8.552 1.619-11.197l15.805-11.813c3.191-3.102 6.918-5.76 11.086-7.906 35.978-18.563 98.025 5.136 104.981 7.9 2.234.888 4.022 2.678 4.907 4.912 2.76 6.949 26.459 69 7.894 104.98-2.239 4.35-5.042 8.225-8.327 11.51-4.723 4.723-9.961 8.871-15.57 12.329-1.309.805-2.759 1.189-4.191 1.189z"/></g><g><path fill="currentColor" d="m149.777 452.852c-33.556 0-69.117-14.276-71.138-15.101-1.995-.813-3.577-2.395-4.39-4.39-1.125-2.76-27.314-68.011-8.044-105.355 2.24-4.351 5.043-8.225 8.328-11.51 4.819-4.818 10.164-9.034 15.887-12.53 3.77-2.307 8.693-1.115 10.998 2.655 2.304 3.771 1.115 8.694-2.656 10.997-4.645 2.838-8.99 6.268-12.915 10.192-2.112 2.111-3.935 4.644-5.419 7.526-12.468 24.162.14 69.532 7.391 88.794 12.87 4.738 62.085 21.249 88.838 7.445 2.889-1.487 5.421-3.311 7.533-5.423 3.993-3.992 7.471-8.421 10.338-13.163 2.286-3.78 7.204-4.995 10.985-2.706 3.781 2.286 4.993 7.204 2.707 10.985-3.534 5.844-7.812 11.294-12.716 16.198-3.285 3.285-7.16 6.088-11.517 8.331-9.982 5.152-21.966 7.055-34.21 7.055z"/></g><g><path fill="currentColor" d="m438.684 339.677c-3.388 0-6.534-2.169-7.619-5.569-1.344-4.209.979-8.711 5.188-10.054 25.9-8.267 49.069-49.268 57.563-68.018-5.75-12.453-28.879-58.935-57.563-68.09-4.209-1.343-6.532-5.845-5.188-10.054 1.343-4.208 5.845-6.535 10.054-5.188 40.039 12.78 67.663 77.446 68.819 80.192.836 1.985.836 4.223 0 6.208-1.156 2.746-28.78 67.412-68.819 80.191-.809.259-1.63.382-2.435.382z"/></g><g><path fill="currentColor" d="m73.316 339.677c-.806 0-1.625-.122-2.435-.381-40.04-12.779-67.664-77.445-68.82-80.191-.836-1.985-.836-4.224 0-6.208 1.156-2.747 28.78-67.413 68.82-80.192 4.212-1.345 8.711.979 10.054 5.188 1.344 4.209-.979 8.71-5.188 10.054-25.9 8.267-49.069 49.268-57.563 68.018 5.75 12.452 28.879 58.935 57.563 68.09 4.209 1.343 6.532 5.845 5.188 10.054-1.084 3.398-4.231 5.568-7.619 5.568z"/></g><g><path fill="currentColor" d="m362.225 452.851c-12.251 0-24.23-1.902-34.219-7.056-4.351-2.24-8.225-5.043-11.51-8.327-4.902-4.903-9.181-10.354-12.715-16.198-2.286-3.781-1.074-8.699 2.706-10.985 3.785-2.286 8.701-1.073 10.985 2.706 2.868 4.743 6.346 9.172 10.338 13.163 2.111 2.112 4.644 3.936 7.526 5.42 26.73 13.793 75.873-2.67 88.808-7.429 4.758-12.928 21.223-62.074 7.432-88.801-1.487-2.89-3.311-5.422-5.423-7.533-3.926-3.926-8.271-7.355-12.915-10.191-3.771-2.304-4.959-7.228-2.656-10.998 2.305-3.77 7.229-4.958 10.998-2.656 5.721 3.496 11.066 7.712 15.887 12.531 3.285 3.285 6.088 7.159 8.331 11.517 19.267 37.338-6.922 102.589-8.047 105.349-.813 1.995-2.395 3.577-4.39 4.39-2.021.822-37.582 15.096-71.136 15.098z"/></g><g><path fill="currentColor" d="m94.293 209.023c-1.432 0-2.882-.384-4.19-1.191-5.609-3.458-10.848-7.606-15.57-12.329-3.285-3.285-6.088-7.16-8.331-11.517-19.267-37.337 6.923-102.588 8.047-105.347.813-1.995 2.396-3.577 4.39-4.39 2.759-1.125 68.009-27.315 105.354-8.044.142.073.282.151.42.233l29.938 17.799c3.798 2.258 5.046 7.167 2.788 10.965s-7.167 5.046-10.965 2.788l-29.722-17.67c-26.77-13.604-75.695 2.789-88.598 7.536-4.757 12.928-21.223 62.075-7.432 88.801 1.487 2.889 3.31 5.421 5.422 7.533 3.845 3.844 8.102 7.216 12.653 10.022 3.761 2.319 4.93 7.248 2.611 11.008-1.509 2.453-4.13 3.803-6.815 3.803z"/></g><g><path fill="currentColor" d="m256 294.497c-21.513 0-39.015-17.502-39.015-39.014 0-21.513 17.502-39.014 39.015-39.014s39.015 17.501 39.015 39.014c0 21.512-17.502 39.014-39.015 39.014zm0-62.028c-12.69 0-23.015 10.324-23.015 23.014s10.325 23.014 23.015 23.014 23.015-10.324 23.015-23.014-10.325-23.014-23.015-23.014z"/></g><g><path fill="currentColor" d="m223.767 371.107c-1.673 0-3.365-.246-5.072-.8-9.352-3.036-13.008-12.956-16.235-21.709-1.579-4.284-3.742-10.151-5.699-11.575-2.021-1.472-8.336-1.729-12.947-1.915-9.254-.376-19.744-.802-25.464-8.662-5.674-7.798-2.867-17.851-.391-26.72 1.252-4.486 2.968-10.63 2.168-13.092-.712-2.192-5.544-5.996-9.073-8.773-7.386-5.813-15.758-12.403-15.758-22.378s8.372-16.565 15.758-22.379c3.528-2.777 8.361-6.581 9.073-8.773.8-2.462-.916-8.606-2.168-13.092-2.476-8.87-5.283-18.922.392-26.719 5.721-7.86 16.21-8.287 25.464-8.663 4.611-.187 10.926-.444 12.947-1.915 1.958-1.425 4.12-7.292 5.699-11.575 3.226-8.752 6.883-18.672 16.234-21.708 9.047-2.938 17.658 2.788 25.254 7.838 4.159 2.765 9.334 6.207 12.051 6.207 2.718 0 7.893-3.441 12.052-6.206 7.597-5.051 16.208-10.775 25.254-7.838 9.352 3.037 13.008 12.957 16.234 21.709 1.579 4.284 3.742 10.15 5.699 11.575 2.021 1.471 8.336 1.728 12.947 1.915 9.254.376 19.743.802 25.465 8.663 5.674 7.797 2.866 17.85.391 26.719-1.253 4.486-2.968 10.629-2.168 13.091.712 2.193 5.544 5.996 9.072 8.773 7.387 5.813 15.759 12.403 15.759 22.378s-8.372 16.565-15.759 22.378c-3.528 2.778-8.36 6.582-9.072 8.774-.8 2.462.915 8.605 2.168 13.091 2.476 8.87 5.282 18.924-.392 26.721-5.722 7.86-16.21 8.286-25.465 8.662-4.61.187-10.926.443-12.946 1.914-1.958 1.425-4.121 7.292-5.7 11.576-3.227 8.752-6.883 18.672-16.233 21.708-9.049 2.935-17.658-2.787-25.255-7.838-4.158-2.765-9.334-6.206-12.051-6.206s-7.893 3.441-12.052 6.206c-6.162 4.097-12.992 8.638-20.181 8.638zm.16-215.259c-.109 0-.208.01-.298.031-1.959.636-4.689 8.043-6.156 12.022-2.664 7.227-5.418 14.7-11.296 18.978-5.942 4.324-13.96 4.65-21.713 4.965-3.898.159-12.01.488-13.177 2.091-1.118 1.537 1.044 9.28 2.083 13.002 2.097 7.512 4.266 15.28 1.975 22.335-2.213 6.817-8.406 11.691-14.395 16.405-3.374 2.656-9.654 7.599-9.654 9.806 0 2.208 6.28 7.15 9.654 9.806 5.988 4.714 12.181 9.588 14.395 16.404 2.291 7.056.122 14.823-1.976 22.336-1.039 3.721-3.201 11.465-2.083 13.002 1.167 1.603 9.278 1.932 13.176 2.09 7.754.315 15.771.641 21.713 4.966 5.878 4.277 8.633 11.751 11.297 18.978 1.467 3.979 4.197 11.387 6.163 12.024 1.858.422 8.34-3.873 11.455-5.943 6.568-4.366 13.359-8.882 20.91-8.882s14.342 4.516 20.909 8.882c3.115 2.07 9.605 6.388 11.462 5.941 1.958-.636 4.688-8.042 6.155-12.021 2.664-7.228 5.419-14.701 11.298-18.979 5.941-4.324 13.959-4.649 21.713-4.965 3.897-.158 12.01-.487 13.176-2.091 1.119-1.536-1.043-9.28-2.082-13.002-2.097-7.512-4.266-15.279-1.976-22.335 2.214-6.816 8.406-11.691 14.396-16.405 3.374-2.655 9.654-7.599 9.654-9.806s-6.28-7.15-9.654-9.806c-5.989-4.714-12.182-9.588-14.396-16.405-2.29-7.055-.121-14.823 1.976-22.335 1.039-3.721 3.201-11.465 2.083-13.002-1.166-1.603-9.278-1.932-13.177-2.09-7.754-.315-15.771-.641-21.714-4.965-5.877-4.278-8.632-11.75-11.296-18.978-1.467-3.979-4.197-11.387-6.163-12.025-1.853-.434-8.34 3.873-11.454 5.944-6.567 4.367-13.359 8.882-20.91 8.882s-14.342-4.516-20.91-8.883c-2.965-1.971-8.983-5.972-11.163-5.972z"/></g></g></g><g/></svg>