<svg xmlns="http://www.w3.org/2000/svg" viewBox="0 0 1024 1024">
<g transform="translate(0,1024) scale(0.1,-0.1)">
<path fill="currentColor" d="M4969 10236 c-2 -2 -31 -7 -64 -11 -305 -34 -628 -175 -899 -393 -52
-42 -96 -70 -105 -68 -166 48 -567 56 -772 15 -30 -5 -65 -12 -79 -15 -56 -11
-179 -48 -260 -79 -445 -170 -799 -499 -1025 -955 -43 -86 -103 -233 -128
-311 -3 -9 -40 -35 -83 -58 -136 -74 -216 -133 -319 -236 -180 -180 -295 -388
-359 -645 -34 -142 -41 -200 -41 -375 0 -158 6 -228 29 -340 18 -88 67 -243
111 -352 l18 -42 -51 -113 c-73 -166 -130 -365 -148 -523 -3 -33 -8 -69 -10
-80 -6 -27 -6 -324 0 -355 2 -14 7 -50 11 -81 3 -31 8 -67 10 -80 3 -13 7 -35
10 -49 23 -126 84 -307 147 -439 93 -194 192 -335 347 -491 l104 -105 13 -70
c12 -69 19 -101 28 -140 16 -71 75 -234 113 -315 76 -159 164 -283 292 -410
236 -235 522 -375 851 -418 60 -8 327 -9 400 -2 45 4 45 4 125 -76 216 -215
475 -349 735 -380 64 -7 71 -10 65 -27 -2 -7 -6 -34 -9 -62 -3 -27 -8 -60 -10
-71 -2 -12 -7 -38 -10 -58 -3 -19 -10 -55 -15 -78 -6 -24 -12 -57 -15 -75 -4
-17 -22 -87 -41 -155 -97 -338 -210 -574 -402 -834 -129 -175 -161 -261 -150
-404 18 -225 169 -408 382 -464 53 -14 211 -16 1355 -16 1416 0 1339 -3 1465
59 105 52 203 166 246 286 13 37 22 92 25 145 6 150 -21 220 -149 394 -187
253 -306 498 -397 814 -41 142 -90 388 -106 524 -3 29 -7 64 -10 78 -26 167
-26 814 0 1075 2 17 7 64 11 105 4 41 8 76 9 77 1 1 15 4 31 7 17 3 42 8 56
11 142 27 380 141 504 242 71 58 190 183 235 249 64 93 76 137 53 194 -45 110
-180 153 -262 84 -16 -14 -50 -53 -75 -88 -90 -126 -238 -240 -392 -302 -46
-19 -86 -34 -90 -34 -11 0 31 240 78 440 11 47 22 98 25 114 13 75 122 453
198 685 46 141 87 270 90 286 7 42 7 152 0 200 -31 189 -195 374 -390 440 -77
26 -84 27 -185 31 -167 6 -286 -41 -405 -161 -58 -58 -113 -138 -314 -457
-134 -214 -247 -388 -251 -388 -4 0 -117 174 -251 387 -141 224 -266 411 -297
444 -104 113 -228 169 -382 175 -180 6 -323 -49 -451 -176 -116 -114 -170
-236 -170 -385 1 -115 3 -126 76 -330 113 -316 261 -881 308 -1180 3 -16 10
-57 15 -90 6 -33 14 -78 17 -100 3 -23 7 -50 9 -60 2 -11 7 -41 10 -67 3 -27
9 -69 12 -95 3 -27 8 -55 9 -64 2 -9 6 -52 10 -95 4 -43 9 -87 11 -96 10 -58
19 -281 19 -518 l0 -275 -36 -1 c-59 -2 -177 33 -274 80 -134 66 -262 169
-361 293 -54 66 -56 68 -94 88 -35 18 -93 17 -235 -4 -63 -9 -285 -7 -345 4
-404 71 -711 313 -869 684 -23 56 -68 195 -76 241 -3 14 -7 36 -10 50 -3 14
-8 50 -11 80 -11 105 -22 130 -82 184 -177 161 -269 270 -356 422 -89 156
-156 353 -182 534 -3 19 -7 51 -10 70 -14 99 -5 317 17 440 6 30 13 68 16 85
13 73 78 247 138 369 42 86 65 144 65 166 0 21 -18 72 -44 127 -58 118 -91
216 -122 358 -20 90 -25 320 -11 427 51 374 277 675 611 813 98 41 118 65 161
197 178 539 519 913 991 1087 168 61 318 86 524 86 173 0 258 -9 403 -44 80
-19 143 -19 178 -1 11 7 60 48 107 91 221 206 486 332 787 376 65 10 273 10
350 0 208 -25 422 -108 611 -236 90 -61 109 -76 215 -176 60 -55 113 -79 159
-70 14 3 48 9 76 15 28 6 61 13 75 15 13 3 35 7 49 10 102 20 367 27 482 13
375 -48 713 -228 963 -514 165 -189 283 -407 370 -683 30 -94 60 -129 141
-161 241 -97 422 -270 529 -504 33 -73 61 -155 71 -212 3 -15 7 -30 9 -34 18
-29 26 -314 13 -420 -19 -138 -68 -297 -135 -434 -26 -55 -43 -103 -43 -126 0
-24 20 -76 60 -157 82 -166 131 -304 154 -433 10 -58 16 -97 21 -135 7 -46 7
-298 1 -335 -3 -14 -7 -45 -10 -70 -3 -25 -17 -91 -31 -147 -74 -306 -241
-581 -466 -769 -44 -36 -86 -79 -94 -95 -8 -15 -20 -63 -26 -106 -33 -246 -98
-427 -217 -608 -59 -89 -196 -227 -289 -288 -140 -93 -330 -165 -488 -184 -75
-10 -275 -10 -335 -1 -25 4 -77 10 -115 14 -91 8 -122 -7 -200 -101 -76 -90
-144 -156 -223 -212 -95 -69 -123 -143 -87 -231 41 -97 161 -130 253 -70 71
47 190 148 243 206 51 56 53 57 98 52 125 -12 380 -4 486 15 444 84 819 362
1033 765 76 144 146 360 167 518 7 51 12 58 82 125 211 202 369 453 463 733
40 121 73 262 85 359 3 28 8 66 11 85 6 41 6 326 0 355 -2 11 -7 47 -11 80
-18 160 -80 377 -154 539 -23 48 -41 93 -41 98 0 6 15 49 34 97 38 93 84 245
92 301 3 19 7 41 9 48 20 57 27 381 12 497 -41 307 -184 604 -391 811 -91 92
-187 163 -304 226 -52 28 -96 58 -99 67 -209 654 -691 1142 -1302 1315 -75 21
-115 31 -221 51 -140 28 -491 27 -630 0 -14 -3 -45 -8 -70 -11 -25 -3 -49 -8
-53 -11 -4 -3 -25 10 -46 29 -74 65 -97 83 -189 145 -202 137 -484 251 -690
279 -26 3 -56 8 -67 11 -24 6 -361 14 -366 9z m-704 -4486 c25 -12 57 -38 73
-58 16 -20 170 -261 343 -535 276 -439 319 -502 355 -523 82 -48 177 -21 236
69 19 29 162 255 318 502 156 248 295 465 308 483 14 18 46 45 71 60 94 55
234 26 306 -63 61 -75 70 -156 28 -253 -110 -253 -308 -1006 -368 -1397 -8
-55 -15 -96 -20 -125 -3 -14 -7 -47 -11 -75 -3 -27 -8 -57 -9 -65 -2 -9 -6
-43 -10 -75 -4 -33 -8 -71 -10 -85 -2 -14 -7 -56 -11 -95 -4 -38 -8 -83 -10
-100 -1 -16 -6 -77 -9 -135 -4 -58 -9 -121 -11 -140 -5 -47 -5 -543 0 -600 2
-25 7 -90 11 -144 4 -55 8 -109 10 -120 2 -12 6 -48 10 -81 11 -104 53 -335
85 -465 100 -410 264 -764 494 -1065 69 -90 83 -131 66 -194 -13 -51 -43 -87
-91 -111 -37 -20 -61 -20 -1312 -17 l-1274 2 -36 28 c-60 46 -80 102 -68 193
0 6 36 59 80 117 238 318 396 670 496 1107 13 58 26 119 29 135 3 17 8 39 10
50 2 11 7 42 10 68 4 27 9 56 11 65 1 10 6 46 10 82 4 36 8 72 10 80 2 9 6 60
10 115 4 55 9 120 11 145 5 56 5 527 0 595 -2 28 -7 99 -11 159 -3 60 -8 116
-10 125 -1 9 -6 52 -10 95 -4 43 -8 86 -10 95 -1 9 -6 41 -9 72 -4 31 -8 65
-10 75 -2 11 -7 42 -10 69 -8 57 -16 108 -22 138 -2 12 -6 39 -9 62 -4 22 -20
108 -36 190 -17 83 -32 161 -35 175 -3 14 -7 33 -10 42 -3 10 -7 30 -10 45
-32 179 -197 754 -278 966 -44 114 -31 193 45 269 78 78 185 96 284 48z M4039
8786 c-2 -2 -22 -7 -44 -10 -151 -23 -333 -119 -439 -230 -138 -146 -208 -324
-210 -531 -1 -161 9 -215 71 -365 20 -46 41 -104 48 -128 16 -51 17 -208 3
-260 -16 -57 -16 -181 -1 -241 54 -207 238 -344 462 -344 97 0 134 7 242 43
264 88 475 263 622 514 74 128 141 320 162 471 23 165 9 365 -37 514 -86 278
-284 469 -568 548 -50 13 -300 29 -311 19z m236 -351 c351 -91 462 -595 226
-1025 -56 -104 -193 -246 -291 -303 -79 -46 -208 -88 -271 -89 -109 0 -162 66
-138 172 11 44 21 140 23 205 4 111 -11 171 -104 424 -68 187 -34 360 97 489
125 123 293 169 458 127z M7607 7113 c-188 -32 -374 -148 -476 -296 -83 -122
-122 -245 -126 -404 -4 -130 8 -196 62 -328 19 -49 41 -112 49 -139 14 -52 12
-159 -5 -241 -30 -153 19 -309 128 -408 165 -148 416 -154 681 -16 313 163
539 508 577 879 49 474 -167 840 -552 940 -98 26 -235 31 -338 13z m278 -348
c232 -80 333 -364 249 -700 -25 -100 -107 -255 -175 -329 -109 -119 -292 -216
-407 -216 -48 0 -102 33 -104 62 0 13 -2 30 -2 38 -1 8 4 44 11 80 7 36 11
116 9 180 -3 93 -8 128 -29 185 -92 251 -95 262 -92 337 4 101 34 175 100 246
115 124 286 170 440 117z M2365 5821 c-313 -77 -510 -338 -499 -660 3 -93 18
-154 62 -261 32 -76 35 -95 35 -175 0 -49 -3 -129 -6 -177 -10 -136 29 -237
120 -318 150 -132 365 -139 602 -21 261 132 453 402 509 716 15 83 7 326 -12
400 -65 244 -210 405 -435 482 -99 34 -269 41 -376 14z m271 -337 c71 -22 135
-79 173 -155 41 -83 54 -156 48 -269 -13 -238 -143 -453 -330 -545 -155 -76
-248 -64 -231 29 34 188 26 277 -43 459 -71 191 -60 290 47 398 89 90 215 121
336 83z"/>
</g>
</svg>
