<svg xmlns="http://www.w3.org/2000/svg" viewBox="0 0 1024 1024">
<g transform="translate(0,1024) scale(0.1,-0.1)">
<path fill="currentColor" d="M2050 10235 c0 -17 266 -533 315 -610 333 -530 885 -902 1490 -1004
33 -5 76 -13 95 -17 19 -4 280 -9 580 -11 300 -2 571 -4 602 -6 l57 -2 -142
-85 c-132 -78 -571 -369 -697 -460 l-55 -40 -120 54 c-155 69 -354 135 -490
162 -11 2 -31 6 -45 9 -14 3 -45 8 -70 11 -25 3 -54 8 -65 11 -38 8 -300 11
-355 3 -120 -17 -145 -22 -229 -46 -242 -71 -446 -197 -662 -413 -288 -287
-477 -582 -924 -1436 -408 -779 -663 -1095 -970 -1200 -69 -23 -79 -25 -165
-32 -93 -7 -146 -33 -178 -88 -21 -36 -23 -49 -18 -125 15 -245 108 -514 246
-714 200 -290 559 -496 943 -542 29 -4 59 -8 67 -10 8 -1 29 -3 46 -3 l32 -1
-7 -62 c-13 -132 -5 -476 14 -588 2 -14 6 -43 9 -65 4 -22 8 -51 11 -65 2 -14
7 -36 9 -50 21 -122 90 -376 144 -526 194 -541 504 -1074 921 -1584 222 -272
425 -447 646 -558 93 -46 227 -95 305 -111 30 -6 69 -13 85 -17 17 -3 93 -8
170 -9 238 -6 455 47 685 166 138 71 226 138 246 184 28 68 20 104 -51 209
-42 64 -74 125 -92 179 -25 76 -27 95 -27 247 -1 178 8 237 66 445 39 143 102
316 195 541 l74 182 107 -61 c288 -164 674 -318 1047 -421 72 -19 141 -38 155
-40 255 -56 352 -76 385 -80 22 -4 50 -8 62 -10 11 -3 43 -8 70 -12 26 -3 56
-8 67 -10 10 -2 44 -6 75 -10 31 -3 64 -8 74 -10 134 -25 555 -25 628 0 8 3
30 7 49 10 65 9 214 57 307 98 379 166 678 548 768 985 19 90 14 135 -21 181
-31 39 -66 58 -124 67 -231 32 -427 185 -600 469 -125 206 -219 421 -450 1036
-151 399 -229 589 -326 790 -251 518 -540 847 -886 1010 -47 22 -91 40 -97 40
-6 0 -11 2 -11 4 0 3 60 94 133 203 208 308 388 609 562 940 27 51 50 91 51
90 1 -1 5 -69 9 -152 6 -154 7 -167 19 -270 10 -87 19 -142 41 -247 176 -837
692 -1549 1436 -1986 105 -61 229 -121 414 -200 204 -87 306 -143 485 -263
236 -159 416 -331 653 -625 162 -201 185 -220 267 -212 61 6 107 39 132 95 18
40 19 60 13 206 -13 369 -15 419 -20 567 -3 85 -7 211 -10 280 -3 69 -7 195
-10 280 -14 415 -22 564 -30 620 -2 14 -7 49 -10 79 -4 30 -9 63 -11 75 -2 11
-6 38 -9 61 -4 22 -18 92 -32 155 -104 471 -329 939 -632 1315 -90 112 -118
143 -256 280 -347 346 -758 602 -1227 764 -125 43 -367 106 -445 117 -27 3
-50 8 -53 9 -3 2 -26 6 -50 10 -25 3 -56 8 -70 10 -14 2 -56 7 -95 11 -38 3
-71 7 -72 8 -1 1 22 76 52 166 30 91 70 227 90 303 37 140 41 159 50 212 3 17
7 41 10 55 3 14 7 41 10 60 4 19 9 38 13 42 24 25 912 304 1086 343 11 2 116
28 231 58 116 29 212 54 215 54 3 0 19 3 35 7 17 3 39 8 50 11 11 2 61 13 110
24 50 11 106 23 125 26 19 3 42 8 50 10 8 2 29 7 45 10 28 4 42 7 105 20 14 2
36 6 50 9 14 2 52 9 85 15 108 19 119 21 165 27 25 3 54 8 65 10 11 2 40 7 65
10 25 3 52 7 60 9 8 1 39 6 68 10 l54 7 -6 59 c-3 32 -9 87 -12 122 -4 34 -8
69 -10 77 -1 8 -3 28 -3 43 -1 27 -2 28 -43 22 -24 -3 -61 -8 -83 -11 -66 -9
-162 -23 -200 -30 -10 -2 -35 -6 -55 -9 -20 -3 -47 -8 -60 -10 -14 -3 -45 -8
-70 -11 -25 -3 -47 -8 -50 -9 -3 -2 -26 -6 -50 -10 -25 -4 -99 -18 -165 -31
-66 -14 -131 -28 -145 -30 -14 -3 -45 -10 -70 -15 -25 -6 -56 -13 -70 -15 -14
-3 -81 -19 -150 -35 -69 -17 -132 -32 -140 -34 -82 -18 -336 -86 -506 -134
-692 -197 -1374 -450 -2031 -754 l-162 -75 -40 71 c-298 541 -808 934 -1402
1081 -110 27 -137 32 -209 42 -25 3 -56 8 -70 12 -32 8 -2240 15 -2240 7z
m2235 -339 c311 -57 521 -132 737 -263 252 -154 485 -395 643 -666 l28 -48
-844 4 c-464 2 -855 6 -869 10 -14 4 -45 10 -70 13 -25 3 -48 8 -51 10 -4 2
-23 6 -43 10 -47 7 -172 45 -256 77 -396 150 -737 444 -954 820 l-28 48 834
-4 c458 -2 851 -7 873 -11z m2770 -818 c-10 -55 -76 -283 -122 -418 -171 -501
-489 -1166 -821 -1715 -91 -151 -322 -500 -400 -605 l-48 -65 -140 -1 c-76 -1
-162 -4 -190 -7 l-52 -7 1 148 c1 135 -5 238 -18 302 -2 13 -7 41 -10 62 -11
71 -46 193 -86 293 -82 209 -198 383 -369 555 -63 64 -134 131 -158 149 -34
27 -40 37 -31 48 21 24 436 296 644 420 486 292 1044 569 1625 809 96 40 177
73 178 73 2 1 1 -18 -3 -41z m198 -1003 c37 -3 76 -8 85 -10 9 -1 37 -6 62 -9
25 -3 56 -8 70 -11 14 -3 38 -8 53 -10 94 -18 317 -82 435 -126 771 -288 1378
-881 1688 -1651 67 -168 140 -423 159 -558 4 -24 8 -47 10 -50 2 -3 6 -34 10
-70 4 -36 8 -72 10 -81 8 -40 17 -233 30 -609 3 -91 8 -214 10 -275 10 -265
17 -485 13 -485 -1 0 -55 51 -118 113 -299 292 -569 467 -1019 661 -366 158
-613 325 -881 595 -289 291 -492 619 -624 1004 -36 106 -90 312 -101 386 -3
20 -7 47 -10 60 -2 13 -7 49 -10 80 -4 31 -9 67 -12 81 -3 14 -8 240 -10 502
l-5 477 43 -4 c24 -2 75 -6 112 -10z m-3758 -160 c223 -43 333 -74 487 -139
446 -186 759 -496 901 -891 22 -61 31 -98 52 -205 19 -93 23 -260 12 -430 -8
-115 -11 -137 -32 -255 -22 -120 -22 -121 -51 -219 -206 -717 -790 -1251
-1704 -1558 -165 -55 -472 -135 -590 -154 -19 -3 -42 -7 -50 -9 -8 -2 -28 -6
-45 -9 -68 -10 -121 -19 -136 -21 -9 -2 -40 -6 -70 -10 -30 -3 -65 -8 -79 -10
-14 -2 -59 -7 -100 -11 -41 -3 -88 -8 -105 -10 -74 -8 -332 -18 -460 -18 -169
0 -286 9 -375 30 -14 3 -36 8 -50 11 -14 2 -59 16 -100 29 -250 84 -441 248
-552 474 -38 77 -80 197 -92 261 l-7 37 52 12 c400 96 744 467 1154 1245 31
61 72 137 90 170 18 33 63 119 100 190 318 609 523 916 771 1155 199 191 397
298 622 335 74 12 295 12 357 0z m2197 -1979 c96 -14 195 -42 285 -82 153 -67
347 -233 471 -402 198 -269 328 -542 597 -1257 258 -684 375 -935 558 -1195
74 -103 229 -261 316 -319 55 -38 187 -105 244 -125 23 -7 19 -20 -38 -143
-78 -167 -203 -319 -339 -412 -104 -72 -296 -149 -411 -166 -16 -3 -57 -9 -90
-14 -59 -9 -345 -7 -395 3 -14 2 -49 7 -78 10 -55 6 -107 13 -157 21 -16 3
-48 7 -70 10 -335 48 -772 164 -1095 292 -649 256 -1137 632 -1408 1084 -143
238 -240 524 -268 789 -4 36 -8 72 -9 80 -1 10 34 34 99 68 123 65 351 216
466 309 419 337 700 770 830 1276 20 81 40 150 42 153 8 8 48 14 128 21 41 3
76 7 78 8 5 4 202 -3 244 -9z m-2189 -2058 c22 -134 22 -135 52 -242 135 -473
390 -857 798 -1198 59 -50 107 -91 107 -93 0 -2 -30 -74 -66 -161 -157 -377
-267 -710 -298 -904 -3 -19 -9 -57 -13 -85 -10 -66 -10 -357 0 -418 11 -66 54
-202 83 -259 13 -26 24 -49 24 -52 0 -6 -147 -67 -215 -88 -60 -18 -71 -21
-175 -37 -58 -9 -237 -7 -280 3 -14 4 -41 9 -60 12 -61 10 -194 63 -275 110
-161 91 -300 215 -467 416 -486 583 -833 1229 -979 1823 -16 66 -31 131 -34
145 -20 112 -36 229 -42 305 -8 97 -8 374 0 415 3 14 6 34 6 46 1 19 7 21 74
23 39 2 95 4 122 6 138 9 223 16 246 20 13 2 55 6 92 10 37 3 76 8 85 9 9 2
40 7 67 10 63 9 96 14 165 26 30 5 71 12 90 15 19 3 42 8 50 10 8 2 29 7 47
10 143 24 684 181 743 216 30 17 36 7 53 -93z M4293 6388 c-17 -440 -155 -768
-437 -1035 -298 -282 -744 -494 -1289 -613 -132 -29 -143 -31 -227 -45 -25 -4
-53 -9 -64 -11 -10 -2 -44 -6 -75 -10 -71 -8 -73 -9 -67 -47 2 -18 10 -77 16
-132 7 -55 13 -109 15 -120 2 -11 4 -24 4 -29 1 -7 81 -3 137 8 12 3 39 7 60
10 22 4 62 11 89 16 28 5 61 11 75 14 190 33 504 124 718 208 622 244 1059
632 1243 1103 30 77 75 219 83 260 5 27 24 133 30 169 5 25 9 83 20 264 l3 42
-166 0 -166 0 -2 -52z M1789 4636 c-3 -3 -71 -6 -151 -8 -121 -2 -148 -6 -150
-18 -3 -13 -2 -256 1 -301 1 -14 19 -15 148 -12 80 2 156 5 167 7 24 4 24 10
12 206 -6 104 -14 139 -27 126z M5629 5608 c-5 -21 -13 -91 -26 -243 -3 -38
-7 -72 -10 -74 -2 -3 19 -11 47 -18 236 -60 427 -364 725 -1148 183 -485 234
-614 290 -747 32 -76 61 -138 66 -138 7 0 70 27 241 104 l57 25 -53 123 c-50
116 -95 230 -301 773 -327 859 -561 1204 -890 1313 -56 19 -144 37 -146 30z
M7045 2980 c-66 -38 -128 -74 -138 -80 -17 -10 -17 -13 4 -48 30 -51 184 -281
207 -311 l19 -23 126 101 c70 56 127 103 127 105 0 3 -25 40 -56 83 -31 43
-79 115 -107 161 -27 45 -53 82 -56 81 -3 0 -60 -32 -126 -69z M2079 3300
l-95 -5 2 -42 c23 -508 231 -1074 607 -1650 44 -67 84 -120 89 -117 79 49 253
179 252 189 -1 7 -31 57 -66 112 -327 496 -546 1083 -552 1476 0 20 -5 38 -11
38 -28 4 -140 3 -226 -1z M3016 1290 l-127 -101 100 -117 c119 -140 176 -196
189 -188 5 3 56 58 112 122 l103 115 -60 62 c-33 34 -86 94 -118 132 -32 39
-61 71 -65 73 -4 1 -64 -43 -134 -98z"/>
</g>
</svg>
