<svg xmlns="http://www.w3.org/2000/svg" viewBox="0 0 1024 1024">
<g transform="translate(0,1024) scale(0.1,-0.1)">
<path fill="currentColor" d="M4019 10235 c-2 -1 -26 -6 -54 -9 -190 -25 -338 -119 -403 -259 -46
-97 -57 -157 -57 -322 0 -175 6 -243 41 -425 22 -116 27 -107 -81 -127 -56
-10 -254 -67 -356 -102 -449 -155 -845 -398 -1160 -711 -358 -357 -663 -867
-812 -1361 -34 -111 -79 -302 -91 -381 -3 -21 -9 -55 -12 -75 -3 -21 -7 -49
-10 -63 -19 -115 -27 -583 -11 -725 19 -166 20 -176 42 -305 25 -147 88 -387
148 -565 66 -195 138 -365 259 -615 335 -687 465 -1084 505 -1540 13 -150 7
-470 -11 -566 -2 -10 -7 -44 -11 -74 -8 -61 -10 -73 -25 -145 -6 -27 -12 -60
-15 -73 -2 -13 -27 -108 -54 -210 -28 -103 -53 -205 -57 -227 -3 -22 -7 -42
-9 -45 -18 -29 -27 -357 -13 -455 31 -212 144 -440 279 -559 172 -151 426
-252 709 -283 137 -15 505 -8 606 11 10 2 42 7 69 11 187 25 512 110 728 191
931 348 1738 996 2290 1839 350 534 605 1173 722 1810 10 50 19 99 21 110 2
11 7 40 10 65 3 25 7 52 9 60 2 8 7 42 11 75 3 33 8 67 9 76 2 9 6 52 10 95 4
43 9 87 10 96 12 59 20 341 19 626 -1 275 1 332 13 328 12 -5 308 -70 363 -79
163 -30 232 -41 310 -52 42 -6 58 -8 128 -19 15 -3 54 -8 87 -12 33 -3 67 -8
76 -9 9 -2 52 -6 95 -10 43 -4 86 -9 95 -10 8 -2 55 -6 105 -10 49 -4 105 -9
124 -10 38 -4 253 -16 335 -20 57 -2 111 14 155 46 39 29 80 112 80 161 0 97
-155 683 -280 1058 -492 1480 -1252 2453 -2230 2853 -75 31 -284 102 -332 113
-10 2 -28 6 -40 10 -13 3 -34 7 -48 10 -13 3 -54 11 -90 19 -36 8 -88 17 -116
21 -27 3 -56 8 -65 9 -139 27 -619 27 -779 1 -14 -3 -45 -7 -70 -10 -25 -3
-56 -8 -70 -11 -13 -2 -42 -7 -65 -10 -22 -4 -80 -15 -130 -26 -49 -11 -101
-22 -114 -25 -14 -3 -29 -8 -34 -11 -5 -3 -6 31 -1 83 32 356 -30 561 -200
669 -50 31 -120 62 -161 72 -11 2 -29 6 -40 8 -11 3 -31 8 -45 11 -27 7 -305
15 -311 9z m263 -436 c53 -12 59 -18 66 -65 10 -71 3 -251 -13 -329 -3 -11 -7
-36 -9 -55 -8 -55 -33 -171 -39 -176 -3 -3 -69 -5 -148 -5 -107 0 -144 3 -149
13 -6 11 -21 80 -36 166 -2 12 -6 34 -9 50 -20 113 -24 318 -6 364 8 20 20 29
53 36 58 12 235 13 290 1z m1638 -742 c14 -3 50 -8 80 -12 141 -15 348 -68
519 -132 237 -88 520 -258 731 -439 66 -56 288 -280 340 -343 25 -29 50 -59
55 -65 6 -6 44 -56 86 -111 337 -443 642 -1065 859 -1755 56 -179 160 -551
160 -573 0 -8 -174 -3 -228 7 -9 2 -53 7 -96 11 -43 4 -86 8 -95 10 -9 1 -43
6 -76 9 -33 4 -71 9 -85 11 -39 6 -91 13 -140 20 -25 3 -56 8 -70 10 -14 3
-41 7 -60 10 -19 3 -73 13 -120 21 -47 9 -96 18 -110 21 -14 2 -65 13 -115 24
-49 11 -101 22 -115 25 -66 13 -238 60 -389 105 -523 158 -976 383 -1334 663
-126 98 -151 121 -277 246 -268 268 -461 569 -590 920 -40 110 -105 343 -116
419 -3 20 -7 43 -9 51 -2 8 -7 38 -10 65 -4 28 -8 60 -10 71 -2 12 -6 61 -10
110 l-7 89 233 -235 c219 -221 308 -306 454 -440 134 -121 145 -131 405 -354
60 -51 315 -250 422 -329 514 -380 1054 -684 1518 -854 224 -82 259 -87 340
-47 55 27 73 46 99 104 49 110 -8 243 -123 284 -330 120 -469 179 -701 300
-370 193 -781 470 -1195 804 -85 69 -157 128 -160 131 -3 4 -34 31 -70 61 -89
75 -169 147 -340 305 -95 88 -523 516 -614 614 -37 40 -64 77 -59 81 4 5 25
11 47 14 21 4 41 8 45 10 3 2 24 7 46 10 22 4 47 8 55 11 8 2 31 6 50 9 69 10
115 17 140 21 14 3 63 7 110 11 47 4 87 8 89 10 6 5 411 -4 441 -9z m-1659
-444 c0 -70 2 -144 4 -163 2 -19 6 -65 10 -101 3 -37 7 -75 9 -85 2 -11 7 -41
10 -67 35 -259 142 -604 267 -864 383 -796 1128 -1406 2139 -1753 69 -24 126
-44 127 -44 3 -2 13 -111 18 -206 6 -97 6 -562 1 -635 -2 -22 -6 -89 -11 -150
-4 -60 -8 -117 -10 -125 -1 -8 -6 -46 -10 -83 -3 -37 -8 -76 -10 -86 -2 -10
-6 -42 -10 -71 -4 -29 -9 -62 -11 -74 -2 -12 -9 -48 -14 -81 -238 -1359 -1029
-2484 -2207 -3138 -668 -371 -1432 -542 -1911 -427 -320 77 -464 257 -463 579
1 53 3 107 5 121 3 14 7 41 10 60 12 74 18 99 51 221 39 143 75 282 81 319 3
14 11 59 19 101 8 42 17 98 20 125 4 27 8 60 11 74 22 135 22 583 0 720 -3 14
-7 45 -10 70 -3 25 -8 56 -11 70 -2 13 -7 42 -10 65 -31 210 -147 587 -276
891 -64 152 -97 222 -267 574 -134 279 -256 624 -308 875 -10 48 -15 72 -20
104 -3 18 -8 43 -10 55 -2 11 -7 41 -10 66 -3 25 -7 56 -9 69 -19 114 -26 457
-13 606 35 390 148 763 336 1109 131 241 286 450 477 642 253 256 545 443 902
579 116 45 293 100 352 110 19 3 37 7 40 9 3 2 22 7 41 10 19 3 46 8 60 11 25
5 59 11 115 20 16 2 61 7 100 11 38 4 71 7 73 9 1 1 74 3 162 4 l160 2 1 -128z
M5905 3732 c-68 -33 -92 -69 -147 -218 -194 -533 -449 -938 -815 -1295 -316
-309 -693 -551 -1117 -719 -169 -67 -222 -127 -214 -246 7 -113 91 -195 200
-197 65 -1 242 67 478 184 894 443 1518 1155 1872 2132 51 142 54 203 14 271
-38 66 -90 97 -168 103 -48 3 -72 -1 -103 -15z"/>
</g>
</svg>
