<svg viewBox="0 0 511.999 511.999" xmlns="http://www.w3.org/2000/svg"><g><g><path fill="currentColor" d="m487.083 323.839v-72.84h-43.2c-17.661 0-33.545 7.74-44.442 20.008-10.897-12.268-26.782-20.008-44.442-20.008h-16.519c6.59-12.032 11.059-23.914 13.338-35.557 4.627-23.648.413-45.9-12.528-66.139-5.808-9.083-12.542-17.416-20.039-24.954 2.743-9.581 3.044-19.323.871-29.179-5.469-24.799-26.638-48.193-62.919-69.534-25.464-14.976-55.282-25.636-55.282-25.636s-29.818 10.66-55.281 25.637c-36.282 21.341-57.451 44.735-62.92 69.534-2.174 9.856-1.872 19.598.871 29.179-7.496 7.538-14.231 15.87-20.039 24.954-12.94 20.238-17.155 42.49-12.527 66.139 2.856 14.594 9.152 29.562 18.763 44.733-12.882 9.754-29.142 27.42-29.142 54.463.45 13.969 5.583 25.489 13.25 33.474-4.824 8.531-10.647 19.215-10.647 38.669 0 16.766 4.327 27.015 8.61 34.99-17.12 15.154-27.943 37.27-27.943 61.878v28.35h387.829c35.751 0 64.836-29.085 64.836-64.836 0-10.992-3.093-33.513-21.071-71.388 18.218-10.169 30.573-29.633 30.573-51.937zm-371.495-61.966v-11.305c0-24.813 20.187-45 45-45h82.667c24.813 0 45 20.187 45 45v11.305c0 47.605-38.729 86.333-86.333 86.333-47.605 0-86.334-38.728-86.334-86.333zm5.51 93.151v45.975h-13.532c-10.19 0-19.95 1.865-28.971 5.253-2.627-5.161-4.346-10.367-4.346-19.471 0-11.942 2.953-17.176 7.042-24.401 3.59.738 7.244 1.118 10.88 1.119h.009c10.091 0 20.32-2.866 28.918-8.475zm57.89-202.389c0-12.646 10.288-22.934 22.934-22.934s22.934 10.288 22.934 22.934-10.288 22.934-22.934 22.934c-12.646-.001-22.934-10.289-22.934-22.934zm132.672 210.864h.009c3.636-.001 7.29-.381 10.88-1.119 4.089 7.225 7.043 12.458 7.043 24.401 0 9.105-1.718 14.31-4.346 19.471-9.021-3.388-18.781-5.253-28.971-5.253h-13.489l-.026-45.962c8.595 5.601 18.817 8.462 28.9 8.462zm.004-30c-.002 0-.003 0-.005 0-6.46 0-11.152-2.014-14.411-5.026 9.037-12.896 15.527-27.699 18.733-43.677 7.43 5.848 16.111 15.65 16.214 29.593-.375 8.868-5.957 19.107-20.531 19.11zm2.35-168.035c12.279 19.203 12.723 40.911 1.432 64.829-8.327-29.605-34.397-51.836-65.965-54.446 3.437-7.013 5.373-14.89 5.373-23.212 0-16.954-8.022-32.062-20.46-41.757 33.317 7.593 61.867 26.821 79.62 54.586zm-201.002-63.814c3.472-15.789 20.672-33.516 48.433-49.916 16.495-9.745 32.587-16.612 40.477-19.755 7.89 3.143 23.981 10.01 40.476 19.755 27.761 16.4 44.961 34.127 48.433 49.916.016.074.025.147.04.221-25.708-15.865-56.381-24.618-88.95-24.618s-63.242 8.753-88.949 24.618c.015-.073.024-.147.04-.221zm-23.184 63.814c17.753-27.765 46.303-46.993 79.62-54.586-12.438 9.694-20.46 24.802-20.46 41.757 0 8.322 1.936 16.199 5.374 23.212-31.568 2.609-57.638 24.84-65.966 54.444-11.291-23.917-10.846-45.625 1.432-64.827zm-1.967 119.331c3.206 15.978 9.696 30.782 18.734 43.678-3.259 3.012-7.951 5.026-14.411 5.026-.002 0-.004 0-.005 0-14.573-.003-20.155-10.242-20.531-19.11.102-13.944 8.782-23.746 16.213-29.594zm-32.919 197.204c.876-28.27 24.146-51 52.624-51h14.004c2.331 20.185 12.11 38.127 26.523 51zm146.979-9.428c-27.114 0-49.34-21.31-50.823-48.06v-58.01c15.364 7.493 32.61 11.704 50.823 11.704 18.222 0 35.476-4.216 50.846-11.716l.032 56.3c-.603 27.551-23.185 49.782-50.878 49.782zm53.828 9.428c14.413-12.873 24.192-30.815 26.523-51h14.004c28.478 0 51.749 22.73 52.624 51zm156.996 0h-33.861c-.469-23.741-10.98-45.057-27.473-59.856l21.909-38.861h53.408c11.357 23.151 20.852 48.087 20.852 63.882 0 19.208-15.627 34.835-34.835 34.835zm44.338-158.16c0 16.234-13.208 29.442-29.442 29.442h-56.4c-7.693 0-14.703-2.969-19.953-7.817 6.352-7.716 10.499-17.853 10.901-30.342l.008-.483c0-13.485-4.046-24.635-9.698-33.64 18.668 0 31.942 13.208 31.942 29.442h30c0-16.234 13.208-29.442 29.442-29.442h13.2z"/></g><path fill="currentColor" d="m201.921 307.12c16.899 0 32.657-9.094 41.125-23.732l-25.968-15.021c-3.124 5.399-8.932 8.754-15.157 8.754-6.226 0-12.034-3.354-15.157-8.753l-25.969 15.02c8.467 14.638 24.226 23.732 41.126 23.732z"/></g></svg>