<svg xmlns="http://www.w3.org/2000/svg" viewBox="0 0 1024 1024">
<g transform="translate(0,1024) scale(0.1,-0.1)">
<path fill="currentColor" d="M1088 10233 c-3 -5 -4 -1033 -4 -2285 l1 -2278 -177 0 -178 0 0 -845
0 -845 -180 0 -180 0 0 -845 0 -845 -178 0 -179 0 0 -1145 0 -1145 5107 0
5107 0 0 1145 -1 1145 -178 0 -178 0 0 845 0 845 -180 0 -180 0 0 845 0 845
-177 0 -178 0 0 2283 0 2282 -300 0 -299 0 -2 -1425 c0 -784 -2 -1431 -2
-1437 -2 -10 -84 -13 -377 -13 l-375 0 0 1440 0 1440 -300 0 -300 0 0 -205 0
-205 -292 0 -293 0 1 205 0 205 -298 0 -298 0 0 -205 0 -205 -300 0 -300 0 0
205 0 205 -300 0 -300 0 0 -205 0 -205 -305 0 -305 0 0 205 0 205 -298 0 -298
0 0 -205 1 -205 -287 0 -288 0 0 205 0 205 -300 0 -300 0 0 -1440 0 -1440
-378 0 -378 0 0 1438 0 1437 -296 3 c-163 1 -298 -1 -300 -5z m3534 -1032
c-267 -148 -460 -415 -517 -716 -18 -92 -17 -292 1 -380 44 -215 136 -388 284
-535 69 -70 233 -190 258 -190 6 0 13 -3 15 -7 3 -5 -361 -8 -809 -9 l-814 0
0 933 0 933 818 0 817 0 -53 -29z m2578 -904 l0 -933 -805 0 c-443 1 -805 3
-805 6 0 3 32 25 71 49 246 151 412 393 473 686 17 80 19 286 5 360 -6 28 -12
61 -15 74 -10 49 -46 148 -79 213 -93 188 -240 343 -422 445 l-58 33 818 0
817 0 0 -933z m-1962 417 c187 -57 314 -224 314 -414 0 -254 -205 -448 -460
-435 -315 16 -506 374 -347 650 52 91 171 180 273 204 52 13 168 10 220 -5z
m-2157 -1953 l647 -1 -303 -542 -303 -543 -719 -3 -719 -2 0 542 c0 299 3 545
7 548 4 3 173 4 376 3 202 0 659 -1 1014 -2z m5470 0 c3 -1 5 -245 5 -543 l-1
-543 -718 0 -719 0 -303 542 -303 543 652 2 c570 3 1371 2 1387 -1z m-2425
-537 c164 -294 299 -538 299 -542 0 -4 -588 -7 -1307 -8 -720 -1 -1308 0
-1308 2 0 2 136 247 302 544 l301 540 707 0 707 0 299 -536z m-2564 -1451
c-91 -164 -228 -408 -303 -543 l-137 -245 -898 0 -898 0 -1 530 c0 292 1 536
3 543 3 9 253 12 1202 12 l1199 0 -167 -297z m2564 -239 c164 -294 301 -540
302 -545 2 -5 -514 -9 -1308 -9 -799 0 -1310 4 -1308 9 2 5 138 251 303 545
l299 536 706 0 706 0 300 -536z m2786 524 c3 -11 2 -1003 -1 -1061 -1 -16 -49
-17 -897 -15 l-896 3 -140 250 c-77 138 -213 382 -303 543 l-164 292 1199 0
c950 0 1199 -3 1202 -12z m-5191 -1695 c-6 -10 -143 -254 -304 -543 l-294
-525 -1077 -3 -1076 -2 0 545 0 545 1380 0 c1312 0 1380 -1 1371 -17z m2404
-519 c165 -295 302 -541 303 -545 2 -5 -576 -9 -1308 -9 -732 0 -1310 4 -1308
9 2 4 138 250 303 545 l299 536 706 0 706 0 299 -536z m3145 -9 l0 -545 -1076
2 -1077 3 -95 170 c-52 94 -188 338 -303 543 l-208 372 1380 0 1379 0 0 -545z
m-6230 -1690 l0 -545 -1215 0 -1215 0 0 545 0 545 1215 0 1215 0 0 -545z
m1780 0 l0 -545 -590 0 -590 0 0 545 0 545 590 0 590 0 0 -545z m1780 0 l0
-545 -590 0 -590 0 0 545 0 545 590 0 590 0 0 -545z m3030 0 l0 -545 -1215 0
-1215 0 0 545 0 545 1215 0 1215 0 0 -545z"/>
</g>
</svg>
