<svg xmlns="http://www.w3.org/2000/svg" viewBox="0 0 1024 1024">
<g transform="translate(0,1024) scale(0.1,-0.1)">
<path fill="currentColor" d="M5633 9796 c-94 -23 -157 -64 -388 -257 -247 -206 -325 -262 -439
-315 -67 -30 -191 -71 -276 -90 -33 -7 -371 -10 -2190 -17 -856 -4 -827 -2
-1035 -72 -450 -151 -798 -516 -930 -972 -38 -133 -52 -250 -53 -433 l-1 -165
441 -755 c243 -415 441 -764 441 -775 -1 -11 -10 -65 -21 -120 -12 -55 -24
-127 -27 -160 -4 -33 -9 -68 -11 -78 -26 -138 -25 -679 0 -827 38 -216 48
-257 102 -412 233 -674 826 -1165 1679 -1391 50 -13 92 -24 95 -25 45 -4 80
-17 76 -27 -2 -7 -132 -235 -287 -506 -155 -272 -310 -553 -345 -624 -213
-445 -244 -799 -92 -1052 44 -74 146 -166 227 -206 l66 -32 1409 -2 c1579 -3
1438 -10 1497 70 l28 38 0 212 c1 160 -2 226 -14 270 -42 159 -145 274 -308
340 -51 21 -67 22 -644 27 l-592 5 390 439 c215 242 407 465 428 495 133 198
169 441 100 674 -11 37 -125 279 -254 538 -129 258 -235 474 -235 480 0 6 4 8
9 5 12 -8 180 -34 276 -43 158 -16 668 -8 771 11 10 2 44 7 75 10 31 4 65 8
75 10 11 2 60 11 109 21 50 9 100 19 112 22 l22 5 3 -564 3 -565 27 -34 c36
-47 55 -67 198 -219 69 -73 132 -141 140 -150 8 -9 71 -77 140 -150 69 -73
132 -141 140 -150 8 -9 71 -77 140 -150 69 -73 132 -141 140 -150 8 -9 71 -77
140 -150 69 -73 132 -141 140 -150 8 -9 71 -77 140 -150 69 -73 132 -141 140
-150 8 -9 71 -77 140 -150 69 -73 132 -141 140 -150 8 -9 71 -77 140 -150 69
-73 133 -142 143 -154 74 -86 207 -209 256 -235 117 -62 106 -61 877 -61 l702
1 38 28 c69 50 73 65 73 262 -1 188 -10 241 -55 331 -33 65 -132 164 -199 200
-27 14 -243 81 -480 148 -236 67 -438 127 -448 132 -15 8 -64 57 -117 118 -8
9 -53 59 -100 110 -47 51 -92 101 -100 110 -8 9 -53 59 -100 110 -47 51 -92
101 -100 110 -8 9 -53 59 -100 110 -47 51 -92 101 -100 110 -8 9 -53 59 -100
110 -47 51 -92 101 -100 110 -8 9 -53 59 -100 110 -47 51 -92 101 -100 110 -8
9 -53 59 -100 110 -47 51 -92 101 -100 110 -8 9 -53 59 -100 110 -47 51 -93
102 -102 113 -17 19 -18 58 -18 520 l0 500 256 321 c141 176 262 327 268 334
10 10 28 9 97 -7 46 -11 102 -22 124 -26 23 -3 52 -8 65 -10 116 -23 409 -23
544 0 14 3 36 7 49 9 123 22 271 73 397 136 317 159 507 382 556 650 7 42 7
195 -1 230 -3 14 -8 41 -11 59 -19 116 -106 293 -212 433 -46 61 -45 56 -27
178 2 14 6 54 9 90 4 36 9 92 12 125 6 66 6 413 0 460 -2 17 -7 64 -11 105 -4
41 -9 77 -10 80 -2 3 -6 26 -10 50 -3 25 -15 80 -26 122 -137 542 -484 865
-1034 962 -143 26 -505 27 -631 2 -12 -2 -45 -7 -75 -11 -30 -3 -61 -8 -69
-10 -8 -2 -31 -7 -50 -10 -19 -3 -64 -13 -100 -21 -36 -9 -76 -18 -90 -20 -81
-16 -400 -118 -495 -158 -29 -13 -74 -18 -170 -20 -142 -3 -216 -18 -321 -66
-132 -60 -254 -162 -335 -281 -33 -49 -52 -65 -107 -93 l-67 -33 -365 -8
c-201 -4 -390 -8 -420 -10 -30 -1 -125 -6 -210 -10 -85 -3 -171 -8 -190 -10
-19 -2 -80 -6 -135 -10 -55 -4 -113 -8 -130 -9 -16 -2 -66 -6 -110 -10 -44 -4
-91 -9 -105 -11 -14 -2 -54 -7 -90 -10 -36 -4 -72 -8 -80 -10 -8 -1 -42 -6
-75 -9 -54 -6 -100 -13 -219 -32 -21 -3 -48 -7 -59 -10 -12 -2 -39 -6 -62 -10
-66 -9 -324 -64 -405 -85 -41 -11 -84 -22 -95 -24 -60 -14 -245 -73 -346 -110
-347 -129 -636 -297 -830 -483 l-47 -44 -237 395 -237 395 16 62 c45 173 170
302 345 354 48 14 211 16 1570 16 834 1 1534 3 1556 5 263 28 506 115 704 255
79 56 606 505 659 561 131 140 157 385 57 555 -37 63 -125 155 -185 194 -105
67 -250 93 -367 66z m182 -329 c38 -19 78 -62 100 -106 18 -36 16 -102 -5
-142 -16 -28 -568 -499 -650 -554 -114 -76 -259 -134 -420 -171 -19 -4 -462
-9 -985 -11 -1759 -6 -2220 -9 -2255 -17 -357 -79 -620 -383 -635 -736 l-5
-95 261 -435 c144 -239 272 -453 284 -475 l24 -40 -42 -65 c-23 -36 -65 -109
-93 -163 l-51 -99 -352 604 -353 603 5 135 c3 74 8 151 12 170 26 142 96 313
182 442 59 88 185 217 274 281 118 84 297 159 459 193 35 8 498 11 2090 17
470 2 869 6 885 10 17 4 64 14 105 23 151 33 333 109 470 197 53 35 252 194
479 385 82 70 148 85 216 49z m2325 -1211 c14 -2 41 -7 60 -10 31 -5 53 -9
100 -20 56 -14 176 -63 240 -99 89 -50 220 -175 275 -262 70 -111 139 -287
159 -405 3 -19 9 -56 14 -82 5 -27 6 -48 2 -48 -5 0 -35 7 -67 15 -94 23 -113
26 -223 29 -124 4 -194 -5 -310 -40 -277 -85 -551 -317 -661 -560 -47 -103
-62 -184 -56 -304 3 -58 7 -114 10 -125 11 -46 49 -151 58 -159 16 -17 10 -23
-75 -80 -101 -67 -182 -153 -229 -244 -96 -184 -93 -383 9 -632 19 -47 36 -88
37 -91 1 -4 -130 -172 -291 -374 -162 -202 -298 -379 -303 -394 -6 -16 -8
-270 -7 -628 l3 -601 35 -43 c19 -24 53 -64 76 -89 23 -25 51 -54 61 -66 10
-12 56 -63 103 -114 47 -51 92 -101 100 -110 8 -9 53 -59 100 -110 47 -51 92
-101 100 -110 8 -9 53 -59 100 -110 47 -51 92 -101 100 -110 8 -9 53 -59 100
-110 47 -51 92 -101 100 -110 8 -9 53 -59 100 -110 47 -51 92 -101 100 -110 8
-9 53 -59 100 -110 47 -51 92 -101 100 -110 60 -69 195 -215 245 -266 l60 -60
469 -134 c264 -75 481 -143 499 -154 44 -31 67 -81 67 -148 l0 -58 -585 0
c-469 0 -592 3 -618 13 -18 8 -87 73 -157 148 -69 73 -156 166 -193 205 -38
40 -76 81 -85 92 -9 10 -73 79 -142 152 -69 73 -132 141 -140 150 -8 9 -71 77
-140 150 -69 73 -132 141 -140 150 -8 9 -71 77 -140 150 -69 73 -132 141 -140
150 -8 9 -71 77 -140 150 -69 73 -132 141 -140 150 -8 9 -71 77 -140 150 -69
73 -132 141 -140 150 -8 9 -71 76 -139 149 -68 72 -136 146 -152 164 l-29 32
0 623 c0 688 2 667 -64 717 -52 40 -94 41 -226 6 -117 -31 -285 -65 -375 -76
-27 -4 -61 -8 -75 -11 -116 -19 -571 -27 -715 -12 -171 18 -358 54 -485 94
-108 34 -188 37 -226 8 -49 -36 -69 -71 -70 -126 -2 -49 15 -85 321 -697 177
-355 326 -662 330 -681 5 -19 10 -42 12 -50 2 -8 4 -46 4 -85 0 -89 -29 -186
-79 -258 -20 -30 -264 -309 -542 -621 -278 -312 -511 -579 -517 -594 -20 -44
-13 -110 18 -151 53 -74 8 -71 857 -71 l760 0 39 -29 c58 -42 73 -81 73 -195
l0 -96 -1268 0 -1269 0 -41 30 c-110 80 -135 270 -65 510 59 206 110 305 531
1042 224 392 344 611 348 637 8 52 -10 104 -49 137 -39 33 -58 40 -128 48 -31
4 -66 8 -77 11 -11 2 -35 6 -53 9 -335 57 -713 202 -977 376 -267 175 -475
404 -605 665 -70 140 -129 320 -153 464 -3 18 -7 43 -10 55 -12 65 -19 194
-19 376 0 279 11 400 60 655 14 72 60 227 91 309 183 474 523 795 1075 1015
148 59 390 134 499 156 8 2 33 8 55 13 22 6 51 13 65 16 14 3 70 14 125 25 55
11 118 22 140 25 23 4 52 9 65 11 14 3 45 8 70 11 25 3 53 8 64 10 10 2 44 6
75 10 31 3 63 8 71 9 8 2 44 6 80 10 36 3 76 8 90 10 14 2 61 7 105 11 44 4
94 8 110 10 17 1 73 6 125 9 52 4 111 8 130 10 19 2 105 7 190 11 85 3 180 8
210 9 30 2 227 7 438 11 l382 7 1 -34 c0 -19 2 -43 4 -54 2 -11 7 -40 10 -64
27 -184 168 -398 338 -513 62 -42 187 -100 242 -112 17 -3 41 -9 55 -12 56
-14 237 -12 305 3 271 57 495 246 591 498 14 39 28 79 30 90 2 11 8 43 13 70
10 51 8 230 -3 275 -3 14 -9 38 -12 55 -22 100 -109 253 -198 349 -25 27 -45
50 -43 52 2 2 176 50 215 59 147 35 302 61 417 71 39 4 71 8 73 9 6 5 315 -3
342 -9z m-1456 -273 c116 -35 234 -123 285 -212 25 -46 26 -46 -22 -26 -50 21
-92 27 -173 27 -250 -2 -464 -216 -466 -466 0 -81 6 -123 27 -174 9 -19 14
-37 12 -38 -7 -8 -94 55 -134 96 -176 183 -175 474 3 660 120 126 311 180 468
133z m195 -561 c143 -106 25 -335 -143 -277 -70 24 -108 77 -108 151 0 128
149 202 251 126z m1921 -375 c8 -2 31 -7 50 -11 19 -5 64 -20 99 -34 l64 -25
-7 -136 c-3 -75 -8 -147 -10 -161 -3 -14 -7 -50 -11 -80 -3 -30 -10 -85 -16
-123 -14 -90 -7 -131 31 -178 131 -163 192 -267 225 -383 22 -77 22 -187 0
-251 -60 -173 -257 -333 -516 -419 -104 -35 -122 -39 -208 -52 -25 -4 -55 -8
-66 -10 -33 -7 -266 -5 -325 2 -77 8 -199 32 -278 54 -41 11 -46 15 -77 83
-64 138 -81 266 -50 358 33 97 151 189 302 235 63 19 88 32 112 59 55 63 53
146 -5 216 -89 106 -124 199 -121 318 2 79 6 92 41 159 92 172 312 334 511
377 53 12 213 13 255 2z M8415 6546 c-92 -40 -122 -160 -61 -240 87 -115 269
-64 284 79 11 117 -116 209 -223 161z"/>
</g>
</svg>
