<svg xmlns="http://www.w3.org/2000/svg" viewBox="0 0 1024 1024">
<g transform="translate(0,1024) scale(0.1,-0.1)">
<path fill="currentColor" d="M1348 9626 c-1 -2 -47 -6 -102 -10 -54 -3 -101 -8 -105 -10 -4 -3
-26 -7 -50 -11 -68 -10 -239 -69 -322 -110 -388 -195 -648 -531 -745 -965 -25
-114 -32 -702 -8 -780 60 -201 227 -331 423 -331 91 1 115 6 198 47 117 57
194 146 233 272 15 48 18 97 19 309 1 139 4 272 7 295 15 106 92 237 176 299
55 40 152 85 203 94 244 40 466 -93 546 -326 21 -63 22 -73 23 -714 2 -721 -1
-687 68 -737 25 -18 46 -23 90 -23 68 0 103 21 135 84 l21 42 -2 657 c-1 361
-6 671 -10 687 -31 129 -63 207 -122 297 -109 163 -269 278 -462 330 -106 28
-286 28 -393 0 -307 -82 -548 -354 -585 -659 -4 -32 -7 -169 -8 -305 -1 -232
-2 -249 -22 -275 -65 -89 -198 -74 -232 26 -10 31 -8 534 3 606 11 74 49 201
84 278 46 103 112 198 201 291 156 163 338 261 575 312 52 11 268 13 330 3
323 -51 595 -234 757 -509 69 -117 118 -252 134 -370 3 -25 8 -54 10 -65 2
-11 4 -999 4 -2195 1 -2330 -1 -2229 50 -2375 69 -197 254 -385 457 -463 97
-38 121 -42 258 -49 61 -3 111 -6 112 -7 1 0 4 -19 7 -41 4 -23 9 -52 11 -65
3 -14 7 -36 10 -50 3 -14 9 -40 15 -59 5 -19 8 -37 5 -41 -5 -8 -202 -5 -280
4 -92 12 -221 53 -320 102 -346 170 -575 525 -584 906 -2 51 -3 602 -4 1224
l-2 1131 -29 37 c-73 96 -208 86 -262 -20 -20 -40 -20 -47 -19 -1250 1 -665 5
-1231 9 -1259 39 -264 138 -490 303 -695 129 -159 318 -302 505 -383 87 -37
225 -80 293 -92 137 -22 157 -23 357 -24 l176 -1 23 -37 c207 -342 573 -595
939 -649 69 -10 278 -11 345 -1 158 22 293 68 453 152 56 30 102 52 102 50 0
-2 -70 -165 -156 -362 -85 -197 -162 -385 -169 -418 -13 -55 -15 -233 -3 -275
3 -8 10 -35 17 -60 61 -215 254 -396 486 -455 64 -17 137 -18 910 -18 462 0
855 3 873 6 59 10 156 63 204 110 94 94 127 214 104 375 -36 262 -241 493
-496 561 -102 28 -134 30 -529 30 -273 1 -341 4 -334 14 6 6 144 278 308 602
759 1499 696 1380 766 1458 109 120 237 276 332 405 49 67 91 121 93 120 1 -2
217 -515 479 -1141 l477 -1138 2 -207 c2 -226 6 -243 71 -320 l26 -31 -148
-75 c-217 -108 -245 -146 -248 -331 -1 -123 16 -183 67 -236 75 -77 52 -74
528 -74 471 0 459 -2 529 67 70 69 66 12 69 853 l2 760 -300 1005 c-165 553
-308 1016 -319 1030 -83 113 -264 65 -278 -73 -3 -34 54 -238 291 -1030 l296
-988 0 -657 0 -657 -285 0 c-157 -1 -285 3 -285 7 0 4 76 46 170 93 184 93
230 132 251 209 26 96 8 161 -72 262 l-51 65 -3 202 -2 202 -697 1659 c-383
913 -704 1672 -714 1688 -9 16 -36 38 -60 49 -79 39 -170 10 -206 -65 -34 -72
-37 -61 218 -668 l45 -107 -61 -91 c-33 -50 -62 -90 -64 -88 -2 2 -6 22 -10
43 -19 123 -90 250 -199 360 -89 90 -196 151 -315 182 -92 23 -282 23 -410 -2
-8 -2 -44 -6 -80 -10 -36 -4 -72 -8 -80 -10 -8 -1 -40 -6 -71 -9 -31 -4 -65
-8 -75 -10 -11 -2 -50 -7 -87 -11 -37 -3 -76 -8 -86 -10 -10 -2 -42 -6 -72
-10 -30 -3 -65 -8 -79 -10 -14 -2 -50 -7 -80 -10 -30 -3 -66 -8 -80 -10 -14
-2 -50 -7 -80 -10 -30 -3 -66 -8 -80 -10 -14 -2 -50 -7 -80 -10 -30 -3 -66 -8
-80 -10 -14 -2 -50 -7 -80 -10 -30 -3 -66 -8 -80 -10 -14 -2 -50 -7 -80 -10
-30 -3 -66 -8 -80 -10 -14 -2 -54 -7 -90 -10 -36 -4 -74 -9 -85 -11 -10 -2
-37 -6 -60 -9 -269 -37 -585 -135 -812 -252 l-103 -53 51 83 c100 159 223 312
379 468 281 282 479 420 933 655 373 192 570 330 870 607 109 100 130 132 130
193 0 81 -58 144 -141 152 -64 6 -92 -9 -196 -109 -236 -225 -485 -401 -777
-549 -101 -51 -220 -113 -264 -138 -129 -73 -351 -222 -475 -318 -133 -103
-435 -399 -534 -524 -245 -308 -432 -681 -511 -1022 -13 -56 -37 -135 -54
-175 -16 -40 -40 -114 -51 -165 -12 -51 -24 -99 -26 -107 -6 -21 -173 -9 -249
18 -143 50 -253 165 -301 313 -16 49 -17 202 -19 2253 -2 1673 -5 2217 -15
2270 -6 39 -14 84 -17 100 -10 63 -67 223 -108 307 -106 215 -271 406 -463
537 -127 86 -326 172 -464 200 -29 6 -64 14 -78 16 -14 3 -68 8 -120 11 -52 3
-100 7 -107 9 -6 2 -13 2 -15 1z m5522 -4869 c120 -23 245 -136 285 -257 31
-92 22 -230 -21 -351 -15 -40 -61 -141 -104 -224 -42 -82 -182 -357 -310 -610
-228 -452 -412 -814 -725 -1429 -149 -293 -157 -312 -153 -357 6 -54 36 -102
81 -126 29 -15 85 -17 557 -18 513 -2 526 -2 580 -23 143 -56 235 -176 247
-323 5 -63 4 -67 -22 -87 l-28 -22 -812 0 c-892 0 -871 -1 -961 61 -103 71
-157 174 -157 299 l0 75 332 759 c183 418 334 776 337 795 7 55 -30 121 -84
148 -87 44 -168 12 -221 -86 -104 -196 -372 -441 -618 -565 -70 -35 -197 -81
-252 -91 -223 -42 -410 -17 -600 80 -304 154 -529 462 -595 815 -18 95 -19
286 -1 370 78 365 353 646 798 816 84 32 272 86 342 99 29 5 48 8 105 20 55
11 161 25 300 40 30 3 62 8 70 10 8 2 44 7 80 10 36 4 72 8 80 10 8 1 42 6 75
9 64 7 124 15 165 21 14 2 52 7 85 11 33 3 67 8 75 9 8 2 44 6 80 10 36 4 72
8 80 10 8 2 44 6 80 10 36 4 72 8 80 10 8 2 44 6 80 10 36 4 72 8 80 10 8 2
44 6 80 10 36 4 72 8 80 10 8 2 44 6 80 10 36 4 72 8 80 10 8 2 44 6 80 10 36
4 66 8 68 10 4 3 91 -2 122 -8z M8508 9625 c-2 -1 -41 -5 -88 -9 -106 -7 -135
-12 -235 -38 -415 -109 -759 -414 -918 -814 -34 -84 -60 -173 -71 -239 -3 -16
-8 -44 -10 -61 -3 -17 -8 -57 -12 -90 -6 -70 -43 -156 -165 -392 -94 -181
-210 -381 -314 -542 -82 -126 -83 -128 -81 -182 2 -77 73 -148 145 -148 76 1
112 28 193 151 125 189 246 401 373 654 130 259 151 312 160 420 42 466 351
831 801 946 112 28 314 35 417 13 87 -18 191 -66 310 -144 104 -66 130 -90
103 -90 -9 0 -46 -14 -83 -30 -146 -66 -255 -189 -320 -360 -18 -47 -32 -93
-33 -103 -1 -46 -57 -131 -176 -262 -174 -194 -261 -329 -322 -500 -37 -107
-40 -259 -7 -384 31 -115 89 -229 172 -339 51 -66 62 -88 59 -110 -3 -15 -8
-47 -11 -72 -8 -58 -12 -86 -39 -250 -3 -14 -5 -28 -5 -32 -1 -4 -17 4 -37 17
-37 25 -54 29 -107 26 -66 -3 -125 -60 -134 -130 -4 -30 40 -188 205 -742 116
-387 215 -715 220 -729 14 -37 60 -78 98 -89 66 -18 151 14 178 68 35 67 33
75 -105 536 -126 423 -131 442 -120 485 13 53 81 346 87 375 2 11 18 108 36
215 17 107 33 197 35 199 1 2 47 -6 100 -17 54 -12 116 -25 138 -28 22 -3 45
-7 52 -9 19 -6 202 -19 273 -18 68 0 187 9 230 18 14 3 36 7 49 10 100 20 242
83 337 151 212 150 355 448 350 729 -1 69 -6 90 -33 146 -38 77 -138 179 -288
295 -140 108 -223 182 -257 228 -29 41 -29 37 -13 161 2 17 7 62 10 100 4 39
9 72 10 75 7 12 19 149 19 205 -1 108 -57 178 -284 362 -285 229 -521 343
-744 359 -45 3 -96 7 -113 8 -18 2 -34 2 -35 1z m847 -867 c1 -1 -1 -29 -5
-60 -5 -32 -11 -90 -15 -130 -4 -40 -9 -82 -11 -93 -2 -11 -5 -51 -5 -88 -1
-58 4 -79 32 -135 41 -83 185 -231 344 -352 61 -47 138 -112 172 -145 60 -59
61 -61 57 -105 -26 -273 -162 -455 -394 -525 -83 -25 -133 -30 -275 -30 -118
0 -153 3 -280 21 -71 11 -306 73 -321 85 -28 23 -106 134 -135 191 -58 114
-69 236 -31 336 47 123 109 211 290 413 114 126 173 223 202 332 57 210 152
299 313 292 32 -2 60 -5 62 -7z M9074 8365 c-51 -22 -103 -96 -99 -140 5 -56
20 -87 55 -119 40 -36 54 -40 118 -38 106 4 173 133 120 226 -39 68 -126 100
-194 71z M8045 9099 c-141 -19 -235 -114 -262 -264 -17 -91 -3 -291 27 -409
52 -204 168 -329 305 -327 65 0 119 21 163 64 45 43 48 48 153 333 75 204 92
259 92 304 -1 91 -48 163 -140 215 -59 33 -177 75 -228 81 -22 3 -44 6 -50 8
-5 1 -32 -1 -60 -5z m118 -328 c15 -6 27 -12 27 -15 0 -8 -71 -199 -78 -210
-10 -15 -18 43 -21 152 -2 103 -3 102 72 73z"/>
</g>
</svg>
