<svg xmlns="http://www.w3.org/2000/svg" viewBox="0 0 1024 1024">
<g transform="translate(0,1024) scale(0.1,-0.1)">
<path fill="currentColor" d="M0 9621 l0 -301 198 -1 c262 -2 293 -5 457 -44 324 -77 603 -255 818
-522 169 -211 272 -451 314 -738 10 -64 10 -315 1 -380 -31 -208 -109 -408
-254 -646 -70 -117 -140 -217 -369 -534 -331 -456 -494 -714 -650 -1030 -236
-479 -393 -1006 -460 -1540 -4 -27 -8 -60 -10 -72 -2 -12 -7 -57 -10 -100 -4
-43 -9 -86 -11 -97 -17 -94 -26 -699 -11 -856 8 -95 9 -102 38 -253 153 -822
710 -1547 1470 -1915 155 -75 407 -169 500 -185 13 -3 42 -10 64 -15 22 -6 54
-14 70 -16 17 -3 41 -8 55 -11 54 -11 151 -25 221 -32 101 -11 6393 -10 6449
0 270 50 518 236 643 484 34 66 74 184 84 248 10 64 10 246 0 310 -25 153
-103 310 -232 463 -65 77 -255 199 -360 232 -22 7 -44 16 -48 20 -5 4 1 37 12
74 31 100 36 147 35 316 -1 118 -6 179 -23 257 -111 526 -483 943 -987 1108
-108 36 -135 43 -166 44 -17 1 -18 37 -18 616 l0 615 73 1 c39 0 97 2 127 4
99 6 214 16 245 20 17 2 53 7 80 10 28 3 59 8 70 10 11 3 36 7 55 9 19 3 67
12 105 20 39 8 82 17 95 19 14 3 45 10 70 17 25 7 52 14 60 15 31 7 158 48
255 82 204 73 365 152 536 264 132 87 169 117 294 243 169 170 267 333 320
532 24 89 30 147 29 279 -3 334 -186 650 -531 918 -89 69 -93 73 -94 112 0 22
-2 47 -3 55 -2 8 -6 38 -10 65 -49 392 -223 815 -469 1140 -300 397 -709 695
-1169 851 -121 41 -256 77 -338 90 -19 3 -42 7 -50 9 -8 2 -37 7 -65 10 -27 4
-61 9 -75 13 -14 3 -607 7 -1317 9 l-1293 4 -1 -233 c0 -128 -2 -260 -4 -293
-3 -70 -15 -246 -19 -290 -9 -84 -18 -163 -21 -185 -2 -14 -7 -45 -10 -70 -10
-76 -23 -151 -49 -290 -24 -130 -83 -366 -132 -527 -196 -652 -515 -1264 -940
-1809 -181 -232 -291 -348 -840 -884 -154 -151 -277 -280 -341 -362 -224 -280
-389 -571 -504 -883 -30 -83 -84 -267 -94 -320 -6 -32 -12 -65 -20 -105 -3
-14 -8 -45 -11 -70 -3 -25 -7 -47 -9 -50 -10 -17 -20 -214 -20 -385 1 -256 14
-378 70 -640 52 -244 189 -580 338 -825 167 -275 433 -575 672 -759 l30 -23
-220 5 c-121 3 -231 8 -245 11 -14 2 -43 7 -65 11 -22 3 -56 8 -75 11 -19 3
-71 14 -114 25 -786 198 -1392 829 -1551 1615 -14 67 -28 155 -32 195 -15 142
-6 685 12 802 2 12 6 52 10 89 3 37 8 77 10 90 2 13 6 46 10 73 8 70 33 216
51 300 9 39 18 81 20 95 12 65 89 332 130 451 164 472 352 802 835 1469 284
390 384 547 494 768 83 168 162 400 181 532 3 19 7 40 9 47 26 78 27 499 1
629 -2 12 -7 37 -10 55 -71 422 -284 821 -607 1136 -285 278 -648 471 -1033
548 -182 36 -181 36 -463 42 l-263 6 0 -302z m7410 -315 c19 -4 79 -16 134
-27 328 -66 668 -246 905 -481 l75 -73 -952 -3 -952 -2 0 -300 0 -300 43 -1
c23 0 49 -2 57 -3 8 -2 40 -6 70 -9 30 -4 90 -16 132 -27 396 -104 707 -397
838 -788 56 -168 59 -206 60 -921 l0 -654 -142 7 c-79 4 -159 9 -178 11 -19 2
-78 6 -130 10 -52 3 -107 8 -122 11 l-28 4 0 -930 c0 -737 -3 -930 -12 -931
-7 0 -22 -2 -33 -4 -11 -2 -40 -7 -65 -11 -25 -4 -49 -8 -55 -10 -5 -1 -26 -5
-45 -9 -69 -12 -191 -46 -289 -79 l-101 -35 0 685 0 684 -300 0 -300 0 0 -853
0 -854 -87 -69 c-106 -83 -331 -305 -434 -429 -165 -196 -305 -399 -513 -739
l-115 -190 244 -163 c135 -90 248 -163 253 -163 4 0 61 89 127 197 364 600
641 921 992 1150 195 127 447 235 628 268 17 3 44 7 60 10 17 3 37 8 45 10 67
18 379 27 470 13 108 -16 256 -77 359 -147 25 -16 71 -56 104 -88 170 -166
265 -386 265 -614 0 -121 -28 -196 -107 -291 -123 -146 -320 -275 -821 -538
-602 -315 -862 -460 -1128 -627 l-135 -84 -896 4 c-493 2 -907 6 -921 9 -14 4
-45 9 -70 12 -25 3 -56 8 -70 11 -14 3 -38 8 -55 10 -16 3 -38 8 -47 11 -9 3
-25 7 -37 9 -29 5 -171 46 -195 55 -12 5 -59 23 -106 41 -269 103 -548 287
-770 509 -210 208 -357 425 -483 710 -55 125 -128 383 -151 530 -21 139 -29
451 -14 575 4 33 10 83 14 110 11 92 74 318 120 435 90 226 213 437 377 644
82 103 186 209 613 626 133 129 277 276 322 325 627 701 1088 1541 1337 2439
38 138 97 383 111 466 3 14 11 61 19 105 21 114 22 125 39 245 3 19 8 58 11
85 3 28 8 64 10 80 2 17 7 71 11 120 4 50 8 101 9 115 2 14 3 47 4 73 l1 48
983 -4 c540 -2 998 -7 1017 -11z m1507 -1231 c21 -60 70 -253 77 -305 22 -158
24 -189 26 -345 l1 -140 119 -69 c264 -154 416 -305 477 -475 106 -297 -193
-635 -747 -843 -103 -39 -391 -118 -430 -118 -20 0 -20 10 -21 623 -1 342 -2
633 -4 647 -11 117 -17 165 -20 170 -2 3 -6 23 -9 45 -38 243 -194 577 -364
782 -29 34 -52 65 -52 68 0 3 210 4 466 3 l467 -3 14 -40z m-65 -6588 c225
-111 218 -435 -11 -541 -45 -21 -59 -21 -725 -24 -374 -1 -678 0 -675 2 2 3
130 71 284 152 343 179 524 283 658 374 l102 70 155 -3 c147 -2 158 -3 212
-30z"/>
</g>
</svg>
