<svg xmlns="http://www.w3.org/2000/svg" viewBox="0 0 1024 1024">
<g transform="translate(0,1024) scale(0.1,-0.1)">
<path fill="currentColor" d="M2095 10215 c-211 -54 -383 -148 -545 -299 -25 -23 -97 -86 -160
-141 -169 -146 -221 -204 -268 -300 -49 -100 -68 -200 -78 -400 -3 -66 -10
-122 -15 -123 -5 -2 -6 -9 -3 -14 4 -6 2 -8 -3 -5 -6 4 -35 -4 -65 -17 -51
-22 -157 -58 -217 -72 -14 -4 -118 -9 -231 -11 -223 -4 -248 -11 -260 -64 -8
-32 0 -70 13 -62 6 3 7 1 3 -6 -8 -12 -2 -19 65 -73 26 -21 50 -34 55 -30 5 4
6 3 2 -2 -4 -5 -2 -16 4 -25 7 -9 8 -13 3 -8 -5 4 -22 -21 -38 -55 -32 -69
-32 -115 0 -150 21 -24 55 -21 186 16 48 14 87 23 87 20 0 -3 9 0 21 6 11 6
29 13 40 16 45 10 55 13 84 24 17 6 30 11 30 10 0 0 15 2 32 6 18 4 31 9 29
13 -3 4 3 7 12 8 25 2 45 8 60 16 6 5 12 6 12 2 0 -3 17 3 39 14 21 11 41 17
45 14 3 -4 6 -2 6 3 0 5 10 11 22 11 13 1 24 7 26 12 2 5 10 7 18 4 8 -3 14
-1 14 5 0 5 6 10 13 9 30 -1 48 4 43 11 -2 4 4 9 15 10 43 4 49 6 49 14 0 5 5
6 10 3 6 -3 10 -1 10 6 0 7 3 10 6 6 4 -3 20 1 36 9 16 9 43 16 58 16 16 1 28
4 26 7 -2 3 17 6 42 7 41 1 97 9 97 14 0 1 16 4 35 7 19 2 41 10 49 16 8 7 12
8 9 2 -4 -6 22 -10 70 -10 80 -1 132 -8 153 -21 8 -5 9 -3 4 6 -6 10 -4 11 6
4 8 -4 19 -9 24 -10 6 -1 24 -4 42 -7 17 -3 37 -8 44 -13 8 -5 10 -3 4 7 -8
12 -6 12 8 0 9 -7 17 -11 17 -7 0 3 12 1 26 -4 16 -6 23 -6 19 0 -3 5 6 3 21
-4 14 -8 37 -13 50 -11 20 2 26 -4 35 -36 7 -21 15 -36 19 -34 4 2 5 -7 2 -22
-4 -19 -2 -24 8 -18 8 5 11 4 7 -2 -9 -14 57 -256 67 -246 4 4 4 0 1 -9 -3 -8
1 -42 9 -75 16 -62 24 -99 25 -121 1 -8 6 -10 14 -6 9 6 9 5 0 -8 -7 -8 -10
-17 -8 -20 5 -5 8 -16 20 -78 3 -14 7 -36 10 -50 3 -14 7 -38 10 -55 3 -16 8
-41 10 -55 11 -52 15 -75 20 -115 3 -22 8 -47 10 -55 2 -8 7 -40 10 -70 3 -30
8 -62 10 -70 2 -8 7 -39 10 -69 4 -30 8 -61 10 -70 1 -9 6 -47 10 -84 3 -37 8
-76 10 -86 2 -10 7 -54 11 -97 3 -43 8 -92 10 -109 1 -16 5 -68 9 -115 4 -47
8 -96 10 -110 5 -33 18 -240 17 -263 0 -11 4 -15 11 -10 9 5 9 3 1 -8 -5 -8
-9 -23 -8 -34 1 -11 5 -74 9 -140 3 -66 8 -149 10 -185 2 -36 7 -123 10 -195
3 -71 8 -152 10 -180 22 -273 22 -410 0 -525 -2 -9 -6 -41 -10 -70 -4 -29 -8
-61 -10 -70 -2 -9 -6 -41 -10 -70 -4 -29 -8 -61 -10 -70 -2 -9 -6 -41 -10 -71
-3 -30 -8 -65 -10 -79 -2 -14 -6 -43 -9 -65 -3 -22 -8 -62 -12 -90 -4 -27 -7
-56 -7 -62 0 -18 -18 -16 -127 8 -52 11 -106 23 -120 25 -14 2 -36 7 -50 9
-59 12 -94 18 -177 31 -21 3 -49 7 -63 9 -14 2 -52 7 -85 11 -33 3 -68 8 -79
10 -97 18 -556 26 -666 12 -124 -17 -149 -21 -230 -45 -104 -30 -279 -113
-381 -181 -41 -28 -109 -86 -150 -129 -82 -86 -175 -225 -163 -244 4 -7 3 -9
-3 -6 -17 10 -87 -185 -107 -298 -3 -16 -8 -41 -11 -55 -21 -102 -28 -449 -13
-610 4 -41 7 -83 7 -93 1 -12 5 -16 14 -11 9 6 9 5 0 -8 -7 -8 -11 -17 -9 -19
2 -2 7 -26 10 -54 12 -91 48 -204 91 -288 24 -45 48 -81 55 -79 6 1 9 -2 5 -8
-8 -14 45 -81 58 -73 6 3 7 1 3 -5 -8 -14 34 -63 47 -55 6 3 7 1 4 -4 -8 -13
27 -46 38 -36 4 5 5 3 2 -3 -9 -15 60 -77 75 -68 6 4 8 3 4 -4 -10 -17 251
-202 276 -194 4 1 8 -3 8 -9 0 -6 7 -8 16 -5 8 3 13 2 10 -2 -5 -8 161 -97
194 -104 8 -2 21 -9 29 -16 8 -8 22 -11 33 -9 10 3 16 1 13 -3 -4 -7 14 -17
45 -25 3 -1 18 -7 33 -13 16 -7 33 -9 39 -6 6 4 8 3 5 -3 -7 -12 62 -35 76
-26 6 4 7 1 2 -7 -6 -10 -3 -12 13 -8 12 4 20 2 16 -3 -4 -8 17 -14 39 -10 4
0 7 -4 7 -10 0 -7 10 -9 25 -7 13 3 23 2 20 -1 -2 -4 9 -12 26 -18 18 -7 27
-8 23 -1 -4 5 4 3 18 -6 13 -8 33 -17 43 -19 11 -2 27 -7 35 -10 39 -15 118
-33 137 -32 12 1 20 -2 18 -6 -3 -4 10 -10 28 -13 35 -7 44 -9 131 -30 33 -8
63 -13 68 -10 4 3 8 0 8 -7 0 -8 5 -7 17 2 11 10 14 10 9 2 -5 -9 0 -13 16
-15 37 -2 42 -3 56 -11 6 -5 12 -6 12 -2 0 3 10 1 21 -6 17 -9 20 -8 13 3 -6
11 -5 11 9 -1 9 -7 26 -11 37 -8 11 3 18 1 14 -4 -3 -5 10 -10 28 -11 62 -3
67 -4 74 -11 4 -4 14 -1 22 6 13 9 14 9 8 0 -5 -9 -1 -13 11 -14 48 -4 78 -7
78 -9 0 -1 11 -3 25 -4 27 -3 84 -14 114 -23 14 -4 16 -2 10 8 -6 11 -5 12 7
3 15 -12 28 -15 89 -17 22 -1 40 -6 40 -10 0 -5 4 -6 9 -2 8 4 19 -16 27 -47
1 -5 2 -9 4 -10 1 -2 3 -10 5 -18 14 -52 39 -109 46 -104 5 3 6 -1 3 -9 -5
-15 85 -222 141 -323 22 -39 41 -62 47 -58 6 4 8 3 5 -4 -10 -15 3 -43 16 -35
5 3 7 2 4 -3 -7 -12 52 -100 65 -96 5 1 7 -2 4 -7 -12 -18 210 -275 227 -264
6 3 7 2 4 -4 -7 -11 -6 -12 123 -119 86 -72 210 -160 210 -149 0 3 10 -3 22
-14 11 -11 25 -18 30 -15 4 3 8 1 8 -4 0 -5 19 -17 43 -27 98 -42 127 -53 127
-48 0 3 7 0 15 -7 8 -6 19 -9 25 -5 5 3 10 1 10 -6 0 -7 3 -10 6 -6 3 3 23 -1
45 -8 21 -8 39 -11 39 -7 0 4 4 1 9 -6 5 -8 20 -15 35 -15 14 -1 26 -6 26 -11
0 -4 7 -6 15 -2 8 3 15 1 15 -5 0 -6 7 -9 15 -5 8 3 15 1 15 -5 0 -6 7 -9 15
-5 8 3 15 0 15 -6 0 -6 3 -9 6 -5 3 3 17 2 30 -3 14 -6 35 -12 47 -14 12 -2
40 -9 62 -15 22 -5 60 -13 84 -16 23 -3 46 -7 50 -9 4 -3 34 -8 66 -11 33 -4
62 -9 64 -11 2 -2 11 2 19 9 11 8 13 8 9 0 -5 -7 9 -12 43 -15 29 -2 50 1 50
7 0 6 4 5 8 -1 10 -16 252 -16 271 0 11 8 13 8 8 0 -4 -7 2 -12 18 -12 14 0
22 5 18 11 -3 5 -2 7 4 4 15 -9 79 -10 178 -2 111 9 113 9 121 18 4 4 13 2 21
-4 7 -6 13 -7 13 -2 0 5 16 7 36 5 29 -4 35 -2 28 9 -6 12 -5 12 8 1 13 -10
17 -10 21 0 4 10 6 10 6 1 1 -9 8 -10 24 -5 12 5 29 8 37 7 8 -1 21 4 29 9 11
8 13 8 8 -1 -6 -9 0 -9 23 -3 16 5 30 6 30 3 0 -3 8 1 17 8 9 8 14 9 10 3 -4
-7 4 -9 23 -6 17 2 28 7 26 11 -2 3 16 5 40 4 25 -1 43 1 40 5 -4 6 19 9 107
12 16 1 25 6 21 12 -5 7 -1 7 12 0 10 -5 27 -7 38 -2 12 4 29 6 39 5 9 -2 17
0 17 3 0 4 15 7 33 8 17 0 46 4 62 8 17 4 48 9 70 11 22 2 52 8 67 14 14 5 29
7 32 4 3 -4 6 -2 6 3 0 5 8 10 18 11 9 1 28 4 42 7 14 3 36 8 50 12 14 3 31 6
38 6 6 1 12 4 12 7 0 4 10 7 23 9 13 1 43 9 67 18 25 8 54 17 65 20 45 9 115
41 108 49 -5 4 -2 5 5 1 17 -10 163 45 155 58 -3 5 -1 6 5 2 11 -7 102 32 114
49 4 6 9 9 10 8 7 -6 48 10 48 19 0 5 4 7 9 4 5 -3 21 4 37 16 15 13 24 16 19
9 -4 -8 7 -3 26 10 19 14 46 31 61 39 15 7 25 17 22 21 -3 5 1 6 9 3 8 -3 27
5 43 18 16 13 55 40 87 61 35 23 55 42 51 49 -4 7 -3 8 4 4 10 -6 60 26 108
69 6 6 38 34 72 64 34 30 58 59 55 64 -3 6 -1 7 4 4 13 -8 188 178 187 198 -1
8 3 13 10 12 6 -1 10 4 8 11 -1 6 1 11 5 10 5 -2 10 2 11 7 2 6 7 12 11 15 14
9 111 150 103 150 -4 0 -2 4 4 8 11 7 62 94 96 165 10 21 16 43 12 49 -4 6 -3
8 3 5 13 -8 76 149 67 165 -4 6 -3 8 3 5 12 -8 35 71 26 86 -3 6 -1 7 4 4 6
-4 13 5 16 21 3 15 8 38 11 52 15 60 36 196 36 231 l0 39 103 -6 c56 -3 122
-7 147 -9 81 -6 412 -6 520 1 58 3 113 6 123 6 11 -1 15 4 10 11 -5 9 -3 9 8
1 8 -5 23 -9 34 -8 41 5 111 15 140 21 17 3 40 5 53 4 13 0 21 3 18 8 -4 5 3
7 14 4 11 -3 28 1 37 8 11 10 14 10 9 2 -5 -10 -1 -11 17 -4 23 9 78 21 105
23 6 1 12 4 12 7 0 3 10 7 23 7 42 3 118 29 110 38 -4 5 -3 6 3 3 15 -8 127
37 117 47 -4 4 0 4 9 1 9 -4 19 -1 23 4 3 6 11 9 16 6 5 -4 9 -1 9 4 0 6 6 10
13 9 6 -2 11 3 9 10 -1 8 2 11 9 7 14 -9 121 64 112 78 -4 6 -1 7 6 2 15 -8
83 53 75 67 -3 5 0 7 8 6 7 -2 12 3 10 10 -1 8 2 11 7 8 18 -11 102 133 105
178 0 13 3 22 6 20 6 -6 41 133 43 173 1 17 5 29 8 27 4 -2 9 15 13 39 4 23 8
55 11 71 2 16 7 31 10 34 2 3 -1 12 -8 20 -7 10 -8 13 -1 9 14 -8 20 24 19
115 0 36 3 64 7 62 8 -5 2 278 -7 316 -3 14 -8 36 -10 50 -9 60 -17 98 -27
135 -6 22 -12 43 -14 48 -1 4 -3 9 -4 12 -1 3 -3 8 -4 13 -27 119 -201 443
-315 585 -59 74 -140 166 -166 190 -83 78 -228 174 -370 245 -134 67 -529 209
-635 228 -14 3 -34 8 -45 11 -11 4 -24 8 -30 9 -34 9 -63 16 -85 20 -87 17
-106 28 -179 99 -561 544 -1206 890 -1656 888 -70 0 -158 -8 -205 -18 -14 -3
-40 -8 -59 -11 -111 -19 -310 -105 -435 -188 -103 -69 -202 -154 -198 -169 2
-7 0 -9 -4 -5 -10 11 -35 -12 -27 -25 3 -5 2 -7 -4 -4 -11 7 -25 -8 -118 -123
-140 -173 -282 -458 -309 -621 -3 -19 -8 -45 -12 -59 -8 -33 -13 -265 -7 -312
3 -25 9 -35 17 -31 7 4 6 1 -1 -9 -7 -8 -11 -17 -9 -19 3 -3 7 -16 9 -29 18
-98 84 -273 99 -264 7 4 8 2 4 -4 -10 -16 22 -74 36 -66 7 4 8 3 4 -4 -4 -6 1
-23 10 -37 9 -14 15 -25 13 -26 -2 0 -11 -2 -19 -4 -8 -1 -35 -6 -60 -10 -25
-3 -58 -8 -75 -11 -16 -3 -41 -7 -55 -9 -55 -8 -116 -18 -131 -20 -9 -2 -40
-6 -70 -10 -30 -3 -61 -8 -69 -10 -8 -2 -35 -7 -60 -10 -25 -3 -56 -8 -70 -10
-14 -2 -45 -7 -70 -10 -25 -3 -56 -8 -70 -10 -14 -2 -45 -7 -70 -10 -25 -3
-56 -8 -70 -10 -14 -2 -49 -7 -79 -10 -30 -4 -61 -8 -70 -10 -9 -1 -38 -6 -66
-9 -27 -4 -67 -9 -87 -12 -21 -3 -38 -3 -38 -1 0 3 7 24 15 47 8 23 12 46 9
51 -3 5 -1 9 4 9 5 0 9 6 9 13 0 11 14 63 69 241 13 43 22 82 19 86 -3 5 -2
10 3 12 10 4 53 144 55 180 1 14 5 24 9 22 10 -6 21 54 12 67 -4 7 -3 9 3 6
12 -8 46 109 37 125 -4 7 -2 8 4 4 8 -4 12 0 12 11 0 11 5 24 12 31 7 7 9 12
5 12 -4 0 -1 15 6 33 8 17 15 35 15 40 1 4 2 8 3 10 6 20 11 46 13 64 0 12 3
19 5 17 8 -8 61 178 54 189 -3 5 -1 7 4 4 13 -8 27 39 17 55 -4 6 -3 8 4 4 9
-5 21 24 23 59 1 6 4 12 8 15 14 9 41 91 35 102 -4 7 -2 8 4 4 7 -4 13 -1 13
8 2 18 3 24 13 51 67 181 87 246 79 258 -3 6 -1 7 5 3 8 -4 12 0 12 11 0 10 6
29 13 43 8 14 13 36 12 48 -1 12 1 20 3 17 8 -8 53 136 46 146 -3 5 0 9 6 9 7
0 10 6 7 14 -3 8 -2 16 3 18 5 2 11 14 14 28 3 14 14 57 26 95 42 140 61 225
54 237 -4 6 -3 8 3 5 6 -4 17 23 27 66 9 40 19 81 21 92 3 11 7 31 10 45 2 14
10 49 16 77 5 29 7 58 3 64 -4 8 -3 9 4 5 7 -4 13 0 13 11 4 47 7 78 9 78 5 0
12 56 14 101 0 29 4 50 9 47 4 -2 7 2 7 9 0 7 5 54 11 103 5 50 12 117 14 150
6 81 6 404 1 435 -3 14 -7 50 -10 80 -4 30 -8 66 -11 80 -3 13 -7 42 -10 65
-4 22 -11 58 -17 80 -6 22 -12 47 -13 55 -2 8 -4 15 -5 15 -1 0 -3 7 -5 16 -9
51 -43 148 -87 257 -61 150 -73 174 -83 164 -5 -4 -5 -2 -1 5 3 6 -4 31 -17
55 -13 24 -40 72 -59 108 -56 101 -297 483 -317 500 -3 3 -24 28 -45 55 -49
63 -254 267 -321 320 -27 22 -52 43 -55 46 -3 3 -41 33 -85 66 -288 217 -636
415 -876 499 -78 27 -89 30 -154 39 -22 4 -51 8 -65 10 -14 2 -54 6 -90 10
-36 3 -81 8 -100 10 -19 2 -66 7 -105 10 -431 38 -462 38 -570 10z m282 -169
c4 -3 13 0 21 7 11 8 14 9 9 0 -5 -7 -1 -11 10 -11 10 1 52 -2 93 -6 41 -4
102 -9 135 -12 33 -3 74 -6 90 -8 40 -4 184 -19 215 -21 14 -1 32 -5 40 -8 8
-3 36 -8 62 -11 26 -3 56 -10 68 -16 11 -6 26 -8 32 -4 7 5 8 3 3 -6 -6 -10
-1 -12 18 -8 15 3 24 2 22 -2 -5 -8 84 -46 98 -42 4 1 7 -2 7 -7 0 -9 58 -35
73 -32 4 0 7 -3 7 -8 0 -5 12 -14 28 -20 15 -5 59 -28 97 -51 39 -22 78 -43
88 -46 9 -4 17 -10 17 -15 0 -5 5 -9 11 -9 6 0 24 -9 40 -21 16 -11 29 -18 29
-15 0 3 12 -6 26 -19 15 -14 30 -25 35 -25 4 0 44 -26 90 -57 45 -32 100 -71
123 -87 22 -16 43 -31 46 -35 3 -3 21 -18 40 -32 19 -15 46 -37 60 -49 14 -12
52 -45 84 -73 33 -29 64 -51 69 -49 5 1 6 -1 3 -6 -3 -5 3 -15 12 -24 42 -37
133 -139 179 -200 28 -37 54 -64 58 -60 5 4 5 2 2 -4 -6 -11 97 -177 105 -169
3 3 5 -1 5 -7 0 -23 65 -118 75 -111 7 3 8 1 4 -6 -4 -6 8 -37 27 -69 19 -31
58 -100 85 -153 28 -54 54 -94 58 -90 4 3 4 1 0 -6 -9 -16 14 -64 27 -56 6 3
7 1 3 -5 -4 -6 1 -28 10 -49 14 -34 85 -234 84 -240 -1 -17 1 -23 8 -20 4 3 7
-7 8 -21 0 -25 5 -57 19 -122 25 -120 30 -186 30 -410 0 -188 -7 -321 -20
-401 -2 -13 -6 -42 -10 -64 -3 -22 -10 -65 -15 -95 -5 -30 -12 -68 -15 -85 -2
-16 -7 -41 -10 -55 -3 -14 -8 -38 -11 -54 -2 -16 -30 -126 -60 -245 -30 -119
-57 -223 -59 -231 -16 -62 -118 -376 -185 -570 -45 -129 -109 -311 -141 -405
-125 -363 -477 -1557 -503 -1707 -14 -75 -20 -171 -20 -303 1 -158 8 -243 28
-345 2 -8 7 -34 11 -57 4 -24 11 -40 16 -37 5 3 6 -1 3 -9 -11 -29 87 -274
105 -262 5 2 8 -3 7 -13 0 -9 4 -16 10 -15 7 1 11 -5 10 -15 0 -9 5 -16 12
-14 8 1 11 -2 8 -7 -9 -13 54 -82 67 -74 6 3 7 1 3 -5 -4 -7 18 -30 56 -58 78
-57 115 -77 130 -68 7 5 8 3 3 -6 -6 -10 -3 -12 13 -8 12 4 20 3 17 -2 -6 -10
24 -22 36 -14 5 3 9 1 9 -4 0 -5 6 -9 13 -9 6 0 28 -4 47 -8 54 -11 190 -11
190 0 0 7 3 7 8 0 4 -5 14 -10 22 -10 8 0 18 5 22 10 5 7 8 7 8 0 0 -6 26 -10
59 -10 33 0 57 4 54 9 -4 5 0 5 8 0 19 -12 72 -11 81 1 5 7 8 7 8 0 0 -6 51
-9 137 -8 242 3 403 8 403 13 0 3 25 5 55 4 30 0 55 2 55 5 0 3 17 7 37 7 89
3 94 4 87 17 -5 8 -2 8 9 -2 9 -7 17 -9 17 -4 0 5 10 9 23 9 48 0 117 17 110
27 -3 6 -1 7 6 3 14 -9 161 33 161 46 0 5 4 7 9 4 14 -9 42 5 34 17 -3 5 -1 7
4 4 14 -9 129 39 126 52 -2 6 4 8 12 5 8 -4 15 -1 15 6 0 6 5 8 10 5 6 -3 10
-1 10 5 0 6 4 9 9 6 8 -5 89 47 101 65 3 4 7 6 10 6 7 -2 119 75 146 101 13
13 24 20 24 16 0 -4 8 0 18 9 10 10 22 14 27 10 4 -5 5 -2 1 4 -4 8 -1 13 8
13 8 0 20 8 25 18 6 9 11 13 11 9 0 -5 6 -2 14 5 29 28 66 58 66 53 0 -3 24
12 54 34 29 22 57 37 61 33 5 -4 5 -2 1 5 -3 7 2 14 12 17 10 4 33 20 50 37
42 41 45 97 7 134 -44 45 -16 60 -420 -225 -132 -93 -263 -182 -292 -197 -28
-15 -49 -32 -46 -37 3 -5 1 -6 -4 -3 -6 4 -44 -9 -84 -27 -65 -30 -210 -77
-280 -91 -66 -14 -119 -22 -184 -29 -27 -3 -75 -9 -105 -12 -86 -10 -949 -11
-1005 -1 -141 24 -291 142 -364 287 -21 43 -37 81 -34 84 4 3 0 6 -7 6 -7 0
-11 2 -8 5 3 3 -4 38 -17 78 -12 40 -22 74 -22 77 0 3 -4 34 -9 70 -4 36 -8
73 -7 82 0 10 -2 18 -6 18 -6 0 -7 196 -1 286 2 27 0 56 -5 64 -6 9 -4 11 5 5
10 -6 12 0 8 24 -2 17 -2 31 2 31 8 0 10 10 13 62 1 20 5 34 8 33 3 -2 11 25
18 61 7 35 18 67 23 70 9 6 24 9 93 17 11 1 26 7 34 11 9 6 12 5 7 -2 -4 -8 3
-8 25 -2 18 5 36 7 40 4 5 -3 9 -1 9 3 0 5 12 8 28 7 15 0 30 4 34 10 5 7 8 7
8 -2 0 -7 4 -11 8 -8 12 7 58 16 112 22 25 2 54 6 65 8 11 2 48 7 82 11 35 4
61 10 59 14 -2 3 19 7 47 7 29 1 68 5 87 8 19 4 49 8 65 10 28 4 83 11 145 21
14 2 45 7 70 10 25 4 50 7 55 8 6 1 13 7 17 12 5 6 8 5 8 -3 0 -9 5 -10 18 -3
20 11 22 11 68 11 19 0 33 4 30 8 -3 5 9 6 26 4 24 -4 29 -2 23 9 -8 12 -6 12
8 0 9 -7 17 -10 17 -5 0 5 19 10 43 11 23 1 51 4 62 6 11 3 30 6 43 6 13 1 21
4 19 9 -3 4 11 8 31 8 66 2 112 9 112 16 0 4 9 5 20 3 11 -2 20 -1 20 3 0 4
15 8 33 9 49 2 77 7 77 13 0 3 12 6 28 7 15 0 50 4 77 8 70 10 166 10 260 1
44 -5 92 -9 108 -10 15 0 27 -5 27 -10 0 -5 3 -7 6 -4 3 4 33 -2 67 -11 34
-10 64 -19 67 -19 3 0 12 -3 20 -6 56 -18 86 -26 93 -23 4 1 11 -4 16 -11 4
-7 18 -14 29 -15 12 -1 22 -5 22 -9 0 -4 3 -7 8 -6 4 1 24 -6 46 -15 21 -9 43
-14 49 -10 5 3 7 2 4 -4 -8 -13 38 -37 54 -28 7 5 10 4 6 -2 -7 -12 90 -66
104 -58 5 4 8 1 7 -7 -2 -7 5 -12 15 -12 10 1 16 -1 12 -4 -3 -3 16 -19 42
-35 27 -17 48 -28 48 -26 0 2 11 -7 25 -19 14 -13 61 -51 105 -84 44 -33 110
-91 147 -128 37 -37 70 -65 73 -61 4 3 5 2 4 -4 -6 -16 43 -95 54 -88 6 3 7 1
4 -4 -4 -6 11 -40 33 -76 21 -36 68 -124 103 -196 35 -72 68 -127 72 -123 5 4
5 2 2 -5 -4 -6 11 -55 33 -110 41 -104 104 -311 114 -378 24 -166 24 -305 1
-408 -3 -12 -7 -33 -9 -47 -3 -14 -7 -34 -10 -45 -3 -11 -7 -29 -10 -40 -11
-50 -72 -208 -109 -285 -23 -47 -41 -91 -40 -98 1 -7 -1 -11 -4 -8 -3 3 -30
-33 -59 -80 -55 -88 -169 -239 -198 -263 -9 -7 -13 -18 -9 -25 3 -6 3 -8 -1
-5 -4 4 -42 -27 -84 -68 -283 -275 -634 -473 -1077 -608 -141 -43 -121 -38
-286 -74 -143 -31 -206 -41 -350 -56 -31 -3 -67 -8 -79 -10 -12 -2 -48 -7 -79
-11 -31 -3 -63 -8 -71 -9 -8 -2 -44 -6 -80 -10 -36 -4 -74 -9 -85 -11 -11 -2
-49 -7 -85 -10 -36 -3 -81 -7 -100 -10 -58 -6 -310 -17 -395 -17 -93 0 -299
11 -335 18 -14 3 -45 8 -70 11 -67 8 -247 50 -309 71 l-55 18 -82 135 c-46 74
-89 146 -96 160 -7 14 -29 52 -49 85 -83 139 -161 302 -231 480 -41 105 -79
199 -83 210 -5 11 -9 22 -10 25 -1 3 -6 20 -10 37 -4 18 -10 31 -14 29 -3 -2
-7 6 -8 17 0 12 -7 36 -14 52 -6 17 -13 35 -14 40 -2 6 -8 30 -16 55 -7 25
-14 50 -15 55 -2 6 -6 24 -9 40 -3 17 -11 48 -17 70 -10 39 -13 54 -23 105 -3
14 -7 36 -10 50 -7 36 -29 156 -40 216 -5 31 -18 138 -17 144 0 3 -5 11 -11
19 -7 8 -7 12 -2 9 7 -4 10 82 11 250 0 282 7 388 30 451 8 23 18 84 18 113 1
14 4 24 7 22 3 -1 11 25 18 59 6 34 15 73 18 87 4 14 7 37 7 52 1 14 5 24 10
21 5 -3 7 8 4 25 -3 19 0 29 5 25 6 -4 8 3 5 15 -4 14 -2 20 4 16 7 -5 9 2 6
19 -3 15 -2 24 2 22 6 -4 31 99 34 142 0 11 4 19 9 16 4 -2 7 3 7 11 0 25 1
29 15 64 8 17 12 32 9 32 -3 0 -2 6 3 13 9 14 15 43 17 74 1 11 5 19 10 16 5
-3 7 6 4 20 -3 15 -2 24 2 22 5 -3 45 116 64 196 13 52 37 123 45 133 13 16
56 157 55 183 0 12 3 20 7 17 7 -4 18 41 22 88 1 14 4 25 6 22 3 -3 38 118 65
226 2 8 13 51 24 94 12 44 18 84 15 89 -4 6 -1 7 7 2 10 -6 12 0 8 23 -2 17
-2 29 2 27 9 -6 41 135 34 147 -4 6 -2 8 3 5 11 -7 22 32 26 90 1 17 5 29 10
26 4 -2 7 2 8 9 1 23 9 59 30 142 21 81 25 97 34 137 2 12 7 24 10 27 2 3 -1
12 -7 21 -7 9 -8 13 -3 8 9 -8 33 48 41 98 3 17 9 56 15 88 5 31 7 62 4 67 -3
6 -1 10 6 10 8 0 7 5 -2 17 -10 11 -10 14 -1 9 8 -5 12 -1 13 11 0 10 2 27 3
38 14 97 20 156 20 192 1 22 4 39 8 37 4 -3 6 4 6 13 0 10 2 54 6 98 14 153
15 192 15 435 0 251 -4 379 -13 416 -3 12 -8 39 -12 60 -3 21 -17 91 -30 154
-14 63 -27 126 -30 140 -3 14 -8 34 -11 45 -4 11 -8 25 -9 31 -13 71 -68 224
-119 330 -167 347 -340 545 -585 669 -54 27 -146 62 -185 71 -102 21 -127 25
-161 29 -21 2 -83 5 -138 6 -54 1 -115 5 -135 10 -46 10 -87 18 -131 25 -19 3
-42 7 -50 9 -8 3 -33 7 -55 10 -22 4 -47 8 -55 10 -8 2 -28 7 -45 10 -16 2
-41 7 -55 10 -13 2 -40 7 -60 10 -20 3 -47 7 -60 10 -13 3 -42 7 -63 10 -22 4
-98 17 -171 30 -127 23 -286 27 -356 11 -162 -38 -213 -24 -305 85 -17 20 -20
36 -19 89 3 90 13 210 20 240 9 41 12 55 14 55 1 0 3 8 5 18 3 15 26 57 68
121 6 11 32 38 56 60 24 23 60 56 80 75 20 19 37 32 38 30 0 -2 29 22 62 53
34 31 61 55 61 53 0 -2 17 13 38 33 90 89 315 232 387 246 11 2 34 10 50 16
17 7 43 14 60 16 16 3 33 8 37 12 9 9 196 7 205 -2z m-1235 -1271 l18 -23 -53
-18 c-28 -10 -55 -19 -59 -20 -5 -1 -9 -2 -10 -4 -2 -1 -10 -3 -18 -6 -8 -2
-73 -23 -145 -48 -71 -24 -171 -55 -221 -69 l-92 -24 3 36 c1 20 -2 42 -8 49
-7 9 4 12 52 11 39 -1 67 3 78 12 9 8 14 9 10 3 -4 -7 4 -9 23 -6 17 2 28 7
26 11 -2 3 8 7 22 7 15 1 38 4 52 7 14 3 31 6 38 6 8 1 10 6 6 14 -5 8 -2 8 9
-2 11 -9 17 -10 17 -2 0 6 3 10 8 9 15 -3 62 15 57 22 -3 5 4 6 15 3 11 -3 20
-1 20 4 0 5 6 10 13 10 18 1 41 7 47 13 8 8 54 29 65 29 6 0 18 -10 27 -24z
m1172 -187 c-5 -7 -2 -9 7 -6 8 3 23 2 34 -2 11 -4 26 -3 34 4 12 9 13 8 6 -3
-6 -11 -3 -13 13 -9 14 4 20 2 16 -4 -4 -6 -1 -8 7 -6 8 3 22 1 33 -4 14 -8
17 -7 10 4 -6 10 -5 11 7 1 8 -6 32 -14 53 -17 22 -4 42 -9 44 -11 3 -3 12 1
20 8 11 8 14 8 9 0 -4 -6 -3 -13 3 -15 6 -2 15 -31 22 -65 6 -34 14 -60 17
-59 3 2 6 -10 5 -27 -1 -45 6 -68 20 -60 7 4 6 1 -1 -9 -7 -8 -10 -17 -7 -20
2 -3 7 -18 10 -34 3 -16 7 -33 8 -39 10 -38 24 -116 25 -133 1 -8 6 -10 14 -6
9 5 9 4 0 -6 -8 -9 -9 -20 -2 -39 6 -14 10 -27 10 -28 -4 -15 1 -43 7 -40 4 3
7 -9 8 -26 0 -28 6 -93 19 -217 12 -113 20 -322 20 -510 0 -207 -12 -490 -21
-499 -2 -2 2 -11 9 -19 6 -9 7 -13 1 -9 -7 4 -12 -11 -13 -46 -1 -29 -3 -62
-5 -73 -2 -10 -7 -50 -10 -89 -4 -38 -9 -81 -11 -95 -2 -14 -6 -50 -10 -80 -7
-63 -14 -124 -20 -160 -2 -14 -7 -45 -10 -70 -21 -156 -34 -206 -36 -139 0 19
-2 57 -4 84 -1 28 -6 97 -9 155 -11 190 -16 274 -21 335 -3 33 -7 101 -10 150
-3 50 -7 108 -10 130 -2 22 -7 67 -9 100 -9 101 -18 189 -22 220 -2 17 -6 59
-9 95 -3 36 -7 76 -10 90 -3 14 -7 43 -9 65 -2 22 -7 59 -10 83 -3 23 -8 61
-11 85 -3 23 -8 53 -10 67 -3 14 -7 41 -10 60 -6 41 -23 134 -30 170 -3 14 -8
45 -11 70 -3 25 -8 48 -10 51 -2 4 -6 24 -9 45 -4 22 -8 47 -11 56 -3 10 -7
30 -10 45 -3 15 -14 63 -25 107 -30 123 -31 130 -32 144 0 6 -3 12 -7 12 -3 0
-6 8 -7 18 0 9 -3 26 -6 37 -4 11 -8 29 -11 40 -16 61 -35 124 -40 133 -3 6 0
13 6 15 19 8 20 8 12 -5z m621 -78 c33 -6 89 -20 125 -32 36 -12 68 -21 73
-20 4 1 7 -3 7 -9 0 -5 4 -8 9 -4 5 3 13 0 16 -6 4 -5 14 -8 22 -5 8 3 12 2 9
-3 -3 -5 9 -16 28 -25 49 -23 148 -100 214 -165 32 -31 60 -55 65 -53 4 1 6
-1 5 -5 -5 -16 23 -53 35 -47 7 4 9 4 5 -1 -11 -11 11 -47 24 -39 6 4 8 3 4
-4 -3 -6 5 -28 20 -49 26 -39 94 -176 94 -191 0 -5 -17 -7 -37 -6 -21 1 -94 5
-163 8 -69 3 -136 8 -150 11 -13 2 -42 7 -65 11 -108 15 -200 42 -290 85 -81
38 -105 59 -110 94 -2 17 -7 41 -10 55 -2 14 -9 48 -15 75 -5 28 -12 61 -15
75 -3 14 -7 36 -10 50 -3 14 -7 35 -10 48 -3 12 -7 32 -10 45 -5 22 -14 69
-19 97 -5 28 31 30 149 10z m5 -711 c0 -4 12 -10 28 -15 35 -10 32 -9 67 -23
17 -8 42 -14 57 -15 14 0 24 -5 20 -10 -3 -5 5 -7 16 -4 12 4 22 3 22 -1 0 -6
30 -12 78 -15 12 0 22 -5 22 -10 0 -5 8 -2 17 5 11 10 14 10 9 2 -5 -9 2 -13
23 -14 17 -1 37 -2 44 -3 6 -1 18 3 26 8 12 9 13 8 6 -3 -6 -11 -1 -13 24 -9
17 2 31 2 31 -1 0 -10 65 -7 72 4 5 6 8 6 8 -1 0 -7 42 -10 131 -9 97 1 132
-2 136 -11 4 -12 11 -41 12 -57 1 -5 5 -5 11 -2 5 3 7 0 5 -7 -6 -16 39 -211
46 -203 3 3 3 -9 1 -26 -3 -18 -1 -29 4 -26 5 3 10 -11 10 -31 1 -21 5 -55 9
-77 4 -22 7 -42 7 -45 2 -28 -7 -29 -254 -26 -139 2 -264 6 -278 9 -14 3 -41
8 -60 11 -19 3 -44 8 -55 10 -11 3 -31 7 -45 10 -60 13 -132 40 -186 70 -59
33 -59 33 -61 82 -4 149 -17 338 -27 415 -2 16 2 26 11 26 7 0 13 -4 13 -8z
m30 -682 c0 -5 7 -6 16 -3 8 3 13 2 10 -3 -7 -10 64 -32 77 -24 6 3 7 2 4 -3
-7 -13 78 -38 94 -28 7 4 9 3 6 -3 -8 -13 77 -28 95 -17 7 4 8 3 4 -4 -5 -8 1
-12 16 -11 13 1 34 -2 48 -5 14 -4 74 -9 133 -11 60 -3 113 -7 118 -11 5 -3 9
0 9 6 0 8 6 8 20 0 14 -8 20 -8 20 0 0 8 6 8 20 0 14 -8 20 -8 20 0 0 6 5 8
12 4 6 -4 32 -6 57 -5 25 2 64 3 86 4 22 1 42 5 45 9 3 4 12 3 20 -2 10 -6 14
-36 15 -119 0 -61 4 -113 8 -117 3 -4 3 -12 -1 -18 -3 -6 -7 -67 -8 -136 -1
-69 -2 -134 -3 -146 -1 -19 -6 -20 -83 -18 -286 8 -477 26 -628 60 -14 3 -36
7 -50 10 -14 3 -72 21 -130 40 l-105 35 0 48 c0 27 3 47 6 45 4 -2 7 9 6 24 0
48 15 327 18 331 2 1 0 14 -6 28 -6 17 -6 22 2 17 7 -4 9 0 5 13 -4 14 -2 20
9 20 8 0 15 -5 15 -10z m8 -707 c35 -11 69 -17 74 -13 7 4 8 1 3 -7 -6 -10 -3
-12 13 -8 12 3 22 2 24 -2 3 -9 56 -21 105 -23 17 -1 29 -5 27 -8 -5 -9 64
-21 76 -14 6 3 10 2 10 -2 0 -8 32 -14 93 -17 15 0 27 -3 27 -6 0 -3 19 -7 43
-8 23 -1 74 -4 112 -7 150 -12 180 -12 194 -1 11 8 13 8 7 -1 -4 -7 -3 -13 1
-13 5 0 15 6 22 13 8 6 11 7 8 1 -5 -8 7 -11 36 -10 47 1 45 4 33 -86 -3 -27
-9 -69 -12 -95 -3 -27 -7 -59 -9 -73 -2 -14 -7 -47 -11 -75 -3 -27 -8 -59 -10
-70 -2 -10 -6 -37 -10 -59 -3 -22 -8 -45 -11 -50 -5 -8 -342 -1 -438 9 -159
17 -185 21 -316 50 -58 12 -136 39 -185 62 -50 23 -54 28 -50 52 3 14 8 42 11
61 3 19 7 46 10 60 2 14 7 50 10 80 3 30 8 66 10 80 3 14 7 50 10 80 3 30 7
64 10 75 2 11 4 26 4 33 1 16 4 15 79 -8z m3700 -501 c15 4 39 4 55 0 18 -5
27 -4 27 4 0 9 3 8 8 -1 5 -7 22 -10 40 -8 19 2 29 -1 25 -7 -3 -6 8 -8 30 -5
20 2 34 1 31 -3 -2 -4 5 -9 16 -12 12 -3 18 -1 14 5 -4 6 6 2 22 -8 15 -11 25
-14 21 -7 -5 8 1 8 19 -2 15 -8 31 -12 36 -9 4 3 8 0 8 -7 0 -7 3 -10 6 -6 4
3 20 -1 36 -9 23 -12 28 -12 22 -2 -4 7 2 4 14 -6 12 -11 22 -16 22 -12 0 4 6
4 13 -1 6 -4 14 -8 17 -9 3 0 32 -13 65 -28 33 -16 66 -29 73 -29 6 0 12 -4
12 -7 0 -8 65 -37 66 -30 0 3 9 -3 19 -13 9 -10 24 -16 32 -13 8 3 12 2 9 -3
-5 -8 12 -20 24 -17 3 0 12 -5 20 -12 25 -21 213 -142 222 -142 4 0 8 -5 8
-12 0 -6 3 -9 6 -5 3 3 18 -5 33 -19 14 -13 32 -22 38 -19 7 2 12 1 10 -4 -1
-5 54 -53 123 -109 69 -55 142 -115 163 -134 l37 -35 -72 14 c-88 16 -109 20
-168 28 -25 3 -57 8 -72 11 -71 11 -87 13 -138 19 -30 3 -66 8 -80 10 -14 2
-52 6 -85 10 -33 3 -76 8 -95 10 -58 7 -203 19 -360 30 -36 2 -143 7 -237 10
l-173 6 -25 -25 c-16 -16 -25 -36 -25 -56 0 -37 17 -73 31 -65 5 4 8 1 7 -6
-2 -10 16 -14 68 -15 39 -2 96 -4 127 -7 38 -3 55 -1 50 6 -4 6 -1 7 8 1 16
-9 17 -10 177 -17 62 -4 118 -9 124 -13 7 -5 8 -3 3 6 -6 10 -4 11 6 4 8 -5
25 -9 39 -10 14 -1 57 -5 95 -9 39 -4 90 -8 115 -10 25 -2 54 -6 64 -11 15 -6
17 -4 11 7 -8 12 -6 12 8 0 9 -7 24 -11 32 -7 8 3 15 2 15 -2 0 -5 21 -9 47
-11 26 -1 49 -4 52 -6 2 -3 11 1 19 8 9 6 13 7 9 1 -4 -7 13 -14 48 -21 35 -6
52 -6 48 0 -4 6 -1 7 8 1 8 -4 21 -10 29 -11 66 -11 110 -17 137 -17 17 -1 29
-5 26 -10 -3 -5 8 -7 25 -4 17 2 29 1 26 -4 -3 -4 7 -8 23 -9 15 0 35 -2 43
-4 133 -27 227 -48 234 -53 5 -3 6 0 2 6 -3 6 7 4 24 -4 16 -9 48 -16 69 -17
21 -1 37 -6 34 -11 -3 -5 8 -7 25 -4 17 2 29 2 27 -2 -6 -9 124 -42 137 -34 6
4 8 3 5 -3 -4 -6 5 -13 21 -16 40 -7 64 -14 95 -26 15 -6 27 -8 27 -5 0 4 6 1
13 -5 8 -6 22 -12 33 -14 10 -2 27 -7 36 -12 10 -4 29 -8 42 -9 13 0 22 -4 19
-8 -4 -7 15 -12 44 -11 7 1 10 -4 6 -10 -4 -6 2 -8 15 -5 14 4 20 2 15 -5 -4
-6 2 -8 15 -5 12 4 20 3 17 -2 -6 -10 75 -41 88 -33 6 4 7 1 2 -7 -6 -10 -3
-12 13 -8 12 4 20 3 17 -1 -6 -11 44 -33 58 -25 7 4 9 4 5 0 -4 -5 22 -23 57
-42 177 -92 320 -211 420 -349 71 -97 98 -130 107 -127 5 1 7 -2 4 -7 -9 -13
55 -112 67 -104 6 3 7 1 4 -5 -10 -15 3 -43 16 -35 5 3 7 1 4 -4 -9 -14 57
-145 68 -136 4 5 5 2 1 -5 -9 -16 15 -83 27 -75 6 3 7 2 4 -4 -3 -5 5 -49 18
-96 13 -48 27 -111 30 -139 4 -29 9 -69 12 -88 2 -19 4 -82 4 -140 0 -121 -7
-196 -26 -300 -3 -14 -7 -39 -10 -56 -14 -91 -68 -272 -91 -312 -87 -148 -304
-266 -599 -326 -115 -23 -117 -24 -176 -31 -30 -3 -65 -8 -79 -10 -29 -5 -111
-12 -230 -20 -197 -14 -747 -2 -765 17 -2 2 -6 19 -9 38 -18 118 -19 119 -30
165 -10 41 -16 66 -21 88 -20 93 -128 371 -140 360 -4 -5 -5 -2 -1 4 14 25
-255 530 -276 517 -4 -3 -5 1 -3 8 5 13 -104 133 -179 196 l-39 32 69 1 c38 1
99 1 136 1 47 1 65 4 61 12 -4 6 1 5 10 -3 14 -11 17 -11 17 0 0 9 3 10 8 4 4
-6 18 -10 32 -8 14 1 46 3 72 5 29 1 44 6 40 13 -3 5 2 4 11 -4 9 -7 17 -10
17 -5 0 5 25 8 55 8 30 -1 55 2 55 6 0 4 18 5 41 3 22 -2 39 -1 36 4 -3 4 21
8 54 7 32 0 59 2 59 5 0 3 21 7 48 8 26 0 58 4 72 6 14 3 38 6 53 6 16 1 26 4
23 9 -2 4 13 6 35 5 22 -1 38 1 35 5 -2 4 14 6 36 4 28 -3 38 -1 34 7 -4 7 -1
9 7 5 20 -7 138 15 156 29 12 10 13 9 6 -2 -5 -8 6 -5 23 8 18 12 32 20 32 16
0 -3 6 0 14 7 8 7 11 17 8 22 -3 5 0 6 6 2 25 -15 112 104 115 157 1 19 5 33
8 31 21 -13 19 207 -2 251 -16 34 -52 55 -81 47 -31 -8 -56 -57 -51 -100 13
-100 5 -163 -25 -210 -20 -31 -89 -69 -137 -76 -23 -4 -50 -8 -60 -10 -11 -2
-40 -7 -65 -11 -25 -4 -52 -9 -60 -10 -8 -2 -37 -6 -65 -9 -27 -4 -61 -9 -75
-11 -38 -6 -111 -14 -252 -30 -24 -2 -77 -7 -118 -10 -41 -3 -102 -8 -135 -10
-33 -3 -170 -7 -304 -10 -138 -2 -248 -9 -255 -14 -8 -7 -30 1 -72 26 -159 96
-384 193 -554 238 -11 3 -117 26 -140 30 -120 23 -329 24 -445 1 -11 -2 -36
-6 -55 -10 -19 -3 -44 -8 -55 -10 -11 -2 -36 -6 -55 -10 -19 -3 -46 -8 -60
-11 -14 -3 -46 -8 -72 -11 -41 -5 -49 -3 -55 12 -3 11 -9 21 -13 24 -18 14
-76 110 -106 175 -58 127 -79 225 -79 385 0 107 8 170 31 250 9 30 16 63 17
72 1 9 5 14 9 12 4 -3 8 1 8 9 0 16 82 180 101 203 6 8 8 14 3 14 -5 0 -4 4 1
8 22 16 75 104 69 114 -4 6 -3 8 3 5 15 -9 36 19 27 35 -4 7 -4 10 0 6 10 -8
46 23 46 40 0 7 5 10 12 6 8 -5 9 -2 5 9 -3 9 -3 16 1 14 11 -3 98 85 94 96
-1 4 1 6 6 3 5 -3 27 12 50 34 23 21 42 37 42 34 0 -2 9 4 19 13 11 9 18 20
16 24 -3 4 3 6 13 5 9 0 16 5 14 12 -1 8 1 11 6 8 5 -3 30 8 55 24 25 15 48
26 51 23 3 -4 6 -1 6 5 0 6 16 16 35 23 19 7 35 16 35 21 0 4 7 4 17 1 12 -5
14 -3 8 7 -5 8 -4 11 3 7 13 -9 44 2 37 13 -3 5 5 6 17 2 11 -3 19 -1 16 4 -4
5 6 9 21 10 16 1 42 8 60 17 17 9 29 11 26 6 -4 -5 4 -5 19 1 14 5 26 7 26 4
0 -3 6 -2 13 3 12 8 20 9 99 15 27 1 48 8 49 13 0 6 3 5 5 -2 3 -7 15 -8 32
-4z m-3842 -167 c28 -26 266 -98 284 -87 5 3 10 2 10 -3 0 -5 6 -9 13 -9 25 0
112 -14 116 -18 2 -3 11 1 19 8 13 9 14 9 8 0 -5 -9 0 -13 16 -14 13 -1 37 -3
53 -4 17 -2 106 -7 200 -10 93 -3 171 -8 173 -10 2 -2 14 0 27 5 19 7 22 6 19
-8 -2 -9 -12 -53 -23 -97 -11 -44 -22 -91 -25 -105 -5 -23 -9 -42 -21 -90 -3
-11 -7 -29 -10 -40 -3 -11 -7 -29 -10 -40 -11 -46 -14 -56 -24 -87 -5 -17 -6
-35 -3 -39 7 -6 -186 2 -238 10 -14 3 -45 7 -70 10 -58 8 -93 14 -155 27 -27
6 -61 13 -75 15 -60 12 -210 68 -269 101 -82 46 -151 111 -130 124 8 5 11 9 8
9 -4 0 1 33 11 74 9 40 16 87 16 104 -1 16 3 28 8 25 5 -3 7 8 4 25 -2 17 -1
29 3 27 4 -3 10 20 14 50 5 43 10 55 24 55 9 0 21 -4 27 -8z m-131 -573 c-10
-16 99 -84 117 -73 6 4 8 2 4 -4 -6 -10 30 -28 47 -24 4 1 7 -2 7 -7 0 -5 7
-12 16 -15 10 -4 13 -2 8 7 -4 6 2 3 14 -7 12 -11 22 -16 22 -11 0 4 6 3 13
-2 21 -18 112 -44 159 -46 14 -1 24 -5 21 -9 -2 -5 6 -9 19 -9 36 -2 60 -7 96
-18 24 -7 31 -7 25 2 -5 8 -2 8 9 -1 8 -6 40 -13 71 -15 32 -1 57 -4 57 -7 0
-4 10 -6 23 -7 47 -1 170 -12 172 -15 2 -2 -21 -93 -51 -203 -29 -110 -56
-209 -58 -220 -18 -75 -21 -80 -57 -79 -39 1 -160 17 -223 30 -11 2 -32 6 -46
9 -14 3 -35 7 -47 10 -13 3 -31 7 -41 9 -9 2 -37 10 -62 17 -25 7 -47 13 -50
14 -3 0 -23 7 -45 14 -173 58 -317 168 -306 234 3 15 12 93 16 131 3 21 7 57
11 80 3 23 8 52 9 66 1 14 6 45 10 70 4 25 8 54 8 65 1 13 8 21 18 21 10 0 16
-3 14 -7z m-1426 -663 c54 1 104 5 111 9 8 5 11 4 6 -3 -4 -7 9 -11 41 -10 27
0 50 -1 53 -2 9 -3 163 -12 222 -14 31 0 54 -4 51 -8 -2 -5 13 -8 34 -9 21 0
45 -2 53 -3 8 -2 40 -6 69 -10 30 -4 57 -9 60 -11 2 -3 11 1 19 8 10 7 13 8 9
1 -9 -16 38 -24 54 -10 9 8 10 8 5 -1 -5 -9 0 -13 13 -14 12 -1 24 -2 29 -3
11 -3 94 -19 117 -22 11 -2 49 -10 84 -19 36 -9 71 -13 78 -10 8 2 11 0 8 -5
-3 -6 1 -10 9 -10 12 0 15 -8 11 -35 -10 -68 -14 -101 -21 -160 -3 -33 -8 -68
-9 -77 -2 -9 -7 -48 -10 -85 -4 -37 -8 -79 -11 -93 -2 -14 -7 -56 -10 -95 -8
-88 -8 -88 -16 -100 -6 -10 -532 -12 -608 -2 -19 3 -62 8 -95 12 -198 24 -408
110 -514 211 -20 19 -46 37 -59 40 -51 14 -102 -61 -78 -116 17 -38 63 -83 77
-74 7 4 9 3 6 -4 -13 -19 200 -152 217 -135 3 4 6 1 6 -5 0 -10 47 -25 63 -20
4 2 11 -2 15 -9 4 -6 21 -14 37 -17 17 -2 30 -5 30 -6 0 -1 7 -3 15 -5 8 -2
29 -6 45 -10 17 -3 41 -8 55 -10 14 -2 25 -4 25 -5 0 -12 173 -23 440 -26 160
-2 293 -3 297 -4 3 0 6 -33 7 -72 0 -40 3 -98 5 -128 2 -30 7 -136 11 -235 7
-181 10 -243 20 -368 2 -37 7 -100 10 -140 7 -100 14 -177 19 -207 3 -14 7
-45 10 -70 3 -25 8 -55 10 -66 2 -12 7 -37 10 -55 3 -19 8 -45 11 -59 3 -14 7
-36 10 -50 10 -51 13 -66 23 -105 6 -22 13 -53 16 -70 13 -72 40 -154 49 -148
6 4 7 1 2 -6 -7 -12 -85 -10 -158 5 -12 2 -39 6 -62 9 -69 11 -107 16 -129 21
-11 2 -37 7 -56 10 -19 3 -78 15 -130 26 -52 10 -106 22 -120 24 -14 3 -33 7
-42 10 -9 3 -26 7 -37 9 -12 3 -31 7 -43 10 -13 3 -30 8 -38 9 -136 32 -376
107 -525 163 -580 219 -917 497 -990 817 -24 106 -43 274 -49 421 -1 33 -6 66
-10 74 -6 8 -5 12 0 8 6 -3 10 23 10 61 1 113 15 248 35 325 5 20 7 43 3 49
-4 7 -3 8 4 4 8 -5 12 1 12 18 0 14 4 27 9 30 5 4 8 17 6 31 -1 14 0 23 3 20
9 -8 33 56 25 68 -3 5 -1 7 5 3 6 -3 14 4 18 16 4 13 16 35 27 49 11 16 16 32
12 41 -5 7 -5 10 0 6 10 -9 86 83 78 95 -3 6 -1 7 5 3 7 -4 12 -2 12 4 0 6 5
8 12 4 8 -5 9 -2 4 12 -4 10 -4 15 0 12 4 -4 25 8 48 26 22 18 55 41 73 51 18
10 29 23 26 28 -3 6 -1 7 4 4 14 -9 115 47 106 58 -5 4 -2 5 5 1 17 -10 74 13
65 27 -3 5 -2 7 4 4 10 -7 107 26 99 34 -2 2 8 5 22 6 15 1 59 9 97 18 102 24
102 24 156 26 27 2 49 7 50 13 0 7 2 7 5 1 2 -6 45 -10 103 -9z m1321 -7 c0
-6 7 -8 16 -5 8 3 13 2 10 -3 -6 -9 44 -47 57 -43 4 1 7 -3 7 -9 0 -6 7 -9 15
-5 8 3 14 0 12 -7 -1 -7 6 -11 15 -11 10 1 16 -1 14 -5 -8 -12 122 -63 137
-54 6 4 7 1 2 -7 -6 -10 -4 -12 8 -7 10 4 17 1 17 -5 0 -6 3 -9 6 -5 4 3 22 0
40 -8 19 -8 34 -12 34 -9 0 3 10 0 21 -7 13 -7 19 -7 15 -1 -3 6 6 5 21 -3 16
-7 50 -16 77 -20 27 -3 52 -8 55 -9 9 -5 120 -18 166 -20 22 0 43 -5 46 -9 3
-4 -27 -120 -66 -257 -40 -137 -70 -251 -68 -254 3 -3 -5 -3 -18 -1 -13 2 -49
6 -80 10 -31 3 -67 8 -80 10 -13 3 -39 7 -59 10 -30 5 -124 26 -170 40 -174
49 -339 149 -327 196 3 11 0 19 -6 19 -8 0 -8 3 -2 8 11 8 12 12 19 73 2 24 8
71 12 104 4 33 8 79 8 102 1 22 4 39 7 37 3 -2 7 13 8 34 5 83 9 127 10 130 4
7 21 0 21 -9z m-63 -721 c7 -1 10 -4 8 -8 -6 -10 45 -31 57 -24 6 4 8 2 5 -3
-6 -10 50 -40 66 -35 4 1 7 -2 7 -7 0 -8 148 -67 189 -75 9 -2 24 -6 34 -11 9
-4 24 -4 33 -1 8 3 12 2 9 -4 -3 -5 3 -9 12 -9 10 0 35 -4 55 -9 28 -7 36 -7
31 2 -5 8 -3 8 8 -1 11 -9 74 -19 146 -22 8 -1 8 -15 -2 -53 -8 -29 -16 -64
-19 -78 -3 -14 -7 -34 -10 -45 -20 -85 -36 -154 -40 -175 -2 -14 -10 -50 -17
-80 -7 -30 -12 -60 -12 -67 0 -7 -3 -10 -7 -8 -3 2 -29 7 -56 10 -27 4 -57 9
-66 11 -10 3 -30 7 -45 10 -16 3 -46 10 -68 16 -22 5 -40 9 -40 9 0 -4 -116
39 -160 59 -56 25 -129 73 -160 105 -15 15 -21 36 -23 85 -1 36 -4 87 -5 114
-2 27 0 69 3 92 4 26 2 48 -4 55 -8 9 -8 10 2 5 11 -7 13 3 12 77 0 1 4 16 9
34 7 22 6 34 -2 38 -7 3 -1 3 13 -1 14 -3 30 -6 37 -6z m-31 -697 c-8 -12 22
-23 37 -14 7 3 9 2 4 -2 -9 -11 70 -58 83 -50 6 3 10 1 10 -5 0 -7 7 -9 16 -6
8 3 13 2 10 -2 -2 -4 34 -21 80 -38 46 -17 81 -26 77 -20 -4 6 1 5 10 -2 9 -8
22 -10 28 -6 7 4 9 3 6 -3 -8 -13 77 -28 95 -17 7 5 8 3 4 -5 -5 -8 -3 -11 5
-10 8 2 32 -1 55 -5 l41 -7 -5 -42 c-2 -23 -5 -140 -6 -259 l-1 -217 -35 5
c-19 3 -46 7 -60 10 -14 2 -41 7 -60 10 -61 10 -190 55 -282 96 -66 31 -92 48
-102 70 -8 15 -10 25 -4 22 6 -4 8 1 5 12 -6 18 -14 102 -22 234 -16 231 -16
243 -3 251 17 11 20 11 14 0z m79 -752 c6 -4 19 -9 30 -11 11 -1 22 -6 25 -10
3 -4 15 -9 25 -11 11 -2 29 -8 40 -14 11 -5 30 -9 42 -8 12 1 19 -3 16 -8 -4
-6 3 -8 15 -5 14 4 20 2 15 -5 -4 -6 2 -8 15 -5 12 4 20 2 16 -3 -3 -5 4 -10
15 -10 12 -1 24 -2 29 -3 33 -8 72 -17 101 -21 19 -3 39 -9 44 -12 6 -4 7 -1
2 8 -8 12 -6 12 8 0 9 -7 17 -10 17 -7 0 13 33 -12 36 -25 1 -8 5 -32 8 -54 3
-22 8 -51 11 -65 6 -30 13 -66 20 -100 3 -14 7 -36 10 -50 3 -14 7 -36 10 -50
3 -14 11 -52 19 -85 8 -33 12 -63 8 -67 -6 -6 -55 3 -156 27 -192 46 -374 156
-398 241 -9 36 -11 43 -23 94 -5 26 -47 251 -47 260 -1 20 20 20 47 -1z m185
-679 c22 -11 40 -17 40 -13 0 5 4 2 9 -5 4 -7 18 -14 29 -15 12 -1 22 -6 22
-11 0 -5 3 -6 7 -3 3 4 12 2 20 -4 7 -6 22 -9 33 -6 11 3 18 1 14 -4 -3 -5 2
-10 10 -10 20 -2 26 -4 50 -14 10 -4 31 -8 47 -9 16 -1 29 -4 29 -7 0 -3 6 -6
13 -6 20 -1 101 -14 120 -19 9 -3 17 -14 17 -25 0 -13 4 -18 12 -13 6 4 8 3 4
-4 -9 -14 46 -172 58 -165 5 3 6 2 3 -4 -9 -14 14 -83 26 -76 6 3 7 1 4 -4 -9
-14 22 -105 33 -98 4 3 6 -5 2 -17 -4 -16 -2 -19 8 -13 8 5 11 4 6 -3 -4 -6 0
-27 8 -46 l14 -34 -31 5 c-18 2 -50 9 -72 14 -22 5 -51 12 -65 15 -85 17 -209
69 -279 116 -47 32 -111 96 -111 110 0 4 -14 37 -30 73 -30 65 -110 288 -110
306 0 14 17 11 60 -11z m341 -725 c24 -9 49 -13 57 -10 8 3 10 0 6 -7 -5 -7 0
-9 14 -6 12 4 20 3 17 -2 -3 -4 12 -11 33 -15 20 -4 37 -6 37 -4 0 1 11 -3 24
-10 19 -11 22 -11 15 1 -6 10 -5 11 7 1 8 -7 30 -15 49 -18 18 -3 38 -9 43
-12 6 -4 7 -1 2 8 -6 11 -5 12 6 2 7 -7 23 -13 36 -13 18 0 29 -12 50 -54 15
-30 31 -52 36 -49 6 3 7 1 3 -5 -7 -12 147 -284 157 -277 4 3 5 2 2 -1 -8 -12
26 -65 37 -58 7 4 8 3 4 -4 -11 -18 -26 -15 -104 23 -124 59 -203 120 -382
295 -83 82 -122 125 -189 213 -16 21 -15 21 40 2z M2026 9685 c-89 -31 -157
-135 -162 -248 -4 -91 40 -218 69 -200 5 3 7 1 3 -5 -9 -15 65 -74 87 -68 9 2
15 0 11 -5 -3 -5 3 -9 13 -10 10 -1 32 -2 48 -4 56 -6 177 68 187 115 2 8 9
21 16 29 8 8 11 22 9 33 -3 10 -2 16 3 13 11 -7 18 49 15 111 -5 92 -67 194
-140 228 -46 22 -113 27 -159 11z m95 -164 c3 -1 16 -10 28 -20 46 -40 37
-144 -15 -172 -69 -37 -132 17 -125 106 3 27 22 77 29 71 2 -3 13 1 24 8 11 8
27 13 36 11 9 -2 20 -4 23 -4z"/>
</g>
</svg>
