<svg xmlns="http://www.w3.org/2000/svg" viewBox="0 0 1024 1024">
<g transform="translate(0,1024) scale(0.1,-0.1)">
<path fill="currentColor" d="M4189 10236 c-2 -2 -36 -7 -75 -10 -39 -4 -82 -9 -95 -11 -13 -3 -41
-7 -64 -10 -93 -14 -273 -59 -392 -99 -626 -211 -1078 -595 -1356 -1152 -61
-123 -120 -264 -157 -382 -34 -105 -85 -308 -95 -375 -4 -23 -8 -44 -10 -47
-2 -3 -6 -30 -10 -60 -4 -30 -8 -57 -10 -60 -2 -3 -6 -39 -10 -80 -4 -41 -9
-84 -11 -95 -16 -84 -22 -452 -10 -610 34 -454 195 -844 495 -1200 60 -71 283
-288 561 -545 19 -18 93 -87 163 -153 71 -67 137 -128 146 -136 10 -9 79 -74
154 -144 75 -71 145 -136 155 -145 11 -10 79 -74 153 -143 74 -70 154 -145
178 -167 l43 -39 -7 -191 c-3 -105 -8 -224 -10 -264 -2 -40 -6 -147 -9 -238
-4 -91 -9 -205 -11 -255 -2 -49 -7 -155 -10 -235 -15 -391 -25 -624 -28 -627
-2 -1 -290 -4 -642 -6 -352 -2 -653 -6 -670 -10 -32 -7 -100 -20 -100 -18 0 1
-34 -8 -75 -20 -184 -50 -380 -146 -517 -252 -263 -202 -448 -537 -490 -885
-14 -119 -7 -398 12 -454 2 -7 6 -30 9 -51 10 -67 75 -250 120 -340 143 -282
387 -494 718 -626 67 -26 223 -69 323 -87 61 -12 5019 -15 5090 -3 33 5 74 11
90 14 92 14 233 56 335 100 347 149 600 412 720 750 63 179 85 317 84 530 -2
657 -410 1163 -1059 1313 -49 12 -110 24 -135 27 -91 12 -85 9 -83 51 8 163 2
408 -12 464 -2 8 -7 35 -10 60 -11 81 -37 184 -55 220 -23 44 -45 65 -95 86
-76 32 -156 15 -214 -45 -32 -33 -218 -235 -240 -260 -9 -10 -61 -66 -115
-125 -55 -59 -107 -115 -115 -125 -9 -10 -61 -67 -117 -127 -56 -60 -116 -126
-134 -147 -32 -36 -35 -38 -78 -32 -136 18 -229 108 -246 235 -3 25 -8 385
-11 800 l-5 755 24 20 c13 11 85 78 160 149 76 72 145 137 155 145 10 9 82 77
161 151 79 74 151 142 161 151 10 8 79 73 155 145 75 71 145 136 154 144 38
33 312 292 424 400 388 376 575 729 661 1245 25 151 25 623 1 775 -3 14 -7 49
-10 78 -15 135 -47 300 -87 450 -239 907 -813 1494 -1702 1742 -43 12 -88 23
-100 26 -12 2 -44 8 -72 14 -82 17 -95 19 -154 26 -31 3 -65 9 -76 12 -22 7
-1809 15 -1816 8z m1645 -591 c107 -32 187 -102 235 -204 l26 -56 0 -420 c0
-231 -4 -440 -8 -463 -37 -198 -144 -392 -303 -548 -260 -257 -600 -367 -923
-300 -122 26 -298 107 -406 188 -206 154 -359 374 -416 599 -20 78 -22 112
-24 493 -3 439 0 466 49 549 45 78 136 145 223 166 21 5 367 9 768 10 617 0
738 -2 779 -14z m-2399 -657 c0 -244 3 -472 7 -508 43 -386 255 -764 579
-1032 36 -30 37 -31 34 -97 -2 -36 -6 -147 -10 -246 -4 -99 -8 -210 -10 -247
-2 -37 -6 -150 -10 -250 -4 -101 -8 -208 -10 -238 -2 -30 -6 -143 -10 -250 -4
-107 -8 -220 -10 -250 -2 -30 -7 -145 -11 -255 -4 -110 -8 -216 -8 -235 -1
-19 -4 -35 -8 -35 -5 0 -65 54 -208 189 -42 39 -139 130 -215 201 -77 72 -173
162 -215 201 -41 39 -109 102 -150 140 -165 151 -388 383 -441 459 -113 160
-196 346 -233 521 -14 69 -19 101 -32 204 -8 68 -8 362 0 450 10 106 18 184
21 201 2 9 6 40 10 70 4 30 8 56 10 59 2 3 6 26 10 50 4 25 19 95 35 155 133
516 399 895 797 1137 43 26 78 48 78 48 0 0 0 -199 0 -442z m3400 344 c333
-221 576 -579 703 -1037 28 -102 34 -127 47 -195 3 -14 7 -36 10 -50 6 -33 13
-74 21 -135 3 -27 8 -59 10 -69 8 -41 18 -246 18 -366 1 -380 -72 -651 -243
-903 -104 -154 -170 -222 -566 -592 -77 -71 -174 -163 -216 -203 -42 -40 -86
-81 -98 -91 -23 -20 -116 -107 -241 -225 -42 -39 -89 -83 -105 -98 l-30 -27
-4 712 c-1 392 -4 872 -5 1068 l-3 356 96 100 c210 218 352 477 416 755 27
120 30 177 30 639 l0 457 45 -25 c25 -14 76 -46 115 -71z m-1275 -2709 c1
-285 3 -705 5 -933 2 -228 6 -926 10 -1550 3 -624 9 -1155 11 -1180 35 -342
262 -630 580 -734 51 -16 59 -19 144 -36 25 -5 306 -9 625 -10 319 0 605 -3
635 -7 222 -23 452 -137 565 -280 56 -71 117 -194 141 -288 27 -103 25 -351
-3 -456 -67 -243 -218 -408 -456 -500 -182 -70 -133 -68 -1407 -65 -1143 2
-1145 2 -1227 23 -182 49 -348 146 -484 282 -140 139 -228 294 -267 468 -24
111 -24 470 3 1034 2 41 6 151 10 244 3 94 8 211 10 260 2 50 7 158 10 240 3
83 8 195 10 250 2 55 7 163 10 240 3 77 7 192 10 255 3 63 7 176 10 250 3 74
7 187 10 250 2 63 7 176 10 250 3 74 7 187 10 250 5 120 11 260 20 495 3 77 8
185 10 240 2 55 7 172 10 260 3 88 8 198 10 245 2 47 7 162 10 255 3 94 8 202
10 240 2 39 7 151 11 250 3 99 7 194 8 210 0 17 6 31 11 33 6 1 51 -7 100 -18
50 -11 119 -24 155 -29 65 -9 316 -7 356 2 12 3 37 8 55 11 64 11 84 16 164
40 44 13 83 24 86 25 4 1 7 -232 9 -516z m-1719 -4530 c-7 -129 -7 -638 1
-708 32 -277 146 -548 325 -773 l26 -33 -774 4 c-426 1 -785 6 -799 10 -14 4
-38 10 -55 12 -16 3 -52 13 -80 22 -212 69 -374 200 -454 366 -67 138 -86 231
-84 412 2 271 111 489 311 622 104 69 246 123 365 139 23 4 44 8 46 10 2 2
268 4 591 4 l587 0 -6 -87z M4404 8771 c-12 -5 -31 -22 -43 -37 -18 -23 -22
-39 -20 -89 8 -209 132 -338 341 -352 128 -9 172 26 167 130 -9 173 -91 287
-239 331 -66 20 -178 29 -206 17z M5524 8764 c-109 -22 -179 -73 -222 -159
-35 -71 -51 -193 -33 -247 20 -58 50 -71 149 -65 101 6 116 9 176 35 104 46
164 150 173 298 5 79 5 82 -25 115 -28 32 -35 34 -94 35 -35 0 -91 -5 -124
-12z"/>
</g>
</svg>
