<svg xmlns="http://www.w3.org/2000/svg" viewBox="0 0 1024 1024">
<g transform="translate(0,1024) scale(0.1,-0.1)">
<path fill="currentColor" d="M5060 10227 c-14 -8 -77 -50 -140 -95 -63 -45 -281 -181 -485 -303
-585 -351 -777 -484 -973 -678 -250 -247 -391 -498 -441 -794 -11 -60 -21
-110 -23 -111 -1 -2 -25 -13 -53 -26 -102 -48 -208 -183 -234 -299 -10 -48 -8
-166 4 -218 l8 -33 -269 -1 c-148 0 -282 -3 -299 -5 -393 -57 -678 -399 -652
-783 7 -104 12 -125 39 -205 92 -265 329 -459 613 -500 17 -2 76 -5 132 -5
l102 -1 -5 -27 c-9 -51 -53 -170 -80 -219 -78 -141 -185 -254 -471 -492 -367
-306 -513 -494 -587 -758 -37 -129 -45 -194 -41 -329 3 -132 6 -149 37 -239
83 -239 281 -420 533 -485 28 -7 41 -16 42 -28 4 -53 66 -195 115 -266 l19
-27 -38 -1 c-144 -3 -306 -35 -449 -90 -450 -173 -782 -591 -851 -1071 -5 -29
-8 -501 -8 -1048 0 -1094 -5 -1011 60 -1062 l30 -23 4405 -3 c4016 -2 4409 -1
4447 14 24 9 53 29 65 47 l23 32 0 995 c0 547 -3 1020 -8 1050 -41 296 -181
566 -410 789 -225 220 -569 364 -885 370 l-43 1 29 42 c38 57 66 119 92 206
12 40 24 71 27 68 7 -7 130 37 193 69 199 101 345 289 396 512 11 47 13 264 3
328 -37 241 -151 460 -341 655 -68 70 -223 208 -323 289 -212 169 -357 324
-429 455 -27 49 -71 168 -80 219 l-5 27 102 1 c56 0 110 2 119 4 9 2 34 6 55
9 131 18 316 121 416 230 88 96 164 249 185 371 13 74 6 257 -12 323 -66 243
-249 440 -485 521 -35 12 -82 24 -103 27 -22 3 -47 7 -56 9 -9 2 -138 4 -286
4 l-268 1 7 33 c24 104 10 234 -37 327 -32 64 -132 161 -200 194 -53 25 -58
31 -58 59 -1 97 -76 344 -142 465 -96 175 -232 342 -399 487 -178 156 -355
277 -754 515 -344 205 -533 323 -651 407 -85 61 -112 75 -151 79 -31 3 -57 0
-73 -9z m147 -381 c92 -63 251 -161 578 -356 302 -180 411 -251 554 -358 223
-167 393 -353 483 -529 48 -92 92 -218 102 -290 l5 -43 -538 0 -538 0 -11 49
c-22 94 -96 228 -174 312 -38 41 -140 125 -159 131 -11 4 -9 15 10 52 65 132
65 285 -1 416 -13 25 -50 72 -83 105 -115 116 -255 154 -430 120 -100 -20
-238 -132 -287 -235 -63 -130 -62 -275 3 -406 18 -35 21 -48 11 -52 -20 -6
-103 -74 -151 -123 -84 -85 -159 -217 -183 -320 l-11 -49 -540 0 -539 0 7 43
c23 140 109 328 212 463 115 150 338 344 573 497 47 30 250 154 452 275 202
122 411 250 465 286 54 36 101 66 105 66 3 0 42 -24 85 -54z m-15 -696 c52
-31 73 -69 73 -130 -1 -69 -22 -102 -82 -131 -71 -35 -144 -14 -192 54 -24 34
-21 125 6 163 43 61 133 81 195 44z m16 -591 c168 -34 314 -175 351 -339 14
-62 7 -186 -14 -245 -90 -255 -382 -376 -625 -257 -71 35 -168 132 -202 202
-86 182 -54 374 87 516 110 110 253 154 403 123z m-818 -604 c0 -43 63 -187
112 -258 l20 -27 -714 2 c-688 3 -714 4 -739 22 -48 37 -63 67 -64 126 0 41 6
63 22 86 47 66 21 64 726 64 559 0 637 -2 637 -15z m2770 -3 c54 -33 75 -71
75 -132 -1 -42 -6 -63 -24 -87 -48 -65 -29 -63 -797 -63 l-695 0 29 43 c44 65
102 203 102 242 0 13 82 15 640 15 597 -1 642 -2 670 -18z m-4120 -567 c25 -6
48 -13 53 -13 4 -1 47 -2 95 -2 l89 0 -47 -92 c-111 -217 -189 -474 -217 -713
-4 -38 -8 -700 -8 -1470 0 -1536 -5 -1416 58 -1465 59 -47 164 -30 209 33 l23
32 3 923 2 923 23 -7 c42 -13 123 -71 164 -118 47 -53 87 -131 102 -196 7 -29
10 -454 11 -1212 0 -641 3 -1181 7 -1198 8 -41 66 -98 110 -106 31 -6 126 0
182 11 119 23 275 105 363 189 l37 35 78 -44 c145 -83 373 -161 533 -181 136
-18 389 -10 501 15 24 5 55 12 69 15 96 18 288 95 391 156 l68 41 38 -36 c81
-77 214 -151 328 -181 180 -49 302 -16 328 86 4 14 7 552 7 1195 0 760 4 1186
11 1215 15 65 55 143 103 197 42 47 148 123 173 123 11 0 13 -232 10 -1497 -1
-824 -5 -1508 -9 -1519 -3 -12 -9 -37 -12 -55 -3 -19 -17 -74 -31 -123 -71
-244 -194 -447 -381 -625 -95 -91 -226 -191 -250 -191 -7 0 -57 33 -111 74
-104 78 -128 90 -181 88 -54 -2 -90 -32 -155 -127 -151 -220 -348 -415 -581
-574 -50 -34 -97 -61 -106 -61 -19 0 -167 99 -265 178 -155 125 -325 311 -437
477 -61 91 -93 110 -179 106 -16 -1 -68 -32 -133 -81 -59 -44 -113 -80 -121
-80 -28 0 -176 117 -280 223 -61 62 -134 148 -163 192 -97 146 -177 332 -211
490 -6 28 -14 64 -17 80 -4 17 -8 167 -10 335 -3 168 -7 319 -9 336 -7 40 -64
99 -104 107 -17 4 -181 7 -364 7 -183 1 -352 6 -377 11 -76 17 -152 61 -215
124 -91 90 -113 144 -141 351 -3 18 -19 47 -39 67 -34 35 -45 39 -160 52 -102
12 -181 51 -260 130 -140 139 -172 341 -93 585 63 194 175 326 525 618 291
243 419 384 513 567 41 81 86 208 96 274 3 20 9 54 13 76 4 22 9 96 10 165 2
69 4 139 5 155 2 17 7 66 11 110 4 44 8 82 10 85 2 3 6 29 10 59 19 148 104
423 186 600 32 69 42 82 56 76 10 -4 38 -13 63 -20z m4279 -57 c79 -171 165
-442 184 -583 8 -57 18 -126 23 -155 2 -14 6 -83 9 -155 12 -294 23 -373 72
-508 84 -232 222 -401 563 -686 344 -288 449 -408 519 -596 47 -126 63 -302
36 -404 -31 -120 -113 -226 -215 -280 -71 -38 -106 -49 -175 -56 -100 -11
-115 -16 -150 -50 -34 -35 -39 -50 -50 -152 -15 -150 -105 -282 -237 -349 -93
-48 -132 -53 -404 -54 l-254 -1 -1 1568 c0 862 -2 1584 -4 1603 -9 93 -16 147
-20 170 -3 13 -7 42 -10 65 -21 143 -99 378 -184 550 l-56 115 85 1 c98 1 126
5 178 23 20 8 41 14 45 15 5 0 25 -36 46 -81z m-4729 -5 c-11 -27 -34 -94 -52
-150 l-33 -103 -143 0 c-161 0 -196 -9 -235 -64 -16 -23 -22 -45 -22 -86 1
-60 13 -85 60 -122 26 -21 42 -23 152 -26 68 -2 121 -7 119 -10 -2 -4 -7 -34
-11 -67 -3 -33 -8 -73 -11 -90 -2 -16 -5 -54 -6 -83 l-3 -53 -108 2 c-127 2
-172 10 -247 47 -71 35 -168 132 -202 202 -83 174 -55 364 73 504 26 28 71 65
100 83 89 53 139 62 376 62 l213 1 -20 -47z m2081 -200 c0 -137 2 -259 5 -273
29 -173 162 -320 328 -363 256 -67 516 101 560 363 3 14 5 136 5 273 l1 247
519 0 519 0 47 -72 c57 -88 143 -266 180 -368 31 -89 72 -245 81 -315 3 -27 9
-59 11 -70 3 -11 8 -171 10 -356 l5 -336 -39 -8 c-184 -34 -406 -217 -491
-405 -65 -145 -72 -201 -75 -645 -2 -370 -3 -382 -26 -445 -160 -447 -749
-493 -980 -77 -31 55 -58 162 -60 239 l-2 68 276 137 c208 103 282 144 298
167 40 56 28 190 -25 296 -30 60 -131 159 -191 189 -101 49 -126 51 -522 48
-203 -2 -383 -6 -399 -11 -138 -35 -281 -174 -320 -311 -26 -94 -16 -183 24
-224 16 -16 149 -88 296 -161 l266 -133 -5 -81 c-6 -101 -36 -192 -92 -276
-63 -94 -145 -160 -251 -199 -294 -110 -619 55 -703 357 -18 67 -20 105 -21
435 -1 199 -3 380 -6 402 -37 281 -234 522 -502 614 -34 11 -69 21 -78 21 -13
0 -15 36 -13 303 1 166 5 329 9 362 17 132 23 164 46 254 48 186 140 396 239
545 l38 56 518 0 519 0 1 -247z m597 -5 c-3 -287 -4 -290 -85 -329 -53 -26
-108 -22 -149 10 -59 46 -59 45 -62 319 l-3 252 151 0 151 0 -3 -252z m2814
241 c165 -35 311 -177 347 -339 14 -62 7 -186 -14 -245 -38 -109 -118 -200
-220 -252 -75 -39 -131 -50 -251 -52 l-109 -2 -3 53 c-1 29 -4 67 -6 83 -3 17
-8 57 -11 90 -4 33 -9 63 -12 68 -2 4 43 7 101 7 123 0 175 16 208 63 32 44
32 131 0 172 -45 57 -55 60 -222 63 l-156 4 -27 86 c-15 48 -38 115 -52 150
l-24 62 199 0 c109 0 223 -5 252 -11z m-2588 -2260 c28 -16 55 -49 44 -53 -2
-1 -97 -47 -212 -104 l-208 -103 -205 103 c-112 56 -207 106 -210 111 -7 11
13 31 52 52 26 13 80 15 368 15 319 -1 339 -2 371 -21z m-191 -1244 c107 -81
260 -146 377 -160 30 -4 56 -8 56 -8 1 -1 4 -83 7 -182 5 -178 8 -210 27 -260
17 -44 12 -50 -62 -92 -124 -69 -284 -123 -418 -141 -74 -9 -281 -9 -353 1
-73 10 -208 49 -290 83 -74 31 -187 93 -187 102 0 4 5 24 11 46 6 21 13 48 16
60 3 11 8 102 10 201 3 99 6 181 7 181 0 1 20 4 43 8 199 27 410 144 527 292
l41 52 63 -68 c34 -38 90 -90 125 -115z m-1330 -29 c36 -24 102 -59 147 -77
l81 -33 -2 -163 c-1 -223 -25 -303 -121 -408 -38 -42 -147 -115 -172 -115 -3
0 -6 189 -6 420 0 231 2 420 4 420 2 0 33 -20 69 -44z m2367 -376 c0 -244 -4
-420 -9 -420 -25 0 -102 52 -156 105 -108 107 -135 193 -135 429 l0 152 81 33
c44 18 108 52 142 76 34 23 65 43 70 44 4 0 7 -188 7 -419z m-3339 -637 c1
-104 2 -199 3 -213 8 -78 17 -148 21 -170 3 -14 7 -34 9 -45 10 -53 39 -153
67 -232 127 -360 399 -686 748 -897 128 -77 168 -73 335 40 l49 33 44 -60 c84
-111 266 -293 423 -422 50 -41 276 -190 335 -221 64 -33 96 -33 170 3 85 40
283 175 395 269 111 93 271 256 353 359 l58 73 47 -34 c75 -54 162 -96 197
-96 38 0 111 36 219 109 292 197 523 482 649 801 30 76 76 230 83 280 3 19 7
41 9 48 4 10 12 74 21 162 1 14 2 110 3 213 l1 188 603 -4 c331 -2 613 -6 627
-10 14 -4 36 -9 50 -12 54 -10 159 -48 240 -88 244 -119 438 -343 525 -604 51
-154 53 -185 54 -805 l1 -578 -600 0 -600 0 0 241 c0 202 3 247 16 275 22 47
63 73 129 84 105 17 150 63 150 154 0 38 -6 59 -23 81 -36 46 -62 59 -123 61
-117 5 -224 -39 -314 -130 -75 -75 -111 -146 -134 -263 -1 -2 -1 -250 -1 -553
l0 -550 -2720 0 -2720 0 -1 550 c-1 303 -2 553 -3 558 -1 4 -5 25 -10 47 -21
107 -127 244 -229 294 -111 54 -237 64 -293 24 -45 -32 -68 -85 -60 -140 10
-78 57 -120 146 -133 65 -9 87 -21 122 -65 22 -29 23 -36 26 -282 l3 -253
-601 0 -601 0 3 608 4 607 26 95 c93 340 341 613 663 729 155 56 193 59 823
60 l582 2 1 -188z m-901 -2363 l0 -150 -600 0 -600 0 0 150 0 150 600 0 600 0
0 -150z m7240 0 l0 -150 -600 0 -600 0 0 150 0 150 600 0 600 0 0 -150z M4191
6304 c-107 -29 -232 -128 -276 -220 -19 -41 -15 -111 8 -144 65 -92 196 -88
260 9 63 95 186 93 256 -4 53 -73 120 -92 197 -54 46 22 84 82 84 133 0 89
-133 225 -265 271 -65 23 -195 27 -264 9z M5859 6315 c-3 -2 -20 -7 -39 -10
-126 -22 -300 -184 -300 -280 0 -30 23 -90 43 -109 23 -23 75 -46 104 -46 46
1 106 34 133 74 64 95 186 99 254 7 57 -78 124 -98 199 -62 54 26 75 56 83
114 8 54 -11 97 -69 163 -48 55 -122 105 -192 129 -45 16 -206 31 -216 20z
M1882 2684 c-18 -9 -43 -31 -55 -48 -21 -30 -22 -40 -22 -236 0 -222 1 -225
58 -270 59 -47 164 -30 209 33 22 31 23 40 23 237 0 199 -1 206 -23 235 -34
43 -56 55 -109 61 -33 3 -58 0 -81 -12z M8222 2684 c-18 -9 -43 -31 -55 -48
-21 -30 -22 -40 -22 -236 0 -222 1 -225 58 -270 59 -47 164 -30 209 33 22 31
23 40 23 237 0 199 -1 206 -23 235 -34 43 -56 55 -109 61 -33 3 -58 0 -81 -12z
M1282 2084 c-18 -9 -43 -31 -55 -48 -21 -30 -22 -40 -22 -236 0 -222 1 -225
58 -270 59 -47 164 -30 209 33 22 31 23 40 23 237 0 199 -1 206 -23 235 -34
43 -56 55 -109 61 -33 3 -58 0 -81 -12z M8822 2084 c-18 -9 -43 -31 -55 -48
-21 -30 -22 -40 -22 -236 0 -222 1 -225 58 -270 59 -47 164 -30 209 33 22 31
23 40 23 237 0 199 -1 206 -23 235 -34 43 -56 55 -109 61 -33 3 -58 0 -81 -12z
M2782 1184 c-18 -9 -43 -31 -55 -48 -21 -30 -22 -40 -22 -236 0 -222 1 -225
58 -270 59 -47 164 -30 209 33 22 31 23 40 23 237 0 199 -1 206 -23 235 -34
43 -56 55 -109 61 -33 3 -58 0 -81 -12z M7322 1184 c-18 -9 -43 -31 -55 -48
-21 -30 -22 -40 -22 -236 0 -222 1 -225 58 -270 59 -47 164 -30 209 33 22 31
23 40 23 237 0 199 -1 206 -23 235 -34 43 -56 55 -109 61 -33 3 -58 0 -81 -12z"/>
</g>
</svg>
