<svg viewBox="-76 0 489 489.616" xmlns="http://www.w3.org/2000/svg"><path fill="currentColor" d="m160.308594 193.617188h16v16h-16zm0 0"/><path fill="currentColor" d="m216.308594 217.617188c0 4.417968-3.582032 8-8 8-4.417969 0-8-3.582032-8-8 0-4.417969 3.582031-8 8-8 4.417968 0 8 3.582031 8 8zm0 0"/><path fill="currentColor" d="m136.308594 217.617188c0 4.417968-3.582032 8-8 8-4.417969 0-8-3.582032-8-8 0-4.417969 3.582031-8 8-8 4.417968 0 8 3.582031 8 8zm0 0"/><path fill="currentColor" d="m168.308594 289.617188c17.648437 0 32-14.351563 32-32h-16c0 8.824218-7.175782 16-16 16-8.824219 0-16-7.175782-16-16h-16c0 17.648437 14.351562 32 32 32zm0 0"/><path fill="currentColor" d="m296.308594 345.59375v-6.089844c0-12.9375-3.054688-25.886718-8.839844-37.464844-4.496094-8.984374-6.898438-19.007812-7.082031-29.046874 2.59375.367187 5.226562.625 7.921875.625h8v-8c0-8.785157-2.089844-17.066407-5.710938-24.472657 8.125-4.730469 15.09375-11.183593 20.367188-19.089843l2.960937-4.4375-2.960937-4.441407c-5.265625-7.902343-12.242188-14.359375-20.367188-19.085937 3.621094-7.410156 5.710938-15.691406 5.710938-24.472656v-8h-8c-2.847656 0-5.632813.277343-8.367188.695312-.28125-3.6875-.730468-7.335938-1.417968-10.898438l20.855468-21.796874-19.152344-20.007813 11.304688-25.472656-24.765625-12.128907 2.007813-27.871093-27.371094-2.816407-7.488282-26.984374-39.765624 10.519531c-4.039063-7.625-9.953126-14.253907-17.375-19.207031l-8.464844-5.648438-8.472656 5.648438c-7.425782 4.953124-13.328126 11.582031-17.375 19.207031l-39.761719-10.519531-7.488281 26.984374-27.359376 2.808594 2 27.871094-24.777343 12.136719 11.304687 25.472656-19.144531 20.007813 20.859375 21.789062c-.691406 3.570312-1.136719 7.210938-1.417969 10.90625-2.734375-.417969-5.519531-.695312-8.367187-.695312h-8v8c0 8.78125 2.085937 17.0625 5.710937 24.472656-8.128906 4.726562-15.09375 11.183594-20.367187 19.085937l-2.960938 4.441407 2.960938 4.4375c5.261718 7.90625 12.238281 14.359374 20.367187 19.089843-3.625 7.40625-5.710937 15.6875-5.710937 24.472657v8h8c2.695312 0 5.328125-.257813 7.925781-.625-.191406 10.039062-2.582031 20.0625-7.078125 29.046874-5.792969 11.578126-8.847656 24.527344-8.847656 37.464844v6.089844c-23.640625 7.0625-40 28.621094-40 53.503906v90.519532h336v-90.519532c0-24.882812-16.359375-46.441406-40-53.503906zm24 53.503906v10.519532h-40v-16h-16v80h-16v-120c0-1.320313-.265625-2.5625-.394532-3.847657l42.089844 10.519531c17.839844 4.464844 30.304688 20.414063 30.304688 38.808594zm-40 26.519532h40v16h-40zm-222.976563-169.023438c3.433594-14.824219 15.128907-26.515625 29.945313-29.945312-3.425782 14.816406-15.121094 26.511718-29.945313 29.945312zm0-77.953125c14.824219 3.429687 26.511719 15.128906 29.945313 29.945313-14.816406-3.425782-26.511719-15.121094-29.945313-29.945313zm221.953125 0c-3.433594 14.824219-15.128906 26.511719-29.945312 29.945313 3.425781-14.816407 15.121094-26.515626 29.945312-29.945313zm0 77.953125c-14.824218-3.433594-26.511718-15.128906-29.945312-29.945312 14.816406 3.421874 26.511718 15.121093 29.945312 29.945312zm-46.976562-98.882812c-2.257813-2.007813-4.695313-3.800782-7.304688-5.359376l7.304688-2.917968zm-128 67.90625v-32.402344c0-17.421875 14.175781-31.597656 31.597656-31.597656 8.441406 0 16.378906 3.285156 22.347656 9.253906l10.054688 10.058594 10.054687-10.058594c5.96875-5.96875 13.90625-9.253906 22.34375-9.253906 17.425781 0 31.601563 14.175781 31.601563 31.597656v48.402344c0 35.285156-28.710938 64-64 64-35.289063 0-64-28.714844-64-64zm0-67.90625v-8.277344l7.304687 2.917968c-2.609375 1.558594-5.050781 3.351563-7.304687 5.359376zm46.582031-9.519532 17.417969-21.765625 17.414062 21.765625c-6.398437 2.128906-12.359375 5.449219-17.414062 10.152344-5.054688-4.703125-11.015625-8.03125-17.417969-10.152344zm81.417969 285.425782h-16v-24h16zm0-40h-16v-24h16zm-16-40v-22.527344c9.289062 3.308594 16 12.109375 16 22.527344zm-48-32c11.375 0 22.191406-2.425782 32-6.730469v11.089843c-4.730469 3.792969-16.382813 11.640626-32 11.640626-15.464844 0-27.242188-7.890626-32-11.664063v-11.066406c9.808594 4.304687 20.625 6.730469 32 6.730469zm-48 112h-16v-24h16zm0-40h-16v-24h16zm0-40h-16c0-10.417969 6.710937-19.21875 16-22.527344zm-16 96h16v24h-16zm32-104.554688c7.902344 4.371094 18.847656 8.554688 32 8.554688s24.09375-4.183594 32-8.554688v128.554688h-64zm80 104.554688h16v24h-16zm56.839844-140.425782c4.679687 9.359375 7.160156 19.839844 7.160156 30.3125v1.863282l-38.59375-9.648438c-5.75-8.75-14.808594-15.132812-25.40625-17.292969v-8.808593h-.199219c16.007813-11.992188 27.375-29.785157 30.933594-50.273438 4.855469 5.304688 10.703125 9.664062 17.265625 12.792969v3.589843c0 12.9375 3.054687 25.890626 8.839844 37.464844zm21.144531-91.574218c-3.578125 4.175781-7.882813 7.640624-12.703125 10.285156-3.664063-4.007813-7.898438-7.476563-12.585938-10.285156 4.6875-2.808594 8.910156-6.28125 12.585938-10.289063 4.820312 2.648437 9.125 6.113281 12.703125 10.289063zm-21.007813-83.875c-2.761718-6.8125-6.273437-13.230469-10.449218-19.167969l14.398437 15.050781zm-50.554687-99.894532 6.175781 22.28125 22.792969 2.335938-1.664063 23.167968 20.632813 10.09375-9.273438 20.90625c-11.277343-15.21875-26.910156-26.960937-45.078125-33.417968v-37.597656h-16.671875c-.082031-.539063-.199219-1.058594-.296875-1.585938zm-22.421875 23.769532v17.445312c-5.214844-.878906-10.535156-1.445312-16-1.445312h-32c-5.464844 0-10.785156.566406-16 1.445312v-17.445312zm-32-38.386719c7.785156 5.34375 13.078125 13.371093 15.078125 22.386719h-30.160157c2-9.015626 7.296876-17.042969 15.082032-22.386719zm-81.71875 62.394531-1.664063-23.167969 22.789063-2.335937 6.175781-22.28125 23.386719 6.183594c-.097656.535156-.21875 1.054687-.296875 1.59375h-16.671875v37.597656c-18.167969 6.457031-33.800782 18.199218-45.082032 33.417968l-9.269531-20.90625zm-27.210938 47.992188 14.410156-15.066407c-4.183593 5.945313-7.703124 12.371094-10.464843 19.183594zm92.929688-40h32c43.28125 0 78.558594 34.566406 79.871094 77.542968-5.9375 2.847656-11.3125 6.679688-15.871094 11.335938v-52.695313l-45.464844 18.183594-34.535156-43.175781-34.535156 43.167968-45.464844-18.175781v52.695313c-4.5625-4.664063-9.9375-8.488282-15.871094-11.34375 1.308594-42.96875 36.589844-77.535156 79.871094-77.535156zm-109.984375 128c3.574219-4.175782 7.878906-7.640626 12.703125-10.289063 3.664062 4.007813 7.898437 7.480469 12.585937 10.289063-4.6875 2.808593-8.914062 6.277343-12.585937 10.285156-4.824219-2.644532-9.128906-6.109375-12.703125-10.285156zm47.246093 37.726562c3.570313 20.488281 14.929688 38.289062 30.9375 50.273438h-.199218v8.808593c-10.601563 2.160157-19.65625 8.550781-25.410156 17.292969l-38.589844 9.648438v-1.863282c0-10.464844 2.472656-20.945312 7.160156-30.3125 5.785156-11.574218 8.839844-24.527344 8.839844-37.464844v-3.589843c6.558594-3.128907 12.40625-7.488281 17.261718-12.792969zm-42.957031 104.945312 42.085938-10.519531c-.128907 1.285157-.390625 2.527344-.390625 3.847657v120h-16v-80h-16v16h-40v-10.519532c0-18.394531 12.464844-34.34375 30.304687-38.808594zm9.695313 81.328126h-40v-16h40zm-40 16h40v16h-40zm264 16v-16h40v16zm0 0"/></svg>