<svg viewBox="0 0 61 53" xmlns="http://www.w3.org/2000/svg"><path fill="currentColor" d="m1.28 23c-.60761167 2.248567-.2327526 4.6493458 1.03141066 6.6056528 1.26416327 1.9563069 3.2989318 3.2844541 5.59858934 3.6543472 1.6682759 3.4426012 5.2763001 5.5105667 9.09 5.21l5.08-.39c.3554893 2.9591566 2.1528889 5.5504076 4.8 6.92l-.72 4.11c-.8691081.2732477-1.7178775.6074089-2.54 1-.332257.1357609-.5668475.4384662-.6154036.7940897-.0485561.3556234.0962991.7101374.38.93.2837009.2198625.6631466.2716712.9954036.1359103l2-.81c.6157493-.2697838 1.3355834-.1030426 1.77.41.1893508.3036758.5263272.4832663.8839935.4711216s.6816845-.2141795.85-.53c.1683155-.3158204.1553573-.6974458-.0339935-1.0011216-.3927376-.6081791-.9877723-1.0579969-1.68-1.27l.62-3.49c1.4475551.389769 2.9724449.389769 4.42 0l.62 3.49c-.6922277.2120031-1.2872624.6618209-1.68 1.27-.2927109.469442-.149442 1.087289.32 1.38.469442.2927109 1.0872891.149442 1.38-.32.4344166-.5130426 1.1542507-.6797838 1.77-.41l2 .81c.5136248.2098682 1.1001318-.0363752 1.31-.55s-.0363752-1.1001318-.55-1.31c-.8224618-.3918105-1.6711758-.7259499-2.54-1l-.72-4.11c2.6482644-1.3651726 4.4492754-3.9524878 4.81-6.91l5.08.39c3.8007187.2898718 7.3942025-1.7663775 9.07-5.19 3.8095567-.5788812 6.7039279-3.7292427 6.9586498-7.574102.2547219-3.8448592-2.1987543-7.3495156-5.8986498-8.425898.9755736-2.794894.3569264-5.8990901-1.6155661-8.10645269-1.9724926-2.20736258-4.9878419-3.16987282-7.8744339-2.51354731-.5410146-2.78605597-2.4974017-5.08746492-5.16-6.07-3.2938137-1.25452328-7.0178068-.44222975-9.49 2.07-2.0914133-2.29920714-5.3129051-3.20089286-8.2940079-2.32146752-2.9811029.87942534-5.1973784 3.38525241-5.7059921 6.45146752-2.9421776-.90507676-6.1433594-.08179386-8.28382375 2.13044153-2.14046439 2.21223537-2.85776085 5.43881947-1.85617625 8.34955847-2.72294988.8151745-4.83253665 2.97769-5.58 5.72zm15.56 13.47c-2.5269107.1979835-4.9733607-.9399002-6.45-3l12.16 1.06c-.1878919.4903938-.3350565.9954358-.44 1.51zm21-21.54c.18.1.63.07-2 .07-.8944768.0025595-1.6784939.5987392-1.92 1.46-.1567832.600062-.5310165 1.1204245-1.05 1.46-.5684482.3884738-.8971125 1.0420246-.87 1.73.0858853.9643007.2463657 1.9204963.48 2.86-1.1216555.5890839-2.4652822.5702656-3.57-.05-.0213502-2.6174036.1659092-5.2323467.56-7.82.1759347-.9621851 1.0219925-1.6559525 2-1.64 1.5370673.0009286 3.0614011.2786961 4.5.82.16.11 1.71 1 1.88 1.11zm.29-2.15c-1.29-.74-1.28-.75-1.4-.8-1.5672623-.6122601-3.2281185-.95052-4.91-1 .1006886-.1416415.1627272-.3070776.18-.48-.0079419-1.55635624 1.0127879-2.93098698 2.5049466-3.37344605 1.4921588-.44245908 3.0972315.15356141 3.9389678 1.46267859s.7178956 3.01679466-.3039144 4.19076746zm-8.77-1.2-1.5-3.05c-.2430053-.49705626-.8429437-.70300527-1.34-.45999998s-.7030053.84294371-.46 1.33999998l.94 1.88-.67-.23c-.3444764-.1556276-.7472657-.1037179-1.0410285.1341631-.2937627.2378811-.4282879.6210741-.3476868.9903807.0806011.3693067.3625518.6616039.7287153.7554562l2 .71v.13c-1.4344916.505526-3.0311823.0238357-3.9467757-1.1906647-.9155934-1.2145005-.9392195-2.88210014-.0584002-4.12205174.8808192-1.2399516 2.4632229-1.76668251 3.9114602-1.30199838s2.4287654 1.81376214 2.4237157 3.33471482c.0010253.2574695.1013193.5046225.28.69-.3195157.0884165-.6256186.2196035-.91.39zm1.64 32.42c-3.8659932 0-7-3.1340068-7-7 .1201892-1.0022052.4289552-1.9726125.91-2.86 1-2.07 3.05-4.07 3.81-9.59 1.3809646.5411884 2.9202243.5124172 4.28-.08 2.19 7.6 5 10.61 5 12.53 0 3.8659932-3.1340068 7-7 7zm14.16-7.53-5.26-.4c-.1102566-.5093495-.2745188-1.0054883-.49-1.48l12.19-1.06c-1.4923015 2.0295888-3.9289439 3.141969-6.44 2.94zm13.62-12.91c.4769468 1.7739557.1453671 3.6680125-.9058546 5.1744421-1.0512216 1.5064296-2.7145642 2.4711512-4.5441454 2.6355579l-14.87 1.29c-.18-.35-.37-.71-.56-1.1 0-.1-.47.26 9.21-6.6-.0603657 2.578047 1.8686334 4.7705498 4.4333778 5.0389828s4.9059133-1.4771425 5.380659-4.0118194c.4747457-2.5346768-1.075996-5.0092083-3.5640368-5.6871634.3332097-.3572056.6312516-.7456646.89-1.16 2.2060123.5316428 3.9443 2.2277204 4.53 4.42zm-3.78 1.49c.0014137 1.3709361-.9448831 2.5608789-2.2809286 2.8682065s-2.7071613-.3495459-3.3049012-1.5833104c-.5977398-1.2337645-.2634224-2.7168941.8058298-3.5748961.8837401-.6990197 2.0884816-.833569 3.1046612-.3467382s1.6662828 1.5099981 1.6753388 2.6367382zm-3.22-14.79c1.2984682 1.3210457 1.9486311 3.1472673 1.7771051 4.9916535-.171526 1.8443861-1.1472999 3.5193973-2.6671051 4.5783465l-13.89 9.83c-.14-.32-.28-.64-.41-1l5.24-11.35c1.1611849 2.3748637 3.8828267 3.5455988 6.4054985 2.7553744 2.5226719-.7902243 4.0899961-3.3044736 3.6887636-5.9173915-.4012325-2.612918-2.6507193-4.54106826-5.2942621-4.5379829-1.84 0-1.37.82-1-.89 2.1773565-.65059406 4.5361886-.05992717 6.15 1.54zm-5.13 1.39c1.8488421.005519 3.3436699 1.5078001 3.3399934 3.3566468-.0036766 1.8488467-1.5044673 3.3451708-3.3533168 3.3433366-1.8488494-.0018341-3.3466684-1.501133-3.3466766-3.3499834-.000004-.8902106.3543138-1.7438152.9847252-2.3723503.6304113-.6285351 1.4850682-.980307 2.3752748-.9776497zm-27.18-6.05c.9168372-2.02698751 2.8614255-3.39679927 5.0787622-3.5775943 2.2173367-.18079502 4.3581449.85590568 5.5912378 2.7075943.1693941.29136437.4741587.477802.8106979.49593884.3365392.01813685.6595755-.1344672.8593021-.40593884 1.8444518-2.47938579 5.1076438-3.43794844 8-2.35 2.8 1.09 4.84 4.14 3.56 6.91-.06.14-5.43 11.76-7.71 16.7-.7538462-2.1070368-1.309585-4.2797744-1.66-6.49.909799-.6088873 1.5645193-1.5304773 1.84-2.59h2.16c.7159506.0028489 1.3788125-.3772235 1.7380207-.996548s.3599631-1.383419.0019793-2.003452c1.3005396-1.5527623 1.642399-3.6946706.8898175-5.57512136-.7525814-1.88045074-2.4777965-3.19508835-4.4905206-3.42183838-2.0127241-.22675002-3.9871928.67108758-5.1392969 2.33695974-1.5537538-2.21738491-4.490204-2.97411145-6.9221154-1.78383699-2.4319115 1.19027447-3.6357947 3.97344536-2.8379227 6.56078899.797872 2.5873436 3.3601337 4.2091296 6.0400381 3.823048-.53 4.19 0 6.25-.88 10.15l-6.97-15.09c-.7825235-1.71806361-.767889-3.69371723.04-5.4zm-.76 9.4c.0040473 1.3598958-.8120193 2.5881395-2.0672395 3.1113559-1.2552201.5232165-2.7020531.2382227-3.665081-.721939-.9630278-.9601616-1.2523327-2.4061388-.73286-3.6629129.5194728-1.256774 1.7452786-2.076498 3.1051805-2.076504.8902066-.0026573 1.7448635.3491146 2.3752748.9776497.6304114.6285351.9847292 1.4821397.9847252 2.3723503zm-8.49-4.76c1.7562897-1.73008839 4.3686348-2.2596178 6.66-1.35.0199411.33595888.0633807.67010929.13 1-2.7131978-.88874426-5.6455219.5139061-6.6563745 3.1840157-1.01085267 2.6701097.257397 5.6630172 2.8789261 6.7938989 2.6215291 1.1308818 5.6688638-.0003584 6.9174484-2.5679146l5.35 11.62c-.12.27-.24.55-.37.83l-14-9.94c-1.52265618-1.0557365-2.5023819-2.7291069-2.67777626-4.5736388-.17539437-1.844532.47138703-3.672565 1.76777626-4.9963612zm-.22 17.76c-1.26758791.0034224-2.39565816-.8033147-2.8021601-2.0039591-.40650195-1.2006444-.00054964-2.5267553 1.00839762-3.2940989s2.39530848-.8043569 3.44376248-.091942c1.0700361.7270797 1.5415052 2.0664959 1.162825 3.3035179-.3786802 1.2370219-1.5191443 2.0829892-2.812825 2.0864821zm-2.2-8.88c.26523244.418675.5663665.8134953.9 1.18-2.46730999.6785907-4.00799543 3.128986-3.55033186 5.6466531.45766357 2.5176672 2.76215754 4.2690826 5.31044046 4.0359348 2.548283-.2331478 4.4966953-2.3736706 4.4898914-4.9325879 0-.15-1.09-.88 9.24 6.44-.26.4-.49.78-.7 1.14l-14.82-1.28c-3.02040401-.281902-5.39690527-2.7015203-5.62445926-5.7265043s1.76021992-5.7729043 4.70445926-6.5034957z" transform="translate(-1)"/></svg>