<svg xmlns="http://www.w3.org/2000/svg" viewBox="0 0 1024 1024">
<g transform="translate(0,1024) scale(0.1,-0.1)">
<path fill="currentColor" d="M8770 9898 c-148 -52 -261 -180 -306 -350 -7 -27 -12 -90 -12 -140 0
-96 12 -151 71 -313 14 -38 28 -95 32 -125 8 -66 24 -99 65 -133 53 -45 124
-47 186 -5 89 60 89 188 2 417 -43 116 -51 190 -24 251 27 61 72 100 115 100
42 0 114 -85 149 -177 123 -319 72 -572 -162 -808 -168 -167 -421 -323 -705
-434 -141 -55 -181 -95 -181 -181 0 -74 56 -143 128 -156 49 -9 180 35 360
121 516 248 837 571 923 931 68 284 -20 668 -200 876 -110 126 -291 178 -441
126z M7450 7650 c-102 -15 -205 -31 -230 -34 -67 -9 -123 -18 -144 -22 -10 -2
-44 -6 -75 -9 -31 -4 -63 -8 -71 -10 -8 -2 -35 -7 -60 -10 -49 -6 -116 -16
-141 -20 -9 -2 -40 -6 -69 -10 -29 -4 -61 -8 -70 -10 -9 -2 -41 -6 -70 -10
-29 -4 -61 -8 -70 -10 -9 -2 -41 -6 -70 -10 -29 -4 -61 -8 -70 -10 -9 -2 -41
-6 -70 -10 -29 -4 -61 -8 -70 -10 -9 -2 -41 -6 -70 -10 -29 -4 -61 -8 -70 -10
-9 -2 -41 -6 -70 -10 -29 -4 -61 -8 -70 -10 -9 -2 -41 -6 -70 -10 -29 -4 -61
-8 -70 -10 -9 -2 -41 -6 -70 -10 -29 -4 -61 -8 -70 -10 -9 -2 -41 -6 -70 -10
-29 -4 -61 -8 -70 -10 -9 -2 -41 -6 -70 -10 -29 -4 -60 -8 -69 -10 -9 -1 -38
-6 -65 -9 -84 -12 -127 -44 -151 -112 -14 -41 -10 -85 10 -124 8 -14 490 -501
1072 -1082 736 -736 1067 -1059 1086 -1064 73 -17 162 17 191 74 13 26 17 44
31 142 3 25 8 56 10 70 2 14 7 45 10 70 3 25 8 56 10 70 2 14 7 45 10 70 3 25
8 56 10 70 2 14 7 45 10 70 3 25 8 56 10 70 2 14 7 45 10 70 3 25 8 56 10 70
2 14 7 45 10 70 3 25 8 56 10 70 2 14 7 45 10 70 3 25 8 56 10 70 2 14 7 45
10 70 3 25 8 56 10 70 2 14 7 45 10 70 3 25 8 56 10 70 2 14 7 45 10 70 3 25
8 56 10 70 2 14 7 45 10 70 3 25 8 56 10 70 52 332 125 892 120 917 -7 41 -50
92 -92 109 -43 18 -75 17 -293 -16z m40 -329 c0 -5 -15 -116 -34 -247 -19
-132 -37 -263 -41 -293 -4 -30 -8 -62 -10 -71 -2 -9 -6 -41 -10 -70 -4 -29 -8
-61 -10 -70 -2 -9 -6 -41 -10 -70 -4 -29 -8 -61 -10 -70 -2 -9 -6 -41 -10 -70
-4 -29 -8 -61 -10 -70 -2 -9 -6 -41 -10 -70 -4 -29 -8 -61 -10 -70 -2 -9 -6
-41 -10 -70 -4 -29 -8 -61 -10 -70 -2 -9 -6 -41 -10 -70 -4 -29 -8 -61 -10
-70 -2 -9 -6 -41 -10 -70 -4 -29 -8 -61 -10 -70 -2 -9 -6 -41 -10 -70 -4 -29
-8 -60 -10 -69 -5 -27 -17 -115 -18 -128 0 -7 -3 -13 -6 -13 -11 0 -1616 1610
-1606 1611 6 0 19 2 30 4 11 2 42 7 69 10 27 4 57 8 66 10 9 2 41 6 70 10 29
4 61 8 70 10 9 2 41 6 70 10 29 4 61 8 70 10 9 2 41 6 70 10 29 4 61 8 70 10
9 2 41 6 70 10 29 4 61 8 70 10 9 2 41 6 70 10 29 4 61 8 70 10 9 2 41 6 70
10 29 4 61 8 70 10 9 2 41 6 70 10 29 4 61 8 70 10 9 2 41 6 70 10 29 4 61 8
70 10 9 2 41 6 70 10 29 4 61 8 70 10 9 2 41 6 70 10 29 4 61 8 70 10 9 2 41
6 70 10 29 4 61 8 70 10 9 2 41 6 71 10 30 4 55 8 56 9 7 6 43 3 43 -3z M8415
7666 c-41 -18 -83 -69 -91 -111 -17 -91 36 -166 141 -199 33 -10 114 -41 180
-69 424 -179 703 -410 772 -637 59 -193 -45 -522 -176 -561 -74 -22 -142 42
-149 141 -4 48 1 69 31 136 48 110 69 204 71 310 1 82 -1 94 -26 131 -69 104
-218 98 -275 -11 -8 -16 -16 -61 -18 -100 -3 -83 -15 -132 -54 -218 -94 -210
-64 -418 83 -575 92 -99 204 -145 335 -138 207 11 379 178 465 452 42 135 51
192 50 323 -2 323 -202 598 -628 865 -163 102 -573 276 -648 275 -18 -1 -47
-7 -63 -14z M4975 6634 c-35 -18 -977 -955 -1005 -1000 -60 -95 -5 -218 109
-240 73 -15 87 -3 613 523 339 340 499 507 504 526 10 45 -1 113 -25 144 -47
59 -133 80 -196 47z M5184 5941 c-69 -42 -96 -110 -74 -184 10 -36 69 -99 383
-414 204 -205 386 -380 403 -388 70 -33 170 -1 205 65 22 41 25 110 5 148 -17
33 -742 758 -777 778 -35 20 -109 17 -145 -5z M4722 5483 c-65 -32 -98 -119
-73 -195 8 -24 120 -142 394 -415 333 -332 387 -382 420 -388 76 -14 148 20
182 86 19 35 19 106 1 139 -18 32 -733 748 -771 771 -37 23 -108 24 -153 2z
M3585 5246 c-16 -8 -305 -290 -641 -627 -483 -485 -617 -625 -638 -666 -78
-156 -66 -354 29 -497 50 -74 1239 -1257 1298 -1291 165 -95 372 -88 526 18
71 49 2621 2604 2637 2643 8 18 14 48 14 65 0 43 -37 106 -77 130 -37 23 -116
29 -147 12 -10 -5 -601 -593 -1314 -1305 -865 -864 -1307 -1299 -1327 -1305
-36 -12 -90 -9 -127 5 -40 16 -1216 1195 -1234 1237 -17 41 -18 83 -3 122 5
15 277 296 603 623 327 327 599 605 605 617 34 67 12 159 -47 202 -40 28 -117
36 -157 17z M3932 4676 c-70 -24 -119 -100 -109 -169 2 -17 18 -59 35 -92 17
-33 44 -98 61 -144 50 -136 100 -213 211 -321 90 -89 165 -136 285 -182 55
-21 130 -53 166 -69 80 -38 116 -42 166 -19 116 53 132 197 31 273 -45 34 -99
59 -193 92 -113 40 -162 66 -226 124 -73 65 -111 126 -153 243 -61 171 -113
249 -173 262 -58 13 -69 13 -101 2z M3474 4218 c-37 -9 -89 -59 -102 -97 -15
-42 -8 -94 20 -147 14 -27 40 -90 57 -139 53 -150 107 -235 220 -344 104 -100
178 -145 321 -197 41 -14 105 -41 142 -59 50 -24 78 -32 108 -30 83 7 150 80
145 160 -3 62 -3 62 -31 94 -36 43 -93 75 -231 127 -130 49 -166 70 -234 136
-62 60 -101 120 -129 198 -63 177 -109 259 -158 284 -36 18 -90 25 -128 14z
M2340 2849 c-14 -5 -302 -286 -640 -624 -471 -471 -621 -615 -640 -616 -72 -2
-178 -36 -260 -82 -86 -48 -208 -177 -252 -268 -53 -108 -68 -182 -64 -314 6
-176 61 -308 178 -427 132 -133 300 -201 483 -194 320 13 574 243 620 561 5
33 19 54 85 120 113 114 134 177 85 260 -36 62 -104 89 -180 71 -36 -8 -278
-245 -293 -286 -5 -14 -10 -51 -11 -83 -8 -196 -148 -330 -337 -323 -176 6
-305 138 -310 316 -6 186 125 324 318 335 42 2 89 10 105 19 48 26 1301 1287
1316 1326 51 126 -77 258 -203 209z M2800 2389 c-31 -12 -666 -643 -687 -683
-8 -17 -15 -50 -15 -74 3 -109 114 -181 219 -141 15 5 173 155 351 332 344
343 361 366 349 443 -16 97 -125 159 -217 123z"/>
</g>
</svg>
