<svg xmlns="http://www.w3.org/2000/svg" viewBox="0 0 1024 1024">
<g transform="translate(0,1024) scale(0.1,-0.1)">
<path fill="currentColor" d="M4970 9905 c-164 -32 -311 -115 -432 -243 -71 -76 -74 -78 -108 -71
-39 9 -216 5 -270 -6 -74 -15 -204 -69 -273 -115 -165 -108 -284 -268 -337
-454 -10 -36 -17 -66 -17 -68 1 -2 1 -2 -1 -1 -2 0 -32 -7 -68 -17 -285 -82
-504 -317 -568 -611 -4 -19 -18 -30 -62 -49 -81 -33 -184 -136 -225 -223 -114
-245 -12 -526 232 -639 61 -29 71 -37 79 -68 41 -157 260 -1043 258 -1045 -83
-60 -847 -712 -927 -789 -484 -473 -785 -1079 -875 -1761 -26 -193 -26 -547 0
-724 15 -106 41 -255 48 -279 3 -9 7 -28 10 -42 9 -52 58 -214 105 -348 99
-283 193 -474 347 -707 427 -646 1124 -1114 1884 -1265 142 -28 171 -32 315
-48 95 -10 1980 -9 2080 1 90 9 96 10 220 31 113 20 121 22 170 34 22 6 51 13
65 16 134 25 395 125 605 231 784 395 1339 1104 1567 2000 34 137 31 121 51
245 25 147 26 158 34 265 49 707 -141 1388 -547 1955 -168 235 -327 399 -650
668 -129 109 -237 199 -240 203 -3 3 -72 61 -155 130 -82 68 -160 133 -174
144 -44 37 -52 47 -47 64 3 9 62 243 131 521 69 278 129 515 134 527 6 12 23
24 40 28 79 17 208 131 256 226 120 235 25 530 -205 640 -53 26 -72 40 -76 59
-52 224 -184 409 -374 524 -74 45 -202 96 -240 96 -14 0 -23 14 -35 58 -87
307 -322 527 -630 588 -44 8 -113 12 -187 9 -96 -3 -119 -1 -126 11 -35 62
-191 189 -288 235 -147 68 -344 94 -494 64z m274 -322 c126 -37 246 -134 301
-243 45 -88 126 -120 222 -85 64 23 204 28 272 10 205 -54 350 -233 360 -445
3 -68 24 -114 66 -145 32 -25 51 -31 140 -39 73 -7 91 -12 162 -45 80 -38 171
-123 212 -200 17 -32 31 -62 31 -65 0 -3 -216 -6 -480 -6 -515 0 -520 0 -567
-51 -12 -13 -26 -36 -32 -52 -7 -18 -11 -233 -11 -626 l-1 -599 -28 -38 c-39
-54 -76 -72 -137 -70 -38 1 -60 8 -86 28 -57 44 -68 79 -68 220 0 191 -35 292
-137 399 -187 197 -499 197 -686 0 -30 -31 -66 -80 -81 -109 -56 -110 -56
-107 -56 -857 l-1 -693 -28 -38 c-39 -54 -76 -72 -137 -70 -38 1 -60 8 -86 28
-73 56 -68 -34 -68 1248 0 1282 5 1192 -68 1248 l-35 27 -494 3 c-271 1 -493
5 -493 8 0 21 61 117 103 162 81 84 186 138 295 148 103 10 113 12 146 38 42
32 66 82 66 138 0 62 25 151 62 220 36 68 128 158 199 193 88 45 238 68 230
35 -2 -8 -5 -54 -7 -101 -3 -82 -2 -89 25 -126 56 -77 153 -94 224 -40 44 34
63 77 70 158 21 254 227 447 476 447 41 0 98 -7 125 -15z m-1244 -1743 l0
-160 -496 0 c-550 0 -539 -1 -590 66 -45 59 -44 139 3 195 50 59 43 58 586 59
l497 0 0 -160z m3287 131 c98 -71 95 -198 -5 -266 l-36 -24 -503 -1 -503 0 0
160 0 160 504 0 504 -1 39 -28z m-3287 -1091 l0 -480 -258 0 -257 0 -118 473
c-65 259 -117 475 -117 480 0 4 169 7 375 7 l375 0 0 -480z m1184 466 c18 -8
46 -31 62 -52 28 -37 29 -41 35 -198 5 -127 11 -172 27 -213 65 -170 205 -286
377 -316 246 -42 498 134 545 382 5 30 10 134 10 232 l0 179 375 0 c206 0 375
-3 375 -7 0 -5 -52 -221 -117 -480 l-118 -473 -897 0 -898 0 0 414 c0 270 4
425 11 443 32 84 128 125 213 89z m-1184 -1365 c0 -54 5 -122 10 -152 36 -190
199 -348 393 -382 199 -34 413 76 502 257 43 87 55 149 55 277 l0 99 933 0
932 -1 400 -334 c226 -190 462 -397 544 -477 l144 -143 -1397 -3 c-768 -1
-2024 -1 -2792 0 l-1396 3 126 127 c69 70 219 205 333 300 114 95 220 184 236
198 16 14 110 93 210 177 l182 152 293 1 292 0 0 -99z m4180 -1228 c45 -72
143 -267 183 -363 48 -118 107 -303 123 -383 2 -10 5 -26 8 -35 3 -9 8 -33 11
-52 3 -19 8 -42 10 -50 2 -8 7 -37 11 -65 3 -27 8 -59 10 -69 2 -10 6 -58 9
-105 4 -47 8 -92 10 -98 3 -7 1 -13 -3 -13 -4 0 -140 95 -302 211 -162 116
-313 223 -335 237 -45 29 -102 38 -143 24 -15 -5 -210 -139 -432 -298 -223
-158 -412 -288 -420 -288 -8 0 -188 124 -400 275 -212 151 -401 284 -420 295
-40 23 -94 30 -131 15 -15 -5 -208 -139 -430 -297 -222 -158 -411 -288 -419
-288 -8 0 -188 124 -400 275 -212 151 -401 284 -420 295 -40 23 -94 30 -131
15 -15 -5 -208 -139 -430 -297 -222 -158 -411 -288 -419 -288 -8 0 -188 124
-400 275 -212 151 -398 282 -414 293 -34 22 -78 30 -120 22 -18 -4 -168 -104
-361 -241 -181 -129 -333 -235 -337 -235 -4 0 -6 6 -3 13 2 6 6 50 9 97 3 47
8 94 10 105 2 11 7 40 10 65 3 25 8 56 11 70 3 14 8 39 10 55 12 68 57 227 95
340 41 120 172 397 230 488 l30 47 3030 0 3030 0 30 -47z m-5338 -1409 c222
-158 415 -291 430 -296 45 -16 101 -4 154 33 27 18 213 150 414 293 201 143
372 260 380 260 8 0 197 -130 420 -288 223 -159 417 -293 432 -298 45 -16 101
-4 154 33 27 18 213 150 414 293 201 143 372 260 380 260 8 0 197 -130 420
-288 223 -159 417 -293 432 -298 45 -16 101 -4 154 33 27 18 213 150 414 293
201 143 372 260 380 260 15 0 708 -488 722 -508 4 -5 5 -13 3 -16 -1 -3 -6
-32 -9 -65 -11 -94 -21 -152 -46 -265 -28 -123 -65 -249 -111 -375 -43 -116
-158 -358 -209 -437 l-30 -48 -3023 0 -3022 0 -62 113 c-173 313 -293 681
-329 1009 -3 29 -7 59 -9 66 -6 17 -17 8 375 287 190 135 351 243 357 241 7
-3 194 -134 415 -292z m5037 -1785 c-53 -67 -218 -230 -314 -309 -169 -140
-315 -235 -515 -335 -251 -126 -463 -192 -795 -250 -98 -17 -284 -20 -1145
-20 -855 0 -1017 3 -1125 20 -56 9 -90 15 -115 20 -14 3 -40 8 -59 11 -75 12
-288 76 -394 117 -280 110 -516 249 -739 434 -98 82 -264 245 -316 311 l-34
42 2792 0 2792 0 -33 -41z M2335 2866 c-65 -28 -103 -102 -92 -175 11 -66 87
-131 154 -131 44 1 108 34 134 71 36 51 34 133 -5 183 -46 61 -123 82 -191 52z
M4160 2873 c-91 -37 -131 -144 -86 -231 9 -17 37 -43 62 -58 37 -22 53 -26 91
-21 149 17 194 199 71 290 -27 20 -109 32 -138 20z M5948 2858 c-106 -61 -102
-225 7 -278 51 -25 88 -25 141 -1 106 48 119 204 22 272 -43 31 -122 34 -170
7z M7775 2866 c-65 -28 -103 -102 -92 -175 11 -66 87 -131 154 -131 44 1 108
34 134 71 36 51 34 133 -5 183 -46 61 -123 82 -191 52z"/>
</g>
</svg>
