<svg xmlns="http://www.w3.org/2000/svg" viewBox="0 0 1024 1024">
<g transform="translate(0,1024) scale(0.1,-0.1)">
<path fill="currentColor" d="M88 10220 c-57 -31 -83 -75 -83 -140 1 -76 20 -99 144 -182 178 -119
261 -186 407 -332 121 -121 259 -290 328 -399 17 -28 17 -28 -3 -18 -21 12
-244 78 -289 86 -15 3 -38 7 -52 10 -14 3 -45 8 -70 11 -25 3 -56 7 -70 10
-76 12 -260 16 -293 5 -100 -33 -139 -169 -71 -250 14 -17 78 -57 147 -92 67
-34 157 -84 199 -110 413 -255 716 -668 837 -1142 16 -61 32 -136 36 -166 4
-30 9 -63 12 -75 3 -12 7 -167 9 -346 4 -346 -1 -401 -47 -540 -39 -118 -111
-240 -195 -330 -23 -25 -48 -59 -57 -75 -20 -40 -15 -117 9 -148 11 -13 49
-62 87 -108 66 -83 131 -199 161 -291 16 -48 20 -67 36 -153 10 -55 8 -2087
-2 -2120 -3 -11 -11 -40 -18 -65 -38 -149 -115 -292 -216 -400 -23 -25 -48
-59 -57 -75 -20 -40 -15 -117 9 -148 11 -13 49 -62 87 -108 66 -83 131 -199
161 -291 16 -49 21 -68 36 -153 5 -27 9 -479 9 -1004 1 -1061 -3 -994 69
-1049 l35 -27 370 -2 c415 -3 403 -5 458 71 l29 38 0 952 c0 523 3 967 5 986
5 31 12 76 21 119 20 101 99 258 181 359 114 140 112 137 110 197 -3 58 -1 54
-97 168 -69 82 -134 194 -165 286 -55 161 -54 146 -54 1221 0 547 4 1018 9
1045 16 85 20 104 36 153 31 93 95 209 162 291 37 45 75 93 85 105 24 30 32
95 18 137 -7 19 -37 61 -67 94 -112 122 -194 288 -228 461 -13 64 -15 140 -12
404 4 350 5 358 43 529 76 348 255 675 507 927 156 156 306 264 511 366 154
77 173 92 197 145 33 74 10 153 -59 199 -23 16 -47 19 -138 19 -113 0 -213 -9
-300 -27 -27 -5 -63 -12 -80 -15 -56 -9 -269 -73 -282 -85 -24 -20 -14 9 24
63 178 262 407 487 685 673 147 98 163 117 163 196 0 97 -57 154 -153 154 -54
-1 -120 -9 -151 -20 -8 -2 -30 -7 -49 -10 -58 -9 -230 -63 -341 -106 -376
-147 -743 -415 -990 -723 -35 -44 -66 -81 -70 -82 -3 -1 -28 28 -56 64 -49 65
-247 271 -315 329 -304 259 -705 455 -1085 530 -11 2 -31 6 -45 9 -76 17 -136
15 -172 -5z m1052 -744 c264 -212 495 -526 620 -841 29 -72 30 -80 15 -91 -14
-11 -33 4 -130 104 -62 65 -143 140 -178 167 -49 38 -71 62 -87 100 -103 232
-241 467 -365 619 -25 31 -45 58 -45 61 0 9 86 -52 170 -119z m1399 105 c-107
-145 -181 -252 -224 -326 -60 -102 -155 -291 -176 -349 -9 -26 -28 -48 -57
-68 -24 -17 -45 -28 -47 -26 -2 1 -22 43 -44 93 l-42 89 35 51 c115 165 307
365 471 488 49 37 92 67 94 67 2 0 -3 -8 -10 -19z m-1364 -946 c115 -83 229
-187 319 -295 l75 -90 -33 -57 c-19 -32 -46 -85 -62 -118 l-28 -60 -15 40
c-31 81 -141 286 -202 377 -71 107 -108 154 -199 257 l-65 75 63 -34 c34 -19
100 -62 147 -95z m1318 58 c-180 -205 -301 -395 -398 -628 -47 -112 -109 -301
-119 -366 -3 -20 -8 -42 -10 -50 -5 -13 -9 -39 -22 -132 -3 -21 -7 -46 -9 -55
-2 -9 -4 -36 -4 -59 l-1 -43 -161 0 -161 0 7 58 c32 274 145 565 313 802 79
112 266 304 373 384 67 50 235 156 247 156 2 0 -23 -30 -55 -67z m-572 -1785
c1 -131 3 -165 13 -239 15 -111 65 -267 117 -371 l29 -58 -320 0 -320 0 33 68
c55 109 101 260 114 372 3 25 6 54 8 65 2 11 4 82 4 158 l1 137 160 0 160 0 1
-132z m129 -1049 c-17 -33 -46 -106 -65 -162 -66 -196 -65 -170 -62 -1327 2
-575 6 -1056 10 -1070 4 -14 12 -50 18 -80 15 -72 64 -211 100 -282 l29 -58
-320 0 -320 0 30 60 c56 110 102 261 118 380 4 30 7 525 7 1100 0 962 -1 1052
-18 1127 -23 109 -62 223 -103 306 l-34 67 320 0 320 0 -30 -61z m1 -3356
c-58 -117 -107 -282 -125 -428 -3 -22 -5 -426 -6 -897 l0 -858 -160 0 -160 0
0 858 c-1 471 -3 875 -6 897 -18 149 -63 303 -120 418 l-34 67 320 0 320 0
-29 -57z M6815 10226 c-37 -16 -83 -68 -91 -102 -10 -38 2 -104 24 -133 10
-14 76 -64 146 -111 217 -146 400 -311 553 -500 68 -83 165 -221 159 -227 -1
-2 -43 10 -92 26 -78 25 -211 58 -309 75 -69 12 -176 20 -277 21 -93 0 -110
-3 -135 -21 -89 -66 -99 -180 -21 -250 12 -12 69 -45 125 -73 240 -120 383
-220 549 -387 239 -241 409 -539 493 -867 16 -61 32 -136 36 -166 4 -30 9 -63
12 -75 3 -12 7 -167 9 -346 3 -263 1 -340 -12 -404 -34 -173 -115 -338 -228
-462 -31 -34 -60 -74 -66 -89 -25 -65 -6 -123 65 -200 112 -123 183 -263 232
-460 4 -16 8 -489 10 -1050 2 -880 0 -1031 -13 -1099 -33 -172 -115 -338 -228
-462 -31 -34 -60 -74 -66 -89 -25 -65 -6 -123 65 -200 112 -123 184 -265 232
-460 4 -16 9 -471 10 -1009 4 -1088 -1 -1019 71 -1074 l35 -27 370 -2 c415 -3
403 -5 458 71 l29 38 0 957 c1 526 3 974 6 996 24 182 101 352 229 500 69 79
83 110 80 167 -2 49 -13 68 -90 153 -102 113 -188 300 -214 460 -3 22 -6 506
-6 1075 l0 1035 23 84 c41 151 103 265 207 386 69 79 83 110 80 167 -2 49 -13
68 -90 153 -80 88 -163 247 -195 370 -23 91 -25 127 -25 440 0 354 5 409 50
602 47 197 141 413 258 592 194 295 420 492 766 670 157 81 187 109 197 182 8
61 -14 110 -67 149 l-42 30 -131 -5 c-133 -5 -167 -8 -266 -26 -30 -6 -68 -13
-85 -16 -56 -10 -269 -74 -282 -85 -24 -20 -14 9 24 63 178 263 409 489 692
678 128 86 148 109 157 174 12 89 -55 168 -146 172 -61 4 -238 -33 -389 -81
-283 -89 -558 -235 -796 -424 -100 -79 -292 -273 -365 -368 -30 -39 -57 -71
-60 -71 -3 0 -30 32 -60 72 -85 111 -293 313 -421 409 -119 89 -265 181 -386
241 -134 68 -399 164 -503 183 -14 3 -33 7 -42 10 -10 3 -28 7 -40 10 -13 2
-34 6 -48 9 -65 14 -137 15 -165 1z m955 -679 c261 -189 496 -469 640 -762 85
-174 102 -222 84 -240 -13 -12 -29 1 -129 103 -62 64 -143 140 -178 167 -58
45 -69 59 -103 135 -96 213 -279 516 -375 619 -10 11 -19 23 -19 26 0 8 13 0
80 -48z m1493 40 c-4 -7 -40 -55 -79 -107 -121 -161 -232 -354 -312 -540 -25
-58 -42 -82 -73 -104 -22 -15 -42 -27 -44 -25 -1 2 -22 44 -45 92 l-43 88 48
70 c108 158 285 340 453 467 53 39 98 72 100 72 2 0 -1 -6 -5 -13z m-1512
-857 c185 -110 365 -264 492 -423 l46 -58 -29 -47 c-16 -26 -43 -79 -61 -117
-31 -64 -33 -67 -43 -44 -69 170 -180 362 -296 514 -64 84 -80 103 -149 178
-32 35 -24 34 40 -3z m1468 -27 c-241 -265 -426 -610 -513 -962 -13 -53 -27
-116 -31 -141 -4 -25 -9 -53 -11 -64 -4 -22 -14 -110 -16 -148 l-2 -28 -159 0
-159 0 6 63 c32 301 177 634 387 893 84 103 245 252 351 325 79 54 185 118
197 119 1 0 -21 -26 -50 -57z m-579 -1800 c1 -76 3 -156 6 -178 18 -149 63
-303 120 -417 l34 -68 -320 0 -320 0 26 52 c93 184 132 366 133 631 l1 117
160 0 160 0 0 -137z m126 -1050 c-41 -83 -80 -197 -103 -306 -17 -75 -18 -165
-18 -1127 0 -575 3 -1070 7 -1100 16 -119 62 -270 118 -380 l30 -60 -320 0
-320 0 26 52 c48 95 86 211 120 368 4 19 9 501 10 1070 3 1120 2 1125 -52
1299 -14 46 -43 122 -64 168 l-39 83 320 0 319 0 -34 -67z m0 -3360 c-57 -115
-102 -269 -120 -418 -3 -22 -5 -426 -6 -897 l0 -858 -160 0 -160 0 0 858 c-1
471 -3 875 -6 897 -18 149 -63 303 -120 418 l-34 67 320 0 320 0 -34 -67z
M4954 6550 c-125 -33 -243 -103 -330 -198 l-41 -45 -95 2 c-120 3 -207 -17
-318 -71 -119 -59 -239 -178 -298 -296 -23 -46 -44 -99 -48 -118 -4 -23 -14
-38 -28 -44 -117 -43 -150 -59 -206 -96 -74 -49 -110 -81 -161 -144 -88 -109
-140 -244 -144 -381 -3 -69 -8 -96 -29 -137 -99 -196 -61 -422 98 -569 54 -50
161 -113 193 -113 6 0 47 -108 91 -240 l80 -239 -121 -97 c-300 -239 -492
-470 -636 -761 -73 -148 -145 -344 -165 -453 -2 -14 -9 -47 -15 -75 -44 -209
-48 -518 -11 -727 5 -29 11 -64 14 -78 16 -95 73 -279 124 -400 252 -598 770
-1042 1404 -1205 231 -59 296 -63 838 -61 267 2 496 5 510 9 14 3 45 8 70 11
25 3 56 8 70 11 14 3 37 7 52 10 79 15 280 80 389 127 500 215 908 635 1107
1138 67 170 122 391 139 560 13 140 7 410 -12 510 -3 13 -7 42 -10 65 -15 102
-79 319 -130 440 -78 184 -219 413 -340 552 -68 78 -218 217 -332 309 l-141
115 80 239 c44 132 84 240 90 240 30 0 145 68 196 115 156 145 195 372 96 567
-21 41 -26 68 -29 137 -6 222 -144 443 -347 554 -26 15 -77 37 -114 49 l-66
23 -17 55 c-31 99 -82 181 -166 266 -138 140 -265 194 -464 200 l-124 4 -54
54 c-169 174 -421 246 -649 186z m270 -314 c77 -23 148 -79 201 -161 25 -38
57 -78 71 -89 37 -27 93 -31 159 -11 57 16 144 21 195 10 48 -9 127 -56 169
-97 47 -48 88 -125 95 -178 3 -19 7 -54 10 -77 12 -100 63 -147 171 -157 76
-7 116 -19 169 -50 43 -25 105 -87 126 -125 l11 -21 -436 0 c-467 0 -476 -1
-522 -51 -12 -13 -26 -36 -32 -52 -7 -18 -11 -233 -11 -626 l-1 -599 -28 -38
c-39 -54 -76 -72 -137 -70 -38 1 -60 8 -86 28 -67 51 -68 56 -68 448 0 391 -1
397 -67 447 -65 49 -158 40 -212 -22 -28 -32 -34 -50 -45 -131 -13 -99 -130
-161 -221 -118 -20 9 -48 33 -63 52 l-27 35 -5 297 -5 297 -29 37 c-50 66 -47
66 -531 66 l-436 0 18 31 c50 85 165 155 270 164 125 10 176 53 189 158 9 82
15 108 34 152 40 94 157 185 258 201 l41 6 -3 -63 c-2 -35 1 -75 7 -89 40 -95
153 -132 235 -77 47 30 68 72 77 151 11 100 41 164 109 232 95 95 221 127 350
90z m-904 -1436 l0 -160 -336 0 c-373 0 -381 1 -430 66 -45 59 -44 139 3 195
48 57 57 58 426 59 l337 0 0 -160z m2327 131 c98 -71 95 -198 -5 -266 l-35
-24 -344 -1 -343 0 0 160 0 160 344 0 344 -1 39 -28z m-2162 -649 c119 -104
293 -147 433 -106 l42 12 0 -113 c0 -142 11 -202 55 -291 59 -120 176 -214
312 -249 256 -67 533 111 583 374 5 30 10 134 10 232 l0 179 209 0 209 0 -83
-251 c-86 -259 -90 -281 -59 -341 8 -15 103 -99 212 -187 108 -87 225 -188
260 -223 l62 -64 -1610 0 -1610 0 62 64 c35 35 152 136 260 223 109 88 204
172 212 187 31 60 27 82 -59 341 l-83 251 270 0 270 0 43 -38z m2528 -1444
c25 -51 59 -135 76 -185 36 -105 72 -261 63 -267 -4 -2 -34 16 -67 40 -107 79
-157 95 -220 69 -16 -7 -142 -92 -280 -190 -137 -98 -257 -179 -265 -179 -8 0
-126 79 -261 176 -136 97 -257 181 -269 188 -32 17 -90 20 -125 5 -16 -7 -142
-92 -280 -190 -137 -98 -257 -179 -265 -179 -8 0 -126 79 -261 176 -136 97
-257 181 -269 188 -32 17 -90 20 -125 5 -16 -7 -142 -92 -280 -190 -137 -98
-257 -179 -265 -179 -8 0 -127 81 -265 179 -137 98 -263 183 -280 190 -26 10
-53 12 -101 6 -6 0 -51 -28 -99 -61 -49 -33 -90 -58 -91 -57 -6 6 37 182 65
265 16 49 50 133 76 186 l46 96 1849 0 1849 0 44 -92z m-3430 -874 c144 -103
274 -191 289 -196 38 -14 100 -5 134 19 16 11 138 97 272 192 l242 172 263
-187 c144 -103 274 -191 289 -196 38 -14 100 -5 134 19 16 11 138 97 272 192
l242 172 263 -187 c144 -103 274 -191 289 -196 38 -14 100 -5 134 19 16 11
138 97 271 192 l243 171 126 -87 125 -88 -5 -70 c-16 -218 -94 -465 -214 -682
l-57 -103 -1775 0 -1775 0 -47 83 c-90 159 -143 294 -183 460 -32 135 -35 149
-41 237 l-5 75 123 87 c68 48 124 87 126 87 2 1 121 -83 265 -185z m3022
-1192 c-105 -98 -257 -203 -385 -267 -141 -71 -349 -140 -476 -159 -22 -4 -51
-9 -64 -13 -14 -4 -250 -8 -525 -9 -443 -2 -550 1 -654 21 -14 3 -42 8 -61 11
-53 9 -197 52 -270 81 -193 77 -382 196 -540 340 l-25 23 1515 0 1515 0 -30
-28z"/>
</g>
</svg>
