<svg viewBox="0 0 53 53" xmlns="http://www.w3.org/2000/svg"><g><path fill="currentColor" d="m40.0880623 4.9315186c.0141602-.0058594 1.5048828-.4990234 2.4462891.175293 1.0825844.7754636.9603348 2.721911 1.0189819 3.2796631.1254311 1.1765022 1.8332558 1.1986494 1.960144-.0003662.0762329-.7218781-.0730209-2.4885616 1.012085-3.2744141.953125-.6884766 2.4282227-.1879883 2.4575195-.1787109.5219727.184082 1.0883789-.0839844 1.2763672-.6015625.1879883-.5195313-.0810547-1.0927734-.6000977-1.2807617-.1005859-.0366211-2.4731445-.8720703-4.2910156.4301758-.3203125.2293091-.5980835.5062866-.8349609.8280029-.2368774-.3217163-.5146484-.5986938-.8349609-.8280029-1.8178711-1.3022461-4.1894531-.4667969-4.2910156-.4301758-.519043.1879883-.7880859.7612305-.6000977 1.2807617.1879882.5185546.7612304.786621 1.2807617.6000976z"/><path fill="currentColor" d="m3.9225359 9.8338623c.0097656-.0019531.9760742-.2128906 1.609375.2924805.7778139.6200409.6934843 2.0878677.739563 2.4661255.1390948 1.1372633 1.8108091 1.1804905 1.9541016-.0001831.0628605-.5200262-.0306273-1.8408337.7306519-2.4591064.6308594-.5107422 1.5927734-.3041992 1.625-.2973633.5336914.1274414 1.0722656-.1967773 1.2050781-.7304688.1337891-.5356445-.1923828-1.0786133-.7285156-1.2119141-.1943359-.0478516-1.9438477-.4423828-3.3393555.6689453-.1796265.1431885-.3229981.3225708-.4699097.4984131-.1469117-.1759033-.2903443-.3552246-.4700318-.4984131-1.3940429-1.1113281-3.1440429-.7172851-3.3393554-.6689453-.5361329.1333008-.8623047.6762695-.7285157 1.2119141.1333008.5356445.6767578.8642578 1.2119141.7285156z"/><path fill="currentColor" d="m16.7505398 38.3948364-1.6243906 10.1050415h-4.9570313c-.5522461 0-1 .4477539-1 1s.4477539 1 1 1h32.6616211c.5522461 0 1-.4477539 1-1s-.4477539-1-1-1h-4.9570313l-1.6243896-10.1050415 1.0843506-4.1473999c.4681129-1.7867203-.7735863-3.619854-2.7192993-3.7379761l-1.0305176-8.5968628 1.1575317-4.6622314c.1489258-.6010742.015625-1.2255859-.3662109-1.7133789-.2149658-.2745972-.4945679-.4744263-.8051758-.6043701v-3.6959229c0-1.5905762-1.2477417-2.8829956-2.8139629-2.9812012v-1.5002441c0-2.3276367-3.2045898-3.8803711-3.8466797-4.1679688-.2597656-.1162109-.5576172-.1162109-.8173828 0-.6420898.2875977-3.8461914 1.840332-3.8461914 4.1679688v1.5001831c-1.5664673.0979004-2.8144531 1.3905029-2.8144531 2.9812622v3.6958008c-.3112183.130127-.5912476.3302612-.8061523.6054688-.3818359.487793-.5151367 1.1123047-.3657227 1.7128906l1.1564331 4.6587524-1.0304565 8.5998535c-1.947382.1182232-3.1868658 1.9531059-2.7192392 3.7379761zm15.8038311 10.1050415.0009766-.3295898c.0014648-.5522461-.4448242-1.0014648-.9970684-1.0029297-.0009766 0-.0019531 0-.0029297 0-.5507813 0-.9985352.4458008-1 .9970703l-.0009766.3354492h-3.0535889l.0008545-.3447266c.0014648-.5522461-.4453125-1.0009766-.9975586-1.0024414-.0009766 0-.0014648 0-.0024414 0-.5512695 0-.9985352.4458008-1 .9975586l-.0009155.3496094h-3.0533447l.0010376-.3583984c.0014648-.5522461-.4448242-1.0014648-.9970703-1.0029297-.0009766 0-.0019531 0-.0029297 0-.5507813 0-.9985352.4458008-1 .9970703l-.0010376.3642578h-3.2953492l1.4711914-9.1538086h15.7534161l1.4711914 9.1538086zm-3.9638653-19.34375c-.581543.0175781-1.0014648.4443359-1.0029297.9970703l-.0009766.3354492h-2.1704102l.0009766-.3417969c.0014648-.5522461-.4448242-1.0014648-.9970703-1.0029297-.5493164.0297852-1.0014648.4443359-1.0029297.9970703l-.0010376.3476563h-3.0140991l.9155273-7.6416016h10.3642578l.9160137 7.6416016h-3.0112286l.0009766-.3295898c.001465-.5522461-.4448241-1.0014648-.9970702-1.0029297zm-8.1591797-12.3867187h12.13867c.0008545 0 .0015259-.0004883.0023804-.0004883h.2276001l-1.0126934 4.078125h-10.5742188l-1.012207-4.0776367h.2304077zm3.8144531-10.0141602c0-.6572266 1.2041016-1.5864258 2.2548828-2.1420898 1.0507813.5556641 2.2553711 1.4848633 2.2553711 2.1420898v1.4814453h-4.5102539zm-2.8144531 4.4814453c0-.5512695.4487305-1 1-1h8.1386719c.5512695 0 1 .4487305 1 1v3.5327148h-4.0683594l.0009766-.3300781c.0014648-.5522461-.4448242-1.0014648-.9970703-1.0029297-.0009766 0-.0019531 0-.0029297 0-.5507813 0-.9985352.4458008-1 .9970703l-.0009766.3359375h-4.0703125zm-2.862793 21.2519532c.3299828 0 16.5796604 0 15.8627911 0 .655304 0 1.1329689.6178017.9677734 1.2529297l-.9423828 3.6044922h-15.9135723l-.9423828-3.6044922c-.1649227-.634079.3114967-1.2529297.9677734-1.2529297z"/></g></svg>