<svg viewBox="0 0 512 512" xmlns="http://www.w3.org/2000/svg"><g><path fill="currentColor" d="m495.948 239.945c-.001-64.092-24.96-124.348-70.28-169.667-45.32-45.32-105.576-70.278-169.668-70.278s-124.347 24.958-169.667 70.277-70.28 105.575-70.281 169.666l-.005 272.057h479.907zm-83.278-139.591c-12.19 3.658-24.971 5.262-37.737 4.656-18.691-.888-36.964-6.479-52.963-16.164 1.91-6.312 2.949-13 2.949-19.927 0-10.547-2.389-20.544-6.642-29.49 36.821 11.46 69.319 32.813 94.393 60.925zm-156.67-70.354c21.46 0 38.919 17.459 38.919 38.919s-17.459 38.919-38.919 38.919-38.919-17.459-38.919-38.919 17.459-38.919 38.919-38.919zm-62.277 9.429c-4.253 8.946-6.642 18.943-6.642 29.49 0 6.927 1.038 13.615 2.949 19.927-15.999 9.685-34.271 15.276-52.962 16.164-12.763.604-25.545-.998-37.737-4.656 25.074-28.111 57.571-49.465 94.392-60.925zm-112.61 442.571h-35.065l.004-242.056c.001-42.209 12.533-81.542 34.057-114.493 16.445 6.379 38.558 9.524 58.382 9.524 23.368-1.11 46.217-8.023 66.292-19.999 5.679 6.309 12.509 11.556 20.149 15.431-31.057 37.797-83.598 71.926-143.788 88.614zm30-114.043c9.676 14.282 21.411 27.056 34.767 37.911-16.85 16.603-29.131 37.826-34.767 61.596zm27.7 114.043c3.603-23.362 15.491-44.022 32.553-58.89 25.095 13.937 53.951 21.89 84.634 21.89s59.539-7.953 84.634-21.89c17.062 14.867 28.95 35.528 32.553 58.89zm262.074-14.536c-5.636-23.77-17.917-44.993-34.767-61.596 13.356-10.855 25.091-23.629 34.767-37.911zm0-197.351c0 79.891-64.996 144.887-144.887 144.887s-144.888-64.996-144.888-144.878l.018-29.57c63.928-22.865 111.532-56.094 144.824-101.128 33.323 45.052 80.967 78.283 144.933 101.131zm30 211.887v-262.981c-60.887-16.685-112.795-50.782-143.88-88.579 7.664-3.879 14.515-9.137 20.209-15.462 20.075 11.975 42.925 18.888 66.292 19.999 21.491 0 41.938-3.146 58.383-9.524 21.524 32.952 34.056 72.284 34.057 114.494l.004 242.053z"/><path fill="currentColor" d="m156.333 251.334h30v30h-30z"/><path fill="currentColor" d="m325.667 251.334h30v30h-30z"/><path fill="currentColor" d="m241 204.667h30v30h-30z"/><path fill="currentColor" d="m256 305c-9.849 0-19.035-5.305-23.974-13.844l-25.969 15.021c10.285 17.779 29.421 28.823 49.943 28.823 20.521 0 39.658-11.044 49.942-28.822l-25.968-15.022c-4.939 8.539-14.126 13.844-23.974 13.844z"/></g></svg>