<svg xmlns="http://www.w3.org/2000/svg" viewBox="0 0 1024 1024">
<g transform="translate(0,1024) scale(0.1,-0.1)">
<path fill="currentColor" d="M9995 10220 c-25 -12 -328 -308 -832 -812 l-792 -793 -65 33 c-120
61 -304 90 -431 69 -81 -13 -100 -19 -171 -46 -149 -58 -287 -176 -368 -315
-21 -36 -46 -66 -55 -67 -98 -4 -257 -66 -377 -145 -134 -88 -280 -264 -326
-391 -7 -18 -16 -33 -22 -33 -5 0 -48 20 -95 44 -251 129 -523 219 -850 281
-13 2 -49 7 -80 11 -31 3 -65 8 -76 10 -112 22 -569 22 -681 0 -12 -2 -45 -7
-75 -11 -30 -4 -88 -13 -129 -21 -41 -8 -86 -17 -100 -20 -53 -10 -210 -55
-305 -87 -929 -315 -1653 -1089 -1910 -2040 -13 -51 -26 -103 -29 -117 -3 -14
-12 -59 -20 -100 -8 -41 -17 -99 -21 -129 -4 -30 -9 -63 -11 -75 -22 -112 -22
-569 0 -681 2 -11 7 -45 10 -75 25 -216 111 -526 211 -760 95 -222 259 -494
418 -693 109 -137 306 -331 449 -445 l116 -93 -10 -37 c-22 -80 -73 -167 -138
-232 -102 -102 -218 -154 -370 -165 -137 -10 -171 -34 -214 -148 -31 -82 -73
-145 -125 -186 -271 -215 -662 -30 -662 314 0 173 112 327 277 381 63 22 113
59 129 98 7 17 16 65 19 106 6 80 8 90 26 163 32 124 -40 227 -160 227 -107 0
-170 -82 -195 -255 -4 -22 -13 -44 -22 -50 -167 -104 -244 -177 -312 -293
-127 -214 -138 -484 -30 -706 l33 -67 -801 -802 c-647 -648 -803 -809 -813
-841 -15 -48 -6 -111 23 -154 24 -35 89 -72 128 -72 78 0 67 -10 898 820 440
440 806 800 813 800 7 0 28 -9 46 -20 77 -47 224 -84 337 -84 267 0 516 140
648 366 l37 63 78 17 c270 55 499 233 626 485 56 112 98 313 82 395 -8 45 -49
87 -176 179 -499 364 -866 936 -994 1546 -27 129 -35 180 -52 343 -7 75 -7
363 0 428 3 28 9 75 12 104 3 28 8 60 10 72 2 11 6 38 9 61 12 83 59 264 101
387 90 262 211 496 369 707 332 446 757 758 1272 935 123 42 305 89 388 101
23 3 50 7 61 9 12 2 43 7 70 10 27 3 74 8 104 12 73 8 348 8 430 0 160 -17
209 -24 342 -52 898 -188 1641 -855 1938 -1738 37 -111 84 -294 95 -371 3 -23
7 -50 9 -60 4 -20 10 -73 22 -175 12 -112 7 -400 -11 -530 -2 -19 -7 -55 -11
-80 -24 -183 -102 -456 -188 -655 -164 -379 -446 -746 -771 -1005 -188 -149
-462 -307 -682 -394 -95 -37 -301 -102 -353 -111 -17 -3 -61 -12 -98 -19 -37
-8 -87 -17 -112 -21 -25 -3 -56 -8 -70 -10 -105 -16 -444 -24 -535 -11 -42 5
-151 17 -197 21 -41 4 -102 -29 -134 -71 -25 -32 -29 -46 -29 -99 0 -52 5 -68
28 -99 34 -44 69 -63 133 -72 27 -3 58 -8 69 -10 112 -21 572 -21 691 0 10 2
42 7 69 10 86 12 107 16 225 42 254 57 451 128 700 254 693 352 1219 955 1467
1685 34 100 89 301 98 359 3 17 8 42 10 56 10 46 13 65 20 120 4 30 9 63 11
73 21 117 22 579 0 692 -2 11 -7 43 -10 70 -49 380 -201 799 -415 1143 -68
110 -184 271 -246 342 -144 166 -279 297 -423 413 -94 76 -111 93 -106 111 50
162 141 275 281 348 84 45 129 57 235 64 133 9 172 38 217 159 92 247 386 345
601 200 69 -46 104 -86 140 -160 34 -69 41 -98 41 -177 1 -176 -102 -318 -277
-384 -115 -43 -139 -78 -149 -214 -3 -41 -8 -91 -9 -112 -11 -120 122 -211
236 -160 56 24 86 65 101 137 11 53 13 56 75 92 337 197 463 637 283 983 l-28
55 802 802 c624 623 806 810 815 839 47 141 -103 271 -235 204z M5055 7325
c-37 -16 -80 -61 -94 -98 -6 -16 -11 -102 -11 -198 0 -154 -2 -169 -17 -170
-10 0 -27 -2 -38 -4 -11 -2 -40 -7 -65 -10 -25 -3 -94 -19 -155 -35 -361 -95
-681 -303 -919 -597 -67 -84 -40 -87 -224 21 -61 36 -126 69 -144 74 -53 15
-103 3 -148 -34 -61 -52 -80 -126 -48 -195 24 -55 36 -64 194 -155 74 -42 134
-82 134 -88 0 -6 -14 -44 -30 -84 -31 -77 -75 -229 -86 -297 -3 -22 -7 -42 -9
-45 -18 -29 -27 -368 -12 -490 15 -131 44 -253 92 -385 20 -55 39 -109 41
-121 5 -18 -13 -31 -132 -99 -180 -102 -207 -131 -205 -222 1 -73 46 -133 117
-158 63 -21 102 -9 265 88 42 25 90 52 107 61 l30 16 58 -73 c238 -295 557
-501 929 -600 50 -13 92 -24 95 -25 8 0 103 -14 125 -17 11 -2 26 -4 33 -4 9
-1 12 -42 12 -171 0 -121 4 -180 14 -203 13 -33 77 -96 99 -98 7 0 21 -2 32
-5 41 -8 97 8 132 39 57 50 63 75 63 267 0 155 2 170 18 171 9 0 25 2 34 4 9
2 35 6 57 9 136 19 326 79 476 151 237 114 443 277 610 485 66 81 39 84 223
-24 140 -82 166 -90 238 -72 31 8 82 52 100 87 31 62 13 156 -40 202 -11 10
-81 53 -154 94 -115 66 -133 79 -128 97 2 12 21 66 41 121 32 89 64 205 80
290 33 187 26 493 -16 670 -5 22 -12 48 -14 59 -12 53 -40 137 -66 203 -16 40
-29 77 -29 82 0 5 60 43 134 85 158 91 170 100 194 155 47 105 -21 217 -144
235 -35 5 -84 -15 -202 -83 -64 -37 -127 -73 -138 -79 -19 -10 -26 -5 -70 51
-60 78 -236 253 -292 291 -116 79 -259 16 -270 -119 -5 -66 15 -112 71 -158
154 -126 292 -298 381 -476 40 -80 100 -253 110 -315 4 -21 8 -41 10 -45 18
-28 26 -302 13 -426 -50 -490 -396 -945 -863 -1136 -312 -127 -664 -139 -980
-33 -459 153 -810 538 -924 1014 -41 173 -47 397 -15 575 91 501 463 924 953
1084 48 16 104 32 123 35 19 3 46 8 62 11 15 3 39 7 55 10 15 3 74 7 132 11
130 7 174 27 208 94 21 43 22 54 22 314 0 249 -2 273 -20 310 -11 23 -35 52
-54 65 -42 27 -117 35 -161 16z M5055 6021 c-46 -21 -79 -54 -94 -94 -7 -18
-11 -141 -11 -333 l0 -304 -203 0 -203 0 1 228 c1 237 -4 279 -37 325 -49 69
-164 85 -233 33 -71 -55 -73 -68 -73 -451 1 -370 2 -378 60 -432 43 -40 68
-43 384 -43 l304 0 -2 -202 -3 -203 -240 -1 c-210 0 -245 -3 -278 -18 -74 -36
-110 -114 -88 -194 15 -56 42 -88 96 -113 36 -17 72 -18 374 -18 357 0 375 2
430 52 48 45 51 65 51 392 l0 305 203 0 203 0 -1 -224 c0 -265 4 -295 51 -341
83 -83 212 -64 270 39 22 38 22 50 23 375 2 359 -1 383 -48 435 -49 54 -64 56
-396 56 l-305 0 0 205 0 205 240 0 c258 0 291 5 332 53 55 62 61 150 14 211
-55 73 -61 74 -441 75 -312 1 -343 -1 -380 -18z"/>
</g>
</svg>
