<svg xmlns="http://www.w3.org/2000/svg" viewBox="0 0 1024 1024">
<g transform="translate(0,1024) scale(0.1,-0.1)">
<path fill="currentColor" d="M8838 10010 c-10 -6 -335 -374 -724 -818 -389 -444 -719 -820 -733
-835 l-27 -28 -70 35 c-196 99 -451 98 -649 -1 -84 -43 -173 -111 -227 -176
-28 -34 -54 -63 -58 -65 -4 -1 -39 6 -78 17 -84 23 -216 25 -303 5 -83 -19
-203 -83 -272 -145 l-56 -50 -23 48 c-77 168 -216 295 -388 354 -85 30 -266
36 -355 13 -155 -41 -281 -145 -352 -292 l-40 -82 -39 35 c-73 66 -187 126
-289 152 -50 13 -214 11 -274 -2 -144 -34 -294 -128 -375 -236 -78 -103 -112
-193 -123 -319 -3 -41 -6 -76 -7 -77 -1 -1 -31 7 -66 19 -48 15 -96 22 -180
24 -135 3 -190 -9 -305 -66 -283 -139 -433 -445 -357 -725 10 -38 22 -78 27
-87 6 -15 1 -18 -31 -19 -287 -6 -532 -225 -597 -534 -14 -67 -15 -194 -2
-259 16 -79 74 -190 138 -261 l35 -39 -39 -18 c-177 -79 -305 -255 -338 -467
-9 -56 -7 -194 3 -247 37 -199 158 -364 328 -450 l48 -24 -45 -56 c-92 -113
-133 -228 -133 -375 0 -114 23 -204 85 -329 102 -204 298 -335 509 -339 l42
-1 -24 -76 c-52 -161 -28 -329 67 -478 l37 -60 -30 -43 c-74 -108 -111 -236
-111 -383 0 -130 20 -218 74 -327 l41 -83 -94 -107 c-124 -142 -1133 -1299
-1170 -1341 -69 -80 0 -197 99 -165 19 6 164 164 461 503 238 272 442 506 454
520 40 46 361 415 374 429 11 12 21 8 66 -21 115 -76 201 -108 333 -125 262
-34 522 74 683 283 l31 41 58 -13 c54 -11 199 -11 252 0 88 19 190 70 266 132
31 25 58 44 59 42 1 -2 17 -34 36 -73 49 -99 160 -208 262 -258 188 -91 415
-93 597 -5 91 44 205 159 252 253 18 39 35 72 36 74 1 2 23 -16 49 -41 199
-194 510 -209 761 -37 160 110 259 298 262 496 l1 52 33 -14 c68 -28 165 -47
247 -48 289 -1 551 199 624 478 22 86 16 260 -13 340 -38 103 -39 95 15 96
284 5 517 184 592 456 22 78 26 201 10 279 -21 99 -85 216 -168 307 -19 22
-35 40 -35 42 0 2 36 22 80 44 166 83 297 245 330 408 13 63 12 201 -1 263
-36 172 -163 330 -331 412 l-90 44 46 51 c180 201 222 458 115 692 -99 216
-308 347 -556 350 l-57 1 19 44 c64 151 71 301 18 452 l-21 61 32 47 c88 128
126 254 125 421 0 175 -44 309 -145 443 l-40 53 63 72 c100 113 122 139 133
151 6 6 152 173 325 371 173 198 319 365 325 371 5 6 35 39 65 74 30 35 60 68
65 74 12 12 410 468 463 529 61 71 33 163 -53 173 -22 2 -48 0 -57 -6z m-1753
-1783 c197 -52 348 -202 399 -397 31 -117 6 -290 -55 -394 -18 -32 -22 -34
-36 -21 -63 64 -175 120 -280 142 -93 19 -259 -4 -345 -48 l-38 -19 -1 62 c-2
162 -52 293 -154 405 l-52 58 31 39 c60 74 188 150 295 175 37 9 201 8 236 -2z
m-1862 -90 c117 -58 219 -186 243 -305 l7 -32 -39 5 c-22 4 -50 8 -63 10 -121
20 -479 27 -638 12 l-81 -7 14 60 c25 110 87 205 160 251 60 37 113 48 220 45
95 -1 106 -4 177 -39z m-1098 -162 c81 -22 152 -64 213 -129 53 -56 63 -76 38
-76 -31 0 -299 -83 -411 -127 -66 -25 -176 -75 -244 -110 -93 -47 -127 -60
-134 -50 -4 6 -6 53 -4 103 3 76 9 102 34 155 51 108 139 180 273 226 77 26
153 29 235 8z m2166 -57 c166 -79 243 -212 234 -401 -6 -109 -7 -117 -14 -113
-3 2 -49 28 -101 58 -185 106 -419 207 -612 263 -32 9 -58 19 -58 23 0 18 86
104 136 137 87 58 144 74 250 72 80 -3 98 -7 165 -39z m-1393 -520 l2 -238
-32 -1 c-18 0 -40 -2 -48 -4 -8 -1 -46 -6 -85 -9 -38 -4 -77 -9 -85 -11 -16
-4 -53 -11 -109 -21 -29 -5 -171 -45 -262 -73 -25 -8 -26 -5 -118 206 -52 118
-90 218 -85 223 14 12 225 79 304 95 8 2 44 10 80 19 36 8 67 15 70 15 6 1 87
11 120 17 14 2 59 7 100 10 41 4 76 7 77 8 2 1 17 2 35 2 l33 -1 3 -237z m372
227 c41 -4 82 -8 90 -10 8 -1 35 -6 60 -10 56 -9 78 -13 110 -20 14 -3 34 -7
45 -9 44 -9 155 -39 243 -68 77 -24 92 -32 87 -46 -3 -9 -43 -108 -88 -220
-72 -179 -84 -203 -102 -199 -11 2 -60 17 -110 31 -99 30 -97 30 -207 51 -79
15 -210 31 -275 34 l-23 1 0 239 0 239 48 -3 c26 -1 81 -6 122 -10z m1175
-419 c112 -73 290 -212 335 -260 l24 -27 -164 -164 c-91 -91 -167 -165 -170
-165 -3 0 -23 16 -45 36 -110 98 -288 219 -423 288 -39 21 -74 41 -77 45 -3 6
76 210 158 404 l17 39 117 -62 c65 -34 167 -94 228 -134z m-3188 163 c28 -9
63 -25 77 -34 l25 -17 -112 -86 c-125 -97 -351 -318 -441 -432 -33 -41 -65
-81 -72 -89 -10 -11 -17 -5 -37 35 -86 169 -60 341 72 486 65 71 118 107 200
135 82 29 209 30 288 2z m722 -204 c50 -115 88 -211 83 -213 -5 -1 -68 -37
-140 -79 -132 -77 -228 -144 -334 -235 l-57 -49 -167 167 -168 167 57 53 c123
114 345 268 520 360 56 29 105 50 108 46 4 -4 48 -101 98 -217z m3141 183
c109 -33 216 -140 255 -253 35 -102 13 -244 -55 -363 l-30 -52 -83 102 c-98
123 -281 309 -395 402 -45 37 -80 72 -77 76 17 27 168 93 235 102 37 6 110 -1
150 -14z m-2337 -450 c-73 -107 -149 -299 -173 -438 -12 -66 -15 -241 -5 -295
20 -107 85 -298 106 -311 21 -13 6 -33 -38 -49 -27 -10 -53 -22 -59 -27 -8 -6
-15 6 -23 39 -7 26 -26 81 -42 123 -82 214 -283 405 -517 490 -100 37 -233 71
-281 73 -41 1 228 182 384 257 160 78 344 141 485 165 19 4 53 10 75 14 22 4
59 8 82 9 l42 3 -36 -53z m547 37 c72 -11 258 -61 350 -95 131 -47 283 -126
411 -211 133 -90 149 -104 115 -107 -43 -3 -232 -69 -307 -107 -226 -114 -384
-281 -477 -507 -18 -42 -32 -83 -32 -92 0 -23 -17 -28 -53 -15 l-34 12 54 106
c78 155 96 234 97 411 0 121 -3 159 -22 230 -29 106 -70 204 -126 302 -38 68
-48 96 -27 84 4 -3 27 -7 51 -11z m-242 -97 c65 -96 96 -159 134 -271 26 -77
32 -110 34 -202 2 -73 -2 -133 -12 -180 -17 -78 -99 -256 -135 -295 -23 -24
-28 -25 -103 -20 l-79 5 -34 60 c-36 65 -77 185 -88 256 -31 202 34 439 176
644 28 41 53 75 55 75 2 0 25 -33 52 -72z m-1711 -407 c-7 -9 -14 -18 -17 -21
-61 -59 -207 -274 -276 -405 -31 -60 -58 -111 -59 -112 -2 -4 -419 168 -429
177 -10 10 79 190 154 310 59 95 195 279 260 353 l43 49 168 -168 c142 -142
166 -170 156 -183z m3693 204 c90 -113 211 -301 276 -428 31 -60 54 -110 52
-112 -6 -6 -431 -185 -433 -182 -1 1 -23 43 -49 92 -61 115 -157 258 -240 360
l-66 80 168 168 167 167 31 -32 c16 -18 59 -69 94 -113z m-4510 -155 c9 -5 5
-18 -13 -47 -41 -65 -135 -258 -182 -372 -46 -113 -115 -321 -115 -346 0 -26
-26 -16 -72 28 -90 85 -129 179 -124 300 10 206 145 386 326 433 51 13 161 16
180 4z m5173 -30 c300 -114 348 -515 87 -729 -49 -39 -55 -42 -61 -25 -4 11
-30 90 -58 176 -54 170 -133 352 -211 492 -28 49 -50 93 -50 97 0 26 217 19
293 -11z m-1379 -138 c-11 -72 -17 -105 -29 -152 -14 -60 -72 -195 -111 -256
-105 -170 -278 -292 -465 -329 -82 -17 -77 -18 -136 42 l-56 58 22 75 c77 261
255 441 532 538 47 17 103 33 125 37 21 4 53 9 69 12 17 3 32 7 34 9 10 10 19
-9 15 -34z m-2654 -6 c68 -7 82 -10 176 -36 278 -76 452 -244 518 -500 28
-111 27 -114 -27 -172 l-49 -52 -71 18 c-303 77 -528 304 -606 612 -33 130
-34 147 -8 139 7 -2 37 -6 67 -9z m2941 -231 c122 -181 242 -466 283 -670 22
-112 28 -155 21 -155 -3 0 -22 11 -43 23 -88 56 -279 132 -379 152 -225 44
-479 6 -657 -99 l-43 -25 -16 35 c-10 19 -17 36 -17 38 0 2 39 16 88 31 150
47 263 114 373 224 133 132 217 295 280 541 l11 44 19 -24 c11 -14 47 -65 80
-115z m-3111 -161 c52 -107 142 -236 205 -293 114 -103 273 -196 408 -237 31
-10 57 -21 57 -25 0 -4 -9 -28 -20 -53 l-19 -45 -83 43 c-92 49 -195 84 -278
93 -71 9 -194 9 -245 0 -22 -4 -56 -10 -75 -13 -95 -16 -285 -104 -394 -181
l-48 -35 6 51 c22 179 68 357 133 516 58 140 153 311 231 414 l25 34 24 -84
c13 -46 46 -130 73 -185z m4004 -173 c37 -125 70 -277 81 -366 4 -27 8 -61 11
-75 2 -14 7 -70 10 -125 l7 -100 -237 0 c-130 0 -236 2 -237 5 -1 7 -6 63 -14
145 -8 97 -49 292 -83 405 l-30 95 197 83 c108 45 205 86 216 91 27 11 35 -5
79 -158z m-4801 53 c117 -48 213 -88 214 -88 1 -1 -7 -31 -18 -67 -23 -77 -55
-208 -63 -264 -4 -23 -9 -52 -11 -65 -3 -14 -8 -52 -11 -85 -11 -112 -12 -130
-13 -140 -1 -7 -81 -11 -237 -10 l-237 0 7 105 c3 58 8 121 11 140 28 190 51
298 91 428 31 104 42 132 49 132 4 0 102 -39 218 -86z m2472 -157 c210 -69
370 -225 439 -430 26 -78 31 -115 30 -232 -1 -90 -6 -125 -27 -190 -67 -203
-226 -367 -422 -435 -85 -30 -125 -35 -245 -34 -86 1 -119 6 -185 28 -297 101
-478 359 -470 671 6 252 161 486 389 591 151 69 337 81 491 31z m-3020 -234
c-3 -16 -7 -44 -9 -63 -24 -158 -24 -549 -1 -687 16 -95 16 -96 -15 -90 -46
10 -115 45 -159 83 -89 77 -140 191 -145 326 -9 214 78 362 253 434 73 30 80
30 76 -3z m5795 -43 c136 -69 218 -190 225 -332 12 -226 -133 -396 -378 -444
-10 -1 -16 0 -13 4 2 4 7 41 11 82 4 41 9 89 11 105 5 46 5 383 -1 440 -6 65
-15 145 -19 170 -2 11 -2 23 0 27 5 9 109 -24 164 -52z m-1538 -125 c114 -13
357 -115 440 -186 38 -32 43 -26 -72 -103 -216 -146 -445 -197 -650 -145 -74
18 -249 99 -270 124 -6 7 -12 48 -14 90 l-3 76 41 28 c89 61 204 105 304 117
31 3 58 7 60 9 3 3 102 -3 164 -10z m-2602 -50 c74 -19 200 -82 247 -123 29
-24 32 -33 34 -87 1 -33 1 -65 0 -71 -2 -16 -167 -99 -246 -124 -92 -28 -141
-35 -250 -35 -172 1 -315 46 -477 150 l-71 46 38 32 c139 116 317 203 457 225
77 12 193 6 268 -13z m-1009 -314 c3 0 7 -26 8 -56 1 -30 4 -62 5 -72 2 -10 7
-40 10 -68 11 -84 55 -269 85 -360 16 -47 26 -87 22 -90 -4 -2 -102 -44 -219
-93 l-211 -89 -26 71 c-49 132 -100 350 -129 546 -10 66 -18 199 -13 207 4 6
440 10 468 4z m4803 -51 c-1 -57 -11 -174 -19 -225 -41 -239 -124 -532 -149
-521 -6 2 -101 41 -211 86 -110 45 -203 85 -208 89 -4 4 2 33 12 64 25 72 70
253 77 310 3 23 7 47 9 54 2 7 7 52 11 100 4 48 10 90 14 93 5 3 111 5 237 5
l228 0 -1 -55z m-679 -55 c-3 -19 -7 -52 -10 -72 -39 -273 -153 -564 -317
-808 -48 -72 -65 -90 -70 -77 -3 9 -18 55 -33 101 -56 184 -151 344 -272 464
-113 111 -238 187 -375 228 -40 12 -74 23 -76 24 -1 1 5 22 15 47 l16 45 93
-44 c138 -65 233 -87 384 -87 136 -1 169 3 275 34 76 22 269 113 325 154 46
33 51 32 45 -9z m-3638 -169 c43 -14 92 -28 108 -31 17 -2 41 -7 55 -11 42
-10 233 -13 281 -4 24 5 60 11 79 14 60 9 192 56 263 93 37 20 69 34 70 32 12
-19 37 -82 33 -86 -2 -2 -19 -7 -37 -10 -19 -3 -70 -18 -113 -34 -234 -85
-410 -261 -514 -514 -30 -74 -70 -213 -74 -257 -1 -15 -6 -25 -10 -22 -14 9
-118 162 -165 245 -115 200 -203 447 -238 673 l-6 35 95 -49 c53 -26 131 -60
173 -74z m2503 -187 c211 -69 368 -216 471 -439 32 -68 72 -196 84 -267 9 -55
13 -54 -174 -17 -180 36 -377 163 -480 309 -60 84 -131 262 -131 325 0 9 21
40 48 69 54 59 61 60 182 20z m-1439 -41 l48 -46 -20 -72 c-78 -281 -269 -483
-546 -576 -81 -27 -96 -31 -153 -40 -19 -3 -41 -7 -49 -10 -10 -3 -12 9 -6 63
4 37 8 70 10 74 2 3 7 21 10 40 3 19 15 63 27 99 77 239 230 406 433 475 49
17 172 43 189 41 4 -1 30 -22 57 -48z m3423 -72 c76 -58 133 -128 166 -204 74
-166 0 -396 -159 -496 -78 -49 -212 -73 -323 -59 l-37 5 69 132 c82 158 169
374 212 531 18 63 34 115 36 115 3 0 19 -11 36 -24z m-5539 -86 c48 -179 162
-451 260 -621 25 -43 45 -83 45 -88 0 -7 -35 -10 -93 -8 -81 2 -100 6 -157 34
-230 113 -331 432 -202 637 29 48 114 129 123 118 3 -4 14 -36 24 -72z m3159
-58 c54 -192 195 -387 364 -498 112 -75 303 -152 416 -169 44 -7 46 -9 31 -25
-26 -29 -168 -128 -261 -182 -146 -84 -388 -180 -514 -204 -14 -3 -33 -7 -42
-10 -26 -8 -57 -13 -166 -29 l-44 -6 27 43 c48 78 103 202 130 293 69 236 48
493 -59 715 l-34 71 62 29 c33 15 64 29 67 29 4 1 14 -25 23 -57z m-760 27
l46 -20 -30 -44 c-58 -84 -111 -223 -126 -330 -10 -71 -11 -193 -3 -240 4 -22
10 -56 13 -76 14 -88 102 -296 166 -389 32 -48 34 -53 14 -47 -11 3 -39 9 -64
12 -241 33 -536 150 -768 305 -126 83 -145 100 -116 100 33 0 231 72 302 110
90 49 205 135 260 194 99 108 187 257 228 389 10 31 21 57 25 57 3 0 27 -9 53
-21z m450 -162 c126 -261 120 -533 -16 -785 -30 -56 -104 -162 -113 -162 -11
0 -110 151 -145 220 -116 231 -125 449 -26 651 19 37 50 91 71 119 l37 50 74
0 74 0 44 -93z m2069 -43 c117 -47 214 -88 216 -90 8 -7 -126 -248 -204 -364
-80 -120 -239 -320 -260 -327 -6 -2 -84 71 -174 161 l-164 164 79 99 c92 114
172 232 238 356 26 48 50 87 52 87 3 0 100 -39 217 -86z m-4087 -21 c62 -114
160 -258 242 -356 l65 -78 -167 -168 -166 -168 -43 46 c-137 148 -320 419
-399 594 -16 35 -16 38 -1 44 10 4 105 44 213 89 107 46 198 83 202 84 3 0 28
-39 54 -87z m3684 -912 c0 -11 -125 -116 -239 -200 -146 -107 -416 -261 -431
-244 -7 8 -180 418 -180 427 0 2 44 28 98 56 113 61 235 143 346 234 l80 65
163 -165 c90 -90 163 -168 163 -173z m-3208 316 c79 -77 305 -231 436 -296 45
-23 82 -45 82 -49 0 -20 -174 -432 -183 -432 -6 0 -62 27 -126 61 -148 78
-338 205 -470 315 l-103 86 163 164 c90 90 169 164 176 164 6 0 18 -6 25 -13z
m3777 -102 c175 -350 -134 -723 -512 -620 -36 10 -137 58 -137 65 0 4 45 44
100 89 160 131 319 293 443 453 67 86 69 86 106 13z m-4544 -75 c101 -122 308
-326 423 -415 50 -38 91 -73 91 -76 1 -8 -97 -55 -142 -67 -72 -20 -176 -9
-251 26 -86 41 -198 150 -241 237 -27 55 -30 69 -30 160 0 93 2 105 33 168 19
38 35 67 37 65 1 -2 37 -46 80 -98z m3029 -450 c47 -112 86 -208 86 -212 0 -4
-9 -12 -20 -18 -20 -11 -247 -78 -290 -86 -14 -3 -33 -7 -42 -10 -10 -3 -30
-7 -45 -10 -16 -2 -37 -6 -49 -9 -12 -3 -39 -7 -60 -10 -21 -4 -50 -8 -63 -10
-12 -2 -60 -7 -105 -11 -44 -3 -96 -7 -113 -9 l-33 -3 0 239 c0 221 1 239 18
240 40 2 192 18 218 23 12 3 37 7 55 10 19 3 46 8 61 11 41 8 271 75 277 81 9
9 20 -14 105 -216z m-1459 181 c37 -12 77 -23 89 -26 158 -35 182 -40 273 -51
66 -7 114 -12 141 -13 l22 -1 -2 -237 -3 -238 -30 1 c-39 1 -179 13 -230 20
-146 20 -505 110 -527 132 -3 4 31 97 76 207 45 110 85 208 89 219 4 10 13 16
21 13 7 -3 44 -15 81 -26z m2104 -465 c-3 -134 -46 -234 -136 -316 -125 -115
-307 -151 -444 -88 -59 27 -154 109 -182 156 -16 29 -16 31 0 36 123 35 247
76 328 108 99 39 318 145 385 186 45 28 51 18 49 -82z m-2868 59 c81 -47 245
-125 354 -168 98 -38 311 -107 331 -107 32 0 22 -26 -28 -73 -127 -121 -297
-155 -459 -94 -187 71 -282 196 -280 366 0 57 9 111 18 111 2 0 32 -16 64 -35z
m-850 4 c43 -30 147 -75 202 -87 100 -21 243 -8 347 33 12 4 16 -4 16 -42 3
-170 69 -307 203 -418 l72 -60 -65 -62 c-283 -270 -765 -150 -877 218 -44 143
-25 307 47 417 18 27 19 27 55 1z m2676 -364 c-7 -48 -58 -154 -96 -197 -150
-171 -460 -175 -630 -7 -45 46 -79 100 -102 167 -10 30 -19 57 -19 59 0 2 15
2 33 -1 129 -21 465 -28 622 -13 113 10 179 19 184 23 10 10 12 2 8 -31z
M4461 7473 c-68 -35 -93 -103 -65 -173 39 -97 179 -107 234 -17 68 111 -55
249 -169 190z M5399 7472 c-50 -26 -74 -65 -73 -121 0 -27 8 -58 17 -71 60
-86 194 -77 234 17 48 116 -69 230 -178 175z M6318 7091 c-18 -9 -43 -32 -56
-51 -56 -84 10 -200 113 -200 103 0 168 111 115 197 -38 64 -109 86 -172 54z
M3601 7119 c-22 -9 -46 -28 -55 -41 -77 -118 48 -258 172 -194 68 35 92 125
50 186 -41 61 -102 79 -167 49z M2934 6446 c-39 -17 -73 -64 -75 -102 -3 -59
2 -75 34 -110 28 -30 42 -37 83 -41 175 -17 202 238 27 262 -22 3 -51 -1 -69
-9z M6935 6444 c-93 -47 -96 -171 -6 -231 40 -27 67 -29 118 -8 103 42 107
191 6 240 -39 19 -79 19 -118 -1z M7313 5570 c-82 -37 -101 -140 -39 -208 33
-35 38 -37 96 -37 58 0 63 2 96 37 77 85 22 218 -93 224 -13 0 -40 -7 -60 -16z
M2569 5547 c-58 -39 -77 -112 -47 -174 46 -93 191 -92 237 3 59 119 -80 245
-190 171z M4855 5425 c-184 -62 -304 -222 -311 -416 -15 -419 484 -639 780
-343 90 90 134 196 134 324 0 314 -306 535 -603 435z m260 -203 c160 -82 192
-296 63 -419 -102 -98 -267 -94 -365 9 -50 52 -72 112 -69 188 4 104 58 184
156 230 57 26 155 23 215 -8z M2625 4630 c-127 -27 -150 -198 -33 -250 99 -44
198 27 186 134 -9 78 -80 131 -153 116z M7335 4649 c-117 -31 -133 -193 -25
-247 83 -41 183 11 190 98 5 53 -1 71 -32 106 -37 39 -86 55 -133 43z M6959
3791 c-94 -48 -102 -178 -14 -232 115 -72 255 63 185 178 -38 62 -111 85 -171
54z M2933 3740 c-92 -55 -92 -174 -1 -230 115 -70 249 70 178 185 -38 61 -118
82 -177 45z M6277 3090 c-54 -47 -66 -100 -36 -161 58 -117 235 -88 250 41 9
81 -42 141 -124 148 -49 4 -57 1 -90 -28z M3624 3094 c-69 -34 -90 -134 -40
-198 77 -102 236 -47 236 81 0 100 -104 163 -196 117z M5423 2757 c-86 -48
-91 -177 -8 -231 23 -15 54 -20 103 -17 12 0 39 16 58 34 30 28 37 42 41 83 8
83 -48 144 -132 143 -22 0 -50 -5 -62 -12z M4455 2779 c-17 -5 -44 -22 -60
-39 -26 -28 -30 -38 -30 -91 0 -57 2 -63 37 -95 21 -19 48 -34 60 -35 103 -5
161 42 162 131 1 91 -81 153 -169 129z"/>
</g>
</svg>
