<svg xmlns="http://www.w3.org/2000/svg" viewBox="0 0 1024 1024">
<g transform="translate(0,1024) scale(0.1,-0.1)">
<path fill="currentColor" d="M4819 10203 c0 -21 -2 -47 -4 -58 -2 -11 -5 -36 -8 -55 -24 -185
-138 -403 -279 -536 -29 -28 -132 -109 -229 -181 -100 -75 -221 -175 -278
-232 -56 -56 -105 -101 -109 -101 -28 0 -182 191 -182 227 0 7 -3 13 -6 13 -5
0 -546 -221 -553 -226 -2 -2 4 -25 14 -51 22 -61 31 -252 12 -258 -6 -2 -91
-6 -187 -9 -96 -2 -186 -7 -200 -9 -14 -3 -47 -8 -73 -12 -27 -4 -59 -8 -70
-11 -12 -2 -42 -7 -67 -10 -25 -3 -67 -10 -95 -14 -75 -12 -241 -4 -320 14
-163 39 -292 104 -423 214 l-54 45 -210 -210 -210 -210 64 -79 c96 -119 158
-248 194 -399 19 -81 25 -247 12 -332 -4 -32 -11 -74 -13 -93 -6 -37 -21 -131
-30 -190 -4 -19 -8 -114 -11 -210 -3 -96 -7 -181 -9 -187 -6 -19 -197 -10
-258 12 -26 10 -49 16 -51 14 -5 -7 -226 -547 -226 -553 0 -3 6 -6 13 -6 38 0
227 -154 227 -184 0 -5 -33 -41 -73 -80 -97 -93 -162 -171 -287 -341 -117
-160 -177 -226 -271 -296 -111 -83 -294 -160 -419 -176 -19 -3 -44 -6 -55 -8
-11 -2 -37 -4 -57 -4 l-38 -1 0 -300 0 -300 38 -1 c20 0 44 -2 52 -3 8 -2 35
-6 60 -9 116 -15 263 -72 375 -145 103 -66 182 -149 329 -346 84 -111 186
-234 245 -293 55 -56 101 -106 101 -111 0 -5 -30 -38 -68 -73 -56 -53 -89 -75
-170 -116 -3 -1 217 -542 224 -552 2 -2 25 4 51 14 61 22 252 31 258 12 2 -6
6 -91 9 -187 2 -96 7 -184 9 -195 3 -11 8 -45 12 -75 4 -30 9 -64 11 -75 2
-10 6 -37 9 -60 3 -22 8 -48 11 -58 10 -33 12 -221 3 -277 -5 -30 -11 -68 -13
-85 -21 -125 -123 -326 -224 -437 l-36 -39 211 -211 211 -211 47 41 c111 97
268 179 411 213 96 23 256 32 339 19 28 -4 75 -11 105 -15 30 -4 57 -8 60 -10
3 -1 30 -6 61 -9 31 -4 67 -9 80 -12 13 -3 103 -8 199 -10 96 -3 180 -7 187
-9 19 -6 14 -158 -8 -238 -11 -38 -18 -70 -17 -71 8 -6 548 -226 552 -226 3 0
6 6 6 13 0 37 154 227 184 227 5 0 41 -33 80 -73 94 -97 185 -173 336 -282
199 -144 296 -246 378 -397 64 -119 109 -281 111 -405 l1 -43 300 0 300 0 0
38 c1 56 9 108 30 195 59 239 199 426 460 612 147 105 250 191 341 286 36 38
70 69 75 69 30 0 184 -190 184 -227 0 -7 3 -13 6 -13 6 0 545 220 552 225 1 1
-6 34 -17 72 -22 80 -27 232 -8 238 7 2 91 6 187 9 96 2 184 7 195 9 11 3 45
8 75 12 30 4 64 9 75 11 10 2 35 6 55 9 19 3 60 9 90 14 70 11 227 7 307 -8
169 -32 349 -121 471 -235 l33 -30 211 211 211 211 -41 47 c-118 134 -198 306
-227 487 -12 76 -14 286 -2 305 3 4 8 28 11 53 3 25 8 54 10 65 2 11 7 45 11
75 4 30 9 64 12 75 2 11 7 99 9 195 3 96 7 180 9 187 6 19 158 14 238 -8 38
-11 70 -18 72 -17 5 7 225 547 225 552 0 3 -6 6 -13 6 -36 0 -227 154 -227
182 0 4 45 53 101 109 59 60 159 180 243 293 192 257 289 344 483 429 94 42
243 76 336 77 l37 0 0 300 0 300 -42 1 c-24 0 -52 2 -63 4 -11 2 -40 7 -64 10
-120 18 -288 91 -401 175 -93 69 -153 136 -270 295 -120 164 -187 243 -287
341 -40 40 -73 76 -73 81 0 29 191 183 227 183 7 0 13 3 13 6 0 5 -220 545
-225 552 -2 1 -34 -6 -72 -17 -80 -22 -232 -27 -238 -8 -2 7 -6 91 -9 187 -3
96 -7 191 -11 210 -9 59 -24 153 -30 190 -2 19 -9 62 -14 95 -39 256 53 558
231 760 l41 47 -210 210 -211 211 -54 -45 c-68 -57 -129 -98 -198 -133 -61
-31 -179 -73 -225 -81 -16 -2 -55 -8 -85 -13 -55 -9 -261 -7 -277 2 -4 3 -28
8 -53 11 -25 3 -54 8 -65 10 -11 2 -45 7 -75 11 -30 4 -64 9 -75 12 -11 2 -99
7 -195 9 -96 3 -181 7 -187 9 -19 6 -10 197 12 258 10 26 16 49 14 51 -10 7
-551 227 -552 224 -42 -82 -61 -112 -106 -161 -85 -91 -76 -92 -193 24 -59 58
-185 163 -294 245 -198 149 -280 226 -346 329 -73 112 -130 259 -145 375 -3
25 -7 52 -9 60 -1 8 -3 32 -3 53 l-1 37 -300 0 -300 0 -1 -37z m462 -1065 c48
-47 159 -140 249 -206 184 -137 178 -115 47 -186 -130 -72 -287 -204 -405
-343 l-53 -62 -56 67 c-72 85 -139 150 -231 224 -68 54 -233 158 -250 158 -5
0 -13 5 -20 12 -9 9 27 40 151 131 160 118 326 273 377 350 l25 38 40 -48 c22
-26 79 -87 126 -135z m-1459 -727 c40 -16 123 -41 183 -56 144 -34 227 -61
300 -98 247 -123 420 -340 489 -612 8 -32 14 -61 12 -62 -5 -5 -39 -11 -153
-29 -21 -3 -72 -14 -115 -25 -42 -10 -78 -19 -80 -19 -2 0 -37 81 -78 180 -41
99 -79 180 -85 180 -11 0 -533 -215 -541 -222 -2 -3 30 -87 72 -187 41 -101
74 -184 72 -185 -2 -1 -32 -19 -68 -41 -36 -21 -102 -65 -147 -97 l-83 -58
-27 43 c-42 67 -92 182 -115 265 -18 64 -22 104 -22 237 1 228 25 303 182 567
38 64 82 147 97 183 15 36 29 65 31 65 1 0 35 -13 76 -29z m2702 -35 c15 -35
66 -129 112 -208 141 -239 174 -350 170 -568 -4 -186 -47 -331 -140 -478 l-27
-43 -62 46 c-61 44 -213 142 -231 148 -4 1 26 86 68 187 42 101 74 185 72 188
-2 2 -126 54 -276 117 l-272 113 -20 -46 c-11 -26 -45 -108 -75 -182 -30 -74
-56 -136 -57 -137 -1 -2 -52 8 -112 22 -60 13 -122 26 -139 29 -75 13 -100 17
-102 19 -1 2 6 34 16 72 42 161 123 306 240 424 133 135 273 208 516 270 88
22 187 52 220 65 33 14 63 25 66 26 3 0 18 -29 33 -64z m-3630 -315 c-12 -38
-25 -82 -28 -97 -32 -175 -35 -208 -32 -385 l3 -186 -36 8 c-40 9 -355 5 -416
-6 -77 -13 -205 -45 -241 -60 l-36 -15 7 67 c4 37 8 70 10 73 2 3 7 33 10 65
4 33 9 62 10 66 17 27 25 324 13 436 l-7 62 62 -7 c113 -12 409 -4 436 13 4 1
31 6 61 10 30 3 73 10 95 14 22 4 56 8 76 9 l36 3 -23 -70z m4566 54 c13 -3
42 -7 65 -10 22 -3 47 -8 55 -10 69 -18 334 -25 447 -12 l61 7 -6 -57 c-12
-113 -4 -415 13 -442 1 -4 6 -33 10 -66 3 -32 8 -62 10 -65 2 -3 6 -35 10 -71
l7 -66 -54 18 c-125 42 -259 62 -433 65 -93 2 -186 0 -206 -5 l-36 -8 1 191
c1 218 -4 272 -45 430 -11 43 -25 88 -30 99 -11 19 -8 19 47 13 33 -3 70 -8
84 -11z m-2120 -1129 c14 -2 43 -7 65 -10 22 -2 60 -9 85 -15 25 -5 56 -12 70
-15 169 -33 430 -148 605 -266 322 -217 564 -521 709 -888 37 -94 79 -244 91
-322 4 -25 8 -47 10 -50 17 -27 26 -379 12 -500 -96 -875 -791 -1572 -1662
-1667 -125 -14 -477 -5 -505 12 -3 2 -21 6 -40 9 -19 3 -46 8 -60 11 -14 4
-38 8 -53 11 -15 3 -67 18 -115 34 -635 207 -1104 713 -1257 1355 -13 55 -27
113 -29 130 -30 172 -27 476 5 639 6 28 13 64 16 80 21 124 118 372 202 519
239 415 654 743 1106 871 86 24 107 29 185 42 19 3 37 7 40 9 3 2 41 6 85 10
44 4 82 9 84 11 5 5 321 -4 351 -10z m-2485 -205 c84 -22 191 -69 263 -115
l43 -27 -46 -62 c-44 -60 -142 -213 -148 -230 -1 -5 -85 25 -186 67 -101 42
-186 74 -188 72 -8 -8 -223 -530 -223 -541 0 -6 81 -44 180 -85 99 -40 180
-75 180 -78 0 -2 -9 -38 -19 -80 -11 -43 -22 -93 -25 -112 -3 -19 -9 -56 -14
-82 -5 -27 -7 -48 -4 -48 2 0 -1 -6 -7 -14 -10 -12 -22 -11 -79 4 -263 69
-476 240 -597 480 -37 74 -59 140 -96 289 -17 69 -44 159 -60 200 -16 41 -28
75 -27 76 2 1 38 19 80 38 43 20 126 65 185 100 175 105 238 132 374 162 96
20 313 13 414 -14z m4957 9 c115 -25 199 -61 336 -142 64 -39 155 -89 202
-111 47 -22 86 -41 87 -42 2 -1 -8 -30 -22 -64 -14 -34 -41 -123 -61 -199 -45
-177 -60 -224 -97 -297 -124 -248 -349 -427 -618 -490 -33 -7 -59 -10 -60 -7
0 4 -2 16 -4 27 -2 11 -7 40 -11 65 -4 25 -8 50 -10 55 -1 6 -5 26 -9 45 -3
19 -12 60 -20 91 -8 31 -15 59 -15 61 0 2 81 37 180 78 99 41 180 79 180 85 0
11 -215 534 -223 541 -2 2 -87 -30 -188 -72 -101 -42 -185 -72 -187 -66 -4 14
-101 163 -149 231 l-43 60 28 19 c41 29 160 87 218 106 148 48 338 59 486 26z
m-6319 -1210 c81 -145 239 -329 360 -420 25 -19 46 -37 47 -40 0 -3 -16 -16
-35 -29 -54 -37 -207 -193 -268 -273 -52 -70 -82 -116 -141 -221 l-28 -49
-119 162 c-116 156 -242 295 -341 374 l-47 38 52 40 c94 72 230 222 342 376
125 172 108 168 178 42z m7444 -58 c118 -159 222 -273 325 -355 l57 -45 -47
-38 c-97 -78 -224 -217 -335 -367 -112 -150 -137 -179 -137 -158 0 19 -96 177
-153 252 -66 87 -157 183 -244 258 l-62 53 60 50 c146 121 283 286 361 435 23
45 46 79 51 76 4 -2 60 -75 124 -161z m-6277 -715 c0 -4 38 -211 44 -242 2
-11 9 -40 16 -65 7 -24 8 -46 3 -48 -109 -41 -357 -151 -356 -158 3 -14 221
-535 226 -540 2 -2 86 30 187 72 101 42 186 72 187 68 6 -18 104 -170 148
-231 l45 -61 -57 -36 c-150 -94 -315 -137 -503 -132 -129 4 -148 6 -240 32
-80 23 -164 63 -287 138 -60 36 -145 82 -188 102 -44 20 -81 38 -83 39 -2 2 4
20 13 41 27 64 42 112 80 264 53 208 112 327 228 463 109 128 326 255 479 282
18 3 34 8 37 11 5 5 21 6 21 1z m5104 -51 c129 -49 271 -147 356 -247 113
-132 173 -254 225 -459 37 -149 52 -197 80 -264 9 -21 15 -39 13 -41 -2 -1
-41 -20 -88 -42 -47 -22 -138 -72 -202 -111 -211 -126 -342 -164 -548 -158
-69 2 -138 6 -155 10 -111 25 -236 75 -323 129 l-42 27 42 60 c49 69 146 218
150 232 2 6 87 -24 188 -66 101 -42 185 -74 187 -72 8 8 223 531 223 542 0 5
-81 44 -180 85 -175 72 -180 75 -174 99 15 61 58 278 63 322 1 9 108 -17 185
-46z m-3963 -1733 c45 -29 86 -54 91 -55 5 -2 -24 -86 -66 -187 -42 -101 -75
-186 -73 -188 8 -7 532 -223 542 -223 6 0 44 81 85 180 41 99 76 180 78 180 2
0 30 -7 61 -15 31 -8 70 -16 86 -19 17 -3 41 -8 55 -11 13 -2 42 -7 65 -11 22
-3 47 -8 55 -9 8 -2 18 -4 22 -4 3 -1 0 -27 -7 -60 -76 -325 -313 -577 -638
-676 -48 -14 -100 -29 -115 -31 -54 -9 -174 -45 -234 -69 -34 -14 -62 -24 -63
-22 -1 1 -20 40 -42 87 -22 47 -72 138 -111 202 -128 215 -164 341 -158 558 3
110 8 151 30 223 26 87 66 176 112 249 l24 38 60 -42 c33 -24 97 -66 141 -95z
m2901 30 c73 -138 100 -242 104 -403 6 -217 -30 -343 -158 -558 -39 -64 -89
-155 -111 -202 -22 -47 -41 -86 -42 -87 -1 -2 -30 8 -66 22 -61 24 -145 50
-199 61 -369 75 -630 282 -746 590 -29 77 -55 184 -46 185 4 0 15 2 24 4 9 2
34 5 55 8 21 3 58 10 83 16 25 5 59 12 75 15 17 3 46 10 65 16 19 5 37 10 40
10 3 0 39 -81 80 -180 40 -99 78 -180 84 -180 11 0 535 216 543 223 2 2 -31
87 -73 188 -42 101 -72 185 -66 187 17 5 153 93 222 143 40 29 69 44 75 39 6
-5 32 -49 57 -97z m-4479 -172 c43 -11 94 -23 115 -26 21 -3 49 -8 62 -11 39
-10 361 -14 400 -5 l36 8 -3 -186 c-2 -217 14 -331 76 -529 5 -18 6 -30 3 -28
-4 3 -35 8 -67 11 -33 4 -62 9 -65 10 -3 2 -33 7 -65 10 -33 4 -62 9 -65 10
-29 17 -336 26 -442 12 l-58 -7 7 58 c14 111 6 383 -12 452 -2 8 -7 33 -10 55
-3 23 -7 52 -10 65 -3 14 -8 51 -11 84 -6 55 -6 58 13 48 11 -6 54 -20 96 -31z
m5902 -28 c-3 -32 -8 -60 -10 -63 -1 -3 -6 -32 -10 -65 -3 -32 -8 -62 -10 -65
-16 -27 -25 -332 -13 -447 l7 -62 -62 7 c-115 12 -420 3 -447 -13 -3 -2 -33
-7 -65 -10 -33 -4 -62 -9 -65 -10 -11 -7 -120 -17 -120 -12 0 3 13 57 29 119
42 163 50 241 47 439 l-3 176 41 -8 c23 -4 105 -7 183 -7 149 1 288 20 413 57
96 29 93 30 85 -36z m-2845 -1131 c101 -100 227 -190 380 -275 l32 -18 -163
-121 c-164 -121 -291 -238 -367 -335 l-40 -53 -43 53 c-79 97 -214 222 -343
317 -71 52 -142 106 -158 119 l-29 24 68 36 c84 45 181 109 253 170 70 60 195
187 223 229 l22 32 55 -62 c30 -34 80 -87 110 -116z M4965 6389 c-318 -47
-564 -172 -772 -392 -232 -246 -347 -536 -347 -872 0 -226 37 -385 135 -581
172 -344 522 -610 894 -679 119 -21 293 -27 413 -12 409 50 790 323 976 700
89 181 129 349 130 552 2 240 -34 391 -141 603 -173 341 -508 591 -896 668
-90 17 -313 25 -392 13z m330 -614 c284 -76 491 -335 500 -626 6 -200 -56
-361 -193 -502 -175 -179 -446 -249 -682 -175 -216 67 -397 256 -457 478 -12
45 -17 101 -17 180 0 99 4 126 28 195 37 109 77 175 153 256 103 109 216 174
357 204 76 17 231 12 311 -10z"/>
</g>
</svg>
