<svg xmlns="http://www.w3.org/2000/svg" viewBox="0 0 1024 1024">
<g transform="translate(0,1024) scale(0.1,-0.1)">
<path fill="currentColor" d="M1407 9575 c-143 -75 -369 -247 -514 -390 -388 -383 -560 -842 -459
-1226 8 -30 16 -62 18 -69 2 -8 -4 -15 -12 -16 -8 -2 -32 -5 -52 -9 -72 -11
-130 -83 -130 -160 0 -93 66 -164 162 -173 l50 -5 0 -208 c0 -221 4 -246 48
-293 67 -71 180 -69 249 6 38 41 43 72 43 289 l0 209 683 0 683 0 -1 -577 c0
-318 -4 -589 -9 -602 -8 -23 -10 -22 -70 41 -122 129 -279 219 -431 245 -16 2
-48 8 -70 12 -45 8 -170 6 -230 -3 -175 -28 -326 -105 -452 -232 l-83 -82 -22
31 c-146 208 -357 274 -566 177 -70 -33 -159 -115 -190 -176 -56 -110 -52 82
-50 -2733 l3 -2586 23 -59 c57 -151 169 -262 319 -319 58 -22 61 -22 843 -25
l786 -3 44 24 c53 28 90 90 90 150 0 59 -42 124 -93 148 -40 18 -79 19 -787
19 -703 0 -747 1 -785 19 -44 20 -75 51 -93 94 -9 21 -12 631 -12 2553 0 2790
-5 2574 63 2592 44 12 75 -5 124 -70 75 -99 119 -208 129 -317 11 -133 18
-153 60 -192 62 -55 139 -62 209 -19 48 30 72 84 79 180 19 244 162 429 370
479 156 38 338 -9 448 -114 102 -98 147 -207 163 -398 7 -82 32 -124 90 -154
93 -49 210 -2 240 97 5 14 9 43 10 66 7 117 33 208 84 297 38 66 98 137 125
147 26 9 68 -5 93 -32 17 -19 18 -111 19 -2727 1 -2122 3 -2712 13 -2736 17
-41 39 -64 83 -86 37 -19 115 -19 3565 -17 l3528 3 59 23 c151 57 261 167 318
318 l23 59 3 2586 c2 2815 6 2623 -50 2733 -29 56 -115 139 -178 171 -204 104
-419 44 -567 -157 l-36 -49 -31 38 c-115 140 -269 232 -467 279 -56 14 -266
12 -334 -3 -159 -34 -318 -124 -428 -243 -55 -59 -66 -67 -73 -53 -4 10 -8
280 -9 601 l-1 582 683 0 683 0 0 -209 c0 -223 4 -248 48 -295 67 -71 180 -69
249 6 38 41 43 72 43 289 l0 209 35 0 c19 0 36 -1 38 -1 1 -1 21 8 44 19 76
39 111 120 87 201 -22 75 -78 117 -161 123 -18 1 -33 4 -33 5 0 2 7 19 14 38
8 19 13 35 11 35 -2 0 2 21 9 48 32 123 24 313 -20 472 -109 398 -464 811
-936 1091 -70 42 -134 46 -197 14 -70 -36 -230 -145 -333 -228 -234 -189 -420
-410 -536 -639 -38 -75 -47 -103 -47 -144 1 -152 189 -225 291 -112 12 12 39
57 59 98 109 219 309 437 569 624 l79 56 31 -19 c137 -86 350 -276 456 -406
183 -226 263 -418 261 -625 -1 -36 -3 -77 -6 -91 -10 -54 -45 -155 -65 -186
l-20 -33 -880 0 c-861 0 -882 0 -920 -20 -49 -25 -90 -91 -90 -145 0 -90 69
-164 160 -173 49 -4 50 -5 50 -38 1 -44 1 -845 0 -883 0 -27 -3 -29 -32 -27
-82 6 -219 -43 -284 -101 -50 -45 -101 -118 -125 -180 l-23 -58 -1 -1030 -2
-1030 -1820 -5 -1820 -5 -35 -27 c-99 -76 -88 -227 21 -285 l44 -23 1804 0
c991 0 1803 -3 1804 -7 0 -5 1 -480 2 -1058 2 -1171 -3 -1083 72 -1140 89 -68
225 -24 261 85 4 14 8 1025 9 2247 l0 2223 26 25 c17 17 37 27 59 27 29 1 41
-7 81 -51 88 -98 141 -234 154 -391 6 -84 25 -124 74 -157 64 -43 144 -40 205
8 39 31 56 71 62 147 20 258 136 429 339 497 173 58 377 7 498 -125 88 -95
131 -202 143 -357 8 -100 33 -148 94 -181 60 -31 128 -25 179 16 49 39 63 72
72 167 9 89 13 111 30 164 34 106 127 242 178 259 36 13 83 -8 100 -44 8 -19
11 -685 11 -2550 0 -2454 -1 -2526 -19 -2562 -22 -42 -43 -63 -88 -86 -29 -14
-188 -16 -1712 -16 l-1681 0 0 890 c0 948 1 923 -47 977 -49 55 2 53 -1238 53
-1242 0 -1176 3 -1228 -52 -47 -48 -47 -54 -47 -650 0 -550 0 -563 21 -605 58
-120 237 -122 297 -3 22 44 22 47 22 507 l0 463 940 0 940 0 0 -790 0 -790
-1537 2 -1536 3 0 1948 c1 1071 2 1953 2 1961 1 12 280 14 1841 15 1544 1
1845 3 1872 15 42 17 76 55 91 98 9 26 12 512 12 1944 -1 1735 -2 1912 -17
1939 -34 63 -88 95 -159 95 -61 0 -114 -34 -147 -95 -15 -27 -17 -138 -18
-1205 -1 -646 -2 -1176 -3 -1177 -1 -2 -33 18 -72 43 -161 104 -306 148 -490
149 -75 0 -90 -3 -121 -25 -47 -32 -71 -73 -73 -128 -3 -59 9 -94 48 -131 36
-36 69 -47 162 -55 39 -4 77 -8 85 -10 220 -49 388 -209 446 -427 13 -53 17
-118 18 -364 1 -165 0 -306 -2 -312 -3 -10 -130 -13 -588 -13 l-584 0 -1 318
c0 174 -2 328 -5 342 -2 14 -6 39 -9 55 -3 17 -5 32 -4 35 1 14 -65 187 -88
228 -123 223 -327 389 -556 452 -110 30 -113 31 -215 35 -79 4 -100 1 -132
-15 -61 -31 -85 -73 -85 -151 0 -56 4 -71 27 -101 36 -47 78 -64 174 -72 218
-16 398 -134 489 -320 58 -116 64 -162 65 -503 l1 -303 -586 0 c-322 0 -585 3
-586 8 -4 29 -3 1855 1 1861 3 4 484 7 1070 7 1018 0 1067 1 1103 18 123 60
124 238 2 304 -27 15 -128 17 -1090 19 -583 1 -1067 2 -1075 2 -13 1 -15 85
-14 693 1 742 2 732 -49 787 -45 48 -138 66 -195 37 -38 -20 -72 -58 -85 -98
-9 -25 -12 -489 -12 -1836 l0 -1802 -222 0 c-123 0 -223 3 -224 8 0 4 -2 228
-3 497 -2 483 -3 491 -25 548 -46 116 -135 208 -243 249 -65 25 -79 28 -145
30 -53 2 -53 3 -53 35 -1 18 -1 209 -1 423 0 215 0 412 1 439 l0 48 50 6 c93
11 149 67 158 157 6 64 -31 131 -88 160 -38 20 -59 20 -923 20 l-884 0 -26 58
c-108 239 -67 493 125 774 81 119 291 332 426 432 57 42 112 81 122 86 14 8
34 -2 96 -47 270 -192 456 -399 577 -638 55 -110 87 -138 167 -142 73 -5 126
24 158 87 40 77 21 150 -86 330 -148 247 -383 484 -673 679 -177 118 -227 132
-312 86z M1412 3946 c-170 -81 -362 -283 -446 -470 -33 -72 -72 -203 -82 -276
-4 -30 -8 -235 -9 -455 -2 -427 0 -442 48 -493 49 -53 40 -52 567 -52 548 0
535 -1 588 68 l27 35 0 456 c0 436 -1 459 -22 537 -52 195 -141 347 -282 484
-103 100 -227 178 -292 186 -33 3 -56 -1 -97 -20z m183 -437 c76 -87 126 -179
155 -293 16 -61 18 -114 19 -373 l2 -303 -275 0 c-210 0 -275 3 -278 13 -2 6
-3 143 -2 302 2 329 7 364 75 504 32 64 60 103 120 164 l78 79 38 -30 c21 -16
51 -45 68 -63z M8682 3954 c-68 -28 -181 -110 -258 -188 -133 -134 -217 -282
-267 -470 -21 -78 -22 -101 -22 -537 l0 -456 27 -35 c53 -69 41 -68 582 -68
388 0 493 3 519 14 39 16 84 66 94 104 9 35 9 776 0 863 -31 298 -231 598
-495 746 -73 41 -128 49 -180 27z m171 -455 c87 -95 148 -227 163 -347 8 -60
12 -578 6 -599 -3 -10 -68 -13 -278 -13 l-275 0 2 303 c1 264 3 312 20 377 34
130 112 258 208 340 l45 39 27 -20 c15 -11 52 -47 82 -80z"/>
</g>
</svg>
