<svg xmlns="http://www.w3.org/2000/svg" viewBox="0 0 1024 1024">
<g transform="translate(0,1024) scale(0.1,-0.1)">
<path fill="currentColor" d="M6549 10220 c-112 -23 -240 -76 -331 -136 -94 -61 -210 -178 -272
-274 -27 -41 -52 -78 -55 -82 -4 -4 -31 2 -61 13 -30 12 -93 29 -140 40 -116
26 -320 21 -435 -11 -324 -88 -584 -346 -674 -666 -12 -46 -23 -68 -32 -66
-31 8 -197 8 -253 0 -212 -29 -403 -124 -552 -275 -161 -163 -248 -346 -270
-568 -4 -33 -7 -61 -8 -62 -2 -3 -52 -11 -116 -18 -74 -9 -200 -50 -281 -91
-190 -95 -359 -274 -442 -470 -58 -136 -71 -202 -72 -364 0 -80 3 -159 7 -176
7 -30 6 -31 -50 -49 -198 -62 -376 -194 -497 -370 -110 -160 -156 -306 -161
-510 -4 -146 6 -218 47 -335 18 -51 18 -56 3 -65 -237 -142 -393 -334 -463
-570 -28 -96 -32 -124 -35 -245 -7 -220 55 -415 186 -592 l59 -79 -34 -38
c-105 -116 -185 -290 -215 -464 -15 -87 -6 -278 17 -372 88 -365 404 -658 771
-714 2 -1 -40 -46 -94 -100 l-98 -99 -55 24 c-249 111 -556 103 -798 -19 -127
-64 -187 -116 -660 -588 l-480 -479 675 -675 675 -675 463 463 c255 254 484
488 508 520 106 135 177 319 192 492 7 84 2 194 -12 258 -3 15 -8 38 -11 52
-8 40 -35 116 -56 160 l-19 39 92 93 92 92 23 -78 c86 -299 317 -541 610 -640
58 -19 75 -24 158 -39 52 -9 236 -8 298 1 66 11 201 54 262 84 66 34 177 108
205 138 13 14 26 25 29 25 3 0 20 -12 36 -26 45 -40 154 -109 216 -137 142
-65 250 -86 419 -82 241 5 415 72 607 234 63 52 172 188 201 247 l15 32 68
-23 c135 -46 276 -60 424 -41 200 25 389 116 538 261 107 104 200 253 243 388
l18 58 65 -7 c298 -33 564 50 768 240 183 171 277 356 308 611 3 27 8 52 11
54 5 5 11 6 94 15 249 26 510 192 661 420 108 164 151 313 153 530 l2 139 74
22 c363 104 632 422 677 795 18 155 -5 339 -60 469 l-15 35 87 57 c215 142
360 353 417 608 13 60 16 266 4 339 -14 87 -58 220 -97 290 -68 123 -174 246
-282 325 l-58 43 18 36 c60 116 92 267 91 423 -1 359 -211 686 -543 845 -111
53 -248 87 -354 89 -50 1 -51 1 -51 34 -4 342 -222 672 -545 827 -132 63 -229
84 -389 85 -74 0 -157 -4 -185 -8 -61 -10 -182 -50 -237 -78 -38 -19 -42 -20
-50 -4 -18 32 -102 130 -147 173 -115 109 -271 195 -422 233 -118 29 -305 34
-420 9z m333 -612 c117 -54 197 -170 203 -296 14 -267 -260 -451 -498 -334
-41 20 -81 50 -107 79 -38 43 -48 61 -78 135 -18 44 -9 186 16 240 24 55 82
122 133 153 96 61 229 70 331 23z m1258 -339 c152 -72 233 -233 195 -394 -25
-106 -98 -195 -198 -241 -51 -23 -76 -28 -142 -29 -71 0 -88 4 -147 33 -276
136 -265 522 19 637 81 33 194 31 273 -6z m-2527 -87 c134 -51 224 -169 232
-305 12 -216 -156 -384 -372 -372 -136 8 -254 98 -306 233 -26 70 -19 193 16
264 35 72 119 150 190 176 65 25 181 27 240 4z m-1112 -747 c118 -26 226 -135
254 -259 66 -288 -232 -524 -496 -391 -119 61 -192 180 -191 315 2 227 205
384 433 335z m2737 -52 c172 -232 439 -369 743 -382 10 -1 15 -11 16 -28 1
-162 65 -357 164 -504 49 -73 162 -189 232 -239 26 -18 47 -37 47 -42 0 -5 -8
-25 -19 -46 -29 -58 -70 -195 -78 -264 -19 -170 -1 -328 55 -476 17 -45 18
-51 4 -57 -43 -16 -161 -105 -227 -171 -202 -204 -307 -493 -275 -756 4 -26 4
-51 1 -56 -3 -4 -35 -16 -71 -25 -90 -25 -232 -95 -310 -155 -210 -159 -350
-406 -375 -662 -4 -36 -7 -65 -8 -66 -1 -1 -34 -4 -73 -7 -40 -4 -83 -11 -98
-17 -14 -5 -26 -8 -26 -5 0 10 -150 -48 -217 -85 -222 -119 -393 -329 -463
-567 -7 -23 -16 -41 -19 -39 -25 16 -239 23 -321 11 -264 -37 -507 -192 -659
-420 -29 -44 -54 -81 -56 -83 -2 -2 -34 6 -72 18 -37 12 -77 23 -88 25 -221
42 -424 19 -609 -69 -82 -38 -226 -135 -234 -157 -5 -12 -29 -12 -34 0 -7 19
-158 118 -233 153 -136 63 -232 83 -400 83 -111 0 -171 -6 -235 -25 -57 -16
-55 -20 -36 60 30 116 28 332 -2 450 -28 110 -94 246 -164 339 l-56 73 50 62
c81 101 146 229 177 351 7 28 15 59 18 70 3 11 7 76 9 145 3 133 -10 230 -46
336 -12 32 -17 60 -12 62 5 1 42 25 83 51 304 201 465 563 415 932 -7 56 -7
57 21 64 67 16 182 69 257 119 249 162 412 440 430 733 2 30 2 30 76 37 375
36 709 318 808 683 l19 68 134 1 c137 1 160 4 264 30 212 55 418 204 543 394
31 47 57 87 58 89 2 2 36 -8 76 -22 40 -14 98 -31 128 -38 61 -15 269 -18 344
-6 58 9 220 61 256 82 14 8 28 14 31 15 3 0 29 -30 57 -67z m1849 -63 c213
-97 274 -371 122 -544 -141 -160 -382 -162 -523 -5 -168 187 -90 477 152 565
63 23 179 15 249 -16z m-5449 -825 c170 -77 250 -274 183 -446 -29 -75 -86
-138 -163 -180 -59 -32 -69 -34 -158 -34 -82 0 -103 4 -150 26 -71 34 -136 99
-169 169 -22 47 -26 69 -26 150 0 107 17 154 81 229 96 112 266 148 402 86z
m5724 -409 c82 -12 196 -104 236 -189 113 -241 -78 -521 -341 -500 -288 22
-425 368 -231 582 84 94 193 128 336 107z m-6417 -710 c277 -136 264 -525 -21
-641 -82 -33 -157 -32 -252 5 -91 35 -158 96 -195 178 -30 66 -33 197 -6 268
22 59 85 135 139 169 97 61 235 70 335 21z m5983 -531 c91 -16 206 -118 242
-212 22 -57 29 -148 17 -206 -18 -88 -103 -194 -189 -235 -189 -92 -411 0
-485 202 -8 22 -15 73 -15 111 0 98 29 171 97 241 91 93 196 124 333 99z
m-6476 -670 c29 -10 67 -25 83 -33 45 -23 105 -90 134 -152 22 -47 26 -69 26
-145 0 -78 -4 -98 -27 -146 -61 -123 -165 -191 -303 -197 -104 -5 -174 20
-248 88 -143 130 -153 345 -24 487 100 109 223 142 359 98z m5792 -440 c220
-111 259 -405 77 -573 -15 -13 -54 -37 -88 -54 -173 -83 -376 -7 -462 172 -22
47 -26 68 -26 145 0 78 4 97 28 147 35 71 119 149 190 177 79 32 203 25 281
-14z m-5747 -875 c190 -94 251 -347 125 -516 -160 -212 -477 -183 -594 54 -30
60 -33 75 -33 152 0 71 5 95 27 142 45 96 140 176 235 196 75 16 173 5 240
-28z m4800 -32 c71 -26 155 -104 190 -176 24 -49 27 -69 27 -147 0 -77 -4 -98
-27 -146 -130 -269 -503 -269 -634 0 -24 48 -27 68 -27 146 0 107 20 159 85
230 104 112 245 146 386 93z m-1168 -684 c90 -15 190 -94 239 -188 22 -42 27
-66 29 -141 2 -85 0 -94 -33 -163 -73 -150 -227 -224 -390 -187 -119 27 -206
109 -247 232 -44 132 -19 247 73 347 83 90 195 124 329 100z m-1171 -458 c110
-40 173 -111 217 -245 24 -72 15 -156 -25 -237 -36 -73 -91 -126 -169 -163
-48 -22 -69 -26 -146 -26 -104 1 -157 20 -226 82 -86 77 -119 158 -116 277 2
65 8 91 30 133 50 97 122 158 220 188 53 16 158 12 215 -9z m-1265 -24 c236
-116 262 -447 46 -595 -183 -125 -422 -60 -520 141 -19 39 -23 63 -23 142 0
110 17 161 81 231 76 84 158 119 274 116 62 -2 86 -8 142 -35z m-2014 -767
c77 -27 164 -104 204 -180 50 -95 50 -224 1 -314 -16 -30 -121 -143 -277 -299
l-252 -252 -250 250 -250 250 245 246 c135 135 265 257 289 272 86 51 196 61
290 27z"/>
</g>
</svg>
