<svg xmlns="http://www.w3.org/2000/svg" viewBox="0 0 1024 1024">
<g transform="translate(0,1024) scale(0.1,-0.1)">
<path fill="currentColor" d="M5006 8243 c-140 -42 -236 -153 -408 -472 -49 -91 -198 -347 -331
-569 l-241 -403 -50 49 c-91 88 -171 121 -296 124 -200 4 -310 -101 -530 -507
-89 -166 -373 -647 -409 -693 l-17 -23 -67 113 c-79 135 -112 177 -176 217
-81 52 -149 70 -254 68 -73 -2 -102 -8 -140 -26 -103 -51 -210 -179 -323 -388
-26 -48 -219 -378 -429 -733 -471 -795 -829 -1403 -927 -1575 l-75 -130 -64
-1 c-93 -1 -131 -11 -178 -44 -80 -59 -102 -144 -70 -280 68 -290 223 -535
454 -714 197 -153 381 -231 625 -264 69 -9 7951 -9 8040 0 307 32 630 208 821
447 122 151 198 302 245 481 42 161 39 212 -15 287 -42 59 -104 85 -201 87
-44 1 -83 6 -89 11 -5 6 -168 282 -363 615 -1185 2021 -1205 2054 -1252 2105
-110 116 -322 160 -461 94 -87 -40 -203 -171 -286 -323 l-27 -49 -79 134 c-43
74 -180 307 -303 518 -124 211 -243 404 -265 429 -120 138 -320 181 -477 104
-35 -17 -87 -54 -115 -82 -28 -27 -53 -50 -56 -50 -2 0 -173 286 -378 637
-213 362 -393 657 -418 685 -49 55 -109 93 -179 114 -69 22 -178 25 -236 7z
m150 -113 c1 -8 16 -78 33 -155 16 -77 32 -151 35 -165 2 -14 18 -88 35 -165
16 -77 32 -151 35 -165 2 -14 9 -45 15 -70 5 -25 12 -56 15 -70 2 -14 18 -88
35 -165 16 -77 32 -151 35 -165 2 -14 25 -119 50 -235 24 -115 47 -221 50
-235 2 -14 25 -119 50 -235 24 -115 47 -221 50 -235 2 -14 15 -73 27 -132 23
-106 23 -107 3 -143 -10 -20 -22 -39 -26 -41 -3 -2 -35 47 -71 109 -36 61 -83
131 -104 154 -85 93 -213 141 -351 131 -147 -11 -258 -105 -391 -332 l-39 -68
-85 144 c-291 494 -458 779 -463 792 -4 9 81 160 208 373 205 342 251 421 438
755 94 167 169 265 234 303 73 43 175 51 182 15z m187 -74 c35 -41 86 -124
272 -446 104 -179 266 -457 362 -618 l174 -293 -44 -77 c-25 -42 -79 -142
-122 -222 -88 -165 -242 -427 -256 -435 -5 -4 -9 0 -10 7 -1 18 -4 33 -39 198
-18 80 -34 156 -36 170 -3 14 -26 120 -50 235 -25 116 -48 221 -50 235 -3 14
-26 120 -50 235 -25 116 -48 221 -50 235 -3 14 -19 88 -35 165 -17 77 -33 151
-35 165 -3 14 -10 45 -15 70 -6 25 -13 56 -15 70 -3 14 -19 88 -35 165 -17 77
-33 153 -36 169 l-5 29 29 -18 c15 -9 36 -27 46 -39z m-1629 -1195 c5 -8 24
-91 40 -171 2 -14 9 -45 15 -70 5 -25 12 -56 15 -70 2 -14 9 -45 15 -70 5 -25
12 -56 15 -70 2 -14 18 -88 35 -165 16 -77 32 -151 35 -165 2 -14 25 -119 50
-235 24 -115 47 -221 50 -235 2 -14 25 -120 50 -235 25 -116 47 -224 51 -240
3 -17 16 -79 29 -139 l24 -109 -221 -377 c-122 -208 -226 -378 -232 -379 -8 0
-855 1428 -887 1495 -8 18 5 45 83 170 145 233 222 363 266 444 136 252 181
332 221 395 85 134 145 194 219 221 43 15 119 18 127 5z m2870 1 c3 -5 7 -19
10 -33 2 -13 25 -118 50 -234 24 -115 47 -221 50 -235 2 -14 9 -45 15 -70 5
-25 12 -56 15 -70 2 -14 18 -88 35 -165 16 -77 32 -151 35 -165 2 -14 25 -119
50 -235 24 -115 47 -221 50 -235 2 -14 25 -120 50 -235 55 -256 59 -276 58
-295 -1 -24 -444 -772 -453 -763 -9 10 -868 1471 -882 1500 -11 25 -19 10 153
283 65 102 174 289 243 415 207 382 269 469 365 517 49 24 145 37 156 20z
m-2686 -80 c19 -17 163 -252 358 -583 l326 -554 -22 -45 c-75 -154 -333 -580
-345 -568 -2 2 -7 19 -10 38 -3 18 -20 97 -36 174 -17 78 -33 152 -35 166 -3
14 -26 120 -50 235 -25 116 -48 221 -50 235 -3 14 -26 120 -50 235 -25 116
-48 221 -50 235 -3 14 -19 88 -35 165 -17 77 -33 151 -35 165 -3 14 -10 45
-15 70 -19 83 -19 81 -1 71 9 -5 32 -23 50 -39z m2874 -6 c20 -20 181 -282
358 -583 l321 -548 -16 -35 c-66 -139 -338 -591 -349 -579 -3 3 -26 104 -42
189 -3 14 -26 120 -50 235 -25 116 -48 221 -50 235 -3 14 -26 120 -50 235 -25
116 -48 221 -50 235 -3 14 -19 88 -35 165 -17 77 -33 151 -35 165 -3 14 -10
45 -15 70 -6 25 -13 56 -15 70 -3 13 -12 56 -20 95 -9 38 -17 78 -19 88 -5 23
21 9 67 -37z m-4495 -734 c6 -4 11 -9 10 -12 -1 -9 9 -57 47 -230 14 -63 27
-126 30 -140 2 -14 25 -119 50 -235 24 -115 47 -221 50 -235 2 -14 25 -119 50
-235 24 -115 47 -221 50 -235 2 -14 18 -88 35 -165 16 -77 32 -151 35 -165 2
-14 9 -45 15 -70 5 -25 12 -56 15 -70 2 -14 18 -88 35 -165 16 -77 32 -151 35
-165 2 -14 25 -119 50 -235 24 -115 47 -221 50 -235 2 -14 11 -54 19 -90 l14
-66 -1204 0 c-993 1 -1202 3 -1198 14 2 7 117 203 253 435 624 1058 1083 1841
1136 1937 132 239 211 329 316 361 33 10 92 11 107 1z m2870 -4 c7 -10 84
-355 127 -573 3 -11 25 -114 50 -230 24 -115 47 -221 50 -235 2 -14 18 -88 35
-165 16 -77 32 -151 35 -165 2 -14 9 -45 15 -70 5 -25 12 -56 15 -70 2 -14 18
-88 35 -165 16 -77 32 -151 35 -165 2 -14 25 -119 50 -235 24 -115 47 -221 50
-235 2 -14 23 -110 45 -214 23 -103 41 -196 41 -205 0 -15 -57 -17 -782 -16
l-781 0 -209 354 c-114 195 -208 358 -208 363 0 5 74 134 164 286 546 926 731
1241 796 1357 133 240 204 329 291 370 54 25 131 32 146 13z m2870 0 c6 -7 16
-44 24 -83 7 -38 14 -72 14 -75 1 -3 7 -30 13 -60 7 -30 14 -64 16 -75 3 -11
25 -114 50 -230 24 -115 47 -221 50 -235 2 -14 18 -88 35 -165 16 -77 32 -151
35 -165 2 -14 9 -45 15 -70 5 -25 12 -56 15 -70 2 -14 18 -88 35 -165 16 -77
32 -151 35 -165 2 -14 25 -119 50 -235 24 -115 47 -221 50 -235 2 -14 25 -119
50 -235 24 -115 47 -221 50 -235 2 -14 14 -68 25 -120 12 -52 21 -101 21 -110
0 -14 -76 -16 -782 -15 l-782 0 -208 354 c-114 195 -208 358 -208 363 0 5 200
348 445 763 245 415 479 816 521 892 123 223 198 317 285 358 54 25 131 32
146 13z m-5525 -109 c24 -31 1532 -2591 1543 -2622 5 -10 -89 -13 -527 -12
l-532 0 -8 30 c-4 17 -11 43 -14 59 -2 16 -19 93 -35 170 -17 78 -33 152 -35
166 -3 14 -26 120 -50 235 -25 116 -48 221 -50 235 -3 14 -26 120 -50 235 -25
116 -48 221 -50 235 -3 14 -19 88 -35 165 -17 77 -33 151 -35 165 -3 14 -10
45 -15 70 -6 25 -13 56 -15 70 -3 14 -19 88 -35 165 -17 77 -33 151 -35 165
-3 14 -26 120 -50 235 -54 248 -52 240 -61 285 l-6 35 34 -26 c18 -15 46 -42
61 -60z m2864 7 c34 -42 1554 -2628 1549 -2636 -2 -3 -241 -5 -532 -5 l-528 0
-22 100 c-13 55 -25 113 -29 130 -3 16 -25 124 -50 240 -25 115 -48 221 -50
235 -3 14 -26 120 -50 235 -25 116 -48 221 -50 235 -3 14 -19 88 -35 165 -17
77 -33 151 -35 165 -3 14 -10 45 -15 70 -6 25 -13 56 -15 70 -3 14 -19 88 -35
165 -17 77 -33 151 -35 165 -3 14 -26 120 -50 235 -25 116 -48 221 -50 235 -3
14 -16 76 -30 138 -13 63 -24 118 -24 123 0 15 57 -28 86 -65z m2872 -4 c41
-54 111 -169 362 -602 292 -504 646 -1108 942 -1608 131 -222 239 -408 241
-415 1 -9 -126 -12 -526 -12 -291 0 -531 3 -533 7 -3 5 -8 21 -10 36 -3 15
-10 47 -15 72 -6 25 -13 56 -15 70 -3 14 -19 88 -35 165 -17 77 -33 151 -35
165 -3 14 -26 120 -50 235 -25 116 -48 221 -50 235 -3 14 -26 120 -50 235 -25
116 -48 221 -50 235 -3 14 -19 88 -35 165 -17 77 -33 151 -35 165 -3 14 -10
45 -15 70 -6 25 -13 56 -15 70 -3 14 -19 88 -35 165 -17 77 -33 151 -35 165
-3 14 -25 118 -50 233 -24 114 -44 212 -44 218 0 16 55 -27 88 -69z m1853
-2765 c47 -32 56 -62 41 -149 -45 -262 -211 -530 -430 -696 -120 -90 -323
-185 -441 -207 -14 -3 -37 -7 -51 -10 -14 -3 -52 -8 -85 -11 -79 -9 -7902 -9
-7980 0 -269 29 -490 134 -688 325 -160 154 -263 331 -317 545 -11 44 -20 96
-20 116 0 41 29 86 64 100 11 5 2238 9 4947 9 l4926 1 34 -23z"/>
</g>
</svg>
