<svg xmlns="http://www.w3.org/2000/svg" viewBox="0 0 1024 1024">
<g transform="translate(0,1024) scale(0.1,-0.1)">
<path fill="currentColor" d="M6887 10154 c-1 -1 -59 -5 -129 -8 -71 -4 -137 -9 -147 -11 -11 -2
-51 -7 -88 -10 -37 -4 -75 -8 -83 -10 -8 -2 -37 -7 -65 -10 -27 -4 -69 -11
-93 -16 -23 -5 -59 -12 -80 -15 -20 -3 -55 -10 -77 -16 -22 -5 -51 -12 -65
-14 -109 -19 -413 -116 -582 -185 -629 -259 -1095 -658 -1314 -1124 -60 -128
-103 -271 -121 -397 -16 -107 -8 -474 12 -608 2 -14 7 -45 10 -70 9 -62 16
-109 21 -134 2 -11 7 -37 10 -56 4 -19 8 -42 9 -50 2 -8 15 -65 29 -126 111
-479 311 -949 578 -1358 l58 -89 -19 -31 c-11 -17 -39 -66 -64 -109 -33 -57
-47 -74 -54 -65 -6 7 -95 159 -198 338 -103 179 -201 343 -216 366 -159 232
-468 336 -732 245 -134 -46 -251 -133 -324 -241 -40 -59 -3062 -5219 -3097
-5288 -91 -180 -87 -417 11 -612 48 -95 178 -230 270 -278 75 -39 158 -69 222
-79 56 -9 6166 -10 6237 -1 68 8 183 49 252 90 73 43 188 158 231 231 33 56
75 161 86 214 14 65 13 211 0 276 -21 95 -45 148 -153 332 -52 88 -98 167
-102 175 -8 14 107 16 1148 16 636 0 1182 3 1212 7 75 9 172 41 250 84 83 46
214 178 257 258 101 191 114 403 37 588 -14 32 -365 639 -781 1350 -416 710
-756 1296 -757 1303 -1 7 49 37 109 67 611 308 1059 848 1300 1571 60 181 92
306 126 496 27 153 26 147 34 226 4 38 9 78 11 89 16 87 21 426 10 645 -8 161
-11 186 -32 310 -9 51 -45 169 -70 231 -231 569 -796 1032 -1579 1293 -197 66
-491 137 -675 162 -25 3 -53 8 -62 9 -9 2 -48 7 -85 10 -37 4 -78 8 -91 10
-71 12 -585 28 -595 19z m528 -348 c22 -3 65 -8 95 -11 94 -10 143 -17 255
-36 92 -16 97 -17 145 -28 25 -5 56 -12 70 -15 209 -42 531 -156 740 -261 498
-250 832 -589 960 -973 28 -84 33 -109 49 -218 15 -108 4 -260 -29 -386 -132
-505 -643 -954 -1370 -1203 -120 -41 -297 -92 -350 -101 -14 -3 -33 -7 -42
-10 -19 -5 -49 -12 -93 -19 -16 -3 -41 -8 -55 -10 -57 -12 -75 -15 -129 -21
l-57 -6 -88 152 c-49 83 -87 153 -85 154 2 2 36 7 75 10 39 4 80 8 90 10 11 2
42 7 69 10 184 24 491 101 682 171 136 50 381 172 483 240 308 207 491 445
554 720 19 87 15 283 -8 369 -91 328 -372 620 -798 825 -147 71 -408 166 -538
196 -151 35 -285 62 -350 71 -25 3 -53 8 -62 9 -9 2 -48 7 -85 10 -37 4 -79 8
-93 11 -133 21 -711 21 -826 0 -10 -2 -50 -7 -89 -10 -38 -4 -77 -9 -85 -11
-8 -2 -33 -6 -55 -10 -488 -72 -959 -261 -1255 -505 -200 -164 -331 -344 -399
-546 -30 -90 -36 -138 -35 -269 1 -99 6 -136 28 -210 86 -288 318 -535 699
-744 75 -41 77 -44 64 -64 -7 -12 -42 -70 -76 -129 -35 -60 -67 -108 -72 -108
-32 0 -242 129 -384 236 -222 167 -372 337 -474 540 -54 106 -78 178 -107 309
-18 81 -23 240 -11 335 13 99 18 124 47 212 154 463 625 866 1295 1106 121 43
357 112 435 126 14 2 45 9 70 14 25 6 63 13 84 16 21 4 48 8 60 11 26 6 80 13
148 21 29 3 64 7 78 10 14 2 68 6 120 10 52 3 97 8 99 10 6 5 559 -4 606 -10z
m-50 -669 c11 -3 56 -8 99 -12 43 -4 86 -8 95 -10 9 -1 36 -6 61 -9 46 -6 57
-8 150 -27 531 -106 965 -326 1166 -592 48 -63 97 -158 110 -212 l7 -29 -39
31 c-268 211 -755 398 -1244 478 -25 4 -53 9 -64 11 -10 2 -44 6 -75 9 -31 4
-66 8 -77 10 -12 2 -61 6 -110 10 -49 4 -105 9 -124 11 -45 5 -504 5 -550 0
-19 -2 -73 -7 -120 -11 -47 -3 -101 -8 -120 -11 -59 -8 -93 -13 -145 -19 -27
-4 -57 -8 -65 -10 -8 -3 -33 -7 -55 -11 -22 -3 -60 -10 -85 -16 -25 -5 -58
-12 -74 -15 -59 -10 -282 -74 -394 -114 -226 -80 -413 -173 -575 -287 -43 -30
-80 -52 -82 -50 -6 6 42 116 77 175 49 82 191 221 304 296 119 79 330 183 474
232 109 37 254 80 303 89 15 2 35 7 45 10 21 6 45 11 187 35 130 22 179 28
300 37 50 4 92 8 94 10 5 4 503 -4 526 -9z m25 -680 c14 -3 59 -8 100 -11 41
-4 86 -8 100 -10 14 -3 45 -7 70 -10 178 -23 452 -89 630 -152 243 -85 487
-223 624 -354 l70 -67 -37 -50 c-139 -190 -432 -374 -786 -495 -81 -27 -317
-92 -378 -103 -16 -3 -37 -7 -48 -9 -11 -2 -40 -7 -65 -11 -25 -4 -54 -9 -65
-11 -63 -12 -229 -30 -320 -35 l-50 -3 -103 174 c-56 96 -133 226 -169 289
-103 174 -208 270 -358 326 -82 31 -103 35 -205 39 -112 5 -204 -15 -310 -67
-127 -62 -211 -151 -320 -339 -47 -81 -89 -148 -93 -148 -17 0 -124 54 -192
98 -124 79 -270 213 -336 309 l-29 41 58 53 c149 137 321 241 542 329 94 38
301 104 352 114 13 2 41 9 63 14 22 6 54 14 70 16 29 6 49 10 105 21 14 2 41
7 60 10 19 3 46 7 60 10 14 2 52 7 85 11 33 3 68 8 79 10 10 2 66 6 125 10 58
3 108 8 110 10 6 5 531 -4 561 -9z m-879 -849 c30 -15 69 -42 86 -60 17 -18
84 -123 149 -233 l117 -200 2 -310 c2 -281 8 -462 20 -615 2 -30 7 -98 10
-150 4 -52 8 -106 10 -120 2 -14 7 -63 10 -110 4 -47 8 -92 10 -100 2 -8 6
-49 10 -90 4 -41 8 -82 10 -90 1 -8 6 -40 10 -70 8 -67 12 -92 20 -150 9 -59
13 -87 20 -135 3 -23 7 -52 10 -65 3 -13 7 -40 10 -60 3 -20 7 -47 10 -60 3
-14 16 -83 30 -155 28 -145 29 -151 44 -215 5 -25 12 -56 15 -70 4 -21 17 -76
51 -220 97 -401 278 -932 450 -1315 189 -423 460 -882 696 -1181 27 -34 49
-64 49 -68 0 -3 -325 -6 -723 -6 l-722 0 -997 1702 c-548 937 -1015 1735
-1038 1774 l-41 72 641 1098 c435 744 656 1113 684 1142 89 90 233 115 347 60z
m3129 -618 c-202 -784 -613 -1326 -1233 -1626 -54 -26 -99 -45 -102 -43 -9 9
-515 872 -512 875 1 1 20 4 42 7 71 10 277 57 390 89 568 160 1012 406 1350
747 55 55 101 101 102 101 1 0 -16 -67 -37 -150z m-4958 -98 c111 -93 250
-190 373 -261 50 -28 97 -55 105 -60 8 -5 14 -13 13 -19 -4 -17 -207 -362
-213 -362 -18 0 -224 386 -283 530 -40 97 -95 250 -91 250 2 0 46 -35 96 -78z
m3786 -2517 c747 -1278 1246 -2141 1255 -2172 8 -28 14 -77 13 -110 -7 -148
-94 -262 -235 -310 -62 -21 -84 -22 -376 -23 -238 0 -314 3 -327 12 -8 7 -51
56 -95 108 -558 672 -967 1530 -1220 2560 -25 102 -47 194 -49 204 -2 11 -18
90 -35 175 -17 86 -33 165 -35 176 -20 118 -36 215 -39 235 -6 40 -17 114 -20
130 -2 8 -6 40 -9 71 -4 31 -8 65 -10 75 -2 11 -7 50 -11 87 -3 37 -8 76 -10
85 -1 9 -6 55 -10 102 -4 47 -8 92 -10 100 -2 8 -6 60 -10 115 -4 55 -8 116
-10 135 -2 19 -7 105 -10 190 -4 85 -9 166 -10 178 -2 19 0 21 10 10 7 -7 570
-967 1253 -2133z m-4645 1882 c29 -13 68 -40 87 -60 19 -19 88 -126 152 -236
l117 -201 1 -288 c1 -158 3 -318 5 -357 12 -246 17 -334 20 -365 2 -19 6 -80
10 -135 4 -55 8 -107 10 -115 2 -8 6 -53 10 -100 4 -47 8 -92 10 -100 2 -8 6
-44 10 -80 3 -36 8 -76 10 -90 2 -14 6 -43 9 -65 3 -22 8 -60 11 -85 4 -25 24
-149 45 -277 210 -1242 626 -2306 1218 -3113 50 -69 101 -137 113 -153 l21
-27 -2544 2 -2543 3 -55 26 c-82 39 -135 90 -172 166 -41 84 -48 186 -18 265
32 85 3081 5278 3125 5323 41 41 97 73 150 85 53 13 145 2 198 -23z m1954
-3217 c671 -1147 1230 -2104 1242 -2127 83 -165 5 -380 -169 -462 l-55 -26
-335 -3 c-184 -1 -340 1 -346 5 -6 5 -48 53 -93 107 -581 693 -1010 1616
-1256 2701 -38 166 -42 184 -50 225 -3 14 -7 36 -10 50 -3 14 -7 39 -10 55 -3
17 -8 41 -10 55 -10 48 -13 66 -34 200 -29 181 -29 179 -35 225 -19 142 -33
262 -41 335 -24 234 -40 442 -50 675 l-6 130 19 -30 c10 -16 568 -968 1239
-2115z"/>
</g>
</svg>
