<svg xmlns="http://www.w3.org/2000/svg" viewBox="0 0 1024 1024">
<g transform="translate(0,1024) scale(0.1,-0.1)">
<path fill="currentColor" d="M6821 8814 c-28 -20 -49 -68 -44 -99 3 -12 24 -46 48 -75 66 -80 90
-153 90 -275 0 -153 -16 -230 -119 -570 -82 -274 -100 -366 -101 -525 0 -142
3 -165 30 -245 35 -102 130 -228 181 -241 62 -16 124 32 124 94 0 29 -8 48
-33 78 -85 101 -108 173 -103 328 2 61 6 122 10 136 3 14 9 41 12 60 3 19 37
140 75 270 111 375 123 434 124 605 0 144 -11 200 -60 297 -38 77 -93 146
-132 166 -31 17 -75 15 -102 -4z M5972 8136 c-69 -37 -71 -118 -4 -186 9 -8
27 -39 41 -70 22 -47 26 -69 26 -150 0 -130 -11 -184 -95 -465 -77 -257 -90
-323 -96 -465 -6 -172 35 -298 132 -397 41 -44 56 -53 85 -53 43 0 77 23 94
63 17 40 6 76 -39 129 -51 59 -71 125 -71 233 1 124 13 185 95 460 36 122 71
250 85 320 4 17 8 80 11 140 6 165 -20 256 -107 372 -54 73 -107 96 -157 69z
M7692 8130 c-32 -20 -51 -61 -45 -99 2 -13 23 -50 48 -83 25 -33 50 -78 57
-101 14 -50 18 -176 7 -226 -4 -20 -10 -52 -13 -71 -3 -19 -24 -98 -46 -175
-114 -393 -118 -409 -127 -556 -7 -123 9 -214 52 -304 74 -152 167 -205 236
-136 44 44 40 90 -12 157 -64 84 -79 134 -75 256 5 134 12 162 116 517 23 80
44 156 47 170 48 250 36 403 -43 538 -30 51 -97 123 -115 124 -8 1 -24 3 -36
4 -12 1 -35 -6 -51 -15z M4723 5898 c-28 -14 -52 -64 -47 -97 3 -14 72 -127
154 -251 82 -124 168 -266 191 -315 50 -108 87 -250 95 -360 3 -44 7 -447 8
-895 2 -448 6 -831 10 -850 18 -80 59 -209 87 -267 71 -150 200 -302 335 -399
127 -91 342 -173 480 -183 7 -1 10 -43 10 -129 l-1 -127 -362 -3 c-200 -1
-363 1 -363 5 0 3 6 14 14 22 30 34 75 139 89 209 20 97 16 147 -14 178 -30
29 -47 32 -181 33 l-108 1 0 40 c0 22 -6 56 -14 75 -8 19 -97 173 -199 342
-874 1462 -1012 1690 -1040 1715 -33 29 -111 58 -158 58 -44 0 -112 -29 -147
-63 -19 -18 -167 -255 -330 -527 -162 -272 -301 -501 -307 -508 -9 -10 -76 94
-316 495 -167 279 -316 519 -330 534 -39 40 -85 60 -145 64 -73 4 -119 -12
-170 -60 -33 -30 -191 -287 -635 -1030 -326 -544 -598 -1006 -605 -1025 -7
-19 -13 -53 -14 -75 l0 -40 -110 0 c-107 0 -110 -1 -137 -28 -26 -25 -28 -33
-27 -100 2 -84 33 -185 82 -262 l31 -50 -142 -5 c-78 -3 -150 -9 -160 -14 -21
-10 -47 -57 -47 -86 0 -12 5 -31 11 -43 23 -42 244 -249 324 -302 110 -74 250
-131 363 -150 17 -3 47 -8 65 -11 46 -8 8101 -7 8166 1 192 24 352 93 503 214
95 76 244 229 256 261 12 32 -2 81 -29 106 -20 18 -52 19 -1095 22 -844 2
-1074 5 -1075 15 -3 49 0 239 4 243 3 3 20 8 39 10 336 48 639 275 783 587
l35 75 497 288 c546 315 584 339 666 414 116 106 215 273 258 435 29 112 34
291 10 405 -77 362 -362 638 -729 704 -71 13 -266 14 -332 2 -14 -2 -52 -7
-85 -11 -33 -3 -79 -8 -102 -11 -27 -4 -43 -2 -43 5 0 30 81 170 212 369 81
122 151 234 154 247 8 33 -12 80 -42 100 -21 13 -246 15 -2146 14 -1469 0
-2130 -4 -2145 -11z m3956 -325 c-152 -230 -217 -381 -253 -595 l-7 -38 -1553
0 -1553 0 -13 73 c-32 182 -103 343 -243 555 l-94 142 1903 0 1904 0 -91 -137z
m616 -593 c123 -39 202 -87 296 -180 73 -73 94 -101 132 -180 25 -52 52 -126
61 -165 19 -86 15 -245 -8 -330 -39 -141 -135 -285 -245 -367 -51 -39 -902
-538 -916 -538 -6 0 0 1704 5 1728 2 6 8 12 14 13 6 0 19 2 29 4 9 2 50 6 90
10 39 4 79 8 87 10 8 2 49 6 90 10 41 4 77 9 79 11 13 13 223 -6 286 -26z
m-885 -363 l0 -123 -295 0 c-318 0 -333 -3 -360 -54 -9 -18 -14 -78 -15 -204
0 -99 -3 -182 -5 -185 -2 -4 -88 -6 -192 -6 l-188 0 -3 190 c-2 180 -4 192
-25 218 -13 16 -37 31 -57 35 -62 13 -822 7 -847 -7 -13 -6 -30 -25 -38 -41
-15 -29 -15 -41 0 -307 3 -46 1 -84 -3 -84 -4 -1 -105 -2 -224 -3 l-218 -1 0
182 c0 116 -4 191 -12 207 -23 53 -34 54 -330 57 l-275 3 -1 123 -1 123 1544
0 1545 0 0 -123z m-6394 -276 c-5 -8 -19 -70 -54 -241 -4 -19 -7 -100 -6 -180
2 -209 30 -300 164 -517 69 -112 91 -174 91 -265 1 -106 -15 -130 -198 -298
-73 -67 -96 -109 -97 -175 0 -60 24 -113 71 -160 l35 -35 -553 2 c-521 3 -554
4 -557 21 -2 10 225 400 524 900 586 980 572 957 580 957 3 0 3 -4 0 -9z m240
-44 c17 -29 264 -441 548 -916 329 -549 516 -872 514 -885 -3 -21 -7 -21 -306
-24 -322 -2 -305 -4 -568 53 -118 26 -274 83 -306 112 -25 23 -23 27 25 70
198 176 250 266 249 433 -1 125 -34 232 -107 346 -88 137 -124 213 -143 309
-8 36 -8 240 -1 275 3 14 16 82 30 152 13 71 26 128 29 128 3 0 19 -24 36 -53z
m1350 21 c-3 -18 -8 -42 -10 -53 -86 -366 -57 -577 120 -856 76 -121 93 -174
91 -279 -2 -77 -5 -89 -34 -130 -17 -25 -44 -56 -59 -69 -125 -105 -155 -136
-179 -186 -22 -45 -26 -62 -20 -102 7 -52 42 -115 83 -150 l27 -23 -51 0 -52
0 -4 58 c-4 54 -17 78 -245 459 l-241 401 287 480 c157 265 287 481 289 481 2
1 1 -14 -2 -31z m429 -321 c115 -193 362 -606 548 -916 209 -350 337 -573 335
-585 -3 -21 -9 -21 -308 -24 l-305 -2 -140 30 c-189 40 -176 37 -280 70 -100
33 -160 67 -160 92 0 9 40 51 89 93 148 130 198 229 195 389 -3 147 -29 219
-144 406 -56 92 -96 191 -109 275 -8 49 -8 179 -1 220 5 25 26 128 30 145 1 3
5 25 10 50 5 25 10 48 11 53 1 4 2 18 3 32 0 14 4 25 9 25 4 0 101 -159 217
-353z m1688 294 c16 -1 17 -17 17 -191 l0 -190 29 -32 29 -33 367 0 367 0 30
34 30 33 -4 191 -3 191 280 0 280 0 5 -196 c5 -214 9 -226 68 -245 44 -15 643
-9 669 5 45 25 51 56 53 247 0 99 5 182 9 185 7 4 422 5 454 1 4 -1 6 -157 5
-348 l-3 -347 -1510 -1 c-830 0 -1524 2 -1541 3 l-32 4 0 341 c0 188 1 344 3
347 2 4 312 5 398 1z m2684 -1011 c-3 -63 -8 -126 -11 -139 -38 -167 -113
-308 -225 -420 -130 -131 -306 -217 -486 -239 -27 -3 -403 -6 -835 -6 -828 0
-841 0 -975 47 -163 56 -314 173 -411 318 -91 137 -132 267 -140 445 l-5 110
1547 0 1546 0 -5 -116z m-921 -1133 l1 -127 -618 0 c-485 0 -618 3 -621 13 -3
10 -2 200 1 232 1 7 212 10 619 10 l617 0 1 -128z m-2266 118 c0 -3 -9 -25
-21 -50 -28 -60 -99 -129 -168 -162 l-56 -28 -2040 0 -2040 0 -49 23 c-71 32
-132 86 -166 145 -17 29 -30 58 -30 65 0 9 464 12 2285 12 1257 0 2285 -2
2285 -5z m4284 -485 c-102 -84 -255 -148 -399 -167 -65 -8 -8090 -7 -8130 1
-16 3 -46 9 -65 12 -93 16 -304 123 -350 179 -11 13 461 15 4490 15 l4502 0
-48 -40z M1517 4619 c-42 -12 -52 -22 -122 -139 -78 -129 -83 -165 -34 -211
44 -41 90 -40 133 4 41 40 136 208 140 244 5 38 -16 76 -51 93 -37 19 -34 18
-66 9z M1215 4149 c-28 -14 -16 5 -398 -635 -357 -597 -365 -612 -337 -665 28
-51 117 -61 157 -16 39 42 723 1200 723 1223 0 75 -79 126 -145 93z"/>
</g>
</svg>
