<svg xmlns="http://www.w3.org/2000/svg" viewBox="0 0 1024 1024">
<g transform="translate(0,1024) scale(0.1,-0.1)">
<path fill="currentColor" d="M5660 10233 c-351 -55 -636 -253 -798 -555 -35 -65 -87 -206 -97
-264 -4 -21 -8 -46 -10 -54 -2 -8 -4 -20 -4 -26 -1 -6 -30 -30 -65 -53 -152
-98 -264 -250 -315 -426 l-18 -59 -129 -76 c-273 -160 -459 -304 -672 -518
-377 -382 -655 -860 -797 -1372 -32 -117 -52 -209 -71 -325 -3 -22 -8 -47 -9
-55 -2 -8 -6 -44 -10 -80 -4 -36 -9 -72 -11 -80 -1 -8 -3 -25 -3 -37 -1 -15
-18 -32 -59 -57 -32 -19 -88 -63 -125 -96 l-67 -62 0 542 c0 603 0 605 -67
732 -64 121 -176 215 -315 262 -63 22 -88 25 -183 23 -94 -3 -120 -7 -180 -32
-131 -53 -228 -139 -289 -255 -62 -117 -66 -149 -66 -492 0 -286 -1 -308 -17
-309 -10 0 -76 0 -147 0 -135 1 -146 4 -146 46 0 31 -56 142 -97 192 -47 58
-140 119 -211 139 -220 64 -441 -36 -540 -243 l-37 -78 -3 -177 c-3 -106 1
-198 7 -229 52 -242 301 -399 545 -342 163 38 293 170 336 341 l11 42 74 1
c41 0 104 1 140 1 36 0 70 -1 75 -1 7 -1 10 -190 10 -546 0 -512 -1 -545 -17
-546 -10 0 -76 0 -147 0 -135 1 -146 4 -146 46 0 31 -56 142 -97 192 -47 58
-140 119 -211 139 -220 64 -441 -36 -540 -243 l-37 -78 -3 -177 c-3 -106 1
-198 7 -229 52 -242 301 -399 545 -342 163 38 293 170 336 341 l11 42 74 1
c41 0 104 1 140 1 36 0 70 -1 75 -1 7 -1 10 -227 10 -658 l0 -658 -37 -25
c-20 -14 -90 -76 -155 -139 -469 -451 -883 -1161 -1037 -1776 -17 -70 -28
-124 -56 -285 -4 -19 -8 -118 -10 -220 -4 -211 11 -325 65 -490 73 -223 233
-489 322 -536 23 -12 650 -14 4386 -14 4329 0 4360 0 4417 20 89 31 156 87
197 165 43 82 50 144 34 320 l-5 60 57 35 c72 45 248 218 299 295 91 136 147
265 183 420 60 254 38 513 -65 760 -54 131 -51 161 25 245 99 110 179 237 228
361 24 61 58 164 53 164 -1 0 4 16 9 35 31 106 34 376 6 508 -50 235 -172 464
-328 613 l-27 27 37 72 37 73 0 161 c0 88 -4 187 -8 220 -12 84 -51 232 -81
308 -14 35 -26 69 -26 75 0 6 15 21 34 33 64 39 151 110 235 193 114 111 146
177 146 297 0 124 -33 187 -164 313 -54 52 -130 116 -167 142 -38 27 -73 52
-77 55 -5 4 10 61 32 126 22 66 43 133 45 149 3 17 8 41 11 55 14 68 20 149
20 290 0 147 -1 158 -26 210 -47 98 -126 165 -229 194 -43 13 -86 15 -200 12
-80 -3 -157 -7 -172 -10 -38 -8 -76 -15 -118 -22 -63 -10 -223 -66 -294 -101
-37 -19 -69 -33 -70 -31 -2 2 -15 44 -30 93 -227 741 -774 1414 -1463 1800
l-102 57 -17 56 c-21 76 -65 170 -105 229 -46 68 -147 164 -218 208 -34 21
-61 45 -62 54 -3 66 -40 192 -85 289 -93 203 -257 377 -456 487 -64 35 -210
89 -266 100 -15 3 -38 8 -52 11 -30 7 -274 13 -310 7z m318 -317 c246 -66 453
-260 526 -493 l7 -23 -179 0 c-169 0 -181 -1 -212 -22 -39 -27 -70 -81 -70
-122 0 -53 37 -113 83 -135 38 -18 63 -20 240 -21 168 -1 207 -5 254 -21 107
-37 186 -97 245 -189 32 -50 68 -156 68 -202 0 -29 22 -82 45 -104 6 -7 50
-31 96 -54 531 -267 984 -721 1253 -1257 127 -254 224 -542 262 -780 3 -19 7
-44 9 -55 3 -11 7 -46 11 -77 3 -31 7 -60 8 -66 0 -6 -103 -11 -291 -12 -317
-2 -347 1 -446 55 -46 25 -83 59 -189 176 -271 300 -584 496 -936 585 -140 36
-215 46 -337 46 -121 0 -174 -25 -281 -132 -92 -93 -139 -124 -224 -153 -167
-56 -317 -10 -473 145 -119 118 -167 140 -307 140 -95 -1 -201 -9 -240 -20 -8
-2 -31 -7 -50 -10 -180 -30 -432 -130 -605 -240 -148 -94 -306 -237 -455 -413
-71 -84 -144 -136 -227 -162 -50 -16 -96 -18 -332 -19 l-274 -2 7 68 c26 254
124 590 251 860 145 307 324 556 584 813 212 210 417 360 688 502 125 66 147
90 157 173 22 184 142 332 313 385 55 17 96 20 320 20 243 1 260 3 295 22 76
43 99 147 48 219 -39 54 -65 59 -313 59 -123 0 -226 3 -230 6 -3 3 6 34 21 67
96 228 284 389 521 447 94 23 265 21 359 -4z m-4050 -2631 c68 -21 132 -84
155 -155 16 -48 17 -228 17 -2455 0 -2172 -2 -2405 -16 -2419 -23 -24 -445
-24 -468 0 -14 14 -16 247 -16 2419 0 2700 -7 2465 75 2550 67 69 153 89 253
60z m3303 -490 c30 -31 75 -73 101 -93 27 -20 48 -42 48 -50 0 -21 -254 -270
-346 -339 -224 -169 -453 -291 -723 -384 -152 -53 -264 -82 -401 -104 -25 -4
-53 -9 -62 -10 -19 -4 -112 -13 -201 -20 -66 -5 -81 -12 -122 -55 l-30 -31 -5
-215 c-4 -176 -8 -216 -20 -224 -23 -15 -25 -13 -62 33 -126 155 -203 328
-233 522 -18 119 -21 146 -15 150 4 2 86 5 183 5 192 2 267 14 378 59 127 53
209 119 341 276 92 110 151 166 260 248 138 104 374 214 528 246 93 19 103 21
155 27 28 4 51 7 53 9 1 1 28 3 61 4 l58 2 54 -56z m1339 40 c215 -41 403
-116 570 -228 111 -74 227 -174 316 -274 102 -114 177 -187 228 -222 83 -57
194 -103 281 -117 22 -3 47 -8 55 -9 8 -2 104 -4 213 -4 l197 -1 -4 -27 c-3
-16 -8 -50 -12 -78 -3 -27 -8 -59 -10 -70 -2 -11 -6 -32 -9 -46 -22 -118 -99
-293 -174 -392 -81 -107 -85 -111 -108 -98 -21 10 -22 18 -23 211 0 110 -5
211 -10 223 -24 58 -72 88 -147 92 -98 6 -184 16 -268 31 -44 9 -93 18 -110
21 -69 12 -278 77 -385 120 -240 95 -454 217 -638 362 -106 84 -256 229 -308
297 l-28 36 29 21 c17 12 64 54 105 95 l75 73 70 -6 c39 -3 81 -7 95 -10z
m3047 -140 l26 -17 -6 -137 c-3 -75 -9 -149 -12 -166 -18 -90 -73 -265 -83
-265 -4 0 -29 7 -57 15 -51 16 -75 21 -135 31 -19 3 -46 7 -60 10 -14 2 -78 4
-142 4 -114 1 -120 2 -168 32 -42 26 -50 36 -51 62 0 17 -2 38 -3 46 -4 16
-11 79 -22 171 l-6 56 113 56 c115 56 227 91 329 103 30 3 56 7 57 8 1 1 46 3
98 5 77 2 102 -1 122 -14z m-8987 -117 c62 -43 71 -75 68 -233 -3 -128 -5
-143 -26 -173 -30 -41 -70 -62 -122 -62 -52 0 -92 21 -122 62 -21 30 -23 45
-26 173 -3 119 0 145 15 175 40 77 143 105 213 58z m5170 -42 c19 1 51 3 72 5
34 3 39 0 84 -61 73 -99 306 -326 426 -415 274 -205 590 -364 913 -459 66 -19
131 -37 145 -40 14 -3 36 -7 50 -11 32 -7 67 -14 105 -20 17 -3 37 -8 45 -10
8 -2 42 -7 75 -11 33 -3 63 -9 67 -12 4 -4 8 -61 9 -127 4 -171 33 -251 119
-329 88 -79 221 -105 330 -64 68 26 172 127 249 243 l54 80 -7 -150 c-3 -82
-8 -159 -10 -170 -2 -11 -7 -45 -10 -76 -4 -31 -8 -65 -10 -75 -2 -11 -9 -52
-16 -92 -14 -78 -16 -81 -58 -88 -185 -32 -341 -187 -369 -368 -12 -71 -7
-328 6 -380 7 -27 21 -67 31 -89 23 -47 25 -41 -71 -182 -345 -509 -878 -902
-1462 -1079 -107 -32 -265 -70 -345 -82 -20 -3 -48 -7 -62 -10 -161 -27 -572
-26 -745 1 -55 9 -90 15 -115 20 -14 3 -38 8 -55 10 -79 14 -273 71 -393 116
-532 199 -998 573 -1325 1063 l-66 98 19 39 c38 73 48 148 45 321 -3 188 -13
233 -76 327 -46 69 -100 117 -174 154 -46 23 -67 29 -134 42 -13 2 -26 6 -28
9 -5 5 -20 69 -29 122 -3 20 -7 46 -10 58 -2 11 -7 48 -10 81 -3 33 -7 71 -9
84 -2 13 -7 85 -11 160 l-6 136 51 -76 c77 -115 163 -203 229 -236 48 -24 69
-28 137 -27 66 0 90 5 136 27 88 43 173 147 186 231 3 17 7 38 8 46 2 8 4 65
4 126 1 81 4 111 14 111 13 0 94 11 140 18 80 14 95 17 127 25 19 5 50 12 67
15 46 7 243 68 338 103 464 173 879 462 1141 797 l63 82 43 -6 c24 -3 59 -6
78 -5z m-2994 -593 c-3 -16 -8 -44 -11 -63 -3 -19 -8 -42 -10 -50 -2 -8 -6
-37 -10 -65 -3 -27 -8 -66 -10 -85 -26 -187 -26 -648 -1 -775 2 -11 7 -45 10
-75 4 -30 15 -98 26 -150 l18 -95 -36 -37 c-20 -21 -41 -38 -47 -38 -7 0 -39
25 -73 55 -167 152 -264 407 -257 680 5 162 25 252 90 390 66 141 156 247 265
314 46 27 53 27 46 -6z m6043 -14 c153 -102 275 -306 315 -527 14 -75 15 -307
2 -362 -3 -14 -8 -34 -10 -45 -22 -107 -75 -228 -142 -321 -41 -58 -147 -164
-164 -164 -4 0 -26 16 -47 36 l-40 36 13 65 c15 71 20 95 30 168 3 28 8 58 10
68 26 144 26 680 0 812 -2 11 -7 43 -10 70 -6 47 -20 130 -32 183 -6 31 5 28
75 -19z m689 -145 c162 -74 402 -268 402 -324 0 -31 -115 -145 -222 -221 -67
-46 -217 -129 -235 -129 -5 0 -8 62 -9 138 0 197 -34 346 -115 519 -22 45 -39
84 -39 87 0 10 147 -36 218 -70z m-8908 -606 c62 -43 71 -75 68 -233 -3 -128
-5 -143 -26 -173 -30 -41 -70 -62 -122 -62 -52 0 -92 21 -122 62 -21 30 -23
45 -26 173 -3 119 0 145 15 175 40 77 143 105 213 58z m8918 -380 c16 -20 62
-174 76 -257 7 -42 14 -126 15 -187 3 -150 4 -149 -166 -141 -71 3 -139 8
-153 12 -14 3 -41 8 -60 11 -19 3 -70 17 -113 31 l-77 26 74 73 c89 88 164
194 222 319 23 50 49 92 56 93 19 1 50 9 78 21 33 13 36 13 48 -1z m-6987
-534 l66 -45 1 -131 c0 -71 6 -153 12 -181 49 -209 255 -361 465 -343 38 3 82
8 96 12 23 5 31 -3 92 -93 36 -54 104 -145 151 -203 l85 -105 -67 -60 c-85
-75 -263 -252 -329 -327 l-51 -58 -66 93 c-164 231 -408 504 -550 612 l-65 50
0 459 -1 458 48 -46 c26 -26 77 -67 113 -92z m585 75 c69 -33 82 -71 80 -239
-1 -151 -6 -167 -70 -214 -62 -47 -174 -18 -212 56 -19 37 -22 276 -4 323 33
86 119 117 206 74z m5409 11 c42 -14 81 -56 92 -100 11 -42 10 -241 -1 -287
-10 -41 -65 -90 -112 -99 -75 -14 -153 34 -171 106 -5 19 -9 89 -8 156 1 101
4 125 21 154 38 66 108 93 179 70z m502 -369 c49 -16 105 -32 124 -35 38 -6
81 -14 119 -22 14 -3 77 -7 140 -10 l115 -6 97 -97 c191 -194 276 -382 283
-631 4 -126 -5 -199 -36 -305 -38 -126 -123 -273 -213 -366 -86 -89 -129 -195
-128 -314 1 -71 18 -137 66 -251 136 -324 70 -706 -169 -972 -79 -87 -78 -87
-105 36 -29 140 -98 378 -150 519 l-41 112 30 69 c80 182 67 244 -112 557
-199 347 -519 736 -824 1004 l-73 64 29 36 c15 20 54 76 87 124 56 86 59 88
89 81 61 -14 184 -13 237 2 184 54 319 217 330 397 1 20 5 37 9 37 4 0 47 -13
96 -29z m-1001 -939 c187 -168 422 -420 416 -448 -1 -7 -28 -67 -58 -131 -31
-65 -69 -145 -84 -178 -15 -33 -51 -109 -80 -170 -100 -212 -110 -236 -110
-271 0 -46 33 -106 70 -128 60 -35 146 -21 191 30 17 19 269 549 269 565 0 47
113 -123 228 -344 46 -88 47 -75 -17 -210 -21 -45 -55 -116 -74 -157 -19 -41
-53 -114 -76 -162 -22 -49 -59 -126 -81 -173 -22 -47 -58 -123 -80 -170 -22
-47 -59 -124 -81 -172 -23 -49 -56 -119 -74 -158 -18 -38 -58 -124 -90 -190
-31 -66 -73 -155 -92 -197 l-36 -78 -235 0 c-183 0 -233 3 -229 12 5 11 341
725 385 818 40 84 12 179 -64 215 -76 36 -164 2 -202 -77 -86 -182 -139 -293
-168 -355 -19 -40 -49 -106 -68 -145 -19 -40 -59 -127 -91 -193 -31 -66 -73
-155 -92 -197 l-36 -78 -515 0 -514 0 14 23 c74 114 127 247 144 360 3 21 7
46 9 55 2 9 4 36 4 59 l1 43 112 56 c506 254 855 634 1041 1134 39 104 86 280
103 379 3 18 7 42 9 53 3 11 7 46 10 77 4 31 8 67 11 81 2 14 7 95 10 180 l6
155 71 72 c43 44 75 69 83 65 6 -4 34 -27 60 -50z m-6724 -903 c51 -102 148
-177 254 -196 78 -14 512 -9 559 7 105 34 176 95 223 189 l27 56 5 444 5 444
78 -83 c441 -468 823 -1212 893 -1735 3 -27 8 -59 10 -70 10 -46 12 -275 3
-340 -24 -171 -92 -357 -183 -498 l-37 -57 -1319 0 -1319 0 -37 57 c-90 141
-153 306 -178 469 -13 83 -14 309 -2 374 3 14 7 43 10 65 78 540 451 1265 893
1735 l78 83 5 -444 5 -444 27 -56z m2412 669 c7 -148 9 -172 32 -327 17 -115
21 -135 28 -159 3 -9 7 -28 10 -42 2 -14 16 -65 30 -114 92 -311 246 -582 463
-816 21 -23 31 -41 27 -53 -3 -10 -36 -82 -73 -160 -37 -78 -141 -298 -231
-489 l-163 -348 -170 0 c-131 0 -168 3 -164 13 3 6 24 53 46 104 84 192 120
369 119 598 -1 402 -131 848 -390 1339 l-58 108 42 52 c109 131 431 447 443
434 2 -2 6 -64 9 -140z m366 -310 c283 -481 653 -820 1080 -988 47 -18 86 -34
88 -36 2 -1 -21 -34 -50 -73 -49 -65 -102 -157 -128 -225 l-10 -28 -88 48
c-296 160 -543 391 -695 649 -103 176 -194 422 -224 610 -3 17 -8 49 -13 73
-4 23 -6 42 -5 42 2 0 22 -33 45 -72z m3404 45 c-48 -285 -136 -537 -257 -728
-160 -255 -424 -492 -704 -634 l-59 -29 -46 96 c-26 54 -70 125 -99 160 -28
35 -49 65 -47 66 1 1 41 17 88 35 416 161 807 516 1072 974 28 48 52 87 54 87
1 0 1 -12 -2 -27z m-451 -125 c-270 -357 -594 -591 -946 -682 -132 -35 -148
-37 -292 -41 -194 -6 -336 20 -520 92 -220 87 -407 215 -591 405 -89 92 -196
219 -190 225 2 2 52 -17 112 -43 157 -67 399 -144 529 -169 35 -6 71 -13 102
-19 11 -3 43 -8 70 -12 26 -3 57 -8 68 -10 68 -13 196 -19 380 -19 255 0 340
7 545 45 140 26 138 26 190 40 25 7 52 13 60 15 47 9 302 101 386 139 116 52
109 49 97 34z m-1109 -1066 c115 -54 207 -166 256 -312 29 -85 36 -247 14
-340 -42 -181 -163 -327 -314 -378 -193 -66 -399 34 -501 243 -51 105 -68 185
-64 304 5 158 63 298 166 400 89 87 173 121 295 117 66 -2 92 -8 148 -34z
m3081 -317 c18 -77 36 -156 39 -175 3 -19 8 -45 10 -56 6 -30 14 -81 21 -139
4 -27 8 -61 10 -74 2 -12 7 -60 11 -105 3 -44 7 -95 9 -113 1 -17 -4 -41 -12
-52 -14 -20 -23 -21 -304 -21 -160 0 -289 4 -287 9 2 4 102 218 223 475 l220
466 13 -37 c7 -21 28 -101 47 -178z m-4117 -133 c99 -51 122 -67 123 -85 0
-24 7 -87 13 -127 15 -98 84 -277 135 -349 12 -16 21 -32 21 -35 0 -3 -227 -6
-505 -6 -278 0 -505 1 -505 3 0 2 14 32 31 68 17 35 44 91 59 124 15 33 51
110 80 170 29 61 65 137 80 170 15 33 51 108 78 167 l51 107 108 -73 c59 -39
163 -100 231 -134z M5778 8625 c-2 -2 -22 -5 -45 -9 -83 -11 -159 -56 -269
-159 -86 -80 -149 -170 -187 -265 -27 -68 -30 -89 -31 -182 0 -82 5 -118 22
-167 35 -99 90 -183 176 -268 135 -134 231 -185 347 -185 120 0 211 50 354
194 135 136 193 263 193 421 0 196 -103 372 -311 530 -41 31 -157 91 -157 81
0 -1 -20 0 -45 4 -25 4 -46 6 -47 5z m144 -396 c135 -131 153 -246 59 -382
-40 -59 -157 -157 -186 -157 -49 0 -187 128 -227 209 -31 65 -31 150 2 216 27
57 140 173 191 197 31 15 35 15 63 0 16 -9 60 -47 98 -83z M5724 5806 c-17 -8
-43 -30 -58 -49 -104 -136 57 -317 204 -231 55 32 75 68 75 134 0 63 -16 95
-67 133 -34 25 -113 32 -154 13z M4494 5024 c-47 -16 -90 -64 -99 -110 -10
-58 -3 -297 10 -329 47 -110 202 -116 265 -12 18 28 20 51 20 190 0 168 -5
190 -52 234 -33 32 -96 43 -144 27z M6996 5025 c-47 -16 -75 -41 -92 -82 -19
-45 -19 -311 0 -356 51 -121 221 -121 272 0 22 51 19 318 -4 362 -33 67 -109
99 -176 76z M5390 4781 c-49 -26 -84 -96 -75 -150 17 -101 183 -226 356 -267
13 -3 60 -7 104 -9 152 -5 313 57 424 164 47 45 60 65 66 98 9 59 -1 98 -39
137 -60 64 -146 61 -223 -8 -78 -70 -126 -90 -213 -90 -86 0 -134 20 -204 84
-68 63 -131 76 -196 41z M941 1484 c-93 -33 -161 -93 -208 -184 -28 -55 -28
-56 -28 -250 l0 -195 30 -58 c33 -67 106 -137 174 -170 l46 -22 895 0 895 0
57 29 c69 35 128 94 165 166 28 55 28 56 28 250 0 195 0 195 -29 252 -35 69
-94 128 -166 165 l-55 28 -880 2 c-776 2 -885 0 -924 -13z m1741 -301 c15 -14
18 -32 18 -131 0 -93 -3 -119 -17 -134 -15 -17 -54 -18 -831 -18 -745 0 -817
1 -834 17 -15 14 -18 32 -18 131 0 93 3 119 17 134 15 17 54 18 831 18 745 0
817 -1 834 -17z"/>
</g>
</svg>
