<svg viewBox="0 0 512 512" xmlns="http://www.w3.org/2000/svg" data-name="Layer 1"><path fill="currentColor" d="m485.521 165.2-196.936 4.087a13.008 13.008 0 0 0 -7.941-5.12l-11.193-2.278a13.094 13.094 0 0 0 -14.427 7.351l-5.792.261a12.989 12.989 0 0 0 -15.838-10.748l-11.12 2.612a13.069 13.069 0 0 0 -9.274 8.341l-163.432-19.414a13.038 13.038 0 0 0 -14.3 10.365 69.4 69.4 0 0 0 -1.124 8.453h-7.45a11.666 11.666 0 0 0 -9.138 4.381 11.537 11.537 0 0 0 -2.288 9.757c1.295 5.861 1.265 16.129-1.723 25.856-3.73 12.139-2.665 23.282-1.19 38.7.179 1.866.364 3.8.548 5.817 1.01 11.056 2.3 31.776-.42 46.335-2.384 12.775-.878 21.753.8 27.034a11.619 11.619 0 0 0 11.117 8.11q.456 0 .916-.036l92.406-7.077c34.859 2.555 70.371 4.976 83.054 5.834a6.582 6.582 0 0 0 4.342 2.491l22.276 3a6.51 6.51 0 0 0 .878.06 6.7 6.7 0 0 0 6.286-4.438l.023-.066 2.913.085a11.361 11.361 0 0 0 8.168 6.079l12.1 2.166a11.365 11.365 0 0 0 12.557-6.9l194.04 25.462a4.92 4.92 0 0 0 .651.043 5 5 0 0 0 2.618-.74c10.038-6.172 12.361-30.958 10.843-43.1-.78-6.23 1.436-11.945 4-18.563 1.991-5.136 4.05-10.448 5.01-16.682.938-6.091-.89-10.882-2.5-15.109-2.695-7.065-5.241-13.738 3.952-29.355 5.209-8.848 7.136-15.427 7.18-20.838 7.987-14.285 4.453-33.122 1.559-43.265a12.342 12.342 0 0 0 -12.151-8.951zm-218.065 6.487 11.193 2.279a3.014 3.014 0 0 1 2.235 3.984c-.029.077-.055.156-.08.235l-17.914 58.02a31.736 31.736 0 0 0 -7.626 4.34l-2.376-28.2 11.061-38.535a3.036 3.036 0 0 1 3.507-2.119zm8.7 72.808a3.571 3.571 0 0 1 3.176 2.867 7.306 7.306 0 0 1 -2.775 7.355c-4.316 3.291-13.617 4.026-21.715 3.691-.133-.016-.266-.011-.4-.016-.521-.023-1.038-.051-1.546-.084a40.707 40.707 0 0 1 3.917-5.539c5.608-6.605 12.116-9.385 19.345-8.269zm-51.6-73.395 11.121-2.613a3.019 3.019 0 0 1 3.7 2.692l6.673 79.184a50.211 50.211 0 0 0 -3.6 6.088 23.578 23.578 0 0 1 -3.626-3.547 32.13 32.13 0 0 0 -5.676-5.316l-10.883-73.1a3.028 3.028 0 0 1 2.296-3.388zm10.71 92.421c-4.42 2.853-7.926 4.014-11.758 2.019-2.393-1.244-5.225-3.232-5.122-5.63.095-2.2 2.333-4.524 3.35-5.022 4.495-.8 6.223.882 9.642 4.694a40.337 40.337 0 0 0 3.893 3.943zm-210.717 61.579a1.666 1.666 0 0 1 -1.733-1.14c-1.335-4.187-2.5-11.432-.5-22.161 2.94-15.746 1.605-37.51.549-49.081q-.279-3.043-.552-5.86c-1.415-14.8-2.351-24.579.794-34.813 3.764-12.254 3.391-24.332 1.928-30.951a1.546 1.546 0 0 1 .321-1.337 1.7 1.7 0 0 1 1.341-.643h7.535a53.835 53.835 0 0 0 3.17 14.165c6.235 16.617-3.045 44.078-3.139 44.35-.026.076-.051.153-.073.23-1.852 6.362-7.578 27.744-3.539 35.835 1.809 3.625.257 10.968-1.142 14.738a5.029 5.029 0 0 0 -.192.634c-1.531 6.637-5.565 28.553 6.84 31.858 1.654.441 7.927 1.133 17.142 1.974zm176.669-1.265c-63.166-4.272-156.057-10.965-162.413-12.535-2-1.623-1.528-12.015.188-19.7.886-2.48 4.687-14.194.6-22.376-1.381-2.766.563-16.05 4.161-28.467.825-2.436 10.345-31.437 3-51-3.8-10.142-3.012-20.377-1.677-27.177a3.007 3.007 0 0 1 3.305-2.363l164.554 19.547 9.675 64.982a22.458 22.458 0 0 0 -2.927.35c-4.5.852-10.187 6.4-11.157 12.986-.507 3.444-.056 9.664 7.741 14.8-6.468 3.3-12.648 7.4-17.514 14.068-10.493 14.368-17.2 15.724-18.832 15.061a5 5 0 0 0 -5.846 8.1 11.037 11.037 0 0 0 6.688 2.006 14.914 14.914 0 0 0 2.044-.144c7.426-1.035 15.508-7.47 24.022-19.129a34.244 34.244 0 0 1 10.841-9.346zm24.812 5.21-15.3-2.06 19.535-47.862 3.325 28.472zm34.749 3.913a1.376 1.376 0 0 1 -1.258.4l-12.1-2.166a1.375 1.375 0 0 1 -1.133-1.1l-6.714-57.492c2.441-1.46 4.692-3.122 6.72-4.625l.295-.218c.919.115 2.084.244 3.422.363l11.11 63.436c.008.048.017.095.027.142a1.367 1.367 0 0 1 -.369 1.256zm219.531-99.78c-11.632 19.76-7.776 29.869-4.677 37.992 1.4 3.657 2.5 6.546 1.962 10.022-.794 5.158-2.653 9.953-4.45 14.59-2.8 7.219-5.692 14.685-4.6 23.419 1.48 11.831-1.631 27.8-5.126 32.348l-193.082-25.336-8.358-47.723c5.462 6.735 10.394 14.989 9.8 21.959-.627 7.294 1.16 13.286 5.311 17.81 7.031 7.661 18.236 7.749 18.709 7.749a5 5 0 0 0 .025-10c-.073 0-7.384-.127-11.4-4.548-2.184-2.4-3.061-5.727-2.681-10.155.733-8.524-3.23-18.222-11.779-28.825-1.259-1.561-2.52-3.016-3.736-4.355 6.047-.637 12.113-2.183 16.4-5.451a17.329 17.329 0 0 0 6.4-17.773 13.514 13.514 0 0 0 -11.34-10.285 30.11 30.11 0 0 0 -3.736-.336l13.259-42.937 191.44 11.483a2.765 2.765 0 0 1 2.3 1.531c.594 1.195 1.242 2.309 1.867 3.387 3.318 5.721 6.187 10.662-2.508 25.434zm10.4-31.766c-.29-.514-.566-1.017-.812-1.512a12.785 12.785 0 0 0 -10.65-7.056l-189-11.338.081-.261a13.016 13.016 0 0 0 .511-2l194.89-4.045a2.33 2.33 0 0 1 2.321 1.689c1.407 4.931 3.728 14.973 2.658 24.523z"/><path fill="currentColor" d="m454.045 241.062a5 5 0 0 0 .461-9.979l-160.684-15.062a5 5 0 1 0 -.933 9.957l160.683 15.062c.159.015.317.022.473.022z"/><path fill="currentColor" d="m74.763 202.746 129.028 14.435a5.067 5.067 0 0 0 .562.031 5 5 0 0 0 .549-9.969l-129.028-14.434a5 5 0 1 0 -1.111 9.937z"/><path fill="currentColor" d="m454.55 259.318-146.557-15.062a5 5 0 0 0 -1.023 9.947l146.558 15.063c.174.017.346.026.517.026a5 5 0 0 0 .5-9.974z"/><path fill="currentColor" d="m74.721 230.973 119.947 14.434a4.932 4.932 0 0 0 .6.037 5 5 0 0 0 .591-9.965l-119.943-14.434a5 5 0 1 0 -1.195 9.928z"/><path fill="currentColor" d="m454.045 299.539a5 5 0 0 0 .476-9.977l-155.639-15.062a5 5 0 0 0 -.963 9.953l155.639 15.063c.163.015.326.023.487.023z"/><path fill="currentColor" d="m186.652 261.679-110.866-10.4a5 5 0 0 0 -.935 9.957l110.866 10.4c.159.014.317.021.473.021a5 5 0 0 0 .462-9.978z"/><path fill="currentColor" d="m454.5 319.808-140.5-13.046a5 5 0 1 0 -.925 9.957l140.5 13.046q.236.021.468.021a5 5 0 0 0 .456-9.978z"/><path fill="currentColor" d="m163.4 288.9-87.659-7.376a5 5 0 1 0 -.839 9.964l87.66 7.377c.143.012.284.018.424.018a5 5 0 0 0 .414-9.983z"/></svg>