<svg xmlns="http://www.w3.org/2000/svg" viewBox="0 0 1024 1024">
<g transform="translate(0,1024) scale(0.1,-0.1)">
<path fill="currentColor" d="M1073 10226 c-66 -21 -111 -54 -152 -110 -21 -28 -194 -295 -385
-592 -319 -498 -351 -544 -395 -572 -57 -35 -96 -83 -122 -152 -19 -49 -19
-117 -17 -3693 l3 -3642 23 -47 c28 -56 73 -106 124 -137 30 -18 104 -127 409
-602 405 -631 407 -633 517 -665 93 -27 193 -6 271 56 27 20 150 203 410 609
345 538 375 582 422 612 27 17 63 51 80 75 59 85 58 82 59 596 0 259 2 473 3
475 2 1 196 3 433 4 398 0 433 2 480 20 63 24 128 79 155 130 10 21 22 39 25
39 4 0 68 -38 144 -84 75 -46 155 -89 176 -95 27 -8 291 -10 844 -8 l805 2
285 123 c157 67 290 122 296 122 5 0 22 -25 37 -55 35 -72 89 -131 151 -163
l51 -27 854 -3 c470 -1 856 -4 858 -5 1 -2 3 -221 5 -487 3 -484 3 -485 26
-532 28 -56 73 -106 124 -137 30 -18 104 -127 409 -602 405 -631 407 -633 517
-665 93 -27 193 -6 271 56 27 20 150 203 410 608 349 546 374 581 424 615 61
40 111 110 126 177 7 31 11 1205 11 3656 0 3971 5 3663 -61 3753 -16 24 -52
56 -79 73 -45 28 -75 71 -406 587 -196 306 -371 574 -389 596 -107 133 -342
134 -448 2 -19 -23 -195 -293 -392 -599 -319 -498 -362 -560 -400 -583 -68
-39 -125 -120 -139 -196 -3 -13 -5 -234 -5 -491 l-1 -468 -1787 0 -1788 0 -55
-24 c-30 -12 -154 -77 -275 -143 l-220 -121 -42 81 c-48 93 -95 144 -161 178
l-47 24 -612 3 -613 3 -1 467 c0 257 -2 478 -5 491 -14 76 -71 157 -139 196
-38 23 -81 85 -400 583 -197 306 -372 575 -390 597 -66 81 -212 124 -312 91z
m217 -1044 c60 -95 110 -175 110 -177 0 -3 -108 -5 -241 -5 -144 0 -239 4
-237 9 2 5 55 91 118 190 89 139 118 177 127 168 7 -7 62 -90 123 -185z m7920
0 c60 -95 110 -175 110 -177 0 -3 -108 -5 -241 -5 -144 0 -239 4 -237 9 2 5
55 91 118 190 89 139 118 177 127 168 7 -7 62 -90 123 -185z m-7490 -1082 l0
-300 -560 0 -560 0 0 300 0 300 560 0 560 0 0 -300z m7920 0 l0 -300 -560 0
-560 0 0 300 0 300 560 0 560 0 0 -300z m-7920 -2980 l0 -2080 -560 0 -560 0
0 2080 0 2080 560 0 560 0 0 -2080z m1625 1949 c36 -72 84 -150 106 -174 76
-82 209 -114 312 -75 27 10 199 100 382 199 l333 181 1721 0 1721 0 0 -2080 0
-2080 -726 3 -726 2 -52 99 c-69 130 -105 172 -179 207 -53 25 -70 28 -136 25
-73 -3 -90 -9 -465 -169 l-390 -167 -672 0 -673 0 -282 175 c-155 97 -304 183
-331 192 -107 35 -242 -5 -314 -92 -42 -52 -59 -92 -74 -175 -6 -36 -13 -73
-16 -83 -5 -17 -22 -18 -282 -15 l-277 4 -3 2077 -2 2077 480 0 480 0 65 -131z
m6295 -1949 l0 -2080 -560 0 -560 0 0 2080 0 2080 560 0 560 0 0 -2080z
m-7920 -2980 l0 -300 -560 0 -560 0 0 300 0 300 560 0 560 0 0 -300z m7920 0
l0 -300 -560 0 -560 0 0 300 0 300 560 0 560 0 0 -300z m-8240 -905 c0 -5
-163 -261 -212 -333 l-30 -43 -119 186 c-65 102 -119 187 -119 190 0 3 108 5
240 5 132 0 240 -2 240 -5z m7920 0 c0 -5 -163 -261 -212 -333 l-30 -43 -119
186 c-65 102 -119 187 -119 190 0 3 108 5 240 5 132 0 240 -2 240 -5z M3129
6126 c-126 -45 -201 -144 -205 -271 -4 -127 57 -229 171 -285 l50 -25 725 0
c800 0 763 -3 849 65 170 134 136 404 -62 499 l-62 30 -715 0 c-561 0 -723 -3
-751 -13z M5629 6126 c-126 -45 -201 -144 -205 -271 -4 -127 57 -229 171 -285
l50 -25 712 -2 c683 -3 715 -2 763 16 74 28 134 82 167 149 24 48 28 69 28
137 0 69 -5 87 -29 132 -38 68 -79 107 -148 137 l-57 25 -708 0 c-555 0 -716
-3 -744 -13z M3129 4926 c-126 -45 -201 -144 -205 -271 -4 -127 57 -229 171
-285 l50 -25 1162 -2 c1127 -3 1164 -2 1213 16 74 28 134 82 167 149 24 48 28
69 28 137 0 69 -5 87 -29 132 -38 68 -79 107 -148 137 l-58 26 -1157 -1 c-923
0 -1165 -2 -1194 -13z M6529 4926 c-126 -45 -200 -143 -205 -271 -5 -125 58
-230 171 -285 49 -24 57 -25 313 -27 238 -3 267 -1 313 16 73 28 133 82 166
149 24 48 28 69 28 137 0 69 -5 87 -29 132 -37 68 -79 107 -147 137 -56 24
-62 25 -315 25 -189 0 -269 -3 -295 -13z"/>
</g>
</svg>
