<svg viewBox="0 0 64 64" xmlns="http://www.w3.org/2000/svg" data-name="Layer 1"><path fill="currentColor" d="m35.033 2h-6.048c-.553 0-1 .447-1 1v3.468h-4.161c-.553 0-1 .447-1 1v48.694c0 .553.447 1 1 1h4.161v3.838c0 .553.447 1 1 1h6.048c.553 0 1-.447 1-1v-3.838h4.139c.553 0 1-.447 1-1v-7.066c0-.007.004-.013.004-.019v-34.523c0-.007-.004-.013-.004-.019v-7.067c0-.553-.447-1-1-1h-4.139v-3.468c0-.553-.447-1-1-1zm-5.048 2h4.048v2.468h-4.048zm4.048 56h-4.048v-2.838h4.048zm1-4.838h-10.209v-5.085h14.348v5.085zm4.139-7.085h-14.341v-32.523h14.341zm0-34.523h-14.348v-5.086h14.348z"/><path fill="currentColor" d="m37.032 22.064c.553 0 1-.447 1-1v-.483c0-.553-.447-1-1-1s-1 .447-1 1v.483c0 .553.447 1 1 1z"/><path fill="currentColor" d="m37.032 44.419c.553 0 1-.447 1-1v-17.902c0-.553-.447-1-1-1s-1 .447-1 1v17.902c0 .553.447 1 1 1z"/></svg>