<svg xmlns="http://www.w3.org/2000/svg" x="0px" y="0px"
	 viewBox="0 0 512 512" style="enable-background:new 0 0 512 512;">
<g>
	<g>
		<rect x="150" y="181"/>
	</g>
</g>
<g>
	<g>
		<rect x="150" y="241"/>
	</g>
</g>
<g>
	<g>
		<rect x="150" y="301"/>
	</g>
</g>
<g>
	<g>
		<path fill="currentColor" d="M512,30V0H392v30h45v30h-45v30H203.787L180,113.787L156.213,90H120V60H75V30h45V0H0v30h45v30H0v392h45v30H0v30h120v-30H75
			v-30h45v-30h188.213L332,398.213L355.787,422H392v30h45v30h-45v30h120v-30h-45v-30h45V60h-45V30H512z M90,422H30V90h60V422z
			 M392,392h-23.787L332,355.787L295.787,392H120V120h23.787L180,156.213L216.213,120H392V392z M482,90v332h-60V90H482z"/>
	</g>
</g>
<g>
</g>
<g>
</g>
<g>
</g>
<g>
</g>
<g>
</g>
<g>
</g>
<g>
</g>
<g>
</g>
<g>
</g>
<g>
</g>
<g>
</g>
<g>
</g>
<g>
</g>
<g>
</g>
<g>
</g>
</svg>