<svg xmlns="http://www.w3.org/2000/svg" viewBox="0 0 1024 1024">
<g transform="translate(0,1024) scale(0.1,-0.1)">
<path fill="currentColor" d="M1219 10236 c-2 -2 -25 -7 -51 -10 -128 -17 -300 -95 -416 -189 -157
-127 -292 -357 -317 -540 -3 -23 -8 -51 -10 -62 -2 -11 -4 -59 -4 -107 l-1
-88 -210 0 -210 0 0 -300 0 -300 210 0 210 0 1 -87 c0 -49 2 -97 4 -108 2 -11
7 -39 10 -62 7 -56 49 -182 81 -246 108 -213 296 -374 526 -451 98 -33 153
-41 283 -40 116 0 166 6 243 29 26 8 48 15 50 15 1 0 2 -197 2 -437 l0 -438
162 -162 163 -163 -163 -163 -162 -162 0 -1808 c0 -994 -1 -1807 -2 -1807 -2
0 -25 7 -52 15 -26 8 -69 18 -95 22 -60 10 -243 10 -303 0 -136 -22 -302 -98
-416 -190 -157 -127 -292 -357 -317 -540 -3 -23 -8 -51 -10 -62 -2 -11 -4 -59
-4 -107 l-1 -88 -210 0 -210 0 0 -300 0 -300 210 0 210 0 1 -87 c0 -49 2 -97
4 -108 2 -11 7 -39 10 -62 7 -56 49 -182 81 -246 126 -249 384 -441 649 -484
63 -10 255 -10 315 1 63 11 181 51 248 85 112 57 273 194 319 272 l17 29 3056
0 3056 0 16 -27 c49 -82 208 -217 319 -273 72 -37 187 -76 254 -87 63 -10 255
-10 315 1 219 37 453 188 578 374 73 107 133 252 147 352 3 25 8 54 10 65 2
11 4 59 4 108 l1 87 210 0 210 0 0 300 0 300 -210 0 -210 0 -1 88 c0 48 -2 96
-4 107 -2 11 -7 40 -10 65 -3 25 -17 78 -31 118 -92 276 -300 484 -574 576
-99 33 -154 41 -280 41 -114 0 -171 -7 -246 -30 -27 -8 -50 -15 -51 -15 -2 0
-3 197 -3 437 l0 438 -162 162 -163 163 163 163 162 162 0 1808 c0 994 1 1807
3 1807 1 0 24 -7 51 -15 77 -23 133 -30 251 -29 129 0 174 7 273 40 230 77
418 238 525 451 34 67 74 186 82 243 3 25 8 54 10 65 2 11 4 59 4 108 l1 87
210 0 210 0 0 300 0 300 -210 0 -210 0 -1 88 c0 48 -2 96 -4 107 -2 11 -7 40
-10 65 -8 59 -48 176 -85 249 -53 106 -149 221 -250 303 -94 76 -274 155 -395
175 -63 10 -245 10 -307 0 -201 -32 -417 -159 -538 -316 l-55 -70 -3055 0
-3055 -1 -23 33 c-30 46 -117 136 -172 179 -89 71 -266 151 -380 173 -41 8
-265 17 -271 11z m234 -630 c66 -32 120 -92 148 -165 18 -48 19 -78 16 -514
-2 -446 -3 -464 -23 -508 -31 -66 -78 -115 -142 -146 -147 -72 -327 -12 -399
135 l-28 57 -2 462 c-3 436 -2 466 16 514 65 171 251 245 414 165z m7600 0
c66 -32 120 -92 148 -165 18 -48 19 -78 16 -514 -2 -446 -3 -464 -23 -508 -31
-66 -78 -115 -142 -146 -147 -72 -327 -12 -399 135 l-28 57 -2 462 c-3 436 -2
466 16 514 65 171 251 245 414 165z m-1033 -666 l0 -300 -2900 0 -2900 0 0
300 0 300 2900 0 2900 0 0 -300z m0 -2757 l0 -1858 -287 -287 -288 -288 288
-288 287 -287 0 -488 0 -487 -2900 0 -2900 0 0 1858 0 1857 287 288 287 288
-287 287 -287 287 0 488 0 487 2900 0 2900 0 0 -1857z m-6567 -4217 c66 -32
120 -92 148 -165 18 -48 19 -78 16 -514 -2 -446 -3 -464 -23 -508 -31 -66 -78
-115 -142 -146 -147 -72 -327 -12 -399 135 l-28 57 -2 462 c-3 436 -2 466 16
514 65 171 251 245 414 165z m7600 0 c66 -32 120 -92 148 -165 18 -48 19 -78
16 -514 -2 -446 -3 -464 -23 -508 -31 -66 -78 -115 -142 -146 -147 -72 -327
-12 -399 135 l-28 57 -2 465 c-2 450 -1 467 19 519 61 161 254 234 411 157z
m-1033 -666 l0 -300 -2900 0 -2900 0 0 300 0 300 2900 0 2900 0 0 -300z M3720
6920 l0 -300 1400 0 1400 0 0 300 0 300 -1400 0 -1400 0 0 -300z M3110 5720
l0 -300 2010 0 2010 0 0 300 0 300 -2010 0 -2010 0 0 -300z M3110 4520 l0
-300 2010 0 2010 0 0 300 0 300 -2010 0 -2010 0 0 -300z M3720 3320 l0 -300
1400 0 1400 0 0 300 0 300 -1400 0 -1400 0 0 -300z"/>
</g>
</svg>
