<svg viewBox="0 0 512 512" xmlns="http://www.w3.org/2000/svg" data-name="Layer 1"><path fill="currentColor" d="m401.058 106.254c8.119-8.844 9.538-19.41 3.988-29.794a3.261 3.261 0 0 1 .605-3.8c5.429-5.447 6.638-13.085 3.4-21.506-.178-.465-.413-.99-.717-1.605a30.971 30.971 0 0 0 -2.274-3.863 23.229 23.229 0 0 0 4.02-19.249 19.766 19.766 0 0 0 -10.872-13.321 19.493 19.493 0 0 0 -16.948-.349c-7.907 3.75-11.314 10.7-12.783 15.79a29.056 29.056 0 0 0 -20.632 8.684 27.031 27.031 0 0 0 -1.845 2.082c-2.189 2.754-4.273 3.773-4.714 3.662-20.132-4.039-36.332 6-43.462 26.895-12.691-3.764-24.063-2.591-33.813 3.486-16.067 10.013-22.8 30.674-25.168 40.35-2.592-.012-5.195.035-7.81.169a147.013 147.013 0 0 0 -69.15 21.615c-46.783 28.7-68.353 86.035-53.661 142.685 13.214 50.947 20.992 96.8 23.256 122.349a22.371 22.371 0 0 0 -12.056 33.105 27.954 27.954 0 0 0 -10.175 14.055c-2.973 8.69-2.4 18.328 1.245 25.572a67.2 67.2 0 0 0 -12.877 20.555 5.987 5.987 0 0 0 8.824 7.168l.006.009c34.672-21.977 66.388-22.389 110.286-22.96 19.382-.252 41.35-.538 66.957-2.687 51.561-4.328 87.994-22.594 108.285-54.291 25.279-39.49 18.045-88.531 9.785-111.283-11.327-31.2-12.489-66.494-13.048-83.454-.044-1.351-.086-2.61-.128-3.767 14.184-11.167 22.118-23.806 23.566-37.647 1.658-15.847-5.751-28.785-10.28-35.053 9.748-13.977 9.173-29.946-1.81-43.602zm-13.652-82.649a7.694 7.694 0 0 1 6.554.3 7.961 7.961 0 0 1 4.418 5.173 12.023 12.023 0 0 1 -1.026 8.062 32.447 32.447 0 0 0 -8.1-3.9l-7.889-2.51a12.164 12.164 0 0 1 6.043-7.125zm-31.013 23.188a15.27 15.27 0 0 1 1.028-1.158 17.806 17.806 0 0 1 18.03-4.193l10.164 3.235a20.161 20.161 0 0 1 11.961 10.178c.121.245.217.445.276.6 2.226 5.8.175 7.854-.7 8.731a15.093 15.093 0 0 0 -1.458 1.711c-8.8-7.015-17.473-7.258-21.821-7.377a34.029 34.029 0 0 1 -15.915-4.287 26.956 26.956 0 0 1 -5.131-3.719 28.378 28.378 0 0 0 3.566-3.721zm-46.413 27.568c3.585-10.969 11.689-23.281 29.945-19.61.287.057.566.082.848.118a34.325 34.325 0 0 0 11.236 9.785 46.063 46.063 0 0 0 21.538 5.861c6.418.174 13.858 1.258 21.034 11.839 3.02 5.825 2.214 10.909-2.539 15.974-.186.2-.357.407-.526.615-7.318-3.82-19.663-7.823-39.681-8.379-18.194-.5-34.191-9.273-42.463-14.746a10.923 10.923 0 0 0 .608-1.457zm-38.59 9.17c6.934-4.309 14.983-4.954 24.609-1.97a11.092 11.092 0 0 0 1.149.288c5.829 4.533 27.579 19.967 54.354 20.711 31.185.866 39.793 10.709 39.876 10.808a1.78 1.78 0 0 1 -.109-.141c.063.08.118.165.183.245 5.876 7.146 10.556 18.253.377 31.129-8.048 1.9-45.422 8.592-93.657-16.811a123.93 123.93 0 0 0 -46.072-13.463c2.376-8.653 7.974-23.765 19.29-30.796zm-142.041 335.74a10.24 10.24 0 0 1 10.074-7.812c15.968.388 27.924-2.239 36.3-5.284a116.1 116.1 0 0 1 -14.294 23.143c-3.669 1.927-11.574 3.671-23.092 2.752a9.888 9.888 0 0 1 -7.333-4.17 10.434 10.434 0 0 1 -1.655-8.629zm229.284-110.671c6.4 18.539 13.317 42.594 9.967 64.232s-16.628 37.686-40.583 49.019c-29.725 14.062-59.629 14.305-91.288 14.562-22.845.186-46.264.383-70.505 5.845a130.18 130.18 0 0 0 32.167-74.794c7.784-84.412 86.136-112.581 115.669-116.313a183.41 183.41 0 0 0 35.979-8.32c-1.321 12.954-1.468 36.621 8.594 65.769zm-237.033 142.978c.971-2.84 3.3-7.553 8.314-9.516a21.875 21.875 0 0 0 7.466 1.969c2.451.2 4.839.293 7.145.293.886 0 1.754-.019 2.614-.047q-4.087 3.563-8.527 6.747l-.256.158a130.159 130.159 0 0 0 -17.506 12.826 23.6 23.6 0 0 1 .75-12.43zm269.878-137.7c6.991 19.26 14.189 65.1-8.613 100.717-18.17 28.385-51.54 44.805-99.182 48.8-25.184 2.113-46.926 2.4-66.108 2.645-37.31.485-66.2.862-95.884 13.791a104.416 104.416 0 0 1 22.913-18.4l.058-.036c31.546-12.485 62.36-12.74 92.164-12.982 31.566-.257 64.206-.521 96.321-15.715 61.732-29.205 52.109-83.754 36.828-128.014a150.688 150.688 0 0 1 -8.548-49.975 104.55 104.55 0 0 1 1.39-16.779 143.128 143.128 0 0 0 15.026-7.449c.657 18.672 2.457 52.591 13.636 83.392zm9.723-130.1c-1.26 11.649-9.059 22.565-23.184 32.45l-.238.115a5.936 5.936 0 0 0 -.974.591c-5.961 4.436-30.56 18.061-64.249 22.317-32.193 4.068-117.605 34.833-126.115 127.117a121.464 121.464 0 0 1 -4.521 23.452c-3.59 2.459-15.49 9.268-37.493 9.661-2.327-26.146-10.22-72.751-23.591-124.3-13.358-51.506 6.061-103.526 48.322-129.443 38.544-23.639 86.992-26.513 123.426-7.326 49.226 25.926 88.055 20.883 100.373 18.249 3.392 4.639 9.559 14.954 8.243 27.107z"/><path fill="currentColor" d="m152.029 301.856a6 6 0 0 0 -11.7 2.661q.965 4.243 1.868 8.378a6 6 0 1 0 11.722-2.565q-.919-4.179-1.89-8.474z"/><path fill="currentColor" d="m175.433 155.959c-37.732 23.141-55 69.838-42.98 116.2 1.225 4.723 2.432 9.5 3.588 14.215a6 6 0 1 0 11.654-2.859c-1.168-4.761-2.388-9.6-3.626-14.368-10.691-41.219 4.434-82.6 37.637-102.958a6 6 0 1 0 -6.273-10.229z"/></svg>