<svg xmlns="http://www.w3.org/2000/svg" data-name="Layer 2" viewBox="0 0 64 64"><path fill="currentColor" d="M31,15h1a1,1,0,0,0,0-2H31a1,1,0,0,0,0,2Z"/><path fill="currentColor" d="M35,15h1a1,1,0,0,0,0-2H35a1,1,0,0,0,0,2Z"/><path fill="currentColor" d="M6,57a1,1,0,0,0-1,1v5a1,1,0,0,0,2,0V58A1,1,0,0,0,6,57Z"/><path fill="currentColor" d="M20,58v2a1,1,0,0,0,2,0V58a1,1,0,0,0-2,0Z"/><path fill="currentColor" d="M14,56v7a1,1,0,0,0,2,0V56a1,1,0,0,0-2,0Z"/><path fill="currentColor" d="M26,24a1,1,0,0,0-1,1v2a1,1,0,0,0,2,0V25A1,1,0,0,0,26,24Z"/><path fill="currentColor" d="M34,24a1,1,0,0,0-1,1v2a1,1,0,0,0,2,0V25A1,1,0,0,0,34,24Z"/><path fill="currentColor" d="M.25,29.338a1,1,0,0,0-.242.786l1,8c0,.014.01.025.012.039H1.014A11.663,11.663,0,0,0,8.592,46.58L5.105,53.553a1,1,0,0,0,1.789.895l3.781-7.562,7.973-1.595c1.287,1.846,4.927,6.313,10.254,6.721.032,0,.064,0,.1,0V58h2V51.95c3.378-.437,6.736-2.548,10.019-6.31l8.175,2.18L51,54.14V64H62a1,1,0,0,0,1-1V55a1,1,0,0,0-1-1H57V49a1,1,0,0,0-2,0v5H53a1,1,0,0,0-.038-.274l-2-7a1,1,0,0,0-.7-.691L45,44.632V32a1,1,0,0,0-2,0V44.1l-7-1.867V37.878c2.136-1.427,4-3.14,4-4.778V22.123l1.341-5.365L43,21.182V28a1,1,0,0,0,2,0V21a1,1,0,0,0-.063-.352l-3-8a.987.987,0,0,0-.2-.325A6.706,6.706,0,0,0,36,8.069V8c0-2.792-1.717-8-5-8H29c-3.314,0-4.8,5.478-4.928,8.06A7.6,7.6,0,0,0,19.74,10a7.139,7.139,0,0,0-8.8-4.729,1,1,0,0,0-.253,1.822c.021.013.048.026.075.04A4,4,0,0,1,6.6,13.959a1.012,1.012,0,0,0-.085-.058,1,1,0,0,0-1.493,1.065,7.231,7.231,0,0,0,3.295,4.728,7.1,7.1,0,0,0,3.719,1.038,7.806,7.806,0,0,0,3.739-.98l-.711,1.9A1,1,0,0,0,15,22V43.218a3.763,3.763,0,0,1-2.623-.35c-2.131-1.166-3.14-4.2-3.36-4.944l.975-7.8A1,1,0,0,0,9,29H1A1,1,0,0,0,.25,29.338ZM61,56v6H53V56ZM20,22.123V33.1c0,1.639,1.864,3.352,4,4.778v4.3l-7,1.4v-21.4l1.809-4.824ZM38.848,45.061c-3.3,3.533-6.586,5.2-9.782,4.957-3.878-.292-6.814-3.338-8.242-5.163l3.832-.767a7.508,7.508,0,0,0,4.394,2.1,6.955,6.955,0,0,0,.7.035,8.979,8.979,0,0,0,5.473-2.128ZM34,42.511A6.754,6.754,0,0,1,29.276,44.2a4.828,4.828,0,0,1-.767-.137,5.778,5.778,0,0,1-2.482-1.428L26,42.607V39.1c1.459.823,2.822,1.469,3.59,1.814a1,1,0,0,0,.82,0c.768-.345,2.13-.99,3.59-1.814ZM30,38.9c-3.938-1.827-8-4.524-8-5.8V22.481l3.415-2.732a1,1,0,0,1,1.225-.02l.961.721a4.017,4.017,0,0,0,4.8,0l.961-.721a1,1,0,0,1,1.225.02L38,22.481V33.1C38,34.376,33.938,37.073,30,38.9ZM29,2h2c1.547,0,3,3.743,3,6H26.072C26.224,5.612,27.6,2,29,2Zm-4,8H35c2.42,0,4.921,1.45,5,3.884l-1.59,6.362-2.573-2.059a3,3,0,0,0-3.674-.057l-.961.721a2.013,2.013,0,0,1-2.4,0l-.961-.721a3,3,0,0,0-3.674.057l-2.573,2.059L20,13.884c0-.065.013-.127.018-.19.017-.109.028-.218.041-.326C20.448,11.247,22.757,10,25,10Zm-7.819,5.733a5.776,5.776,0,0,1-7.821,2.254,5.085,5.085,0,0,1-1.588-1.529,6.008,6.008,0,0,0,5.762-9.425,5.079,5.079,0,0,1,2.08.713,5.47,5.47,0,0,1,2.474,5.311c-.024.142-.044.286-.057.434a6.3,6.3,0,0,1-.15.646l-.348.927A6.543,6.543,0,0,1,17.181,15.733ZM11.409,44.618c.039.021.08.036.119.056l-1.465.293A10.01,10.01,0,0,1,3.337,39H7.262C7.733,40.381,8.971,43.28,11.409,44.618ZM7.867,31l-.75,6H2.883l-.75-6Z"/><path fill="currentColor" d="M63.551,31.165a1,1,0,0,0-.944-.084L57,33.484V21h5a1,1,0,0,0,1-1V6a1,1,0,0,0-2,0V19H57V1a1,1,0,0,0-2,0V19H51V6a1,1,0,0,0-2,0V20a1,1,0,0,0,1,1h5V33.484l-5.606-2.4A1,1,0,0,0,48,32v9a1,1,0,0,0,.449.835.991.991,0,0,0,.944.084L55,39.516V45a1,1,0,0,0,2,0V39.516l5.606,2.4A.986.986,0,0,0,63,42a1,1,0,0,0,1-1V32A1,1,0,0,0,63.551,31.165ZM50,39.483V33.517l5,2.142v1.682Zm12,0-5-2.142V35.659l5-2.142Z"/><path fill="currentColor" d="M38,58v2a1,1,0,0,0,2,0V58a1,1,0,0,0-2,0Z"/><rect x="29" y="60"/><path fill="currentColor" d="M44,56v7a1,1,0,0,0,2,0V56a1,1,0,0,0-2,0Z"/></svg>