<svg xmlns="http://www.w3.org/2000/svg" viewBox="0 0 1024 1024">
<g transform="translate(0,1024) scale(0.1,-0.1)">
<path fill="currentColor" d="M5830 10225 c-19 -7 -102 -43 -185 -80 -272 -122 -580 -237 -846
-314 -106 -30 -333 -89 -379 -98 -14 -2 -45 -9 -70 -14 -25 -6 -56 -13 -70
-15 -14 -2 -47 -9 -75 -14 -91 -18 -100 -20 -145 -26 -25 -3 -52 -7 -60 -9 -8
-2 -35 -7 -60 -10 -25 -3 -56 -8 -70 -10 -55 -9 -157 -19 -285 -30 -44 -4 -96
-8 -115 -10 -19 -2 -129 -6 -245 -10 -234 -6 -360 -13 -414 -21 -378 -58 -733
-255 -970 -537 -166 -198 -296 -453 -340 -669 l-12 -58 -42 -1 c-62 -1 -87 -7
-144 -35 -64 -31 -116 -90 -143 -161 -19 -52 -20 -77 -20 -656 l0 -602 -23
-25 c-426 -466 -715 -951 -909 -1530 -44 -133 -119 -415 -132 -500 -3 -19 -8
-46 -11 -60 -2 -13 -7 -40 -10 -60 -3 -20 -7 -45 -9 -56 -2 -11 -7 -47 -11
-79 -4 -33 -9 -71 -11 -85 -28 -171 -27 -1711 0 -1880 3 -14 7 -50 11 -81 3
-31 7 -66 10 -77 2 -11 6 -37 10 -58 12 -78 16 -101 41 -214 136 -614 411
-1194 797 -1677 123 -154 158 -194 287 -324 75 -75 107 -101 150 -117 l55 -21
3745 2 3745 2 55 27 c36 18 84 56 136 110 540 556 907 1235 1074 1983 16 72
32 145 35 163 21 130 23 139 31 207 3 33 8 67 9 76 15 80 20 329 20 944 0 654
-3 807 -20 945 -7 50 -26 187 -30 210 -6 37 -15 87 -20 110 -3 14 -8 39 -10
55 -12 68 -56 238 -93 360 -186 609 -489 1133 -939 1625 l-23 25 -1 595 c0
327 -2 606 -5 619 -24 128 -139 227 -278 238 l-64 6 -17 71 c-140 577 -600
1031 -1180 1164 -120 28 -142 31 -265 37 -282 14 -315 19 -459 62 -247 73
-462 222 -641 444 -65 79 -90 103 -137 125 -65 32 -165 41 -223 19z m72 -720
c187 -175 370 -294 600 -389 83 -34 233 -80 297 -91 19 -3 37 -7 40 -9 3 -2
30 -7 60 -11 30 -4 63 -9 75 -11 12 -2 68 -6 126 -9 252 -13 291 -18 410 -57
248 -80 464 -272 575 -511 18 -40 36 -82 40 -94 l6 -23 -3010 0 c-2188 0
-3011 3 -3011 11 0 22 78 177 120 238 145 215 382 369 635 415 53 10 144 15
365 21 118 3 231 8 250 10 19 1 80 6 135 10 55 4 106 8 115 10 8 1 46 6 83 10
37 3 76 8 85 10 9 1 42 6 73 9 31 4 65 8 75 10 11 2 39 7 64 10 25 3 55 8 66
10 12 2 37 7 55 10 55 9 328 65 368 75 20 6 51 13 70 16 19 3 37 8 41 10 3 2
17 6 31 9 63 12 391 111 539 161 90 32 250 92 355 135 104 43 193 77 196 76 4
0 36 -28 71 -61z m2598 -2145 l0 -340 -3380 0 -3380 0 0 340 0 340 3380 0
3380 0 0 -340z m-4300 -943 c0 -2 -23 -42 -51 -88 -144 -238 -281 -577 -379
-937 -35 -128 -84 -341 -93 -404 -2 -13 -12 -23 -26 -25 -20 -3 -179 -37 -226
-49 -11 -3 -31 -7 -45 -10 -67 -13 -295 -80 -427 -125 -329 -112 -612 -252
-821 -405 l-62 -45 -26 58 c-209 479 -568 868 -1014 1099 -41 21 -77 39 -79
41 -7 4 123 240 195 353 87 138 218 312 333 444 l84 96 1319 0 c725 0 1318 -2
1318 -3z m1048 -34 c198 -99 425 -467 582 -943 28 -87 103 -359 114 -420 2
-14 14 -68 24 -120 11 -52 22 -108 25 -125 26 -164 50 -226 109 -281 53 -51
105 -73 208 -89 206 -33 520 -109 730 -177 534 -172 912 -426 972 -650 65
-247 -331 -558 -972 -766 -122 -40 -337 -99 -389 -108 -14 -3 -34 -7 -43 -10
-10 -3 -30 -8 -45 -10 -16 -3 -47 -9 -71 -15 -23 -5 -59 -12 -80 -15 -20 -3
-44 -7 -52 -9 -8 -2 -28 -6 -45 -9 -16 -3 -45 -8 -63 -11 -108 -18 -218 -125
-236 -230 -15 -82 -26 -143 -31 -175 -3 -19 -10 -53 -15 -75 -5 -22 -12 -55
-15 -74 -3 -19 -7 -37 -9 -40 -2 -3 -7 -22 -10 -41 -10 -62 -84 -321 -130
-455 -137 -400 -314 -699 -492 -833 -144 -107 -244 -108 -387 0 -215 161 -418
543 -567 1069 -35 123 -91 362 -105 449 -34 209 -50 257 -108 318 -18 19 -52
44 -77 57 -50 25 -89 35 -195 51 -243 35 -662 151 -920 254 -331 132 -620 335
-698 491 -57 115 -45 203 44 322 141 187 456 369 884 512 109 36 378 109 444
120 19 3 37 7 40 9 3 2 22 7 41 10 19 3 46 8 60 11 76 15 129 25 164 30 129
18 213 72 261 165 13 25 33 97 44 160 11 63 23 126 26 140 2 14 10 50 16 80
21 110 90 369 130 489 169 519 405 881 628 967 54 21 141 11 209 -23z m3488
-29 c150 -170 288 -356 397 -537 69 -115 161 -287 155 -290 -1 -1 -37 -20 -78
-41 -95 -49 -275 -167 -360 -235 -273 -218 -531 -562 -664 -885 l-16 -38 -32
24 c-232 175 -546 329 -912 448 -99 32 -426 121 -491 134 -5 1 -43 8 -83 16
-40 7 -76 18 -80 24 -7 9 -17 52 -57 242 -74 350 -260 841 -418 1103 -31 52
-57 96 -57 98 0 1 593 3 1319 3 l1318 0 59 -66z m-7906 -1444 c363 -218 630
-571 734 -972 41 -156 51 -236 51 -418 0 -161 -6 -217 -34 -348 -82 -378 -302
-716 -618 -953 -97 -73 -222 -144 -232 -133 -18 18 -82 326 -105 500 -17 135
-21 290 -21 924 0 620 4 815 19 910 2 14 7 47 11 73 4 27 8 59 11 70 2 12 7
42 10 67 3 25 8 48 10 51 2 3 6 21 9 40 3 19 17 78 30 132 14 54 25 100 25
102 0 12 22 2 100 -45z m8680 45 c0 -2 11 -48 25 -102 13 -54 27 -111 29 -128
3 -16 8 -41 11 -55 11 -54 22 -118 31 -185 3 -27 8 -59 10 -70 28 -146 27
-1663 -1 -1814 -1 -9 -6 -41 -10 -71 -4 -30 -9 -62 -10 -71 -2 -9 -6 -34 -9
-55 -7 -41 -50 -238 -64 -288 -5 -16 -13 -31 -18 -33 -14 -5 -165 88 -249 152
-341 262 -569 659 -623 1083 -9 77 -9 331 1 414 57 473 354 924 776 1177 78
48 101 58 101 46z m-7371 -2293 c214 -156 526 -307 856 -415 106 -35 322 -97
395 -113 19 -4 37 -8 40 -9 3 -1 19 -4 35 -8 36 -9 51 -12 130 -28 33 -7 65
-16 71 -21 7 -5 15 -29 19 -54 3 -25 29 -136 56 -247 105 -422 250 -795 413
-1064 31 -51 56 -95 56 -98 0 -3 -595 -5 -1323 -5 l-1323 0 -60 67 c-205 231
-359 452 -503 724 l-62 117 105 56 c202 106 380 240 548 412 108 110 172 189
261 324 66 99 207 370 207 397 0 20 7 17 79 -35z m6046 21 c21 -85 176 -357
287 -505 187 -248 477 -492 746 -628 l83 -42 -57 -106 c-133 -252 -279 -468
-464 -684 l-101 -118 -1325 0 c-728 0 -1324 2 -1324 5 0 3 25 47 56 98 115
189 235 464 323 740 35 111 120 433 136 514 3 16 8 42 11 58 4 17 7 36 7 42 0
15 14 19 120 38 74 14 400 100 514 136 329 105 624 242 838 388 72 49 133 89
136 90 4 1 10 -11 14 -26z M4950 4445 c-304 -61 -551 -253 -681 -529 -63 -135
-82 -219 -83 -376 0 -74 2 -151 5 -170 56 -309 244 -559 524 -695 141 -69 233
-89 400 -89 170 0 275 23 410 88 267 130 453 368 514 656 26 126 23 309 -9
425 -26 97 -94 241 -149 315 -151 202 -322 310 -596 377 -48 12 -274 10 -335
-2z m310 -617 c69 -31 135 -97 169 -168 22 -46 26 -69 26 -140 0 -72 -4 -93
-27 -141 -36 -72 -94 -131 -166 -166 -49 -24 -69 -28 -142 -28 -72 0 -93 4
-141 27 -72 36 -131 94 -166 166 -24 49 -28 69 -28 142 0 71 4 94 26 140 27
58 94 132 144 158 94 49 212 53 305 10z"/>
</g>
</svg>
