<svg viewBox="0 0 511.848 511.848" xmlns="http://www.w3.org/2000/svg"><g><path fill="currentColor" d="m454.218 240.217c-.636-1.44-11.216-24.785-33.776-39.74-.679-23.044-7.364-43.613-20.069-61.509-3.163-4.455-6.685-8.675-10.518-12.683-.339-25.135-5.921-45.231-17.02-61.251-11.136-16.073-27.593-28.139-51.79-37.973-47.98-19.498-58.94-24.326-59.037-24.369l-6.084-2.692-6.077 2.688c-.105.047-11.064 4.875-59.044 24.372-24.197 9.833-40.654 21.899-51.79 37.973-11.099 16.02-16.68 36.115-17.02 61.25-3.834 4.009-7.356 8.229-10.519 12.685-12.706 17.897-19.391 38.466-20.069 61.51-22.56 14.955-33.14 38.299-33.775 39.739l-2.664 6.034 2.646 6.042c.563 1.285 8.986 20.017 26.819 34.671-4.515 8.86-7.079 18.874-7.079 29.482v48.41h26.479c-.526 1.88-1.059 3.766-1.596 5.666-6.039 21.349-12.541 44.343-10.303 68.546-8.223 12.842-13.013 28.083-13.013 44.43v28.35h354.01v-28.35c0-16.348-4.791-31.588-13.013-44.43 2.238-24.204-4.265-47.197-10.303-68.546-.537-1.9-1.07-3.786-1.596-5.666h26.48v-48.41c0-10.608-2.564-20.622-7.079-29.482 17.833-14.653 26.256-33.384 26.82-34.67l2.646-6.042zm-49.722 76.228v18.41h-15.832c-12.882 0-24.161-6.966-30.288-17.325 2.605-4.827 4.881-9.856 6.792-15.06 4.337 1.126 8.992 1.822 13.984 1.982l.483.008c7.803 0 14.936-1.169 21.431-3.149 2.198 4.587 3.43 9.719 3.43 15.134zm-1.594 165.403h-94.037c14.708-12.761 24.773-30.721 27.312-51h14.1c28.481 0 51.752 22.728 52.625 51zm-295.551-165.403c0-5.415 1.232-10.548 3.428-15.134 6.495 1.98 13.627 3.149 21.43 3.149h.241l.242-.008c4.992-.161 9.647-.857 13.984-1.982 1.912 5.204 4.188 10.234 6.793 15.061-6.126 10.358-17.406 17.324-30.287 17.324h-15.832v-18.41zm94.746-261.591c30.763-12.5 46.378-18.997 53.826-22.139 7.448 3.142 23.064 9.638 53.826 22.139 18.551 7.539 30.761 16.202 38.425 27.264 3.814 5.506 6.676 11.937 8.619 19.369-7.14-3.854-14.818-7.31-23.062-10.327-23.456-8.584-51.089-13.311-77.808-13.311s-54.352 4.727-77.808 13.311c-8.244 3.017-15.921 6.472-23.061 10.326 1.943-7.432 4.804-13.863 8.618-19.368 7.665-11.063 19.875-19.726 38.425-27.264zm-13.672 64.479c20.236-7.406 44.208-11.484 67.498-11.484s47.262 4.078 67.498 11.484c23.505 8.601 41.165 21.05 52.489 37.001 6.782 9.554 11.18 20.359 13.209 32.354-3.045-.387-6.204-.597-9.482-.597l-.488.008c-6.708.219-12.824 1.381-18.347 3.295-13.279-21.14-36.791-35.232-63.545-35.232-14.86 0-29.151 4.345-41.333 12.419-12.182-8.074-26.473-12.419-41.333-12.419-26.754 0-50.266 14.091-63.544 35.232-5.524-1.914-11.639-3.077-18.348-3.295l-.488-.008c-3.278 0-6.437.21-9.482.597 2.029-11.995 6.427-22.801 13.209-32.354 11.322-15.951 28.982-28.4 52.487-37.001zm153.831 143.136c0 47.604-38.729 86.333-86.333 86.333s-86.333-38.729-86.333-86.333v-31.307c0-24.813 20.187-45 45-45 11.581 0 22.589 4.404 30.995 12.4l10.338 9.833 10.338-9.833c8.406-7.996 19.415-12.4 30.996-12.4 24.814 0 45 20.187 45 44.999zm-137.155 161.123v-56.494c15.364 7.493 32.61 11.704 50.822 11.704 18.223 0 35.477-4.216 50.847-11.717l.031 54.819c-.62 27.535-23.196 49.748-50.878 49.748-27.114 0-49.34-21.309-50.822-48.06zm-107.418-189.324c10.107-10.664 21.638-16.105 34.276-16.176 2.803.113 5.707.607 8.52 1.535-.583 3.761-.889 7.613-.889 11.536v31.307c0 3.572.171 7.104.487 10.594-2.686.843-5.446 1.291-8.115 1.397-12.693-.07-24.241-5.506-34.324-16.162-4.047-4.276-7.113-8.634-9.205-12.002 2.104-3.376 5.186-7.743 9.25-12.029zm33.419 144.418c1.397-4.939 2.804-9.922 4.133-14.967 14.482-2.72 27.285-10.239 36.693-20.845 1.036 1.082 2.096 2.141 3.173 3.183v54.791h-13.532c-13.847 0-26.899 3.44-38.376 9.483 1.809-10.056 4.752-20.485 7.909-31.645zm30.466 52.162h14.102c2.539 20.279 12.603 38.239 27.311 51h-94.038c.873-28.272 24.145-51 52.625-51zm188.709-30h-13.489l-.03-54.803c1.073-1.038 2.129-2.093 3.161-3.171 9.408 10.607 22.211 18.125 36.692 20.846 1.329 5.045 2.737 10.028 4.134 14.967 3.156 11.16 6.099 21.589 7.909 31.645-11.477-6.045-24.53-9.484-38.377-9.484zm63.932-142.55c-10.084 10.655-21.632 16.091-34.325 16.162-2.669-.106-5.43-.553-8.115-1.397.316-3.49.487-7.022.487-10.594l.001-31.307c0-3.922-.306-7.774-.889-11.536 2.812-.928 5.716-1.423 8.519-1.535 12.639.071 24.17 5.512 34.277 16.176 4.062 4.286 7.146 8.654 9.249 12.028-2.091 3.369-5.157 7.726-9.204 12.003z"/><path fill="currentColor" d="m255.923 309.712c16.9 0 32.657-9.094 41.126-23.733l-25.969-15.021c-3.123 5.4-8.932 8.754-15.157 8.754s-12.033-3.354-15.156-8.754l-25.969 15.021c8.469 14.64 24.226 23.733 41.125 23.733z"/></g></svg>