<svg xmlns="http://www.w3.org/2000/svg" viewBox="0 0 1024 1024">
<g transform="translate(0,1024) scale(0.1,-0.1)">
<path fill="currentColor" d="M7940 9817 c-3 -3 -27 -8 -53 -11 -219 -30 -471 -181 -654 -394 -177
-208 -313 -489 -359 -742 -3 -19 -7 -42 -9 -50 -2 -8 -6 -40 -10 -70 -4 -30
-9 -66 -11 -80 -5 -33 -5 -328 0 -360 2 -14 7 -54 11 -90 17 -183 91 -464 184
-702 56 -141 327 -698 481 -988 83 -154 185 -344 250 -465 15 -27 51 -95 81
-150 29 -55 75 -140 102 -190 92 -172 286 -571 345 -710 86 -204 156 -418 177
-545 5 -31 -1 -24 -51 50 -208 313 -539 627 -856 816 -267 158 -520 262 -803
330 -60 14 -162 45 -225 69 -259 97 -640 201 -870 240 -19 3 -60 10 -90 15
-119 20 -213 33 -335 45 -33 4 -67 8 -75 10 -8 2 -40 7 -70 10 -30 3 -66 8
-80 10 -14 2 -45 6 -70 10 -44 5 -99 13 -150 20 -14 2 -44 6 -67 9 -24 3 -62
9 -85 12 -24 3 -54 7 -68 9 -14 2 -45 7 -70 10 -83 11 -169 24 -205 31 -10 2
-37 6 -60 10 -81 11 -303 56 -400 80 -447 112 -737 255 -1366 675 -233 156
-416 264 -602 359 l-128 64 -95 3 c-152 4 -229 -35 -275 -140 -44 -104 -10
-255 116 -512 151 -306 374 -576 640 -774 33 -25 64 -48 69 -52 21 -18 -257
43 -464 101 -248 71 -565 185 -739 268 -184 88 -355 -30 -354 -243 1 -81 8
-119 39 -206 104 -292 300 -560 546 -752 l78 -60 -49 -17 c-174 -59 -252 -255
-176 -445 97 -243 345 -455 703 -600 l102 -42 -51 -23 c-57 -27 -117 -88 -150
-152 -33 -64 -31 -165 5 -243 15 -33 34 -67 42 -76 14 -16 11 -18 -33 -33
-113 -37 -267 -60 -398 -60 -68 0 -225 13 -235 19 -3 2 -30 6 -60 10 -30 4
-58 9 -61 11 -3 2 -19 6 -36 8 -16 3 -108 26 -204 50 -231 58 -226 58 -359 61
-125 4 -188 -11 -240 -58 -73 -64 -115 -176 -107 -282 25 -323 430 -890 934
-1307 470 -389 988 -674 1588 -873 293 -98 672 -191 885 -219 25 -3 54 -8 66
-10 12 -2 45 -7 74 -11 29 -4 60 -8 69 -10 9 -1 43 -6 76 -9 33 -4 71 -9 85
-11 25 -3 83 -9 195 -20 33 -3 78 -8 100 -10 22 -2 81 -7 130 -10 50 -4 106
-8 125 -10 272 -26 1310 -27 1580 0 19 2 84 6 144 10 60 4 116 8 125 10 9 1
57 6 106 9 50 4 101 9 115 11 14 2 54 6 90 10 36 4 76 8 90 10 14 2 52 6 85
10 33 3 71 8 85 10 14 2 45 6 70 10 25 3 56 8 70 10 14 2 45 7 70 10 56 8 68
9 215 34 66 11 137 23 159 27 42 6 56 9 131 24 28 5 66 12 85 15 19 4 53 10
75 15 22 5 56 11 75 14 234 38 545 120 777 206 186 69 490 220 643 320 393
258 680 576 852 948 55 119 121 322 152 472 32 153 31 147 46 245 6 44 13 91
15 104 26 159 27 654 0 811 -2 14 -6 43 -10 65 -3 22 -8 56 -11 75 -34 219
-126 527 -236 785 -184 432 -421 823 -976 1608 -700 988 -872 1267 -953 1547
-26 88 -33 146 -34 265 0 105 23 195 49 195 20 0 89 -50 153 -110 126 -119
272 -232 420 -323 77 -47 392 -207 409 -207 13 0 219 -108 378 -199 338 -193
481 -254 585 -250 253 11 354 283 213 569 -32 64 -91 145 -225 311 -74 93
-131 199 -207 394 -28 72 -70 168 -92 215 -22 47 -55 126 -73 175 -86 239
-160 324 -475 548 -312 221 -526 321 -815 382 -39 8 -338 19 -345 12z m315
-351 c78 -18 247 -81 336 -127 98 -50 341 -208 429 -278 60 -47 150 -133 150
-142 0 -4 -21 -10 -47 -14 -27 -5 -55 -10 -63 -12 -64 -14 -229 -19 -422 -13
-81 3 -135 -23 -167 -80 -45 -81 -31 -145 54 -240 102 -114 147 -189 196 -327
l18 -53 -29 15 c-50 26 -204 146 -299 234 -121 111 -142 127 -231 168 -60 29
-90 36 -155 40 -110 7 -179 -19 -255 -96 -99 -99 -142 -225 -146 -421 -7 -370
123 -676 565 -1330 123 -182 112 -168 456 -655 486 -688 667 -970 841 -1310
182 -357 314 -750 349 -1035 4 -30 8 -57 10 -60 2 -3 7 -48 12 -100 14 -166 7
-548 -12 -649 -1 -9 -6 -38 -9 -66 -4 -27 -16 -97 -28 -155 -11 -58 -22 -115
-24 -126 -10 -54 -58 -207 -91 -289 -234 -586 -791 -1024 -1593 -1251 -69 -20
-132 -37 -140 -39 -8 -2 -71 -15 -139 -29 -68 -15 -140 -29 -160 -32 -20 -3
-55 -10 -79 -15 -23 -5 -59 -12 -80 -15 -20 -3 -55 -9 -77 -14 -22 -5 -56 -12
-75 -15 -48 -8 -140 -24 -170 -30 -13 -3 -40 -7 -60 -10 -20 -3 -45 -7 -55 -9
-11 -2 -40 -7 -65 -10 -25 -3 -54 -8 -66 -10 -12 -2 -45 -7 -74 -11 -29 -4
-60 -8 -69 -10 -9 -1 -41 -6 -72 -9 -31 -4 -65 -8 -75 -10 -11 -2 -50 -7 -89
-10 -38 -4 -81 -9 -95 -11 -31 -4 -113 -12 -205 -20 -38 -3 -83 -8 -100 -10
-16 -2 -79 -7 -140 -10 -60 -4 -126 -9 -145 -11 -238 -23 -1209 -23 -1460 0
-19 2 -80 7 -135 11 -55 3 -116 8 -135 10 -19 2 -73 6 -119 10 -47 4 -92 8
-100 10 -9 1 -47 6 -86 9 -38 4 -81 9 -95 11 -14 2 -47 6 -75 10 -27 3 -68 8
-90 11 -42 5 -193 30 -235 39 -62 13 -77 16 -110 21 -19 3 -115 26 -213 50
-953 239 -1808 749 -2338 1396 -148 181 -269 379 -313 511 -25 75 -29 72 84
52 53 -10 73 -15 222 -53 153 -40 228 -57 303 -68 22 -3 47 -7 55 -9 93 -24
471 -24 542 0 7 2 29 6 49 9 20 3 42 8 50 10 8 3 25 7 39 10 50 8 227 69 302
103 l77 35 83 -30 c114 -41 250 -78 295 -81 7 -1 -1 -22 -20 -53 -29 -46 -32
-59 -32 -127 0 -126 38 -184 177 -275 173 -112 398 -196 603 -223 33 -4 122
-8 197 -8 129 0 163 -6 120 -19 -31 -10 -95 -80 -118 -131 -71 -150 26 -300
218 -339 13 -3 46 -9 73 -15 47 -10 350 -8 405 3 14 2 48 7 75 11 28 3 57 8
65 10 8 2 31 6 50 9 19 3 44 8 55 10 11 3 34 8 52 11 l31 7 -13 -38 c-30 -87
7 -187 89 -241 79 -53 170 -71 339 -68 119 3 209 12 307 30 14 3 41 7 60 10
186 30 518 139 725 239 255 123 434 246 602 414 146 144 301 373 309 456 12
126 -121 222 -239 172 -40 -17 -65 -45 -107 -121 -141 -255 -429 -493 -782
-644 -171 -74 -432 -156 -558 -177 -14 -2 -34 -6 -46 -9 -12 -3 -39 -7 -60
-10 -21 -3 -46 -8 -54 -10 -17 -5 5 13 183 154 294 233 611 538 915 879 71 80
93 111 100 145 15 73 -9 135 -71 181 -36 26 -124 33 -164 12 -36 -18 -33 -15
-143 -137 -154 -170 -284 -300 -365 -366 -281 -228 -658 -420 -1009 -513 -118
-32 -137 -36 -191 -45 -16 -3 -41 -7 -55 -10 -39 -7 -81 -14 -135 -20 -27 -4
-63 -9 -80 -11 -42 -7 -33 -1 150 111 88 54 259 163 380 243 121 80 263 170
315 200 208 120 390 249 570 401 95 81 119 112 124 167 9 101 -71 184 -176
184 -53 0 -76 -14 -220 -133 -409 -336 -876 -561 -1308 -632 -25 -4 -53 -9
-63 -11 -91 -17 -309 -22 -442 -11 -81 7 -95 9 -195 28 -72 14 -210 60 -210
69 0 4 21 11 48 15 105 16 485 119 694 188 123 41 275 89 338 107 230 64 627
231 714 301 91 72 78 221 -25 278 -62 35 -114 28 -221 -28 -114 -60 -276 -130
-408 -176 -99 -34 -379 -108 -455 -119 -35 -6 -57 -9 -126 -21 -114 -21 -511
-27 -684 -12 -114 10 -307 49 -409 82 -165 55 -336 141 -322 164 7 10 62 15
161 14 599 -6 768 -3 975 22 19 2 64 7 100 10 36 4 76 8 90 10 14 2 45 7 70
10 25 3 57 8 73 11 59 9 94 15 147 24 30 5 71 12 90 15 19 3 42 8 50 10 8 2
29 7 45 10 47 8 75 14 93 19 9 3 30 7 45 10 16 3 49 17 74 31 84 50 108 163
49 240 -49 64 -102 78 -241 62 -68 -8 -148 -15 -250 -22 -84 -6 -565 -6 -615
-1 -19 2 -79 7 -133 11 -54 3 -106 8 -115 10 -9 1 -46 6 -82 10 -36 4 -72 9
-81 10 -9 2 -40 6 -70 10 -221 27 -498 95 -644 158 -207 89 -383 225 -449 348
l-28 50 24 -5 c13 -2 70 -13 128 -24 58 -11 123 -23 145 -26 22 -4 47 -8 55
-11 8 -2 38 -6 65 -10 28 -3 57 -8 65 -10 8 -2 40 -6 71 -10 31 -3 65 -7 75
-9 11 -2 48 -7 84 -11 36 -3 76 -8 90 -10 27 -4 110 -11 225 -20 85 -6 184
-16 207 -20 9 -2 48 -7 85 -10 37 -4 77 -9 88 -12 11 -3 147 -7 302 -10 270
-4 283 -3 322 17 111 56 127 203 31 283 -40 34 -51 35 -350 41 -140 3 -264 7
-275 9 -11 3 -51 8 -88 12 -37 3 -76 8 -85 10 -9 1 -39 6 -67 9 -27 4 -57 9
-65 11 -8 2 -31 7 -50 10 -122 20 -350 86 -492 144 -410 164 -762 456 -922
766 -37 72 -46 106 -24 87 41 -33 652 -217 883 -267 11 -2 29 -6 40 -9 57 -15
421 -96 449 -100 18 -3 39 -8 47 -10 8 -3 30 -7 49 -10 36 -6 43 -7 120 -24
25 -6 63 -13 85 -16 22 -4 47 -8 55 -11 8 -2 33 -6 54 -10 21 -3 48 -7 60 -10
12 -3 35 -7 51 -10 17 -3 68 -11 115 -19 47 -8 103 -18 125 -21 23 -3 50 -7
62 -9 12 -3 43 -8 70 -12 26 -3 57 -8 68 -10 119 -23 673 -22 815 1 14 2 56 6
93 10 37 3 76 8 85 10 9 1 42 6 73 9 31 4 65 8 75 10 11 2 46 7 79 10 33 4 76
9 95 11 80 9 129 14 195 20 39 4 81 8 95 10 14 2 66 7 115 10 50 4 106 9 125
11 222 22 839 22 970 0 14 -3 55 -7 92 -11 37 -3 77 -8 90 -10 13 -2 41 -6 63
-10 22 -3 47 -7 55 -10 8 -2 31 -6 50 -9 19 -3 89 -19 155 -35 439 -108 825
-323 1136 -631 239 -237 399 -471 526 -770 76 -178 157 -470 147 -528 -33
-193 -131 -374 -269 -498 -80 -72 -105 -112 -105 -168 0 -130 135 -210 251
-150 41 21 172 147 225 216 126 163 219 385 239 568 4 30 8 60 10 67 2 6 7 49
10 95 4 46 9 94 11 108 5 32 5 391 -1 450 -2 25 -7 72 -10 105 -3 33 -14 115
-25 183 -18 107 -25 144 -46 237 -3 11 -7 27 -8 35 -30 130 -105 341 -194 545
-54 126 -272 567 -370 750 -53 100 -131 244 -172 320 -56 103 -99 183 -145
270 -26 50 -61 115 -78 145 -84 154 -399 789 -439 885 -81 195 -155 435 -173
560 -4 22 -8 47 -10 55 -20 73 -27 408 -12 525 19 140 70 310 129 430 85 169
227 336 365 428 139 93 228 117 408 112 72 -1 144 -6 160 -9z m1090 -923 c15
-32 54 -124 86 -206 103 -258 155 -348 300 -523 93 -112 121 -153 144 -207
l16 -38 -83 43 c-46 23 -157 85 -248 136 -177 101 -335 184 -415 220 l-50 22
-1 52 c-1 138 -34 284 -91 410 -20 43 -34 80 -32 82 2 2 31 7 64 10 85 9 115
15 192 35 37 10 73 19 79 20 7 0 24 -25 39 -56z m-7322 -1925 c56 -34 195
-123 308 -199 454 -303 802 -491 1104 -596 104 -36 255 -82 255 -77 0 3 8 0
18 -5 18 -9 310 -74 387 -86 22 -3 47 -7 55 -10 8 -2 35 -6 60 -9 25 -3 56 -8
70 -11 13 -2 42 -7 65 -10 22 -4 51 -8 65 -10 14 -2 45 -7 70 -10 25 -3 56 -8
70 -10 14 -2 45 -6 70 -10 25 -3 56 -8 70 -10 14 -2 48 -7 75 -10 84 -10 151
-23 130 -25 -36 -4 -69 -7 -145 -15 -41 -4 -82 -8 -90 -10 -8 -2 -49 -6 -90
-10 -41 -4 -82 -9 -91 -10 -9 -2 -40 -6 -69 -10 -29 -4 -62 -8 -73 -11 -11 -2
-52 -6 -91 -10 -39 -3 -82 -8 -96 -10 -44 -7 -311 -18 -440 -18 -118 1 -245 8
-300 18 -14 3 -41 7 -61 10 -51 8 -138 46 -372 162 -202 101 -288 151 -452
260 -332 221 -564 465 -709 744 -84 163 -84 161 19 106 48 -26 133 -74 188
-108z"/>
</g>
</svg>
