<svg viewBox="0 0 68 68" xmlns="http://www.w3.org/2000/svg"><g><path fill="currentColor" d="m12.7921 41.1711c-2.2407 0-4.064 1.8232-4.064 4.0645v2.5215c0 1.1328.9224 2.0547 2.0557 2.0547h4.0166c1.1338 0 2.0557-.9219 2.0557-2.0547v-2.5215c0-2.2412-1.8233-4.0645-4.064-4.0645zm2.0083 6.6406-4.0723-.0547v-2.5215c0-1.1387.9258-2.0645 2.064-2.0645s2.064.9258 2.064 2.0645z"/><path fill="currentColor" d="m12.7921 53.0334c-2.2407 0-4.064 1.8232-4.064 4.0635v2.5215c0 1.1338.9224 2.0557 2.0557 2.0557h4.0166c1.1338 0 2.0557-.9219 2.0557-2.0557v-2.5215c0-2.2402-1.8233-4.0635-4.064-4.0635zm2.0083 6.6406-4.0723-.0557v-2.5215c0-1.1377.9258-2.0635 2.064-2.0635s2.064.9258 2.064 2.0635z"/><path fill="currentColor" d="m55.2096 41.1711c-2.2402 0-4.0635 1.8232-4.0635 4.0645v2.5215c0 1.1328.9219 2.0547 2.0557 2.0547h4.0166c1.1328 0 2.0547-.9219 2.0547-2.0547v-2.5215c0-2.2412-1.8233-4.0645-4.0635-4.0645zm2.0088 6.6406-4.0723-.0547v-2.5215c0-1.1387.9258-2.0645 2.0635-2.0645s2.0635.9258 2.0635 2.0645z"/><path fill="currentColor" d="m55.2096 53.0334c-2.2402 0-4.0635 1.8232-4.0635 4.0635v2.5215c0 1.1338.9219 2.0557 2.0557 2.0557h4.0166c1.1328 0 2.0547-.9219 2.0547-2.0557v-2.5215c0-2.2402-1.8233-4.0635-4.0635-4.0635zm2.0088 6.6406-4.0723-.0557v-2.5215c0-1.1377.9258-2.0635 2.0635-2.0635s2.0635.9258 2.0635 2.0635z"/><path fill="currentColor" d="m66 64.43h-1.38v-24.3c0-2.28-1.85-4.13-4.12-4.13h-.66v-1.83c.46-.09.87-.38 1.08-.79.46-.91.69-1.87.69-2.85 0-3.53-5.38-6.04-5.9901-6.31-.2599-.12-.56-.12-.8199 0-.61.27-5.99 2.78-5.99 6.31 0 .98.23 1.94.69 2.85.21.42.62.7 1.08.79v1.83h-2.79v-6.94c.32-.23.59-.51.76-.85 1.17-2.32 1.7599-4.76 1.7599-7.25 0-8.12-12.39-14.54-15.31-15.94v-2.45c0-.55-.45-1-1-1s-1 .45-1 1v2.45c-2.92 1.4-15.31 7.82-15.31 15.94 0 2.49.6 4.93 1.76 7.25.18.34.44.62.76.85v6.94h-2.78v-1.83c.45-.09.86-.38 1.0699-.79.46-.91.69-1.87.69-2.85 0-3.53-5.38-6.04-5.99-6.31-.26-.12-.56-.12-.82 0-.61.27-5.99 2.78-5.99 6.31 0 .98.23 1.94.69 2.84.21.42.62.71 1.08.8v1.83h-.6598c-2.27 0-4.12 1.85-4.12 4.1299v24.3h-1.38c-.55 0-1 .45-1 1s.45 1 1 1h64c.55 0 1-.45 1-1 0-.5499-.45-.9999-1-.9999zm-53.21-38.19c1.48.74 4.4 2.56 4.4 4.29 0 .57-.12 1.13-.35 1.67h-.39c-.01 0-.02 0-.02 0h-7.69c-.23-.54-.35-1.1-.35-1.67 0-1.72 2.93-3.55 4.4-4.29zm2.6401 7.96v1.8h-5.27v-1.8zm4.7799 30.23h-14.83v-24.3c0-1.18.95-2.13 2.12-2.13h12.71zm35-38.19c1.48.74 4.4 2.56 4.4 4.29 0 .57-.12 1.13-.35 1.67h-8.1c-.23-.54-.35-1.1-.35-1.67 0-1.72 2.92-3.55 4.4-4.29zm2.63 7.96v1.8h-5.26v-1.8zm-19.54 30.23h-8.6v-10.7c0-2.7176 1.3995-5.4174 4.34-6.96 2.9667 1.8259 4.26 4.1963 4.26 6.96zm3.73 0h-1.73v-10.7c0-3.3463-1.5935-6.4748-5.23-8.67-.66-.4-1.48-.4-2.14 0-3.6531 2.2051-5.23 5.3444-5.23 8.67v10.7h-1.72v-21.42c0-.79.64-1.44 1.43-1.44h13.18c.79 0 1.44.65 1.44 1.44zm3.76 0h-1.76v-21.42c0-1.9-1.54-3.44-3.44-3.44h-13.18c-1.89 0-3.43 1.54-3.43 3.44v21.42h-1.77v-28.45h23.58zm0-30.45h-23.58v-4.44h23.58zm.55-6.44h-24.68c-.18 0-.35-.09-.42-.23-1.03-2.04-1.55-4.17-1.55-6.35 0-6.98 11.93-13.06 14.31-14.2 2.38 1.14 14.31 7.22 14.31 14.2 0 2.18-.52 4.31-1.55 6.35-.07.14-.24.23-.42.23zm16.28 36.89h-14.83v-26.43h12.71c1.17 0 2.12.95 2.12 2.1299z"/></g></svg>