<svg xmlns="http://www.w3.org/2000/svg" viewBox="0 0 1024 1024">
<g transform="translate(0,1024) scale(0.1,-0.1)">
<path fill="currentColor" d="M4889 9996 c-2 -2 -45 -7 -95 -10 -51 -4 -100 -8 -110 -10 -11 -2
-44 -7 -75 -10 -31 -4 -67 -9 -80 -11 -13 -3 -41 -7 -64 -11 -336 -49 -756
-189 -1110 -368 -399 -203 -705 -425 -1026 -745 -465 -465 -798 -1005 -997
-1621 -39 -119 -86 -286 -96 -340 -2 -14 -11 -56 -19 -95 -14 -65 -20 -95 -33
-185 -3 -19 -7 -46 -9 -60 -3 -14 -7 -50 -11 -80 -3 -30 -7 -66 -9 -79 -12
-74 -18 -350 -18 -848 -1 -532 0 -564 18 -583 23 -26 60 -26 83 0 16 19 17 65
18 613 1 524 6 772 19 848 2 13 6 49 10 80 3 31 7 65 9 75 2 11 7 39 10 64 3
25 8 56 11 70 3 14 8 41 11 60 13 82 68 296 110 430 143 454 368 870 678 1260
116 146 429 462 566 572 454 365 972 622 1522 758 64 16 131 31 150 34 18 3
44 8 58 11 13 2 42 7 65 10 22 3 47 8 55 10 8 2 36 6 63 9 26 3 66 8 90 11 65
8 131 14 260 21 l117 6 0 -4721 c0 -4489 -1 -4721 -17 -4722 -10 0 -27 -2 -38
-4 -216 -36 -886 -41 -1200 -10 -22 2 -69 7 -105 10 -64 6 -120 12 -190 20
-19 3 -57 7 -85 10 -27 3 -61 8 -75 10 -14 2 -45 7 -70 10 -74 10 -168 24
-205 31 -11 2 -40 7 -65 10 -25 3 -52 7 -60 9 -14 4 -29 7 -112 20 -18 3 -60
10 -93 16 -33 6 -71 13 -85 15 -37 7 -231 43 -260 49 -14 3 -38 8 -55 10 -26
5 -72 14 -205 40 -14 3 -38 7 -55 10 -27 5 -75 14 -155 30 -14 3 -41 8 -60 11
-19 3 -54 10 -78 15 -23 5 -59 12 -80 15 -20 3 -44 7 -52 9 -8 3 -33 7 -55 10
-22 4 -47 8 -55 10 -8 3 -33 7 -55 11 -22 3 -44 7 -50 8 -5 1 -49 8 -97 16
-49 7 -88 16 -89 19 -1 3 -2 740 -3 1638 -1 1535 -2 1634 -18 1653 -23 26 -60
26 -83 0 -18 -20 -19 -80 -20 -1673 0 -909 2 -1665 5 -1682 7 -34 33 -50 98
-59 24 -3 84 -13 135 -21 51 -9 106 -18 122 -21 17 -3 37 -7 45 -9 8 -2 31 -6
50 -9 19 -3 130 -23 245 -45 116 -22 224 -43 240 -46 17 -3 41 -7 55 -10 14
-3 36 -7 50 -10 142 -28 178 -35 200 -39 14 -2 75 -13 135 -25 61 -11 124 -23
140 -26 17 -2 55 -9 85 -15 30 -5 72 -12 94 -16 37 -5 48 -7 106 -18 14 -3 43
-8 65 -11 48 -7 91 -14 125 -20 14 -3 48 -7 75 -11 28 -3 57 -8 65 -9 9 -2 43
-6 75 -10 33 -4 68 -9 77 -11 9 -1 48 -6 85 -9 37 -4 75 -9 84 -10 8 -2 55 -6
105 -10 49 -4 97 -9 107 -11 135 -25 970 -25 1104 0 33 6 177 19 213 19 30 0
74 -3 225 -19 243 -25 832 -24 1085 1 19 1 71 6 115 10 44 3 94 8 110 10 17 2
57 7 90 10 33 3 71 8 85 10 14 2 50 6 81 10 31 3 65 7 75 9 11 2 42 7 69 10
54 7 96 14 135 21 14 2 45 7 70 10 25 3 52 8 60 10 8 2 35 7 60 10 25 3 52 8
60 10 8 2 33 7 55 10 23 3 52 7 65 10 14 3 41 8 60 11 19 4 44 8 55 10 52 10
92 17 110 20 11 2 54 10 95 19 41 8 86 16 100 19 14 2 165 31 335 65 171 33
326 63 345 66 19 3 42 8 50 10 8 2 35 7 60 10 24 4 47 8 50 10 3 1 25 6 50 9
25 3 56 8 70 11 13 2 42 7 65 11 62 9 89 25 95 59 8 45 4 5341 -4 5483 -4 68
-9 131 -11 140 -1 10 -6 44 -9 77 -9 79 -15 118 -28 190 -5 33 -12 71 -14 85
-2 14 -7 36 -10 50 -3 14 -8 36 -11 50 -11 63 -58 237 -95 355 -136 437 -369
879 -659 1251 -116 148 -165 202 -348 384 -433 431 -940 745 -1521 942 -106
35 -349 104 -409 115 -14 2 -45 8 -69 14 -23 5 -59 12 -80 15 -20 3 -44 7 -52
9 -8 2 -37 7 -65 11 -27 3 -57 8 -66 9 -9 2 -52 6 -95 10 -43 4 -88 9 -99 12
-24 6 -561 14 -566 9z m576 -131 c122 -12 187 -20 275 -35 30 -5 71 -12 90
-15 19 -3 42 -8 50 -10 8 -2 29 -7 46 -9 74 -13 281 -71 429 -121 439 -147
836 -366 1207 -667 156 -126 442 -415 572 -578 285 -357 503 -755 646 -1179
47 -137 111 -373 124 -451 3 -19 8 -46 11 -60 14 -68 29 -167 40 -255 3 -27 8
-63 10 -80 2 -16 7 -82 11 -145 8 -128 12 -5397 4 -5410 -3 -4 -23 -11 -45
-14 -22 -4 -67 -11 -100 -17 -33 -6 -71 -13 -85 -15 -14 -3 -48 -9 -76 -15
-28 -5 -64 -12 -80 -15 -16 -2 -87 -16 -159 -30 -71 -15 -141 -28 -155 -30
-14 -3 -70 -13 -125 -24 -125 -25 -144 -29 -175 -35 -14 -3 -41 -8 -60 -11
-19 -3 -54 -10 -78 -15 -23 -5 -59 -12 -80 -15 -20 -3 -44 -7 -52 -9 -8 -3
-33 -7 -55 -10 -22 -4 -47 -8 -55 -10 -8 -2 -31 -7 -50 -10 -33 -5 -119 -20
-165 -29 -11 -2 -42 -7 -68 -10 -27 -4 -59 -9 -70 -12 -12 -2 -42 -7 -67 -10
-25 -3 -52 -7 -60 -9 -8 -2 -42 -7 -75 -11 -33 -3 -62 -8 -65 -9 -3 -2 -34 -6
-70 -10 -36 -4 -72 -8 -80 -10 -8 -2 -49 -6 -90 -10 -41 -4 -83 -9 -93 -11 -9
-1 -54 -6 -100 -9 -45 -4 -98 -8 -117 -10 -293 -30 -980 -24 -1185 10 -11 2
-30 4 -42 4 l-23 1 0 4721 0 4721 123 -7 c67 -3 140 -8 162 -10z M7134 9062
c-17 -11 -38 -35 -46 -53 -25 -52 -68 -234 -84 -354 -3 -27 -8 -59 -10 -69 -2
-10 -6 -55 -9 -100 -7 -91 7 -133 57 -169 28 -21 87 -27 138 -14 14 3 34 8 45
11 103 24 361 124 442 172 73 43 96 120 58 193 -40 79 -252 267 -405 361 -69
42 -140 51 -186 22z m190 -169 c96 -64 270 -224 295 -271 12 -22 9 -24 -82
-67 -135 -63 -360 -138 -417 -139 -11 -1 -15 11 -14 49 1 49 10 139 19 186 3
13 7 41 10 64 3 22 8 48 11 57 3 9 7 26 9 37 2 12 11 48 19 82 9 33 16 63 16
65 0 17 48 -6 134 -63z M5929 9006 c-2 -2 -26 -6 -54 -10 -120 -15 -257 -48
-291 -70 -21 -15 -28 -37 -40 -126 -3 -25 -7 -56 -10 -70 -5 -30 -5 -282 0
-325 2 -16 7 -57 12 -90 17 -123 13 -120 164 -154 131 -31 190 -36 390 -36
182 0 239 4 340 26 29 6 57 12 63 13 104 22 131 41 141 101 10 57 17 102 21
141 6 51 6 282 1 314 -2 14 -8 48 -12 75 -4 28 -8 53 -10 58 -1 4 -2 15 -3 25
-1 9 -8 25 -15 35 -16 21 -121 54 -235 73 -18 3 -43 8 -55 11 -26 6 -400 15
-407 9z m401 -130 c14 -3 36 -7 50 -9 23 -4 92 -22 132 -33 11 -3 19 -20 23
-52 4 -26 9 -58 11 -72 5 -32 6 -268 0 -295 -2 -11 -7 -43 -11 -71 l-7 -51
-76 -17 c-42 -9 -97 -19 -122 -22 -25 -3 -58 -7 -75 -9 -38 -6 -293 -7 -320
-1 -11 2 -42 7 -70 10 -73 9 -195 37 -196 45 0 3 -2 13 -3 21 -22 110 -22 371
0 480 1 8 3 18 3 23 1 10 38 24 82 31 19 3 45 8 59 11 14 3 48 8 75 11 28 4
52 8 54 10 7 6 361 -3 391 -10z M5959 8816 c-2 -2 -22 -7 -44 -10 -143 -23
-150 -33 -150 -221 0 -77 4 -157 8 -178 9 -43 40 -63 80 -53 34 8 45 40 35
100 -5 28 -8 88 -7 134 2 73 4 84 23 94 36 20 260 19 343 -1 80 -20 109 -14
124 25 16 45 -23 78 -120 100 -31 7 -286 16 -292 10z M7150 8222 c-60 -29 -94
-85 -86 -140 20 -135 169 -527 220 -577 44 -44 114 -47 177 -7 73 47 240 238
340 391 39 58 49 82 49 115 0 49 -28 99 -67 119 -33 17 -147 56 -183 63 -14 3
-33 7 -42 10 -10 3 -28 7 -40 9 -13 2 -36 7 -53 10 -48 10 -298 16 -315 7z
m309 -128 c128 -23 271 -70 271 -89 0 -49 -319 -423 -352 -413 -36 12 -211
479 -191 511 6 10 206 4 272 -9z M6285 7548 c-266 -73 -589 -326 -744 -582
-137 -228 -113 -470 64 -650 199 -202 522 -292 833 -232 63 13 206 62 277 96
221 107 370 252 433 422 18 48 21 75 19 165 -5 154 -47 276 -155 443 -50 76
-205 228 -277 270 -145 85 -302 109 -450 68z m263 -114 c181 -55 357 -229 448
-444 92 -218 69 -376 -75 -521 -198 -199 -530 -315 -791 -276 -92 14 -116 19
-180 43 -165 63 -286 162 -342 281 -29 61 -33 77 -33 159 0 86 2 94 42 175
117 234 401 478 665 570 91 31 189 36 266 13z M6400 7180 c-27 -27 -26 -39 15
-121 l36 -70 -56 -60 c-30 -33 -55 -66 -56 -72 0 -7 -3 -25 -5 -41 -8 -48 25
-133 73 -186 94 -105 231 -135 342 -75 93 51 142 145 137 260 -6 108 -77 222
-151 241 -27 7 -115 0 -152 -11 -19 -6 -26 1 -53 54 -50 100 -87 124 -130 81z
m344 -290 c11 -18 20 -55 22 -84 7 -163 -167 -220 -275 -89 -36 44 -47 84 -30
111 17 26 109 82 173 103 59 21 78 14 110 -41z M5860 7062 c-39 -19 -70 -70
-70 -116 0 -23 15 -67 41 -117 49 -98 117 -264 154 -377 22 -69 33 -87 59
-103 42 -26 62 -24 122 11 131 75 172 200 93 281 -28 28 -29 34 -19 62 6 18
13 62 16 98 12 128 -54 207 -150 181 -39 -10 -40 -10 -86 39 -25 27 -53 49
-61 50 -7 1 -26 2 -41 3 -15 2 -41 -4 -58 -12z m110 -187 c42 -85 68 -94 123
-46 19 17 38 31 42 31 13 0 -2 -103 -26 -172 -21 -62 -21 -68 -6 -91 8 -13 29
-27 46 -30 21 -5 31 -12 31 -25 0 -19 -49 -72 -66 -72 -5 0 -28 55 -52 122
-24 67 -68 173 -98 236 -30 63 -54 117 -54 119 0 3 6 3 13 1 6 -2 28 -35 47
-73z M7790 6935 c-82 -21 -187 -83 -256 -150 -40 -39 -110 -138 -140 -198 -72
-141 -103 -363 -74 -517 37 -198 225 -363 468 -411 306 -59 718 141 808 393
29 83 21 218 -21 320 -22 54 -84 151 -131 204 -11 12 -46 52 -79 89 -166 189
-213 228 -320 263 -69 23 -185 26 -255 7z m224 -123 c22 -9 60 -28 82 -44 49
-32 284 -296 332 -371 70 -111 85 -244 38 -340 -49 -101 -193 -204 -356 -256
-87 -27 -112 -31 -200 -31 -194 -1 -374 98 -446 245 -27 55 -29 70 -31 180 -4
210 53 369 180 498 117 118 277 166 401 119z M6280 5816 c-342 -73 -617 -325
-716 -656 -7 -25 -16 -63 -19 -84 -4 -21 -9 -48 -11 -60 -5 -26 -6 -204 0
-231 2 -11 7 -40 11 -65 11 -68 53 -187 92 -260 131 -244 365 -418 638 -475
77 -16 262 -22 314 -11 20 5 37 -8 103 -79 328 -350 855 -400 1235 -116 184
137 300 313 355 538 30 126 30 305 -1 428 -91 360 -357 613 -736 701 -16 4
-98 8 -181 8 l-152 1 -48 55 c-119 133 -245 217 -403 270 -118 40 -128 41
-281 46 -90 2 -157 -1 -200 -10z m348 -122 c169 -39 307 -117 423 -238 l39
-40 -68 -26 c-297 -117 -520 -400 -571 -725 -12 -74 -7 -253 8 -320 17 -71 51
-174 73 -217 l18 -38 -27 -1 c-16 -1 -55 -1 -88 0 -365 7 -684 271 -771 639
-15 61 -13 277 1 342 72 309 303 544 610 621 88 21 266 23 353 3z m907 -369
c389 -84 662 -428 650 -820 -11 -344 -228 -638 -551 -746 -411 -139 -849 64
-1014 468 -39 96 -52 162 -56 278 -5 168 38 323 130 463 58 89 97 133 170 191
110 87 218 138 356 166 65 13 255 13 315 0z M6249 3871 c-95 -30 -187 -107
-232 -196 -8 -17 -178 -598 -377 -1290 -391 -1357 -381 -1318 -347 -1435 55
-186 250 -306 437 -267 25 5 704 265 1509 579 1013 393 1479 579 1510 602 188
134 212 417 49 578 -28 28 -439 286 -1143 719 -605 372 -1110 682 -1123 688
-78 41 -192 50 -283 22z m226 -128 c22 -12 92 -53 155 -92 l115 -71 -85 -1
c-152 -1 -236 -16 -350 -62 -65 -27 -177 -99 -232 -151 -21 -19 -38 -32 -38
-28 0 21 74 261 90 293 25 47 91 104 144 122 57 20 152 15 201 -10z m462 -297
c20 -2 228 -124 558 -327 l527 -324 29 -58 c35 -67 83 -211 94 -277 4 -25 10
-54 12 -65 12 -47 10 -276 -2 -351 -16 -103 -48 -217 -78 -286 l-24 -53 -182
-70 c-101 -38 -187 -72 -193 -74 -5 -2 11 25 37 60 84 114 161 294 190 444 12
63 12 243 -1 318 -86 491 -544 860 -1069 861 -66 0 -135 -7 -215 -20 -55 -9
-204 -61 -267 -93 -237 -120 -450 -369 -538 -626 -76 -223 -81 -466 -15 -673
99 -310 354 -547 690 -643 36 -11 67 -19 70 -19 3 0 22 -3 43 -7 36 -5 27 -10
-150 -79 -103 -41 -194 -74 -202 -74 -22 0 -150 68 -226 121 -199 138 -370
355 -440 559 -11 33 2 81 187 725 l199 690 72 68 c265 248 364 289 682 281 99
-2 194 -6 212 -8z m25 -330 c386 -52 716 -331 810 -686 21 -81 29 -243 15
-339 -10 -74 -60 -219 -98 -289 -71 -128 -167 -237 -289 -329 -59 -45 -373
-174 -465 -192 -85 -17 -309 -6 -400 19 -321 87 -550 309 -635 615 -25 90 -33
272 -17 375 48 305 259 600 527 735 88 44 216 84 298 91 37 4 68 8 70 9 4 3
141 -4 184 -9z m1749 -759 c50 -50 72 -101 75 -170 3 -79 -21 -142 -76 -197
-40 -40 -67 -54 -230 -117 -271 -106 -274 -107 -265 -85 15 36 35 108 41 142
3 19 7 37 9 40 18 30 26 326 12 434 -8 55 -47 219 -62 258 -10 25 449 -257
496 -305z m-3063 -1030 c92 -124 239 -256 381 -342 l63 -39 -39 -17 c-21 -9
-105 -42 -187 -73 -187 -72 -248 -76 -339 -22 -56 32 -82 61 -107 120 -35 78
-30 128 34 351 31 110 59 206 62 214 3 9 22 -16 47 -60 23 -41 62 -100 85
-132z M6928 2745 c-2 -2 -32 -6 -68 -9 -36 -4 -105 -21 -155 -37 -334 -111
-546 -353 -537 -611 7 -206 157 -404 347 -460 110 -32 292 -32 414 1 299 79
533 292 569 515 42 266 -119 516 -374 581 -51 13 -188 27 -196 20z m187 -140
c259 -87 353 -392 187 -610 -172 -227 -578 -343 -802 -230 -125 63 -200 177
-208 315 -6 101 16 173 78 254 102 136 310 256 492 284 78 12 196 6 253 -13z
M2547 9496 c-140 -95 -163 -125 -133 -171 26 -40 59 -32 152 37 75 55 84 66
84 94 0 57 -50 76 -103 40z M2008 9033 c-228 -231 -390 -439 -556 -709 -111
-182 -154 -268 -146 -298 8 -32 28 -42 78 -37 8 0 42 52 77 114 181 324 367
573 629 843 123 126 132 143 98 184 -34 39 -58 27 -180 -97z M3458 8835 c-2
-2 -31 -6 -65 -9 -126 -13 -314 -79 -456 -160 -420 -240 -744 -692 -832 -1161
-10 -55 -13 -127 -11 -230 3 -128 7 -163 30 -240 39 -130 89 -218 171 -300
142 -143 336 -213 430 -155 51 31 67 83 64 209 -5 227 -4 438 3 476 40 234
135 405 327 588 107 101 239 190 396 267 109 53 261 112 318 124 12 3 31 7 42
10 96 22 119 26 144 21 46 -8 161 -45 219 -71 64 -28 108 -30 142 -7 34 23 37
28 61 107 24 81 20 126 -16 154 -13 11 -73 31 -132 46 -253 63 -260 66 -356
161 -94 94 -163 133 -270 155 -50 10 -202 21 -209 15z m157 -129 c93 -10 155
-44 247 -136 60 -60 86 -94 84 -106 -16 -76 -19 -80 -85 -90 -20 -3 -83 -22
-140 -41 -455 -152 -805 -431 -961 -766 -35 -76 -69 -182 -86 -267 -9 -48 -12
-366 -5 -465 3 -44 5 -97 3 -119 l-3 -38 -44 4 c-114 13 -270 130 -330 248
-32 64 -64 151 -71 199 -3 18 -8 43 -10 55 -6 27 -6 214 0 242 2 12 7 37 10
55 3 19 8 45 11 59 3 14 8 35 11 48 17 81 91 258 156 371 165 288 404 515 678
645 115 54 250 95 345 103 38 3 71 7 73 8 2 2 37 -1 117 -9z m606 -307 l115
-31 -10 -32 -10 -32 -85 33 c-47 18 -102 35 -121 39 -45 9 -59 20 -53 44 6 23
-1 24 164 -21z M3909 7829 c-116 -16 -224 -72 -313 -163 -53 -55 -65 -62 -120
-73 -197 -41 -367 -211 -412 -414 -11 -52 -10 -157 2 -219 23 -108 67 -185
158 -275 60 -59 90 -98 112 -145 106 -224 375 -346 616 -279 102 28 162 64
238 139 114 113 166 247 158 410 l-5 84 44 54 c85 104 131 226 131 347 0 326
-286 576 -609 534z m197 -134 c101 -29 200 -114 248 -212 103 -209 18 -456
-191 -555 -70 -33 -105 -42 -178 -42 -165 0 -299 84 -372 232 -37 73 -38 80
-38 181 0 98 2 111 32 173 41 86 114 160 197 199 103 48 191 55 302 24z m-641
-267 c-5 -27 -15 -38 -51 -57 -142 -76 -209 -266 -147 -419 21 -54 24 -70 16
-110 l-9 -47 -32 49 c-106 164 -86 368 49 511 45 48 164 123 176 111 2 -2 1
-19 -2 -38z m-6 -233 c0 -11 -22 -44 -49 -73 -33 -35 -50 -48 -50 -36 0 36 24
94 53 130 28 33 32 35 38 18 4 -10 8 -28 8 -39z m66 -171 c16 -25 16 -28 -14
-84 -117 -220 29 -489 275 -508 83 -6 151 12 223 58 88 57 146 155 154 264 3
36 29 64 61 66 5 0 6 -33 3 -75 -22 -298 -340 -471 -611 -333 -57 29 -138 110
-166 165 -51 102 -61 251 -25 343 17 41 71 130 79 130 2 0 11 -12 21 -26z
m138 -165 c-12 -12 -63 -19 -63 -8 0 5 5 18 12 28 11 18 13 18 35 4 13 -9 20
-20 16 -24z m176 -75 c17 -4 31 -10 31 -15 0 -15 -90 -70 -147 -90 -79 -27
-99 -25 -118 11 -15 29 -15 30 5 30 36 0 129 31 162 54 26 18 25 18 67 10z
m197 -68 c-17 -88 -121 -166 -223 -166 -62 0 -68 11 -15 29 59 21 139 79 190
137 49 56 58 55 48 0z M3895 7636 c-107 -34 -181 -96 -226 -191 -81 -172 -7
-376 165 -460 168 -82 379 -8 463 163 25 50 28 68 28 152 0 110 -17 155 -85
232 -80 92 -234 138 -345 104z m191 -134 c78 -40 124 -115 124 -202 0 -47 -21
-120 -35 -120 -24 0 -73 57 -106 123 -26 50 -61 100 -104 143 -60 61 -62 66
-42 73 36 14 119 6 163 -17z m-215 -129 c22 -20 45 -45 50 -55 9 -17 7 -18
-33 -12 -24 4 -59 19 -78 33 -19 14 -37 26 -39 28 -2 1 2 16 9 32 14 36 27 32
91 -26z m66 -201 c32 -10 78 -31 102 -46 l44 -28 -24 -14 c-32 -17 -135 -12
-174 8 -32 17 -58 39 -89 76 l-19 22 51 0 c27 0 76 -8 109 -18z M3375 5536
c-38 -13 -101 -38 -140 -55 -38 -18 -108 -47 -155 -66 -244 -94 -300 -147
-390 -375 -23 -58 -61 -150 -86 -206 -91 -210 -91 -311 3 -516 l35 -77 -45
-53 c-49 -58 -93 -138 -103 -187 -5 -22 -10 -28 -18 -22 -23 19 -113 38 -159
35 -62 -5 -137 -44 -176 -91 -44 -54 -61 -111 -57 -202 l2 -78 -44 -24 c-76
-40 -117 -113 -131 -231 -1 -4 -20 -16 -43 -26 -107 -47 -197 -151 -238 -271
-41 -122 -19 -279 54 -386 l33 -49 -58 -54 c-79 -72 -120 -155 -124 -250 -10
-198 103 -393 281 -485 26 -13 32 -24 37 -61 15 -108 104 -240 205 -305 99
-63 223 -89 315 -66 l47 12 23 -45 c46 -93 148 -180 252 -217 28 -10 87 -19
135 -21 98 -3 187 22 260 73 l42 29 57 -19 c123 -42 238 -23 315 52 32 30 46
37 61 31 11 -4 47 -8 81 -8 106 0 189 54 254 167 32 55 38 60 77 66 65 10 173
68 231 125 54 54 107 147 118 209 6 28 24 51 80 104 153 143 202 334 144 559
-24 93 -58 172 -99 232 l-31 45 19 71 c35 124 15 244 -60 361 -28 45 -29 47
-14 82 17 42 22 125 10 177 -23 103 -101 216 -184 271 -28 18 -51 35 -51 38 1
3 19 18 41 34 52 36 110 126 155 245 21 54 53 131 72 172 64 140 81 198 86
283 5 78 -14 155 -68 274 -24 55 -60 140 -79 189 -53 137 -82 189 -140 247
-57 56 -103 82 -262 145 -55 22 -127 53 -160 67 -175 79 -286 93 -410 51z
m247 -113 c21 -7 69 -27 106 -44 37 -17 118 -51 181 -75 134 -53 191 -84 226
-126 27 -32 77 -125 90 -168 4 -14 39 -98 77 -187 48 -114 70 -178 72 -215 2
-29 2 -56 0 -60 -2 -3 -19 1 -37 10 -45 23 -125 24 -173 3 -51 -23 -110 -89
-142 -160 -62 -135 -22 -339 78 -397 16 -10 30 -22 30 -26 0 -17 -97 -71 -221
-121 -74 -30 -174 -72 -224 -93 -146 -61 -218 -57 -395 23 -36 17 -119 51
-185 78 -140 56 -194 91 -234 154 -24 37 -151 333 -151 351 0 3 20 6 44 7 216
7 311 355 148 540 -16 17 -47 41 -70 53 -23 12 -42 25 -42 29 0 3 19 45 43 91
52 104 98 142 236 196 53 20 136 55 186 77 149 66 185 77 254 75 35 -1 82 -7
103 -15z m-808 -580 c39 -38 58 -89 59 -154 2 -103 -46 -185 -112 -194 -26 -3
-40 3 -69 30 -32 29 -36 38 -35 77 2 42 27 120 72 221 26 55 45 60 85 20z
m1470 -393 c46 -17 49 -41 15 -117 -17 -37 -44 -104 -61 -148 -17 -44 -34 -84
-39 -89 -14 -16 -54 20 -71 63 -36 91 -7 216 62 275 34 28 54 32 94 16z
m-1575 -377 c21 -60 70 -142 110 -182 63 -64 94 -79 521 -254 58 -23 93 -31
156 -33 101 -4 122 2 313 83 169 71 183 73 267 32 85 -41 154 -125 178 -217
16 -59 11 -93 -19 -150 -27 -51 -24 -67 28 -136 78 -101 94 -222 44 -330 -15
-32 -27 -65 -27 -74 0 -8 18 -35 41 -59 99 -108 158 -335 122 -473 -27 -105
-52 -141 -185 -261 -26 -24 -39 -45 -42 -72 -22 -150 -147 -266 -304 -282 -56
-6 -66 -14 -102 -90 -53 -111 -125 -152 -220 -125 -93 26 -95 26 -131 -24 -65
-87 -144 -103 -269 -52 -35 14 -69 26 -76 26 -7 0 -32 -16 -56 -37 -71 -60
-121 -77 -218 -77 -65 0 -96 6 -133 22 -67 30 -148 115 -170 177 -40 114 -57
125 -135 88 -63 -30 -100 -34 -168 -18 -151 35 -254 158 -270 323 -4 44 -15
56 -87 94 -147 79 -230 218 -222 371 5 90 53 160 161 230 27 18 53 44 58 59 9
25 5 33 -43 83 -66 70 -93 130 -99 221 -10 157 73 278 229 335 64 23 66 27 74
112 8 97 40 136 127 152 20 4 44 16 54 26 15 17 16 25 5 67 -22 81 -22 165 -1
200 24 39 57 61 100 66 45 4 82 -9 153 -55 62 -40 87 -41 112 -6 8 12 15 41
15 64 0 23 7 64 16 90 16 48 61 123 73 123 4 0 13 -17 20 -37z M3485 5226
c-144 -45 -208 -148 -159 -252 51 -108 241 -158 343 -91 75 50 108 167 68 243
-49 94 -147 133 -252 100z m101 -112 c20 -5 52 -48 52 -69 0 -25 -31 -65 -53
-71 -57 -14 -155 27 -155 65 0 22 25 46 70 65 38 17 54 19 86 10z M3297 4676
c-94 -35 -148 -97 -155 -180 -16 -190 227 -299 395 -177 73 53 103 160 68 235
-49 103 -198 162 -308 122z m175 -143 c62 -59 10 -143 -90 -143 -128 0 -169
121 -57 171 37 17 116 2 147 -28z M2987 3612 c-22 -24 -22 -65 1 -84 20 -18
247 -88 284 -88 47 0 73 64 38 95 -18 17 -259 95 -291 95 -9 0 -23 -8 -32 -18z
M2467 3582 c-22 -24 -22 -65 1 -84 18 -16 255 -98 283 -98 23 0 49 33 49 63 0
36 -24 49 -166 97 -135 46 -145 47 -167 22z M3644 3295 c-26 -26 -26 -56 0
-81 6 -6 72 -32 146 -58 141 -48 156 -48 183 -4 21 33 0 66 -56 87 -71 26
-234 81 -242 81 -3 0 -17 -11 -31 -25z M3065 3115 c-16 -15 -23 -31 -20 -47 4
-21 159 -178 211 -214 27 -19 71 -4 83 28 13 35 -7 64 -106 154 -48 45 -91 85
-94 88 -17 18 -52 14 -74 -9z M3866 3041 c-38 -42 -31 -56 82 -166 112 -109
141 -124 176 -89 35 35 21 66 -72 155 -130 126 -152 138 -186 100z M2197 2978
c-9 -7 -18 -25 -21 -40 -4 -23 9 -40 95 -125 55 -54 108 -102 119 -107 45 -21
97 24 80 69 -4 11 -53 64 -108 118 -103 99 -128 112 -165 85z M2580 2960 c-37
-37 -26 -58 88 -167 118 -113 147 -126 178 -78 30 46 19 61 -159 223 -52 47
-77 52 -107 22z M3531 2724 c-26 -19 -28 -64 -3 -90 9 -10 43 -43 75 -72 49
-46 62 -53 85 -47 32 7 52 31 52 59 0 26 -139 161 -167 163 -11 1 -30 -5 -42
-13z M2912 2557 c-25 -11 -37 -45 -28 -75 7 -21 44 -38 201 -92 50 -17 90 -32
90 -32 0 -1 10 4 23 11 32 17 43 50 27 81 -10 20 -37 33 -131 65 -162 54 -156
53 -182 42z M3697 2453 c-20 -23 -22 -52 -4 -76 6 -9 73 -37 147 -62 145 -50
171 -50 189 -3 17 46 -5 64 -128 108 -147 53 -180 58 -204 33z M2641 2321
c-26 -26 -27 -52 -3 -79 16 -19 245 -102 281 -102 46 0 72 55 43 90 -16 19
-215 96 -274 106 -18 4 -34 -2 -47 -15z M2081 2168 c-21 -21 -22 -61 -3 -80
13 -13 261 -98 286 -98 45 0 71 56 44 93 -12 15 -264 107 -295 107 -7 0 -21
-10 -32 -22z M3497 2028 c-10 -7 -19 -24 -22 -37 -4 -20 13 -43 98 -128 101
-103 128 -121 165 -109 25 8 41 45 32 71 -5 11 -53 64 -108 118 -102 100 -127
113 -165 85z M2361 1842 c-29 -23 -34 -59 -12 -81 23 -23 226 -94 275 -95 33
-1 42 3 55 26 28 49 6 68 -132 117 -153 53 -160 55 -186 33z M3085 1837 c-36
-55 1 -89 115 -106 77 -11 144 -21 170 -26 52 -8 89 60 53 97 -11 10 -35 21
-54 24 -19 3 -59 9 -89 15 -30 5 -83 13 -116 16 -58 5 -63 4 -79 -20z M4657
2968 c-69 -24 -96 -56 -79 -93 19 -42 40 -45 122 -19 101 31 136 77 92 117
-24 22 -63 20 -135 -5z M4483 1669 c-33 -12 -47 -45 -34 -77 9 -21 32 -35 101
-65 59 -24 99 -35 114 -31 23 5 44 37 40 62 -1 6 -2 16 -3 22 -3 23 -190 100
-218 89z M3997 1472 c-22 -24 -21 -58 2 -81 26 -26 265 -105 295 -97 15 4 28
18 34 36 17 48 -13 71 -155 119 -138 46 -153 48 -176 23z"/>
</g>
</svg>
