<svg xmlns="http://www.w3.org/2000/svg" viewBox="0 0 1024 1024">
<g transform="translate(0,1024) scale(0.1,-0.1)">
<path fill="currentColor" d="M2025 9153 c-208 -43 -388 -197 -470 -400 -13 -32 -26 -71 -29 -88
-45 -236 -60 -384 -60 -590 0 -111 10 -296 18 -341 2 -10 7 -44 11 -74 4 -30
9 -64 11 -75 2 -11 7 -33 10 -50 9 -54 54 -228 80 -309 l24 -78 -64 -69 c-80
-84 -211 -241 -227 -271 -17 -31 -15 -98 5 -138 20 -44 73 -80 125 -87 64 -9
115 24 196 124 39 48 117 136 175 196 106 109 139 160 140 208 0 15 -18 71
-39 125 -57 144 -97 291 -117 424 -3 19 -7 46 -10 60 -22 131 -22 528 2 680
37 242 47 271 114 344 59 64 134 98 221 102 86 3 121 -8 313 -104 83 -40 191
-93 240 -117 50 -24 207 -100 349 -169 142 -69 272 -129 290 -134 50 -13 86 0
203 73 208 131 525 260 762 310 9 2 49 10 87 18 74 16 110 22 190 32 28 4 61
8 75 11 130 22 595 22 720 0 14 -3 50 -7 81 -11 31 -3 65 -7 75 -9 11 -2 39
-7 64 -11 25 -4 54 -9 65 -11 11 -2 31 -6 45 -9 53 -10 72 -14 88 -19 9 -3 28
-7 42 -10 177 -34 580 -172 810 -279 41 -19 102 -47 134 -62 59 -27 104 -33
146 -20 13 4 248 117 524 252 276 134 525 251 555 259 114 34 247 -6 329 -100
50 -57 72 -109 87 -211 25 -173 34 -195 91 -234 74 -51 183 -21 226 62 24 48
21 116 -12 277 -55 267 -248 466 -511 526 -55 13 -198 11 -264 -3 -41 -8 -130
-43 -215 -83 -194 -92 -840 -407 -847 -413 -2 -3 -70 24 -149 59 -165 72 -392
158 -539 203 -96 29 -310 86 -357 95 -13 2 -61 11 -108 20 -47 9 -101 19 -120
22 -19 2 -44 6 -55 9 -11 2 -47 7 -80 10 -33 4 -71 8 -85 11 -137 22 -627 22
-760 0 -14 -3 -47 -7 -75 -11 -148 -18 -247 -38 -413 -81 -240 -62 -507 -170
-713 -289 l-77 -45 -124 61 c-68 34 -181 90 -253 124 -71 35 -227 110 -345
167 -197 96 -275 129 -341 144 -55 13 -198 11 -264 -3z M5228 8266 c-1 -2 -84
-6 -183 -10 -99 -3 -191 -8 -205 -10 -14 -2 -54 -7 -90 -11 -65 -6 -88 -9
-165 -20 -22 -3 -56 -8 -75 -11 -29 -4 -113 -19 -230 -41 -14 -2 -45 -9 -70
-14 -25 -6 -56 -13 -70 -15 -46 -9 -294 -75 -392 -105 -101 -31 -148 -61 -173
-110 -31 -59 -12 -145 43 -191 50 -42 79 -43 189 -9 89 27 332 90 408 105 60
12 81 16 110 21 17 3 37 8 45 10 8 2 33 7 55 10 23 3 50 7 62 9 12 3 43 7 70
11 26 4 58 8 71 10 13 2 53 7 90 11 37 3 74 8 84 9 126 24 763 24 898 1 14 -3
43 -7 65 -11 36 -5 80 -12 125 -20 125 -23 315 -81 483 -147 111 -43 134 -49
173 -43 135 20 181 189 75 278 -67 56 -470 192 -661 223 -14 2 -34 6 -46 9
-12 3 -39 7 -60 10 -21 4 -50 8 -64 11 -14 2 -52 6 -85 10 -33 3 -71 8 -85 10
-14 2 -101 7 -195 10 -93 3 -175 7 -182 9 -6 2 -13 2 -15 1z M8519 7917 c-44
-29 -76 -96 -83 -177 -7 -72 -6 -68 -41 -235 -12 -58 -52 -180 -96 -293 -16
-40 -29 -85 -29 -100 1 -48 33 -100 121 -189 326 -335 631 -798 803 -1222 29
-72 29 -71 19 -70 -5 1 -65 1 -134 0 -113 -1 -129 -3 -159 -24 -68 -45 -87
-108 -60 -202 10 -33 33 -116 53 -185 32 -110 76 -296 92 -385 18 -99 45 -279
50 -330 4 -33 8 -71 10 -84 15 -92 23 -476 15 -688 l-4 -93 -26 17 c-14 9 -56
38 -94 64 -102 72 -173 77 -241 18 -35 -31 -50 -65 -60 -134 -3 -23 -7 -52
-10 -65 -3 -14 -8 -41 -11 -60 -4 -19 -8 -44 -10 -55 -3 -11 -7 -33 -9 -49
-30 -159 -188 -689 -219 -732 -9 -12 -20 6 -55 93 -88 215 -111 244 -205 249
-92 5 -95 1 -376 -407 -140 -203 -258 -369 -261 -369 -14 0 -149 154 -145 165
54 119 98 255 121 370 11 55 14 269 4 330 -48 301 -242 567 -501 689 -61 29
-110 80 -147 153 -24 48 -67 192 -75 252 -3 22 -9 60 -12 84 -14 109 -112 175
-209 141 -111 -38 -131 -126 -79 -354 66 -290 217 -508 399 -571 52 -18 154
-115 209 -198 71 -108 98 -195 102 -331 4 -151 -18 -250 -94 -413 l-36 -78
-130 -63 c-173 -85 -406 -169 -525 -191 -14 -3 -37 -7 -51 -10 -104 -21 -276
-24 -366 -5 -123 26 -246 100 -304 186 -18 25 -30 47 -28 48 1 2 28 16 58 32
75 39 207 173 258 259 240 410 54 888 -388 1000 -99 26 -143 28 -445 29 -323
0 -366 -4 -489 -45 -230 -77 -402 -277 -433 -502 -32 -233 54 -478 223 -638
53 -50 80 -70 167 -123 l28 -17 -33 -46 c-55 -77 -182 -158 -283 -179 -116
-25 -288 -22 -415 7 -25 6 -54 12 -65 15 -105 20 -312 98 -481 180 l-131 64
-42 91 c-108 232 -120 472 -32 649 69 138 156 229 281 291 183 91 307 273 370
543 24 104 31 148 31 214 3 201 -284 225 -315 26 -6 -42 -17 -138 -16 -144 1
-3 -13 -45 -30 -95 -53 -149 -123 -240 -210 -272 -143 -52 -326 -254 -411
-453 -61 -143 -74 -215 -73 -400 0 -174 30 -300 117 -501 l16 -36 -74 -79
c-47 -51 -77 -75 -83 -69 -5 6 -118 168 -251 362 -133 193 -255 363 -272 377
-58 49 -146 46 -202 -7 -24 -23 -51 -73 -93 -174 -32 -79 -62 -143 -65 -143
-11 0 -127 359 -168 520 -45 173 -78 329 -96 455 -9 61 -15 77 -42 114 -30 39
-77 61 -132 61 -33 0 -58 -12 -136 -65 -53 -36 -100 -65 -104 -65 -21 0 -18
653 3 766 2 10 7 50 11 87 3 37 8 76 10 85 1 9 6 37 9 62 3 25 8 56 11 70 2
13 7 42 10 65 14 95 70 330 117 489 28 94 51 188 50 209 0 49 -39 109 -86 131
-28 13 -66 17 -161 18 -122 2 -125 2 -119 22 18 61 85 210 161 358 78 153 85
172 81 212 -18 156 -212 194 -298 59 -98 -154 -260 -531 -311 -724 -20 -75
-21 -91 -11 -127 14 -45 43 -81 82 -102 23 -12 94 -18 226 -20 l62 0 -29 -107
c-28 -103 -81 -352 -94 -438 -7 -50 -14 -92 -20 -125 -2 -14 -7 -52 -11 -85
-3 -33 -8 -67 -9 -76 -2 -8 -6 -55 -10 -105 -4 -49 -9 -105 -11 -124 -5 -45
-5 -454 0 -500 2 -19 7 -69 10 -110 12 -131 43 -313 59 -345 28 -57 75 -86
142 -90 47 -3 72 9 167 77 102 72 96 74 113 -22 3 -14 27 -115 55 -225 107
-425 221 -688 348 -807 62 -58 102 -79 160 -83 91 -6 125 29 197 206 32 76 60
139 64 139 3 -1 105 -145 226 -321 121 -177 233 -332 248 -345 33 -28 83 -39
135 -29 38 7 79 44 285 263 38 39 73 72 78 72 4 0 49 -20 98 -44 49 -24 138
-63 198 -86 59 -22 120 -46 135 -52 18 -6 48 -41 84 -95 157 -236 375 -435
624 -570 121 -65 345 -148 450 -167 14 -2 36 -7 50 -10 156 -35 599 -43 692
-11 7 2 29 6 48 9 142 22 377 118 554 228 222 138 451 361 580 566 15 24 32
45 39 47 94 31 235 88 326 131 63 30 117 54 122 54 4 0 36 -30 71 -67 205
-218 253 -262 291 -268 51 -10 101 1 134 29 15 13 127 168 248 345 121 176
223 321 226 321 4 0 32 -63 64 -139 71 -174 106 -211 192 -206 213 13 382 333
548 1038 27 112 41 157 50 153 7 -2 46 -28 86 -57 89 -63 131 -82 175 -76 77
11 136 71 149 154 5 27 10 55 11 63 2 8 6 35 10 60 3 25 8 54 10 64 26 137 26
795 0 933 -2 10 -7 43 -10 73 -4 30 -8 66 -11 80 -2 14 -6 43 -10 65 -6 41
-21 131 -30 175 -3 14 -8 39 -11 55 -11 64 -56 258 -74 320 l-19 65 107 1
c132 1 158 5 200 31 66 41 84 115 52 215 -182 565 -498 1103 -885 1511 -33 35
-63 69 -66 75 -4 7 8 57 26 112 60 184 99 383 100 510 0 69 -3 85 -23 110 -52
66 -149 85 -213 42z m-3013 -4520 c98 -36 164 -98 205 -193 24 -56 29 -171 10
-241 -27 -99 -139 -210 -308 -303 l-98 -55 -181 -3 -182 -3 -103 52 c-177 88
-262 159 -306 255 -97 213 1 442 214 496 79 21 693 16 749 -5z m-141 -1168
c36 -62 130 -161 205 -216 88 -66 233 -133 322 -148 17 -3 36 -9 41 -12 5 -3
62 -7 126 -9 64 -2 118 -3 120 -4 6 0 -71 -73 -134 -126 -200 -169 -448 -276
-720 -310 -42 -5 -386 -6 -410 -1 -11 3 -42 8 -70 11 -172 23 -372 102 -535
211 -87 58 -250 197 -250 213 0 4 48 7 108 8 234 1 459 101 623 276 31 33 69
82 85 109 l29 49 215 0 215 0 30 -51z M4989 7476 c-2 -2 -43 -6 -90 -10 -47
-4 -95 -8 -105 -10 -10 -2 -46 -7 -78 -11 -33 -3 -107 -15 -165 -26 -59 -11
-119 -23 -136 -26 -54 -9 -329 -82 -390 -103 -92 -32 -135 -83 -135 -161 0
-81 73 -159 149 -159 17 0 82 15 144 34 107 33 347 88 432 101 23 3 50 7 62 9
12 3 43 7 70 11 26 4 59 9 73 11 164 26 621 26 775 -1 69 -13 142 -26 166 -30
60 -11 210 -59 303 -96 54 -21 114 -39 132 -39 95 0 164 74 159 167 -5 82 -45
120 -184 174 -177 69 -343 113 -526 139 -44 6 -93 13 -110 16 -33 6 -540 15
-546 10z M2104 6374 c-58 -19 -99 -72 -115 -147 -22 -104 -21 -344 2 -472 67
-371 257 -676 590 -946 205 -166 268 -318 234 -570 -14 -109 51 -191 154 -192
56 -1 114 30 137 75 44 85 51 302 14 443 -44 171 -151 337 -290 452 -119 99
-231 206 -285 272 -125 154 -216 359 -243 540 -9 62 -8 270 2 357 7 59 6 77
-9 107 -33 70 -118 106 -191 81z M8009 6359 c-20 -12 -47 -40 -59 -62 -20 -36
-22 -46 -14 -111 10 -87 11 -305 2 -363 -30 -178 -115 -370 -232 -521 -53 -69
-176 -188 -272 -264 -162 -129 -265 -283 -314 -473 -36 -136 -31 -347 10 -436
36 -78 157 -105 228 -52 66 49 71 72 59 253 -12 180 64 338 221 462 332 261
527 559 603 921 17 77 22 140 23 257 2 244 -18 333 -84 380 -47 34 -123 38
-171 9z M3077 6314 c-1 -1 -27 -3 -57 -5 -81 -4 -121 -17 -157 -52 -60 -57
-64 -115 -22 -280 120 -471 492 -852 1069 -1095 190 -80 241 -87 312 -45 20
12 43 34 51 50 20 39 59 195 75 298 9 66 9 339 -1 390 -81 422 -414 675 -962
731 -65 6 -303 13 -308 8z m308 -329 c289 -32 497 -140 584 -304 55 -104 76
-193 74 -316 -1 -60 -4 -119 -6 -130 -3 -11 -6 -26 -6 -32 -2 -22 -28 -15
-123 33 -321 161 -585 403 -688 629 -29 65 -50 117 -50 125 0 9 121 6 215 -5z
M6947 6314 c-1 -1 -38 -4 -82 -8 -44 -3 -90 -8 -101 -10 -12 -2 -38 -7 -58
-10 -460 -73 -767 -356 -820 -756 -8 -59 -8 -221 -1 -290 18 -150 64 -333 95
-372 24 -31 78 -58 115 -58 48 0 235 69 380 139 365 178 647 431 805 723 53
100 85 181 116 297 45 172 42 231 -14 283 -39 37 -61 46 -127 53 -53 7 -302
14 -308 9z m103 -338 c-1 -44 -50 -159 -103 -239 -94 -141 -256 -287 -455
-410 -102 -63 -245 -137 -266 -137 -31 0 -44 205 -20 315 17 77 81 216 116
255 89 97 259 183 409 205 24 4 46 8 49 10 3 2 41 6 85 10 44 4 81 8 82 9 1 0
24 1 52 2 45 1 51 -2 51 -20z"/>
</g>
</svg>
