<svg xmlns="http://www.w3.org/2000/svg" viewBox="0 0 1024 1024">
<g transform="translate(0,1024) scale(0.1,-0.1)">
<path fill="currentColor" d="M8015 9781 c-64 -29 -94 -63 -131 -153 -77 -187 -193 -297 -442 -422
-50 -25 -127 -60 -170 -77 -71 -29 -438 -159 -448 -159 -2 0 14 28 36 61 63
98 76 178 41 254 -19 43 -77 100 -120 117 -87 35 -169 15 -258 -64 -57 -51
-121 -96 -171 -122 -33 -17 -33 -17 -69 15 -20 17 -51 38 -69 45 -44 18 -124
18 -171 -1 -117 -46 -333 -53 -463 -13 -88 26 -147 65 -234 151 -49 49 -104
96 -122 103 -43 18 -145 18 -187 0 -18 -7 -68 -44 -112 -81 -144 -122 -249
-181 -360 -203 -69 -14 -220 -5 -305 17 -47 12 -104 23 -127 23 -50 0 -119
-30 -152 -66 -14 -14 -31 -26 -38 -26 -30 0 -132 62 -198 119 -76 66 -133 91
-198 85 -85 -9 -173 -84 -197 -170 -17 -60 -2 -126 45 -199 19 -30 33 -55 30
-55 -9 0 -407 140 -480 170 -113 45 -241 114 -316 170 -104 78 -225 211 -283
312 -39 67 -100 133 -143 154 -47 23 -137 27 -183 8 -48 -20 -108 -80 -195
-196 -274 -362 -361 -745 -260 -1144 47 -184 131 -369 247 -544 72 -108 116
-155 160 -173 l32 -13 -45 -26 c-55 -33 -80 -66 -109 -148 -42 -122 -40 -119
-285 -295 -394 -282 -552 -445 -670 -690 -108 -223 -111 -310 -15 -405 51 -52
97 -69 169 -65 l49 3 -50 -86 c-105 -182 -187 -362 -257 -564 -42 -122 -105
-361 -115 -438 -3 -25 -8 -56 -11 -70 -3 -14 -8 -45 -11 -70 -3 -25 -7 -56
-10 -70 -12 -79 -19 -221 -19 -420 0 -212 1 -227 22 -266 25 -47 83 -101 117
-110 20 -5 23 -11 19 -37 -8 -65 -9 -303 -1 -361 13 -96 62 -162 143 -194 56
-22 100 -21 171 2 20 6 23 2 33 -56 16 -90 17 -97 36 -163 35 -126 69 -214
128 -333 67 -136 118 -202 181 -234 77 -40 179 -28 239 28 14 13 28 24 30 24
3 0 31 -42 63 -92 251 -398 475 -677 684 -852 157 -132 428 -286 503 -286 79
0 162 39 188 87 12 23 34 31 41 15 6 -17 186 -157 278 -218 194 -127 375 -205
727 -314 125 -39 263 -84 305 -101 191 -75 305 -168 370 -301 56 -116 126
-162 234 -157 31 2 64 13 97 33 44 27 57 44 99 121 93 173 225 265 518 357 80
26 225 71 323 102 224 72 390 141 521 220 101 61 253 173 290 215 25 27 29 27
68 -10 97 -89 201 -82 390 26 197 114 364 244 549 427 194 193 344 392 458
608 52 100 60 110 73 96 27 -27 92 -55 135 -60 53 -5 136 23 173 59 75 71 232
473 267 680 3 17 7 37 8 45 2 8 4 18 4 22 1 4 17 0 36 -8 105 -43 236 12 286
121 17 36 18 59 14 220 -3 99 -7 197 -9 217 -5 36 -3 38 37 56 45 20 102 78
119 121 17 43 23 135 23 336 0 170 -10 357 -20 389 -2 6 -6 27 -9 46 -3 19 -8
53 -11 75 -11 74 -64 281 -100 394 -68 209 -186 466 -299 649 -31 50 -56 92
-56 94 0 2 15 2 33 0 119 -14 237 98 237 225 0 49 -47 189 -96 283 -115 223
-313 420 -662 659 -152 104 -189 142 -248 255 -53 104 -93 151 -142 167 l-34
11 49 22 c59 28 94 67 195 220 258 390 321 728 213 1131 -67 246 -181 450
-347 616 -91 90 -134 115 -205 117 -38 1 -72 -4 -98 -17z m186 -289 c111 -128
216 -340 259 -526 76 -327 24 -568 -195 -911 -83 -130 -109 -163 -77 -100 46
95 105 263 117 340 3 17 9 55 14 85 5 30 8 107 6 170 -5 192 -61 353 -155 450
-100 103 -134 92 -398 -133 -163 -140 -285 -232 -345 -261 -89 -44 -145 -48
-407 -31 -234 16 -340 10 -480 -24 -119 -29 -129 -13 -27 43 94 52 233 109
505 206 411 146 557 211 718 318 163 110 290 257 343 400 l23 61 33 -25 c19
-14 48 -42 66 -62z m-6050 6 c164 -244 323 -390 541 -497 134 -65 211 -95 513
-201 138 -48 291 -104 340 -124 139 -58 295 -146 258 -146 -5 0 -56 9 -114 19
-163 30 -171 31 -394 36 -325 7 -417 21 -550 85 -84 41 -120 68 -260 196 -95
88 -212 170 -255 179 -37 8 -80 -14 -135 -70 -78 -77 -134 -192 -160 -328 -14
-70 -14 -263 0 -332 17 -88 50 -200 81 -275 50 -121 50 -120 9 -65 -169 229
-275 529 -276 785 -1 116 6 171 36 275 29 99 69 185 132 287 49 79 172 237
185 238 4 0 26 -28 49 -62z m3025 -232 c63 -69 170 -149 242 -182 107 -49 204
-68 352 -69 158 0 208 6 312 38 l48 15 -19 -27 c-19 -27 -71 -137 -71 -151 0
-9 268 65 341 95 73 29 167 86 233 140 78 63 82 63 38 -2 -61 -90 -142 -158
-315 -266 -86 -54 -162 -107 -167 -118 -24 -45 10 -73 300 -244 183 -108 306
-201 450 -339 141 -135 246 -187 375 -188 127 -1 258 47 366 135 55 45 121
131 134 174 8 29 -1 26 -116 -42 -125 -74 -211 -100 -329 -99 -106 1 -177 20
-273 75 -58 34 -63 42 -24 45 258 16 616 200 877 450 53 52 102 94 107 94 5 0
20 -30 34 -67 21 -58 24 -86 24 -193 0 -141 -5 -179 -39 -300 -58 -210 -143
-347 -263 -425 -24 -15 -43 -30 -43 -32 0 -3 26 -41 58 -86 33 -45 71 -109 86
-142 32 -69 81 -215 90 -266 7 -41 15 -85 22 -119 8 -37 17 -336 11 -330 -6 6
-12 37 -22 115 -26 221 -96 405 -197 519 -49 57 -122 106 -155 106 l-23 0 25
-37 c64 -96 94 -197 101 -348 3 -60 7 -119 9 -129 6 -31 -10 -7 -91 134 -176
307 -292 456 -579 745 -234 236 -404 374 -555 450 -30 15 -138 64 -240 107
-260 111 -341 162 -379 236 -20 40 -16 64 24 156 15 35 15 38 0 33 -111 -43
-302 -63 -425 -44 -111 17 -231 74 -330 157 -26 22 -52 40 -57 40 -6 0 -36
-23 -69 -52 -167 -146 -457 -192 -733 -118 -19 5 -36 8 -38 6 -2 -2 6 -15 17
-29 12 -15 28 -46 36 -71 14 -40 14 -47 0 -74 -27 -52 -97 -103 -226 -164
-439 -210 -489 -241 -769 -470 -173 -143 -179 -148 -279 -243 -213 -202 -377
-440 -502 -726 l-48 -111 -7 53 c-26 212 5 331 116 448 27 28 49 53 49 56 0 9
-109 -34 -146 -58 -105 -66 -195 -209 -219 -349 -3 -17 -7 -34 -9 -37 -3 -5
-11 -66 -21 -161 -2 -14 -3 -56 -4 -94 -1 -68 -8 -83 -16 -35 -2 13 -7 40 -10
59 -14 79 -14 335 0 400 30 141 97 258 211 372 37 37 66 69 63 71 -2 2 -34 24
-71 50 -36 26 -89 72 -117 104 -133 149 -207 429 -177 676 8 69 47 189 62 194
6 2 94 -62 195 -142 370 -293 478 -350 709 -371 36 -4 67 -8 68 -9 9 -8 -150
-87 -209 -106 -175 -54 -346 -13 -471 114 -32 32 -62 57 -67 55 -5 -1 -2 -27
5 -56 46 -177 270 -311 499 -300 149 8 230 51 423 226 110 100 138 121 389
286 231 152 293 201 293 233 0 29 -41 66 -160 145 -166 111 -218 157 -292 260
-32 44 -30 43 52 -24 90 -73 247 -140 380 -162 19 -3 66 -14 105 -25 38 -11
71 -18 72 -17 5 5 -23 80 -47 125 -20 39 -20 42 -3 37 173 -50 362 -54 528
-11 136 35 304 137 387 236 23 27 44 49 48 49 4 0 29 -24 56 -54z m49 -616
c100 -75 248 -136 495 -205 299 -84 460 -144 660 -247 360 -185 616 -449 686
-708 20 -76 28 -312 13 -405 -5 -33 -11 -73 -14 -90 -9 -58 -15 -83 -40 -170
-31 -108 -55 -155 -106 -210 -55 -59 -106 -75 -220 -70 -49 2 -93 6 -97 9 -10
6 -142 19 -192 19 -165 1 -298 -52 -418 -167 -154 -147 -288 -423 -354 -728
-19 -87 -22 -133 -22 -298 0 -212 12 -282 70 -411 31 -69 42 -70 24 -2 -23 89
-25 108 -24 208 0 153 50 301 140 419 l37 49 18 -47 c27 -72 81 -137 181 -219
89 -72 105 -76 54 -12 -84 103 -121 196 -125 313 -3 77 10 128 42 178 l21 31
55 -26 c46 -21 71 -26 141 -26 78 0 92 3 163 37 162 77 283 253 302 438 2 23
7 45 9 47 3 3 31 6 64 8 73 4 132 29 194 84 l46 41 -3 -40 c-6 -68 -16 -103
-58 -185 -102 -205 -278 -411 -449 -525 -117 -78 -183 -103 -280 -104 -42 -1
-74 -4 -70 -8 4 -4 37 -18 74 -32 92 -35 239 -32 340 6 139 52 262 151 331
265 36 59 81 180 90 241 8 52 14 48 22 -15 23 -189 -24 -326 -152 -444 -69
-62 -182 -130 -288 -170 -44 -17 -82 -33 -84 -35 -3 -2 47 -2 110 0 279 10
480 119 575 310 19 39 37 81 39 94 3 12 7 32 11 45 3 12 5 56 6 97 0 60 -6 93
-32 165 -33 93 -72 221 -66 214 45 -46 207 -263 254 -341 l64 -103 -6 77 c-7
87 -15 151 -22 188 -9 46 51 -36 106 -145 111 -222 99 -425 -42 -688 -69 -126
-146 -234 -313 -437 -75 -91 -143 -178 -151 -193 l-15 -28 34 5 c140 22 299
138 402 292 57 85 57 85 31 3 -75 -236 -180 -416 -344 -590 -73 -77 -87 -88
-93 -73 -4 11 -19 59 -34 109 -34 114 -93 234 -159 321 -69 93 -197 221 -275
273 -135 92 -307 155 -456 167 l-70 6 60 -32 c361 -196 575 -468 659 -840 37
-160 42 -412 12 -555 -59 -281 -208 -498 -428 -623 -59 -33 -212 -90 -267 -98
-20 -3 -55 -9 -78 -14 -68 -12 -282 -10 -370 5 -114 18 -187 41 -263 81 -110
58 -169 126 -195 222 l-13 51 79 45 c88 52 172 119 299 241 47 45 110 104 140
131 31 27 89 78 129 114 168 149 254 322 260 526 5 148 -30 253 -121 369 -63
81 -77 115 -67 169 l6 39 -19 -24 c-34 -42 -58 -103 -58 -147 0 -23 14 -84 31
-135 44 -128 46 -237 6 -319 -41 -84 -45 -86 -127 -54 -108 43 -165 55 -240
52 -63 -3 -83 -10 -221 -76 l-152 -74 -109 58 c-152 80 -201 96 -296 92 -56
-2 -108 -13 -190 -40 -128 -42 -127 -43 -166 36 -36 71 -30 129 24 243 78 163
80 238 11 317 l-37 41 0 -44 c0 -57 -19 -93 -106 -209 -97 -129 -112 -165
-115 -272 -3 -129 39 -258 125 -385 61 -89 135 -162 316 -313 28 -23 51 -43
189 -170 76 -70 156 -127 234 -167 69 -36 71 -39 66 -68 -20 -111 -95 -196
-228 -260 -281 -135 -666 -119 -951 40 -224 125 -411 443 -449 763 -9 72 -9
262 0 342 33 313 192 569 560 898 38 34 66 62 61 62 -25 0 -227 -89 -298 -131
-282 -170 -447 -375 -551 -686 l-34 -102 -104 102 c-57 56 -128 134 -157 172
-95 127 -185 328 -207 465 l-7 45 43 -56 c24 -31 89 -103 143 -160 54 -57 135
-149 179 -204 44 -55 81 -102 83 -104 2 -2 1 7 -1 20 -3 13 -7 41 -10 62 -11
72 -56 210 -91 280 -45 90 -70 124 -178 234 -103 107 -135 152 -175 248 -62
148 -75 358 -32 520 20 77 83 219 114 260 14 18 15 15 15 -51 0 -66 9 -150 19
-166 2 -4 19 22 38 58 74 141 231 326 310 364 78 38 206 22 280 -34 47 -36 82
-91 140 -219 79 -176 143 -231 277 -242 35 -2 95 -7 133 -10 120 -8 180 -35
236 -106 31 -40 32 -42 26 -117 -7 -88 -34 -181 -82 -288 -19 -41 -31 -74 -28
-74 3 0 40 33 82 74 103 100 191 180 202 184 13 5 65 -111 85 -188 11 -42 17
-108 18 -187 1 -68 4 -123 8 -123 15 0 65 185 83 305 8 51 7 216 -1 275 -41
307 -269 700 -485 837 -126 79 -259 102 -449 79 -145 -18 -252 -16 -297 4 -56
25 -74 43 -118 115 -33 55 -77 175 -90 243 -3 15 -7 38 -10 52 -19 93 -26 340
-12 460 10 84 33 174 57 221 46 89 305 317 520 459 196 128 365 200 699 296
317 91 467 154 621 258 63 43 66 43 95 28 16 -8 52 -32 80 -52z m2180 -1320
c56 -143 109 -251 204 -413 27 -45 101 -174 165 -285 142 -249 203 -340 276
-414 31 -32 56 -58 55 -58 -10 0 -177 54 -227 73 l-67 26 15 -47 c17 -57 70
-300 79 -362 4 -24 8 -47 10 -50 1 -3 6 -30 9 -61 4 -31 9 -67 11 -80 26 -131
26 -489 0 -631 -3 -16 -7 -38 -9 -50 -77 -432 -385 -848 -760 -1027 -67 -32
-238 -92 -244 -86 -6 6 39 45 203 173 458 357 644 670 682 1147 11 140 4 478
-11 561 -2 10 -7 54 -11 97 -3 43 -8 88 -10 100 -2 12 -6 48 -10 81 -4 32 -8
68 -10 80 -2 11 -6 44 -10 71 -16 139 -72 382 -103 455 -13 28 -16 31 -19 15
-20 -107 -101 -186 -185 -180 -51 4 -119 45 -152 94 -26 38 -80 171 -69 171 2
0 19 -11 36 -24 18 -13 47 -31 66 -41 37 -18 141 -56 141 -51 0 2 -18 23 -41
47 -89 95 -137 196 -156 327 -6 34 -9 62 -7 62 1 0 15 -24 32 -52 49 -87 129
-158 197 -174 l29 -7 -19 29 c-53 80 -114 246 -130 351 -3 21 -7 48 -9 59 -3
12 -7 57 -11 100 -4 43 -9 93 -11 109 -9 56 14 12 71 -135z m-5322 45 c-2 -92
-30 -177 -87 -263 -58 -87 -130 -154 -310 -289 -78 -58 -145 -110 -150 -114
-10 -9 -6 -8 74 11 44 11 196 15 235 7 208 -46 271 -126 192 -243 -18 -27
-116 -131 -217 -232 -249 -246 -358 -389 -472 -617 -85 -170 -156 -370 -212
-598 -33 -133 -75 -337 -69 -337 2 0 17 16 34 35 100 114 280 202 471 230 23
4 47 9 52 12 5 4 7 2 4 -3 -3 -5 -47 -81 -98 -168 -51 -88 -123 -223 -160
-300 -64 -133 -172 -392 -190 -456 l-8 -29 71 48 c88 60 152 92 237 119 97 32
123 35 115 14 -12 -32 -55 -221 -70 -309 -14 -88 -15 -390 -1 -458 4 -16 14
-68 23 -114 l17 -85 18 44 c56 131 175 224 315 243 30 5 31 4 38 -42 12 -85
84 -348 131 -478 47 -130 136 -324 159 -347 7 -7 32 -44 55 -82 23 -38 44 -70
45 -72 1 -2 19 5 38 14 28 13 43 31 65 78 78 163 273 347 367 346 19 -1 19 -1
3 -14 -26 -19 -22 -22 17 -18 19 2 35 7 35 11 0 3 -19 17 -43 30 -106 60 -329
214 -387 267 -246 225 -431 519 -507 804 -14 52 -27 98 -30 102 -2 4 -25 -22
-50 -59 -25 -36 -62 -88 -84 -115 l-38 -49 0 138 c1 76 -2 271 -5 433 -3 162
-2 320 3 350 5 30 12 75 16 100 17 115 84 379 129 505 8 22 13 41 11 43 -10
10 -225 -56 -304 -94 -52 -24 -96 -42 -99 -39 -3 2 7 33 22 67 98 228 280 403
488 473 71 23 198 45 198 33 0 -3 -60 -48 -132 -101 -73 -53 -153 -115 -178
-137 -45 -40 -45 -40 -15 -35 57 10 223 18 240 11 12 -4 14 -10 7 -19 -10 -13
-86 -225 -128 -356 -27 -86 -70 -272 -78 -343 -3 -27 -9 -69 -12 -95 -9 -67
-8 -282 1 -383 4 -47 7 -91 8 -98 1 -27 19 9 86 176 82 200 90 217 101 206 5
-5 59 -108 120 -229 228 -447 300 -557 462 -710 152 -144 298 -228 568 -327
102 -37 104 -38 50 -33 -343 34 -696 225 -931 505 -90 107 -182 267 -255 442
-37 90 -38 89 -35 -42 7 -304 152 -619 400 -870 230 -233 390 -318 826 -440
242 -68 311 -99 395 -177 83 -76 146 -220 164 -373 l5 -45 -43 82 c-137 262
-311 367 -606 367 -232 0 -394 -86 -479 -254 -42 -82 -54 -148 -48 -253 6 -94
7 -105 30 -191 l13 -49 13 44 c30 103 98 208 183 282 80 71 220 139 339 166
36 8 40 7 34 -7 -96 -248 -3 -571 234 -810 128 -130 289 -241 516 -356 100
-51 217 -108 260 -125 6 -2 -15 23 -45 56 -66 71 -123 180 -149 283 -20 77
-23 260 -6 341 l7 37 -43 -5 -44 -4 52 30 c70 39 141 92 179 133 39 42 78 98
72 104 -3 2 -20 -2 -39 -9 -51 -21 -136 -20 -209 2 -36 11 -63 20 -60 21 3 1
23 3 45 6 71 7 138 24 198 51 54 24 58 28 41 40 -93 66 -147 166 -180 326 -2
11 -6 46 -10 79 l-7 59 49 -27 c79 -44 126 -79 176 -130 63 -66 76 -84 143
-194 32 -52 71 -112 87 -133 37 -46 40 -44 108 67 28 44 50 74 51 66 2 -29 -2
-106 -7 -142 -3 -23 -1 -38 5 -38 16 0 69 58 116 128 l43 64 16 -54 c8 -30 21
-78 28 -107 l12 -53 23 44 c35 68 83 195 83 222 0 14 5 28 10 31 6 4 9 3 8 -2
-1 -4 8 -46 21 -92 12 -46 24 -92 27 -102 2 -10 6 -29 10 -41 3 -13 7 -34 10
-48 3 -13 7 -26 9 -29 7 -6 25 46 57 169 17 63 34 124 39 135 5 11 8 13 6 5
-5 -21 20 -104 45 -148 11 -20 31 -58 46 -85 23 -46 26 -48 34 -27 4 12 11 36
14 53 10 59 26 117 33 117 3 0 23 -24 44 -53 20 -28 58 -74 83 -102 l46 -50
-6 50 c-3 28 -8 82 -11 120 l-6 70 40 -62 c22 -34 50 -80 63 -102 13 -23 28
-39 33 -38 6 2 53 73 107 158 116 185 184 263 268 308 34 18 63 31 66 29 6 -7
-34 -226 -53 -283 -18 -59 -46 -109 -81 -147 l-25 -28 45 -20 c25 -11 89 -32
142 -47 81 -23 93 -29 74 -36 -39 -15 -193 -21 -228 -8 -32 11 -32 10 -25 -17
12 -50 108 -133 229 -199 l61 -33 -50 6 c-27 3 -59 8 -70 12 -11 3 -25 7 -32
8 -28 5 -130 57 -184 94 -33 22 -59 38 -59 34 0 -3 11 -20 24 -37 32 -43 72
-124 82 -167 4 -19 9 -38 10 -42 1 -5 2 -15 3 -23 0 -8 5 -15 10 -15 15 0 51
66 51 94 l0 26 68 -6 c37 -4 69 -8 71 -10 3 -2 4 -55 4 -117 -2 -224 -55 -369
-181 -496 -41 -41 -68 -72 -60 -69 7 3 51 20 98 38 108 42 323 152 420 214
201 129 348 275 435 429 92 167 127 387 91 580 -7 37 -11 67 -9 67 1 0 29 -20
60 -44 32 -24 99 -65 148 -91 115 -61 163 -94 198 -136 33 -39 78 -126 97
-184 19 -59 21 -61 37 -24 39 89 54 167 57 289 6 187 -60 302 -216 378 -95 47
-160 58 -333 56 -92 -1 -123 -5 -190 -28 -147 -50 -249 -125 -325 -236 -36
-54 -87 -167 -93 -209 -7 -48 -14 -26 -11 36 7 153 55 264 159 368 113 114
210 157 585 260 116 32 240 84 340 143 226 133 440 363 559 600 38 75 96 232
107 286 18 93 25 143 30 219 3 48 3 87 0 87 -3 0 -32 -55 -65 -123 -168 -349
-403 -592 -716 -743 -100 -48 -241 -97 -319 -109 -17 -3 -42 -7 -56 -10 -14
-2 -50 -7 -80 -10 -54 -5 -52 -4 50 33 273 99 471 222 656 406 176 177 299
370 440 694 32 73 61 129 64 125 4 -5 52 -69 108 -143 56 -74 110 -146 122
-160 l20 -25 -6 60 c-3 33 -7 71 -9 85 -2 14 -7 52 -10 85 -4 33 -8 71 -10 85
-2 14 -7 52 -11 85 -3 33 -8 68 -10 79 -2 10 -6 44 -10 75 -3 31 -8 59 -10 62
-1 3 -6 28 -10 55 -18 136 -94 395 -156 532 -15 35 -26 67 -24 71 3 4 58 8
123 10 65 1 120 4 122 7 15 15 -200 180 -258 199 -42 13 -20 22 32 13 160 -29
313 -114 443 -246 102 -104 158 -202 180 -318 1 -5 -24 16 -56 47 -44 45 -69
61 -111 73 -52 15 -69 17 -189 31 -30 4 -63 9 -72 11 -20 6 -21 11 41 -169 42
-122 75 -242 86 -312 3 -22 7 -51 10 -65 9 -60 14 -100 20 -175 4 -44 9 -96
12 -115 6 -49 11 -664 6 -728 l-5 -54 -17 29 c-10 15 -34 60 -55 98 -21 39
-57 103 -80 143 l-41 74 -12 -54 c-7 -29 -14 -64 -17 -78 -31 -164 -134 -405
-243 -568 -80 -121 -215 -256 -377 -380 -77 -59 -153 -115 -168 -124 -15 -10
-28 -22 -28 -27 0 -10 72 -57 155 -102 22 -12 42 -25 45 -28 3 -4 20 -13 38
-20 52 -22 72 -59 72 -134 0 -52 6 -79 30 -131 17 -36 37 -66 45 -66 8 0 26
17 42 38 15 20 42 51 59 69 76 76 208 408 253 633 29 148 30 157 37 235 4 39
8 72 10 74 2 2 29 -1 60 -8 132 -26 228 -99 293 -221 l35 -65 13 45 c20 67 43
177 51 245 14 117 4 426 -14 456 -2 3 -6 20 -9 37 -3 18 -16 67 -30 110 -14
42 -25 80 -25 84 0 3 37 -5 83 -19 94 -28 206 -88 260 -140 21 -19 40 -34 42
-32 2 2 -12 58 -31 123 -82 284 -210 513 -382 685 l-54 54 38 24 c35 21 60 29
118 37 33 5 116 -14 173 -40 70 -30 163 -97 230 -163 29 -29 49 -44 47 -34 -2
10 -20 92 -40 183 -19 91 -37 174 -40 185 -3 11 -7 29 -9 40 -11 49 -56 187
-88 270 -146 377 -374 694 -705 984 -100 87 -126 143 -102 217 30 90 128 136
301 141 63 1 130 -2 148 -7 18 -5 31 -5 29 0 -2 5 -68 61 -148 126 -224 181
-300 271 -340 402 -19 59 -39 222 -28 222 3 0 22 -33 43 -72 77 -149 111 -183
340 -343 361 -251 518 -423 610 -668 10 -26 15 -50 12 -53 -2 -3 -29 13 -58
35 -70 53 -158 95 -250 120 -108 29 -121 31 -267 38 l-133 6 138 -139 c252
-252 438 -534 591 -894 56 -132 128 -352 148 -453 2 -10 5 -26 8 -35 3 -9 8
-30 11 -47 2 -16 7 -41 10 -55 2 -13 7 -42 10 -65 4 -22 8 -51 10 -65 14 -91
18 -155 19 -305 1 -93 -1 -195 -4 -225 l-5 -55 -39 60 c-104 159 -230 304
-341 391 l-49 39 22 -35 c99 -153 194 -412 218 -595 3 -27 8 -59 10 -70 14
-72 25 -401 14 -388 -4 4 -44 53 -88 109 -103 129 -274 290 -257 242 26 -75
38 -311 22 -463 -6 -66 -9 -86 -22 -145 -3 -14 -7 -34 -9 -45 -9 -42 -56 -194
-76 -246 -43 -110 -102 -239 -110 -239 -4 0 -20 44 -35 98 -15 53 -39 120 -52
147 -30 60 -165 287 -168 283 -1 -2 -5 -48 -8 -103 -15 -254 -111 -531 -264
-765 -180 -275 -510 -587 -803 -761 -81 -48 -149 -77 -133 -57 34 40 82 159
100 248 12 55 5 197 -11 255 -21 70 -60 145 -90 174 l-22 21 -31 -113 c-66
-240 -163 -415 -313 -566 -134 -136 -283 -230 -498 -317 -48 -19 -215 -76
-372 -125 -325 -103 -438 -147 -553 -216 -109 -64 -220 -176 -271 -272 l-39
-74 -36 69 c-42 80 -148 193 -238 253 -93 63 -231 124 -398 176 -83 25 -208
65 -280 87 -407 126 -730 335 -939 607 -96 125 -191 326 -198 421 -3 45 -12
45 -46 3 -112 -143 -116 -301 -13 -551 17 -40 27 -72 25 -72 -12 0 -145 78
-254 148 -507 327 -773 726 -900 1343 -26 131 -28 141 -29 158 -2 35 -77 -69
-140 -195 -38 -77 -87 -216 -93 -268 -6 -44 -15 -39 -57 31 -93 158 -167 397
-189 618 -10 108 -5 322 11 402 l14 72 -55 -47 c-65 -55 -207 -205 -254 -267
-18 -24 -36 -45 -40 -45 -19 0 -13 271 8 415 26 177 140 478 241 638 l25 39
-34 -18 c-70 -40 -202 -186 -302 -336 -54 -82 -100 -148 -101 -148 -10 0 6
410 20 523 13 99 17 126 26 182 6 33 13 71 15 85 50 284 186 646 340 900 134
223 344 470 519 610 l40 33 -95 -7 c-239 -17 -528 -108 -640 -203 l-33 -28 7
30 c4 17 25 68 47 114 104 220 267 383 639 642 208 144 303 252 327 372 10 51
27 1 26 -78z m863 9 c-25 -132 -123 -400 -201 -551 -23 -46 -39 -83 -36 -83
21 1 133 101 244 219 37 39 67 67 67 63 0 -5 -9 -35 -20 -66 -30 -87 -105
-223 -175 -318 -71 -96 -68 -99 50 -42 39 18 100 58 137 88 60 50 66 53 58 29
-68 -186 -227 -312 -345 -273 -47 16 -100 62 -136 119 -26 43 -28 44 -33 21
-8 -35 -24 -136 -30 -190 -10 -81 -17 -145 -21 -170 -2 -14 -7 -56 -11 -95 -3
-38 -8 -78 -9 -87 -2 -9 -7 -48 -10 -85 -4 -37 -9 -75 -10 -84 -19 -100 -27
-593 -13 -735 32 -314 137 -590 303 -799 100 -127 197 -204 428 -341 89 -53
164 -98 166 -100 10 -9 -91 10 -169 33 -319 91 -597 333 -754 658 -51 105
-105 258 -122 350 -2 11 -6 31 -9 45 -22 114 -30 207 -30 370 0 129 11 305 20
320 1 3 6 28 9 55 4 28 12 70 18 95 5 25 12 58 15 73 2 16 18 75 34 130 48
166 49 157 -8 158 -26 0 -57 2 -68 4 -11 2 -40 7 -65 10 -24 3 -46 8 -48 9 -1
2 16 18 38 36 73 58 139 158 237 360 224 460 265 531 443 753 25 31 49 56 54
56 4 1 5 -15 2 -35z m947 -955 c-53 -23 -76 -57 -75 -114 3 -118 113 -192 212
-143 81 40 103 135 48 203 l-33 40 33 -24 c30 -21 93 -93 129 -148 13 -19 12
-26 -4 -60 -25 -54 -95 -118 -147 -136 -92 -31 -204 -5 -283 66 -60 55 -119
188 -102 233 17 48 131 97 234 100 28 1 28 0 -12 -17z m2597 -17 l75 -18 1
-34 c1 -54 -24 -148 -53 -203 -52 -95 -146 -149 -262 -150 -93 -1 -178 58
-235 163 l-27 50 40 49 c54 65 102 106 152 132 49 25 62 21 15 -5 -87 -47 -86
-185 2 -230 80 -41 164 -15 212 67 34 57 24 120 -25 165 -33 30 -41 33 -78 28
-27 -4 -37 -3 -28 3 20 13 120 5 211 -17z m-2497 -53 c29 -16 36 -27 30 -50
-15 -54 -103 -55 -103 -1 0 25 25 62 42 62 5 0 19 -5 31 -11z m2321 -56 c6
-30 -17 -48 -43 -33 -24 12 -29 58 -9 78 15 15 46 -12 52 -45z m-1559 -1986
c81 -21 181 -70 292 -143 l81 -54 94 60 c172 112 293 158 384 145 57 -7 79
-18 98 -48 32 -48 23 -117 -28 -227 l-23 -50 -19 27 c-46 71 -108 101 -166 81
-63 -22 -108 -108 -123 -233 -3 -27 -13 -74 -21 -104 -40 -142 -216 -192 -345
-100 -52 37 -70 86 -84 234 -11 108 -37 165 -89 192 -73 38 -137 12 -203 -85
-15 -22 -16 -21 -43 36 -69 147 -71 223 -6 264 26 16 43 18 106 14 41 -2 84
-7 95 -9z m531 -1360 c12 -3 45 -8 74 -12 29 -4 62 -9 74 -11 12 -2 68 -7 126
-10 89 -6 129 -9 137 -13 0 -1 -5 -27 -13 -58 -34 -135 -50 -145 -133 -84
-122 90 -191 108 -305 78 -45 -12 -52 -11 -68 5 -29 29 -128 23 -128 -8 0 -17
2 -17 -51 1 -100 36 -216 6 -304 -78 -46 -45 -48 -45 -72 -30 -13 9 -30 28
-37 42 -15 28 -40 130 -35 135 2 2 60 6 129 9 69 3 136 8 150 11 41 8 92 15
155 22 33 3 62 8 63 9 5 5 214 -3 238 -8z M5065 8564 c-70 -49 -125 -77 -230
-114 -82 -29 -335 -106 -378 -115 -56 -12 -207 -63 -302 -102 -215 -87 -378
-194 -531 -347 -147 -147 -213 -263 -239 -416 l-6 -35 50 51 c65 67 136 113
284 184 163 78 493 194 640 224 33 7 59 14 95 25 17 5 32 8 32 6 0 -3 11 0 25
5 14 5 36 12 48 14 176 36 398 136 466 210 32 34 41 33 41 -7 0 -42 -44 -105
-103 -148 -49 -36 -133 -79 -271 -139 -54 -24 -112 -55 -128 -68 -27 -23 -30
-30 -26 -73 3 -31 25 -88 61 -161 83 -169 72 -161 153 -101 66 48 270 183 278
183 5 0 -3 -61 -13 -97 -5 -18 -40 -56 -102 -107 -152 -129 -280 -263 -319
-336 -32 -59 -35 -73 -35 -145 0 -69 4 -86 27 -127 28 -46 98 -122 130 -139
24 -13 25 -10 43 106 10 72 63 127 172 182 52 25 79 34 97 29 49 -12 29 -61
-115 -284 -178 -273 -258 -446 -282 -609 -7 -43 -2 -41 23 6 73 143 264 286
412 309 109 16 232 -24 346 -111 63 -50 82 -70 148 -160 45 -60 63 -82 52 -62
-3 6 -9 37 -13 70 -14 127 -67 245 -197 445 -151 232 -196 314 -200 361 -3 33
-2 34 34 32 54 -3 124 -38 179 -90 52 -49 76 -100 83 -176 5 -58 9 -64 39 -48
56 31 145 176 151 246 12 134 -75 262 -315 461 -75 63 -140 122 -143 131 -4 9
-9 40 -13 70 l-5 53 98 -66 c55 -37 132 -91 172 -122 85 -65 73 -71 150 78 59
112 85 186 78 216 -8 29 -53 57 -217 130 -222 99 -290 158 -305 266 l-6 42 45
-40 c91 -80 225 -144 414 -199 48 -14 95 -27 103 -29 8 -1 33 -8 55 -14 22 -6
51 -13 65 -16 14 -3 76 -19 138 -35 308 -83 551 -187 770 -331 82 -55 85 -52
51 51 -74 225 -255 414 -549 572 -146 78 -262 120 -610 217 -251 71 -363 116
-479 194 -29 20 -56 36 -60 35 -3 0 -28 -16 -56 -35z M4131 7734 c-179 -53
-295 -239 -278 -448 10 -117 48 -215 79 -203 7 2 28 35 47 71 18 37 55 91 82
120 63 69 123 98 203 98 77 -1 98 -6 229 -56 37 -14 72 -26 77 -26 48 0 -87
263 -193 377 -73 78 -144 97 -246 67z M5990 7741 c-55 -18 -108 -52 -148 -95
-104 -113 -219 -338 -184 -360 5 -3 45 12 88 33 104 51 142 61 228 57 125 -5
184 -49 263 -198 25 -48 52 -89 59 -92 34 -13 72 103 72 217 0 195 -76 351
-201 411 -56 28 -137 40 -177 27z M4316 7205 c-123 -43 -206 -165 -193 -284 7
-62 24 -106 63 -168 39 -62 247 -280 252 -264 2 6 -22 70 -53 142 -64 149 -66
155 -66 224 -1 81 20 127 125 272 l37 52 -23 15 c-33 21 -97 26 -142 11z
M5788 7212 c-21 -2 -38 -8 -38 -14 0 -6 22 -41 49 -77 83 -111 105 -164 108
-248 2 -78 -10 -122 -82 -297 -20 -48 -34 -90 -32 -92 5 -6 186 182 238 248
89 113 114 222 71 318 -37 83 -123 147 -212 157 -19 2 -42 5 -50 6 -8 1 -32 1
-52 -1z M3362 7190 c-53 -33 -86 -95 -86 -165 0 -38 18 -102 35 -127 l21 -29
46 27 c105 62 274 26 580 -121 84 -41 149 -69 146 -62 -22 37 -145 175 -213
240 -89 83 -160 133 -259 182 -135 67 -221 84 -270 55z M6687 7175 c-146 -37
-303 -150 -446 -322 -142 -169 -144 -165 30 -76 255 130 317 145 534 128 84
-7 92 -6 118 15 15 12 34 34 41 48 19 38 15 112 -9 145 -45 61 -162 88 -268
62z M3079 6298 c-30 -57 -54 -186 -52 -290 4 -313 252 -534 583 -522 47 1 95
5 107 8 46 10 133 40 133 45 0 3 -57 5 -127 4 -185 -4 -284 29 -380 125 -104
104 -148 259 -119 419 8 45 21 64 23 35 6 -69 34 -165 74 -249 61 -128 170
-212 321 -248 74 -17 280 -14 343 5 l40 13 -112 27 c-222 55 -347 117 -457
226 -82 82 -133 172 -162 289 -21 84 -44 109 -113 124 -73 16 -89 14 -102 -11z
M5107 6276 c-3 -7 -57 -52 -121 -100 -113 -86 -163 -139 -204 -221 -19 -38
-54 -145 -48 -145 2 0 16 11 32 25 53 46 123 87 244 141 l120 54 128 -63 c98
-47 140 -74 183 -117 l56 -55 -9 37 c-30 134 -96 234 -222 335 -39 32 -86 72
-104 90 -36 36 -47 40 -55 19z M5050 5848 c-35 -40 -105 -114 -155 -163 -98
-97 -133 -148 -165 -240 -27 -79 -25 -86 10 -33 50 76 126 145 251 229 65 43
121 79 123 79 9 0 198 -118 265 -165 35 -25 67 -45 72 -45 12 0 -51 94 -132
196 -66 84 -188 214 -199 214 -4 0 -36 -33 -70 -72z M2860 5738 c-21 -80 -20
-201 1 -287 25 -97 69 -187 176 -356 95 -149 111 -179 153 -289 26 -66 27 -68
34 -40 15 58 74 171 120 226 58 72 134 130 256 197 90 49 236 149 228 156 -1
1 -48 -12 -103 -30 -129 -44 -141 -46 -260 -50 -120 -5 -177 6 -272 51 -100
48 -179 128 -232 236 -36 72 -73 188 -74 226 -1 29 -14 8 -27 -40z M7340 5748
c-51 -196 -123 -313 -243 -390 -139 -89 -363 -100 -623 -28 -41 11 -77 20 -81
20 -24 0 248 -182 364 -244 105 -55 170 -107 188 -149 8 -18 10 -60 7 -116 -3
-70 -1 -89 11 -100 19 -15 40 15 202 284 179 296 228 421 228 581 1 77 -17
169 -34 180 -4 2 -13 -15 -19 -38z M6212 4838 c-17 -6 -49 -26 -70 -44 l-37
-33 35 -1 c129 -5 214 -60 274 -177 55 -109 68 -256 36 -408 -29 -137 -24
-195 19 -195 24 0 86 63 121 125 167 292 3 715 -286 739 -32 3 -74 0 -92 -6z
M3889 4816 c-2 -3 -20 -8 -38 -11 -125 -22 -246 -155 -276 -304 -7 -33 -7
-147 0 -184 24 -123 105 -257 190 -313 23 -15 28 -15 36 -3 17 27 15 93 -6
224 -38 233 -19 349 74 444 52 54 129 88 205 92 25 2 46 4 46 6 0 1 -21 13
-47 26 -34 17 -68 25 -113 26 -36 1 -68 0 -71 -3z M3884 4119 c-53 -77 -33
-173 47 -226 l40 -26 27 20 c50 37 39 117 -31 216 -22 31 -43 57 -47 57 -4 0
-20 -19 -36 -41z M6375 4128 c-16 -17 -58 -54 -92 -81 -35 -27 -72 -61 -83
-77 -21 -30 -26 -75 -10 -100 27 -44 229 205 218 270 -3 19 -6 17 -33 -12z
M6670 4053 c0 -6 -32 -46 -71 -89 -75 -83 -101 -128 -94 -163 6 -34 15 -41 41
-37 76 14 130 112 136 246 1 22 -2 43 -5 47 -4 3 -7 2 -7 -4z M3599 3957 c-3
-50 -1 -69 11 -112 12 -44 68 -113 94 -116 6 -1 21 -3 33 -4 36 -4 47 19 44
87 -1 37 -49 88 -121 131 -58 35 -60 35 -61 14z M4105 3884 c-8 -9 -16 -20
-16 -25 -1 -5 -2 -15 -3 -21 -9 -55 113 -115 152 -76 19 19 14 63 -10 85 -49
44 -100 59 -123 37z M6044 3878 c-66 -36 -86 -95 -39 -116 36 -17 48 -15 79 9
31 24 48 61 40 83 -8 22 -57 36 -80 24z M6430 3861 c0 -6 -31 -35 -69 -65 -38
-31 -72 -65 -76 -76 -8 -26 10 -83 35 -105 48 -44 119 52 128 174 3 45 1 71
-7 75 -6 4 -11 3 -11 -3z M3817 3803 c-2 -5 -3 -34 -2 -65 2 -44 9 -66 30 -95
34 -47 64 -71 99 -77 57 -10 71 20 40 92 -17 43 -52 82 -108 123 -40 30 -52
34 -59 22z M6180 3667 c-26 -20 -50 -60 -50 -84 0 -12 10 -31 22 -43 49 -46
108 -9 104 65 -4 66 -37 93 -76 62z M6500 3613 c-72 -80 -84 -121 -46 -158 46
-46 143 82 134 177 -5 51 -29 46 -88 -19z M3604 3617 c21 -125 70 -186 151
-189 43 -2 54 11 49 59 -6 66 -38 96 -143 138 l-62 24 5 -32z M4063 3628 c-30
-38 -33 -57 -16 -92 27 -57 93 -78 118 -37 22 37 16 60 -26 101 -44 42 -60 48
-76 28z M6024 3582 c-46 -37 -48 -88 -5 -111 29 -16 48 -13 70 10 23 25 22 71
-4 99 -22 24 -33 25 -61 2z M4253 3549 c-39 -40 18 -135 74 -124 54 9 70 65
29 104 -28 27 -86 38 -103 20z M5847 3534 c-15 -8 -30 -26 -33 -41 -6 -21 -2
-31 20 -50 34 -29 51 -29 81 2 30 29 32 59 5 82 -25 22 -41 23 -73 7z M4479
3481 c-36 -29 -8 -74 58 -95 15 -5 28 -1 43 14 19 19 19 23 6 48 -20 39 -78
57 -107 33z M5649 3470 c-33 -32 -34 -39 -16 -64 37 -51 147 8 117 64 -6 11
-16 20 -23 21 -7 0 -21 2 -31 4 -11 2 -31 -8 -47 -25z M6309 3488 c-29 -10
-66 -68 -72 -113 -4 -33 10 -75 27 -76 6 0 19 -2 29 -4 28 -5 93 65 101 109
12 64 -28 103 -85 84z M3881 3429 c-39 -64 21 -159 99 -159 87 0 83 99 -7 170
-38 30 -70 26 -92 -11z M6069 3376 c-90 -61 -93 -144 -7 -151 44 -4 87 23 104
62 19 45 17 70 -6 93 -26 26 -48 25 -91 -4z M4145 3346 c-24 -45 -13 -82 32
-109 42 -24 112 -28 126 -6 28 44 -47 136 -119 146 -15 2 -26 -6 -39 -31z
M4385 3317 c-24 -57 22 -112 87 -105 62 6 61 63 -2 110 -44 33 -70 31 -85 -5z
M5806 3319 c-31 -37 -33 -62 -6 -89 37 -37 101 -18 129 37 15 30 14 40 -9 63
-31 31 -83 27 -114 -11z M4319 2162 c-36 -26 -84 -56 -107 -66 -23 -11 -42
-22 -42 -26 0 -8 77 -30 103 -30 8 0 27 24 42 53 15 28 38 67 52 85 13 17 23
32 21 32 -2 0 -33 -21 -69 -48z M5549 2080 c-7 -159 -82 -291 -221 -389 -19
-13 -19 -13 -3 19 19 36 43 102 53 140 10 41 7 189 -4 200 -7 7 -38 -33 -97
-123 -48 -72 -104 -150 -123 -172 l-35 -40 -43 47 c-24 26 -83 106 -132 178
-87 128 -89 130 -94 98 -8 -48 -3 -151 10 -200 7 -24 24 -67 40 -95 15 -29 26
-53 23 -53 -12 0 -72 47 -110 88 -49 52 -100 151 -109 213 -12 84 -13 91 -18
97 -3 3 -14 -12 -23 -34 -13 -30 -17 -66 -17 -154 0 -100 3 -124 27 -190 46
-126 45 -118 11 -96 -177 113 -245 224 -241 394 l2 84 -38 -44 c-90 -103 -144
-226 -133 -301 9 -60 68 -156 136 -222 32 -29 130 -106 220 -169 89 -63 192
-140 228 -173 88 -78 172 -185 221 -283 l40 -80 31 61 c85 168 224 316 420
448 69 46 145 100 170 119 134 105 224 240 224 336 0 78 -55 185 -152 295
l-21 23 3 -64 c5 -78 -9 -156 -37 -217 -24 -52 -118 -151 -190 -200 l-48 -33
29 59 c37 74 54 146 54 231 0 66 -22 176 -42 210 -8 14 -10 13 -11 -8z"/>
</g>
</svg>
