<svg viewBox="0 0 512 512" xmlns="http://www.w3.org/2000/svg"><g><path fill="currentColor" d="m494 272.469 18-24h-55.273c14.118-9.875 26.755-21.975 37.273-36l18-24h-219.363c-10.851-31.803-20.098-57.403-22.539-64.121l-14.098-38.817-14.099 38.817c-2.44 6.718-11.687 32.318-22.539 64.121h-219.362l18 24c10.519 14.025 23.155 26.125 37.273 36h-55.273l18 24c10.519 14.025 23.155 26.125 37.273 36h-55.273l18 24c30.996 41.327 80.341 66 132 66h45.055c14.773 17.127 36.607 28 60.946 28s46.173-10.873 60.946-28h45.053c51.658 0 101.004-24.673 132-66l18-24h-55.273c14.118-9.875 26.754-21.975 37.273-36zm-47.218-54c-23.789 19.137-53.776 30-84.781 30h-49.602c-3.15-9.998-6.419-20.097-9.687-30zm-381.564 0h144.071c-3.268 9.903-6.537 20.002-9.687 30h-49.602c-31.006 0-60.993-10.863-84.782-30zm0 60h84.782 40.456c-3.126 10.672-5.935 20.813-8.254 30h-32.202c-31.006 0-60.993-10.863-84.782-30zm84.782 90c-31.005 0-60.992-10.863-84.781-30h84.781 26.054c-.354 2.862-.55 5.392-.55 7.503 0 7.809 1.139 15.352 3.223 22.497zm106 28c-27.844 0-50.497-22.653-50.497-50.497 0-20.169 27.019-104.282 50.497-171.701 23.478 67.419 50.497 151.532 50.497 171.701 0 27.844-22.653 50.497-50.497 50.497zm190.782-58c-23.789 19.137-53.776 30-84.781 30h-28.727c2.084-7.145 3.223-14.688 3.223-22.497 0-2.111-.196-4.641-.55-7.503h26.053zm-116.983-30c-2.318-9.187-5.128-19.328-8.254-30h40.455 84.781c-23.789 19.137-53.776 30-84.781 30z"/><path fill="currentColor" d="m241 312.414h30v30h-30z"/></g></svg>