<svg xmlns="http://www.w3.org/2000/svg" viewBox="0 0 1024 1024">
<g transform="translate(0,1024) scale(0.1,-0.1)">
<path fill="currentColor" d="M242 10228 c-61 -10 -115 -42 -164 -97 -83 -92 -79 -34 -77 -1081 0
-509 5 -956 10 -995 22 -176 22 -175 58 -318 151 -583 550 -1072 1097 -1346
l120 -59 0 -1958 -1 -1957 -67 -27 c-257 -104 -469 -338 -552 -610 -40 -132
-44 -181 -46 -555 0 -192 -3 -363 -5 -380 -2 -16 -6 -56 -9 -88 -11 -112 -36
-138 -146 -152 -76 -10 -104 -17 -140 -36 -100 -51 -160 -157 -156 -274 6
-147 100 -257 242 -282 62 -11 2347 -10 2394 1 86 20 161 81 202 164 33 67 33
187 0 254 -42 86 -125 150 -209 163 -21 4 -47 8 -58 10 -11 2 -31 4 -43 4 -13
1 -39 16 -57 34 -59 59 -66 115 -70 560 -4 481 -12 532 -106 722 -97 198 -264
359 -469 452 -41 19 -82 38 -90 42 -13 7 -15 227 -15 1884 l0 1876 150 -2
c138 -2 294 6 355 18 13 3 42 7 65 11 74 11 264 63 362 100 265 98 502 245
708 437 44 41 83 73 88 70 4 -2 7 -359 7 -793 l0 -789 -260 -215 c-143 -119
-271 -233 -285 -255 -153 -231 79 -537 340 -447 49 17 82 38 164 104 l41 34 0
-334 0 -334 -57 -24 c-557 -226 -751 -898 -407 -1410 125 -187 367 -343 581
-375 21 -3 50 -8 63 -10 35 -7 187 -7 235 0 69 11 78 13 145 30 396 103 669
477 668 915 -1 371 -210 690 -552 840 l-76 34 0 324 0 324 48 -42 c67 -60 117
-82 193 -88 219 -15 375 187 305 396 -17 52 -75 120 -166 197 -66 57 -175 150
-180 155 -3 3 -36 32 -75 65 -38 33 -82 71 -97 84 l-28 24 0 574 c0 315 2 573
4 573 2 0 40 -15 83 -33 140 -61 328 -115 453 -132 25 -3 56 -8 70 -10 154
-23 413 -23 570 0 14 2 44 7 67 10 154 22 408 102 555 176 43 22 80 39 83 39
3 0 4 -900 3 -2000 l-3 -2001 -80 -34 c-259 -113 -465 -344 -544 -612 -37
-123 -36 -117 -45 -693 -5 -316 -8 -356 -34 -410 -21 -43 -52 -59 -133 -65
-176 -15 -291 -141 -285 -311 5 -144 98 -257 233 -281 21 -3 565 -7 1208 -7
1328 0 1230 -6 1326 82 128 119 128 319 0 435 -63 57 -100 72 -206 83 -75 7
-117 39 -134 104 -24 87 -29 194 -31 610 -2 293 -9 357 -51 483 -48 142 -128
268 -243 382 -88 87 -215 172 -309 207 -33 12 -61 26 -63 32 -2 6 -3 979 -2
2163 l3 2152 40 -37 c267 -249 722 -461 1088 -506 26 -3 68 -9 95 -12 66 -9
264 -11 345 -4 l67 5 -1 -485 0 -485 -249 -205 c-302 -249 -334 -291 -329
-424 6 -153 145 -288 294 -288 86 1 138 22 230 97 l55 45 0 -327 -1 -328 -108
-52 c-287 -138 -468 -383 -516 -698 -7 -48 -8 -225 -1 -257 3 -13 8 -39 10
-58 13 -94 79 -261 139 -350 137 -204 374 -362 594 -395 21 -3 50 -8 63 -10
33 -7 207 -7 245 0 17 3 41 8 55 10 14 3 34 7 45 9 11 2 49 14 84 26 207 70
370 201 487 394 50 82 108 236 119 312 3 22 8 49 11 62 6 27 6 218 0 247 -2
11 -7 40 -11 65 -11 66 -42 156 -82 235 -92 186 -244 328 -449 422 l-84 38 0
329 0 329 22 -19 c12 -10 28 -25 36 -32 31 -28 100 -70 135 -82 141 -46 305
35 365 180 28 67 25 168 -5 230 -30 58 -55 86 -188 200 -60 52 -112 97 -115
100 -3 3 -36 32 -75 65 -38 33 -87 76 -108 95 -21 19 -45 39 -53 43 -12 7 -14
95 -14 560 l0 552 118 58 c532 261 920 728 1082 1305 31 109 36 130 46 192 3
19 7 42 9 50 2 8 7 38 10 65 4 28 9 61 12 75 3 14 4 450 3 970 -2 900 -3 947
-21 995 -30 80 -120 161 -203 182 -31 8 -9717 9 -9764 1z m9388 -998 l0 -405
-4515 0 -4515 0 0 405 0 405 4515 0 4515 0 0 -405z m-7979 -1250 c1 -277 2
-286 33 -355 51 -111 154 -170 286 -163 118 7 207 66 254 167 19 42 21 68 26
321 l5 275 375 1 c206 0 380 -1 386 -3 6 -2 10 -16 11 -31 1 -228 70 -527 179
-776 l43 -98 -102 -102 c-292 -290 -654 -440 -1062 -440 -244 0 -430 45 -660
159 -361 179 -631 493 -753 876 -31 96 -38 122 -47 189 -3 19 -7 44 -10 55 -2
11 -7 54 -10 95 l-6 75 525 0 526 0 1 -245z m3159 241 c3 0 5 -117 6 -259 0
-293 7 -328 74 -405 130 -148 378 -125 482 44 35 56 41 111 42 369 l1 255 585
1 c322 0 590 -2 597 -4 6 -2 10 -9 8 -15 -2 -7 -6 -41 -10 -77 -23 -251 -117
-514 -261 -732 -114 -171 -352 -372 -556 -468 -87 -41 -245 -96 -302 -105 -17
-3 -38 -8 -46 -10 -120 -34 -437 -39 -580 -10 -14 3 -38 8 -55 10 -66 12 -212
58 -296 94 -360 156 -641 454 -773 819 -28 78 -63 205 -72 261 -3 18 -8 43
-10 55 -2 11 -7 50 -10 86 -7 71 -7 71 -5 85 1 7 202 10 589 9 323 -1 589 -2
592 -3z m3170 -231 c1 -269 3 -297 34 -365 27 -60 74 -107 135 -138 66 -32
207 -32 269 1 63 34 117 93 140 153 18 49 20 79 21 313 1 142 3 262 5 265 2 3
237 6 523 6 l518 0 -1 -65 c0 -82 -9 -143 -33 -245 -109 -451 -436 -838 -862
-1020 -85 -37 -229 -82 -289 -91 -19 -3 -40 -7 -47 -9 -51 -17 -297 -24 -415
-12 -278 29 -575 156 -788 336 -43 37 -151 144 -198 196 -5 5 10 50 34 105 95
216 155 455 170 680 6 82 10 125 13 125 1 0 174 0 386 0 l385 0 0 -235z
m-3918 -4792 c147 -68 222 -229 181 -388 -63 -244 -357 -333 -548 -166 -96 83
-136 219 -101 340 25 85 63 138 137 194 74 56 234 65 331 20z m4697 14 c115
-39 185 -114 217 -235 40 -153 -37 -317 -182 -387 -54 -27 -76 -31 -149 -31
-135 0 -248 76 -307 207 -32 73 -31 189 4 264 29 65 78 124 122 148 92 51 207
64 295 34z m-7054 -1367 c131 -37 229 -150 251 -287 3 -24 8 -200 9 -393 3
-321 6 -405 22 -490 14 -78 56 -70 -392 -70 -392 0 -400 1 -398 20 1 11 5 45
9 75 4 30 8 69 10 85 1 17 3 192 4 391 1 261 5 374 14 410 38 143 138 239 277
268 71 14 120 12 194 -9z m4810 4 c81 -21 161 -81 209 -157 49 -78 54 -125 60
-542 4 -333 12 -465 31 -530 4 -13 -44 -15 -400 -15 l-405 0 6 45 c3 25 9 54
11 65 3 11 7 202 10 425 3 322 7 416 19 460 55 197 250 302 459 249z"/>
</g>
</svg>
