<svg viewBox="0 0 512 512" xmlns="http://www.w3.org/2000/svg"><g><path fill="currentColor" d="m403.749 286.554-102.749 31.136v-38.267c0-6.896 4.672-12.879 11.361-14.552l97.276-24.319c6.936-1.733 11.684-8.121 11.346-15.262l-10-211c-.379-7.999-6.975-14.29-14.983-14.29-41.077 0-73.858 34.5-71.388 75.789l5.658 94.479-29.27 6.829v-101.097c0-6.401-.991-4.352-32.674-66.886-5.61-10.858-21.491-10.876-26.873.445-29.805 63.826-30.453 61.496-30.453 67.441v100.097l-29.271-6.829 5.658-94.479c2.453-40.989-30.01-75.789-71.387-75.789-8.008 0-14.604 6.291-14.983 14.29l-10 211c-.338 7.141 4.41 13.528 11.346 15.262l97.275 24.319c6.69 1.673 11.362 7.656 11.362 14.552v38.267l-102.749-31.136c-16.025-4.854-32.251 7.169-32.251 23.925v163.041c0 16.746 16.224 28.78 32.251 23.926l102.749-31.136v30.69c0 8.284 6.716 15 15 15h60c8.284 0 15-6.716 15-15v-30.69l102.749 31.136c16.025 4.854 32.251-7.169 32.251-23.925v-163.042c0-16.742-16.209-28.782-32.251-23.925zm2.251 30.665v54.257l-95.239-25.397zm-257.99 74.102 92.99-24.797v50.722zm122.99 25.925v-50.722l92.99 24.797zm-64.086-181.478-85.349-21.338 8.624-181.966c16.298 5.898 28.41 22.183 27.252 41.532l-6.415 107.107c-.437 7.295 4.448 13.844 11.565 15.504l60 14c9.385 2.193 18.409-4.936 18.409-14.607v-115.616l14.559-30.624 15.441 29.886v116.354c0 4.577 2.09 8.904 5.676 11.75 3.587 2.846 8.277 3.897 12.732 2.857l60-14c7.117-1.66 12.002-8.209 11.565-15.504l-6.413-107.107c-1.154-19.258 10.884-35.609 27.251-41.532l8.624 181.966-85.35 21.338c-20.068 5.017-34.085 22.968-34.085 43.655v47.358l-15 4.545-15-4.545v-47.358c0-20.687-14.017-38.638-34.086-43.655zm-5.675 110.311-95.239 25.397v-54.257zm-95.239 120.702v-56.027l96.296 26.846zm165 15.219h-30v-24.781l15-4.545 15 4.545zm38.704-44.4 96.296-26.846v56.027z"/></g></svg>