<svg xmlns="http://www.w3.org/2000/svg" viewBox="0 0 1024 1024">
<g transform="translate(0,1024) scale(0.1,-0.1)">
<path fill="currentColor" d="M4915 9445 c-16 -11 -38 -36 -47 -55 -18 -35 -18 -42 -4 -331 l3 -56
-41 29 c-56 39 -111 57 -164 52 -92 -8 -148 -58 -187 -167 -21 -57 -24 -60
-74 -77 -68 -23 -100 -47 -125 -95 -25 -49 -25 -117 -1 -169 22 -46 85 -89
154 -106 48 -11 48 -12 65 -71 21 -78 39 -104 92 -135 107 -63 236 -10 280
115 13 35 13 34 14 -44 1 -44 2 -115 3 -158 2 -92 -2 -102 -34 -91 -38 12 -49
14 -140 20 -147 11 -242 -32 -346 -155 -31 -36 -74 -78 -97 -92 -51 -33 -71
-55 -90 -99 -39 -94 13 -229 135 -351 164 -164 336 -199 434 -88 65 73 113
119 123 119 11 0 10 -82 -5 -360 -8 -167 -10 -522 -1 -592 5 -44 -3 -61 -17
-38 -9 15 -165 115 -239 153 -79 40 -127 42 -176 7 -57 -41 -181 -337 -215
-513 -15 -79 -18 -252 -5 -297 l9 -30 -57 -1 c-31 0 -68 -2 -82 -5 -14 -2 -38
-6 -53 -8 -87 -13 -125 -97 -103 -226 3 -14 7 -43 11 -65 26 -179 103 -391
183 -507 88 -127 250 -237 402 -272 68 -16 189 -14 233 3 16 6 32 11 37 11 6
0 9 -72 7 -172 l-2 -173 -790 -5 -790 -5 -47 -28 c-47 -27 -71 -54 -103 -117
-16 -31 -19 -64 -20 -269 -1 -255 5 -290 57 -355 31 -39 117 -84 166 -88 17
-1 32 -7 33 -13 0 -5 2 -18 4 -27 2 -9 6 -70 10 -135 4 -65 8 -134 10 -153 2
-19 6 -82 10 -140 4 -58 8 -121 10 -140 2 -19 6 -84 10 -145 4 -60 8 -126 10
-145 2 -19 6 -84 10 -145 4 -60 8 -126 10 -145 2 -19 6 -82 10 -140 3 -58 8
-125 10 -150 2 -25 6 -85 10 -135 3 -49 8 -115 10 -145 2 -30 7 -95 10 -145 3
-49 8 -115 10 -145 5 -64 12 -168 20 -295 11 -159 15 -186 36 -236 13 -29 37
-62 59 -79 81 -64 -31 -60 1557 -60 1152 1 1455 3 1484 14 96 34 154 120 164
239 9 113 14 188 20 292 4 55 8 116 10 135 2 19 7 85 10 145 4 61 8 126 10
145 2 19 6 85 10 145 4 61 8 126 10 145 2 19 6 82 10 140 4 58 8 121 10 140 2
19 6 85 10 145 4 61 8 126 10 145 2 19 6 85 10 145 4 61 8 126 10 145 2 19 6
85 10 145 4 61 8 126 10 145 2 19 6 86 10 149 4 63 9 121 10 130 2 9 4 19 4
22 1 3 15 6 32 7 46 1 135 49 167 88 52 65 58 107 57 359 -1 202 -4 234 -20
265 -32 61 -59 91 -105 118 l-45 27 -981 3 -981 2 3 185 c1 102 5 194 9 204 6
18 9 17 43 -15 46 -44 157 -99 241 -120 69 -17 206 -23 281 -12 158 24 396
161 579 334 84 79 100 104 97 160 -3 59 -32 94 -186 224 -36 31 -75 62 -87 71
l-21 15 23 79 c29 102 57 263 58 338 1 96 -48 139 -173 152 -35 3 -65 7 -67 8
-1 1 7 29 19 62 26 78 33 240 13 351 -8 44 -28 123 -45 175 -33 100 -129 310
-154 335 -24 23 -78 42 -111 38 -64 -7 -292 -148 -404 -250 l-64 -58 5 192 c3
106 7 195 10 197 3 3 18 -1 34 -10 84 -43 184 5 223 109 11 28 24 64 30 79
l11 28 43 -26 c58 -34 117 -33 177 1 25 14 65 32 90 40 71 21 134 68 155 115
20 44 23 126 6 170 -14 37 -59 88 -103 116 -22 13 -70 53 -106 88 -121 114
-175 145 -268 153 -77 6 -149 -24 -224 -94 l-50 -47 0 143 0 142 41 -7 c105
-18 149 -3 240 83 56 52 76 64 159 92 128 43 177 78 208 150 34 79 19 175 -36
233 -32 34 -58 48 -136 76 -54 19 -106 55 -181 123 -84 78 -184 102 -260 63
l-45 -22 -1 51 c0 28 -2 78 -4 111 -1 33 -5 133 -9 223 -9 202 -17 227 -89
257 -46 19 -83 16 -122 -10z m-145 -747 c0 -5 -4 -8 -9 -8 -5 0 -24 -12 -41
-26 -28 -24 -33 -25 -47 -12 -13 14 -12 21 12 68 l27 52 28 -33 c16 -19 29
-37 30 -41z m668 -263 c11 -10 8 -14 -15 -19 -39 -10 -90 -43 -145 -94 l-46
-43 -22 23 c-44 46 -42 59 14 93 36 21 57 43 74 77 l25 48 51 -37 c28 -20 57
-42 64 -48z m-648 -608 c34 -14 60 -45 60 -71 0 -16 -19 -32 -82 -66 -45 -25
-108 -69 -140 -98 l-58 -54 -29 21 c-16 11 -43 37 -60 57 l-32 36 53 56 c141
149 119 134 195 131 37 -1 79 -7 93 -12z m667 -249 c21 -18 50 -45 66 -60 l29
-27 -51 20 c-55 20 -125 25 -164 10 -39 -15 -96 -70 -118 -114 -19 -36 -21
-38 -34 -20 -25 32 -16 47 46 81 33 18 86 58 117 87 31 30 60 55 64 55 4 0 24
-15 45 -32z m116 -1040 c49 -130 66 -215 64 -318 -2 -83 -6 -103 -33 -160 -43
-90 -61 -108 -114 -115 -25 -4 -78 -17 -118 -31 -67 -22 -75 -23 -102 -9 -16
8 -32 20 -36 26 -15 25 -55 275 -49 309 11 57 42 107 118 187 67 70 209 182
232 183 6 0 23 -33 38 -72z m-924 -275 c81 -58 172 -143 216 -203 82 -112 102
-291 43 -388 -34 -56 -49 -58 -130 -13 -65 35 -238 97 -238 85 0 -3 -9 0 -19
6 -52 27 -68 202 -31 345 27 104 69 215 82 215 6 0 40 -21 77 -47z m1169 -567
c7 -8 -38 -178 -68 -253 -39 -102 -87 -172 -148 -217 -165 -121 -314 -110
-392 28 -53 93 -28 195 76 300 93 94 184 130 369 143 44 3 81 7 83 8 4 3 76
-5 80 -9z m-1428 -201 c215 -19 360 -105 428 -254 63 -137 -28 -290 -176 -297
-128 -6 -270 90 -340 230 -48 96 -110 305 -97 326 4 7 76 5 185 -5z m1572
-394 l27 -24 -56 -44 c-91 -71 -198 -133 -270 -158 -65 -22 -92 -24 -232 -16
-33 1 -21 11 21 17 56 8 140 35 193 61 69 34 184 123 224 173 36 45 34 45 93
-9z m968 -1182 l0 -165 -1807 0 -1808 1 -3 155 c-1 85 -1 159 1 165 3 7 566
10 1811 10 l1806 0 0 -166z m-266 -469 c-1 -45 -15 -254 -19 -300 -2 -19 -6
-82 -10 -140 -3 -58 -8 -125 -10 -150 -2 -25 -7 -88 -10 -140 -3 -52 -8 -115
-10 -140 -2 -25 -7 -92 -10 -150 -4 -58 -8 -121 -10 -140 -2 -19 -6 -84 -10
-145 -4 -60 -8 -126 -10 -145 -2 -19 -6 -84 -10 -145 -4 -60 -8 -126 -10 -145
-2 -19 -6 -82 -10 -140 -3 -58 -8 -125 -10 -150 -2 -25 -6 -85 -10 -135 -11
-177 -17 -240 -22 -245 -6 -7 -2744 -6 -2748 0 -4 6 -11 90 -20 235 -4 50 -8
110 -10 135 -2 25 -7 90 -10 145 -4 55 -8 120 -10 145 -2 25 -7 88 -10 140 -3
52 -8 120 -10 150 -2 30 -7 93 -10 140 -3 47 -8 110 -10 140 -2 30 -7 98 -10
150 -3 52 -8 115 -10 140 -2 25 -7 92 -10 150 -4 58 -8 121 -10 140 -2 19 -6
82 -10 140 -3 58 -8 125 -10 150 -2 25 -7 88 -10 140 -3 52 -8 120 -11 150
l-4 56 1547 -1 1548 0 -1 -35z"/>
</g>
</svg>
