<svg viewBox="0 0 512 512" xmlns="http://www.w3.org/2000/svg"><g><path fill="currentColor" d="m509.992 200.855-5.382-19.073c-12.493-44.274-38.683-84.12-73.746-112.195-32.431-25.968-70.469-41.026-110.791-44.02v-25.567h-30v25.566c-40.322 2.994-78.36 18.051-110.791 44.02-15.546 12.448-29.343 27.213-40.98 43.649-39.942 2.861-71.994 34.617-75.316 74.432h-6.641c-28.857 0-52.333 23.477-52.333 52.333s23.477 52.333 52.333 52.333h10.185c5.5 20.804 16.632 39.34 31.659 53.876v54.791h-13.532c-45.573 0-82.65 37.077-82.65 82.65v28.35h354.009v-28.35c0-28.251-14.256-53.227-35.943-68.14v-126.523c19.807-7.462 33.939-26.602 33.939-48.987 0-15.562-6.836-29.551-17.653-39.145zm-121.515-30c-5.056-37.899-13.884-70.874-25.755-95.974-2.045-4.323-4.125-8.267-6.226-11.901 19.885 6.354 38.644 16.433 55.618 30.023 25.109 20.106 44.954 47.268 57.148 77.852zm-225.207 311.145c33.105-15.946 63.514-33.734 86.657-51h23.439c28.478 0 51.749 22.73 52.625 51zm-131.237 0c.876-28.27 24.146-51 52.624-51h43.532v-63.75c15.364 7.493 32.61 11.704 50.822 11.704 18.223 0 35.477-4.216 50.847-11.716l.023 41.267c-35.669 26.096-90.924 54.379-143.831 73.495zm24.312-219.667c-12.315 0-22.333-10.019-22.333-22.333s10.019-22.333 22.333-22.333h6.333v44.666zm36.334.288v-68.125c0-24.917 17.79-45.752 41.333-50.484v39.321c0 24.814 20.187 45 45 45s45-20.186 45-45v-39.321c23.544 4.732 41.333 25.567 41.333 50.484v68.125c0 47.604-38.728 86.333-86.333 86.333s-86.333-38.728-86.333-86.333zm101.333-79.288c0 8.272-6.729 15-15 15s-15-6.728-15-15v-40.333h30zm4.021-90.33c16.974-13.591 35.733-23.67 55.618-30.023-2.101 3.634-4.181 7.579-6.226 11.901-5.587 11.811-10.497 25.37-14.66 40.359-6.075-1.45-12.404-2.24-18.917-2.24h-36.994c6.543-7.236 13.617-13.941 21.179-19.997zm75.333 307.997h-13.489l-.03-54.803c13.821-13.372 24.35-30.126 30.227-48.919v105.421c-5.398-1.113-10.986-1.699-16.708-1.699zm28.313-138.667h-6.334v-44.666h6.334c12.314 0 22.333 10.018 22.333 22.333s-10.019 22.333-22.333 22.333zm-9.843-91.478c-5.358-17.641-16.552-32.755-31.322-43.112 3.967-15.179 8.69-28.744 14.03-40.035 9.687-20.48 21.099-32.707 30.528-32.707 9.43 0 20.842 12.227 30.528 32.707 10.009 21.161 17.878 50.253 22.587 83.147z"/><path fill="currentColor" d="m179.012 309.865c16.898 0 32.656-9.094 41.125-23.732l-25.967-15.023c-3.125 5.401-8.933 8.756-15.158 8.756s-12.033-3.354-15.156-8.755l-25.969 15.021c8.468 14.64 24.227 23.733 41.125 23.733z"/></g></svg>