<svg xmlns="http://www.w3.org/2000/svg" viewBox="0 0 1024 1024">
<g transform="translate(0,1024) scale(0.1,-0.1)">
<path fill="currentColor" d="M2440 9940 l0 -300 -746 0 -745 0 4 -832 c3 -751 5 -840 21 -908 71
-302 222 -540 455 -716 98 -74 251 -154 352 -185 l69 -21 1 -196 c0 -109 2
-217 5 -242 16 -132 75 -293 147 -402 35 -52 51 -72 110 -135 l29 -31 -25 -79
c-43 -133 -67 -231 -83 -338 -3 -22 -8 -51 -11 -65 -10 -45 -12 -444 -3 -515
5 -38 12 -91 15 -118 l6 -47 -103 -103 c-227 -226 -373 -506 -427 -814 -18
-103 -19 -189 -20 -2000 l-1 -1893 3900 0 3900 0 -3 1908 c-2 1049 -7 1925
-11 1947 -66 359 -202 621 -450 868 l-93 92 8 40 c31 164 34 542 5 691 -3 12
-7 39 -10 60 -29 182 -114 424 -219 624 -48 92 -166 272 -235 360 l-51 65 195
3 194 2 -1 343 c0 188 -4 365 -9 392 -5 28 -12 68 -15 90 -10 63 -61 208 -101
287 -63 124 -125 209 -229 314 -104 104 -189 166 -312 228 -70 35 -215 88
-241 89 -6 0 -17 19 -22 41 -79 321 -203 548 -414 759 -249 249 -564 394 -936
432 -14 2 -762 3 -1662 4 l-1638 1 0 300 0 300 -300 0 -300 0 0 -300z m1
-1392 c1 -271 2 -504 3 -518 3 -27 14 -100 22 -146 9 -53 75 -238 100 -283 13
-24 24 -48 24 -53 0 -11 -529 -6 -573 5 -219 56 -391 225 -447 439 -17 67 -19
116 -19 561 l-1 487 445 0 445 0 1 -492z m4004 465 c110 -31 250 -102 337
-172 110 -87 181 -178 249 -316 l40 -80 -394 -5 -393 -5 1 -490 c2 -415 4
-502 18 -566 48 -217 166 -402 343 -537 99 -76 278 -152 392 -167 61 -8 61 -7
33 -127 -151 -644 -656 -1172 -1285 -1343 -54 -15 -110 -29 -125 -31 -14 -2
-35 -6 -46 -9 -125 -27 -459 -27 -595 0 -14 3 -38 8 -55 11 -74 13 -197 48
-279 80 -251 97 -446 224 -636 414 -166 165 -247 281 -366 521 l-74 149 -452
1 c-249 0 -463 2 -475 5 -49 9 -115 49 -153 91 -67 76 -78 121 -79 326 l-2
177 735 0 734 0 1 300 0 300 -177 1 c-97 0 -186 2 -197 4 -11 2 -36 7 -55 10
-58 11 -171 69 -232 119 -74 60 -144 159 -179 251 -35 94 -38 136 -39 628 l0
487 1662 -2 1663 -3 80 -22z m1123 -1193 c100 -26 184 -73 262 -147 101 -95
169 -225 185 -356 l7 -57 -453 2 c-453 3 -454 3 -506 27 -62 27 -126 94 -156
159 -18 41 -21 68 -22 220 l-2 172 306 -1 c265 -1 316 -3 379 -19z m140 -1481
c230 -253 397 -574 437 -837 3 -21 8 -49 11 -62 8 -37 18 -316 11 -333 -5 -13
-13 -13 -63 -1 -56 13 -127 24 -189 29 -16 2 -253 3 -525 4 l-494 1 87 85
c321 316 542 694 656 1123 7 23 14 42 17 42 3 0 26 -23 52 -51z m-4403 -701
c109 -166 177 -250 327 -400 l97 -98 -417 -1 c-229 -1 -428 -2 -442 -3 -48 -5
-125 -16 -150 -21 -14 -3 -41 -8 -60 -11 -19 -3 -39 -8 -44 -11 -9 -6 -2 306
9 372 9 52 50 212 64 248 l11 27 269 0 270 0 66 -102z m585 -3068 l0 -1970
-300 0 -300 0 0 1970 0 1970 300 0 300 0 0 -1970z m2324 1913 c-111 -253 -336
-445 -604 -515 -91 -23 -290 -31 -378 -15 -303 56 -575 280 -681 560 l-11 27
850 0 850 0 -26 -57z m1276 -1913 l0 -1970 -300 0 -300 0 0 1970 0 1970 300 0
300 0 0 -1970z m-4800 -25 l0 -1945 -300 0 -300 0 0 1567 c1 1288 3 1581 15
1638 55 280 230 512 486 639 50 25 93 46 95 46 2 0 4 -875 4 -1945z m5502
1899 c244 -123 422 -356 479 -624 16 -79 18 -187 18 -1652 l1 -1568 -300 0
-300 0 0 1945 0 1945 24 -10 c14 -5 49 -21 78 -36z m-3475 -943 c155 -78 294
-121 478 -148 66 -10 313 -10 393 0 203 25 452 119 630 239 l73 49 -6 -70 c-3
-39 -8 -78 -10 -88 -71 -366 -341 -644 -701 -723 -84 -18 -278 -22 -349 -6
-337 73 -597 306 -694 620 -26 85 -30 104 -37 193 l-7 73 74 -49 c41 -27 111
-68 156 -90z m11 -1206 c83 -41 255 -103 335 -120 l27 -5 0 -315 0 -315 300 0
300 0 0 315 0 314 43 11 c172 44 352 122 481 209 l76 51 0 -920 0 -920 -900 0
-900 0 0 919 0 919 73 -48 c39 -27 114 -69 165 -95z M5095 8143 l0 -298 295 0
294 0 0 295 0 295 -295 3 -294 2 0 -297z"/>
</g>
</svg>
