<svg
   viewBox="0 0 682.66669 682.66669"
   xmlns="http://www.w3.org/2000/svg"
   xmlns:svg="http://www.w3.org/2000/svg"><g
     transform="matrix(1.3333333,0,0,-1.3333333,0,682.66667)"><g><g><g
           transform="translate(376,17.5605)"><path fill="currentColor"
             d="M 0,0 V -2.561"
             style="fill:none;stroke:#000000;stroke-width:30;stroke-linecap:butt;stroke-linejoin:miter;stroke-miterlimit:10;stroke-dasharray:none;stroke-opacity:1" /></g><g
           transform="translate(170.6929,166)"><path fill="currentColor"
             d="m 0,0 h -34.693 c -49.706,0 -90,-40.294 -90,-90 v -61 h 420 v 61 c 0,49.706 -40.294,90 -90,90 h -34.693"
             style="fill:none;stroke:#000000;stroke-width:30;stroke-linecap:butt;stroke-linejoin:miter;stroke-miterlimit:10;stroke-dasharray:none;stroke-opacity:1" /></g><g
           transform="translate(256,271)"><path fill="currentColor"
             d="m 0,0 c 0,24.853 20.147,45 45,45 24.853,0 45,-20.147 45,-45 0,-24.853 0,-24.853 0,0 v -15 c 0,-39.34 -25.241,-72.785 -60.411,-85.023 0,0 -1.667,4.235 -4.21,11.026"
             style="fill:none;stroke:#000000;stroke-width:30;stroke-linecap:butt;stroke-linejoin:miter;stroke-miterlimit:10;stroke-dasharray:none;stroke-opacity:1" /></g><g
           transform="translate(285.5889,170.9771)"><path fill="currentColor"
             d="M 0,0 C -2.371,14.2 -14.716,25.023 -29.589,25.023 -44.462,25.023 -56.807,14.2 -59.178,0 c -35.17,12.238 -60.411,45.683 -60.411,85.023 v 15 c 0,-24.853 0,-24.853 0,0 0,24.853 20.147,45 45,45 24.853,0 45,-20.147 45,-45"
             style="fill:none;stroke:#000000;stroke-width:30;stroke-linecap:butt;stroke-linejoin:miter;stroke-miterlimit:10;stroke-dasharray:none;stroke-opacity:1" /></g><g
           transform="translate(346,286)"><path fill="currentColor"
             d="M 0,0 V -85.132 C 0,-141.786 -36.253,-192.084 -90,-210 c -53.747,17.916 -90,68.214 -90,124.868 V 0"
             style="fill:none;stroke:#000000;stroke-width:30;stroke-linecap:butt;stroke-linejoin:miter;stroke-miterlimit:10;stroke-dasharray:none;stroke-opacity:1" /></g><g
           transform="translate(166,286)"><path fill="currentColor"
             d="M 0,0 C -16.568,66.274 23.726,134.431 90,151 156.274,134.431 196.568,66.274 180,0"
             style="fill:none;stroke:#000000;stroke-width:30;stroke-linecap:butt;stroke-linejoin:miter;stroke-miterlimit:10;stroke-dasharray:none;stroke-opacity:1" /></g><g
           transform="translate(286,467)"><path fill="currentColor"
             d="m 0,0 c 0,-16.569 -13.432,-30 -30,-30 -16.568,0 -30,13.431 -30,30 0,16.569 13.432,30 30,30 C -13.432,30 0,16.569 0,0 Z"
             style="fill:none;stroke:#000000;stroke-width:30;stroke-linecap:butt;stroke-linejoin:miter;stroke-miterlimit:10;stroke-dasharray:none;stroke-opacity:1" /></g><g
           transform="translate(106,15)"><path fill="currentColor"
             d="M 0,0 V 145.879"
             style="fill:none;stroke:#000000;stroke-width:30;stroke-linecap:butt;stroke-linejoin:miter;stroke-miterlimit:10;stroke-dasharray:none;stroke-opacity:1" /></g><g
           transform="translate(166,166)"><path fill="currentColor"
             d="M 0,0 V -151"
             style="fill:none;stroke:#000000;stroke-width:30;stroke-linecap:butt;stroke-linejoin:miter;stroke-miterlimit:10;stroke-dasharray:none;stroke-opacity:1" /></g><g
           transform="translate(346,15)"><path fill="currentColor"
             d="M 0,0 V 151"
             style="fill:none;stroke:#000000;stroke-width:30;stroke-linecap:butt;stroke-linejoin:miter;stroke-miterlimit:10;stroke-dasharray:none;stroke-opacity:1" /></g><g
           transform="translate(406,160.8789)"><path fill="currentColor"
             d="M 0,0 V -145.879"
             style="fill:none;stroke:#000000;stroke-width:30;stroke-linecap:butt;stroke-linejoin:miter;stroke-miterlimit:10;stroke-dasharray:none;stroke-opacity:1" /></g><g
           transform="translate(106,76)"><path fill="currentColor"
             d="M 0,0 H 60"
             style="fill:none;stroke:#000000;stroke-width:30;stroke-linecap:butt;stroke-linejoin:miter;stroke-miterlimit:10;stroke-dasharray:none;stroke-opacity:1" /></g><g
           transform="translate(346,76)"><path fill="currentColor"
             d="M 0,0 H 60"
             style="fill:none;stroke:#000000;stroke-width:30;stroke-linecap:butt;stroke-linejoin:miter;stroke-miterlimit:10;stroke-dasharray:none;stroke-opacity:1" /></g><g
           transform="translate(168.5605,286)"><path fill="currentColor"
             d="m 0,0 h -17.561 c -24.853,0 -45,-20.147 -45,-45 0,-7.434 1.974,-14.341 5.166,-20.519 -20.706,-9.459 -35.166,-30.231 -35.166,-54.481 0,-7.016 1.205,-13.75 3.417,-20.008"
             style="fill:none;stroke:#000000;stroke-width:30;stroke-linecap:butt;stroke-linejoin:miter;stroke-miterlimit:10;stroke-dasharray:none;stroke-opacity:1" /></g><g
           transform="translate(432.583,145.9922)"><path fill="currentColor"
             d="m 0,0 c 2.213,6.258 3.417,12.992 3.417,20.008 0,24.25 -14.46,45.022 -35.166,54.481 3.192,6.178 5.166,13.085 5.166,20.519 0,24.853 -20.147,45 -45,45 h -17.561"
             style="fill:none;stroke:#000000;stroke-width:30;stroke-linecap:butt;stroke-linejoin:miter;stroke-miterlimit:10;stroke-dasharray:none;stroke-opacity:1" /></g><g
           transform="translate(258.5605,286)"><path fill="currentColor"
             d="M 0,0 H -5.121"
             style="fill:none;stroke:#000000;stroke-width:30;stroke-linecap:butt;stroke-linejoin:miter;stroke-miterlimit:10;stroke-dasharray:none;stroke-opacity:1" /></g></g></g></g></svg>