<svg xmlns="http://www.w3.org/2000/svg" viewBox="0 0 1024 1024">
<g transform="translate(0,1024) scale(0.1,-0.1)">
<path fill="currentColor" d="M5655 10233 c-216 -28 -447 -144 -605 -303 -73 -72 -180 -220 -195
-267 -3 -13 -9 -23 -13 -24 -183 -22 -343 -127 -430 -280 -15 -27 -30 -49 -33
-49 -23 0 -138 216 -214 400 -132 320 -218 431 -374 480 -83 26 -165 26 -238
-2 -76 -28 -174 -125 -225 -223 -35 -67 -81 -191 -92 -245 -2 -14 -9 -47 -15
-75 -29 -135 -36 -220 -36 -410 0 -141 7 -260 20 -322 2 -11 6 -36 9 -54 16
-99 50 -211 98 -332 26 -63 37 -105 32 -113 -41 -55 -141 -173 -147 -173 -4
-1 -33 25 -65 57 -120 124 -264 230 -427 317 -49 27 -92 50 -94 51 -2 2 6 38
17 80 67 246 -48 513 -271 629 l-57 30 0 92 c0 162 -40 278 -131 377 -195 214
-516 221 -720 17 -107 -107 -149 -218 -149 -394 l0 -92 -57 -30 c-73 -38 -169
-128 -211 -197 -79 -131 -100 -285 -60 -432 11 -42 19 -78 17 -80 -2 -1 -44
-24 -94 -51 -485 -259 -821 -725 -882 -1225 -10 -80 -10 -304 -1 -385 64 -549
453 -1056 995 -1295 l88 -39 2 -68 c2 -37 4 -264 6 -503 2 -239 6 -445 10
-457 4 -13 9 -31 11 -40 19 -80 62 -163 126 -248 l50 -66 0 -1504 0 -1503 -73
-22 c-178 -54 -344 -165 -458 -306 -145 -178 -219 -384 -216 -594 2 -86 5
-102 35 -162 37 -77 90 -128 172 -167 l55 -26 4311 -2 c4288 -3 4311 -3 4369
17 150 52 246 192 240 350 -2 49 -16 215 -20 242 -2 13 -6 44 -9 69 -7 50 -13
85 -22 139 -3 19 -8 46 -10 60 -2 14 -6 35 -9 47 -4 17 9 40 52 92 171 204
272 478 275 752 3 176 -28 339 -97 504 -54 131 -51 161 25 245 127 141 222
311 271 480 15 52 13 45 22 90 4 19 10 46 13 60 10 40 13 339 4 405 -16 122
-22 152 -46 244 -46 172 -125 314 -244 441 -68 72 -87 116 -95 222 -3 47 -8
97 -10 110 -2 12 -6 44 -9 69 -18 127 -58 285 -106 419 -33 91 -39 120 -43
220 -4 63 -8 124 -10 135 -3 11 -8 40 -12 65 -11 66 -52 192 -91 278 -110 242
-328 451 -531 512 -36 11 -43 18 -44 39 -5 143 -18 347 -23 378 -2 10 -7 45
-10 78 -4 33 -12 87 -17 120 -6 33 -13 71 -15 85 -2 14 -7 36 -10 50 -3 14 -8
36 -11 50 -2 14 -13 61 -24 105 -111 442 -312 845 -583 1169 -45 53 -65 85
-60 95 63 152 117 323 130 411 3 19 7 40 9 47 19 57 28 467 12 588 -29 235
-91 430 -174 550 -35 52 -111 118 -167 145 -55 26 -69 29 -151 27 -77 -2 -99
-7 -150 -32 -74 -37 -158 -120 -208 -205 -20 -36 -72 -146 -113 -245 -42 -99
-88 -202 -102 -230 -35 -70 -110 -185 -121 -185 -5 0 -14 14 -22 31 -15 38
-82 125 -123 159 -73 62 -175 114 -246 126 -63 10 -69 15 -104 78 -94 168
-244 315 -418 411 -64 35 -210 89 -266 100 -15 3 -38 8 -52 11 -30 7 -273 13
-315 7z m292 -310 c149 -33 274 -103 382 -213 l63 -65 -148 -5 c-165 -6 -192
-14 -225 -67 -50 -81 -26 -173 57 -216 27 -14 77 -17 348 -17 340 -1 352 -3
423 -56 18 -14 45 -46 60 -72 24 -41 28 -61 33 -154 8 -149 17 -160 190 -227
282 -108 559 -290 781 -511 404 -401 662 -945 743 -1567 21 -158 26 -222 31
-374 l4 -145 -72 -64 c-40 -34 -103 -91 -142 -125 -233 -208 -279 -245 -300
-245 -37 0 -47 22 -61 135 -3 28 -7 61 -9 75 -2 14 -7 50 -10 80 -3 30 -8 66
-10 80 -2 14 -7 45 -10 70 -17 126 -72 235 -163 326 -56 56 -86 75 -250 157
-220 110 -389 180 -602 252 -136 46 -356 110 -415 121 -12 2 -61 12 -111 22
-50 10 -117 17 -148 16 -81 -4 -168 -47 -231 -113 -223 -235 -481 -245 -697
-27 -35 34 -81 75 -103 89 -71 46 -180 63 -275 42 -14 -3 -41 -8 -60 -11 -71
-12 -339 -84 -460 -124 -270 -90 -696 -278 -815 -360 -133 -91 -222 -241 -240
-405 -4 -33 -9 -67 -10 -75 -2 -8 -6 -42 -9 -75 -4 -33 -9 -69 -10 -80 -2 -11
-7 -49 -11 -85 -8 -76 -26 -110 -58 -110 -21 0 -52 24 -197 154 -19 17 -51 45
-71 62 l-36 31 64 69 c230 252 386 579 421 884 14 125 5 441 -14 471 -2 4 -6
24 -10 45 -11 74 -74 249 -127 357 l-53 108 54 72 c162 216 363 406 592 559
116 77 365 205 465 238 117 39 143 74 146 201 1 46 8 101 15 122 26 75 90 136
165 157 18 5 175 10 349 10 l317 1 35 24 c86 58 89 187 6 246 -37 27 -39 27
-202 28 l-139 1 39 43 c184 203 466 297 721 240z m-2209 -43 c37 -35 80 -117
152 -290 98 -235 176 -376 272 -492 l39 -47 -108 -55 c-131 -67 -285 -167
-415 -269 l-97 -76 -25 77 c-52 167 -71 296 -71 507 0 300 48 517 142 643 32
42 69 43 111 2z m4223 -12 c59 -82 101 -213 126 -393 16 -119 9 -450 -12 -555
-3 -14 -7 -35 -9 -48 -7 -36 -36 -133 -53 -179 l-15 -42 -52 43 c-121 103
-301 221 -473 311 l-92 48 33 37 c86 96 174 253 271 485 86 204 108 247 152
295 49 55 82 55 124 -2z m-6058 -157 c19 -11 47 -39 62 -62 25 -34 29 -53 33
-125 l5 -84 -203 0 -202 0 3 84 c4 74 7 89 34 127 44 62 105 92 177 86 33 -3
72 -14 91 -26z m283 -588 c98 -33 172 -147 161 -251 -4 -41 -21 -102 -29 -102
-2 0 -19 5 -38 10 -19 6 -46 12 -60 15 -14 2 -50 9 -80 15 -166 32 -497 35
-646 6 -12 -3 -38 -7 -58 -10 -47 -8 -119 -24 -139 -32 -25 -9 -45 49 -43 127
2 76 34 141 91 185 67 51 84 53 452 53 290 0 348 -2 389 -16z m-348 -700 c28
-72 64 -198 76 -268 6 -28 9 -47 21 -105 2 -14 7 -47 11 -75 3 -27 8 -58 9
-67 2 -9 7 -48 10 -85 4 -37 9 -76 11 -86 25 -136 25 -929 -1 -1088 -2 -13 -6
-55 -10 -94 -9 -101 -50 -339 -75 -436 -26 -100 -78 -239 -90 -239 -25 0 -111
290 -136 460 -3 19 -9 62 -14 95 -5 33 -12 87 -15 120 -3 33 -8 74 -10 90 -26
199 -27 955 -1 1092 2 10 7 52 11 93 6 66 33 241 50 325 27 135 97 345 115
345 5 0 22 -35 38 -77z m430 -113 c174 -180 298 -458 357 -795 27 -156 27
-510 1 -641 -2 -12 -7 -39 -10 -59 -31 -195 -128 -441 -241 -610 -49 -74 -187
-225 -205 -225 -5 0 -4 15 1 33 15 49 18 62 39 163 25 118 49 286 65 449 27
279 28 856 1 1120 -2 17 -6 62 -10 100 -4 39 -11 97 -16 130 -5 33 -12 78 -15
100 -9 59 -43 222 -60 284 l-14 54 32 -29 c17 -16 51 -49 75 -74z m-843 46
c-14 -46 -50 -214 -60 -281 -3 -22 -10 -67 -15 -100 -5 -33 -12 -91 -16 -130
-3 -38 -8 -77 -9 -87 -27 -141 -26 -867 0 -1133 10 -101 16 -152 20 -175 2
-14 7 -47 10 -75 3 -27 8 -57 10 -65 2 -8 6 -32 9 -53 4 -21 15 -79 27 -130
11 -51 22 -100 24 -110 2 -9 7 -22 10 -27 18 -30 -20 -2 -82 60 -205 204 -353
551 -391 915 -9 92 -9 372 1 455 33 292 129 564 268 766 48 69 183 214 199
214 5 0 2 -20 -5 -44z m-517 -118 c-86 -146 -182 -410 -212 -583 -3 -16 -10
-53 -15 -81 -19 -98 -26 -201 -26 -374 0 -158 10 -332 19 -349 2 -3 6 -29 10
-58 3 -28 8 -57 11 -65 2 -7 6 -24 9 -38 25 -150 133 -431 217 -566 l22 -36
-24 12 c-51 27 -187 141 -259 216 -189 199 -315 454 -348 704 -9 73 -9 281 1
350 37 264 176 528 384 732 73 71 219 188 235 188 4 0 -7 -24 -24 -52z m1853
-13 c159 -119 323 -313 408 -483 46 -91 98 -253 115 -357 15 -89 15 -321 1
-390 -59 -284 -163 -489 -344 -679 -66 -68 -215 -192 -260 -216 l-24 -12 21
33 c129 212 229 530 259 829 16 151 9 448 -12 590 -21 134 -62 298 -107 420
-29 82 -129 292 -150 317 -24 29 12 9 93 -52z m2501 -1461 c326 -307 735 -304
1064 7 58 55 78 68 96 64 13 -3 68 -14 123 -26 301 -63 669 -195 986 -354 203
-102 234 -140 255 -310 3 -27 7 -61 9 -75 2 -14 7 -52 11 -85 3 -33 8 -67 9
-75 2 -9 7 -43 11 -75 9 -70 7 -60 22 -110 8 -26 13 -143 15 -330 l2 -290 33
-67 c38 -77 91 -128 172 -166 46 -22 70 -26 140 -27 87 0 86 0 213 63 7 4 5
-43 -9 -163 -7 -67 -13 -85 -28 -85 -30 0 -137 -64 -181 -108 -54 -53 -84 -97
-109 -161 -25 -64 -30 -109 -30 -271 0 -148 10 -213 43 -281 l19 -38 -31 -58
c-72 -139 -214 -347 -328 -483 l-36 -42 -128 86 c-240 162 -368 284 -490 470
-188 287 -422 452 -725 511 -51 9 -121 13 -215 11 -156 -4 -177 -7 -279 -42
-108 -38 -112 -38 -167 -15 -176 76 -464 80 -679 10 -230 -76 -419 -229 -575
-465 -126 -190 -301 -355 -537 -508 l-88 -56 -31 35 c-127 139 -365 509 -355
550 3 11 15 47 27 80 19 51 23 83 25 222 4 238 -23 328 -132 439 -47 48 -155
114 -188 114 -17 0 -23 22 -31 115 -3 39 -8 85 -11 103 -2 19 -1 32 3 30 115
-58 129 -62 208 -62 146 0 263 72 322 199 l28 60 2 285 c2 181 7 300 15 325
14 50 15 53 28 150 27 197 28 201 35 270 18 170 54 217 233 308 240 122 508
230 739 297 76 22 149 43 163 46 14 2 70 15 125 28 55 13 108 22 118 20 10 -2
50 -33 89 -70z m3738 -806 c128 -62 256 -221 320 -397 45 -123 59 -216 55
-366 -4 -149 -8 -170 -42 -280 -70 -223 -206 -385 -385 -459 -37 -16 -38 -16
-52 12 -21 40 -84 104 -136 138 -46 30 -61 44 -55 54 3 6 12 79 22 190 3 41 6
167 5 280 l-1 205 35 99 c48 137 79 296 90 461 3 44 7 86 10 94 6 19 54 8 134
-31z m-6256 -228 c3 -25 8 -56 11 -70 3 -14 7 -37 10 -51 9 -47 53 -193 73
-239 10 -25 17 -54 16 -65 -5 -27 -4 -391 0 -435 2 -19 7 -67 10 -105 4 -39 9
-82 11 -97 4 -22 -1 -30 -38 -51 -41 -24 -126 -108 -157 -155 l-15 -22 -54 25
c-30 14 -75 41 -102 60 -46 34 -47 37 -38 68 6 18 12 43 15 57 2 14 6 36 8 50
3 14 5 238 5 498 l1 472 41 17 c23 9 76 33 118 53 42 21 77 37 77 36 1 0 5
-21 8 -46z m5775 -77 c-52 -197 -126 -338 -248 -468 -45 -49 -64 -54 -93 -28
-16 14 -18 34 -18 178 l0 162 58 5 c76 7 139 40 232 122 41 36 76 65 77 66 1
0 -3 -17 -8 -37z m-5389 -30 c90 -81 152 -113 232 -120 l58 -6 0 -160 c0 -135
-3 -163 -17 -179 -25 -28 -48 -22 -91 25 -120 126 -213 301 -247 467 -9 39 -7
39 65 -27z m-1672 -53 c102 -19 180 -25 332 -25 142 0 291 9 322 20 7 2 30 6
51 9 l37 6 0 -418 c0 -250 -5 -435 -11 -462 -27 -119 -109 -222 -216 -272 -63
-30 -85 -36 -157 -41 -134 -11 -289 74 -361 196 -51 89 -55 127 -55 579 0 230
2 418 4 418 2 0 26 -4 54 -10z m8076 -1005 c3 -17 8 -68 11 -115 14 -196 47
-274 178 -419 108 -118 159 -224 194 -401 18 -92 26 -343 12 -425 -29 -183
-121 -370 -243 -496 -86 -89 -129 -195 -128 -314 1 -71 18 -137 66 -251 102
-241 92 -523 -27 -762 l-31 -62 -47 132 c-25 73 -51 144 -56 158 -6 15 -7 37
-1 55 9 34 12 127 3 166 -17 87 -123 251 -339 526 -51 65 -93 87 -156 81 -98
-10 -157 -99 -125 -190 6 -20 43 -76 81 -125 157 -200 244 -330 244 -364 0
-18 -249 -518 -440 -884 -26 -49 -103 -199 -171 -333 l-123 -242 -1114 0
-1113 0 29 43 c58 85 125 253 139 350 3 21 6 46 8 55 2 9 4 20 4 23 1 4 27 17
59 29 99 40 343 167 437 228 366 238 633 561 789 953 40 101 100 303 112 379
3 14 7 36 9 50 10 50 13 66 19 115 4 28 9 67 12 88 3 21 19 59 35 85 40 63 61
139 58 213 -2 59 -2 62 47 119 27 32 52 58 56 57 11 -3 174 -155 306 -284 131
-130 154 -142 226 -129 104 20 151 145 87 232 -30 42 -262 271 -373 368 l-68
60 21 30 c11 17 48 78 82 134 60 102 62 104 92 96 16 -4 65 -8 107 -10 127 -5
236 38 327 127 91 89 132 195 135 342 l2 90 60 21 c182 66 344 196 452 363 26
39 48 71 49 69 1 -1 4 -15 7 -31z m-6398 -206 c69 -33 82 -71 80 -239 -1 -151
-6 -167 -70 -214 -40 -30 -120 -29 -164 2 -61 44 -67 74 -63 318 1 62 30 111
81 136 46 23 84 23 136 -3z m5429 11 c44 -15 82 -58 92 -105 11 -48 10 -237
-1 -282 -9 -41 -65 -90 -112 -99 -75 -14 -153 34 -171 106 -5 19 -9 89 -8 156
1 101 4 125 21 154 38 66 108 93 179 70z m-6182 -121 c59 -38 194 -99 220 -99
11 0 14 -19 15 -87 1 -49 7 -110 13 -138 36 -155 170 -290 329 -331 62 -16
158 -15 231 2 25 5 30 0 70 -68 23 -40 65 -108 92 -151 l50 -79 -34 -26 c-180
-141 -451 -401 -590 -567 -160 -191 -314 -412 -425 -607 l-49 -87 -5 432 c-5
432 -5 433 -28 462 -37 47 -62 59 -122 60 -41 0 -63 -6 -86 -22 -67 -48 -64
-9 -64 -867 l0 -776 -200 0 -200 0 0 1406 0 1406 33 -6 c17 -3 43 -9 57 -12
42 -9 192 -6 240 5 25 6 50 11 57 11 9 0 13 -80 15 -322 3 -350 2 -342 61
-388 59 -47 164 -30 209 33 23 32 23 34 26 450 2 323 6 416 15 410 7 -4 38
-24 70 -44z m3161 -265 c31 -8 77 -24 103 -36 33 -14 74 -22 129 -24 71 -3 92
1 158 26 105 41 115 42 252 46 138 4 218 -13 339 -70 141 -67 230 -150 342
-321 74 -112 139 -192 228 -279 105 -102 264 -225 403 -312 97 -59 122 -83
122 -111 0 -67 -45 -84 -260 -100 -266 -19 -474 6 -660 79 -209 82 -450 274
-583 464 -106 152 -177 197 -317 200 -147 4 -223 -40 -326 -189 -116 -166
-363 -374 -534 -450 -68 -30 -211 -76 -259 -83 -20 -3 -42 -7 -49 -9 -64 -22
-418 -23 -527 -1 -11 2 -38 7 -60 10 -48 8 -70 23 -79 54 -14 42 5 63 132 146
308 202 465 351 625 594 132 199 279 310 478 361 91 24 263 26 343 5z m332
-816 c108 -154 274 -310 459 -430 118 -77 226 -128 354 -169 l104 -32 -74 -29
c-159 -62 -401 -125 -579 -152 -167 -25 -554 -26 -675 -2 -11 2 -42 7 -70 10
-138 19 -355 77 -518 139 l-89 34 103 32 c139 45 244 95 370 178 197 131 383
313 479 469 17 26 28 34 50 34 24 0 37 -12 86 -82z m-2214 -254 c1 -83 19
-152 60 -218 31 -51 32 -56 43 -141 3 -27 10 -77 16 -110 6 -33 12 -70 14 -83
2 -12 6 -30 9 -40 3 -9 7 -28 10 -42 22 -121 107 -346 187 -500 227 -432 602
-757 1134 -981 53 -22 61 -29 63 -55 8 -109 68 -276 142 -395 l30 -49 -1160 0
-1160 0 0 63 c-1 80 -7 125 -30 220 -76 311 -336 585 -637 674 -35 10 -63 21
-63 25 0 15 90 248 134 348 234 527 614 1019 1061 1374 l70 56 38 -39 c38 -37
39 -41 39 -107z m467 -447 c90 -159 250 -366 391 -507 242 -242 513 -409 813
-500 37 -12 67 -23 67 -25 0 -3 -15 -26 -34 -52 -41 -58 -109 -193 -126 -251
-16 -51 -10 -52 -173 30 -531 269 -853 680 -971 1236 -13 61 -21 113 -19 116
11 10 29 -6 52 -47z m3357 -70 c-119 -560 -444 -971 -982 -1240 -138 -69 -154
-74 -154 -50 0 29 -73 183 -116 248 -22 33 -43 65 -47 71 -4 7 33 24 106 48
423 140 796 440 1077 866 89 136 127 186 136 177 2 -2 -6 -56 -20 -120z
m-2519 -242 c95 -29 246 -65 333 -79 14 -2 41 -7 60 -10 124 -21 257 -30 420
-30 125 0 301 9 360 18 14 3 45 7 70 10 47 6 63 9 146 26 28 6 61 13 75 15 68
13 289 82 398 125 l124 49 -44 -46 c-281 -296 -572 -463 -919 -528 -58 -11
-291 -14 -350 -5 -191 29 -298 63 -463 145 -167 84 -309 189 -462 344 l-89 91
114 -46 c63 -25 165 -60 227 -79z m905 -825 c290 -303 290 -665 0 -969 -36
-38 -66 -61 -79 -61 -43 0 -174 154 -236 275 -123 244 -66 524 151 753 40 41
68 62 83 62 15 0 43 -21 81 -60z m3453 -267 c19 -73 36 -145 39 -160 2 -16 9
-53 15 -83 13 -68 18 -101 27 -165 3 -27 8 -58 10 -68 1 -9 6 -54 10 -100 3
-45 7 -96 9 -114 1 -17 -4 -41 -12 -52 -14 -20 -22 -21 -329 -21 -173 0 -314
3 -314 6 0 6 363 721 447 882 l38 72 14 -32 c7 -18 28 -92 46 -165z m-7067
-83 c276 -72 471 -307 489 -592 l6 -88 -936 0 c-1079 0 -973 -11 -964 104 23
276 218 505 491 576 63 17 112 19 456 19 344 -1 393 -3 458 -19z M5705 8415
c-82 -18 -146 -55 -211 -120 -202 -200 -203 -535 -2 -738 117 -118 276 -158
428 -107 202 68 324 261 316 500 -4 139 -52 252 -148 349 -98 100 -251 147
-383 116z m147 -306 c25 -14 64 -69 77 -111 17 -52 11 -131 -14 -179 -58 -115
-178 -121 -242 -11 -23 38 -27 58 -28 117 0 62 4 78 30 120 46 74 113 98 177
64z M4300 8225 c-167 -34 -313 -179 -349 -344 -22 -103 4 -246 61 -336 57 -89
164 -167 268 -195 147 -40 326 12 435 125 186 194 158 513 -58 672 -101 74
-235 104 -357 78z m170 -313 c50 -37 72 -82 67 -135 -16 -175 -260 -188 -292
-15 -23 123 127 223 225 150z M7100 8225 c-167 -34 -313 -179 -349 -344 -22
-103 4 -246 61 -336 57 -89 164 -167 268 -195 147 -40 326 12 435 125 186 194
158 513 -58 672 -101 74 -235 104 -357 78z m170 -313 c50 -37 72 -82 67 -135
-16 -175 -260 -188 -292 -15 -23 123 127 223 225 150z M5026 6215 c-58 -30
-81 -66 -81 -129 1 -61 28 -106 78 -133 29 -16 96 -17 767 -17 716 -1 736 0
769 19 61 36 93 105 77 169 -8 33 -53 85 -85 98 -18 8 -259 12 -756 12 -713 1
-731 1 -769 -19z M5026 5615 c-58 -30 -81 -66 -81 -129 1 -61 28 -106 78 -133
29 -16 96 -17 767 -17 716 -1 736 0 769 19 49 29 73 67 78 122 5 54 -18 98
-70 137 -28 20 -35 21 -765 21 -720 0 -738 0 -776 -20z M4231 5092 c-101 -48
-108 -201 -12 -260 16 -10 62 -26 102 -36 l74 -18 0 -153 c0 -140 2 -156 21
-181 52 -71 129 -90 199 -51 60 35 75 73 75 199 l0 107 32 -10 c49 -14 77 -11
125 12 73 35 100 117 64 192 -32 66 -22 62 -436 173 -49 14 -99 27 -110 30
-44 13 -104 11 -134 -4z M7225 5099 c-16 -5 -37 -12 -46 -14 -131 -30 -440
-120 -458 -133 -46 -33 -64 -67 -64 -121 -1 -57 18 -91 73 -128 35 -25 75 -29
128 -14 l32 10 0 -93 c0 -52 3 -107 6 -123 11 -57 82 -113 140 -113 39 0 109
36 131 68 15 23 18 51 20 182 l3 155 86 27 c54 17 97 37 115 54 26 25 32 38
43 100 6 31 -28 98 -62 123 -36 25 -104 35 -147 20z"/>
</g>
</svg>
