<svg xmlns="http://www.w3.org/2000/svg" viewBox="0 0 1024 1024">
<g transform="translate(0,1024) scale(0.1,-0.1)">
<path fill="currentColor" d="M3213 9643 l0 -598 -1006 -3 -1007 -2 -2 -1007 -3 -1006 -597 0 -598
0 0 -1907 0 -1907 598 0 597 0 3 -1006 2 -1007 1005 0 c797 0 1005 -3 1006
-12 0 -7 1 -277 1 -600 l1 -588 1907 0 1907 0 1 588 c0 323 1 593 1 600 1 9
209 12 1006 12 l1005 0 0 1005 c0 797 3 1005 13 1006 6 0 276 1 600 1 l587 1
0 1907 0 1907 -587 1 c-324 0 -594 1 -600 1 -10 1 -13 209 -13 1006 l0 1005
-1007 2 -1006 3 0 598 0 597 -1907 0 -1907 0 0 -597z m3213 -303 l0 -300 -503
0 -503 0 0 -900 0 -900 910 0 910 0 0 -910 0 -910 900 0 900 0 0 503 0 503
298 0 297 -1 0 -1305 0 -1305 -297 -1 -298 0 0 503 0 503 -900 0 -900 0 0
-910 0 -910 -910 0 -910 0 0 -900 0 -900 503 0 503 0 0 -300 0 -300 -1306 0
-1307 0 0 300 0 300 504 0 503 0 0 900 0 900 -910 0 -910 0 0 910 0 910 -900
0 -900 0 -2 -503 -3 -502 -297 -1 -298 0 0 1306 0 1306 298 0 297 -1 3 -502 2
-503 900 0 900 0 0 910 0 910 910 0 910 0 0 900 0 900 -503 0 -504 0 0 300 0
300 1307 0 1306 0 0 -300z m-2206 -1200 l0 -300 -910 0 -910 0 0 -910 0 -910
-300 0 -300 0 0 1210 0 1210 1210 0 1210 0 0 -300z m4220 -910 l0 -1210 -300
0 -300 0 0 910 0 910 -910 0 -910 0 0 300 0 300 1210 0 1210 0 0 -1210z
m-6040 -3920 l0 -910 910 0 910 0 0 -300 0 -300 -1210 0 -1210 0 0 1210 0
1210 300 0 300 0 0 -910z m6040 -300 l0 -1210 -1210 0 -1210 0 0 300 0 300
910 0 910 0 0 910 0 910 300 0 300 0 0 -1210z M4979 6636 c-2 -2 -24 -6 -49
-9 -105 -14 -139 -21 -220 -44 -585 -169 -1018 -665 -1097 -1258 -10 -76 -10
-344 0 -409 33 -210 98 -396 196 -564 125 -214 328 -417 546 -545 132 -77 361
-163 485 -181 25 -4 65 -10 90 -14 60 -9 332 -8 395 1 28 5 68 12 90 17 22 5
51 11 65 13 60 11 222 71 315 117 295 145 540 390 685 685 46 93 106 255 117
315 2 14 9 45 14 69 18 80 24 155 24 296 0 127 -3 162 -21 275 -27 168 -127
413 -232 567 -160 234 -383 423 -638 539 -81 37 -239 87 -324 103 -30 6 -68
13 -85 17 -32 6 -350 15 -356 10z m305 -612 c329 -62 598 -292 704 -600 102
-296 45 -637 -147 -874 -231 -284 -564 -400 -935 -325 -135 28 -302 119 -422
232 -276 260 -360 689 -204 1038 127 282 402 491 710 538 61 9 223 4 294 -9z
M4820 5120 l0 -300 300 0 300 0 0 300 0 300 -300 0 -300 0 0 -300z"/>
</g>
</svg>
