<svg xmlns="http://www.w3.org/2000/svg" viewBox="0 0 1024 1024">
<g transform="translate(0,1024) scale(0.1,-0.1)">
<path fill="currentColor" d="M1432 10098 c-329 -491 -553 -920 -607 -1163 -7 -34 -8 -158 0 -195
3 -14 7 -34 9 -45 18 -87 82 -213 150 -292 89 -103 257 -199 384 -219 54 -9
52 -14 -4 -15 -27 0 -56 -2 -64 -4 -8 -1 -35 -6 -59 -10 -208 -32 -432 -195
-543 -395 -80 -145 -97 -243 -95 -550 l2 -245 904 -1 903 0 -5 275 c-4 247 -7
284 -26 351 -99 335 -404 572 -746 580 -36 1 -32 3 35 21 248 64 431 242 498
486 27 94 27 222 1 316 -60 216 -246 570 -526 1004 -69 106 -128 195 -133 198
-5 3 -40 -41 -78 -97z M8672 10113 c-305 -454 -536 -886 -602 -1125 -28 -101
-23 -246 13 -349 82 -240 280 -412 522 -456 47 -8 43 -13 -11 -14 -136 -2
-298 -56 -421 -141 -150 -102 -262 -261 -315 -445 -21 -72 -23 -99 -23 -348
l0 -270 900 0 900 0 2 245 c2 307 -10 379 -88 533 -128 251 -396 419 -684 427
-37 1 -34 3 30 19 184 45 335 155 431 313 35 58 72 149 80 198 2 14 7 36 10
49 10 47 5 159 -11 222 -47 180 -179 455 -376 780 -82 136 -287 449 -293 449
-3 0 -32 -39 -64 -87z M4263 8724 c-155 -31 -280 -139 -369 -316 -36 -71 -78
-192 -88 -249 -8 -48 -15 -85 -22 -116 -10 -44 -14 -404 -6 -443 l8 -34 787 0
c432 0 789 3 793 6 7 8 -24 107 -77 241 -238 600 -670 984 -1026 911z M5795
8724 c-71 -14 -151 -45 -212 -81 l-44 -25 18 -27 c48 -73 144 -235 180 -306
92 -180 198 -461 239 -637 12 -55 22 -78 33 -79 9 -1 114 -2 233 -2 l216 -2 5
35 c7 46 1 405 -7 450 -4 19 -9 46 -12 60 -3 14 -8 36 -10 50 -8 49 -57 186
-87 245 -123 246 -330 366 -552 319z M3170 6952 c0 -24 203 -827 211 -832 4
-3 789 -5 1745 -5 l1738 0 105 423 c59 232 104 422 101 423 -3 1 -881 2 -1953
3 -1559 1 -1947 -2 -1947 -12z M600 6060 l0 -300 905 0 905 0 0 300 0 300
-905 0 -905 0 0 -300z M7830 6060 l0 -300 905 0 905 0 0 300 0 300 -905 0
-905 0 0 -300z M3251 5433 c-64 -149 -148 -405 -164 -498 -3 -16 -10 -50 -15
-75 -6 -25 -14 -67 -18 -95 -3 -27 -7 -52 -9 -55 -2 -3 -6 -39 -10 -80 l-7
-76 2092 0 2092 0 -6 65 c-25 259 -95 517 -232 849 l-17 42 -1836 0 -1837 0
-33 -77z M600 4103 l0 -1053 905 0 905 0 -2 1053 -3 1052 -902 1 -903 0 0
-1053z M7830 4103 l0 -1053 905 0 905 0 0 1053 0 1053 -905 0 -905 0 0 -1053z
M3034 3880 c4 -39 9 -76 11 -83 2 -7 6 -30 9 -52 16 -134 94 -415 162 -590
l40 -100 1861 -3 1862 -2 21 47 c88 198 185 568 206 791 l6 62 -2092 0 -2092
0 6 -70z M4 2438 c-6 -9 4 -70 22 -142 53 -208 208 -406 429 -548 159 -102
342 -167 555 -196 73 -9 8147 -9 8225 1 221 27 460 122 635 252 69 50 183 171
231 244 74 114 136 284 135 371 l-1 25 -5113 0 c-2813 0 -5116 -3 -5118 -7z
M1246 913 c10 -43 74 -202 102 -252 174 -316 480 -537 838 -607 83 -16 270
-18 2899 -18 2576 0 2900 2 2975 19 14 3 36 7 50 10 14 2 64 18 112 34 365
124 652 421 761 789 l16 52 -3880 0 -3879 0 6 -27z"/>
</g>
</svg>
