<svg xmlns="http://www.w3.org/2000/svg" viewBox="0 0 1024 1024">
<g transform="translate(0,1024) scale(0.1,-0.1)">
<path fill="currentColor" d="M9214 9599 c-101 -38 -177 -134 -189 -239 -3 -25 -8 -63 -10 -85 -12
-100 -91 -197 -193 -235 -43 -16 -81 -19 -314 -20 -146 0 -276 -3 -289 -5 -13
-3 -41 -7 -62 -10 -210 -32 -449 -186 -574 -371 -110 -162 -157 -310 -158
-494 0 -84 3 -102 28 -152 97 -198 379 -223 507 -46 35 47 56 116 63 201 10
116 84 216 191 256 45 17 81 19 306 21 280 1 313 3 407 25 384 89 673 437 689
828 4 115 -12 171 -70 242 -75 91 -218 127 -332 84z M2182 8199 c-71 -36 -102
-94 -151 -294 -34 -139 -49 -244 -56 -392 l-4 -93 392 0 392 0 33 103 c18 56
52 142 76 192 l44 89 -62 59 c-111 106 -267 217 -442 313 -85 46 -159 54 -222
23z M4148 8172 c-223 -116 -441 -289 -577 -458 -65 -80 -142 -199 -166 -256
l-15 -38 598 0 598 0 -2 58 c-8 205 -35 362 -96 566 -33 110 -101 170 -199
175 -38 2 -62 -6 -141 -47z M7631 6998 c-23 -11 -52 -35 -65 -52 -23 -30 -301
-537 -365 -663 -99 -198 -78 -433 55 -614 l36 -49 428 0 428 0 36 49 c133 181
154 416 55 614 -56 111 -330 611 -356 650 -55 80 -165 108 -252 65z M1860
6811 c-93 -29 -177 -108 -205 -192 -29 -87 -22 -134 57 -376 l73 -223 1534 3
1534 2 74 220 c80 239 87 287 58 374 -21 63 -90 141 -152 172 l-48 24 -1450 2
c-797 1 -1461 -2 -1475 -6z M1719 5348 c-90 -153 -156 -339 -183 -513 -13 -85
-15 -359 -3 -411 3 -12 8 -37 11 -55 12 -72 18 -94 47 -188 57 -177 158 -363
276 -503 l48 -57 1403 0 1403 -1 32 36 c120 135 240 350 297 528 91 291 89
607 -6 892 -33 97 -94 232 -135 296 l-31 48 -1559 0 -1558 0 -42 -72z M6511
4998 c-72 -27 -142 -97 -169 -169 -38 -101 -24 -366 29 -522 119 -355 421
-612 792 -675 23 -4 281 -7 572 -7 524 0 531 0 619 23 396 105 681 408 750
799 21 119 19 315 -4 375 -27 72 -81 132 -148 165 l-57 28 -1165 2 c-1160 2
-1165 2 -1219 -19z M191 2998 c-72 -27 -142 -97 -169 -169 -36 -94 -18 -271
41 -398 88 -192 282 -350 487 -397 19 -5 2067 -10 4550 -11 4891 -3 4561 -6
4700 48 256 102 438 365 438 636 0 126 -61 228 -166 280 l-57 28 -4885 2
-4885 2 -54 -21z M824 1354 c35 -362 298 -656 646 -721 25 -4 1672 -8 3660 -8
3344 0 3619 1 3675 17 106 29 172 58 248 108 209 136 339 352 363 601 l6 69
-4302 0 -4302 0 6 -66z"/>
</g>
</svg>
