<svg xmlns="http://www.w3.org/2000/svg" viewBox="0 0 1024 1024">
<g transform="translate(0,1024) scale(0.1,-0.1)">
<path fill="currentColor" d="M7163 10183 c54 -103 105 -259 124 -378 10 -63 10 -323 1 -390 -20
-131 -85 -305 -170 -454 -116 -203 -228 -328 -513 -576 -93 -81 -258 -237
-365 -345 l-195 -198 -1635 -1258 c-899 -691 -1777 -1366 -1950 -1500 -339
-260 -360 -281 -362 -366 -1 -80 40 -144 112 -177 54 -24 117 -21 166 8 20 12
777 591 1683 1288 1923 1479 1676 1291 1668 1277 -16 -28 -26 -264 -16 -413
l4 -64 -170 -132 c-93 -72 -631 -486 -1195 -919 -564 -434 -1038 -800 -1053
-815 -40 -36 -59 -77 -62 -130 -2 -51 7 -80 41 -127 43 -59 144 -86 212 -58
23 9 1738 1320 2284 1746 l38 29 9 -23 c46 -112 97 -223 124 -270 l32 -58 410
315 c225 173 413 319 417 323 5 5 0 32 -11 60 -80 202 -99 466 -50 694 33 152
123 257 258 298 31 10 96 21 145 25 50 4 97 8 105 10 9 1 52 6 95 10 43 4 86
8 95 10 9 1 54 6 101 10 47 4 92 8 100 10 8 1 51 6 95 9 44 4 91 9 105 11 14
2 57 6 95 10 39 3 81 8 95 10 14 2 61 6 104 10 43 4 86 8 95 10 9 1 54 6 101
10 47 4 92 8 100 10 8 2 53 6 100 10 47 4 92 8 100 10 22 4 169 18 210 19 150
7 308 -95 361 -234 26 -67 32 -163 14 -227 -7 -26 -155 -425 -328 -885 -205
-543 -326 -853 -347 -883 -40 -58 -109 -109 -182 -134 -61 -21 -183 -26 -273
-11 -27 5 -68 12 -90 15 -117 19 -305 100 -432 185 l-71 48 -360 -276 c-319
-245 -359 -279 -344 -290 9 -7 77 -43 150 -80 103 -52 130 -69 120 -78 -12
-11 -235 -183 -1760 -1357 -543 -418 -609 -472 -628 -513 -42 -86 -9 -190 76
-240 53 -31 118 -34 172 -7 20 10 402 299 847 642 446 344 1021 787 1278 985
353 272 476 361 495 360 15 0 50 -3 77 -7 116 -17 188 -22 327 -22 81 0 144
-3 140 -6 -4 -4 -682 -526 -1507 -1161 -2070 -1592 -2063 -1587 -2086 -1611
-106 -113 -22 -309 133 -311 29 0 67 7 83 15 17 8 1025 780 2240 1715 1216
935 2233 1715 2260 1734 164 110 377 307 503 464 269 336 457 767 507 1163 4
26 9 59 11 73 10 49 12 416 3 495 -8 63 -41 239 -64 337 -129 549 -423 1113
-810 1553 -69 78 -314 321 -316 313 -1 -1 -2 -21 -4 -43 -4 -75 -17 -218 -21
-244 -35 -211 -75 -369 -133 -521 -56 -151 -83 -208 -168 -362 -85 -152 -116
-183 -195 -194 -103 -14 -199 57 -212 158 -3 18 -7 78 -11 133 -3 55 -7 111
-9 125 -3 14 -7 41 -10 60 -3 19 -8 53 -11 75 -22 145 -93 373 -171 548 -135
306 -390 599 -685 790 -115 74 -256 148 -246 130z M8777 7394 c-1 -1 -36 -5
-77 -9 -41 -4 -82 -8 -90 -10 -8 -1 -51 -6 -94 -10 -43 -4 -86 -8 -95 -10 -9
-1 -50 -6 -91 -10 -41 -4 -82 -8 -90 -10 -8 -2 -49 -6 -90 -10 -41 -4 -82 -8
-90 -10 -8 -1 -51 -6 -94 -10 -43 -4 -86 -8 -95 -10 -9 -1 -50 -6 -91 -10 -41
-4 -82 -9 -91 -10 -9 -2 -52 -6 -95 -10 -43 -4 -86 -9 -94 -10 -8 -2 -49 -6
-90 -10 -41 -4 -82 -8 -90 -10 -8 -2 -48 -6 -87 -10 -40 -4 -81 -8 -90 -9 -33
-5 -47 -55 -50 -176 -4 -166 31 -310 117 -480 149 -295 431 -598 663 -712 119
-59 180 -76 293 -85 63 -5 72 -3 78 13 4 11 140 372 301 804 161 432 297 793
301 803 5 15 1 17 -30 15 -20 -1 -38 -3 -39 -4z M5380 4945 c-3519 -2708
-4087 -3146 -4109 -3167 -38 -34 -63 -103 -57 -151 16 -113 137 -187 241 -147
20 8 5498 4215 5712 4387 l42 34 -59 71 c-33 39 -81 102 -107 139 -25 38 -49
69 -53 69 -3 0 -728 -556 -1610 -1235z M1518 3810 c-20 -4 -49 -15 -65 -25
-15 -10 -339 -259 -720 -552 -620 -478 -694 -538 -714 -579 -42 -87 -4 -201
82 -244 45 -23 78 -26 474 -34 127 -3 363 -8 526 -12 l297 -7 843 649 c463
357 856 657 871 668 16 10 27 20 25 23 -5 5 -55 10 -187 18 -58 4 -121 8 -140
10 -19 2 -82 6 -140 10 -58 4 -121 8 -140 10 -19 2 -80 6 -135 10 -55 3 -128
8 -162 10 -35 3 -91 7 -125 10 -35 2 -103 7 -153 10 -49 3 -112 8 -140 10 -27
2 -95 7 -150 10 -55 4 -102 8 -105 9 -3 2 -21 0 -42 -4z M2973 2161 c-463
-357 -854 -658 -868 -669 -24 -19 -44 -77 -69 -204 -2 -13 -57 -243 -121 -513
-64 -269 -117 -510 -118 -535 -4 -130 135 -227 254 -177 30 12 1352 1032 1426
1099 28 26 51 75 59 124 3 22 12 69 20 106 7 37 16 82 19 100 5 29 13 73 30
158 3 14 8 41 11 60 3 19 10 54 15 78 5 23 12 59 15 80 3 20 12 67 20 104 7
37 16 82 19 100 5 29 13 73 30 158 3 14 8 41 11 60 3 19 10 54 15 78 5 23 12
59 15 80 3 20 12 69 20 107 8 39 17 86 20 105 3 19 11 61 18 93 7 31 11 57 7
57 -3 0 -385 -292 -848 -649z"/>
</g>
</svg>
