<svg viewBox="0 0 512 512" xmlns="http://www.w3.org/2000/svg"><g><g><path fill="currentColor" d="m256 7.197c-136.617 0-247.802 111.636-247.802 248.853 0 137.167 111.185 248.753 247.802 248.753 136.666 0 247.802-111.586 247.802-248.753 0-137.217-111.136-248.853-247.802-248.853zm176.865 152.035c6.508 12.015 11.864 24.73 15.919 37.996-2.403-.5-1.752.1-23.128 5.607-2.703.701-4.255 3.454-3.554 6.107.701 2.703 3.454 4.255 6.157 3.554 21.176-5.957 21.026-5.056 22.878-6.858 3.704 14.568 5.807 29.736 6.208 45.355h-163.95c-.401-3.304-1.252-6.458-2.503-9.462zm-39.298-50.812c-1.752.701-1.352.951-16.871 16.32-1.952 2.002-1.952 5.156 0 7.109 1.952 1.952 5.106 1.952 7.058 0 15.219-15.469 15.619-15.169 16.37-17.021 10.513 10.813 19.824 22.778 27.734 35.744l-141.973 82.3c-2.003-2.553-4.305-4.856-6.858-6.858l81.95-142.574c11.715 7.209 22.628 15.569 32.59 24.98zm-132.561-54.566c14.017.35 27.734 2.102 40.9 5.207-1.201 1.502-.551.951-6.508 22.677-.701 2.703.901 5.407 3.554 6.157 2.703.701 5.407-.901 6.108-3.554 5.657-21.727 6.007-20.976 5.657-22.978 14.618 4.155 28.585 9.862 41.651 17.021l-82 142.574c-2.954-1.201-6.108-2.052-9.361-2.503v-164.601zm-63.027 8.46c-.35 2.053.05 1.352 5.607 23.028.701 2.603 3.454 4.255 6.157 3.504 2.653-.701 4.255-3.454 3.554-6.107-6.007-21.626-5.156-21.126-6.708-22.878 14.268-3.605 29.136-5.657 44.404-6.007v164.6c-3.254.451-6.408 1.302-9.362 2.503l-81.95-142.574c12.066-6.607 24.882-12.014 38.298-16.069zm-85.754 52.214c.851 1.702.3.551 16.12 16.67 1.952 1.952 5.106 1.952 7.058 0 2.003-1.952 2.003-5.106.05-7.058-16.07-15.969-14.768-15.319-16.52-16.17 9.862-9.211 20.575-17.471 32.089-24.53l81.95 142.574c-2.553 2.003-4.856 4.305-6.858 6.858l-141.973-82.3c8.009-13.066 17.471-25.181 28.084-36.044zm-51.313 90.911c1.602 1.351 1.201.651 22.678 6.608 2.703.751 5.406-.851 6.107-3.504.751-2.653-.851-5.407-3.504-6.158-21.826-5.757-20.976-5.957-22.778-5.707 4.005-13.116 9.311-25.631 15.719-37.446l141.973 82.3c-1.252 3.004-2.052 6.158-2.503 9.462h-163.9c.351-15.669 2.454-30.938 6.208-45.555zm18.223 147.329c-7.259-13.366-13.066-27.634-17.171-42.602 1.852.401-.15.601 23.128-5.607 2.703-.701 4.255-3.454 3.554-6.108-.701-2.653-3.454-4.255-6.107-3.554-21.326 5.957-21.026 5.206-22.778 6.658-3.004-13.066-4.756-26.632-5.056-40.549h163.9c.451 3.304 1.252 6.458 2.503 9.462zm35.993 47.658c2.503-.751 1.552-1.001 17.371-16.52 1.952-1.952 1.952-5.106 0-7.058s-5.106-1.952-7.058 0c-15.169 15.569-15.669 14.968-16.42 17.321-9.311-10.062-17.671-20.975-24.88-32.74l141.973-82.3c2.003 2.553 4.305 4.856 6.858 6.858l-81.95 142.574c-13.016-8.011-25.03-17.472-35.894-28.135zm135.866 57.72c-15.469-.35-30.487-2.453-44.905-6.157 2.003-1.902 1.051-2.053 7.009-23.178.701-2.653-.901-5.407-3.554-6.108-2.703-.701-5.407.851-6.157 3.554-5.407 21.476-6.158 20.825-5.457 23.428-13.416-4.055-26.182-9.462-38.247-16.07l81.95-142.574c2.954 1.201 6.108 2.053 9.362 2.503v164.602zm59.723-7.509c.651-2.553-.1-2.102-5.507-23.378-.701-2.653-3.504-4.255-6.107-3.554-2.703.701-4.305 3.454-3.554 6.157 5.907 21.226 5.056 21.076 6.808 22.978-13.316 3.154-27.133 4.956-41.35 5.306v-164.6c3.254-.45 6.408-1.302 9.361-2.503l82 142.574c-13.067 7.158-27.034 12.865-41.651 17.02zm92.012-56.268c-.601-2.854-1.202-1.952-16.42-17.772-1.952-1.952-5.106-1.952-7.109 0-1.952 1.952-1.952 5.106 0 7.058 15.218 14.818 14.768 16.02 17.822 16.62-10.863 10.713-22.928 20.225-36.044 28.285l-81.95-142.574c2.553-2.002 4.856-4.305 6.858-6.858l141.973 82.3c-7.209 11.865-15.669 22.878-25.13 32.941zm49.41-92.363c-1.902-1.952-2.003-1.001-22.978-7.009-2.603-.701-5.407.901-6.107 3.554-.751 2.653.851 5.407 3.504 6.157 20.725 5.106 20.725 6.358 23.479 5.557-4.105 14.918-9.912 29.136-17.171 42.502l-141.973-82.3c1.252-3.004 2.102-6.157 2.503-9.462h163.95c-.351 14.068-2.103 27.785-5.207 41.001z"/></g></g><g/></svg>