<svg xmlns="http://www.w3.org/2000/svg" viewBox="0 0 1024 1024">
<g transform="translate(0,1024) scale(0.1,-0.1)">
<path fill="currentColor" d="M4967 9373 c-171 -29 -355 -132 -501 -281 l-48 -50 -60 30 c-92 45
-227 76 -333 76 -216 0 -406 -91 -618 -297 -65 -63 -117 -106 -130 -107 -199
-13 -369 -117 -445 -271 -18 -37 -31 -52 -41 -48 -52 20 -269 28 -339 12 -150
-34 -281 -125 -422 -294 -26 -31 -44 -43 -70 -47 -19 -3 -57 -8 -85 -12 -27
-3 -53 -8 -56 -10 -3 -2 -21 -6 -40 -9 -159 -28 -364 -139 -474 -256 -119
-126 -209 -314 -230 -478 -4 -30 -8 -63 -10 -73 -2 -10 -5 -44 -6 -76 -2 -52
-7 -64 -65 -145 -129 -180 -169 -326 -140 -510 12 -72 58 -196 105 -278 l47
-82 -27 -51 c-28 -52 -93 -236 -103 -291 -3 -16 -8 -41 -11 -55 -23 -105 -23
-385 0 -500 2 -14 7 -38 11 -55 23 -117 86 -271 139 -341 17 -23 23 -40 19
-60 -21 -115 -26 -342 -9 -429 18 -93 51 -205 96 -325 65 -176 81 -244 78
-349 -2 -108 -33 -226 -94 -361 -34 -75 -46 -116 -47 -151 0 -61 32 -131 78
-165 37 -28 108 -53 139 -48 134 20 172 62 260 284 73 183 99 304 99 460 1
145 -12 203 -100 444 -66 180 -82 245 -90 356 l-6 85 98 0 c104 0 176 8 234
25 54 15 61 13 120 -41 30 -28 80 -66 111 -85 l55 -34 -18 -87 c-9 -48 -21
-117 -25 -153 -10 -83 -10 -395 0 -480 12 -106 16 -126 69 -330 77 -298 77
-300 75 -380 -4 -111 -47 -197 -164 -320 -80 -84 -99 -169 -58 -257 26 -57 56
-86 109 -108 122 -51 228 9 382 216 118 158 159 282 158 474 -1 138 -6 167
-79 438 -45 171 -44 166 -64 307 -10 66 -8 361 3 415 6 31 15 80 22 126 3 14
10 47 17 73 12 48 13 49 103 95 50 26 104 57 121 69 17 12 34 22 38 22 4 0 25
-15 48 -33 23 -19 57 -42 75 -53 17 -10 32 -21 33 -24 0 -3 2 -45 4 -95 4
-116 15 -177 77 -415 44 -170 51 -208 52 -300 1 -91 -2 -112 -23 -155 -59
-126 -20 -250 97 -306 61 -30 148 -22 206 18 62 43 112 150 142 309 8 41 8
190 0 249 -12 92 -37 204 -77 348 -25 86 -43 174 -46 223 l-5 81 61 23 c34 12
98 47 143 76 45 30 85 54 89 54 3 0 20 -15 36 -34 16 -19 56 -63 89 -99 304
-327 524 -627 537 -732 6 -50 -18 -132 -88 -295 -74 -171 -121 -302 -130 -359
-3 -20 -8 -48 -11 -61 -5 -28 -5 -286 0 -340 3 -19 7 -73 11 -120 4 -47 8
-101 10 -120 21 -220 22 -367 3 -407 -14 -30 -52 -47 -129 -58 -24 -3 -55 -8
-69 -10 -14 -2 -47 -6 -75 -10 -163 -19 -228 -34 -347 -81 -325 -128 -614
-336 -778 -561 l-24 -33 -195 0 -196 0 145 293 c98 196 147 304 148 330 12
195 -233 307 -365 165 -12 -13 -77 -131 -144 -263 -66 -132 -124 -243 -128
-247 -3 -4 -61 102 -129 236 -67 134 -135 256 -150 271 -134 136 -362 42 -362
-149 0 -51 11 -77 145 -343 l145 -288 -282 -5 c-180 -3 -292 -9 -309 -17 -79
-35 -135 -130 -126 -213 9 -80 56 -146 127 -179 32 -14 381 -16 3813 -17
l3778 -1 47 22 c60 28 88 60 111 121 29 79 11 161 -47 220 -56 56 -71 59 -293
62 l-206 3 -131 109 c-268 222 -523 407 -672 488 -115 63 -242 93 -445 107
-327 22 -350 29 -417 131 -128 193 -285 582 -314 774 -3 19 -7 42 -11 50 -13
35 -11 200 3 273 24 128 205 615 279 755 83 156 223 339 418 547 47 50 87 88
90 85 3 -3 8 -23 11 -45 6 -38 40 -168 86 -335 27 -95 22 -189 -14 -277 -41
-100 -31 -185 31 -248 64 -66 156 -85 238 -51 72 30 110 83 154 212 28 83 32
106 35 209 5 111 -7 179 -68 400 -46 168 -54 232 -47 371 1 25 2 25 64 -23 82
-65 121 -88 201 -118 94 -35 198 -47 298 -33 41 6 43 4 53 -67 3 -23 8 -52 11
-65 10 -41 13 -381 4 -430 -4 -25 -10 -63 -13 -85 -3 -22 -25 -112 -48 -200
-77 -296 -82 -321 -83 -455 0 -143 14 -212 69 -326 61 -126 221 -321 295 -359
125 -65 290 29 304 172 6 70 -18 122 -98 212 -41 45 -89 113 -108 149 -31 62
-33 72 -33 166 1 89 6 122 49 275 26 95 50 183 52 195 45 228 49 268 49 461 0
138 -3 180 -21 318 l-6 48 33 -20 c56 -33 158 -62 228 -66 94 -5 105 -21 97
-140 -3 -49 -8 -99 -10 -111 -2 -12 -7 -45 -11 -74 -4 -29 -9 -62 -11 -74 -3
-12 -7 -77 -9 -146 -8 -296 91 -490 305 -600 172 -88 359 66 304 250 -16 53
-42 85 -104 126 -65 42 -83 86 -82 193 1 47 4 97 7 111 3 14 8 52 11 85 4 33
8 62 9 65 5 9 18 171 18 225 0 109 -25 214 -69 280 -15 23 -14 26 25 75 51 64
124 210 150 298 46 154 59 362 31 497 -31 154 -141 315 -273 403 -27 18 -36
30 -31 41 8 20 34 100 40 126 3 11 7 54 9 96 5 92 -15 183 -55 258 l-30 55 39
60 c129 198 163 411 94 586 -30 77 -84 164 -146 234 -23 26 -34 47 -31 60 14
71 19 137 19 261 -1 111 -5 158 -23 225 -73 282 -267 465 -556 527 -70 15
-244 14 -325 -2 -112 -22 -251 -82 -383 -167 l-76 -49 -64 17 c-78 20 -185 25
-258 12 -60 -11 -181 -63 -220 -96 l-25 -20 -65 62 c-124 119 -276 186 -454
198 -22 2 -36 14 -66 59 -164 241 -419 373 -731 378 l-47 1 -22 55 c-69 170
-215 295 -399 341 -83 21 -226 24 -324 7z m892 -1726 c64 -33 104 -93 109
-167 4 -55 1 -68 -38 -147 -49 -102 -50 -143 -2 -202 28 -35 51 -54 158 -131
64 -46 97 -105 97 -174 0 -143 -138 -248 -270 -206 -98 32 -274 179 -348 290
-122 184 -133 383 -32 585 83 168 195 220 326 152z m-2139 -202 c16 -8 54 -40
85 -71 64 -63 85 -73 137 -68 49 4 78 20 162 87 71 58 117 76 177 71 51 -4 82
-18 123 -55 50 -43 69 -83 72 -149 4 -83 -24 -131 -125 -212 -253 -203 -517
-226 -746 -63 -69 49 -145 127 -169 173 -22 43 -26 118 -9 168 17 51 76 109
128 127 47 17 125 13 165 -8z m4448 -416 c93 -30 134 -90 163 -240 45 -235 23
-424 -66 -564 -57 -91 -162 -178 -272 -226 -143 -64 -295 16 -310 163 -10 101
33 173 135 228 111 59 132 137 92 333 -21 101 -22 118 -11 160 32 114 158 182
269 146z m-5092 -227 c81 -42 124 -116 119 -204 -6 -86 -140 -312 -251 -422
-87 -87 -172 -138 -279 -171 -60 -18 -210 -17 -282 2 -164 42 -397 203 -443
306 -66 143 45 307 199 295 68 -5 113 -26 166 -76 89 -85 175 -127 236 -117
78 14 141 79 223 236 60 113 86 141 152 164 49 16 112 11 160 -13z m3269
-1013 c68 -2 85 -7 85 -21 0 -6 16 -41 35 -79 l35 -68 -72 -46 c-66 -43 -247
-176 -280 -207 -7 -7 -27 -24 -42 -38 l-28 -25 6 45 c3 25 10 70 16 100 11 62
17 98 25 154 4 21 8 48 11 59 2 12 6 39 10 62 3 22 6 45 7 50 3 14 35 22 87
19 25 -1 72 -3 105 -5z m-1443 -738 l-55 -140 -97 127 c-53 70 -96 128 -96
128 1 1 54 4 120 7 65 4 121 9 124 12 3 3 18 5 33 5 l27 0 -56 -139z m312
-1661 c70 -34 116 -107 116 -186 0 -53 -16 -95 -59 -154 -17 -24 -41 -73 -52
-109 -20 -59 -21 -85 -19 -261 4 -332 4 -393 -3 -470 -14 -173 -71 -355 -133
-429 -93 -111 -287 -86 -348 44 -31 65 -31 115 2 196 27 68 44 128 57 204 3
17 4 93 3 170 -8 577 -1 638 94 815 101 190 207 246 342 180z m609 -1481 c52
-14 113 -71 131 -122 8 -23 17 -69 20 -102 11 -134 71 -232 219 -356 l58 -49
-290 0 -290 0 -30 53 c-53 92 -92 238 -96 357 -5 155 129 261 278 219z M9085
1261 c-49 -22 -99 -77 -115 -127 -18 -53 -7 -138 24 -185 38 -57 106 -93 175
-93 96 1 167 50 200 140 37 102 -6 211 -104 262 -44 23 -132 24 -180 3z"/>
</g>
</svg>
