<svg viewBox="0 0 512 512" xmlns="http://www.w3.org/2000/svg"><g><path fill="currentColor" d="m147.19 110c4.008-26.936 17.99-51.493 38.833-68.759-.015-.503-.023-1.006-.023-1.511 0-1.862.141-3.722.41-5.586-7.983-2.68-16.523-4.144-25.41-4.144-18.924 0-36.302 6.586-50 17.571v-22.571c0-8.284-6.716-15-15-15s-15 6.716-15 15v84.99.01z"/><path fill="currentColor" d="m146 140h-65v35l-27.768 46.28c-1.461 2.434-2.232 5.22-2.232 8.058 0 8.65 7.012 15.662 15.662 15.662h14.338v20c0 16.569 13.431 30 30 30h60.209c-15.74-19.032-25.209-43.431-25.209-70z"/><path fill="currentColor" d="m260.468 161.426-4.468 3.574-4.468-3.574c-24.094-19.276-59.656-12.885-75.532 13.574v50c0 44.183 35.817 80 80 80s80-35.817 80-80v-50c-15.875-26.459-51.437-32.85-75.532-13.574z"/><path fill="currentColor" d="m341 512h30v-147.526l-30-7.999z"/><path fill="currentColor" d="m405.611 373.706c-.095-.027-.191-.054-.287-.08l-4.324-1.153v139.527h45c8.284 0 15-6.716 15-15v-50.903c0-33.827-22.762-63.552-55.389-72.391z"/><path fill="currentColor" d="m141 512h30v-155.525l-30 7.999z"/><path fill="currentColor" d="m106.389 373.706c-32.626 8.839-55.389 38.564-55.389 72.391v50.903c0 8.284 6.716 15 15 15h45v-139.527l-4.324 1.153c-.096.026-.192.053-.287.08z"/><path fill="currentColor" d="m201 424.731v87.269h110v-87.269c-14.837 12.626-34.038 20.269-55 20.269s-40.163-7.643-55-20.269z"/><path fill="currentColor" d="m325.977 41.241c20.842 17.266 34.824 41.823 38.833 68.759h66.19c0-.003 0-.006 0-.01v-84.99c0-8.284-6.716-15-15-15s-15 6.716-15 15v22.571c-13.698-10.985-31.075-17.571-50-17.571-8.887 0-17.427 1.464-25.41 4.144.27 1.864.41 3.724.41 5.586 0 .505-.008 1.008-.023 1.511z"/><path fill="currentColor" d="m431 265v-20h14.338c8.65 0 15.662-7.012 15.662-15.662 0-2.839-.771-5.624-2.232-8.058l-27.768-46.28v-35h-65v85c0 26.569-9.469 50.968-25.209 70h60.209c16.569 0 30-13.431 30-30z"/><path fill="currentColor" d="m289.856 53.575c3.833-4.028 6.144-8.746 6.144-13.845 0-9.907-18.678-26.703-30.507-36.348-5.531-4.51-13.454-4.51-18.986 0-11.829 9.644-30.507 26.441-30.507 36.348 0 5.099 2.311 9.817 6.144 13.845-27.235 12.761-46.144 40.341-46.144 72.405v6.987c12.786-8.201 27.848-12.714 43.763-12.714 12.596 0 25.037 2.998 36.237 8.611 11.2-5.613 23.642-8.611 36.237-8.611 15.914 0 30.977 4.513 43.763 12.714v-6.987c0-32.064-18.909-59.644-46.144-72.405z"/><path fill="currentColor" d="m296 332.951v-5.481c-12.403 4.859-25.895 7.53-40 7.53s-27.597-2.672-40-7.53v5.481c0 6.786-4.579 12.746-11.135 14.494l-3.865 1.031v11.524c0 30.327 24.673 55 55 55s55-24.673 55-55v-11.525l-3.864-1.03c-6.557-1.748-11.136-7.708-11.136-14.494z"/></g></svg>