<svg xmlns="http://www.w3.org/2000/svg" viewBox="0 0 1024 1024">
<g transform="translate(0,1024) scale(0.1,-0.1)">
<path fill="currentColor" d="M1830 9819 c-92 -32 -270 -124 -365 -188 -326 -219 -571 -543 -695
-921 -21 -63 -40 -128 -43 -145 -3 -16 -10 -55 -17 -85 -36 -183 -33 -421 9
-595 59 -242 171 -450 339 -626 112 -118 230 -206 374 -278 l117 -59 56 13
c31 8 75 16 98 19 23 3 53 8 66 11 13 2 56 7 95 11 39 4 77 7 84 8 7 1 74 65
150 143 75 77 177 176 227 219 115 101 138 127 174 194 41 77 58 142 60 233
l2 77 -263 1 c-145 0 -272 2 -283 4 -11 2 -40 7 -64 10 -127 19 -302 110 -407
211 -113 109 -203 270 -232 414 -9 49 -9 266 1 320 23 121 174 453 290 637 74
116 184 265 252 341 26 29 43 52 38 51 -4 0 -33 -9 -63 -20z M8424 9740 c93
-111 206 -275 284 -413 103 -182 213 -452 227 -562 52 -406 -194 -777 -586
-885 -101 -27 -115 -28 -412 -29 l-258 -1 2 -77 c2 -91 19 -156 60 -233 35
-66 68 -103 174 -194 44 -38 144 -135 223 -214 78 -80 148 -147 155 -148 6 -1
44 -4 82 -8 72 -7 80 -8 180 -26 104 -18 118 -21 125 -25 3 -2 48 16 100 41
422 201 711 603 767 1069 16 126 7 306 -22 470 -47 259 -184 553 -362 772
-186 230 -448 423 -713 526 -118 45 -118 47 -26 -63z M4997 8364 c-1 -1 -49
-4 -107 -8 -58 -3 -114 -8 -125 -10 -11 -2 -40 -7 -65 -10 -25 -3 -56 -8 -70
-11 -14 -3 -38 -8 -55 -11 -93 -16 -228 -56 -398 -118 -152 -55 -259 -86 -356
-102 -18 -3 -43 -7 -54 -9 -131 -26 -447 -26 -577 0 -13 2 -42 7 -65 10 -22 3
-47 8 -55 10 -47 13 -87 15 -112 4 -51 -21 -57 -48 -59 -255 -1 -163 -4 -202
-25 -283 -45 -180 -133 -316 -286 -447 -202 -172 -482 -476 -630 -684 -60 -85
-90 -173 -87 -259 3 -95 27 -154 119 -293 90 -137 220 -393 274 -538 35 -97
120 -380 129 -435 3 -16 8 -39 11 -50 11 -46 35 -163 40 -199 4 -21 8 -48 11
-60 2 -12 7 -39 10 -61 3 -22 10 -67 15 -100 5 -33 12 -87 15 -120 4 -33 8
-70 10 -82 2 -12 6 -57 10 -100 4 -43 9 -94 10 -113 2 -19 7 -82 10 -140 4
-58 8 -132 10 -165 3 -33 7 -202 10 -375 5 -328 11 -488 20 -530 20 -105 31
-145 57 -220 36 -102 75 -181 136 -275 47 -74 119 -165 130 -165 4 0 7 48 6
108 -3 300 115 593 329 820 74 78 192 171 275 218 l48 27 1 161 c2 166 12 494
18 556 2 19 6 78 10 130 3 52 8 109 9 125 2 17 7 66 10 109 4 43 9 86 11 95 8
42 16 161 11 161 -3 0 -23 -7 -43 -15 -82 -32 -167 -44 -278 -41 -60 2 -121 7
-135 10 -14 4 -36 9 -50 12 -46 10 -156 60 -216 100 -300 199 -421 585 -289
920 16 38 48 100 72 137 l44 69 -34 37 c-78 87 -136 192 -137 249 0 34 21 84
49 116 55 62 170 66 234 8 11 -9 38 -46 61 -82 108 -165 327 -327 571 -423 88
-35 243 -79 317 -91 37 -6 37 -5 49 37 29 111 82 285 95 317 37 88 117 129
211 106 68 -16 132 -112 119 -178 -2 -13 -25 -93 -51 -178 -69 -231 -117 -427
-170 -700 -10 -49 -34 -196 -40 -240 -3 -25 -8 -52 -10 -60 -2 -8 -7 -40 -10
-70 -3 -30 -8 -66 -10 -80 -2 -14 -7 -50 -10 -80 -3 -30 -8 -66 -10 -80 -2
-14 -7 -56 -10 -95 -4 -38 -8 -81 -10 -95 -2 -14 -7 -72 -10 -130 -4 -58 -9
-121 -11 -140 -2 -19 -6 -162 -10 -317 l-7 -283 64 -1 c146 -2 298 -47 444
-134 155 -91 307 -149 472 -181 127 -25 377 -24 493 1 14 3 39 8 55 11 101 18
285 95 450 189 82 46 199 90 269 101 21 3 48 7 59 10 11 2 47 4 80 5 l60 2 -7
291 c-3 160 -8 307 -10 326 -2 19 -7 78 -10 130 -4 52 -9 111 -11 130 -2 19
-7 62 -10 95 -5 57 -8 80 -19 170 -3 22 -8 60 -11 85 -6 50 -16 115 -21 144
-2 10 -6 44 -10 75 -3 31 -8 59 -10 62 -1 3 -6 28 -10 55 -3 27 -22 123 -40
214 -19 91 -37 176 -40 190 -12 62 -80 306 -116 425 -45 144 -50 176 -34 220
38 105 151 147 247 93 52 -29 76 -79 135 -283 25 -88 47 -161 49 -163 1 -1 22
2 46 7 24 5 58 12 76 16 59 10 243 74 328 114 203 95 377 237 481 393 24 37
56 75 69 84 117 77 278 -20 262 -158 -6 -50 -58 -141 -130 -226 l-36 -43 40
-60 c148 -216 171 -506 59 -746 -102 -220 -300 -378 -536 -427 -129 -27 -304
-15 -417 29 -20 8 -40 15 -43 15 -5 0 3 -108 11 -151 2 -9 6 -52 10 -95 4 -43
9 -86 10 -94 2 -8 6 -64 10 -125 4 -60 9 -126 11 -145 6 -62 17 -420 18 -575
l1 -150 65 -39 c250 -151 440 -389 529 -664 41 -127 55 -212 55 -349 1 -68 4
-123 8 -123 11 0 83 91 130 165 82 127 131 239 168 383 35 139 37 165 45 652
4 179 8 348 10 375 2 28 6 102 10 165 3 63 8 129 10 145 2 17 7 62 10 100 3
39 8 81 10 95 2 14 6 52 10 85 3 33 10 87 15 120 5 33 12 78 15 100 3 22 8 49
10 61 3 12 7 39 10 60 9 58 53 258 76 344 97 360 211 622 384 886 87 132 111
191 114 285 3 86 -27 174 -87 259 -135 190 -431 514 -597 655 -192 162 -281
300 -328 508 -10 47 -16 127 -17 254 -1 204 -7 231 -58 252 -29 12 -38 11
-177 -15 -189 -35 -446 -39 -645 -9 -87 14 -286 69 -400 111 -251 94 -459 142
-691 160 -71 5 -367 12 -372 8z M1534 6571 c-263 -68 -499 -201 -695 -391
-119 -116 -159 -171 -154 -211 6 -41 42 -93 113 -161 244 -233 572 -391 969
-468 123 -24 133 -24 133 -7 0 27 -129 268 -202 378 -87 131 -103 161 -129
238 -30 86 -34 116 -34 251 0 142 14 199 75 323 21 42 38 77 37 77 -1 -1 -52
-14 -113 -29z M8631 6519 c62 -122 78 -201 75 -349 -5 -186 -30 -256 -165
-460 -74 -111 -201 -351 -201 -378 0 -10 11 -12 45 -8 25 4 50 8 57 11 7 2 29
6 48 9 165 26 444 123 598 208 195 108 397 275 456 376 34 58 4 109 -152 260
-197 191 -464 335 -733 395 l-67 14 39 -78z M2957 5581 c-90 -165 -64 -369 64
-499 91 -94 189 -133 319 -128 102 4 168 27 246 86 88 67 134 148 160 288 1 6
-6 12 -16 12 -33 0 -247 59 -332 91 -121 46 -233 99 -320 152 -42 26 -81 47
-86 47 -5 0 -21 -22 -35 -49z M7170 5588 c-137 -86 -352 -175 -525 -218 -104
-26 -114 -28 -137 -29 -12 -1 -16 -7 -12 -23 2 -13 7 -36 9 -52 23 -124 138
-247 274 -293 52 -17 84 -22 152 -20 74 3 95 8 160 39 227 108 312 369 192
589 -14 27 -31 49 -37 49 -6 -1 -40 -19 -76 -42z M3785 3054 c-261 -69 -478
-342 -530 -669 -13 -76 -12 -241 1 -328 27 -177 108 -353 218 -474 150 -164
329 -236 520 -211 85 11 161 40 272 104 140 81 362 170 469 187 17 3 41 8 55
11 147 35 446 40 603 11 15 -3 37 -7 50 -9 166 -30 390 -115 542 -206 124 -74
215 -103 325 -103 165 1 300 61 430 192 172 173 254 387 254 661 0 101 -8 180
-25 245 -99 369 -351 604 -652 603 -121 0 -182 -19 -329 -99 -70 -39 -164 -86
-210 -105 -84 -36 -264 -90 -328 -100 -19 -3 -41 -7 -48 -9 -56 -19 -371 -27
-491 -12 -221 27 -431 98 -646 219 -147 82 -224 106 -340 106 -49 0 -112 -7
-140 -14z m202 -679 c88 -37 106 -75 108 -230 3 -159 -21 -217 -102 -251 -92
-40 -195 5 -227 100 -18 52 -14 263 6 301 41 79 135 113 215 80z m2398 -4 c28
-12 53 -34 71 -61 26 -39 27 -48 29 -161 2 -163 -21 -221 -102 -255 -93 -40
-195 5 -227 101 -19 54 -14 261 6 300 43 82 137 114 223 76z M5048 1365 c-2
-1 -38 -5 -80 -9 -153 -13 -353 -77 -503 -161 -182 -102 -298 -146 -425 -162
-87 -11 -219 -6 -294 11 -38 9 -71 15 -73 13 -7 -8 40 -145 74 -212 67 -134
177 -262 297 -345 72 -49 203 -108 296 -132 84 -23 91 -23 765 -23 374 0 701
3 727 8 282 46 550 249 670 507 22 46 68 181 68 197 0 3 -12 2 -27 -2 -54 -13
-69 -16 -123 -22 -200 -23 -381 15 -570 121 -219 123 -361 174 -565 202 -42 5
-233 13 -237 9z"/>
</g>
</svg>
