<svg xmlns="http://www.w3.org/2000/svg" viewBox="0 0 1024 1024">
<g transform="translate(0,1024) scale(0.1,-0.1)">
<path fill="currentColor" d="M1789 9736 c-142 -48 -261 -166 -352 -351 -42 -85 -99 -244 -110
-310 -3 -16 -10 -55 -16 -85 -15 -81 -19 -111 -20 -152 l-1 -37 -354 -3 c-340
-3 -356 -4 -382 -24 -15 -11 -37 -33 -48 -48 -21 -27 -21 -38 -24 -777 l-2
-749 4640 0 4640 0 0 735 c0 821 3 781 -70 834 l-42 31 -818 0 c-754 0 -818
-1 -824 -16 -8 -20 0 -334 9 -379 3 -16 13 -66 21 -110 20 -100 63 -218 108
-299 38 -68 111 -143 148 -150 13 -3 38 -7 57 -10 79 -14 138 -94 127 -173 -7
-53 -28 -87 -74 -118 -31 -21 -45 -24 -106 -21 -183 9 -344 139 -459 371 -42
84 -100 246 -111 312 -3 15 -10 52 -16 82 -19 100 -25 185 -25 346 l0 160 161
3 161 2 8 58 c4 31 8 64 10 72 2 8 6 33 10 55 10 60 60 207 95 275 17 34 54
86 83 115 83 86 131 86 214 0 45 -46 110 -160 136 -237 6 -16 23 -18 172 -18
94 0 165 4 165 9 0 21 -64 190 -96 255 -94 187 -228 317 -372 360 -69 20 -191
15 -257 -11 -134 -52 -251 -172 -338 -348 -42 -85 -99 -244 -110 -310 -3 -16
-10 -55 -16 -85 -15 -82 -19 -111 -20 -152 l-1 -38 -639 0 c-585 0 -639 -1
-645 -17 -8 -19 0 -333 9 -378 3 -16 13 -66 21 -110 20 -100 63 -218 108 -299
38 -68 111 -143 148 -150 13 -3 38 -7 57 -10 79 -14 138 -94 127 -173 -7 -53
-28 -87 -74 -118 -31 -21 -45 -24 -106 -21 -183 9 -344 139 -459 371 -42 84
-100 246 -111 312 -3 15 -10 52 -16 82 -19 100 -25 185 -25 346 l0 160 161 3
161 2 8 58 c4 31 8 64 10 72 2 8 6 33 10 55 10 60 60 207 95 275 17 34 54 86
83 115 83 86 131 86 214 0 45 -46 110 -160 136 -237 6 -16 23 -18 172 -18 94
0 165 4 165 9 0 21 -64 190 -96 255 -94 187 -228 317 -372 360 -69 20 -191 15
-257 -11 -134 -52 -251 -172 -338 -348 -42 -85 -99 -244 -110 -310 -3 -16 -10
-55 -16 -85 -15 -82 -19 -111 -20 -152 l-1 -38 -639 0 c-585 0 -639 -1 -645
-17 -8 -19 0 -333 9 -378 3 -16 13 -66 21 -110 20 -100 63 -218 108 -299 38
-68 111 -143 148 -150 13 -3 38 -7 57 -10 79 -14 138 -94 127 -173 -7 -53 -28
-87 -74 -118 -31 -21 -45 -24 -106 -21 -183 9 -344 139 -459 371 -42 84 -100
246 -111 312 -3 15 -10 52 -16 82 -19 100 -25 185 -25 346 l0 160 161 3 161 2
8 58 c4 31 8 64 10 72 2 8 6 33 10 55 10 60 60 207 95 275 17 34 54 86 83 115
83 86 131 86 214 0 45 -46 110 -160 136 -237 6 -16 23 -18 172 -18 94 0 165 4
165 9 0 21 -64 190 -96 255 -94 187 -228 317 -372 360 -69 20 -191 15 -257
-11 -134 -52 -251 -172 -338 -348 -42 -85 -99 -244 -110 -310 -3 -16 -10 -55
-16 -85 -15 -82 -19 -111 -20 -152 l-1 -38 -639 0 c-585 0 -639 -1 -645 -17
-8 -19 0 -333 9 -378 3 -16 13 -66 21 -110 20 -100 63 -218 108 -299 38 -68
111 -143 148 -150 13 -3 38 -7 57 -10 79 -14 138 -94 127 -173 -7 -53 -28 -87
-74 -118 -31 -21 -45 -24 -106 -21 -183 9 -344 139 -459 371 -42 84 -100 246
-111 312 -3 15 -10 52 -16 82 -19 100 -25 185 -25 346 l0 160 161 3 161 2 8
58 c4 31 8 64 10 72 2 8 6 33 10 55 10 60 60 207 95 275 17 34 54 86 83 115
83 86 131 86 214 0 45 -46 110 -160 136 -237 6 -16 23 -18 172 -18 94 0 165 4
165 9 0 21 -64 190 -96 255 -94 187 -228 317 -372 360 -69 20 -191 15 -257
-11 -134 -52 -251 -172 -338 -348 -42 -85 -99 -244 -110 -310 -3 -16 -10 -55
-16 -85 -15 -82 -19 -111 -20 -152 l-1 -38 -639 0 c-585 0 -639 -1 -645 -17
-8 -19 0 -333 9 -378 3 -16 13 -66 21 -110 20 -100 63 -218 108 -299 38 -68
111 -143 148 -150 13 -3 38 -7 57 -10 79 -14 138 -94 127 -173 -7 -53 -28 -87
-74 -118 -31 -21 -45 -24 -106 -21 -183 9 -344 139 -459 371 -42 84 -100 246
-111 312 -3 15 -10 52 -16 82 -19 100 -25 185 -25 346 l0 160 161 3 161 2 8
58 c4 31 8 64 10 72 2 8 6 33 10 55 10 60 60 207 95 275 17 34 54 86 83 115
83 86 131 86 214 0 45 -46 110 -160 136 -237 6 -16 23 -18 172 -18 94 0 165 4
165 9 0 21 -64 190 -96 255 -93 186 -228 317 -369 359 -74 21 -171 19 -246 -7z
M482 3732 l3 -3149 27 -35 c15 -19 42 -43 61 -52 32 -15 331 -16 3811 -16
l3776 0 2 749 c3 739 3 750 24 777 11 15 33 37 48 48 27 21 38 21 777 24 l749
2 0 2400 0 2400 -4640 0 -4640 0 2 -3148z m4703 2655 c11 -5 572 -561 1248
-1236 889 -888 1230 -1235 1238 -1259 6 -19 8 -53 4 -80 -6 -47 -16 -56 -926
-967 -505 -506 -919 -924 -919 -929 0 -4 125 -168 277 -364 177 -228 280 -369
286 -392 13 -48 2 -103 -30 -140 -53 -64 29 -60 -1238 -60 -1054 0 -1160 1
-1191 16 -65 31 -103 107 -90 179 5 23 91 142 282 387 152 194 278 359 281
366 4 9 -339 359 -916 936 -506 507 -921 926 -922 931 0 6 -3 23 -5 40 -14 83
-79 14 1234 1328 675 676 1241 1235 1257 1243 33 15 99 16 130 1z M4475 5370
l-480 -480 60 20 c58 20 265 77 309 86 11 2 32 6 46 9 63 14 169 34 210 40 25
3 56 8 70 10 23 4 48 6 204 20 33 3 61 7 63 9 2 1 2 175 1 384 l-3 382 -480
-480z M5280 5467 c0 -302 3 -387 13 -388 6 -1 23 -2 37 -3 14 -2 63 -6 110
-10 47 -4 94 -9 105 -11 11 -2 40 -7 65 -10 42 -5 60 -8 120 -20 14 -2 40 -7
58 -10 56 -9 293 -72 370 -98 39 -13 72 -21 72 -18 0 3 -214 220 -475 481
l-475 475 0 -388z M4867 4754 c-1 -1 -34 -4 -72 -8 -68 -6 -93 -10 -165 -22
-19 -3 -48 -8 -65 -11 -72 -10 -299 -69 -400 -103 -420 -142 -805 -374 -1125
-678 l-95 -91 830 -830 c456 -457 834 -831 840 -830 5 0 85 98 177 217 l168
217 0 1073 0 1072 -46 -2 c-25 -2 -46 -4 -47 -4z m-526 -466 c96 -36 152 -71
220 -141 66 -67 129 -184 147 -270 35 -173 -20 -372 -138 -496 -107 -111 -239
-171 -390 -177 -101 -3 -162 8 -248 47 -158 71 -276 213 -319 384 -14 56 -11
203 6 265 52 196 216 358 407 404 90 22 234 14 315 -16z M4085 3988 c-34 -12
-92 -53 -117 -83 -28 -33 -50 -112 -46 -163 11 -125 106 -214 233 -218 212 -7
323 251 174 404 -59 61 -168 87 -244 60z M5280 3687 l0 -1073 168 -217 c92
-119 172 -216 177 -217 6 0 384 374 840 830 l830 830 -70 68 c-426 413 -962
693 -1535 801 -138 26 -174 31 -352 46 l-58 5 0 -1073z m925 620 c164 -41 304
-154 375 -302 21 -44 43 -102 48 -128 35 -173 -20 -372 -138 -496 -107 -111
-239 -171 -390 -177 -101 -3 -162 8 -248 47 -158 71 -276 213 -319 384 -14 56
-11 203 6 265 52 196 216 358 407 404 55 13 211 15 259 3z M6005 3988 c-34
-12 -92 -53 -117 -83 -28 -33 -50 -112 -46 -163 11 -125 106 -214 233 -218
212 -7 323 251 174 404 -59 61 -168 87 -244 60z M4722 1788 l-391 -503 395 -3
c216 -1 572 -1 788 0 l395 3 -389 500 c-214 275 -393 501 -398 503 -5 1 -185
-224 -400 -500z M8480 1125 l0 -636 43 6 c627 90 1132 595 1222 1223 l6 42
-636 0 -635 0 0 -635z"/>
</g>
</svg>
