<svg xmlns="http://www.w3.org/2000/svg" viewBox="0 0 1024 1024">
<g transform="translate(0,1024) scale(0.1,-0.1)">
<path fill="currentColor" d="M1867 9478 c-91 -19 -183 -94 -228 -185 l-24 -48 0 -570 0 -570 27
-55 c41 -86 103 -143 188 -174 173 -63 370 32 429 206 20 58 21 82 20 592 0
482 -1 536 -18 583 -55 161 -227 258 -394 221z M5047 9479 c-101 -23 -188 -95
-236 -198 l-26 -56 -1 -535 c-1 -574 0 -589 51 -675 116 -199 425 -210 555
-20 64 93 63 78 64 655 2 535 -1 588 -36 655 -40 76 -139 156 -210 171 -45 9
-124 11 -161 3z M8197 9470 c-94 -29 -161 -88 -205 -180 l-27 -55 -2 -555 c-2
-635 -5 -612 87 -713 105 -115 264 -142 405 -70 52 27 121 102 148 161 22 46
22 54 22 617 l0 570 -27 51 c-80 152 -243 223 -401 174z M1142 8519 c-131 -34
-224 -88 -315 -182 -72 -76 -118 -150 -154 -252 l-28 -80 -3 -513 -3 -512
4478 2 4478 3 0 505 c0 461 -2 510 -18 565 -83 270 -295 447 -574 481 l-53 6
0 -216 c0 -119 0 -217 0 -218 1 -22 -49 -168 -72 -213 -129 -255 -412 -398
-693 -349 -247 43 -452 225 -519 464 -23 83 -24 98 -25 323 l-1 207 -932 -2
-932 -3 -2 -215 c-1 -169 -5 -230 -19 -285 -72 -286 -333 -495 -624 -497 -118
-2 -199 16 -295 63 -130 65 -238 170 -298 291 -62 123 -70 167 -74 413 -1 121
-3 223 -3 228 -1 4 -419 7 -931 7 l-930 0 -1 -202 c0 -112 -2 -214 -5 -228
-13 -80 -30 -134 -64 -205 -169 -353 -611 -477 -941 -264 -122 80 -217 200
-264 336 -33 94 -36 124 -37 358 l-2 206 -39 -3 c-21 -1 -69 -10 -105 -19z
M640 4003 c0 -2399 2 -2665 16 -2728 51 -221 200 -395 409 -476 39 -15 93 -31
121 -36 27 -4 1804 -7 3949 -7 3708 0 3903 1 3965 18 122 33 207 83 301 176
71 70 94 100 127 170 78 164 71 -84 72 2883 l0 2657 -4480 0 -4480 0 0 -2657z
m4804 2392 c42 -20 522 -502 535 -538 15 -38 14 -81 -2 -120 -8 -18 -125 -143
-266 -284 -194 -194 -245 -250 -222 -243 17 5 31 7 31 5 0 -2 31 7 69 20 130
44 221 120 314 261 57 86 95 115 155 116 65 1 102 -26 193 -135 46 -56 92
-111 101 -122 203 -242 222 -273 206 -352 -11 -53 -39 -80 -168 -166 -212
-140 -528 -271 -731 -302 -123 -19 -177 -23 -279 -20 -131 3 -163 8 -275 37
-312 82 -577 297 -780 633 -26 43 -54 94 -61 112 -43 101 26 212 135 219 43 2
60 -4 137 -47 250 -140 490 -230 679 -255 28 -3 53 -8 58 -11 34 -20 -28 47
-247 267 -233 234 -254 258 -261 297 -13 82 -1 99 263 365 135 136 259 254
276 262 40 20 99 20 140 1z m-1761 -1150 c15 -3 37 -7 50 -9 354 -63 697 -324
865 -661 34 -68 86 -213 96 -265 3 -19 8 -46 11 -60 24 -111 23 -328 0 -440
-3 -14 -7 -37 -10 -51 -9 -51 -57 -186 -90 -254 -42 -88 -104 -184 -162 -253
-31 -36 -42 -56 -36 -65 6 -6 31 -38 56 -69 25 -31 50 -64 55 -74 9 -15 19
-12 98 36 256 152 456 310 625 491 203 218 254 267 342 323 121 79 279 143
397 161 19 3 47 8 60 10 33 7 236 7 275 0 17 -3 44 -7 60 -10 209 -35 418
-145 570 -299 259 -262 354 -608 284 -1031 -42 -249 -161 -553 -291 -743 -111
-162 -325 -342 -501 -422 -66 -30 -203 -79 -242 -86 -11 -2 -31 -6 -45 -9 -89
-19 -173 -28 -270 -28 -72 0 -168 8 -220 18 -14 3 -38 8 -55 11 -276 49 -631
278 -719 463 -28 60 -31 75 -31 166 0 111 16 160 77 237 l32 41 -119 -63 c-66
-35 -121 -64 -123 -66 -2 -1 -5 -17 -8 -36 -67 -494 -422 -898 -900 -1026
-123 -34 -156 -37 -334 -36 -135 0 -181 4 -254 22 -398 99 -714 369 -863 740
-69 171 -105 405 -81 531 26 140 157 276 297 306 34 7 132 9 161 2 183 -41
300 -180 315 -374 16 -199 95 -329 250 -407 194 -97 440 -32 559 149 58 87 76
150 73 263 -2 91 -5 104 -39 173 -78 156 -204 240 -384 254 -150 11 -251 61
-326 160 -85 112 -101 271 -41 395 65 133 177 212 321 226 136 12 161 18 232
54 161 81 248 236 238 424 -4 72 -10 96 -41 158 -58 117 -153 199 -272 233
-159 47 -312 8 -440 -110 -33 -30 -89 -70 -125 -88 -61 -30 -71 -32 -170 -32
-99 0 -110 2 -172 33 -141 69 -221 205 -214 365 5 121 48 201 167 311 175 162
411 274 654 311 76 12 299 12 358 0z M5260 5915 l-115 -115 115 -115 115 -115
114 114 114 115 -114 115 -115 115 -114 -114z M6030 5141 c-97 -103 -260 -194
-415 -232 -70 -18 -121 -23 -230 -23 -140 -1 -209 5 -325 29 -48 10 2 -14 82
-40 100 -32 153 -40 263 -40 216 1 413 55 656 182 l108 55 -42 54 c-23 29 -46
53 -52 52 -5 0 -26 -17 -45 -37z M3409 4936 c-2 -2 -22 -6 -44 -10 -115 -17
-210 -49 -311 -107 -84 -49 -195 -136 -220 -174 -22 -34 -8 -84 29 -105 33
-18 41 -14 143 72 108 92 250 158 379 175 86 12 217 7 290 -12 131 -33 303
-129 371 -207 100 -116 147 -196 182 -310 27 -87 34 -136 34 -235 -3 -392
-311 -720 -702 -749 -87 -7 -124 -26 -128 -70 -3 -35 28 -74 61 -75 216 -8
402 -84 540 -221 107 -106 189 -252 212 -375 3 -16 7 -39 10 -53 3 -14 6 -66
6 -115 1 -362 -250 -673 -606 -748 -89 -19 -268 -15 -350 7 -253 70 -460 272
-534 521 -26 88 -29 106 -30 177 -1 44 -6 63 -24 84 -28 33 -71 35 -100 5 -18
-18 -21 -32 -20 -81 12 -409 316 -769 718 -853 78 -16 271 -20 331 -7 22 5 50
11 64 14 50 9 177 59 235 93 271 157 435 425 459 748 8 115 28 137 212 228
159 80 271 145 424 247 276 185 448 339 669 597 80 95 198 168 322 200 13 3
72 7 130 9 84 3 123 -1 180 -17 209 -58 355 -195 420 -394 20 -59 23 -92 24
-205 0 -151 -4 -185 -40 -315 -110 -403 -298 -631 -602 -734 -91 -31 -109 -33
-243 -37 -227 -6 -410 60 -578 209 -59 53 -98 61 -132 27 -35 -35 -26 -71 33
-127 123 -116 317 -216 463 -237 22 -4 51 -9 64 -12 36 -7 207 -7 260 0 325
47 598 243 744 533 47 95 106 251 137 366 12 46 13 51 24 117 4 25 9 54 11 65
7 34 7 218 0 265 -38 251 -181 452 -396 560 -53 26 -136 57 -176 64 -189 35
-345 19 -499 -54 -108 -50 -187 -112 -270 -212 -241 -288 -600 -566 -983 -763
-100 -51 -134 -59 -187 -42 -43 13 -75 46 -116 122 -48 90 -103 161 -194 250
-84 82 -94 96 -102 151 -7 52 21 99 112 186 373 356 389 908 36 1291 -114 123
-290 217 -496 264 -27 6 -241 14 -246 9z M6078 3276 c-58 -21 -79 -38 -153
-123 -187 -214 -420 -422 -658 -585 -62 -43 -121 -84 -132 -93 -19 -15 -19
-16 3 -5 33 16 158 13 216 -4 52 -16 117 -58 210 -136 91 -76 167 -103 301
-106 94 -2 120 1 178 21 182 63 289 190 370 440 42 127 55 198 55 292 0 144
-48 232 -155 284 -58 28 -180 36 -235 15z"/>
</g>
</svg>
