<svg viewBox="0 0 510 510" xmlns="http://www.w3.org/2000/svg"><g><g><path fill="currentColor" d="m450 45v-45h-30v45h-60v-45h-30v45h-60v-45h-30v45h-60v-45h-30v45h-60v-45h-30v45h-60v60h510v-60z"/><path fill="currentColor" d="m169.279 366.127 34.28-15 34.291 15.001 34.29-15.001 34.28 15 34.289-14.999 18.983 8.305c3.99-48.251-33.744-89.433-82.192-89.433h-45c-46.851-.258-86.694 40.758-81.818 87.99z"/><path fill="currentColor" d="m397.5 315c9.925-.35 9.927-14.658 0-15h-15c-1.737 0-3.36.602-4.652 1.621 2.202 4.337 4.118 8.804 5.734 13.379z"/><path fill="currentColor" d="m306.419 398.873-34.28-15-34.289 14.999-34.289-14.999-31.934 13.973c9.241 13.184 20.122 26.491 29.885 37.154h107.77c22.609-20.208 33.623-28.381 42.395-46.33l-10.966-4.798z"/><path fill="currentColor" d="m277.5 240c2.516 0 5.017.084 7.5.245v-30.245h-60v30.252c2.486-.163 4.986-.252 7.5-.252z"/><path fill="currentColor" d="m0 510h510v-375h-510zm112.5-240h15c7.888 0 15.398 2.428 21.695 6.914 12.734-14.024 28.415-24.408 45.805-30.538v-36.376h-45v-30h210v30h-45v36.355c17.513 6.143 33.249 16.57 45.848 30.531 6.177-4.367 13.685-6.887 21.652-6.887h15c49.722 1.837 49.64 73.143 0 75h-7.749c4.612 59.199-35.504 91.349-69.04 120h-132.123c-26.179-28.185-72.911-80.263-68.339-120h-7.749c-49.721-1.836-49.641-73.141 0-74.999z"/><path fill="currentColor" d="m112.5 315h13.917c1.616-4.573 3.531-9.041 5.733-13.378-.965-.765-2.515-1.622-4.651-1.622h-15c-6.716 0-9.979 8.13-5.303 12.804.821.82 2.6 2.196 5.304 2.196z"/></g></g></svg>