<svg viewBox="0 0 512 512" xmlns="http://www.w3.org/2000/svg"><g><path fill="currentColor" d="m197.8 94.267c8.284 0 15-6.716 15-15v-64.267c0-8.284-6.716-15-15-15s-15 6.716-15 15v64.267c0 8.284 6.716 15 15 15z"/><path fill="currentColor" d="m430.6 94.267c8.284 0 15-6.716 15-15v-64.267c0-8.284-6.716-15-15-15s-15 6.716-15 15v64.267c0 8.284 6.715 15 15 15z"/><path fill="currentColor" d="m81.4 94.267c8.284 0 15-6.716 15-15v-64.267c0-8.284-6.716-15-15-15s-15 6.716-15 15v64.267c0 8.284 6.716 15 15 15z"/><path fill="currentColor" d="m272.245 221.369c-3.983-4.927-9.903-7.751-16.245-7.751-6.35 0-12.27 2.824-16.251 7.749-18.663 23.077-57.264 70.8-80.856 99.966h194.212c-23.595-29.166-62.199-76.888-80.86-99.964z"/><path fill="currentColor" d="m497 32.134h-21.4v47.133c0 24.813-20.187 45-45 45s-45-20.187-45-45v-47.133h-26.4v47.133c0 24.813-20.187 45-45 45s-45-20.187-45-45v-47.133h-26.4v47.133c0 24.813-20.187 45-45 45s-45-20.187-45-45v-47.133h-26.4v47.133c0 24.813-20.187 45-45 45s-45-20.187-45-45v-47.133h-21.4c-8.284 0-15 6.716-15 15v449.866c0 8.284 6.716 15 15 15h482c8.284 0 15-6.716 15-15v-449.866c0-8.284-6.716-15-15-15zm-160.667 383.466h-160.666c-43.859 0-79.267-35.479-79.267-79.267 0-8.284 6.716-15 15-15h8.907c16.264-20.107 72.35-89.444 96.114-118.828 9.701-12.002 24.125-18.887 39.57-18.887 15.454 0 29.879 6.885 39.582 18.89 23.762 29.382 79.854 98.72 96.119 118.825h8.907c8.284 0 15 6.716 15 15 .001 43.855-35.5 79.267-79.266 79.267z"/><path fill="currentColor" d="m175.667 385.6h160.666c29.774 0 43.426-23.184 46.953-34.267h-254.575c3.52 11.068 17.042 34.267 46.956 34.267z"/><path fill="currentColor" d="m314.2 94.267c8.284 0 15-6.716 15-15v-64.267c0-8.284-6.716-15-15-15s-15 6.716-15 15v64.267c0 8.284 6.716 15 15 15z"/></g></svg>