<svg viewBox="0 0 100 100" xmlns="http://www.w3.org/2000/svg"><path fill="currentColor" d="m95 16.455v15.909h-90v-15.909h11.455v-7.364a4.091 4.091 0 1 1 8.181 0v7.364h21.273v-7.364a4.091 4.091 0 0 1 8.182 0v7.364h21.273v-7.364a4.091 4.091 0 1 1 8.181 0v7.364zm0 22.909v55.636h-90v-55.636zm-21.273 46.636-4.909-2.455v-18.818h-16.364v-11.454h16.364v-9.818l-2.454 4.909h-18.818v16.363h-11.455v-16.363h-9.818l4.909 2.454v18.818h16.364v11.455h-16.364v9.818l2.454-4.909h18.818v-16.364h11.455v16.364z"/></svg>