<svg xmlns="http://www.w3.org/2000/svg" viewBox="0 0 1024 1024">
<g transform="translate(0,1024) scale(0.1,-0.1)">
<path fill="currentColor" d="M7000 9682 c-17 -8 -39 -27 -50 -42 -19 -27 -24 -45 -35 -135 -33
-262 -81 -403 -241 -698 -48 -86 -97 -190 -111 -230 -14 -39 -26 -73 -27 -74
-2 -2 -40 11 -85 27 -76 28 -120 40 -196 55 -38 7 -191 7 -230 0 -137 -25
-263 -85 -534 -254 -310 -193 -494 -279 -724 -337 -148 -37 -187 -76 -174
-176 7 -51 33 -79 167 -180 146 -109 401 -233 540 -262 14 -3 39 -8 55 -12
103 -22 207 -31 335 -29 126 2 179 8 310 30 51 9 188 47 275 77 174 60 350
145 548 265 49 30 91 53 92 51 5 -4 81 -169 125 -268 89 -203 182 -517 214
-723 l6 -39 -32 7 c-18 4 -49 23 -69 43 -169 174 -346 278 -554 327 -62 14
-285 15 -335 1 -14 -4 -35 -9 -48 -12 -92 -19 -203 -82 -345 -196 -213 -170
-372 -258 -590 -329 -71 -24 -142 -53 -158 -66 -48 -41 -60 -124 -25 -175 33
-46 218 -170 341 -227 104 -49 248 -91 365 -108 70 -10 275 -10 358 0 282 34
636 191 944 419 64 47 70 49 110 43 60 -10 76 -20 73 -47 -1 -13 -6 -68 -10
-123 -4 -55 -8 -106 -10 -115 -1 -8 -6 -46 -9 -85 -6 -65 -9 -85 -21 -182 -2
-21 -7 -65 -10 -98 -4 -33 -8 -71 -10 -85 -2 -14 -7 -56 -11 -95 -3 -38 -8
-77 -9 -85 -2 -8 -6 -49 -10 -90 -4 -41 -9 -82 -10 -91 -2 -8 -6 -55 -10 -105
-4 -49 -9 -97 -11 -106 -7 -39 -18 -279 -16 -360 4 -205 50 -184 150 68 69
174 138 391 175 554 6 24 10 26 64 25 32 0 82 2 112 5 51 6 59 3 166 -52 114
-59 258 -112 330 -122 23 -4 52 -9 65 -11 38 -7 179 -7 235 0 84 11 226 64
305 113 94 58 189 152 265 262 145 209 273 337 466 465 70 47 138 98 153 115
57 68 27 168 -61 210 -79 37 -223 80 -333 100 -80 14 -141 18 -255 15 -82 -2
-166 -6 -185 -10 -330 -62 -622 -230 -909 -524 -46 -47 -120 -130 -164 -183
-44 -54 -87 -99 -96 -99 -9 -1 -34 -2 -56 -3 -44 -1 -42 -7 -31 83 5 44 12
113 21 211 2 25 5 95 5 155 l2 110 42 30 c22 16 70 55 106 86 57 49 73 57 120
63 275 34 542 167 684 341 84 103 152 252 172 375 4 25 8 162 9 305 0 143 5
280 9 305 13 72 51 207 90 318 41 118 44 154 16 199 -46 76 -105 84 -255 34
-544 -181 -882 -623 -971 -1270 -3 -25 -8 -57 -10 -71 -3 -14 -7 -101 -11
-195 -3 -93 -7 -172 -9 -174 -8 -9 -13 6 -20 54 -3 28 -8 59 -10 70 -2 10 -6
37 -10 60 -21 148 -95 431 -155 595 -17 47 -33 94 -36 105 -2 11 18 64 45 120
237 479 312 939 215 1320 -33 131 -97 282 -168 396 -81 129 -281 347 -321 351
-63 5 -76 4 -104 -10z m187 -479 c200 -311 229 -680 88 -1106 -20 -59 -46
-131 -58 -159 l-23 -52 -22 100 c-32 144 -32 148 -37 274 -4 135 10 213 55
302 18 35 32 77 32 99 1 97 -111 172 -192 129 -58 -31 -113 -127 -144 -250
-14 -59 -20 -98 -31 -210 -2 -19 -4 -37 -4 -39 -1 -3 -14 8 -30 23 -19 18 -28
36 -26 50 10 53 14 73 20 101 10 37 57 134 120 244 95 168 161 329 205 499 6
23 12 42 14 42 1 0 16 -21 33 -47z m-613 -2375 c64 -17 152 -56 144 -62 -1 -2
-43 -6 -93 -10 -49 -3 -103 -8 -120 -11 -162 -26 -245 -45 -282 -62 -40 -19
-73 -70 -73 -114 0 -18 9 -51 20 -74 24 -49 79 -80 126 -71 16 2 74 14 129 25
55 11 132 22 170 26 39 4 80 8 93 10 47 8 18 -13 -95 -68 -145 -69 -200 -91
-300 -116 -125 -32 -131 -33 -273 -37 -172 -4 -284 16 -433 79 l-49 20 99 51
c118 62 164 91 357 230 273 196 396 235 580 184z m2535 -572 c46 -3 86 -7 88
-10 3 -2 -15 -22 -39 -43 -87 -76 -183 -182 -320 -351 -78 -95 -166 -194 -197
-219 -59 -48 -140 -91 -194 -101 -45 -9 -216 -5 -251 5 -28 9 -24 11 65 43 51
19 157 66 234 105 122 61 143 75 161 109 34 61 16 139 -41 184 -41 32 -95 22
-246 -48 -125 -58 -251 -110 -266 -110 -12 0 121 120 200 180 196 150 412 241
607 257 41 3 76 7 78 8 2 2 11 1 20 -1 9 -1 55 -5 101 -8z M1725 9636 c-141
-44 -246 -154 -285 -296 -9 -33 -13 -181 -13 -555 0 -453 2 -517 17 -569 33
-114 118 -213 224 -260 l43 -19 -6 -66 c-7 -69 -8 -78 -20 -151 -12 -71 -12
-75 -35 -154 -80 -288 -206 -458 -555 -751 -250 -210 -359 -332 -426 -480 -30
-66 -70 -185 -63 -185 2 0 -1 -11 -5 -24 -5 -13 -13 -54 -18 -92 -10 -85 -11
-4246 -1 -4329 47 -388 303 -736 662 -900 75 -34 182 -69 246 -80 19 -4 58
-10 85 -15 28 -5 541 -8 1140 -7 1183 3 1116 0 1295 58 224 72 442 235 579
433 105 153 182 357 198 531 9 93 9 4180 0 4270 -32 325 -153 518 -512 820
-71 60 -165 143 -208 185 -206 198 -336 442 -383 719 -3 18 -7 41 -9 51 -2 9
-6 51 -10 91 l-7 75 52 24 c75 35 150 112 191 195 l34 70 0 560 0 560 -33 67
c-37 76 -97 143 -164 181 -99 59 -63 57 -1058 56 -708 0 -924 -3 -955 -13z
m1819 -261 c55 -8 93 -31 111 -65 14 -26 16 -97 16 -520 1 -456 -1 -493 -18
-527 -23 -46 -76 -74 -147 -77 -51 -2 -55 -1 -59 23 -3 14 -3 136 0 271 6 314
5 357 -8 405 -19 73 -62 105 -134 101 -55 -3 -87 -24 -111 -73 -20 -41 -19
-23 -15 -516 1 -108 0 -201 -3 -205 -3 -6 -515 -8 -558 -3 -3 1 -6 158 -7 351
0 391 -1 394 -69 429 -62 31 -123 19 -172 -34 l-25 -27 -5 -361 -5 -362 -266
0 c-264 1 -267 1 -302 25 -62 43 -61 31 -65 430 -6 648 -7 612 16 663 27 60
63 79 145 75 l62 -3 0 -350 c0 -316 2 -353 18 -382 32 -60 113 -80 183 -47 24
12 38 28 51 62 16 43 18 79 15 385 l-3 337 286 0 285 0 1 -37 c3 -79 1 -255
-3 -418 -6 -200 5 -272 46 -313 23 -24 34 -27 90 -27 54 0 69 4 89 23 50 47
55 97 45 502 -2 102 -2 203 0 225 l4 41 175 2 c97 1 177 3 179 5 5 5 108 -1
158 -8z m220 -3279 c152 -45 271 -179 294 -330 9 -64 7 -3958 -2 -4006 -30
-151 -176 -290 -332 -317 -27 -5 -506 -8 -1064 -8 -1003 2 -1016 2 -1072 22
-157 58 -267 195 -277 348 -2 28 -4 930 -4 2005 l-1 1955 24 67 c53 150 184
259 334 276 22 2 42 5 43 6 1 0 451 1 1000 0 913 -1 1003 -3 1057 -18z M2573
4362 c-297 -609 -444 -992 -445 -1157 0 -163 54 -289 172 -405 147 -144 369
-196 560 -130 268 91 429 363 374 630 -42 203 -215 621 -461 1114 -47 94 -86
172 -87 173 -2 2 -53 -99 -113 -225z M6257 5484 c-1 -1 -72 -5 -157 -9 -85 -4
-182 -9 -215 -10 -33 -2 -190 -6 -350 -10 -322 -8 -331 -9 -367 -75 -17 -31
-19 -49 -14 -170 4 -74 8 -238 11 -365 3 -126 7 -270 10 -320 12 -202 26 -229
276 -515 607 -694 1383 -1806 2259 -3235 40 -66 82 -130 93 -141 24 -28 87
-46 206 -60 31 -3 65 -8 75 -10 127 -24 973 -24 1191 0 172 19 188 24 222 74
60 90 63 342 8 667 -14 77 -27 151 -29 165 -43 209 -54 235 -158 390 -161 240
-522 695 -1293 1630 -1080 1309 -1319 1613 -1475 1874 -63 105 -83 117 -207
120 -46 1 -84 1 -86 0z m-603 -909 c93 -121 643 -839 1222 -1596 l1053 -1376
-19 -61 c-39 -124 -53 -230 -48 -365 3 -70 4 -126 3 -125 -1 2 -89 143 -195
313 -799 1285 -1152 1783 -1973 2788 -130 159 -235 296 -235 305 1 10 -2 100
-6 202 -6 178 -6 184 11 160 10 -13 94 -123 187 -245z m3522 -3094 c6 0 11 -7
11 -13 0 -13 6 -49 23 -148 5 -30 12 -73 15 -95 3 -23 7 -50 9 -60 4 -20 15
-90 21 -135 13 -92 18 -150 16 -196 -1 -20 -6 -21 -88 -18 -49 1 -205 5 -348
8 -482 11 -690 18 -695 22 -13 14 -27 155 -25 259 3 116 18 216 50 323 l16 51
122 3 c118 3 851 2 873 -1z"/>
</g>
</svg>
