<svg xmlns="http://www.w3.org/2000/svg" viewBox="0 0 1024 1024">
<g transform="translate(0,1024) scale(0.1,-0.1)">
<path fill="currentColor" d="M2999 10236 c-2 -2 -31 -6 -64 -9 -33 -4 -70 -8 -81 -11 -12 -2 -39
-7 -59 -10 -302 -48 -693 -243 -904 -448 -75 -74 -104 -135 -107 -227 -6 -156
75 -269 246 -340 283 -118 756 -394 1150 -672 55 -39 110 -72 122 -74 13 -2
48 -6 78 -9 72 -8 94 -12 230 -42 537 -120 987 -408 1305 -835 40 -54 83 -116
96 -138 12 -23 25 -41 28 -41 3 1 24 38 45 83 62 129 173 309 277 446 107 143
101 118 68 294 -75 404 -263 811 -526 1137 -88 110 -275 298 -383 384 -259
207 -569 370 -852 446 -82 22 -93 25 -178 39 -30 6 -71 13 -90 16 -38 7 -395
17 -401 11z M7547 8764 c-1 -1 -42 -4 -92 -8 -49 -3 -99 -8 -111 -10 -12 -2
-45 -7 -75 -11 -89 -10 -277 -55 -393 -92 -396 -127 -739 -337 -1037 -633
-227 -225 -390 -460 -523 -753 l-36 -77 28 -30 27 -30 54 15 c66 17 158 27
271 30 71 1 101 7 180 37 88 33 211 71 270 82 201 38 310 50 475 50 89 0 251
-10 290 -18 11 -2 40 -7 65 -10 113 -15 358 -85 506 -144 73 -29 199 -90 264
-128 l55 -31 270 -7 c149 -4 286 -8 305 -10 19 -2 81 -7 138 -11 57 -3 113 -8
125 -10 12 -2 57 -6 100 -10 43 -4 88 -8 100 -10 12 -2 45 -6 72 -10 28 -3 57
-8 65 -10 8 -2 35 -6 60 -9 25 -3 56 -8 70 -11 14 -3 39 -8 55 -10 17 -3 37
-8 45 -10 8 -2 26 -6 40 -9 14 -3 45 -9 70 -13 75 -15 148 -4 220 32 46 23
117 92 140 136 22 40 38 115 35 165 -9 160 -137 485 -270 684 -340 508 -868
812 -1520 876 -62 6 -332 13 -338 8z M2927 8164 c-1 -1 -45 -4 -97 -8 -52 -3
-106 -8 -120 -10 -26 -5 -68 -11 -135 -21 -22 -3 -105 -22 -183 -41 -698 -171
-1305 -639 -1662 -1280 -88 -158 -161 -343 -165 -417 -7 -133 64 -255 183
-316 87 -44 162 -43 312 4 169 53 482 133 625 159 17 3 41 8 55 11 14 3 36 7
50 10 14 2 36 7 50 10 14 2 36 6 50 9 14 2 52 9 85 15 33 5 80 13 105 16 25 3
52 8 60 10 8 2 39 7 69 10 30 4 61 8 70 10 9 1 41 6 71 10 30 3 66 8 80 10 42
6 111 14 185 21 39 4 84 8 100 10 118 11 323 22 478 24 l117 2 1 37 c4 156 42
316 109 458 109 234 291 419 523 533 167 82 306 114 494 115 51 0 93 1 93 3 0
1 -24 25 -52 54 -314 307 -753 501 -1233 544 -71 6 -312 13 -318 8z M4341
7258 c-418 -49 -737 -411 -734 -833 3 -363 229 -674 573 -789 100 -33 155 -41
280 -39 128 2 232 27 347 83 204 100 350 267 424 484 102 298 24 630 -201 854
-182 182 -435 270 -689 240z M6390 7034 c-14 -3 -56 -9 -93 -15 l-69 -11 69
-46 c142 -94 307 -290 381 -453 30 -64 68 -177 77 -228 3 -14 8 -37 11 -51 14
-57 13 -305 -2 -385 -28 -150 -96 -322 -168 -428 -14 -21 -26 -41 -26 -45 0
-4 35 -34 78 -67 100 -76 347 -275 392 -315 19 -18 71 -64 115 -103 195 -175
472 -451 686 -683 76 -83 260 -305 343 -415 115 -153 187 -199 311 -199 115 0
227 61 286 156 20 32 54 137 65 199 2 17 7 37 9 45 6 20 13 64 21 120 3 25 8
53 10 62 20 110 20 518 0 624 -2 12 -7 45 -11 75 -4 30 -13 86 -22 124 -8 39
-17 83 -20 99 -8 49 -62 225 -100 326 -189 507 -556 967 -1009 1265 -229 151
-547 283 -768 320 -72 12 -102 18 -121 22 -26 6 -413 12 -445 7z M5627 6874
c-1 -1 -31 -4 -66 -7 -35 -4 -66 -8 -68 -11 -3 -2 7 -41 22 -87 49 -157 67
-348 44 -489 -5 -30 -11 -68 -13 -85 -8 -48 -55 -185 -86 -251 -75 -155 -238
-350 -368 -436 l-54 -36 44 -42 c106 -101 272 -185 421 -213 77 -15 238 -16
302 -2 181 38 329 119 452 248 158 166 234 364 229 595 -3 134 -24 219 -86
347 -135 279 -398 451 -718 469 -29 1 -53 2 -55 0z M3822 5311 c-69 -125 -102
-189 -161 -307 l-30 -61 127 -76 c151 -89 250 -139 404 -200 150 -60 337 -117
458 -141 14 -2 48 -9 77 -15 29 -6 74 -13 100 -17 26 -3 57 -8 68 -10 11 -2
54 -7 95 -10 l75 -6 28 118 c25 105 101 359 121 406 6 13 -4 23 -51 47 -94 47
-200 128 -291 219 l-84 85 -51 -12 c-91 -21 -139 -26 -267 -26 -185 0 -294 23
-461 95 l-87 38 -70 -127z M3489 4633 c-75 -174 -161 -399 -241 -633 -57 -166
-188 -591 -188 -609 0 -13 199 -112 340 -168 170 -69 375 -131 525 -158 224
-40 333 -50 550 -50 184 0 388 14 402 28 1 1 4 74 8 162 3 88 8 185 10 215 2
30 7 93 10 140 3 47 8 101 10 120 2 19 7 64 10 100 4 36 8 76 10 90 2 14 7 50
10 80 3 30 8 66 10 80 5 39 17 113 21 133 2 13 -4 17 -24 18 -15 0 -34 2 -42
3 -8 2 -37 6 -65 10 -104 12 -142 18 -210 33 -38 8 -81 17 -95 19 -282 54
-756 249 -988 406 l-42 29 -21 -48z M2971 3037 c-58 -247 -146 -699 -166 -852
-6 -54 -13 -95 -20 -135 -2 -14 -7 -52 -11 -85 -3 -33 -8 -68 -9 -77 -6 -30
-18 -152 -19 -187 -1 -33 2 -36 59 -58 57 -23 234 -78 279 -88 48 -10 69 -14
84 -19 9 -3 31 -8 47 -11 71 -12 91 -16 105 -20 8 -2 42 -7 75 -11 33 -3 69
-8 80 -10 33 -7 234 -17 320 -17 87 0 308 11 340 17 11 2 45 7 75 11 30 4 62
9 71 10 9 2 32 6 50 9 46 8 77 14 97 20 9 3 32 8 49 11 51 8 256 72 360 112
l95 36 -6 66 c-3 36 -9 102 -12 146 -3 44 -7 103 -9 130 -3 28 -7 111 -11 185
-3 74 -7 167 -9 205 -2 39 -4 128 -4 198 -1 71 -5 126 -10 123 -41 -26 -643
-27 -777 -2 -10 2 -41 7 -69 10 -229 29 -534 113 -768 210 -73 30 -246 109
-268 122 -3 2 -11 -20 -18 -49z M4830 1344 c-105 -36 -279 -85 -355 -100 -11
-2 -31 -6 -45 -9 -14 -3 -40 -8 -59 -11 -18 -3 -42 -7 -53 -9 -11 -3 -46 -7
-77 -11 -31 -3 -65 -8 -76 -10 -117 -23 -612 -22 -731 0 -10 2 -41 7 -69 10
-86 12 -119 17 -135 21 -8 2 -31 7 -50 10 -75 12 -211 47 -334 86 -70 22 -129
39 -131 37 -5 -5 -14 -79 -20 -173 -3 -49 -8 -121 -10 -160 -10 -146 -16 -305
-16 -430 -1 -151 15 -217 74 -306 61 -92 121 -134 252 -178 50 -16 105 -33
124 -36 19 -3 37 -8 40 -10 4 -2 26 -6 51 -10 25 -4 47 -8 50 -10 3 -2 34 -6
70 -10 36 -4 67 -9 70 -10 41 -25 803 -26 935 -1 11 2 47 7 80 11 32 4 67 8
76 10 9 2 34 6 55 9 93 15 249 58 301 83 108 53 196 163 229 287 12 45 13 166
1 211 -5 22 -53 298 -62 360 -4 22 -8 51 -10 65 -2 14 -7 48 -10 75 -4 28 -8
61 -10 75 -2 14 -7 52 -11 84 -9 80 -9 85 -15 89 -2 1 -60 -16 -129 -39z"/>
</g>
</svg>
