<svg xmlns="http://www.w3.org/2000/svg" viewBox="0 0 1024 1024">
<g transform="translate(0,1024) scale(0.1,-0.1)">
<path fill="currentColor" d="M2925 9984 c-123 -23 -151 -31 -250 -71 -93 -38 -511 -291 -522 -316
-15 -33 -6 -69 23 -94 22 -20 36 -23 122 -24 100 -1 113 -2 219 -19 353 -58
691 -290 883 -604 79 -131 112 -216 194 -511 l48 -170 -37 -58 -38 -57 -35 42
c-227 276 -569 462 -912 496 -334 33 -639 -44 -915 -232 -102 -69 -492 -445
-501 -483 -14 -55 39 -109 96 -98 14 2 36 7 50 10 33 6 74 13 135 21 28 3 58
8 68 10 138 26 733 26 873 0 10 -2 44 -7 74 -11 30 -4 64 -9 75 -11 11 -2 45
-8 75 -14 88 -16 89 -16 215 -48 124 -32 367 -107 398 -124 13 -7 15 -13 7
-28 -6 -11 -12 -43 -15 -72 -2 -29 -4 -56 -4 -59 -1 -4 -40 -19 -88 -34 -367
-114 -684 -385 -852 -728 -97 -198 -142 -386 -145 -597 -1 -123 7 -248 19
-282 2 -7 7 -31 10 -53 13 -91 84 -266 211 -521 143 -288 154 -302 213 -289
50 11 59 35 66 187 3 75 7 145 9 155 2 10 7 45 10 78 12 102 54 297 92 421 92
305 242 595 441 857 70 92 381 422 390 414 1 -2 -10 -51 -26 -108 -61 -218
-156 -599 -185 -739 -3 -14 -27 -133 -55 -265 -27 -132 -52 -258 -55 -279 -4
-21 -8 -48 -11 -60 -5 -24 -6 -25 -39 -226 -14 -80 -27 -163 -31 -185 -21
-143 -34 -237 -40 -284 -4 -30 -8 -61 -10 -70 -1 -9 -6 -45 -10 -81 -4 -36 -8
-72 -10 -80 -2 -8 -6 -49 -10 -90 -4 -41 -8 -82 -10 -90 -2 -8 -6 -53 -10
-100 -4 -47 -8 -92 -10 -100 -2 -8 -6 -55 -10 -105 -4 -49 -8 -106 -10 -125
-2 -19 -6 -84 -10 -145 -4 -60 -8 -126 -10 -145 -27 -291 -27 -1521 0 -1810 2
-19 6 -87 10 -150 3 -63 8 -133 10 -155 2 -22 6 -87 10 -145 6 -103 5 -107
-34 -220 -30 -90 -41 -111 -47 -95 -4 11 -58 144 -118 296 -61 151 -118 285
-126 298 -9 13 -30 24 -52 28 -30 4 -41 1 -62 -20 l-26 -26 0 -336 0 -335
-267 200 c-202 152 -273 200 -295 200 -36 0 -78 -40 -78 -74 0 -14 61 -147
135 -295 l135 -271 -111 0 c-105 0 -111 -1 -136 -26 -21 -21 -24 -32 -19 -62
5 -32 32 -63 184 -215 l179 -177 1127 0 c716 0 1134 4 1146 10 10 5 107 132
216 282 108 150 201 278 206 285 5 6 10 26 10 44 1 37 -39 79 -76 79 -16 0
-277 -139 -390 -207 -4 -3 -5 7 -2 23 11 50 16 78 22 114 3 19 7 42 9 50 3 8
7 33 11 55 3 22 10 60 16 85 27 123 20 177 -26 197 -44 20 -69 4 -207 -133
l-135 -135 -32 103 c-42 139 -87 323 -108 438 -2 14 -9 48 -15 76 -5 28 -12
61 -14 75 -4 25 -18 102 -40 229 -3 14 -7 45 -11 70 -3 25 -7 52 -9 60 -2 8
-7 38 -10 65 -4 28 -8 57 -10 65 -2 8 -7 38 -10 65 -3 28 -8 61 -10 75 -3 14
-7 48 -11 75 -3 28 -8 58 -9 67 -2 9 -7 48 -10 85 -4 37 -8 75 -10 83 -2 8 -7
44 -10 80 -4 36 -8 76 -10 90 -2 14 -7 61 -10 105 -4 44 -8 91 -10 105 -2 14
-7 63 -10 110 -4 47 -8 101 -10 120 -2 19 -6 87 -10 150 -4 63 -8 131 -10 150
-26 266 -26 1474 0 1750 1 19 6 85 10 145 3 61 8 126 10 145 1 19 6 76 10 125
3 50 8 101 10 115 2 14 6 57 10 95 6 68 11 122 20 195 3 19 7 58 10 85 9 77
26 207 30 235 2 14 7 48 11 75 3 28 8 57 9 66 2 9 6 40 10 69 4 29 9 62 11 74
2 11 6 38 10 61 3 22 8 47 9 55 2 8 4 17 4 20 2 8 68 -144 126 -290 119 -300
247 -743 290 -1000 3 -19 8 -42 10 -50 2 -8 7 -33 10 -55 3 -23 7 -50 9 -60 4
-20 14 -88 21 -135 2 -14 7 -52 11 -85 3 -33 8 -67 9 -76 2 -8 6 -55 10 -105
4 -49 9 -105 11 -124 2 -19 6 -156 10 -305 3 -153 10 -279 16 -291 17 -35 59
-47 103 -30 19 7 527 643 580 726 112 172 177 352 210 575 8 53 8 259 0 310
-49 329 -177 584 -404 804 -78 76 -166 139 -395 282 -110 68 -203 126 -207
129 -14 10 40 105 59 104 28 -2 146 -16 162 -19 8 -2 44 -6 80 -10 36 -4 72
-8 80 -10 8 -2 44 -6 80 -10 36 -4 72 -8 80 -10 8 -1 40 -6 70 -10 361 -48
686 -247 889 -544 47 -69 449 -849 439 -852 -2 0 -16 -3 -33 -5 -107 -15 -422
-129 -462 -166 -13 -12 -23 -33 -23 -49 0 -50 36 -77 125 -95 357 -71 631
-368 670 -724 3 -30 8 -71 10 -90 5 -41 12 -111 21 -195 l5 -60 -40 68 c-149
251 -369 407 -648 461 -77 15 -270 16 -338 2 -73 -15 -175 -51 -240 -83 -84
-42 -338 -216 -365 -250 -23 -29 -18 -70 13 -99 20 -20 36 -22 187 -28 91 -3
176 -8 190 -10 14 -2 59 -10 100 -16 102 -17 101 -17 199 -41 148 -37 311 -97
458 -169 l143 -70 -22 -45 c-12 -25 -29 -45 -37 -46 -9 0 -23 -2 -31 -4 -8 -2
-30 -6 -49 -9 -54 -11 -149 -45 -215 -78 -379 -191 -594 -604 -529 -1013 6
-44 37 -166 68 -270 59 -201 78 -235 130 -235 44 0 72 38 90 125 46 214 158
471 282 644 92 128 255 296 376 387 55 41 101 73 104 71 2 -3 -36 -85 -85
-183 -268 -535 -472 -1084 -617 -1657 -40 -158 -51 -187 -64 -182 -30 13 -46
12 -72 -1 -35 -17 -47 -52 -54 -154 -3 -47 -8 -101 -10 -120 -2 -19 -7 -69
-10 -110 -3 -41 -8 -91 -10 -110 -2 -19 -7 -71 -10 -115 -3 -44 -7 -96 -10
-115 -2 -19 -7 -66 -10 -105 -4 -38 -8 -71 -9 -73 -2 -1 -31 7 -66 19 -81 26
-116 27 -141 2 -27 -27 -29 -59 -8 -156 10 -45 20 -93 23 -107 25 -130 36
-165 58 -182 21 -16 59 -18 573 -17 427 0 555 3 573 12 30 17 283 403 289 442
6 37 -33 85 -69 85 -13 0 -86 -22 -162 -50 -76 -27 -140 -50 -143 -50 -4 0 6
176 13 212 1 9 6 67 9 128 7 100 5 113 -11 132 -11 11 -29 24 -41 29 -14 5
-21 15 -19 26 2 10 7 74 11 142 4 68 8 133 10 145 2 11 6 57 10 100 4 43 8 86
10 95 1 9 6 43 9 76 4 33 9 71 11 85 4 25 12 81 21 150 3 19 7 46 10 60 2 14
7 36 9 50 3 14 8 45 11 70 3 25 8 47 9 50 2 3 6 26 10 50 3 25 11 65 17 90 5
25 12 56 14 70 24 122 87 378 139 560 45 159 125 402 135 413 4 5 11 -12 15
-38 3 -26 8 -57 11 -68 12 -61 24 -137 29 -182 4 -27 8 -61 10 -74 26 -160 26
-691 0 -854 -2 -12 -6 -44 -10 -72 -3 -27 -8 -59 -10 -70 -3 -11 -7 -36 -9
-55 -3 -19 -10 -60 -16 -90 -13 -69 -6 -104 27 -125 48 -32 72 -16 318 200
292 256 357 339 424 540 37 111 45 163 46 290 0 122 -14 209 -47 300 -65 175
-143 280 -335 453 -77 69 -81 75 -72 101 l10 28 169 -52 c93 -29 199 -67 236
-84 170 -80 319 -230 397 -402 14 -31 87 -262 162 -515 145 -488 147 -493 208
-494 29 0 76 38 78 62 0 7 2 22 4 33 3 18 16 90 29 165 3 14 10 52 16 85 5 33
12 71 15 85 2 14 9 54 15 90 7 36 14 74 16 85 1 11 10 63 20 115 41 238 16
451 -76 648 -136 290 -385 498 -690 577 -142 37 -333 41 -480 10 -109 -23
-108 -18 10 49 171 97 341 160 490 181 25 3 59 8 75 11 43 8 252 7 305 0 58
-9 135 -22 270 -46 30 -5 66 -11 80 -14 14 -2 52 -9 85 -15 33 -6 75 -13 93
-16 17 -3 47 -8 65 -11 78 -14 97 -13 122 9 31 27 37 64 18 97 -8 14 -78 77
-155 140 -77 63 -145 120 -152 125 -80 73 -261 213 -315 245 -63 37 -181 86
-235 96 -12 2 -32 6 -46 10 -56 13 -237 13 -305 -1 -179 -35 -339 -118 -462
-241 -23 -24 -101 -122 -173 -218 -72 -97 -133 -176 -135 -176 -1 0 15 62 36
138 110 384 125 474 105 612 -29 194 -148 381 -314 493 l-67 45 -1 408 c-1
225 -4 423 -7 439 -3 17 -9 53 -13 80 -3 28 -8 53 -10 56 -2 3 -6 21 -9 40
-23 132 -134 383 -231 522 -72 102 -84 116 -179 212 -281 283 -663 444 -1062
448 -84 0 -251 -11 -263 -18 -3 -2 -25 -6 -49 -10 -72 -11 -199 -51 -397 -125
-188 -71 -214 -78 -214 -61 0 12 349 302 452 376 257 185 629 334 927 370 30
4 63 9 75 12 12 3 269 8 571 10 533 5 551 5 572 25 28 26 33 49 18 84 -10 25
-87 72 -465 288 -445 255 -545 306 -665 341 -494 143 -1031 -29 -1339 -430
-87 -113 -87 -112 -227 -389 -72 -142 -129 -244 -133 -237 -4 6 -29 22 -56 36
-35 18 -48 30 -46 42 2 10 7 56 11 103 4 47 8 92 10 100 2 8 6 53 10 100 4 47
9 92 10 101 7 38 18 200 18 254 -3 151 -31 278 -91 414 -143 324 -428 545
-797 616 -64 13 -262 12 -330 -1z m353 -168 c175 -38 309 -113 442 -246 135
-135 217 -291 250 -471 12 -65 15 -224 6 -289 -3 -19 -8 -62 -11 -95 -8 -77
-15 -83 -16 -14 0 30 -2 63 -4 74 -2 11 -7 43 -10 70 -9 73 -70 249 -115 332
-106 197 -268 358 -466 460 -82 43 -230 97 -294 107 -88 15 -152 20 -239 19
-85 0 -91 1 -63 12 30 13 176 51 222 58 55 8 229 -2 298 -17z m2398 -661 c128
-17 238 -52 357 -112 48 -25 86 -47 85 -49 -2 -1 -21 1 -43 6 -144 32 -308 41
-485 27 -85 -7 -124 -12 -170 -23 -14 -3 -38 -8 -55 -11 -64 -11 -245 -76
-351 -127 -131 -63 -301 -174 -374 -246 -3 -3 -30 -27 -59 -55 l-54 -50 34 65
c211 403 663 636 1115 575z m-3045 -719 c267 -37 516 -162 699 -351 36 -37 61
-66 55 -64 -5 3 -71 34 -145 71 -163 80 -351 145 -480 164 -19 3 -42 7 -50 9
-15 4 -71 12 -145 20 -52 6 -333 7 -365 1 -14 -2 -50 -7 -80 -11 -30 -4 -62
-8 -70 -10 -8 -2 -33 -6 -55 -10 -22 -4 -43 -9 -46 -11 -3 -2 -20 -6 -37 -9
-18 -3 -66 -16 -107 -29 -41 -13 -73 -20 -70 -16 9 15 138 96 202 129 128 64
256 102 393 117 30 4 56 7 58 9 5 4 199 -3 243 -9z m1385 -306 c90 -25 164
-126 164 -222 0 -52 -2 -54 -60 -62 -69 -11 -86 -16 -142 -42 l-57 -27 -33 24
c-41 31 -96 57 -137 65 -44 9 -54 26 -47 78 10 62 56 129 111 162 73 42 116
47 201 24z m1431 -315 c40 -3 78 -7 85 -10 7 -2 29 -6 48 -9 54 -8 187 -50
268 -84 438 -187 763 -621 817 -1092 8 -68 15 -263 9 -257 -2 2 -19 51 -38
109 -86 265 -226 490 -431 693 -251 248 -546 397 -930 469 -87 16 -353 23
-455 12 -19 -2 -84 -7 -145 -11 -60 -4 -113 -9 -117 -12 -5 -2 -8 0 -8 4 0 11
342 137 425 157 79 19 116 25 200 33 39 3 71 7 73 8 3 3 113 -2 199 -10z
m-1674 -128 c108 -63 148 -201 92 -314 -43 -86 -123 -133 -222 -129 -133 5
-226 102 -226 236 -1 102 47 175 143 220 61 28 151 23 213 -13z m490 -26 c151
-73 178 -278 51 -389 -71 -63 -171 -80 -249 -42 -70 33 -69 29 -40 113 29 89
33 183 9 253 -15 45 -15 48 3 58 67 40 153 43 226 7z m-1398 -603 c-185 -187
-301 -373 -380 -610 -19 -57 -36 -114 -38 -128 -3 -14 -8 -36 -11 -50 -34
-145 -40 -438 -12 -587 8 -43 17 -133 12 -133 -14 0 -83 222 -101 325 -13 79
-12 290 2 385 48 318 229 621 488 814 52 39 151 104 161 106 0 0 -54 -55 -121
-122z m1050 72 c27 -30 13 -49 -32 -45 -21 2 -46 4 -55 4 -29 1 -20 26 15 44
42 21 51 21 72 -3z m900 -299 c290 -189 477 -483 530 -836 8 -53 8 -227 0
-290 -20 -154 -79 -327 -156 -453 -43 -71 -180 -254 -185 -249 -2 2 8 38 21
81 21 67 35 128 60 256 21 105 28 423 12 550 -41 335 -185 693 -384 952 -30
40 -61 80 -67 88 -13 17 32 -9 169 -99z m-973 -300 c3 0 5 -9 3 -18 -2 -10 -6
-45 -10 -78 l-7 -60 -104 0 -104 0 5 27 c3 16 8 42 11 60 14 74 13 74 110 72
49 -1 92 -2 96 -3z m-80 -640 c13 -1 15 -10 12 -58 -9 -109 5 -100 -154 -102
l-141 -2 6 28 c3 15 8 44 11 63 11 72 7 69 107 72 51 2 103 2 117 1 14 -1 32
-2 42 -2z m-34 -831 l-3 -80 -186 0 -186 0 8 53 c8 48 16 99 18 105 1 1 80 2
176 2 l176 0 -3 -80z m3300 -743 c74 -68 66 -178 -15 -228 -40 -25 -45 -22
-50 27 -5 49 -43 121 -87 165 -32 32 -35 38 -21 49 41 34 129 27 173 -13z
m-3307 -44 c0 -15 2 -50 3 -76 1 -27 -1 -50 -4 -52 -3 -2 -107 -5 -230 -7
l-225 -3 3 70 c1 39 4 75 6 80 2 6 89 11 225 13 l221 3 1 -28z m3005 -79 c103
-49 106 -201 4 -255 -63 -34 -127 -21 -180 36 -21 23 -25 36 -25 90 0 49 4 68
20 85 52 59 117 74 181 44z m436 -273 c1 -51 -15 -85 -54 -114 -39 -29 -86
-39 -130 -26 -34 9 -88 55 -88 74 0 22 37 45 81 51 49 6 140 46 160 70 11 14
13 14 22 -1 5 -10 9 -34 9 -54z m-420 -391 l-26 -80 -53 0 c-29 0 -53 2 -53 5
0 2 17 38 37 80 l37 75 42 0 42 0 -26 -80z m-2988 -50 c2 -3 7 -38 9 -77 4
-52 2 -73 -6 -74 -7 -1 -23 -2 -37 -4 -14 -1 -74 -5 -135 -9 -142 -8 -257 -16
-321 -21 l-51 -5 3 77 c2 42 6 78 8 81 6 6 18 7 366 28 58 3 106 7 108 9 4 4
51 -1 56 -5z m2897 -219 c4 -1 -3 -36 -16 -78 l-22 -78 -82 -2 c-44 -1 -81 2
-81 8 0 5 14 40 31 78 23 51 37 71 53 73 17 2 95 2 117 -1z m-97 -386 c-3 -13
-11 -48 -18 -77 l-11 -53 -113 -3 c-61 -1 -112 -1 -112 1 0 6 50 140 56 149 3
4 50 8 105 8 l99 0 -6 -25z m-2703 -317 c0 -7 2 -20 3 -28 10 -48 14 -110 8
-114 -4 -2 -43 -7 -86 -11 -43 -4 -86 -8 -95 -10 -9 -1 -52 -6 -96 -10 -44 -3
-93 -8 -110 -10 -189 -24 -255 -28 -256 -14 0 8 -2 44 -3 82 l-3 67 31 1 c17
0 38 2 46 3 14 3 67 9 200 22 30 3 69 7 85 9 17 2 64 7 105 11 41 3 76 7 77 8
2 1 23 3 48 5 31 1 45 -2 46 -11z m2604 -151 c-4 -23 -10 -58 -14 -77 l-7 -35
-147 -3 -146 -3 14 41 c8 23 19 59 25 81 l11 39 135 0 135 0 -6 -43z m-71
-479 c-11 -79 -12 -94 -13 -110 -1 -16 -17 -18 -181 -18 -99 0 -180 3 -180 6
0 7 29 123 35 142 3 9 47 12 174 12 l170 0 -5 -32z m-2408 -158 c4 -25 13 -73
19 -102 7 -32 4 -34 -64 -43 -30 -4 -61 -8 -70 -10 -9 -1 -41 -6 -72 -9 -31
-4 -67 -9 -79 -11 -12 -2 -48 -7 -79 -11 -31 -3 -64 -8 -75 -10 -10 -2 -44 -6
-75 -10 -31 -3 -65 -8 -76 -10 -11 -2 -47 -7 -81 -10 l-60 -6 -3 56 c-1 30 -4
64 -6 75 -5 26 -2 27 66 35 31 4 65 8 75 10 11 2 44 7 75 10 31 4 65 8 75 10
24 4 95 14 159 22 28 3 61 7 75 9 14 2 48 7 75 11 28 3 51 7 53 9 1 1 16 2 34
1 19 -1 32 -7 34 -16z m2360 -387 c-2 -43 -5 -79 -5 -80 -1 -2 -79 -3 -174 -3
l-174 0 -17 53 c-10 28 -22 64 -26 80 l-9 27 205 0 205 0 -5 -77z m-3446 -263
c96 -243 114 -264 190 -225 24 13 34 31 66 130 21 63 41 115 44 115 4 0 19
-54 35 -121 31 -127 51 -159 99 -159 36 0 60 24 198 193 72 89 135 167 140
172 6 6 7 -2 4 -20 -51 -300 -66 -403 -61 -426 7 -29 43 -59 72 -59 33 0 71
34 168 149 l96 113 -4 -113 c-5 -159 9 -189 84 -189 29 0 56 23 244 211 l212
210 -23 -118 c-51 -267 -50 -264 -22 -298 35 -40 70 -36 175 24 49 28 92 51
96 51 3 0 -15 -28 -41 -63 -26 -35 -58 -80 -72 -100 l-25 -37 -1065 0 -1065 0
-80 80 -80 80 68 0 c86 0 124 18 132 63 6 29 -6 59 -79 205 -47 95 -86 174
-86 177 0 3 6 1 13 -5 6 -6 93 -72 192 -147 167 -125 183 -134 214 -129 64 10
66 15 69 242 2 114 5 205 7 203 2 -2 40 -96 85 -209z m3145 -434 c21 -16 53
-20 80 -10 9 4 71 75 137 158 67 83 125 156 131 161 6 6 7 -8 3 -40 -3 -27 -9
-100 -12 -161 l-7 -110 28 -22 c36 -29 55 -28 153 8 46 17 85 30 87 30 2 0
-17 -31 -42 -70 l-47 -70 -476 0 -477 0 -10 58 c-6 31 -9 58 -8 60 2 2 28 -4
58 -14 47 -15 60 -15 87 -4 38 16 45 33 54 125 4 39 9 93 12 120 7 77 12 132
19 230 4 50 9 97 11 105 1 8 3 20 4 25 1 6 45 -119 98 -277 66 -193 104 -292
117 -302z"/>
</g>
</svg>
