<svg xmlns="http://www.w3.org/2000/svg" viewBox="0 0 1024 1024">
<g transform="translate(0,1024) scale(0.1,-0.1)">
<path fill="currentColor" d="M3880 9900 c-18 -18 -20 -33 -20 -169 0 -127 3 -152 18 -170 24 -30
56 -33 81 -10 23 22 23 21 23 202 0 109 -2 131 -17 147 -23 26 -60 25 -85 0z
M1553 9840 c-12 -5 -30 -21 -39 -35 -16 -24 -16 -29 -1 -58 29 -60 121 -172
143 -175 12 -2 34 8 49 21 43 36 36 67 -31 154 -69 88 -90 105 -121 93z M3511
9816 c-31 -33 -27 -47 61 -195 78 -134 101 -154 141 -128 53 35 47 57 -75 275
-43 77 -85 93 -127 48z M4248 9818 c-9 -7 -48 -70 -86 -141 -74 -136 -79 -165
-38 -192 26 -18 62 -15 81 5 28 31 145 254 145 277 0 49 -64 80 -102 51z
M8550 9804 c-147 -53 -241 -216 -205 -354 19 -72 50 -124 105 -173 108 -97
261 -107 382 -25 88 60 148 190 134 290 -14 100 -91 204 -184 249 -62 29 -170
35 -232 13z m189 -155 c73 -41 96 -128 56 -213 -25 -52 -69 -80 -130 -83 -180
-6 -245 226 -85 305 51 25 105 22 159 -9z M1941 9720 c-79 -62 -91 -75 -91
-103 0 -23 44 -67 67 -67 10 0 58 30 106 66 96 74 108 101 64 142 -36 34 -65
26 -146 -38z M1738 9548 c-44 -44 10 -119 65 -89 14 7 28 23 31 35 13 51 -58
92 -96 54z M3285 9560 c-42 -16 -51 -44 -31 -92 11 -24 247 -158 278 -158 48
0 79 68 48 105 -11 13 -215 128 -260 146 -8 4 -24 3 -35 -1z M4408 9496 c-143
-78 -163 -99 -140 -150 22 -50 55 -45 187 24 66 34 129 71 140 81 25 22 29 56
10 85 -27 42 -56 36 -197 -40z M1543 9402 c-95 -72 -109 -98 -75 -138 39 -47
55 -42 176 51 72 55 84 87 47 126 -34 37 -55 32 -148 -39z M1858 9422 c-53
-36 -51 -58 16 -147 68 -91 83 -105 107 -105 26 0 69 44 69 71 0 27 -122 185
-149 192 -11 2 -30 -2 -43 -11z M3824 9404 c-148 -53 -219 -236 -149 -379 120
-246 487 -182 521 92 13 112 -59 237 -163 280 -59 24 -153 27 -209 7z m167
-144 c64 -29 95 -142 55 -202 -25 -39 -98 -72 -143 -65 -139 23 -168 206 -43
270 37 18 86 17 131 -3z M4343 9184 c-29 -30 -29 -49 2 -80 24 -24 28 -24 167
-23 128 2 145 4 166 22 28 26 28 58 1 83 -18 16 -39 19 -167 20 -140 1 -147 0
-169 -22z M3180 9188 c-23 -9 -39 -44 -32 -70 10 -39 37 -46 186 -46 130 -1
145 1 165 19 11 11 21 31 21 44 0 21 -21 53 -38 56 -30 6 -287 3 -302 -3z
M3386 8900 c-66 -38 -125 -79 -132 -91 -23 -43 19 -101 67 -94 21 4 257 133
264 146 4 5 7 23 7 41 1 36 -31 68 -66 67 -11 0 -75 -31 -140 -69z M4280 8948
c-23 -25 -26 -56 -7 -81 15 -21 241 -146 274 -152 17 -3 33 4 49 20 28 29 31
55 7 83 -24 28 -254 152 -281 152 -12 0 -30 -10 -42 -22z M8775 8834 c-118
-26 -243 -73 -403 -150 -382 -184 -778 -459 -1252 -872 -179 -156 -627 -602
-779 -777 l-113 -129 23 -16 c13 -8 33 -24 46 -36 21 -20 32 -21 175 -18 97 1
179 -3 223 -11 l70 -13 200 201 c316 318 463 457 705 663 449 385 862 652
1048 679 80 12 132 -23 132 -88 0 -320 -869 -1399 -1740 -2161 -69 -60 -138
-121 -155 -135 -149 -130 -404 -325 -574 -438 -265 -177 -574 -494 -728 -750
l-32 -51 57 -44 c77 -61 223 -157 302 -200 135 -74 157 -85 250 -125 205 -90
460 -165 635 -189 28 -3 59 -8 70 -10 11 -2 45 -6 75 -10 30 -3 73 -7 95 -9
52 -6 369 -6 420 0 173 18 203 23 400 61 66 12 281 80 382 120 735 289 1297
876 1557 1623 42 121 88 293 102 381 3 19 7 42 9 50 2 8 7 38 10 65 4 28 8 61
11 75 7 41 18 248 18 335 0 86 -11 276 -18 311 -2 12 -7 45 -11 75 -59 476
-313 1025 -642 1390 -172 190 -209 210 -383 215 -78 3 -137 -1 -185 -12z
M1155 8816 c-70 -22 -103 -45 -181 -124 -347 -353 -613 -863 -699 -1337 -7
-43 -24 -144 -30 -185 -23 -161 -24 -519 -1 -660 3 -14 7 -47 11 -75 3 -27 18
-104 31 -170 199 -941 872 -1693 1792 -2001 94 -31 259 -75 332 -88 128 -22
150 -25 210 -31 30 -4 73 -8 95 -10 52 -6 368 -6 420 0 22 2 68 7 103 10 35 4
71 8 80 10 9 1 37 6 62 10 342 56 696 191 1003 384 l58 36 -5 50 c-3 28 -8 61
-10 75 -3 14 -7 43 -11 65 -13 90 -64 215 -124 304 -21 31 -121 137 -221 236
-220 217 -194 194 -255 235 -189 127 -579 445 -805 656 -30 28 -93 86 -140
130 -696 649 -1367 1493 -1454 1829 -19 70 -20 96 -5 128 49 109 310 9 694
-264 111 -78 317 -238 394 -304 14 -12 64 -55 111 -95 172 -146 353 -315 559
-521 115 -114 163 -164 344 -357 l59 -63 101 50 c108 52 177 77 242 87 22 3
47 8 55 9 8 2 28 4 44 4 l28 1 -38 48 c-21 26 -43 52 -49 58 -5 6 -37 42 -70
80 -116 133 -181 201 -380 399 -193 194 -242 240 -391 371 -624 550 -1245 931
-1659 1018 -83 17 -246 18 -300 2z M3641 8802 c-31 -28 -141 -240 -141 -272 0
-57 68 -92 102 -52 29 33 148 257 148 277 0 44 -75 76 -109 47z M4132 8803
c-7 -3 -19 -17 -26 -32 -17 -32 -11 -47 73 -201 57 -103 72 -120 108 -120 46
0 84 74 54 106 -5 5 -30 50 -56 99 -76 143 -101 168 -153 148z M3894 8727
c-10 -6 -22 -15 -26 -21 -4 -6 -8 -76 -8 -156 0 -164 8 -190 60 -190 54 0 65
29 64 176 -1 72 -4 142 -7 156 -8 32 -54 51 -83 35z M4986 7891 c-35 -37 -31
-52 43 -147 69 -89 87 -99 130 -73 29 18 36 33 31 69 -1 8 -25 44 -52 80 -87
111 -105 120 -152 71z M5449 7838 c-86 -61 -139 -110 -139 -128 0 -24 35 -66
60 -73 15 -4 43 12 100 54 90 68 110 92 103 120 -6 22 -49 59 -68 59 -7 0 -32
-14 -56 -32z M5207 7632 c-31 -34 -20 -74 25 -91 36 -13 71 13 71 54 0 50 -63
74 -96 37z M5005 7488 c-87 -67 -95 -74 -95 -101 0 -25 44 -67 71 -67 27 0
185 123 192 150 7 27 -37 80 -66 80 -12 0 -58 -28 -102 -62z M5305 7495 c-13
-15 -22 -36 -21 -49 2 -13 31 -60 66 -105 69 -90 97 -102 138 -58 33 35 27 58
-34 138 -84 110 -105 121 -149 74z M4788 6795 c-2 -2 -28 -5 -58 -9 -142 -15
-335 -73 -464 -138 l-59 -30 -54 17 c-111 35 -246 7 -428 -89 -237 -125 -289
-174 -292 -276 -2 -71 21 -114 93 -176 59 -50 130 -111 150 -129 6 -5 49 -44
95 -85 233 -209 616 -586 670 -660 93 -127 165 -298 184 -435 3 -23 7 -52 10
-65 3 -13 7 -42 10 -65 3 -22 8 -47 10 -55 2 -8 7 -46 11 -85 3 -38 8 -79 10
-90 6 -29 5 -274 -2 -315 -12 -83 -28 -153 -65 -283 -75 -268 -106 -491 -84
-607 12 -65 67 -163 121 -216 207 -204 552 -146 683 113 51 101 56 185 25 393
-5 28 -50 252 -70 345 -27 124 -24 413 5 555 40 189 112 353 221 505 243 337
634 703 1227 1148 156 117 175 135 197 181 79 168 -44 327 -295 382 -33 7
-197 7 -239 0 -19 -4 -59 -11 -88 -17 l-53 -11 -41 47 c-60 68 -137 112 -233
133 -42 10 -280 9 -340 -1 -89 -14 -178 -37 -286 -72 l-106 -36 -59 36 c-58
35 -156 71 -224 81 -35 6 -178 12 -182 9z m851 -625 c5 0 16 -21 26 -47 22
-56 76 -118 125 -143 20 -10 65 -24 101 -30 35 -7 74 -14 86 -16 26 -5 41 -48
26 -73 -22 -35 -153 -22 -250 25 -91 45 -155 122 -182 219 -10 36 -9 42 11 58
12 10 28 15 35 12 8 -3 18 -5 22 -5z m-1014 -91 c16 -48 -74 -110 -200 -137
-43 -10 -315 -6 -350 5 -36 11 -58 49 -44 74 13 26 42 32 90 19 120 -32 299
-11 402 49 41 24 54 27 73 18 13 -5 26 -18 29 -28z m690 -701 c46 -21 33 -52
-50 -117 -35 -28 -80 -68 -102 -91 -86 -92 -149 -232 -154 -340 -2 -39 -8 -55
-23 -66 -27 -19 -42 -18 -65 5 -19 19 -20 34 -6 139 19 141 137 322 282 431
73 55 79 57 118 39z M8904 3677 c-10 -6 -22 -15 -26 -21 -4 -6 -8 -79 -8 -162
0 -134 2 -153 18 -167 24 -22 65 -21 85 1 14 16 17 43 17 169 0 138 -2 151
-20 168 -26 23 -41 26 -66 12z M9263 3589 c-26 -10 -47 -40 -117 -171 -64
-121 -67 -150 -13 -173 38 -16 66 -5 89 36 20 34 95 171 115 209 17 32 16 51
-2 77 -17 25 -43 33 -72 22z M8517 3572 c-9 -10 -17 -28 -17 -41 0 -12 32 -80
70 -150 58 -106 76 -131 101 -140 25 -8 33 -7 55 13 16 13 27 33 27 47 0 26
-125 263 -145 275 -26 17 -74 15 -91 -4z M1491 3493 c-15 -308 -281 -582 -591
-610 -93 -8 -98 -18 -15 -28 268 -33 473 -189 565 -426 27 -70 46 -169 43
-222 0 -10 4 -16 10 -14 6 2 12 25 14 53 14 181 122 375 267 479 111 79 254
131 369 134 15 1 27 5 27 10 0 5 -35 11 -77 13 -142 9 -260 67 -384 188 -123
121 -205 301 -202 443 1 49 -23 30 -26 -20z M6760 3353 c-102 -34 -176 -115
-204 -224 -37 -147 34 -289 178 -355 99 -45 205 -34 303 32 194 132 164 431
-53 531 -69 31 -160 38 -224 16z m172 -156 c52 -22 90 -76 90 -129 -1 -132
-111 -212 -228 -163 -63 26 -94 72 -94 140 1 129 112 202 232 152z M8244 3305
c-20 -20 -24 -32 -20 -53 8 -32 20 -41 135 -105 153 -85 170 -89 211 -45 36
39 16 72 -78 124 -37 20 -92 51 -122 68 -73 41 -94 42 -126 11z M9406 3260
c-72 -39 -133 -76 -138 -82 -25 -41 12 -111 56 -105 12 1 78 33 148 71 134 72
155 94 137 144 -7 19 -45 42 -67 42 -4 0 -65 -32 -136 -70z M8863 3179 c-174
-32 -269 -229 -190 -392 75 -153 265 -200 407 -102 74 51 121 156 113 253 -12
154 -171 270 -330 241z m126 -147 c117 -63 80 -247 -54 -265 -113 -15 -194
108 -140 213 34 65 124 89 194 52z M8172 2950 c-25 -24 -28 -48 -8 -76 13 -17
31 -20 163 -24 158 -5 188 0 197 34 9 35 7 44 -16 66 -20 18 -35 20 -168 20
-133 0 -148 -2 -168 -20z M9340 2950 c-25 -25 -26 -62 -1 -84 17 -15 41 -18
158 -18 157 -1 175 3 191 38 17 36 15 51 -10 68 -18 13 -53 16 -170 16 -135 0
-150 -2 -168 -20z M8498 2733 c-10 -3 -18 -9 -18 -14 0 -6 -3 -8 -7 -6 -13 7
-207 -109 -227 -136 -29 -40 0 -97 50 -97 26 0 273 133 286 153 32 51 -22 114
-84 100z M9289 2726 c-13 -6 -29 -22 -35 -35 -18 -36 1 -67 60 -100 136 -76
206 -111 223 -111 27 0 63 41 63 72 0 33 -15 45 -145 114 -139 75 -138 74
-166 60z M8643 2548 c-32 -36 -143 -246 -143 -272 0 -24 31 -58 57 -62 28 -4
59 17 79 54 10 20 41 77 68 125 54 98 59 132 26 159 -30 24 -62 23 -87 -4z
M9101 2544 c-31 -39 -34 -26 56 -194 60 -111 74 -130 99 -136 31 -8 72 18 80
51 6 23 -1 38 -108 235 -40 73 -91 90 -127 44z M8880 2490 c-21 -21 -22 -25
-20 -215 0 -99 3 -112 21 -127 28 -23 54 -23 79 2 18 18 20 33 20 174 0 149
-1 155 -22 170 -30 21 -54 20 -78 -4z M5362 2175 c-61 -51 -146 -258 -176
-430 -3 -16 -8 -41 -11 -55 -4 -14 -8 -59 -10 -100 -4 -64 -1 -84 19 -125 43
-94 121 -147 219 -151 149 -7 255 90 265 240 8 123 -46 353 -118 501 -68 141
-122 176 -188 120z M2771 2064 c-12 -15 -21 -34 -21 -42 0 -14 93 -144 128
-178 33 -33 102 5 102 55 0 13 -28 59 -66 107 -55 71 -70 84 -94 84 -19 0 -35
-9 -49 -26z M3189 1974 c-85 -65 -99 -80 -99 -109 0 -27 39 -65 67 -65 11 0
59 30 107 66 95 74 107 101 63 142 -35 33 -58 27 -138 -34z M7687 1863 c-3 -4
-8 -34 -11 -65 -31 -267 -201 -479 -453 -564 -41 -14 -102 -27 -136 -31 -59
-5 -104 -23 -61 -23 86 -2 205 -33 294 -77 56 -28 96 -59 160 -123 125 -125
177 -233 196 -410 4 -30 8 -57 10 -59 8 -8 12 5 18 59 12 113 32 176 84 270
46 84 168 206 252 253 89 48 219 85 308 87 39 0 14 20 -26 20 -63 0 -163 29
-252 72 -119 58 -239 177 -297 298 -44 91 -60 146 -69 238 -7 61 -9 68 -17 55z
M3010 1812 c-60 -19 -46 -112 18 -112 54 0 73 79 25 103 -16 8 -35 12 -43 9z
M2870 1722 c-8 -3 -52 -34 -97 -69 -93 -71 -102 -93 -58 -138 33 -32 43 -31
92 3 111 77 143 106 143 132 -1 42 -47 83 -80 72z M3130 1692 c-27 -9 -60 -45
-60 -67 0 -21 107 -170 133 -187 33 -21 97 19 97 60 0 21 -122 187 -143 195
-7 2 -19 2 -27 -1z M4645 1349 c-49 -43 -116 -185 -159 -334 -19 -66 -37 -136
-40 -155 -3 -19 -8 -46 -11 -60 -49 -234 0 -372 159 -446 67 -31 180 -29 243
4 102 53 163 143 168 250 7 151 -75 477 -162 645 -66 125 -130 156 -198 96z
M1076 1143 c-180 -54 -275 -264 -195 -430 74 -152 265 -221 412 -149 171 83
231 307 125 459 -75 108 -217 158 -342 120z m183 -159 c48 -29 66 -64 66 -129
-1 -70 -20 -109 -70 -144 -91 -62 -241 8 -250 117 -11 144 129 230 254 156z"/>
</g>
</svg>
