<svg viewBox="0 0 512 512" xmlns="http://www.w3.org/2000/svg"><g><path fill="currentColor" d="m256 91c-90.967 0-165 74.019-165 165s74.033 165 165 165 165-74.019 165-165-74.033-165-165-165zm75 90h-45.029c6.55 8.707 11.089 18.944 13.35 30h31.679v30h-31.644c-5.995 29.299-29 52.484-58.297 58.477l56.396 66.855-22.91 19.336-96.768-114.668h48.223c19.53 0 36.024-12.578 42.237-30h-87.237v-30h87.237c-6.213-17.422-22.707-30-42.237-30h-45v-30h150z"/><path fill="currentColor" d="m256 0c-140.596 0-256 115.39-256 256s115.404 256 256 256 256-115.39 256-256-115.404-256-256-256zm0 451c-107.52 0-195-87.48-195-195s87.48-195 195-195 195 87.48 195 195-87.48 195-195 195z"/></g></svg>