<svg xmlns="http://www.w3.org/2000/svg" viewBox="0 0 1024 1024">
<g transform="translate(0,1024) scale(0.1,-0.1)">
<path fill="currentColor" d="M583 9343 c-75 -61 -105 -94 -157 -173 -80 -122 -115 -246 -110 -387
5 -152 45 -260 157 -427 l65 -99 54 50 c70 65 131 106 226 150 42 20 78 37 80
38 1 1 -22 53 -52 116 -86 182 -155 412 -173 578 -3 31 -7 63 -9 71 -1 8 -3
41 -3 73 -1 31 -5 57 -11 57 -5 0 -35 -21 -67 -47z M2709 9373 c0 -10 -2 -34
-4 -53 -2 -19 -6 -62 -9 -95 -3 -33 -8 -71 -11 -85 -29 -147 -43 -202 -77
-305 -22 -66 -63 -169 -92 -229 l-52 -108 63 -29 c62 -28 182 -101 214 -130 8
-8 31 -29 51 -47 l36 -34 65 99 c85 129 112 184 135 277 67 258 -27 533 -241
706 -68 55 -77 59 -78 33z M1053 8186 c-182 -46 -324 -185 -379 -371 -31 -108
-20 -320 28 -545 16 -76 237 -764 279 -872 l11 -26 45 28 c105 67 274 98 406
76 59 -10 155 -44 198 -71 l38 -25 63 34 c167 91 373 92 552 2 l83 -42 131
396 c135 405 162 499 178 620 3 25 8 54 10 65 11 49 12 285 3 330 -40 186
-196 350 -379 397 -77 20 -184 22 -255 3 -33 -8 -133 -51 -223 -95 l-163 -80
-147 74 c-81 40 -169 81 -197 91 -65 22 -214 29 -282 11z m717 -352 c44 -27
73 -72 78 -125 9 -91 -36 -159 -119 -183 -156 -45 -280 134 -182 263 51 67
151 87 223 45z m-520 -339 c115 -60 115 -241 -1 -300 -115 -60 -249 24 -249
155 0 123 138 203 250 145z m1036 -6 c79 -48 103 -159 52 -236 -71 -108 -239
-100 -293 14 -34 71 -23 142 32 198 54 56 142 66 209 24z M14 7827 c41 -98
129 -194 225 -246 32 -17 63 -31 68 -31 4 0 8 48 8 108 0 59 3 128 7 155 l8
47 -165 0 -165 0 14 -33z M3041 7818 c4 -24 7 -94 6 -156 l-2 -113 24 6 c82
21 218 143 264 237 15 31 27 59 27 62 0 3 -74 6 -164 6 l-163 0 8 -42z M4478
7515 c-2 -1 -32 -5 -68 -9 -177 -16 -250 -40 -819 -267 -289 -116 -529 -214
-533 -218 -4 -3 -2 -18 6 -32 79 -152 198 -499 230 -669 2 -14 9 -45 14 -70 6
-25 13 -63 16 -84 4 -21 8 -48 11 -60 5 -22 10 -58 20 -141 4 -27 8 -61 10
-74 3 -14 7 -66 11 -115 7 -88 11 -137 13 -145 1 -3 46 56 102 130 55 74 104
135 109 137 7 3 222 -151 264 -189 5 -4 -59 -99 -143 -211 -218 -292 -285
-440 -318 -698 -12 -94 -6 -280 11 -355 19 -87 28 -119 49 -180 67 -195 156
-323 388 -560 204 -208 253 -264 324 -374 91 -140 184 -367 214 -521 5 -30 13
-71 17 -90 4 -19 9 -294 11 -610 2 -316 6 -577 9 -579 6 -7 273 -8 282 -1 8 6
8 4 17 79 4 30 8 62 10 71 2 9 6 41 10 71 15 115 57 247 179 552 160 402 184
489 180 662 -4 200 -34 298 -193 621 l-128 261 152 76 153 76 126 -254 c110
-220 160 -344 202 -494 7 -23 377 -10 476 17 182 49 312 124 467 266 105 97
183 156 286 214 130 73 327 141 460 157 73 9 97 14 102 19 4 3 -25 157 -30
162 -1 1 -44 30 -95 64 -378 252 -605 675 -606 1130 0 84 11 196 25 257 6 26
13 59 15 73 11 55 58 180 99 262 33 66 173 291 226 361 4 5 70 -34 148 -86
l142 -94 -90 -136 c-50 -75 -102 -159 -116 -187 -30 -60 -80 -207 -92 -270 -9
-53 -11 -312 -2 -355 46 -213 131 -382 266 -524 62 -65 78 -73 80 -41 12 150
120 447 221 604 24 37 283 388 303 410 5 5 67 -35 144 -93 l136 -102 -24 -32
c-286 -379 -334 -455 -391 -627 -33 -102 -38 -122 -56 -240 -11 -78 -4 -272
14 -362 34 -174 117 -364 219 -500 23 -31 126 -141 228 -245 101 -103 205
-215 230 -248 105 -137 185 -287 242 -450 30 -88 41 -129 62 -235 5 -27 14
-93 20 -150 2 -19 4 -195 4 -390 l1 -355 145 0 c80 0 145 1 145 2 0 2 7 49 16
106 8 56 18 120 21 142 14 101 61 245 181 545 118 298 159 420 164 492 4 44
10 23 14 -43 9 -161 95 -321 229 -425 22 -18 95 -59 163 -93 l122 -61 93 46
c189 95 274 166 343 290 102 183 93 429 -21 602 -54 80 -91 118 -168 169 l-68
45 5 42 c3 22 8 68 11 101 4 33 8 70 10 83 2 13 7 53 10 90 4 37 8 77 10 90 2
13 7 53 10 90 4 37 8 77 10 90 2 13 7 53 10 90 4 37 8 77 10 90 2 13 7 53 10
90 4 37 8 77 10 90 2 13 7 53 10 90 4 37 8 77 10 90 2 13 7 53 10 90 4 37 9
78 11 92 9 46 12 354 4 415 -13 99 -21 149 -26 167 -5 16 -10 37 -19 84 -34
160 -158 414 -286 583 -101 135 -268 296 -231 224 9 -17 15 -44 28 -127 3 -21
7 -47 9 -57 10 -53 18 -168 19 -274 1 -116 3 -122 37 -195 95 -198 133 -366
133 -590 0 -91 -9 -228 -19 -279 -1 -9 -6 -47 -9 -86 -4 -38 -9 -81 -11 -95
-2 -14 -6 -52 -10 -85 -6 -60 -12 -119 -20 -185 -2 -19 -7 -62 -10 -95 -4 -33
-8 -71 -10 -85 -2 -14 -7 -56 -11 -95 -3 -38 -8 -77 -9 -85 -2 -8 -6 -49 -10
-90 -4 -41 -8 -82 -10 -90 -2 -8 -6 -48 -10 -87 -4 -40 -8 -81 -10 -90 -2 -10
-4 -32 -4 -49 -1 -28 -9 -36 -63 -68 -75 -44 -111 -76 -170 -148 -41 -50 -93
-152 -104 -201 -3 -12 -8 -40 -13 -62 -7 -34 -8 -27 -8 40 -2 183 -31 302
-121 495 -57 124 -100 256 -127 396 -19 99 -25 314 -12 439 4 39 55 284 113
545 58 261 107 484 110 495 2 11 6 31 9 45 3 14 8 48 11 75 3 28 8 61 10 75 5
33 5 288 0 320 -3 14 -7 47 -11 74 -19 150 -76 336 -150 490 -232 479 -686
827 -1205 922 -14 3 -36 7 -50 10 -92 17 -297 22 -480 11 -131 -8 -182 -13
-380 -43 -28 -4 -147 -30 -230 -49 -136 -31 -348 -99 -510 -163 -284 -112
-567 -103 -835 28 -109 52 -163 90 -275 190 -121 108 -209 158 -337 191 -62
16 -254 33 -265 24z m837 -1408 c52 -110 98 -244 110 -324 3 -21 8 -50 11 -63
16 -72 11 -266 -10 -400 -15 -95 -64 -237 -126 -365 l-41 -84 -153 77 -153 76
48 100 c138 291 138 563 0 847 l-49 100 147 74 c80 41 150 74 154 74 5 1 33
-50 62 -112z M2828 6644 c-3 -5 -51 -147 -107 -315 -90 -271 -100 -309 -91
-335 24 -61 60 -230 67 -313 15 -163 8 -623 -12 -743 -2 -13 -6 -45 -10 -73
-3 -27 -8 -59 -10 -70 -3 -11 -7 -37 -10 -58 -26 -187 -119 -489 -204 -662
-106 -216 -168 -278 -268 -269 -83 7 -131 55 -220 224 -101 191 -205 535 -239
795 -3 28 -8 57 -9 66 -3 16 -17 154 -19 196 -2 30 -2 30 -76 36 -85 8 -111
13 -195 38 -38 12 -72 19 -74 18 -5 -4 -2 -107 4 -154 2 -16 7 -61 10 -98 4
-37 8 -76 10 -85 1 -9 6 -42 10 -72 7 -55 10 -74 20 -120 2 -14 7 -38 10 -55
10 -61 65 -273 93 -360 133 -407 323 -683 545 -793 71 -35 182 -40 258 -11
263 100 507 494 636 1028 30 127 29 120 50 241 3 19 7 43 9 54 2 10 6 44 10
75 3 31 8 65 10 76 19 100 26 659 11 829 -25 278 -83 572 -157 796 -35 106
-45 127 -52 114z M1287 6138 c-54 -11 -86 -31 -135 -81 l-44 -45 37 -108 c49
-144 86 -212 149 -274 118 -117 232 -164 391 -164 106 0 159 14 257 66 76 40
173 134 211 206 30 55 97 244 97 273 0 23 -73 87 -128 112 -62 27 -145 26
-203 -3 -24 -12 -88 -65 -141 -118 l-97 -96 -108 106 c-69 67 -121 109 -143
116 -52 16 -100 20 -143 10z M2320 5394 c-63 -64 -154 -131 -228 -168 l-63
-31 6 -75 c9 -121 27 -261 49 -385 18 -99 85 -337 105 -373 19 -34 120 337
145 533 3 22 8 58 10 80 13 99 30 465 22 465 -1 0 -22 -21 -46 -46z M3171
4019 c-6 -13 -29 -69 -52 -124 -38 -93 -86 -188 -138 -276 l-21 -35 44 -50
c25 -27 107 -113 184 -191 77 -78 164 -170 193 -205 187 -224 316 -530 345
-818 5 -41 8 -236 9 -432 0 -197 2 -359 5 -359 19 -5 323 -3 331 2 11 6 8
1096 -3 1134 -3 11 -9 40 -13 65 -18 111 -94 301 -167 415 -50 79 -130 170
-310 354 -194 197 -269 295 -351 455 -43 84 -46 88 -56 65z M7125 3563 c-193
-35 -377 -130 -531 -275 -48 -45 -50 -50 -31 -70 96 -100 193 -240 261 -377
43 -85 108 -260 120 -321 2 -14 9 -45 14 -70 11 -48 23 -137 28 -210 1 -25 3
-196 3 -380 l1 -335 145 0 c90 0 145 4 146 10 0 5 2 19 4 30 2 11 7 40 10 65
3 25 8 56 10 70 2 14 6 45 10 70 16 111 55 227 176 531 71 179 139 362 150
405 25 93 34 320 17 421 -10 56 -16 68 -70 125 -71 76 -151 181 -202 266 l-38
63 -78 -3 c-42 -1 -108 -8 -145 -15z M3518 1060 c-117 -115 -127 -128 -122
-155 9 -58 30 -65 195 -65 l148 0 0 73 c0 90 39 204 86 251 19 18 26 17 -95
20 l-85 2 -127 -126z M4322 1179 c-9 -4 -68 -59 -129 -121 -95 -96 -113 -120
-113 -146 0 -21 8 -37 27 -52 25 -20 38 -21 212 -20 145 1 192 5 216 17 41 21
64 43 81 75 16 30 49 237 39 246 -8 8 -312 9 -333 1z M6773 1066 c-67 -65
-124 -128 -125 -140 -5 -30 10 -62 36 -76 16 -8 79 -11 213 -8 186 3 190 4
230 30 22 14 47 41 56 60 16 34 20 52 32 138 4 25 9 60 11 78 3 17 2 32 -3 33
-4 1 -80 2 -168 3 l-160 2 -122 -120z M8313 1066 c-108 -105 -123 -124 -123
-153 0 -20 8 -40 22 -53 21 -20 33 -21 215 -20 l192 2 43 27 c25 16 52 43 61
63 16 34 20 52 32 138 4 25 9 60 11 78 3 17 2 32 -3 33 -4 1 -80 2 -168 3
l-160 2 -122 -120z"/>
</g>
</svg>
