<svg xmlns="http://www.w3.org/2000/svg" viewBox="0 0 1024 1024">
<g transform="translate(0,1024) scale(0.1,-0.1)">
<path fill="currentColor" d="M3811 10218 c-72 -27 -142 -97 -169 -169 -17 -45 -20 -70 -17 -154 6
-162 58 -318 151 -456 46 -68 172 -194 242 -241 l52 -35 -21 -19 c-37 -33
-157 -198 -225 -310 -124 -205 -409 -807 -423 -894 -15 -96 21 -190 110 -285
256 -273 447 -654 599 -1194 27 -96 51 -175 53 -177 2 -2 34 5 73 16 38 10 85
22 104 26 57 13 1455 14 1529 2 36 -5 96 -18 135 -28 39 -11 72 -18 73 -16 1
1 25 81 52 177 155 547 317 854 617 1170 88 93 114 152 110 249 -3 57 -12 85
-73 215 -38 83 -83 179 -99 215 -140 318 -300 598 -445 777 -33 40 -59 75 -59
77 0 2 24 21 52 42 116 83 216 195 281 315 35 62 75 168 83 219 3 14 7 32 10
40 3 8 7 59 10 113 3 79 0 107 -15 148 -75 197 -319 260 -479 124 -48 -41 -90
-121 -97 -185 -3 -25 -8 -63 -10 -85 -12 -100 -91 -197 -194 -236 -48 -18 -85
-19 -701 -19 -612 0 -653 1 -700 19 -127 48 -189 141 -204 306 -17 199 -218
324 -405 253z M2011 9018 c-72 -27 -142 -97 -169 -169 -17 -45 -20 -71 -17
-154 13 -372 274 -708 630 -814 98 -29 115 -32 242 -38 l112 -6 -2 64 c-2 88
9 182 32 259 23 84 165 396 302 668 l107 212 -592 -1 c-573 0 -593 -1 -645
-21z M7099 8828 c59 -117 151 -310 205 -428 116 -254 144 -353 145 -509 l1
-54 108 6 c344 18 631 210 778 520 73 156 103 376 64 478 -27 73 -81 133 -148
166 l-57 28 -601 3 -602 3 107 -213z M2788 7469 c-383 -389 -650 -826 -813
-1329 -33 -103 -76 -270 -90 -345 -4 -28 -8 -44 -20 -105 -2 -14 -7 -47 -11
-75 -3 -27 -8 -59 -10 -69 -25 -133 -25 -677 0 -813 2 -10 7 -43 11 -73 4 -30
9 -64 11 -75 2 -11 8 -45 14 -75 16 -86 16 -89 44 -200 105 -418 309 -849 563
-1191 137 -186 332 -395 486 -524 l47 -39 0 -702 0 -702 -74 -35 c-235 -112
-411 -311 -485 -550 -28 -92 -36 -146 -36 -252 0 -79 4 -97 28 -147 33 -67 93
-121 166 -149 48 -18 84 -19 703 -18 622 0 655 1 704 20 70 27 128 79 161 147
l28 57 3 852 2 852 48 -14 c85 -26 288 -67 397 -81 22 -3 51 -7 65 -10 153
-25 654 -25 788 1 10 2 43 6 73 10 30 4 56 8 59 10 3 2 26 6 51 9 25 3 107 21
182 40 l137 33 2 -851 3 -851 28 -57 c33 -67 93 -121 166 -149 48 -18 84 -19
703 -18 637 0 654 1 707 21 72 27 142 97 169 169 17 45 20 71 17 154 -12 330
-211 625 -521 772 l-74 35 0 702 0 703 42 33 c148 119 377 369 517 565 316
440 533 980 607 1510 3 28 8 58 10 67 19 109 26 544 11 718 -5 52 -10 97 -12
100 -1 3 -5 28 -9 55 -3 28 -8 60 -10 71 -2 12 -7 37 -10 55 -80 476 -301 979
-609 1387 -105 140 -348 412 -367 412 -4 0 -19 -27 -34 -60 -43 -93 -102 -178
-180 -260 -135 -141 -192 -221 -276 -388 -89 -177 -156 -373 -239 -690 l-50
-192 68 -91 c159 -210 235 -436 236 -694 0 -161 -5 -204 -40 -335 -53 -194
-160 -378 -309 -526 -181 -180 -346 -266 -651 -341 -44 -10 -1491 -14 -1550
-3 -27 5 -68 12 -89 15 -72 12 -216 64 -304 110 -303 157 -529 439 -612 763
-30 120 -31 128 -35 277 -7 276 67 506 235 734 l68 93 -39 151 c-117 450 -208
695 -340 914 -48 80 -144 208 -197 263 -50 52 -102 128 -141 204 l-41 80 -82
-85z M4439 5736 c-2 -2 -20 -7 -41 -10 -158 -25 -333 -159 -411 -316 -175
-348 16 -755 400 -857 15 -4 336 -8 713 -10 762 -3 751 -4 890 64 104 50 213
159 263 263 95 194 86 403 -24 586 -44 73 -148 170 -226 212 -134 71 -130 71
-884 71 -372 0 -678 -1 -680 -3z"/>
</g>
</svg>
