<svg xmlns="http://www.w3.org/2000/svg" viewBox="0 0 1024 1024">
<g transform="translate(0,1024) scale(0.1,-0.1)">
<path fill="currentColor" d="M3450 10221 c-88 -25 -106 -33 -186 -81 -338 -207 -635 -550 -804
-929 -154 -344 -211 -670 -190 -1079 3 -57 5 -61 20 -50 10 7 63 46 118 86
354 257 806 477 1262 615 l113 35 25 67 c43 120 107 219 211 328 88 91 145
197 169 312 11 54 7 209 -7 260 -54 194 -205 359 -386 420 -75 25 -82 26 -185
30 -70 3 -112 -1 -160 -14z M6438 10221 c-177 -48 -315 -162 -392 -325 -113
-238 -70 -479 124 -691 115 -126 178 -225 210 -331 l12 -41 102 -28 c461 -127
1021 -395 1357 -650 l57 -43 5 26 c7 32 1 377 -6 408 -3 12 -8 45 -12 75 -11
97 -56 279 -97 397 -154 450 -454 843 -830 1089 -94 62 -183 105 -244 119 -70
15 -219 12 -286 -5z M4889 8396 c-2 -2 -50 -7 -106 -10 -57 -4 -111 -9 -120
-10 -10 -2 -47 -7 -83 -11 -36 -4 -74 -9 -85 -11 -11 -2 -40 -7 -65 -10 -25
-3 -64 -10 -88 -15 -23 -5 -59 -12 -80 -15 -76 -11 -356 -85 -494 -130 -441
-144 -833 -351 -1148 -608 -102 -82 -282 -263 -360 -361 -154 -194 -274 -411
-345 -628 -24 -73 -45 -145 -48 -162 -3 -16 -10 -53 -16 -82 -33 -165 -36
-539 -6 -713 44 -259 40 -239 76 -376 78 -301 220 -677 404 -1069 26 -55 65
-138 87 -185 22 -47 53 -112 68 -145 15 -33 48 -103 73 -155 42 -90 128 -282
177 -398 12 -28 24 -52 25 -52 2 0 32 18 67 39 164 100 371 190 541 235 88 24
111 29 186 42 18 3 43 7 55 10 11 2 48 7 81 11 77 10 2766 10 2861 1 292 -30
610 -139 867 -296 37 -23 69 -42 71 -42 2 0 19 35 36 77 36 85 152 343 223
493 389 825 512 1139 602 1540 27 121 51 266 62 380 10 99 10 408 0 490 -45
367 -222 755 -477 1045 -341 388 -821 693 -1410 893 -194 66 -509 146 -660
168 -19 3 -46 7 -60 9 -14 3 -43 7 -65 11 -22 3 -50 7 -62 9 -12 2 -57 6 -100
10 -43 4 -89 9 -103 12 -29 5 -575 14 -581 9z m-836 -3030 c219 -107 218 -426
-1 -533 -195 -95 -421 40 -428 256 -8 228 224 378 429 277z m2400 0 c219 -107
218 -426 -1 -533 -195 -95 -421 40 -428 256 -8 228 224 378 429 277z M191
7178 c-72 -27 -142 -97 -169 -169 -18 -47 -20 -70 -17 -174 5 -133 7 -150 37
-280 96 -420 391 -795 778 -990 135 -68 296 -123 411 -140 l40 -6 -5 33 c-2
18 -8 56 -12 83 -3 28 -8 59 -10 69 -25 138 -24 714 1 756 1 3 6 28 9 55 6 43
15 85 32 158 2 9 6 25 8 35 32 142 108 347 186 502 22 44 40 82 40 85 0 3
-287 5 -637 4 -620 0 -640 -1 -692 -21z M8720 7195 c0 -3 18 -41 40 -85 78
-155 154 -360 186 -502 2 -10 6 -26 8 -35 17 -73 26 -115 32 -158 3 -27 8 -52
9 -55 10 -17 20 -202 20 -375 0 -203 -9 -332 -30 -455 -2 -14 -7 -44 -10 -68
l-6 -43 38 6 c63 9 214 53 283 81 455 184 789 566 903 1034 34 139 37 155 42
292 4 100 2 126 -14 169 -28 73 -82 133 -149 166 l-57 28 -647 3 c-357 1 -648
0 -648 -3z M3779 2996 c-2 -2 -26 -6 -54 -10 -27 -3 -61 -8 -75 -11 -14 -3
-41 -8 -60 -11 -77 -13 -248 -77 -358 -134 -376 -195 -660 -548 -762 -948 -37
-147 -45 -211 -45 -377 0 -165 7 -226 39 -360 146 -599 640 -1043 1259 -1133
70 -10 2715 -9 2795 1 85 10 272 60 352 92 453 187 781 558 900 1021 37 144
45 207 45 379 0 127 -4 180 -20 270 -82 449 -388 856 -801 1064 -136 68 -227
98 -454 147 -35 8 -2753 18 -2761 10z m874 -1230 c219 -107 218 -426 -1 -533
-195 -95 -421 40 -428 256 -8 228 224 378 429 277z m1200 0 c219 -107 218
-426 -1 -533 -195 -95 -421 40 -428 256 -8 228 224 378 429 277z"/>
</g>
</svg>
