<svg xmlns="http://www.w3.org/2000/svg" viewBox="0 0 1024 1024">
<g transform="translate(0,1024) scale(0.1,-0.1)">
<path fill="currentColor" d="M5989 9618 c0 -2 -3 -16 -5 -33 -29 -189 -102 -451 -140 -510 -27
-41 -73 -59 -142 -56 -50 2 -172 146 -331 391 -44 69 -82 122 -82 117 -12 -68
8 -137 90 -306 44 -91 89 -195 100 -231 75 -238 31 -477 -117 -640 -119 -132
-266 -174 -455 -131 -116 28 -201 26 -319 -4 -57 -15 -125 -39 -153 -55 -27
-16 -52 -30 -55 -31 -16 -9 -92 49 -109 83 -23 47 -20 74 21 223 16 61 32 119
34 130 2 11 6 31 9 45 3 14 8 36 10 50 25 120 25 330 1 424 -12 46 -16 86 -12
120 8 68 44 208 67 265 l19 46 -34 -38 c-63 -70 -146 -268 -174 -417 -20 -98
-22 -123 -27 -245 -14 -331 -13 -324 -46 -431 -44 -145 -144 -277 -279 -370
-92 -63 -139 -68 -236 -26 -91 40 -137 51 -176 45 -78 -12 -148 -57 -277 -177
-51 -48 -115 -96 -148 -113 -32 -16 -179 -65 -326 -108 -302 -90 -282 -76
-282 -190 0 -70 17 -118 51 -140 14 -9 65 -25 114 -36 118 -25 185 -51 261
-101 261 -168 450 -187 637 -62 57 38 98 45 136 24 45 -23 62 -87 37 -134 -18
-32 -126 -102 -206 -132 -84 -31 -133 -39 -243 -38 -72 1 -82 -1 -77 -15 13
-41 45 -202 52 -261 13 -118 7 -309 -13 -390 -17 -71 -51 -163 -84 -230 -114
-230 -153 -438 -127 -665 20 -178 112 -370 244 -510 46 -49 146 -135 158 -135
31 0 116 199 130 305 12 92 14 99 33 125 39 51 123 48 159 -6 14 -22 19 -93 9
-140 -2 -12 -7 -37 -10 -55 -16 -98 -80 -243 -152 -345 -85 -120 -198 -206
-366 -279 -118 -52 -160 -82 -199 -144 -37 -58 -51 -109 -53 -191 -3 -214 80
-429 286 -745 182 -279 218 -389 173 -525 -16 -48 -18 -151 -3 -165 3 -3 49
24 102 61 l97 66 -6 77 c-11 132 -32 204 -81 277 -39 60 -255 548 -306 693
-23 63 -26 160 -8 216 16 51 50 96 124 165 207 193 463 358 676 434 171 62
277 148 359 290 66 117 123 296 138 441 3 28 6 59 8 70 2 11 4 39 4 62 1 63
43 107 101 107 36 0 48 -6 72 -34 30 -32 30 -33 24 -124 -4 -50 -8 -102 -11
-116 -2 -14 -6 -41 -9 -60 -27 -170 -97 -362 -178 -486 -110 -170 -228 -261
-433 -335 -47 -17 -87 -35 -90 -40 -13 -20 185 -154 330 -223 78 -38 281 -109
340 -120 313 -58 503 -71 775 -50 290 21 459 2 715 -82 60 -20 129 -45 153
-55 24 -11 47 -19 50 -19 4 0 7 60 7 133 1 141 11 290 24 347 4 19 8 38 9 43
1 4 2 13 2 21 0 7 12 25 26 40 37 37 93 36 135 -2 28 -25 32 -34 31 -81 -1
-29 -4 -56 -6 -60 -17 -28 -26 -401 -13 -546 17 -193 71 -362 149 -471 18 -26
95 -95 171 -155 288 -229 589 -514 780 -741 67 -80 138 -215 136 -258 0 -3 5
-18 11 -35 7 -18 13 -111 16 -235 4 -228 13 -484 19 -545 16 -157 19 -174 46
-260 27 -87 26 -134 -5 -222 l-25 -72 142 5 c112 4 145 8 154 20 9 13 5 36
-22 112 -50 145 -66 203 -82 302 -8 48 -9 293 -2 660 4 236 1 272 -31 384 -37
131 -122 263 -225 351 -117 101 -213 258 -254 420 -19 77 -22 101 -25 215 -4
140 13 257 59 415 19 66 37 137 41 159 3 21 7 48 10 60 26 136 26 443 -1 591
-82 453 -393 786 -885 949 -224 75 -365 97 -635 101 -191 3 -239 7 -355 30
-14 3 -40 8 -58 11 -18 3 -68 16 -110 29 -248 75 -381 155 -567 338 -134 132
-195 176 -370 267 -66 35 -142 77 -170 93 -212 130 -391 363 -489 637 -30 83
-71 235 -80 296 -4 22 -8 51 -11 64 -3 14 -8 70 -11 125 -6 89 -4 105 14 140
36 72 85 100 187 108 68 5 135 25 185 56 82 50 184 162 248 274 l22 38 -101
-2 c-194 -3 -304 -38 -379 -119 -39 -42 -52 -50 -82 -50 -24 0 -44 8 -62 25
-24 22 -26 28 -14 43 71 91 201 142 403 157 210 16 197 14 365 51 229 51 454
139 625 244 230 141 435 360 550 589 68 137 142 371 161 511 3 25 8 53 9 62 8
38 23 288 18 288 -2 0 -3 -1 -4 -2z M2840 4799 c-117 -61 -259 -71 -390 -29
-233 75 -329 27 -334 -168 -2 -75 3 -124 31 -287 20 -116 77 -308 117 -390 53
-108 113 -169 223 -225 103 -53 121 -76 178 -228 15 -40 30 -72 35 -70 4 2 25
18 47 36 l40 33 -32 104 -31 103 -107 114 c-142 152 -211 240 -250 317 -28 58
-31 73 -31 155 -1 66 6 111 22 163 29 93 53 113 135 113 49 0 77 -8 158 -45
149 -67 203 -80 339 -80 98 0 175 19 200 51 10 11 7 18 -16 36 -59 44 -183
180 -230 251 l-49 74 -55 -28z M7650 4696 c0 -2 15 -36 34 -77 19 -41 43 -105
55 -144 l21 -70 76 -36 76 -36 -6 48 c-17 141 -87 258 -179 299 -38 18 -77 26
-77 16z M5931 3562 c18 -51 205 -425 264 -527 177 -306 264 -405 432 -488 174
-86 269 -153 388 -272 235 -236 400 -583 440 -925 3 -30 9 -68 11 -85 7 -44 7
-265 0 -303 -11 -58 -38 -115 -88 -190 l-48 -73 147 7 c82 4 156 7 165 6 27
-1 33 43 15 102 -14 47 -19 69 -32 135 -4 23 -12 84 -20 166 -6 63 -16 321
-20 540 -2 110 -8 214 -13 232 -31 98 -87 176 -247 342 -217 226 -371 366
-608 554 -81 64 -166 142 -190 173 -78 99 -147 261 -177 417 l-12 59 -82 38
c-77 36 -248 99 -308 114 -26 6 -27 5 -17 -22z"/>
</g>
</svg>
