<svg xmlns="http://www.w3.org/2000/svg" viewBox="0 0 1024 1024">
<g transform="translate(0,1024) scale(0.1,-0.1)">
<path fill="currentColor" d="M2493 9758 c-18 -5 -40 -19 -49 -33 -16 -24 -18 -90 -3 -130 4 -11 9
-40 13 -65 3 -25 8 -54 10 -65 4 -23 12 -86 22 -169 12 -111 6 -405 -10 -492
-2 -11 -7 -39 -11 -64 -11 -70 -12 -73 -36 -161 -25 -93 -87 -254 -117 -300
l-19 -30 -35 68 c-20 37 -39 82 -43 98 -5 17 -10 37 -12 45 -3 8 -6 67 -6 130
-1 63 -6 121 -10 128 -9 14 -57 39 -72 37 -80 -8 -99 -44 -99 -190 1 -163 43
-295 133 -415 23 -30 41 -57 41 -60 0 -13 -134 -151 -197 -202 -70 -58 -243
-171 -250 -164 -2 2 9 25 25 52 59 102 132 289 143 369 1 6 6 23 10 39 8 29
10 41 28 166 5 36 9 144 9 240 l1 175 49 36 c129 97 223 251 239 390 4 38 1
50 -19 73 -14 16 -37 29 -59 32 -54 9 -86 -24 -105 -106 -16 -70 -47 -130 -96
-186 -33 -38 -40 -37 -45 4 -25 191 -188 659 -251 715 -41 38 -114 19 -137
-36 -14 -35 -14 -36 27 -127 170 -373 249 -798 214 -1149 -8 -80 -23 -172 -30
-179 -7 -6 -86 79 -113 121 -35 55 -61 128 -73 204 -12 75 -28 99 -72 108 -63
14 -112 -30 -110 -98 7 -177 125 -390 272 -492 35 -24 40 -32 35 -54 -18 -71
-138 -273 -193 -323 -15 -14 -47 -33 -71 -42 -105 -41 -237 -143 -446 -346
-562 -546 -636 -615 -654 -612 -89 17 -146 -2 -181 -61 -50 -82 6 -196 102
-209 18 -3 37 -18 58 -46 44 -61 133 -128 235 -177 167 -81 305 -105 580 -102
l200 2 17 -95 c9 -52 19 -111 22 -130 3 -19 8 -46 11 -60 11 -54 35 -176 39
-195 29 -150 162 -619 231 -810 134 -374 328 -765 462 -933 131 -164 335 -313
618 -452 142 -69 287 -127 403 -160 49 -13 92 -32 104 -45 12 -13 129 -286
260 -606 l238 -584 -6 -109 c-3 -60 -7 -116 -9 -125 -1 -9 -6 -61 -10 -116 -3
-55 -8 -116 -10 -135 -2 -19 -6 -73 -10 -120 -3 -47 -8 -101 -10 -120 -2 -19
-6 -71 -10 -115 -6 -82 -12 -149 -20 -245 -3 -30 -7 -86 -10 -125 -3 -38 -8
-90 -10 -115 -3 -25 -7 -83 -11 -130 -10 -150 -10 -149 -40 -172 -148 -114
-245 -259 -214 -318 10 -19 21 -20 208 -20 260 0 256 -2 370 170 138 207 129
187 157 370 8 54 18 116 20 131 2 9 6 40 10 70 3 30 8 61 10 69 2 8 7 35 10
60 3 25 10 72 15 105 5 33 12 78 15 100 3 22 8 51 10 65 5 27 8 45 25 165 7
44 13 87 15 95 1 8 6 37 9 63 4 27 9 57 11 66 2 10 6 42 10 72 3 30 8 61 10
69 2 8 7 35 10 60 3 25 10 72 15 105 9 62 15 131 25 275 3 47 7 114 10 150 2
36 7 103 10 150 22 339 26 385 38 398 8 10 30 11 96 5 159 -15 655 -8 856 11
17 2 66 6 110 10 44 4 96 9 115 11 19 2 64 7 100 10 36 4 76 8 90 10 14 2 54
6 90 10 36 4 76 8 90 10 14 2 54 7 90 10 36 4 72 8 80 10 8 2 44 6 80 10 36 4
72 8 80 10 8 1 46 6 83 10 37 3 76 8 85 10 9 1 55 6 102 10 47 4 92 8 100 10
8 2 53 6 100 10 47 3 96 8 110 10 14 2 63 7 110 10 47 4 92 8 100 10 8 2 58 6
110 10 52 4 102 8 110 10 8 1 56 6 105 9 50 4 101 9 115 11 14 2 61 6 104 10
l79 7 91 -94 c50 -52 123 -128 161 -169 150 -161 289 -311 308 -332 10 -12 37
-42 60 -67 36 -39 124 -137 231 -257 75 -84 179 -222 196 -258 34 -74 43 -157
37 -313 -8 -163 -8 -170 -43 -362 -45 -248 -200 -825 -232 -862 -8 -9 -27 -20
-43 -23 -31 -7 -110 -63 -141 -99 -27 -32 -66 -117 -72 -155 -10 -73 -16 -71
280 -71 277 0 309 4 357 48 28 25 176 325 183 369 3 21 9 63 14 93 5 30 12 73
15 95 3 22 10 65 15 95 5 30 12 73 15 95 3 22 10 65 15 95 5 30 11 69 14 85 9
63 18 121 22 140 2 10 6 37 9 60 3 22 8 51 10 65 5 25 12 68 19 118 12 75 19
119 22 137 2 10 6 37 9 60 3 22 8 51 10 65 3 14 7 39 9 55 2 17 7 49 11 72 9
56 9 176 0 233 -4 25 -20 99 -35 165 -30 123 -65 290 -75 359 -4 21 -8 47 -10
58 -3 11 -7 46 -11 77 -3 31 -8 65 -11 76 -10 45 -12 373 -2 425 6 30 32 105
59 166 86 198 147 416 166 594 4 36 7 70 8 75 3 20 22 13 57 -20 132 -122 383
-239 509 -238 78 1 150 34 204 94 65 72 77 117 71 263 -2 67 -7 137 -10 156
-91 568 -422 933 -980 1080 -95 25 -138 34 -263 55 -27 5 -35 10 -114 84 -195
183 -499 334 -820 405 -132 29 -154 33 -228 42 -30 3 -63 8 -72 9 -137 26
-697 26 -893 0 -16 -2 -55 -7 -86 -10 -31 -3 -65 -7 -75 -9 -11 -2 -44 -7 -75
-10 -31 -4 -67 -9 -80 -11 -13 -3 -44 -8 -69 -11 -25 -3 -52 -7 -60 -9 -8 -2
-31 -7 -50 -10 -19 -3 -46 -8 -60 -10 -53 -11 -76 -15 -104 -21 -16 -3 -93
-18 -170 -35 -78 -17 -168 -33 -201 -37 -122 -14 -612 -5 -727 13 -13 2 -53 6
-90 10 -37 3 -77 8 -90 10 -21 3 -41 6 -165 21 -27 3 -75 9 -108 14 -33 5 -78
12 -100 15 -35 5 -212 35 -300 50 -27 5 -84 16 -155 30 -14 3 -40 8 -59 11
-201 33 -547 232 -906 519 -249 199 -470 415 -564 552 l-22 32 25 48 c83 164
83 342 0 508 -60 122 -147 201 -234 213 -13 2 -26 5 -28 7 -2 2 13 22 34 45
126 136 245 344 309 540 20 63 39 126 41 140 3 14 7 33 10 42 3 10 7 30 10 45
10 63 14 69 51 82 66 23 156 83 214 142 57 59 118 159 125 207 6 42 -28 90
-71 98 -47 9 -78 -13 -111 -77 -30 -60 -92 -130 -139 -158 l-33 -19 1 131 c0
119 -8 280 -18 339 -2 13 -6 41 -10 63 -3 22 -8 56 -11 75 -11 71 -35 164 -46
177 -23 28 -62 40 -95 31z m-1250 -2640 c46 -24 58 -63 36 -112 -22 -47 -93
-57 -131 -18 -67 67 12 175 95 130z m512 -951 c61 -22 104 -51 163 -109 162
-160 312 -516 358 -848 3 -25 8 -54 10 -64 19 -102 27 -682 11 -896 -12 -179
-18 -254 -22 -275 -2 -11 -4 -24 -4 -29 -1 -14 -89 123 -159 246 -175 310
-327 698 -452 1158 -28 101 -52 194 -54 205 -2 11 -14 65 -26 120 -29 134 -29
136 -35 170 -3 17 -12 66 -20 110 -8 44 -17 95 -20 113 -3 17 -7 46 -10 62 -3
17 -2 30 2 30 5 1 31 7 58 14 60 16 145 13 200 -7z m5679 -531 c104 -43 63
-136 -62 -142 -46 -2 -70 2 -103 19 -78 40 -78 74 1 115 51 25 115 29 164 8z
m-1200 -112 c14 -9 26 -19 27 -23 0 -3 2 -14 4 -24 5 -26 -34 -66 -80 -82 -76
-26 -184 -4 -202 41 -13 34 39 85 105 104 41 11 118 3 146 -16z m-1212 -112
c15 -6 35 -23 44 -38 16 -24 16 -29 3 -53 -41 -74 -220 -78 -279 -6 -21 26
-20 41 5 65 47 45 159 60 227 32z m3257 -77 c18 -9 37 -28 44 -42 10 -23 8
-28 -16 -49 -16 -13 -36 -24 -45 -25 -9 -1 -29 -2 -44 -3 -38 -4 -100 19 -120
45 -27 32 -22 57 15 80 38 24 114 21 166 -6z m-1402 -222 c38 -28 39 -78 1
-106 -33 -25 -122 -34 -171 -18 -47 16 -87 48 -87 70 0 22 36 55 75 69 48 18
150 10 182 -15z m920 -132 c98 -49 65 -139 -55 -147 -100 -6 -212 71 -182 126
6 11 12 20 13 20 1 0 20 7 42 14 51 19 133 13 182 -13z m-2089 -68 c108 -54
82 -153 -46 -172 -117 -17 -258 52 -238 117 22 67 193 100 284 55z M2395 3430
c-13 -21 89 -171 290 -429 174 -223 195 -258 265 -431 34 -85 103 -249 152
-365 50 -115 90 -214 91 -220 0 -17 -15 -219 -18 -235 -2 -8 -6 -62 -10 -120
-4 -58 -8 -112 -10 -120 -1 -8 -6 -60 -9 -115 -4 -55 -9 -111 -11 -125 -2 -14
-6 -68 -10 -120 -4 -52 -8 -111 -10 -130 -2 -19 -7 -78 -10 -130 -4 -52 -8
-102 -10 -110 -2 -8 -6 -62 -10 -119 -4 -57 -8 -110 -9 -118 -1 -8 -37 -49
-78 -92 -170 -174 -201 -289 -98 -359 31 -21 43 -22 144 -20 l111 3 7 45 c4
25 10 58 13 74 16 79 83 178 187 276 55 53 58 57 63 115 2 33 7 88 10 123 6
72 13 159 20 257 3 39 8 90 10 115 2 25 7 79 10 120 3 41 8 95 10 120 2 25 7
79 10 120 3 41 8 95 10 120 3 25 7 79 10 120 3 41 8 95 10 120 2 25 7 77 10
116 l6 70 -81 190 c-106 245 -234 560 -305 749 -31 83 -62 155 -68 160 -7 6
-39 20 -72 30 -92 30 -315 144 -465 239 -74 47 -138 86 -142 86 -4 0 -10 -5
-13 -10z M7407 2944 c-1 -1 -48 -5 -104 -8 -55 -4 -112 -9 -125 -11 -12 -2
-50 -6 -83 -10 -93 -10 -95 -18 -27 -91 59 -63 220 -238 241 -263 9 -10 56
-62 105 -115 49 -53 96 -105 105 -115 9 -10 56 -62 105 -115 49 -53 96 -105
105 -115 9 -10 55 -60 102 -112 48 -52 105 -114 128 -139 22 -25 53 -70 68
-100 48 -98 42 -139 -86 -670 -114 -474 -119 -496 -120 -517 -1 -7 -19 -22
-40 -33 -95 -48 -242 -242 -247 -325 -3 -51 21 -92 68 -117 28 -15 61 -18 221
-18 142 0 188 3 191 13 2 6 10 49 19 94 8 46 26 103 38 127 37 75 114 161 187
210 57 38 71 52 80 83 42 157 115 442 119 463 2 14 13 63 23 110 21 95 23 106
44 240 34 213 39 399 14 460 -14 33 -103 151 -173 229 -92 104 -216 237 -371
401 -45 47 -96 101 -114 120 -18 19 -60 64 -94 100 -33 36 -88 97 -121 134
-33 38 -66 75 -74 83 -10 10 -36 13 -98 11 -47 -2 -85 -4 -86 -4z"/>
</g>
</svg>
