<svg xmlns="http://www.w3.org/2000/svg" viewBox="0 0 1024 1024">
<g transform="translate(0,1024) scale(0.1,-0.1)">
<path fill="currentColor" d="M5018 7494 c-316 -359 -541 -762 -584 -1044 -7 -52 -7 -185 1 -231
42 -235 219 -430 465 -512 237 -79 525 -15 709 158 165 155 233 372 190 609
-52 288 -293 707 -605 1053 -36 40 -70 73 -74 73 -5 0 -51 -48 -102 -106z
M1639 6786 c-2 -2 -22 -6 -44 -9 -158 -23 -265 -55 -410 -126 -333 -162 -598
-461 -797 -896 -37 -81 -118 -294 -118 -311 0 -2 46 -4 103 -4 l103 0 38 98
c150 384 373 689 628 861 108 72 287 148 394 166 21 3 62 10 89 15 52 9 318 6
370 -4 17 -4 66 -14 110 -22 221 -44 568 -189 827 -347 383 -233 771 -541
1171 -927 54 -52 102 -96 105 -98 4 -1 38 29 76 67 l68 68 -40 39 c-760 747
-1475 1218 -2083 1374 -92 24 -94 24 -159 35 -25 4 -54 10 -65 12 -24 6 -361
14 -366 9z M8358 6785 c-2 -1 -34 -5 -73 -8 -38 -4 -95 -11 -125 -17 -30 -7
-68 -14 -85 -17 -16 -3 -68 -16 -115 -29 -496 -142 -1043 -476 -1650 -1008
-124 -109 -179 -159 -338 -312 l-82 -79 69 -70 69 -70 73 69 c635 593 1032
888 1501 1116 150 73 414 170 498 184 33 5 49 9 110 21 52 10 158 19 240 19
335 0 597 -110 841 -353 180 -180 322 -407 434 -693 l38 -98 104 0 c57 0 103
2 103 4 0 3 -14 44 -31 93 -191 544 -518 946 -916 1128 -57 27 -191 74 -228
81 -11 2 -42 8 -70 14 -84 16 -145 22 -257 25 -59 1 -109 1 -110 0z M2038
5225 c-1 -1 -37 -6 -78 -9 -423 -39 -924 -251 -1354 -575 -72 -54 -172 -138
-223 -185 l-92 -87 46 -72 c102 -159 141 -218 237 -352 520 -730 1049 -1160
1576 -1279 186 -42 410 -41 595 3 445 107 873 447 1219 968 91 137 196 329
196 357 0 10 -34 63 -76 119 -262 348 -572 644 -856 815 -232 140 -528 250
-753 278 -22 3 -51 8 -65 10 -28 6 -366 14 -372 9z m-248 -240 c0 -2 -24 -17
-52 -31 -135 -68 -278 -192 -380 -329 -103 -137 -190 -342 -214 -505 -11 -68
-11 -266 -2 -340 10 -72 44 -204 69 -259 11 -24 18 -46 16 -47 -2 -2 -30 24
-63 59 -172 181 -368 432 -548 702 l-67 100 43 39 c183 165 514 369 782 481
97 41 264 98 317 109 13 3 37 8 54 11 16 3 32 8 34 11 6 5 11 5 11 -1z m1436
-296 c209 -141 444 -368 646 -628 l66 -84 -51 -86 c-295 -501 -686 -863 -1077
-996 -103 -35 -107 -31 -14 14 276 135 498 395 588 691 122 400 27 813 -260
1129 l-58 64 44 -28 c25 -15 77 -50 116 -76z M7908 5225 c-1 -1 -34 -6 -73 -9
-258 -25 -567 -133 -823 -288 -289 -174 -593 -464 -857 -817 l-85 -113 57
-111 c63 -124 218 -359 319 -487 102 -128 325 -346 446 -436 248 -185 488
-288 748 -321 101 -13 340 -6 392 12 7 2 29 6 49 9 61 9 247 74 346 121 180
85 344 195 523 351 301 261 546 552 852 1009 l147 220 -47 48 c-178 184 -511
414 -805 558 -175 85 -440 181 -567 204 -14 3 -36 7 -50 10 -35 7 -68 13 -125
21 -27 3 -59 9 -70 11 -24 5 -372 13 -377 8z m795 -309 c204 -67 458 -195 670
-337 113 -76 299 -217 311 -237 15 -25 -364 -542 -537 -732 -91 -101 -137
-149 -137 -145 0 3 11 33 24 67 52 140 70 245 71 408 0 189 -28 319 -104 484
-101 219 -295 426 -498 531 -29 15 -53 29 -53 30 0 5 164 -40 253 -69z m-1593
-193 c-125 -137 -221 -311 -268 -488 -49 -183 -50 -394 -3 -577 83 -324 293
-586 596 -745 44 -23 77 -43 74 -43 -13 0 -149 50 -212 78 -334 152 -699 518
-948 948 l-47 83 106 133 c97 120 299 333 394 415 61 53 200 157 263 197 33
21 69 45 80 52 11 7 22 13 23 13 2 1 -24 -29 -58 -66z"/>
</g>
</svg>
