<svg xmlns="http://www.w3.org/2000/svg" viewBox="0 0 1024 1024">
<g transform="translate(0,1024) scale(0.1,-0.1)">
<path fill="currentColor" d="M9868 10226 c-50 -18 -75 -35 -198 -135 -378 -306 -897 -550 -1536
-721 -154 -41 -454 -114 -519 -126 -11 -2 -76 -15 -145 -29 -69 -14 -141 -28
-160 -31 -19 -3 -54 -10 -78 -15 -23 -5 -59 -12 -80 -15 -20 -3 -44 -7 -52 -9
-8 -3 -33 -7 -55 -10 -22 -4 -47 -8 -55 -10 -8 -3 -33 -7 -55 -10 -22 -4 -47
-8 -55 -10 -8 -3 -33 -7 -55 -10 -22 -4 -47 -8 -55 -10 -8 -2 -31 -7 -50 -10
-19 -3 -46 -8 -60 -10 -14 -3 -36 -8 -50 -10 -14 -3 -41 -8 -60 -11 -19 -3
-65 -12 -102 -20 -37 -7 -82 -16 -100 -19 -76 -13 -284 -59 -433 -97 -456
-115 -731 -242 -984 -453 -302 -252 -527 -542 -676 -873 -31 -69 -97 -229
-146 -355 -143 -368 -227 -519 -376 -673 -179 -187 -317 -267 -743 -432 -263
-102 -353 -141 -470 -204 -270 -144 -512 -343 -729 -603 -171 -203 -278 -404
-377 -702 -49 -151 -133 -475 -158 -616 -2 -15 -7 -35 -10 -45 -3 -9 -7 -33
-10 -52 -3 -19 -8 -46 -11 -60 -15 -77 -35 -178 -39 -200 -2 -14 -7 -43 -11
-65 -4 -22 -9 -47 -10 -55 -2 -8 -10 -53 -19 -100 -8 -47 -18 -101 -21 -120
-3 -19 -8 -42 -10 -50 -2 -8 -6 -33 -10 -55 -3 -22 -7 -47 -10 -55 -2 -8 -6
-33 -10 -55 -3 -22 -7 -47 -10 -55 -2 -8 -6 -31 -9 -50 -3 -19 -8 -46 -11 -60
-3 -14 -16 -81 -30 -150 -14 -69 -27 -134 -29 -145 -36 -176 -126 -529 -182
-715 -165 -548 -389 -998 -672 -1348 -123 -154 -137 -180 -137 -272 0 -62 5
-85 28 -133 50 -101 164 -165 275 -154 97 10 152 46 253 165 99 117 226 284
306 402 40 58 1023 1047 4389 4414 2820 2820 4360 4352 4399 4379 144 97 324
236 467 360 81 70 113 138 113 237 0 80 -12 113 -66 181 -61 78 -209 120 -301
85z m-829 -1223 c-8 -10 -1770 -1775 -3917 -3923 -2585 -2586 -3899 -3893
-3889 -3870 9 19 47 105 85 190 170 380 293 743 493 1455 206 734 254 860 406
1058 124 161 257 277 512 445 229 150 314 216 388 296 115 126 155 238 149
416 -5 107 -9 144 -27 214 -12 45 -9 48 51 65 164 46 458 186 625 297 147 98
235 171 385 323 256 257 430 531 554 873 25 70 46 134 46 142 0 25 14 26 86
10 97 -21 275 -26 351 -9 169 37 302 158 498 455 174 264 230 337 354 461 233
230 375 296 1043 484 667 188 931 270 1243 387 169 64 436 177 520 221 60 31
61 32 44 10z m-4474 -1871 c66 -28 132 -54 148 -57 38 -10 40 -17 23 -76 -98
-328 -281 -639 -526 -893 -275 -284 -573 -472 -939 -592 -40 -13 -77 -24 -81
-24 -4 0 -28 53 -54 118 -26 64 -71 167 -100 227 l-53 110 111 43 c379 145
561 254 749 445 149 152 271 357 377 632 24 61 51 129 60 151 l18 42 73 -37
c41 -21 128 -61 194 -89z"/>
</g>
</svg>
