<svg xmlns="http://www.w3.org/2000/svg" viewBox="0 0 1024 1024">
<g transform="translate(0,1024) scale(0.1,-0.1)">
<path fill="currentColor" d="M6430 9528 c-1 -188 -50 -379 -126 -494 -20 -30 -88 -103 -150 -161
-187 -175 -222 -243 -230 -444 -4 -114 17 -206 72 -309 52 -99 154 -200 250
-248 l42 -21 -7 32 c-11 48 -2 146 15 184 9 18 37 52 63 75 25 24 54 55 63 69
31 48 59 150 65 233 3 44 7 83 9 85 5 6 119 -87 153 -125 85 -98 149 -222 176
-339 16 -68 22 -186 10 -205 -24 -39 118 37 183 99 66 62 128 160 155 246 17
56 22 95 22 190 0 139 -8 197 -41 314 -88 304 -329 610 -671 855 l-53 38 0
-74z M6500 7829 c-29 -12 -67 -45 -83 -74 -8 -13 -14 -102 -17 -245 l-5 -225
-70 -28 c-160 -65 -577 -189 -715 -213 -14 -3 -33 -7 -42 -10 -10 -3 -28 -7
-40 -10 -13 -2 -34 -6 -48 -9 -14 -3 -41 -8 -60 -11 -19 -3 -42 -7 -50 -9 -8
-2 -31 -7 -50 -10 -19 -3 -60 -10 -90 -15 -30 -5 -71 -12 -90 -15 -19 -3 -46
-8 -60 -10 -14 -2 -47 -7 -75 -10 -27 -4 -61 -8 -75 -10 -14 -2 -52 -7 -85
-10 -33 -4 -71 -8 -85 -10 -14 -2 -61 -7 -105 -11 -44 -4 -91 -8 -105 -9 -14
-2 -36 -3 -49 -4 l-24 -1 7 -97 c4 -54 12 -125 19 -158 11 -49 16 -60 32 -59
42 2 184 15 206 19 13 2 54 6 91 10 37 3 77 8 90 10 13 2 59 9 103 15 84 12
114 16 168 25 17 3 43 8 57 10 70 12 105 18 215 41 66 14 145 32 175 39 30 8
66 16 80 19 14 3 52 13 85 22 33 9 67 17 75 19 98 22 441 147 572 210 105 51
103 51 331 -49 281 -124 634 -221 1092 -301 140 -24 166 -28 260 -41 28 -3 58
-8 67 -9 9 -2 48 -7 85 -10 37 -4 75 -9 84 -10 9 -2 52 -6 95 -10 43 -4 88 -8
100 -10 11 -2 25 0 31 3 14 10 33 112 40 220 6 92 6 92 -18 93 -13 1 -35 2
-49 3 -14 2 -62 6 -107 10 -46 4 -91 9 -100 10 -10 2 -49 7 -86 11 -37 3 -77
8 -89 10 -11 3 -46 7 -77 10 -31 4 -63 8 -71 10 -8 2 -37 7 -65 10 -27 4 -57
8 -65 10 -8 2 -31 7 -50 10 -357 57 -863 192 -1082 289 l-58 26 0 210 c0 239
-5 262 -68 307 -43 32 -106 40 -152 22z M2110 7608 c-1 -188 -50 -379 -126
-494 -20 -30 -88 -103 -150 -161 -187 -175 -222 -243 -230 -444 -4 -114 17
-206 72 -309 52 -99 154 -200 250 -248 l42 -21 -7 32 c-11 48 -2 146 15 184 9
18 37 52 63 75 25 24 54 55 63 69 31 48 59 150 65 233 3 44 7 83 9 85 5 6 119
-87 153 -125 85 -98 149 -222 176 -339 16 -68 22 -186 10 -205 -24 -39 118 37
183 99 66 62 128 160 155 246 17 56 22 95 22 190 0 139 -8 197 -41 314 -88
304 -329 610 -671 855 l-53 38 0 -74z M6485 6669 c-152 -66 -482 -178 -635
-214 -81 -20 -289 -68 -305 -71 -11 -2 -31 -6 -45 -9 -53 -11 -106 -21 -165
-31 -16 -2 -55 -9 -85 -14 -72 -12 -105 -18 -160 -25 -25 -3 -56 -8 -70 -10
-68 -10 -170 -23 -255 -31 -38 -4 -77 -8 -85 -9 -8 -2 -21 -4 -28 -4 -8 -1 -2
-16 15 -43 210 -328 544 -548 1008 -668 61 -15 126 -31 145 -34 19 -3 46 -8
60 -11 14 -3 45 -8 70 -11 25 -3 53 -8 62 -9 9 -2 48 -7 85 -10 37 -4 79 -9
93 -11 14 -3 149 -7 301 -10 l275 -4 19 42 c25 60 95 165 141 214 22 22 80 74
129 116 122 103 157 142 198 218 37 67 76 172 84 225 3 17 8 48 12 70 4 22 7
55 6 74 l0 34 -125 33 c-174 45 -353 104 -525 174 -80 33 -147 60 -148 60 -1
-1 -33 -14 -72 -31z M7519 6488 c-1 -40 -2 -84 -4 -98 -23 -234 -82 -411 -174
-526 -22 -28 -89 -93 -148 -144 -152 -132 -209 -195 -249 -275 -160 -323 -5
-754 333 -924 23 -11 44 -21 47 -21 2 0 4 39 4 88 -1 131 10 158 98 244 42 40
87 95 100 121 36 70 64 190 65 274 1 71 1 72 22 61 85 -45 220 -176 282 -273
100 -155 157 -365 134 -490 -4 -22 -6 -41 -5 -43 2 -1 39 16 84 38 180 90 313
266 357 469 14 65 14 262 0 341 -42 237 -148 466 -313 675 -121 154 -345 357
-549 499 l-83 58 -1 -74z M8120 6287 c0 -2 15 -20 33 -39 74 -80 105 -115 139
-161 l36 -48 35 43 c62 78 118 168 105 169 -7 0 -20 2 -28 3 -8 2 -51 7 -94
11 -43 4 -86 8 -95 10 -39 7 -131 16 -131 12z M3839 6003 c-1 -77 -2 -92 -14
-207 -13 -131 -63 -312 -110 -406 -38 -75 -107 -159 -231 -280 -150 -147 -176
-180 -219 -273 -42 -90 -62 -198 -63 -328 -1 -217 77 -415 223 -564 69 -70
169 -145 212 -159 19 -6 21 -4 14 26 -10 45 -4 163 10 218 10 33 32 64 86 121
77 80 112 142 137 244 23 89 26 113 27 198 0 42 3 77 6 77 15 0 139 -109 186
-163 68 -79 105 -134 151 -224 76 -151 117 -369 93 -490 -6 -31 -6 -32 19 -23
49 19 159 97 213 151 101 101 174 238 206 386 14 66 15 331 1 393 -3 13 -8 42
-11 63 -26 171 -117 404 -229 585 -143 231 -388 492 -643 686 l-63 47 -1 -78z
M2180 5909 c-29 -12 -67 -45 -83 -74 -8 -13 -14 -102 -17 -245 l-5 -225 -70
-28 c-166 -67 -577 -189 -715 -213 -14 -3 -33 -7 -42 -10 -10 -3 -28 -7 -40
-10 -13 -2 -34 -6 -48 -9 -14 -3 -41 -8 -60 -11 -19 -3 -42 -7 -50 -9 -8 -2
-31 -7 -50 -10 -19 -3 -60 -10 -90 -15 -120 -21 -154 -26 -230 -35 -30 -4 -62
-9 -70 -10 -8 -2 -44 -6 -80 -10 -36 -3 -76 -8 -90 -10 -14 -2 -61 -7 -105
-11 -44 -4 -91 -8 -105 -9 -14 -2 -36 -3 -49 -4 l-24 -1 7 -97 c4 -54 12 -125
19 -158 12 -54 15 -60 37 -58 55 3 195 15 209 18 9 1 47 6 84 10 37 3 76 8 85
10 9 1 42 6 72 10 30 4 62 9 70 10 8 2 35 6 60 9 25 3 56 8 70 11 13 2 40 7
60 10 42 6 54 9 185 35 55 11 109 22 120 24 11 2 85 21 165 41 80 20 152 38
160 40 99 22 402 133 549 200 125 58 138 57 296 -14 192 -86 467 -180 656
-225 24 -5 28 -1 54 60 16 37 52 99 81 140 l52 72 -116 28 c-65 15 -121 29
-127 30 -77 15 -384 114 -515 167 l-85 34 -5 224 c-6 246 -7 252 -69 297 -42
31 -106 39 -151 21z M2165 4749 c-239 -105 -626 -222 -940 -285 -11 -2 -31 -6
-45 -9 -53 -11 -106 -21 -165 -31 -16 -2 -55 -9 -85 -14 -55 -9 -76 -13 -160
-25 -77 -11 -93 -13 -149 -20 -30 -4 -61 -8 -70 -10 -9 -1 -50 -6 -91 -9 -41
-4 -84 -9 -95 -11 -11 -2 -26 -4 -33 -4 -8 -1 -2 -16 15 -43 179 -279 448
-481 809 -608 107 -37 230 -72 299 -84 17 -3 41 -8 55 -11 14 -3 40 -8 59 -11
18 -3 42 -7 53 -9 11 -3 46 -7 77 -11 31 -3 65 -8 76 -10 137 -26 824 -26 961
0 10 2 39 7 64 10 61 8 94 15 166 31 34 8 73 16 85 19 42 7 239 66 310 93 l68
25 -94 91 c-183 180 -273 369 -292 616 -3 42 -8 79 -12 82 -3 3 -49 16 -101
29 -145 35 -379 112 -543 180 -82 33 -149 60 -150 60 -1 -1 -33 -14 -72 -31z
M7615 4466 c-37 -16 -70 -52 -84 -89 -7 -18 -11 -138 -11 -320 l0 -293 -47
-18 c-192 -73 -524 -178 -640 -201 -10 -1 -72 -14 -138 -28 -130 -28 -345 -66
-465 -82 -25 -3 -56 -8 -70 -10 -14 -2 -52 -7 -85 -10 -33 -4 -71 -8 -85 -10
-14 -2 -59 -7 -100 -10 -41 -4 -91 -8 -110 -10 -86 -8 -352 -23 -443 -24 l-58
-1 2 -97 c2 -54 7 -127 12 -161 l9 -64 146 7 c81 4 163 8 182 10 19 2 76 6
125 10 50 4 108 8 130 11 103 10 336 38 405 49 75 12 97 16 120 20 14 3 40 7
59 10 19 3 100 20 180 36 80 17 155 33 167 35 40 7 300 83 394 114 107 36 272
102 370 149 97 46 90 47 330 -58 165 -73 539 -190 720 -225 14 -3 81 -16 150
-30 69 -13 143 -27 165 -31 23 -3 50 -7 60 -9 48 -9 139 -22 214 -31 30 -4 61
-8 70 -10 9 -1 50 -6 91 -10 41 -4 82 -8 90 -10 9 -2 60 -6 115 -10 55 -4 116
-8 135 -10 19 -2 101 -7 183 -10 117 -5 148 -4 152 7 10 29 16 79 22 191 l6
117 -69 1 c-127 2 -328 14 -553 34 -41 4 -81 8 -90 10 -9 1 -47 6 -84 10 -37
3 -76 8 -85 10 -9 1 -39 6 -67 9 -98 14 -118 17 -320 51 -16 3 -52 10 -80 16
-27 6 -63 13 -80 16 -143 23 -544 142 -732 216 l-82 32 -3 306 -3 306 -29 37
c-46 61 -123 82 -191 52z M3935 3826 c-37 -17 -70 -52 -84 -89 -7 -18 -11
-137 -11 -318 l0 -290 -47 -20 c-163 -70 -617 -194 -853 -234 -48 -8 -140 -24
-169 -30 -13 -2 -49 -7 -80 -11 -31 -3 -58 -8 -61 -9 -3 -2 -33 -7 -65 -10
-33 -4 -68 -9 -77 -10 -9 -2 -48 -7 -85 -10 -37 -4 -75 -9 -84 -10 -9 -2 -52
-6 -95 -10 -43 -4 -90 -8 -104 -10 -14 -2 -65 -7 -115 -10 -49 -4 -106 -8
-125 -10 -72 -7 -414 -23 -528 -24 l-73 -1 6 -37 c13 -85 18 -112 36 -194 l20
-87 67 3 c150 7 329 17 362 20 19 2 78 6 130 10 52 3 111 8 130 10 19 2 67 6
106 10 39 3 80 7 90 9 11 2 51 7 89 10 39 4 81 9 95 11 14 2 48 6 75 10 28 3
77 10 110 15 33 5 78 11 100 15 22 3 90 14 150 25 154 27 167 29 195 35 14 3
37 7 52 10 15 3 108 25 207 50 211 53 402 117 559 186 130 58 157 60 242 18
255 -124 748 -260 1140 -314 25 -3 52 -8 60 -10 8 -2 39 -7 69 -10 30 -4 63
-8 74 -11 10 -2 45 -6 76 -10 31 -3 64 -8 73 -9 9 -2 48 -7 85 -10 37 -4 79
-8 93 -10 14 -2 54 -7 90 -10 36 -3 83 -8 105 -10 22 -2 83 -7 135 -10 52 -4
111 -8 130 -10 45 -5 298 -18 370 -19 l55 -1 12 38 c7 21 15 50 18 65 13 72
25 141 30 175 l6 37 -73 1 c-112 1 -451 17 -528 24 -19 2 -78 6 -130 10 -52 3
-106 8 -120 10 -14 2 -56 6 -95 10 -38 3 -81 8 -95 10 -14 2 -52 6 -85 10 -33
3 -71 8 -85 10 -14 2 -45 6 -70 10 -55 7 -118 16 -145 21 -11 2 -40 7 -65 10
-25 3 -52 7 -60 9 -8 3 -33 7 -55 11 -22 3 -83 15 -135 26 -52 10 -106 22
-120 24 -155 31 -472 122 -610 176 l-85 34 -5 304 c-5 335 -5 332 -69 378 -44
32 -108 40 -156 18z M7550 3129 c-156 -66 -420 -153 -625 -204 l-170 -44 143
0 143 -1 -6 -67 c-11 -130 -16 -166 -35 -258 -6 -27 -12 -59 -14 -71 -11 -58
-72 -252 -110 -349 -43 -110 -117 -262 -175 -362 -17 -29 -27 -54 -23 -56 4
-3 50 -14 102 -25 96 -21 123 -26 194 -37 21 -4 47 -8 58 -10 11 -3 46 -7 77
-11 31 -3 65 -8 76 -10 136 -26 845 -25 983 1 9 1 48 6 85 10 37 3 76 8 86 10
10 2 36 6 57 10 74 11 99 16 160 30 34 8 73 16 85 19 13 2 65 16 114 31 240
69 482 181 655 303 125 87 319 282 397 397 59 88 158 273 150 281 -4 4 -31 6
-262 19 -60 3 -121 8 -135 10 -14 2 -61 6 -105 10 -44 3 -91 8 -105 10 -14 2
-46 6 -72 9 -27 3 -69 9 -95 12 -60 7 -231 32 -259 38 -12 2 -39 7 -60 10 -22
3 -50 8 -64 11 -41 9 -73 15 -105 21 -16 3 -50 10 -75 15 -25 6 -56 13 -70 15
-200 38 -602 166 -794 253 -38 17 -74 31 -80 30 -6 0 -63 -23 -126 -50z M3920
2510 c-158 -71 -494 -169 -781 -229 -141 -29 -172 -35 -241 -46 -18 -3 -44 -7
-58 -10 -14 -3 -38 -7 -55 -9 -16 -3 -43 -7 -60 -10 -16 -3 -50 -8 -75 -11
-25 -3 -56 -8 -70 -10 -14 -2 -52 -7 -85 -11 -33 -3 -68 -8 -77 -9 -9 -2 -48
-7 -85 -10 -37 -4 -79 -8 -93 -10 -14 -2 -61 -7 -105 -11 -44 -3 -87 -8 -96
-9 -9 -2 -63 -6 -120 -10 -57 -4 -120 -8 -139 -10 -19 -2 -98 -7 -175 -10 -77
-4 -142 -9 -144 -11 -10 -9 121 -254 192 -361 86 -129 167 -230 264 -328 187
-189 332 -296 593 -437 167 -90 509 -208 705 -242 17 -3 41 -8 55 -11 14 -3
41 -8 60 -11 19 -3 46 -7 60 -10 14 -2 48 -7 75 -10 28 -3 61 -7 74 -9 165
-27 760 -27 921 -1 14 3 50 7 81 11 31 3 66 7 77 10 11 2 35 6 53 9 126 20
341 74 474 119 601 205 1062 598 1335 1142 35 69 61 127 59 129 -2 2 -69 7
-149 11 -80 4 -161 8 -180 10 -19 2 -73 6 -120 9 -84 6 -157 13 -235 21 -22 2
-67 7 -100 10 -33 3 -73 8 -90 10 -16 2 -57 7 -90 11 -33 3 -68 8 -79 10 -10
2 -44 6 -75 10 -31 3 -65 8 -76 10 -10 2 -37 6 -60 9 -84 12 -230 37 -295 50
-34 7 -69 14 -105 20 -16 4 -59 13 -95 21 -36 9 -76 18 -90 20 -149 29 -495
137 -639 200 -29 13 -59 24 -65 23 -6 0 -40 -13 -76 -29z"/>
</g>
</svg>
