<svg xmlns="http://www.w3.org/2000/svg" viewBox="0 0 1024 1024">
<g transform="translate(0,1024) scale(0.1,-0.1)">
<path fill="currentColor" d="M5107 9340 c-9 -30 -34 -125 -57 -210 -100 -371 -244 -795 -376
-1109 -36 -86 -128 -277 -203 -426 -159 -312 -197 -420 -228 -635 -10 -70 -10
-338 0 -409 63 -447 298 -871 642 -1157 83 -69 213 -154 236 -154 23 0 160 91
249 166 190 158 343 357 461 599 199 407 235 832 103 1233 -35 109 -69 181
-191 412 -207 389 -421 974 -576 1575 l-44 170 -16 -55z m60 -1672 c6 -5 19
-42 28 -81 9 -40 18 -79 20 -87 17 -70 81 -288 115 -385 53 -153 100 -263 167
-392 30 -56 63 -128 74 -160 104 -296 21 -642 -212 -884 -78 -80 -203 -168
-234 -164 -84 11 -252 152 -339 285 -61 91 -90 152 -120 250 -34 111 -43 178
-39 281 4 123 33 221 112 378 122 241 196 445 276 756 24 94 47 177 50 186 13
34 69 43 102 17z M5117 7330 c-3 -8 -24 -76 -47 -150 -56 -181 -123 -346 -208
-515 -67 -134 -77 -158 -87 -204 -3 -12 -7 -31 -10 -43 -3 -13 -7 -57 -9 -99
-9 -230 121 -492 315 -635 l50 -36 38 26 c190 132 323 382 325 611 0 150 -19
218 -116 405 -83 159 -156 347 -218 560 -16 52 -31 88 -33 80z M4057 4714 c-1
-1 -173 -5 -382 -9 -209 -4 -405 -8 -435 -10 -30 -1 -136 -6 -235 -10 -99 -4
-198 -8 -220 -10 -22 -1 -98 -5 -170 -9 -71 -4 -150 -9 -175 -11 -25 -2 -85
-6 -135 -10 -49 -3 -106 -8 -125 -10 -19 -2 -71 -7 -115 -10 -44 -3 -96 -7
-115 -10 -19 -2 -64 -7 -100 -10 -36 -4 -76 -8 -90 -10 -14 -2 -50 -6 -81 -10
-31 -3 -66 -7 -77 -10 -12 -2 -52 -7 -89 -10 -37 -4 -70 -9 -73 -10 -3 -2 -33
-7 -65 -10 -33 -4 -62 -9 -65 -10 -3 -2 -30 -6 -60 -10 -30 -4 -57 -8 -60 -10
-3 -2 -26 -6 -50 -10 -25 -3 -65 -11 -90 -17 -63 -14 -81 -17 -115 -24 -141
-25 -385 -104 -510 -164 -182 -89 -258 -167 -262 -268 -6 -213 299 -428 788
-556 131 -34 353 -78 454 -90 28 -3 75 -8 105 -11 30 -4 66 -8 79 -10 160 -26
778 -26 1026 -1 17 2 62 6 100 10 39 4 81 9 95 11 14 2 45 7 70 10 54 7 87 13
160 25 30 5 68 12 84 14 16 3 52 10 80 16 28 6 60 12 71 14 160 33 463 121
621 180 464 174 781 362 1101 653 58 53 110 93 122 93 20 0 51 -24 135 -103
322 -304 797 -562 1336 -726 196 -59 478 -123 640 -146 25 -3 52 -8 60 -10 8
-2 40 -7 70 -10 30 -3 62 -8 70 -10 8 -2 49 -7 90 -11 41 -3 89 -8 105 -10
240 -25 855 -25 1017 1 13 2 54 6 91 10 37 3 76 8 85 10 9 1 42 6 72 10 55 7
74 10 120 20 14 2 40 7 58 10 19 3 73 15 120 26 550 127 896 353 889 581 -4
101 -80 179 -262 268 -131 63 -381 142 -559 176 -12 2 -44 8 -72 14 -54 11
-53 11 -194 35 -113 19 -131 22 -190 30 -25 3 -56 8 -70 10 -14 2 -50 7 -80
10 -30 3 -66 8 -80 10 -44 6 -113 14 -185 20 -38 4 -81 8 -95 10 -14 2 -61 7
-105 10 -44 3 -96 8 -115 10 -19 2 -75 7 -125 10 -49 4 -110 8 -135 10 -25 2
-94 7 -155 10 -60 4 -137 8 -170 10 -33 2 -132 6 -220 10 -88 4 -192 8 -232
10 -274 13 -801 18 -1811 19 -640 1 -1164 0 -1165 0z M5075 4184 c-320 -290
-738 -529 -1208 -691 -110 -37 -395 -121 -442 -129 -16 -3 -48 -10 -70 -16
-22 -5 -49 -12 -60 -14 -11 -2 -31 -6 -45 -9 -14 -3 -38 -7 -55 -10 -16 -3
-41 -8 -55 -10 -49 -10 -75 -15 -110 -20 -20 -3 -45 -7 -56 -9 -12 -2 -45 -7
-75 -11 -30 -3 -65 -8 -79 -10 -14 -2 -56 -7 -95 -11 -38 -4 -83 -8 -100 -10
-249 -25 -848 -25 -1040 1 -16 2 -52 6 -80 9 -137 15 -283 39 -410 67 -49 11
-100 22 -112 25 -65 13 -277 80 -364 114 -134 54 -202 89 -299 155 -45 31 -84
54 -86 52 -7 -7 54 -211 102 -337 324 -865 1016 -1558 1969 -1974 304 -133
735 -270 1035 -330 205 -41 282 -56 315 -61 23 -3 50 -7 60 -9 48 -9 139 -22
214 -31 30 -4 61 -8 70 -10 9 -1 50 -6 91 -10 41 -4 83 -9 92 -10 10 -2 61 -7
115 -10 53 -4 104 -8 114 -10 135 -26 1148 -26 1419 0 19 2 76 6 125 10 50 3
101 8 115 10 14 2 56 6 93 10 37 3 76 8 85 10 9 1 42 6 73 9 31 4 65 8 75 10
11 2 44 7 74 11 30 4 62 9 71 10 9 2 34 6 55 9 22 4 46 8 54 11 8 2 31 6 50 9
19 3 68 12 107 20 40 9 85 18 100 21 144 26 504 128 712 201 373 133 655 272
971 479 212 139 386 281 570 465 315 314 541 646 708 1040 37 89 110 286 117
320 2 8 11 41 20 73 9 32 15 60 13 62 -2 3 -39 -18 -83 -46 -153 -98 -315
-169 -530 -232 -120 -35 -158 -45 -205 -54 -14 -2 -45 -9 -70 -14 -47 -11 -61
-14 -150 -29 -128 -22 -170 -27 -345 -45 -235 -24 -759 -24 -990 0 -22 2 -67
7 -100 10 -113 11 -265 30 -320 41 -10 2 -37 6 -60 9 -87 13 -370 77 -501 114
-510 145 -922 338 -1264 595 -80 60 -210 168 -258 213 -7 7 -14 13 -15 13 -1
0 -24 -21 -52 -46z m90 -898 c85 -133 162 -344 198 -544 l23 -125 34 64 c76
148 294 465 358 523 47 42 105 13 116 -57 33 -201 26 -418 -20 -615 -21 -95
-19 -101 19 -65 79 75 316 242 463 326 90 52 134 59 157 27 18 -25 16 -51 -12
-155 -40 -156 -112 -315 -214 -478 -31 -48 -51 -87 -46 -87 5 0 26 7 46 15 45
19 305 91 358 99 20 4 40 8 44 10 3 2 26 7 51 10 25 3 56 8 69 11 13 2 47 7
76 10 46 6 56 4 74 -14 34 -34 26 -70 -31 -152 -62 -88 -205 -239 -303 -319
-323 -264 -846 -472 -1378 -547 -221 -32 -578 24 -891 139 -353 129 -737 370
-1019 638 -87 83 -99 113 -58 153 20 21 31 22 184 22 89 0 187 -3 217 -8 66
-9 246 -50 313 -71 34 -11 46 -12 40 -3 -4 7 -35 53 -69 102 -107 157 -261
437 -277 506 -8 32 24 79 55 79 37 0 201 -60 300 -110 102 -51 243 -142 316
-204 49 -40 57 -44 48 -19 -6 16 -44 175 -51 218 -2 11 -9 47 -14 80 -10 56
-13 79 -25 168 -3 17 -8 77 -11 132 -7 98 -6 100 19 124 33 31 65 23 131 -32
160 -133 273 -269 403 -486 l20 -35 7 50 c4 27 9 58 11 69 2 10 6 37 9 60 3
22 8 47 10 55 2 8 7 31 10 50 19 118 97 393 118 419 15 18 47 29 70 23 11 -3
34 -28 52 -56z M5077 2993 c-30 -127 -44 -199 -53 -268 -3 -27 -7 -52 -9 -55
-2 -3 -6 -45 -11 -95 -4 -49 -8 -101 -9 -115 -2 -14 -3 -51 -4 -82 -1 -61 -15
-84 -57 -94 -18 -5 -32 0 -50 17 -13 12 -24 27 -24 32 0 19 -119 256 -165 327
-62 98 -135 192 -202 260 l-54 55 6 -55 c3 -30 7 -66 10 -80 2 -14 6 -43 10
-65 3 -22 7 -47 10 -55 2 -8 6 -31 9 -50 8 -58 65 -268 97 -365 17 -49 31
-101 31 -114 1 -28 -34 -61 -64 -61 -11 0 -59 38 -111 88 -114 108 -163 149
-252 211 -80 55 -210 129 -273 154 l-42 17 21 -42 c74 -147 221 -365 353 -526
75 -93 85 -116 66 -152 -19 -35 -54 -33 -162 14 -167 71 -338 121 -483 140
-94 13 -186 16 -181 7 4 -5 48 -43 99 -84 576 -463 1269 -694 1762 -587 22 5
56 11 75 14 19 3 50 10 68 15 17 5 32 8 32 6 0 -2 19 3 43 11 23 8 42 14 42
13 0 -3 97 24 185 53 291 94 543 222 735 373 71 56 230 211 248 241 8 14 -158
-20 -303 -61 -100 -28 -286 -96 -383 -139 -67 -30 -84 -32 -115 -10 -41 28
-29 63 57 167 97 117 175 235 235 355 50 98 100 222 92 229 -7 7 -207 -130
-314 -217 -55 -44 -147 -124 -205 -179 -59 -55 -112 -98 -119 -97 -77 14 -83
38 -41 161 30 90 58 187 69 240 12 59 23 128 29 181 6 55 7 255 2 261 -7 6
-105 -135 -179 -258 -62 -102 -143 -258 -191 -370 -19 -44 -31 -59 -56 -67
-27 -10 -34 -8 -56 11 -23 20 -26 31 -30 122 -6 121 -15 210 -30 285 -3 14 -7
34 -9 45 -24 120 -101 345 -117 345 -4 0 -19 -48 -32 -107z"/>
</g>
</svg>
