<svg xmlns="http://www.w3.org/2000/svg" viewBox="0 0 1024 1024">
<g transform="translate(0,1024) scale(0.1,-0.1)">
<path fill="currentColor" d="M791 9053 c15 -60 30 -130 33 -158 4 -27 10 -77 14 -110 9 -78 9
-371 0 -455 -39 -341 -150 -628 -374 -965 -165 -250 -252 -444 -288 -650 -20
-113 -14 -307 13 -410 66 -251 236 -449 461 -538 86 -34 134 -41 260 -42 121
0 164 6 251 35 266 90 461 297 573 610 34 93 69 236 82 330 3 25 8 54 10 65
11 55 19 219 19 390 0 221 -9 351 -31 485 -4 19 -8 49 -11 65 -6 43 -51 222
-68 273 -159 468 -447 839 -872 1124 -48 32 -89 58 -93 58 -3 0 6 -48 21 -107z
M7659 5746 c-2 -2 -52 -7 -111 -10 -59 -4 -117 -9 -130 -11 -13 -2 -47 -6 -76
-9 -55 -6 -107 -13 -157 -21 -16 -3 -48 -7 -70 -10 -22 -3 -49 -8 -61 -10 -12
-3 -39 -7 -60 -11 -21 -3 -82 -15 -134 -26 -52 -11 -108 -22 -123 -24 -15 -3
-81 -19 -145 -35 -64 -16 -124 -31 -133 -33 -81 -20 -265 -75 -404 -120 -301
-97 -367 -117 -550 -167 -99 -28 -189 -53 -200 -55 -11 -3 -29 -7 -40 -10 -11
-3 -31 -7 -45 -10 -14 -3 -52 -12 -85 -21 -33 -8 -71 -17 -85 -19 -14 -3 -33
-7 -42 -10 -9 -3 -27 -7 -39 -9 -13 -3 -93 -19 -178 -36 -86 -17 -167 -33
-181 -35 -14 -3 -36 -7 -50 -9 -51 -10 -75 -15 -110 -20 -20 -3 -45 -7 -55 -9
-11 -2 -40 -7 -65 -10 -25 -3 -54 -8 -65 -10 -11 -2 -42 -7 -70 -10 -27 -4
-61 -9 -75 -11 -14 -2 -46 -6 -72 -9 -27 -3 -69 -9 -95 -12 -27 -3 -59 -7 -73
-9 -14 -2 -56 -7 -95 -10 -38 -4 -81 -8 -95 -10 -14 -2 -61 -7 -105 -11 -44
-4 -93 -8 -110 -10 -16 -1 -77 -5 -135 -9 -58 -4 -121 -8 -140 -10 -279 -27
-1284 -27 -1690 0 -30 2 -91 6 -135 9 l-80 5 78 -19 c43 -11 88 -22 100 -24
230 -49 307 -65 332 -69 17 -3 84 -14 150 -25 66 -12 138 -23 160 -26 22 -4
51 -8 65 -11 14 -2 48 -7 75 -10 28 -3 61 -8 75 -10 14 -2 52 -6 85 -10 33 -3
74 -8 90 -10 57 -8 120 -14 200 -21 44 -3 96 -7 115 -9 295 -27 1131 -27 1410
0 19 2 74 6 122 10 47 3 97 8 110 10 12 2 54 6 91 10 37 3 76 8 85 10 9 1 44
6 77 9 33 4 71 9 85 11 14 2 45 7 70 10 25 3 52 8 60 10 8 2 35 6 60 9 25 3
55 8 66 10 12 2 38 7 58 10 19 3 55 10 78 15 24 5 63 13 88 16 24 4 47 8 50
10 3 2 21 6 40 9 47 8 61 11 162 35 48 11 98 22 111 25 102 18 465 122 737
211 124 40 241 76 261 79 20 3 42 8 50 10 8 3 30 7 49 10 19 3 45 8 56 10 12
2 37 7 55 10 19 3 51 8 73 11 21 4 47 8 58 10 11 3 46 7 77 11 31 3 64 8 73 9
9 2 48 7 85 10 37 4 79 8 93 11 135 21 686 21 820 0 14 -3 50 -7 80 -10 112
-13 312 -57 435 -98 128 -42 316 -136 410 -205 231 -171 391 -423 400 -629 16
-336 -297 -590 -980 -795 -55 -17 -108 -32 -118 -34 -10 -2 -27 -7 -37 -10
-10 -3 -28 -8 -39 -10 -12 -3 -29 -7 -40 -9 -93 -21 -221 -49 -241 -52 -14 -3
-32 -7 -40 -9 -8 -2 -28 -6 -45 -9 -16 -3 -73 -12 -125 -21 -52 -9 -106 -18
-120 -20 -51 -7 -116 -17 -140 -20 -44 -7 -104 -14 -160 -20 -30 -3 -71 -8
-90 -10 -19 -2 -62 -7 -95 -10 -33 -3 -78 -8 -100 -11 -209 -26 -279 -33 -505
-49 -332 -24 -1090 -25 -1330 0 -19 2 -80 6 -135 10 -55 3 -111 8 -125 10 -14
2 -56 6 -95 10 -38 3 -83 8 -100 10 -16 2 -51 7 -77 10 -85 9 -142 16 -168 20
-14 2 -47 7 -75 10 -27 4 -57 8 -65 10 -8 2 -35 7 -60 10 -25 3 -56 8 -70 10
-58 12 -76 15 -112 20 -38 6 -209 39 -258 50 -14 3 -41 8 -60 11 -19 3 -38 8
-41 10 -3 2 -21 6 -40 9 -19 3 -97 21 -174 40 -765 184 -1531 492 -2160 870
-117 70 -435 282 -545 363 -52 39 -97 68 -99 67 -6 -6 147 -224 227 -325 110
-137 386 -410 539 -532 523 -416 1189 -738 1988 -961 99 -28 276 -73 315 -81
14 -2 54 -11 90 -20 36 -8 76 -17 90 -20 14 -2 57 -11 95 -19 39 -9 90 -18
115 -22 24 -4 47 -8 50 -10 3 -1 25 -6 50 -9 25 -3 56 -8 70 -11 13 -2 42 -7
65 -10 22 -3 47 -8 55 -10 8 -2 38 -6 65 -10 28 -3 61 -8 75 -10 14 -2 46 -6
73 -9 26 -3 68 -9 95 -12 26 -3 58 -7 72 -9 14 -2 54 -7 90 -10 36 -3 83 -8
105 -10 22 -2 81 -7 130 -10 50 -4 106 -9 125 -10 246 -24 1085 -24 1310 0 19
2 79 6 133 10 53 3 107 8 120 10 12 2 58 6 101 10 43 4 86 8 95 10 9 1 43 6
76 9 33 4 71 9 85 11 14 2 45 6 70 10 59 9 87 13 135 20 23 3 50 7 60 9 19 4
165 31 215 40 331 60 829 208 1130 335 650 276 1051 644 1156 1061 20 79 26
264 12 348 -93 547 -642 985 -1424 1136 -156 30 -184 34 -271 42 -37 3 -79 8
-93 11 -28 6 -615 14 -621 9z M7479 5146 c-2 -2 -52 -7 -111 -10 -59 -4 -117
-9 -130 -11 -13 -2 -45 -6 -73 -9 -131 -15 -396 -56 -465 -72 -14 -3 -36 -8
-50 -10 -14 -3 -113 -34 -220 -69 -276 -90 -696 -209 -820 -231 -14 -3 -43
-10 -65 -16 -42 -11 -60 -15 -110 -24 -16 -3 -48 -9 -70 -14 -22 -5 -56 -12
-75 -15 -19 -3 -73 -13 -120 -21 -112 -21 -108 -20 -163 -28 -27 -4 -59 -9
-70 -12 -12 -2 -42 -7 -67 -10 -25 -3 -56 -7 -70 -9 -14 -2 -47 -7 -75 -10
-27 -3 -63 -8 -80 -10 -16 -2 -57 -7 -90 -10 -33 -3 -73 -8 -90 -10 -16 -2
-70 -7 -120 -10 -49 -4 -106 -9 -125 -11 -265 -26 -1107 -26 -1380 1 -19 2
-78 6 -130 10 -52 4 -101 8 -110 10 -8 1 -46 6 -85 9 -38 4 -81 9 -95 11 -14
2 -47 6 -75 10 -60 7 -121 15 -155 20 -14 2 -45 7 -70 10 -25 3 -70 10 -100
15 -30 5 -73 12 -95 15 -22 4 -47 8 -55 10 -8 3 -33 7 -55 11 -22 3 -59 10
-83 15 -23 5 -58 12 -76 15 -26 4 -269 58 -356 79 -86 20 -268 69 -319 85 -36
10 -66 18 -68 16 -2 -1 50 -41 115 -88 642 -467 1395 -828 2232 -1072 135 -40
478 -126 550 -140 14 -2 45 -9 70 -15 25 -5 59 -12 75 -15 17 -3 41 -8 55 -11
14 -2 48 -9 75 -15 28 -5 65 -12 83 -15 74 -12 98 -16 112 -20 8 -2 35 -6 60
-9 25 -3 54 -8 66 -10 12 -2 45 -7 74 -11 29 -4 60 -8 69 -10 15 -2 66 -9 166
-21 22 -3 56 -7 75 -9 19 -2 67 -7 105 -11 39 -4 84 -8 100 -10 17 -1 71 -5
120 -9 50 -4 106 -8 125 -10 251 -24 1092 -25 1340 0 19 2 76 6 126 9 51 4
100 8 110 10 11 2 55 7 98 11 43 4 88 8 99 10 10 3 45 7 76 10 31 3 74 8 96
10 22 2 72 7 110 11 39 3 77 8 85 9 8 1 40 6 70 10 30 3 66 8 80 10 14 2 45 7
70 10 52 7 76 11 188 30 79 13 104 18 241 46 422 87 769 204 991 334 112 66
240 190 277 271 24 51 28 71 28 149 -1 82 -4 97 -37 166 -99 211 -252 362
-483 477 -177 88 -402 151 -640 178 -33 4 -73 9 -90 11 -39 6 -590 14 -596 9z
M1000 4274 c0 -8 142 -258 218 -384 103 -171 290 -448 408 -605 87 -117 209
-272 224 -285 3 -3 18 -21 34 -40 92 -113 235 -268 381 -413 583 -580 1232
-990 1950 -1234 125 -42 471 -135 547 -147 21 -3 57 -10 80 -15 24 -5 63 -12
88 -15 25 -3 56 -8 70 -10 44 -8 94 -15 155 -21 33 -4 71 -8 84 -10 155 -25
828 -25 1086 -1 17 2 66 6 110 10 44 4 91 9 105 11 14 2 52 6 85 10 33 3 71 8
85 10 14 2 45 7 70 10 53 7 88 13 190 30 19 3 108 22 196 41 1355 290 2297
1048 2714 2184 31 86 100 313 100 332 0 5 -19 -14 -42 -44 -185 -236 -549
-486 -957 -658 -303 -128 -746 -266 -1046 -326 -11 -2 -54 -11 -95 -19 -108
-22 -122 -25 -155 -30 -16 -3 -55 -10 -85 -15 -30 -5 -73 -12 -95 -15 -22 -3
-51 -8 -65 -10 -23 -4 -40 -7 -135 -20 -16 -2 -52 -7 -80 -10 -27 -3 -63 -8
-80 -10 -16 -2 -66 -7 -110 -10 -44 -4 -88 -9 -97 -10 -9 -2 -61 -7 -115 -10
-54 -4 -114 -8 -133 -10 -220 -23 -1068 -23 -1300 0 -19 1 -80 6 -135 10 -55
3 -113 8 -130 10 -16 2 -57 7 -90 10 -70 7 -137 14 -180 20 -16 2 -57 7 -90
11 -33 3 -68 8 -79 10 -10 2 -44 6 -75 10 -31 3 -58 8 -61 9 -3 2 -30 6 -60
10 -30 3 -62 8 -70 10 -14 4 -37 8 -112 20 -18 3 -55 10 -83 15 -27 6 -61 13
-75 15 -14 3 -38 8 -55 11 -221 39 -682 162 -959 255 -761 256 -1439 637
-1876 1055 -118 113 -134 129 -197 196 -35 36 -63 64 -63 62z"/>
</g>
</svg>
