<svg viewBox="0 0 64 64" xmlns="http://www.w3.org/2000/svg"><path fill="currentColor" d="m17 16c.6 0 1-.4 1-1v-1c0-.6-.4-1-1-1s-1 .4-1 1v1c0 .6.4 1 1 1z"/><path fill="currentColor" d="m50 8h4v4c0 .6.4 1 1 1s1-.4 1-1v-4h4c.6 0 1-.4 1-1v-6c0-.6-.4-1-1-1s-1 .4-1 1v5h-3v-5c0-.6-.4-1-1-1s-1 .4-1 1v5h-3v-5c0-.6-.4-1-1-1s-1 .4-1 1v6c0 .6.4 1 1 1z"/><path fill="currentColor" d="m60 17v10c0 .6.4 1 1 1s1-.4 1-1v-10c0-.6-.4-1-1-1s-1 .4-1 1z"/><path fill="currentColor" d="m17 11c.6 0 1-.4 1-1v-9c0-.6-.4-1-1-1s-1 .4-1 1v9c0 .6.4 1 1 1z"/><path fill="currentColor" d="m14.8 30h-4.8v-3.1c2.3-.4 3.9-2.3 4-4.6 0-2.2-3.5-7-4.2-7.9-.4-.4-1-.5-1.5-.1-.1 0-.1.1-.1.1-.7.9-4.2 5.7-4.2 7.9.1 2.3 1.7 4.2 4 4.6v8.1c0 .6.4 1 1 1s1-.4 1-1v-3h5c.1 0 .3 0 .4-.1l10.1-4.2.3-2.7-.1.4z"/><path fill="currentColor" d="m32 16.3 4 1.6 4-1.6v-6.3h-8z"/><path fill="currentColor" d="m32 21.5c.9.7 3.8 2.4 8-.1v-3l-3.6 1.5c-.2.1-.5.1-.7 0l-3.7-1.4z"/><path fill="currentColor" d="m17 25h8.9l.1-1.1c0-.3.2-.6.5-.8l3.4-1.7v-11.4h-.8c-1.8 1.3-2.9 3.3-3.2 5.5-1.1.8-3.1 3.1-1.5 7.5h-6.4v-4c0-.6-.4-1-1-1s-1 .4-1 1v5c0 .6.4 1 1 1z"/><path fill="currentColor" d="m41.7 7.3-4.7-4.7v-1.6c0-.6-.4-1-1-1s-1 .4-1 1v1.6l-4.7 4.7c-.2.2-.3.4-.3.7h12c0-.3-.1-.5-.3-.7z"/><path fill="currentColor" d="m7 41c0-.6-.4-1-1-1s-1 .4-1 1v3h2z"/><path fill="currentColor" d="m20.4 54.1 4.1 2-2.3-10.1h-17.4l-2.4 10.3 5.2-2.2c.5-.2 1.1 0 1.3.5s0 1.1-.5 1.3l-4.8 2.1 7.6 3h5.6l6.9-3.1-4.1-2.1c-.5-.2-.7-.8-.4-1.3.2-.4.8-.6 1.2-.4zm-1.4-2.1h-4v4h2c.6 0 1 .4 1 1s-.4 1-1 1h-6c-.6 0-1-.4-1-1s.4-1 1-1h2v-4h-4c-.6 0-1-.4-1-1s.4-1 1-1h10c.6 0 1 .4 1 1s-.4 1-1 1z"/><path fill="currentColor" d="m59.9 46h-7.9v10c0 .6-.4 1-1 1s-1-.4-1-1v-10h-16v4c0 .6-.4 1-1 1s-1-.4-1-1v-4h-7.7l2.7 11.8v.3c0 .1 0 .2-.1.4 0 .1-.1.2-.2.3 0 0 0 0-.1.1-.1 0-.1.1-.2.1l-9 4c-.1 0-.3 0-.4 0h-4c0 .6.4 1 1 1h28c-.6 0-1-.4-1-1v-5c0-.6.4-1 1-1s1 .4 1 1v5c0 .6-.4 1-1 1h9c-.6 0-1-.4-1-1v-3c0-.6.4-1 1-1s1 .4 1 1v3c0 .6-.4 1-1 1h10c.6 0 1-.4 1-1v-12c0-1.9-.8-3.7-2.1-5zm-25.9 12c0 .6-.4 1-1 1s-1-.4-1-1v-4c0-.6.4-1 1-1s1 .4 1 1z"/><path fill="currentColor" d="m63 30h-5.8l-11.2-4.7v-.3h9c.6 0 1-.4 1-1v-8c0-.6-.4-1-1-1s-1 .4-1 1v7h-6.5c1.6-4.4-.5-6.7-1.5-7.5-.2-2.2-1.4-4.2-3.2-5.5h-.8v12c0 .3-.2.6-.5.8-1.7 1.2-3.7 1.9-5.8 1.9-1.8 0-3.5-.6-4.9-1.6l-3 1.5-.7 6.4h5.9v-3c0-.6.4-1 1-1s1 .4 1 1v4c0 .6-.4 1-1 1h-6.9v3h-11.1c-.6 0-1 .4-1 1v7h6v-3c0-.6.4-1 1-1s1 .4 1 1v3h23v-8h-7c-.6 0-1-.4-1-1v-4c0-.6.4-1 1-1s1 .4 1 1v3h6v-6.5l10.6 4.4c.1.1.3.1.4.1h6c.6 0 1-.4 1-1s-.4-1-1-1zm-24 10c0 .6-.4 1-1 1h-6c-.6 0-1-.4-1-1s.4-1 1-1h6c.6 0 1 .4 1 1zm-1-12h-1c-.6 0-1-.4-1-1s.4-1 1-1h1c.6 0 1 .4 1 1s-.4 1-1 1zm4 0h-1c-.6 0-1-.4-1-1s.4-1 1-1h1c.6 0 1 .4 1 1s-.4 1-1 1z"/></svg>