<svg xmlns="http://www.w3.org/2000/svg" viewBox="0 0 1024 1024">
<g transform="translate(0,1024) scale(0.1,-0.1)">
<path fill="currentColor" d="M1379 10235 c-2 -2 -29 -6 -59 -10 -30 -4 -58 -9 -61 -11 -3 -2 -21
-6 -40 -9 -104 -19 -275 -95 -398 -177 -372 -252 -657 -664 -765 -1108 -43
-180 -51 -253 -51 -495 0 -179 6 -295 20 -366 3 -13 8 -40 11 -59 3 -19 19
-87 36 -150 54 -209 145 -415 264 -598 66 -102 213 -292 225 -292 5 0 224 161
486 358 525 393 505 379 498 360 -11 -29 -465 -1630 -465 -1638 0 -15 579
-822 624 -868 46 -49 141 -119 202 -150 188 -95 428 -101 622 -16 41 18 1184
647 1201 661 2 1 -38 45 -90 95 -243 239 -385 512 -444 853 -5 30 -9 90 -20
275 -14 243 -66 393 -225 638 -36 56 -68 101 -71 102 -3 0 -111 -79 -239 -175
-128 -96 -235 -175 -239 -175 -5 1 -152 192 -199 259 -11 16 11 36 237 206
l249 189 -35 71 -36 72 -91 -19 c-50 -10 -104 -21 -121 -24 -16 -3 -48 -9 -70
-14 -22 -5 -53 -11 -70 -14 -16 -3 -86 -17 -154 -31 -69 -14 -128 -22 -131
-18 -8 9 -73 334 -68 337 2 2 134 29 293 60 160 32 293 61 298 65 7 7 -6 97
-15 106 -2 3 -21 7 -42 11 -21 3 -48 7 -59 10 -12 2 -37 6 -57 9 -20 3 -47 7
-60 10 -13 3 -40 7 -60 10 -20 3 -45 7 -55 9 -11 2 -109 18 -217 36 -116 20
-198 38 -198 44 0 6 12 84 26 174 l27 163 41 -5 c23 -4 52 -8 66 -11 13 -2 40
-7 60 -10 20 -3 47 -7 60 -10 13 -3 40 -7 60 -10 20 -3 47 -7 60 -10 13 -3 40
-7 60 -10 34 -5 46 -7 110 -19 14 -3 42 -8 63 -11 20 -3 52 -7 70 -10 29 -5
33 -3 33 17 1 74 16 184 40 296 9 41 14 75 12 77 -13 12 -499 199 -559 214
-248 63 -498 37 -723 -76 -212 -107 -301 -200 -551 -576 -104 -157 -193 -286
-198 -287 -6 0 -266 169 -286 186 -6 5 329 508 398 598 188 248 475 433 786
506 103 25 187 34 305 34 245 0 354 -27 745 -184 109 -44 205 -80 211 -80 7 0
15 9 19 19 3 11 30 58 60 106 30 48 55 90 55 94 0 7 -836 320 -940 352 -35 11
-80 22 -98 25 -19 3 -44 8 -56 11 -24 6 -312 14 -317 8z M4109 10236 c-2 -2
-31 -7 -63 -11 -84 -9 -232 -49 -334 -90 -478 -193 -832 -664 -879 -1169 -12
-126 -6 -324 12 -416 27 -140 65 -258 123 -382 25 -54 48 -98 51 -98 3 0 14
18 25 39 28 60 93 120 166 155 131 62 290 33 393 -72 220 -224 63 -595 -255
-602 -15 0 -10 -14 26 -87 88 -177 141 -373 151 -560 12 -218 15 -255 31 -330
31 -151 83 -274 172 -412 74 -112 178 -214 354 -346 l146 -110 7 -65 c4 -36 8
-72 10 -80 1 -8 6 -40 9 -71 4 -31 8 -65 10 -75 2 -11 7 -48 11 -84 4 -36 8
-67 10 -70 1 -3 6 -36 10 -73 3 -37 8 -76 10 -85 1 -9 6 -42 10 -72 3 -30 8
-66 10 -80 2 -14 7 -50 10 -80 3 -30 8 -62 10 -70 2 -8 7 -44 10 -80 4 -36 8
-72 10 -80 1 -8 6 -40 10 -70 3 -30 8 -66 10 -80 2 -14 7 -50 10 -80 3 -30 8
-62 10 -70 2 -8 7 -44 10 -80 4 -36 8 -72 10 -80 1 -8 6 -40 10 -70 3 -30 8
-66 10 -80 2 -14 7 -50 10 -80 3 -30 8 -62 10 -70 2 -8 7 -44 10 -80 4 -36 8
-72 10 -80 1 -8 6 -40 10 -70 3 -30 8 -66 10 -80 2 -14 7 -50 10 -80 3 -30 8
-62 10 -70 2 -8 6 -42 10 -75 3 -33 8 -71 10 -85 8 -53 15 -107 20 -147 12
-98 16 -129 20 -153 2 -14 7 -47 10 -75 9 -77 34 -232 50 -315 8 -41 17 -84
19 -95 17 -86 76 -297 121 -430 151 -454 383 -885 679 -1264 81 -104 101 -120
143 -115 33 3 365 115 382 127 16 13 11 51 -25 207 -9 36 -18 76 -20 90 -3 14
-12 54 -20 90 -9 36 -18 76 -20 90 -3 14 -12 54 -20 90 -9 36 -18 75 -20 88
-3 13 -16 76 -30 140 -41 188 -38 170 -64 322 -6 30 -12 64 -14 75 -2 11 -7
45 -12 75 -4 30 -8 57 -9 60 -1 3 -5 32 -9 65 -4 32 -9 66 -11 75 -1 8 -6 46
-10 84 -4 38 -8 79 -10 90 -2 12 -7 57 -10 101 -4 44 -9 94 -11 110 -26 252
-26 968 1 1245 1 19 6 71 10 114 4 43 8 86 10 95 1 9 6 47 10 84 3 37 8 76 10
85 1 9 6 40 9 67 12 85 17 117 33 210 8 50 17 104 20 120 17 106 86 409 161
704 l87 345 140 105 c162 122 272 229 337 327 127 190 191 380 203 600 12 218
16 262 35 356 25 120 69 246 126 361 l44 87 -28 1 c-127 4 -252 82 -309 193
-32 63 -37 85 -36 172 1 222 221 386 440 328 91 -24 174 -90 219 -174 16 -30
24 -37 32 -28 39 49 128 279 151 388 6 30 14 66 16 80 9 40 19 180 19 250 -1
306 -98 599 -282 850 -72 98 -228 253 -322 319 -190 134 -343 196 -630 257
-35 8 -2063 17 -2071 10z m1261 -3191 c129 -19 155 -24 171 -29 8 -3 26 -7 40
-10 67 -11 296 -96 398 -148 117 -59 291 -167 291 -181 0 -6 -169 -266 -186
-286 -2 -2 -43 22 -91 54 -210 136 -456 227 -688 253 -81 9 -304 9 -387 -1
-221 -26 -458 -115 -666 -250 -51 -33 -94 -58 -96 -56 -17 20 -186 280 -186
286 0 14 194 134 305 188 166 81 373 148 525 171 25 3 68 10 95 14 80 12 383
9 475 -5z m-77 -699 c37 -4 78 -9 90 -12 161 -30 265 -61 399 -116 54 -22 102
-46 108 -53 14 -17 -135 -320 -153 -312 -105 46 -215 87 -266 101 -67 19 -69
19 -166 35 -63 10 -345 8 -405 -3 -94 -18 -224 -58 -309 -95 -52 -23 -96 -41
-98 -41 -5 0 -153 299 -153 308 0 22 308 136 430 161 92 18 112 21 185 27 39
4 71 7 72 8 6 4 208 -2 266 -8z m7 -725 c36 -11 93 -37 127 -58 64 -39 163
-124 163 -139 0 -5 -55 -63 -121 -130 l-121 -122 -46 44 c-111 107 -258 105
-367 -4 l-40 -39 -126 124 -127 125 55 51 c90 86 165 128 277 157 93 24 234
21 326 -9z m-105 -685 c65 -7 79 -10 146 -35 87 -33 249 -154 249 -186 0 -6
-54 -64 -119 -129 l-120 -119 -49 44 c-65 59 -116 78 -195 75 -71 -3 -111 -20
-174 -79 l-44 -41 -124 124 -125 124 38 39 c93 96 248 173 370 184 31 3 58 7
60 8 2 2 11 1 20 -1 9 -2 40 -5 67 -8z M8609 10236 c-2 -2 -29 -7 -59 -10 -30
-4 -86 -15 -125 -25 -73 -19 -963 -348 -979 -362 -5 -4 12 -38 36 -76 25 -37
55 -87 67 -110 l21 -43 48 19 c26 10 137 55 247 99 203 81 303 115 366 126 19
3 45 8 59 11 113 25 372 25 490 0 14 -3 39 -8 55 -11 60 -10 235 -74 314 -113
192 -97 329 -207 465 -376 56 -68 421 -613 415 -619 -19 -16 -280 -186 -286
-186 -5 0 -95 130 -201 289 -194 292 -268 385 -364 459 -113 87 -261 160 -388
193 -175 44 -369 42 -537 -7 -65 -19 -518 -193 -544 -210 -4 -2 -2 -23 3 -46
12 -52 17 -75 23 -108 3 -14 7 -34 9 -45 6 -32 16 -117 18 -158 l2 -38 41 6
c22 4 54 9 70 11 17 3 37 7 45 9 8 2 35 6 60 9 25 3 56 8 70 11 13 2 40 7 60
10 20 3 47 7 60 10 13 3 40 7 60 10 34 5 53 8 110 20 14 2 44 7 67 10 l41 6 7
-53 c4 -29 9 -62 11 -73 16 -79 36 -216 33 -219 -2 -2 -170 -31 -374 -65 -203
-34 -371 -63 -373 -65 -4 -5 -15 -63 -16 -91 -1 -18 24 -25 294 -79 162 -33
296 -60 298 -62 5 -3 -60 -328 -67 -336 -4 -5 -149 21 -323 55 l-315 64 -36
-73 -36 -72 249 -187 250 -187 -27 -37 c-16 -21 -62 -83 -103 -139 -41 -56
-78 -101 -83 -102 -4 0 -98 69 -210 153 -111 84 -216 163 -234 175 l-32 23
-71 -106 c-153 -229 -211 -390 -225 -630 -16 -280 -18 -295 -52 -425 -68 -266
-201 -497 -402 -697 -57 -57 -102 -105 -100 -106 12 -9 1150 -638 1184 -655
175 -87 420 -88 613 -1 77 34 172 101 228 161 46 47 624 853 624 869 0 8 -453
1601 -465 1637 -7 19 -26 33 497 -360 263 -197 482 -358 487 -358 25 0 239
302 319 450 77 143 176 417 197 545 3 17 8 41 10 55 12 59 15 76 22 144 4 39
8 161 8 271 0 242 -8 315 -51 495 -82 335 -258 644 -510 896 -215 214 -476
363 -703 400 -18 3 -43 8 -55 11 -26 6 -301 15 -307 9z M6241 5173 c-46 -190
-102 -443 -114 -518 -3 -16 -8 -49 -12 -71 -4 -23 -3 -44 1 -47 5 -2 149 88
321 202 l312 206 -50 121 -50 121 -174 96 c-95 53 -176 97 -178 97 -3 0 -28
-93 -56 -207z M3753 5277 l-162 -90 -50 -120 -49 -120 247 -165 c312 -208 285
-194 276 -140 -9 57 -12 83 -19 143 -6 45 -11 82 -21 155 -2 14 -7 52 -10 85
-4 33 -8 67 -10 75 -2 8 -7 40 -10 70 -3 30 -8 66 -10 80 -2 14 -7 45 -10 70
-4 25 -7 46 -8 46 -1 1 -75 -39 -164 -89z M2945 4828 c-242 -138 -390 -200
-530 -222 -21 -4 -41 -9 -43 -11 -15 -15 90 -294 160 -425 80 -149 189 -304
295 -420 l23 -25 1 25 c0 14 2 32 3 40 2 8 7 44 11 80 4 36 9 74 11 85 1 11 6
40 9 65 26 194 111 556 179 766 39 119 40 125 29 123 -5 -1 -71 -37 -148 -81z
M7140 4903 c0 -3 16 -56 36 -117 35 -107 117 -420 127 -481 3 -16 8 -41 11
-55 12 -51 53 -305 61 -380 9 -80 16 -135 19 -138 2 -1 35 36 75 84 167 200
291 423 371 666 33 101 36 118 18 119 -7 0 -20 2 -28 4 -8 2 -31 6 -50 9 -113
20 -233 73 -469 204 -170 96 -171 96 -171 85z M3370 4577 c-10 -23 -56 -194
-64 -237 -3 -14 -14 -65 -25 -115 -11 -49 -22 -108 -25 -129 -4 -21 -8 -48
-11 -60 -2 -12 -7 -39 -10 -61 -3 -22 -7 -53 -10 -70 -8 -52 -14 -98 -20 -160
-3 -33 -8 -78 -11 -100 -3 -22 -7 -186 -10 -365 l-5 -325 39 100 c161 416 360
783 598 1106 35 48 64 90 64 95 -1 5 -113 84 -251 176 -236 157 -251 165 -259
145z M6613 4432 c-139 -92 -253 -171 -253 -176 0 -5 29 -47 64 -95 238 -323
436 -690 598 -1106 l39 -100 -5 330 c-2 182 -7 341 -9 355 -3 14 -8 57 -12 95
-7 72 -12 117 -20 170 -3 17 -7 48 -10 70 -3 22 -8 49 -10 61 -3 12 -7 39 -11
60 -3 21 -10 59 -16 84 -5 25 -12 56 -14 70 -5 25 -66 269 -81 322 l-8 28
-252 -168z M6039 4038 c0 -18 -2 -40 -3 -48 -33 -174 -40 -958 -11 -1255 2
-22 7 -69 10 -105 9 -104 16 -173 20 -200 2 -14 7 -52 11 -85 3 -33 8 -69 10
-80 2 -11 7 -40 10 -65 3 -25 7 -52 9 -60 1 -8 6 -35 10 -60 8 -51 12 -74 20
-110 2 -14 7 -38 10 -55 3 -16 7 -39 9 -50 3 -11 14 -63 25 -115 28 -136 81
-372 87 -392 4 -15 10 -14 57 6 83 37 150 49 248 44 49 -2 89 -3 89 -1 0 14
-56 122 -92 179 -103 160 -165 330 -194 530 -4 27 -8 378 -8 780 l-1 731 -39
64 c-78 127 -256 378 -268 379 -5 0 -8 -15 -9 -32z M4003 3812 c-50 -75 -97
-148 -104 -162 -11 -21 -14 -215 -15 -1095 0 -588 -4 -1101 -8 -1139 -17 -158
-76 -334 -163 -481 -73 -126 -122 -219 -123 -231 0 -8 10 -10 33 -5 42 10 149
5 210 -8 54 -13 145 -56 196 -95 l33 -25 37 29 c46 37 154 86 212 96 70 12
183 7 246 -11 62 -18 172 -74 192 -99 11 -13 21 -10 72 26 69 46 175 86 242
90 l45 3 -32 45 c-261 362 -483 794 -624 1217 -44 129 -115 378 -128 447 -2
11 -11 55 -19 96 -18 89 -20 102 -30 160 -4 25 -9 52 -10 61 -2 9 -6 40 -10
69 -4 29 -8 60 -10 69 -1 9 -6 45 -10 81 -3 36 -8 72 -10 80 -2 8 -7 40 -10
70 -3 30 -8 66 -10 80 -2 14 -7 50 -10 80 -4 30 -9 63 -10 72 -2 9 -7 48 -10
85 -4 37 -9 70 -10 73 -2 3 -6 34 -10 70 -4 36 -9 73 -11 84 -2 10 -6 44 -10
75 -3 31 -8 63 -9 71 -2 8 -6 44 -10 80 -4 36 -10 68 -14 72 -4 4 -48 -54 -98
-130z M6465 1046 c-80 -36 -107 -91 -109 -216 -1 -52 -1 -102 1 -110 3 -13 31
-15 176 -14 l172 0 3 95 c3 102 -6 152 -39 193 -44 55 -142 81 -204 52z M3625
332 c-75 -48 -92 -88 -94 -225 l-2 -107 178 0 179 0 -2 108 c-2 125 -16 168
-72 210 -46 35 -142 43 -187 14z M4328 330 c-22 -12 -48 -38 -63 -63 -22 -39
-25 -56 -28 -155 l-2 -112 178 0 179 0 -4 118 c-3 107 -5 122 -28 155 -48 72
-155 97 -232 57z M5045 336 c-39 -17 -82 -67 -93 -109 -5 -18 -8 -75 -8 -127
l1 -95 177 -3 177 -2 -3 112 c-3 128 -14 160 -72 204 -43 33 -130 43 -179 20z"/>
</g>
</svg>
