<svg xmlns="http://www.w3.org/2000/svg" viewBox="0 0 1024 1024">
<g transform="translate(0,1024) scale(0.1,-0.1)">
<path fill="currentColor" d="M2468 10235 c-1 -2 -23 -6 -48 -10 -187 -27 -395 -156 -522 -324 -49
-65 -437 -821 -421 -821 14 1 239 163 326 235 46 39 130 112 185 164 116 107
149 131 235 172 212 98 488 68 672 -74 114 -89 173 -177 255 -384 35 -87 66
-162 70 -166 4 -5 40 46 80 113 41 66 76 123 79 125 9 5 296 -171 294 -181 -1
-5 -80 -141 -176 -302 -96 -161 -192 -332 -212 -380 -33 -79 -74 -214 -91
-302 -11 -58 -14 -341 -4 -400 5 -30 12 -68 15 -85 12 -74 84 -281 118 -343
l13 -23 19 35 19 34 158 -79 158 -79 -221 -443 c-122 -243 -232 -472 -245
-509 -35 -102 -47 -204 -41 -330 10 -224 94 -420 250 -585 62 -66 80 -85 158
-169 19 -22 72 -86 118 -144 361 -456 596 -999 686 -1580 3 -19 7 -46 10 -60
2 -14 7 -45 10 -70 3 -25 8 -52 10 -60 2 -8 7 -40 10 -70 4 -30 8 -57 10 -60
1 -3 6 -32 10 -65 3 -32 8 -62 10 -65 1 -3 6 -32 10 -65 3 -32 8 -62 10 -65 1
-3 6 -32 10 -65 3 -32 8 -62 10 -65 1 -3 6 -32 10 -65 3 -32 8 -62 10 -65 1
-3 6 -32 10 -65 3 -32 8 -62 10 -65 1 -3 6 -32 10 -65 3 -32 8 -62 10 -65 1
-3 6 -32 10 -65 3 -32 8 -62 10 -65 1 -3 6 -32 10 -65 3 -32 8 -62 10 -65 1
-3 6 -32 10 -65 3 -32 8 -62 10 -65 1 -3 6 -32 10 -65 3 -32 8 -62 10 -65 1
-3 6 -32 10 -65 3 -32 8 -62 10 -65 1 -3 6 -32 10 -65 3 -32 8 -62 10 -65 1
-3 6 -32 10 -65 3 -32 8 -62 10 -65 1 -3 6 -32 10 -65 3 -32 8 -62 10 -65 1
-3 6 -32 10 -65 3 -32 8 -62 10 -65 1 -3 6 -32 10 -65 3 -32 8 -62 10 -65 1
-3 6 -32 10 -65 3 -32 8 -62 10 -65 1 -3 6 -32 10 -65 3 -32 8 -62 10 -65 1
-3 6 -32 10 -65 3 -32 8 -62 10 -65 1 -3 6 -32 10 -65 3 -32 8 -62 10 -65 1
-3 6 -29 9 -59 4 -30 9 -64 11 -75 2 -12 7 -39 10 -61 3 -22 8 -53 10 -70 3
-16 7 -43 10 -59 4 -29 14 -93 19 -131 3 -19 11 -20 206 -20 195 0 203 1 206
20 5 38 15 102 19 131 3 16 7 43 10 59 2 17 7 48 10 70 3 22 8 49 10 61 2 11
7 45 11 75 3 30 8 56 9 59 2 3 7 33 10 65 4 33 9 62 10 65 2 3 7 33 10 65 4
33 9 62 10 65 2 3 7 33 10 65 4 33 9 62 10 65 2 3 7 33 10 65 4 33 9 62 10 65
2 3 7 33 10 65 4 33 9 62 10 65 2 3 7 33 10 65 4 33 9 62 10 65 2 3 7 33 10
65 4 33 9 62 10 65 2 3 7 33 10 65 4 33 9 62 10 65 2 3 7 33 10 65 4 33 9 62
10 65 2 3 7 33 10 65 4 33 9 62 10 65 2 3 7 33 10 65 4 33 9 62 10 65 2 3 7
33 10 65 4 33 9 62 10 65 2 3 7 33 10 65 4 33 9 62 10 65 2 3 7 33 10 65 4 33
9 62 10 65 2 3 7 33 10 65 4 33 9 62 10 65 2 3 7 33 10 65 4 33 9 62 10 65 2
3 7 33 10 65 4 33 9 62 10 65 2 3 7 33 10 65 4 33 9 62 10 65 2 3 7 33 10 65
4 33 9 62 10 65 2 3 7 33 10 65 4 33 9 62 10 65 2 3 6 30 10 60 3 30 8 62 10
70 2 8 7 35 10 60 3 25 8 56 10 70 3 14 7 41 10 60 107 691 415 1317 901 1829
55 57 116 127 138 155 71 95 143 262 164 381 4 22 7 103 6 180 -2 203 -11 230
-279 765 l-225 450 159 79 159 80 12 -29 c7 -17 17 -30 22 -30 28 0 124 280
146 430 9 60 9 323 0 380 -39 242 -79 335 -316 730 -96 159 -168 288 -163 293
17 17 286 175 292 171 3 -2 39 -58 78 -124 40 -67 75 -120 77 -117 3 2 36 80
74 172 77 187 114 249 196 330 190 187 488 236 737 122 79 -36 113 -61 229
-169 113 -105 201 -180 293 -249 70 -53 212 -149 220 -149 9 0 -356 722 -398
785 -21 33 -74 94 -116 135 -109 106 -231 174 -386 216 -73 19 -271 27 -340
13 -27 -6 -60 -12 -73 -15 -50 -10 -160 -57 -227 -96 -50 -30 -125 -95 -265
-234 l-195 -192 -100 24 c-100 24 -304 68 -360 78 -98 17 -202 33 -270 42 -27
3 -57 8 -66 9 -9 2 -52 7 -95 11 -43 3 -92 8 -109 10 -251 25 -1165 25 -1301
0 -11 -2 -55 -7 -98 -11 -43 -4 -86 -8 -95 -10 -9 -1 -38 -6 -66 -9 -82 -11
-115 -16 -210 -32 -102 -17 -382 -76 -464 -99 l-55 -14 -195 193 c-248 244
-339 300 -546 339 -68 13 -257 22 -267 12z m1412 -2294 c3 0 5 -79 4 -173 l0
-173 -177 -3 -177 -2 0 173 c0 96 2 176 4 178 4 4 331 4 346 0z m2828 -171
l-3 -175 -175 0 -175 0 -1 165 c0 91 1 170 3 175 2 6 70 10 178 10 l175 0 -2
-175z m-1429 -895 c42 -5 122 -18 180 -30 108 -21 441 -140 441 -157 0 -10
-149 -308 -153 -308 -2 0 -51 18 -110 40 -109 41 -258 84 -337 98 -58 9 -303
9 -355 0 -22 -4 -55 -10 -73 -14 -53 -9 -179 -49 -281 -88 -51 -20 -95 -36
-97 -36 -5 0 -154 298 -154 308 0 17 258 112 395 146 87 22 208 42 285 48 51
4 205 0 259 -7z m31 -708 c14 -3 42 -8 64 -12 57 -8 221 -51 301 -78 95 -33
225 -87 225 -95 0 -9 -150 -312 -154 -312 -2 0 -28 11 -57 24 -30 13 -97 38
-149 55 -354 115 -604 101 -997 -58 l-53 -21 -75 151 c-41 82 -75 154 -75 158
0 5 37 24 83 44 157 67 372 127 512 142 33 4 62 9 64 11 5 5 282 -3 311 -9z
m-80 -701 c47 -3 95 -8 106 -10 12 -2 37 -7 55 -10 67 -11 87 -16 190 -47 119
-35 306 -106 314 -119 3 -5 -29 -78 -71 -162 l-77 -154 -94 38 c-382 153 -685
153 -1070 -2 l-91 -36 -76 153 c-42 84 -76 155 -76 158 0 18 286 121 425 153
123 28 146 32 255 39 52 3 97 7 98 9 2 1 9 1 15 -1 7 -2 50 -6 97 -9z M2415
9345 c-67 -20 -97 -40 -189 -127 -298 -279 -571 -468 -937 -649 -97 -47 -108
-56 -142 -108 -66 -102 -134 -182 -336 -396 -117 -124 -112 -106 -45 -167 77
-69 474 -466 544 -544 104 -116 125 -139 180 -204 30 -36 57 -67 60 -70 3 -3
49 -59 101 -125 397 -499 708 -999 947 -1526 67 -149 167 -395 202 -502 13
-37 26 -64 30 -60 4 4 42 104 84 221 l76 213 -30 59 c-50 98 -90 218 -116 344
-17 81 -22 252 -11 361 19 178 55 282 206 583 l112 224 -52 80 c-207 323 -300
699 -266 1078 7 77 9 94 28 190 15 77 64 227 105 321 l34 80 -111 276 c-125
314 -127 317 -165 359 -78 85 -204 121 -309 89z M7685 9353 c-72 -15 -150 -65
-188 -121 -15 -21 -79 -168 -142 -325 l-115 -286 35 -81 c33 -78 89 -247 99
-300 3 -14 9 -49 15 -79 14 -68 25 -195 25 -286 0 -326 -95 -645 -275 -926
l-50 -77 105 -209 c128 -257 149 -307 181 -428 74 -287 40 -601 -96 -877 l-29
-57 70 -198 c75 -212 98 -268 99 -241 1 9 26 83 57 165 267 712 667 1387 1209
2038 174 210 270 313 562 603 234 233 282 285 271 296 -22 22 -203 218 -249
270 -69 77 -134 160 -175 224 -37 57 -43 61 -184 132 -357 181 -622 368 -920
650 -79 75 -149 111 -228 114 -31 2 -66 1 -77 -1z M3246 4961 c-23 -37 -243
-693 -351 -1047 -185 -606 -387 -1408 -412 -1635 -14 -132 -7 -446 12 -502 2
-7 6 -28 9 -47 10 -66 55 -225 89 -316 95 -246 250 -482 432 -656 21 -20 41
-36 42 -34 2 2 -5 23 -15 47 -61 142 -152 462 -178 626 -3 19 -7 44 -9 55 -3
11 -7 46 -11 77 -3 31 -8 64 -10 74 -22 118 -22 586 0 717 3 14 7 48 11 75 5
45 13 93 31 190 18 98 151 685 185 815 87 334 242 760 398 1098 l62 133 -75
97 c-100 129 -204 244 -210 233z M6970 4950 c-8 -10 -46 -53 -83 -96 -38 -44
-93 -112 -123 -151 l-55 -73 36 -77 c242 -513 378 -924 530 -1606 100 -451
119 -564 132 -772 11 -178 5 -455 -12 -570 -2 -16 -6 -50 -10 -75 -3 -25 -9
-70 -15 -100 -5 -30 -12 -68 -15 -85 -19 -113 -72 -305 -125 -455 -28 -80 -54
-154 -57 -164 -5 -17 79 66 152 150 137 155 270 386 338 584 38 113 54 175 82
320 19 101 26 369 12 490 -11 97 -16 124 -43 245 -14 61 -27 121 -30 134 -51
248 -232 918 -370 1366 -107 346 -306 932 -322 947 -4 3 -14 -2 -22 -12z"/>
</g>
</svg>
