<svg viewBox="0 0 53 53" xmlns="http://www.w3.org/2000/svg"><g><path fill="currentColor" d="m16.1487122 38.8904991c.5923462.9714355 3.1896973 2.9516602 6.2426758 3.0264282 3.0529785.074707 5.5136108-2.3538818 3.1896973-3.6242065s-4.0756226-.3582153-5.0579224.2988892c-2.7224122 1.8210525-4.3744507.2988891-4.3744507.2988891z"/><path fill="currentColor" d="m27.4189758 38.2927208c-2.3239136 1.2703247.1366577 3.6989136 3.1896973 3.6242065 3.0529785-.0747681 5.6502686-2.0549927 6.2426758-3.0264282 0 0-1.6520996 1.5221634-4.3744507-.2988892-.9823608-.6571044-2.7340088-1.5692138-5.0579224-.2988891z"/><circle cx="21.681" cy="30.745" r="1.5"/><circle cx="31.32" cy="30.745" r="1.5"/><path fill="currentColor" d="m30.8299866 2.9001415c-2.4308796-.4755321-5.2818623-.5423057-7.9799805-.1199951-8.8099976 1.3599856-14.5 7.3200073-14.5 15.1900015 0 1.0499878.1599731 2.8599854.4299927 4.9199829 4.1099853-5.2099607 11.6499634-13.5399769 22.0499878-19.9899893z"/><path fill="currentColor" d="m24.480011 22.3701725c2.6599731-.6600342 5.3399658-.5599976 8.0899658.3099976-1-1.7800293-2.0800171-3.6100464-3.1199951-5.2800293-2.1164837 1.9240608-3.6648293 3.5298366-4.9699707 4.9700317z"/><path fill="currentColor" d="m44.6499939 17.9701481c0-4.0899649-1.7600098-7.2399893-3.6600342-9.4400015-3.7646294 2.460845-7.3313065 5.1885319-10.0299683 7.5300283 4.104332 6.4874153 6.6652222 11.7635555 8.3800049 16.2599506.1300049.7600098.1900024 1.5600586.1900024 2.3600464 0 7.6199951-5.8400269 13.8200073-13.0300293 13.8200073s-13.0299682-6.2000121-13.0299682-13.8200072c0-.6000366.0299683-1.1799927.1099854-1.7200317 4.7821236-7.6369953 14.0328541-17.9422607 26-25.8999634-.0008278-.0008273.0081253.0081263-.0599976-.0599976-1.6400146-1.5-3.6699829-2.6400146-5.9700317-3.4100344-12.1499634 7.0700066-20.5599976 16.9899885-24.3499756 22.0400374.5599976 3.2399902 1.3499756 6.4899921 2.2600098 7.9699726.0100098.0200195.0299683.039978.0499878.0599976-.0299683.3300171-.039978.6699829-.039978 1.0200195 0 8.7299805 6.7399902 15.8200073 15.0299683 15.8200073 8.2900391 0 15.0300293-7.0900269 15.0300293-15.8200073 0-.3400269-.0100098-.6700439-.0400391-1.0100098.0200195-.0200195.0400391-.039978.0500488-.0599976 1.7699584-2.9000263 3.1099853-12.580019 3.1099853-15.6400165z"/></g></svg>