<svg viewBox="0 0 64 64" xmlns="http://www.w3.org/2000/svg" data-name="Family Gathering"><path fill="currentColor" d="m47 39c2.08 0 3.99-.98 4.87-2.5.28-.48.11-1.09-.36-1.37-.48-.28-1.09-.11-1.37.36-.52.9-1.78 1.5-3.13 1.5s-2.61-.6-3.13-1.5c-.28-.48-.89-.64-1.37-.36s-.64.89-.36 1.37c.88 1.52 2.79 2.5 4.87 2.5z"/><path fill="currentColor" d="m22.87 32.5c.28-.48.11-1.09-.36-1.37-.48-.28-1.09-.11-1.37.36-.52.9-1.78 1.5-3.13 1.5s-2.61-.6-3.13-1.5c-.28-.48-.89-.64-1.37-.36s-.64.89-.36 1.37c.88 1.52 2.79 2.5 4.87 2.5s3.99-.98 4.87-2.5z"/><path fill="currentColor" d="m60 47.64v-9.02c.61-.71 1-1.61 1-2.62s-.39-1.91-1-2.62v-1.18c.5-.44.85-1.03.96-1.7.14-.88-.1-1.77-.67-2.44-.09-.1-.19-.19-.29-.27v-3.79c0-3.52-1.38-6.81-3.89-9.28-2.51-2.46-5.83-3.77-9.35-3.72-7.03.13-12.76 6.14-12.76 13.4v3.41c-.5.44-.85 1.02-.96 1.69-.14.88.1 1.77.67 2.44.09.1.19.19.29.27v1.17c-.61.71-1 1.61-1 2.62s.39 1.91 1 2.62v9.02c-.21.19-.4.39-.58.6-.73-1.54-2.07-2.75-3.77-3.24l-3.23-.92-2.87-1.91c-.16-.11-.36-.17-.55-.17v-4.2c3.28-1.68 5.61-4.96 5.96-8.8h.04c1.65 0 3-1.35 3-3 0-1.3-.84-2.4-2-2.82v-1.18c1.04 0 1.99-.53 2.54-1.41.88-1.39.46-3.23-.93-4.12.85-.68 1.39-1.68 1.39-2.8 0-.2-.02-.42-.06-.61-.26-1.52-1.47-2.65-2.94-2.96v-1.1c0-.9-.37-1.78-1-2.42-.82-.81-2.06-1.13-3.15-.9-1.19-1.08-2.74-1.68-4.35-1.68h-7c-1.61 0-3.16.6-4.35 1.68-1.09-.23-2.33.09-3.15.9-.63.64-1 1.52-1 2.42v1.1c-1.48.31-2.68 1.45-2.94 2.93-.04.22-.06.44-.06.64 0 1.12.54 2.13 1.39 2.8-1.39.89-1.81 2.73-.93 4.12.57.91 1.54 1.4 2.54 1.4v1.19c-1.16.42-2 1.52-2 2.82 0 1.65 1.35 3 3 3h.04c.35 3.84 2.68 7.12 5.96 8.8v4.2c-.19 0-.39.06-.55.17l-2.87 1.91-3.23.92c-2.56.73-4.35 3.11-4.35 5.77v6.23c0 1.65 1.35 3 3 3h54c1.65 0 3-1.35 3-3v-4.9c0-1.75-.77-3.35-2-4.46zm-34.11-39.88s.02-.01.02-.01c.01-.01.02-.01.02-.01.03-.01.06-.02.08-.03.47-.24 1.16-.12 1.57.29.27.26.42.63.42 1v1.12l-7.36.99c-.05-.12-.09-.24-.14-.35zm-8.89 5.24c0-1.2.6-2 1-2s1 .8 1 2v.03c-.33-.01-.67-.03-1-.03s-.67.02-1 .03zm-9-4c0-.37.15-.74.42-1 .41-.41 1.1-.53 1.57-.29.03.01.08.04.12.05l5.39 3c-.05.11-.09.23-.14.35l-7.36-.99zm-2.85 10.53c-.29-.47-.15-1.08.32-1.38 3.2-2 7.77-3.15 12.53-3.15s9.33 1.15 12.53 3.15c.47.3.61.91.32 1.38-.28.45-.92.6-1.38.32-1.17-.73-2.55-1.33-4.06-1.79-.03-.01-.07-.02-.1-.03-2.21-.66-4.72-1.03-7.31-1.03s-5.1.37-7.32 1.03c-.03.01-.06.02-.08.03-1.52.46-2.9 1.06-4.07 1.79-.47.29-1.08.15-1.38-.32zm3.85 8.47c0-.55-.45-1-1-1h-1c-.55 0-1-.45-1-1s.45-1 1-1c2.76 0 5-2.24 5-5v-.26c1.84-.48 3.89-.74 6-.74s4.16.26 6 .74v.26c0 2.76 2.24 5 5 5 .55 0 1 .45 1 1s-.45 1-1 1h-1c-.55 0-1 .45-1 1 0 4.96-4.04 9-9 9s-9-4.04-9-9zm12 10.58v4.07c-.92.21-2.06.35-3 .35s-2.08-.14-3-.35v-4.07c.95.27 1.96.42 3 .42s2.05-.15 3-.42zm-7.93 5.57c1.4.58 3.61.85 4.93.85s3.53-.27 4.93-.85l1.38.92c-1.75 1.23-3.98 1.93-6.31 1.93s-4.56-.7-6.31-1.93zm37.73 2.83 1.24.25c-1.09 1.69-2.98 2.77-5.04 2.77s-3.95-1.08-5.04-2.77l1.24-.25c.46-.09.8-.5.8-.98v-3.42c.95.27 1.96.42 3 .42s2.05-.15 3-.42v3.42c0 .48.34.89.8.98zm6.2-8.98c-.24 0-.48-.05-.7-.13.7-1.12 1.21-2.37 1.48-3.71.72.3 1.22 1.01 1.22 1.84 0 1.1-.9 2-2 2zm-20.89-9h.89c2.61 0 4.75-2 4.98-4.55 2.28 1.9 6.91 4.55 15.02 4.55h1c.29 0 .57.13.76.35.2.23.27.52.23.82-.08.47-.56.83-1.1.83h-.89c-.55 0-1 .45-1 1 0 4.96-4.04 9-9 9s-9-4.04-9-9c0-.55-.45-1-1-1h-1c-.29 0-.57-.13-.76-.35-.2-.23-.27-.52-.23-.82.08-.47.56-.83 1.1-.83zm.11 5.16c.27 1.34.78 2.59 1.48 3.71-.22.08-.46.13-.7.13-1.1 0-2-.9-2-2 0-.83.5-1.54 1.22-1.84zm23.78 22.84c0 .55-.45 1-1 1h-25v-5.9c0-1.9 1.35-3.55 3.22-3.92l2.68-.54c1.35 2.63 4.09 4.36 7.1 4.36s5.75-1.73 7.1-4.36l2.69.54c1.86.37 3.21 2.02 3.21 3.92z"/></svg>