<svg viewBox="0 0 480 480" xmlns="http://www.w3.org/2000/svg"><g><path fill="currentColor" d="m396.372 353.385c-2.56 3.548-7.531 4.352-11.089 1.807-11.791-8.433-17.17-9.329-62.967-25.122-4.779-1.648-8.946-4.426-12.239-7.973-3.228-3.476-2.599-9.073 1.261-11.831 31.25-22.331 51.658-58.896 51.658-100.136v-59.36c0-13.1-10.612-23.982-23.99-24-31.15-.01-59.82-13.56-80.73-38.13-9.566-11.244-26.964-11.279-36.56 0-20.91 24.57-49.58 38.12-80.73 38.13-13.402.018-23.99 10.925-23.99 24v59.36c0 41.241 20.408 77.805 51.658 100.136 3.859 2.758 4.488 8.354 1.261 11.831-3.293 3.547-7.46 6.325-12.239 7.973l-43.179 14.863c-1.469.398-10.353 3.603-19.76 10.269-3.564 2.526-8.502 1.803-11.06-1.738-31.423-43.501-31.734-99.156-3.412-143.254 12.94-20.15 28.24-53.78 27.71-99.61-.458-64.115 50.008-110.6 108.021-110.6h48c59.44 0 107.82 48.27 108 107.68.363 6.266-3.148 54.447 27.73 102.53 28.251 43.989 28.09 99.587-3.354 143.175z"/><path fill="currentColor" d="m338.996 142.77c-35.91-.02-68.91-15.56-92.91-43.76-3.191-3.758-8.988-3.759-12.18 0-24 28.2-57 43.74-92.91 43.76-4.42.01-8 3.59-8 8v59.36c0 58.99 48 106.99 107 106.99s107-48 107-106.99v-59.36c0-4.41-3.58-7.99-8-8zm-109.168 2.248 3.748-5.041c3.195-4.297 9.643-4.3 12.84 0l3.748 5.041c6.13 8.243.315 20.232-10.168 20.232-10.48 0-16.3-11.986-10.168-20.232zm-22.832 53.982v-14c0-4.418 3.582-8 8-8s8 3.582 8 8v14c0 4.418-3.582 8-8 8s-8-3.582-8-8zm57.748 57.749c-13.677 13.678-35.818 13.68-49.497 0-3.125-3.124-3.125-8.189 0-11.314 3.125-3.124 8.19-3.124 11.313 0 7.426 7.425 19.443 7.426 26.87 0 3.124-3.125 8.189-3.124 11.313 0 3.126 3.124 3.126 8.189.001 11.314zm8.252-57.749c0 4.418-3.582 8-8 8s-8-3.582-8-8v-14c0-4.418 3.582-8 8-8s8 3.582 8 8z"/><path fill="currentColor" d="m125.702 452.914c4.003-14.75 12.441-24.098 12.798-24.489 11.922-13.04 31.374-20.454 51.346-17.503 3.918.337 8.837.536 14.474.296 3.795-.162 5.285-5.032 2.192-7.236-19.529-13.917-34.093-32.935-43.405-54.949-.816-1.928-2.998-2.883-4.977-2.2-52.271 18.03-34.483 11.941-38.295 13.206l-.05.02c-25 8.66-41.79 32.25-41.79 58.71v53.231c0 4.418 3.582 8 8 8h34.171c2.38 0 4.203-2.063 3.975-4.432-.733-7.628-.423-15.343 1.561-22.654z"/><path fill="currentColor" d="m243.137 402.673c26.907-11.242 48.122-32.724 59.812-61.742.644-1.599.213-3.419-1.086-4.552-2.938-2.56-5.533-5.476-7.726-8.671-2.103-3.062-6.005-4.339-9.464-2.986-29.188 11.414-61.199 10.99-89.337.004-3.465-1.353-7.372-.087-9.478 2.98-2.194 3.196-4.79 6.113-7.728 8.674-1.276 1.112-1.749 2.902-1.117 4.472 11.176 27.787 31.702 50.076 59.872 61.819 2 .834 4.251.838 6.252.002z"/><path fill="currentColor" d="m367.806 363.284c-2.207-1.111-4.906-.007-5.637 2.353-7.381 23.832-17.978 46.133-31.688 66.609-2.668 3.984-8.268 4.787-11.968 1.527-3.016-2.658-3.453-7.248-1.219-10.59 13.015-19.473 23.052-40.743 29.988-63.58.622-2.048-.508-4.219-2.532-4.916l-22.899-7.866c-1.98-.679-4.15.284-4.965 2.211-20.915 49.419-66.237 78.292-117.55 78.292-2.928 0-9.453-.213-11.563-.537-14.564-2.243-28.904 3.074-37.463 12.436-.036.04-6.221 7.032-9.166 17.883-1.658 6.109-1.729 12.775-.851 19.445.26 1.98 1.97 3.45 3.967 3.45h249.737c4.418 0 8-3.582 8-8v-53.23c-.001-23.678-13.45-45.048-34.191-55.487z"/></g></svg>