<svg viewBox="0 0 64 64" xmlns="http://www.w3.org/2000/svg" data-name="Layer 2"><path fill="currentColor" d="m31.732 52.077a1 1 0 0 0 -.539 1.307c.371.893.678 1.558.9 2.035l.907-.419.867-.509c-.173-.375-.47-1.016-.827-1.875a1 1 0 0 0 -1.308-.539z"/><path fill="currentColor" d="m30.955 49.959a1 1 0 0 0 .645-1.259c-1.946-6.1-3.473-15.1.3-23.283a39.587 39.587 0 0 1 8.6-12.393 14 14 0 0 0 4.5-10.319v-1.705a1 1 0 0 0 -2 0v1.705a12 12 0 0 1 -3.847 8.847 41.6 41.6 0 0 0 -9.061 13.029c-4.046 8.767-2.448 18.286-.394 24.729a1 1 0 0 0 1.256.649z"/><path fill="currentColor" d="m10.791 22.978 14 3a.96.96 0 0 0 .209.022 1 1 0 0 0 .894-.553l3-6a1 1 0 0 0 -.5-1.366l-14-6a1 1 0 0 0 -1.343.6l-3 9a1 1 0 0 0 .739 1.294z"/><path fill="currentColor" d="m18.354 9.05 11.125 6.8a1 1 0 0 0 1.3-.229l4-5a1 1 0 0 0 -.192-1.434l-11-8a1 1 0 0 0 -1.421.255l-4.125 6.2a1 1 0 0 0 .311 1.407z"/><path fill="currentColor" d="m59.935 17.645a1 1 0 0 0 -.55-.567l-12-5a1 1 0 0 0 -1.2.342l-5 7a1 1 0 0 0 .422 1.5l13.3 5.66a.989.989 0 0 0 .391.08 1 1 0 0 0 .9-.565l3.7-7.66a1 1 0 0 0 .037-.79z"/><path fill="currentColor" d="m51.419 29.092-13-6a1 1 0 0 0 -1.38.634l-2 7a1 1 0 0 0 .62 1.214l11 4a1 1 0 0 0 1.123-.314l4-5a1 1 0 0 0 -.362-1.533z"/><path fill="currentColor" d="m49.336 41.059-14-5a1 1 0 0 0 -1.336.941v7a1 1 0 0 0 .628.929l10 4a1.01 1.01 0 0 0 .372.071 1 1 0 0 0 .833-.445l4-6a1 1 0 0 0 -.5-1.5z"/><path fill="currentColor" d="m9 37h14a1 1 0 0 0 1-1v-6a1 1 0 0 0 -.929-1l-14-1a.976.976 0 0 0 -.753.266 1 1 0 0 0 -.318.734v7a1 1 0 0 0 1 1z"/><path fill="currentColor" d="m24.809 47.534a1 1 0 0 0 .178-.755l-1-5.945a.994.994 0 0 0 -1.058-.834l-14 1a1 1 0 0 0 -.918 1.139l1 7a1 1 0 0 0 .989.861 1.035 1.035 0 0 0 .145-.011l14-2.055a1 1 0 0 0 .664-.4z"/><path fill="currentColor" d="m26.293 55.293-3 3a1 1 0 1 0 1.414 1.414l3-3a1 1 0 0 0 -1.414-1.414z"/><path fill="currentColor" d="m31 59a1 1 0 0 0 -1 1v3a1 1 0 0 0 2 0v-3a1 1 0 0 0 -1-1z"/><path fill="currentColor" d="m37.707 56.293a1 1 0 0 0 -1.414 1.414l3 3a1 1 0 0 0 1.414-1.414z"/><path fill="currentColor" d="m41 51h-4a1 1 0 0 0 0 2h4a1 1 0 0 0 0-2z"/></svg>