<svg viewBox="0 0 60 60" xmlns="http://www.w3.org/2000/svg"><g><path fill="currentColor" d="m17.96 31.69 18.35-.98-9.7 9.7-14.29 14.29c-.2.2-.45.3-.71.3-.25 0-.51-.1-.71-.3-.39-.39-.39-1.02 0-1.41l13.59-13.58-2.13-2.12c-1.12 1.14-3.45 3.02-6.57 3.02-.55 0-1.11-.06-1.71-.19-.54-.12-.88-.65-.76-1.19s.65-.88 1.19-.76c3.06.66 5.41-1.24 6.44-2.29l-3.03-3.03c-.39-.4-.39-1.03 0-1.42z"/><path fill="currentColor" d="m23.73 25.92 17.59-.21-2.89 2.88-18.36.99z"/><path fill="currentColor" d="m46.81 20.22-3.47 3.46-17.59.22 2.63-2.63c1.42-.07 2.58-.12 2.59-.12z"/><path fill="currentColor" d="m44.69 18.31-14.13.78 7.46-7.46z"/><path fill="currentColor" d="m12.76 41.52c-.39-.39-1.02-.39-1.41 0l-2.18 2.18c-.39.39-.39 1.02 0 1.41.2.2.45.29.71.29s.51-.1.71-.29l2.18-2.18c.38-.38.38-1.02-.01-1.41z"/><path fill="currentColor" d="m11.74 39.84c0-.55-.45-1-1-1l-3.08.01c-.55 0-1 .45-1 1s.45 1 1 1l3.08-.01c.56 0 1.01-.45 1-1z"/><path fill="currentColor" d="m10.79 37.94c.19.19.45.29.7.29.26 0 .52-.1.71-.3.39-.39.38-1.03-.01-1.41l-2.19-2.17c-.39-.39-1.03-.38-1.41.01-.39.39-.39 1.03.01 1.42z"/><path fill="currentColor" d="m13.87 36.9h.01c.55-.01 1-.46.99-1.01l-.03-3.08c-.01-.55-.45-.99-1-.99h-.01c-.55.01-1 .46-.99 1.01l.03 3.08c.01.55.45.99 1 .99z"/><path fill="currentColor" d="m53.05 5.29c-.24-.24-.59-.35-.93-.27l-12.83 2.88c-.36.08-.64.35-.74.7s-.01.73.25.99l9.95 9.95c.19.19.45.29.71.29.09 0 .19-.01.28-.04.35-.1.62-.39.7-.74l2.88-12.84c.07-.33-.03-.68-.27-.92z"/></g></svg>