<svg xmlns="http://www.w3.org/2000/svg" viewBox="0 0 1024 1024">
<g transform="translate(0,1024) scale(0.1,-0.1)">
<path fill="currentColor" d="M9637 9744 c-1 -1 -45 -5 -97 -9 -52 -4 -102 -8 -110 -10 -8 -2 -58
-6 -110 -10 -52 -4 -102 -8 -110 -10 -8 -2 -58 -6 -110 -10 -52 -4 -102 -8
-110 -10 -8 -2 -58 -6 -110 -10 -52 -4 -102 -8 -110 -10 -8 -2 -58 -6 -110
-10 -52 -4 -104 -9 -115 -11 -11 -2 -146 -130 -300 -284 l-281 -281 535 -535
535 -535 603 603 c332 332 603 608 603 613 0 6 -116 126 -258 268 l-258 258
-42 -2 c-24 -2 -44 -4 -45 -5z M7588 8703 c-154 -154 -227 -234 -217 -237 198
-70 295 -129 417 -255 89 -94 166 -223 207 -348 l17 -52 230 230 c126 127 228
234 226 239 -2 5 -148 155 -325 333 l-322 323 -233 -233z M6975 8285 c-149
-33 -253 -90 -360 -199 -92 -93 -144 -177 -182 -291 -22 -68 -26 -98 -27 -205
-1 -148 14 -215 76 -340 34 -67 60 -103 128 -170 47 -47 114 -102 150 -123
229 -133 531 -125 750 20 219 145 334 370 326 633 -7 191 -72 338 -215 480
-94 93 -198 154 -316 186 -80 21 -253 26 -330 9z M5894 7009 l-330 -330 329
-329 330 -329 166 166 c91 91 241 242 333 334 l166 167 -51 17 c-269 88 -507
322 -587 580 -7 22 -15 43 -19 47 -4 4 -155 -141 -337 -323z M4224 5339
l-1197 -1197 -1176 -413 c-647 -226 -1189 -417 -1204 -423 -29 -11 -25 -15
1080 -1119 l1108 -1109 11 29 c6 15 197 556 424 1201 l412 1174 1198 1198
1199 1199 -329 329 -329 328 -1197 -1197z M198 3028 c-109 -109 -198 -202
-198 -206 0 -4 532 -538 1183 -1188 l1182 -1181 201 203 201 203 -1184 1183
c-651 651 -1185 1183 -1186 1184 -1 0 -91 -89 -199 -198z"/>
</g>
</svg>
