<svg xmlns="http://www.w3.org/2000/svg" viewBox="0 0 1024 1024">
<g transform="translate(0,1024) scale(0.1,-0.1)">
<path fill="currentColor" d="M6457 10015 c-1 -1 -45 -5 -97 -9 -89 -6 -119 -9 -195 -21 -16 -3
-48 -7 -70 -10 -163 -24 -457 -109 -640 -186 -713 -296 -1286 -866 -1593
-1584 -69 -162 -143 -390 -165 -515 -3 -14 -8 -36 -11 -50 -3 -14 -8 -36 -10
-50 -2 -14 -7 -41 -10 -60 -12 -68 -15 -92 -21 -153 -3 -34 -8 -80 -10 -102
-6 -53 -6 -325 -1 -350 11 -56 30 -114 48 -150 21 -41 77 -117 90 -123 20 -9
5 -28 -22 -30 -96 -7 -244 -92 -316 -180 -90 -110 -125 -208 -124 -347 0 -84
4 -108 32 -183 31 -84 61 -127 156 -224 47 -49 84 -88 81 -89 -223 -38 -374
-157 -449 -354 -32 -85 -36 -218 -10 -313 31 -112 67 -169 187 -292 40 -41 72
-79 72 -85 -1 -11 -38 -52 -207 -233 -64 -68 -123 -131 -131 -141 -9 -10 -68
-73 -131 -141 -63 -68 -122 -131 -131 -141 -8 -10 -69 -75 -135 -145 -65 -70
-126 -135 -134 -144 -8 -10 -67 -72 -130 -140 -63 -68 -122 -131 -130 -140 -8
-9 -67 -72 -130 -140 -63 -68 -122 -131 -130 -140 -8 -9 -67 -72 -130 -140
-63 -68 -122 -130 -130 -140 -8 -9 -69 -74 -134 -144 -66 -70 -127 -135 -135
-145 -9 -10 -68 -73 -131 -141 -63 -68 -122 -131 -130 -140 -8 -9 -67 -72
-130 -140 -63 -68 -123 -132 -133 -144 -40 -46 -150 -156 -156 -156 -3 0 -28
6 -56 13 -129 33 -266 -6 -370 -104 -58 -54 -108 -141 -123 -214 -19 -91 3
-219 52 -299 33 -54 821 -842 871 -872 64 -37 125 -55 195 -58 281 -12 493
252 419 522 -11 38 -10 44 8 60 11 9 75 69 143 132 68 63 131 122 140 130 9 8
72 67 140 130 68 63 130 122 140 130 9 8 74 69 144 134 70 66 135 127 145 135
10 9 73 68 141 131 68 63 132 123 144 133 11 10 48 44 81 75 54 51 323 302
351 327 6 6 66 62 134 125 67 63 131 122 140 130 17 15 192 178 340 316 41 38
111 104 155 145 44 40 136 126 205 190 190 176 224 207 235 207 6 0 46 -34 90
-77 149 -143 247 -191 400 -197 103 -4 162 9 261 55 84 39 189 142 231 226 27
54 56 149 56 183 0 21 11 14 87 -64 95 -95 157 -136 254 -169 78 -26 186 -35
251 -21 17 3 41 8 54 11 92 17 236 120 296 211 43 65 84 173 85 223 l0 33 27
-18 c15 -9 39 -28 53 -41 33 -31 135 -81 185 -90 80 -16 463 -7 564 12 9 1 39
6 66 9 76 10 266 54 379 88 763 226 1403 751 1779 1458 136 256 255 597 293
840 3 19 7 42 9 50 2 8 7 38 10 65 4 28 8 60 10 73 18 110 25 420 11 502 -4
25 -25 81 -46 126 -37 76 -54 95 -320 362 -155 155 -279 285 -277 289 3 5 8
44 12 88 3 44 8 94 10 110 2 17 7 62 10 100 3 39 8 88 10 110 2 22 7 66 10 98
3 31 7 83 10 115 3 31 8 75 10 97 2 22 7 72 10 110 3 39 8 84 10 100 2 17 7
66 10 110 4 44 8 90 10 101 2 12 6 61 10 110 4 49 9 98 11 109 3 11 7 74 10
140 6 106 4 127 -15 183 -55 162 -180 275 -340 307 -31 7 -167 7 -199 1 -12
-3 -61 -8 -110 -11 -48 -4 -94 -8 -103 -10 -8 -2 -55 -6 -105 -10 -49 -4 -96
-9 -105 -10 -8 -2 -55 -6 -105 -10 -49 -4 -96 -9 -104 -10 -8 -2 -53 -6 -100
-10 -47 -3 -96 -8 -110 -10 -14 -2 -59 -7 -100 -11 -41 -3 -88 -8 -105 -9 -16
-2 -68 -7 -115 -10 -47 -4 -92 -9 -101 -10 -8 -2 -54 -6 -101 -10 l-86 -7
-278 276 c-293 290 -326 316 -449 352 -41 12 -100 18 -188 19 -70 1 -128 1
-130 0z m253 -200 c76 -16 120 -51 343 -273 125 -125 227 -230 227 -234 0 -5
-6 -8 -14 -8 -20 0 -208 -63 -319 -107 -781 -308 -1586 -985 -2114 -1778 -194
-291 -357 -619 -448 -905 -20 -63 -40 -123 -44 -133 -5 -15 -49 24 -235 210
-290 289 -281 273 -281 508 0 247 23 425 85 662 132 498 390 931 783 1311 256
248 603 463 957 592 117 43 378 113 460 124 25 3 59 8 75 11 75 12 106 15 200
21 55 4 101 7 102 8 7 5 194 -2 223 -9z m2456 -517 c102 -47 149 -124 149
-238 -1 -67 -13 -229 -20 -271 -2 -8 -6 -55 -10 -105 -4 -49 -9 -96 -10 -105
-2 -8 -6 -55 -10 -105 -4 -49 -9 -96 -10 -105 -2 -8 -6 -55 -10 -105 -4 -49
-9 -96 -10 -105 -2 -8 -6 -55 -10 -105 -4 -49 -9 -96 -10 -105 -2 -8 -6 -55
-10 -105 -4 -49 -9 -96 -11 -104 -1 -8 -3 -24 -3 -35 -1 -14 -227 206 -751
730 -412 412 -748 751 -746 752 6 6 39 11 126 18 47 3 96 8 110 10 14 2 63 7
110 10 47 4 92 9 101 10 8 2 55 6 105 10 49 4 96 9 105 10 8 2 55 6 105 10 49
4 96 9 104 10 8 2 53 6 100 10 47 4 99 9 115 11 17 1 66 6 110 10 44 3 81 8
83 9 2 2 38 3 80 3 56 0 89 -6 118 -20z m-866 -1003 c767 -767 849 -852 843
-875 -124 -524 -452 -1119 -889 -1610 -85 -95 -337 -346 -429 -427 -457 -400
-981 -704 -1444 -838 -64 -18 -132 -36 -152 -40 l-34 -6 -849 848 -848 848 6
37 c9 57 73 261 118 378 399 1034 1460 2077 2483 2440 117 41 315 98 333 96 7
-1 395 -384 862 -851z m1242 -1242 c131 -132 234 -245 246 -269 38 -75 45
-176 28 -406 -8 -103 -11 -124 -32 -253 -163 -979 -859 -1806 -1807 -2146 -95
-34 -294 -91 -366 -104 -14 -3 -37 -7 -51 -10 -14 -3 -45 -8 -70 -11 -25 -3
-54 -8 -65 -10 -57 -11 -197 -19 -340 -19 -221 0 -210 -6 -493 277 -122 123
-224 226 -228 230 -3 3 41 20 98 38 636 196 1299 637 1860 1238 438 468 793
1054 949 1565 18 59 36 107 39 107 3 0 107 -102 232 -227z m-5761 -1680 c57
-29 142 -110 816 -785 838 -839 805 -800 809 -941 5 -144 -68 -263 -201 -323
-50 -23 -74 -28 -140 -28 -148 1 -101 -39 -945 805 -412 411 -761 766 -775
787 -55 84 -67 221 -27 314 12 26 40 68 63 93 77 83 150 114 265 111 57 -1 83
-8 135 -33z m602 -1882 c-21 -18 -70 -63 -108 -100 -102 -96 -315 -293 -335
-311 -9 -8 -72 -67 -140 -130 -68 -63 -130 -122 -140 -130 -9 -8 -74 -69 -144
-134 -70 -66 -135 -127 -145 -135 -10 -9 -73 -68 -141 -131 -68 -63 -130 -122
-140 -130 -9 -8 -74 -69 -144 -134 -70 -66 -135 -127 -145 -135 -10 -9 -73
-68 -141 -131 -68 -63 -131 -122 -141 -131 -10 -8 -75 -69 -145 -135 -70 -65
-135 -126 -144 -134 -10 -8 -72 -67 -140 -130 -68 -63 -131 -122 -141 -131
-10 -8 -75 -69 -145 -135 -70 -65 -134 -124 -144 -131 -14 -10 -64 36 -365
337 l-348 348 69 74 c38 40 97 102 131 138 34 36 70 75 80 86 10 12 70 76 133
144 63 68 122 131 130 140 8 9 67 72 130 140 63 68 123 132 132 142 9 11 47
52 85 92 94 99 295 315 314 337 8 10 69 75 135 145 65 70 126 135 134 144 8
10 67 72 130 140 63 68 122 131 131 141 8 10 69 75 135 145 65 70 126 135 134
144 8 10 67 72 130 140 63 68 122 131 130 140 8 9 66 72 128 138 62 66 129
139 149 162 l37 41 448 -448 448 -448 -37 -34z"/>
</g>
</svg>
