<svg viewBox="0 0 32 32" xmlns="http://www.w3.org/2000/svg"><path fill="currentColor" d="m19 5v-1c0-1.657-1.343-3-3-3s-3 1.343-3 3v1c-2.209 0-4 1.791-4 4v.005c2.011-.652 4.738-.684 7 1.023 2.261-1.708 4.989-1.676 7-1.023v-.005c0-2.209-1.791-4-4-4zm-3 3-1.125-1.5 1.125-1.5 1.125 1.5z"/><path fill="currentColor" d="m24 27.5s-5.571-.431-6-2.021c-.226-.839-.126-4.592-.051-5.788.029-.39.351-.691.743-.691h.022c.429 0 .769.359.744.788-.035.587-.076 1.44-.095 2.331 2.162-1.192 3.637-3.476 3.637-6.119v-5.389c-1.766-.729-4.447-.904-6.497.946-.143.129-.323.193-.503.193s-.36-.064-.503-.193c-2.049-1.851-4.729-1.675-6.497-.946v5.389c0 2.646 1.479 4.933 3.645 6.123-.058-.914-.091-1.754-.113-2.35-.015-.423.322-.773.745-.773.403 0 .731.319.745.722.034 1.017.106 2.232.167 2.988h.001c.127 1.575.326 3.081.643 3.957 1.375 3.791 10.167 3.333 10.167 3.333-.647-.541-1-1.623-1-2.5zm-5-14.5c.552 0 1 .448 1 1s-.448 1-1 1-1-.448-1-1 .448-1 1-1zm-6 2c-.552 0-1-.448-1-1s.448-1 1-1 1 .448 1 1-.448 1-1 1z"/><path fill="currentColor" d="m7.5 16.736c-.671 1.2-1.937 2.146-3.251 2.253-.156.013-.314-.051-.414-.172-1.734-2.09-1.829-8.18-1.835-11.304 0-.281.236-.514.518-.503 2.25.09 4.048.777 4.982 2.064z"/><path fill="currentColor" d="m24.5 9.074c.934-1.287 2.732-1.973 4.982-2.063.282-.012.518.221.518.502-.005 3.123-.101 9.214-1.834 11.304-.1.121-.258.185-.414.172-1.314-.108-2.58-1.054-3.251-2.253v-7.662z"/></svg>