<svg viewBox="0 0 512 512" xmlns="http://www.w3.org/2000/svg"><g><path fill="currentColor" d="m391 136v15h90v-15c0-18.735-18.149-32.274-30-39.12v-35.88h-30v35.88c-11.851 6.846-30 20.385-30 39.12z"/><path fill="currentColor" d="m481 271h31v-30h-151c0 5.615 0 127.795 0 120h120zm-45 45h-30v-30h30z"/><path fill="currentColor" d="m30 361h121c0-42.744 0-123.081 0-120h-151v30h30zm46-75h30v30h-30z"/><path fill="currentColor" d="m121 467h30v45h-30z"/><path fill="currentColor" d="m241 467h30v45h-30z"/><path fill="currentColor" d="m361 467h30v45h-30z"/><path fill="currentColor" d="m91 437h90v75h30v-75h90v75h30v-75h90v75h91v-121h-512v121h91z"/><path fill="currentColor" d="m241 331v30h30v-30c0-8.276-6.724-15-15-15s-15 6.724-15 15z"/><path fill="currentColor" d="m331 361c0-42.744 0-123.081 0-120h-150c0 5.615 0 127.795 0 120h30v-30c0-24.814 20.186-45 45-45s45 20.186 45 45v30z"/><path fill="currentColor" d="m31 181h450v30h-450z"/><path fill="currentColor" d="m61 61v35.88c-11.851 6.846-30 20.385-30 39.12v15h90v-15c0-18.735-18.149-32.274-30-39.12v-35.88z"/><path fill="currentColor" d="m329.943 151h26.364c-7.744-25.739-24.5-45.518-41.415-61.674 6.64 16.573 12.995 36.508 15.051 61.674z"/><path fill="currentColor" d="m182.057 151c2.056-25.166 8.412-45.101 15.051-61.674-16.915 16.155-33.671 35.936-41.415 61.674z"/><path fill="currentColor" d="m299.932 151c-2.369-24.313-9.706-43.185-16.613-59.854-6.328-15.292-12.319-29.736-12.319-45.146v-46h-30v46c0 15.41-5.991 29.854-12.319 45.146-6.907 16.668-14.244 35.541-16.613 59.854z"/></g></svg>