<svg viewBox="0 0 64 64" xmlns="http://www.w3.org/2000/svg"><path fill="currentColor" d="m14.118 53.5c-1.264 0-2.344.84-2.568 1.997-.146.75.044 1.512.521 2.091.479.58 1.182.912 1.93.912h38.151c-.97-2.049-.43-3.971.025-5z"/><path fill="currentColor" d="m54.5 51c0-.827-.673-1.5-1.5-1.5h-39c-3.584 0-6.5 2.916-6.5 6.5s2.916 6.5 6.5 6.5h39c.827 0 1.5-.673 1.5-1.5s-.673-1.5-1.5-1.5h-39c-1.048 0-2.032-.465-2.701-1.276-.667-.81-.934-1.873-.731-2.917.316-1.626 1.81-2.807 3.551-2.807h38.881c.827 0 1.5-.673 1.5-1.5z"/><path fill="currentColor" d="m13.5 48.534v-7.534c0-.276.224-.5.5-.5s.5.224.5.5v7.5h38.5c.562 0 1.082.187 1.5.501v-47.501h-40v35.5c0 .276-.224.5-.5.5s-.5-.224-.5-.5v-35.5h-.5c-3.032 0-5.5 2.467-5.5 5.5v45.261c1.218-2.109 3.437-3.556 6-3.727zm28-16.034c-.552 0-1-.449-1-1s.448-1 1-1 1 .449 1 1-.448 1-1 1zm-18.5-28h5c.276 0 .5.224.5.5s-.224.5-.5.5h-5c-.276 0-.5-.224-.5-.5s.224-.5.5-.5zm5.5 14c0 .551-.448 1-1 1s-1-.449-1-1 .448-1 1-1 1 .449 1 1zm-5.125-1.896v5.167c0 .437.355.792.792.792h7.104c.437 0 .792-.355.792-.792v-9.688c0-1.7 1.383-3.083 3.083-3.083h11.74c.491 0 .955.241 1.241.644.275.389.345.864.19 1.305-.611 1.75-2.271 2.927-4.13 2.927h-6.458c-.437 0-.792.355-.792.792v7.104c0 .437.355.792.792.792h9.688c1.7 0 3.083 1.383 3.083 3.083v10.448c0 .491-.24.955-.643 1.241-.389.276-.863.346-1.306.192-1.751-.612-2.927-2.271-2.927-4.13v-5.167c0-.437-.355-.792-.792-.792h-7.104c-.437 0-.792.355-.792.792v9.688c0 1.7-1.383 3.083-3.083 3.083h-11.74c-.491 0-.955-.241-1.241-.644-.275-.389-.345-.864-.19-1.305.611-1.75 2.271-2.927 4.13-2.927h6.458c.437 0 .792-.355.792-.792v-7.104c0-.437-.355-.792-.792-.792h-9.688c-1.7 0-3.083-1.383-3.083-3.083v-10.449c0-.491.24-.955.643-1.241.389-.276.864-.345 1.306-.192 1.751.612 2.927 2.272 2.927 4.131zm19.125 1.896c0 .551-.448 1-1 1s-1-.449-1-1 .448-1 1-1 1 .449 1 1zm-16 13c0-.551.448-1 1-1s1 .449 1 1-.448 1-1 1-1-.449-1-1zm-8.5-27h2c.276 0 .5.224.5.5s-.224.5-.5.5h-2c-.276 0-.5-.224-.5-.5s.224-.5.5-.5z"/><path fill="currentColor" d="m19.722 13.48c-.139.099-.222.258-.222.426v10.448c0 1.149.935 2.083 2.083 2.083h9.688c.988 0 1.792.804 1.792 1.792v7.104c0 .988-.804 1.792-1.792 1.792h-6.458c-1.434 0-2.714.907-3.187 2.257-.062.179.013.325.062.396.099.139.258.222.426.222h11.74c1.148 0 2.083-.935 2.083-2.083v-9.688c0-.988.804-1.792 1.792-1.792h7.104c.988 0 1.792.804 1.792 1.792v5.167c0 1.434.907 2.714 2.257 3.186.182.063.325-.012.396-.062.139-.099.222-.258.222-.426v-10.448c0-1.149-.935-2.083-2.083-2.083h-9.688c-.988 0-1.792-.804-1.792-1.792v-7.104c0-.988.804-1.792 1.792-1.792h6.458c1.434 0 2.714-.907 3.187-2.257.062-.179-.013-.325-.062-.396-.099-.139-.258-.222-.426-.222h-11.74c-1.148 0-2.083.935-2.083 2.083v9.688c0 .988-.804 1.792-1.792 1.792h-7.104c-.988 0-1.792-.804-1.792-1.792v-5.167c0-1.434-.907-2.714-2.257-3.186-.179-.063-.325.013-.396.062z"/></svg>