<svg xmlns="http://www.w3.org/2000/svg" viewBox="0 0 1024 1024">
<g transform="translate(0,1024) scale(0.1,-0.1)">
<path fill="currentColor" d="M2317 10234 c-1 -1 -29 -5 -62 -9 -33 -3 -80 -11 -105 -17 -25 -5
-56 -12 -70 -14 -56 -11 -204 -66 -282 -105 -342 -171 -580 -463 -672 -826
-14 -56 -17 -74 -32 -178 -7 -49 -13 -7534 -6 -7566 3 -14 15 -10 68 21 67 39
249 104 319 114 23 4 52 9 65 12 14 4 228 8 475 9 248 2 452 3 455 4 3 1 5
246 4 546 0 384 3 545 10 546 60 5 573 2 581 -3 6 -4 10 -197 9 -547 -1 -489
1 -541 15 -542 9 -1 1376 -2 3039 -3 2680 -1 3022 1 3023 14 3 51 4 8527 1
8538 -3 9 -620 12 -3041 12 l-3038 0 1 -1377 c1 -966 -2 -1380 -10 -1387 -9
-9 -294 -13 -555 -7 l-35 1 1 1373 c0 754 -1 1378 -4 1385 -3 10 -23 12 -78
10 -41 -1 -75 -3 -76 -4z m4083 -1914 l0 -300 -300 0 -300 0 0 300 0 300 300
0 300 0 0 -300z m-690 -599 c81 -151 238 -242 410 -236 153 6 303 104 374 243
l25 49 273 -94 c150 -52 277 -99 281 -103 13 -12 -63 -167 -124 -255 -29 -42
-92 -113 -140 -158 -515 -484 -1350 -322 -1651 319 -22 47 -37 89 -34 92 4 4
129 50 279 103 150 53 273 97 274 98 1 0 16 -25 33 -58z m-1413 -426 c174 -23
331 -85 481 -188 83 -57 210 -187 267 -272 86 -130 150 -297 174 -450 9 -62 7
-267 -4 -320 -13 -67 -38 -152 -61 -213 -13 -35 -24 -67 -24 -71 0 -7 231 -5
288 2 140 20 281 108 382 238 155 200 327 325 548 399 91 30 119 36 217 47
523 58 1018 -275 1159 -782 39 -139 43 -196 41 -623 -2 -336 -5 -409 -19 -476
-69 -313 -259 -564 -536 -705 -86 -44 -188 -82 -259 -96 -125 -26 -353 -23
-426 5 -14 5 -25 8 -25 5 0 -6 -141 43 -198 70 -149 70 -320 219 -407 354 -97
151 -156 321 -170 489 l-6 82 298 0 299 0 11 -64 c50 -293 350 -444 615 -310
66 33 147 115 176 177 47 99 49 129 47 522 -2 351 -3 373 -23 429 -115 315
-477 428 -749 234 -25 -18 -83 -81 -129 -139 -181 -231 -357 -350 -611 -415
-123 -31 -199 -41 -330 -45 -40 -1 -73 -4 -73 -7 0 -3 20 -44 44 -91 100 -195
140 -365 140 -586 0 -177 -30 -330 -94 -484 -170 -413 -556 -714 -995 -778
-66 -10 -305 -10 -377 0 -147 20 -321 82 -453 161 -141 84 -316 248 -403 377
-147 219 -211 421 -227 712 -5 95 -30 152 -90 205 -42 37 -100 62 -144 62 -21
0 -21 0 -21 301 l0 300 63 -2 c75 -3 217 -39 295 -75 214 -100 383 -291 455
-514 29 -88 36 -132 43 -263 11 -208 68 -343 203 -477 142 -142 296 -203 496
-196 292 9 554 219 631 506 27 103 23 264 -9 365 -69 212 -226 371 -435 441
-41 14 -106 28 -143 31 l-69 6 0 298 c0 232 3 299 13 299 128 4 271 76 350
175 74 92 106 191 102 311 -10 314 -325 526 -624 419 -152 -54 -275 -202 -298
-358 -3 -21 -6 -46 -7 -55 -3 -15 -30 -17 -303 -20 l-301 -2 4 42 c12 141 21
190 55 290 131 397 483 682 894 724 33 4 61 7 62 8 5 4 143 -2 190 -9z M1582
1064 c-200 -41 -375 -217 -416 -418 -55 -264 95 -524 355 -618 l64 -23 3785
-3 3785 -2 -2 527 c-1 291 -2 533 -2 539 -1 16 -7490 14 -7569 -2z"/>
</g>
</svg>
