<svg viewBox="-73 0 481 481.08716" xmlns="http://www.w3.org/2000/svg"><path fill="currentColor" d="m.0429688 375.609375 41.6328122-7.28125 18.449219 105.476563-41.632812 7.28125zm0 0"/><path fill="currentColor" d="m335.269531 337.976562c-7.847656-5.320312-18.242187-4.9375-25.679687.945313-.039063.03125-.082032.066406-.125.101563l-49.207032 36.796874c1.203126 2.894532 2.078126 5.90625 2.621094 8.992188.570313 3.261719-1.613281 6.371094-4.875 6.945312l-80.128906 14.015626c-1.566406.273437-3.179688-.082032-4.484375-1-1.300781-.914063-2.1875-2.308594-2.460937-3.878907-.570313-3.261719 1.613281-6.371093 4.878906-6.941406l73.636718-12.882813c-5.320312-13.691406-19.550781-21.734374-34.023437-19.226562l-48.746094 8.527344c-9.628906 1.671875-19.511719 1.15625-28.917969-1.507813l-5.453124-1.550781c-26.785157-7.691406-55.628907-.113281-75.171876 19.75l12.375 70.765625 7.472657-6.066406c7.367187-6.117188 16.820312-9.132813 26.371093-8.410157l86.960938 6.355469c16.515625.03125 32.617188-5.160156 46-14.835937zm0 0"/><path fill="currentColor" d="m323.96875 218.542969h-19.101562c-1.460938 21.425781-10.027344 41.753906-24.34375 57.757812l13.492187 13.378907c17.996094-19.476563 28.597656-44.648438 29.953125-71.136719zm0 0"/><path fill="currentColor" d="m213.65625 308.429688v19.078124c26.585938-1.144531 51.96875-11.40625 71.882812-29.058593l-13.519531-13.5c-16.277343 14.140625-36.828125 22.410156-58.363281 23.480469zm0 0"/><path fill="currentColor" d="m280.929688 148.402344c14.300781 16.136718 22.757812 36.617187 24.011718 58.140625h19.089844c-1.335938-26.539063-11.792969-51.804688-29.601562-71.523438zm0 0"/><path fill="currentColor" d="m213.65625 116.382812c21.734375 1.125 42.457031 9.539063 58.824219 23.886719l13.519531-13.5c-19.898438-18.023437-45.511719-28.457031-72.34375-29.460937zm0 0"/><path fill="currentColor" d="m93.957031 218.542969c1.476563 26.191406 11.835938 51.09375 29.371094 70.601562l13.5-13.613281c-14.023437-15.832031-22.386719-35.878906-23.769531-56.988281zm0 0"/><path fill="currentColor" d="m201.65625 308.261719c-20.898438-1.503907-40.707031-9.90625-56.3125-23.886719l-13.472656 13.5c19.230468 17.484375 43.847656 27.886719 69.785156 29.488281zm0 0"/><path fill="currentColor" d="m124.824219 212.40625c0 46.46875 37.671875 84.136719 84.136719 84.136719 46.46875 0 84.136718-37.671875 84.132812-84.136719 0-46.46875-37.667969-84.136719-84.136719-84.132812-46.441406.054687-84.078125 37.691406-84.132812 84.132812zm74.808593-27.863281h-12.480468c-3.316406 0-6-2.683594-6-6 0-3.3125 2.683594-6 6-6h43.617187c3.316407 0 6 2.6875 6 6 0 3.316406-2.683593 6-6 6h-9.953125c1.375 2.132812 2.320313 4.507812 2.792969 7h7.160156c3.316407 0 6 2.6875 6 6 0 3.316406-2.683593 6-6 6h-7.160156c-2.535156 10.109375-11.132813 17.550781-21.5 18.601562l20.363281 19.140625c1.789063 1.695313 2.367188 4.3125 1.460938 6.609375-.90625 2.292969-3.117188 3.808594-5.585938 3.824219-1.53125 0-3.007812-.589844-4.121094-1.644531l-31.199218-29.625c-1.789063-1.757813-2.359375-4.414063-1.453125-6.753907.871093-2.367187 3.058593-3.996093 5.578125-4.152343h12.480468c4.839844 0 9.058594-2 11.207032-6h-23.6875c-3.316406 0-6-2.683594-6-6 0-3.3125 2.683594-6 6-6h23.6875c-2.179688-4.203125-6.476563-6.882813-11.207032-7zm0 0"/><path fill="currentColor" d="m144.90625 140.84375c15.6875-14.183594 35.660156-22.730469 56.75-24.289062v-19.101563c-26.148438 1.65625-50.941406 12.207031-70.265625 29.902344zm0 0"/><path fill="currentColor" d="m93.890625 206.542969h19.089844c1.179687-21.207031 9.429687-41.40625 23.433593-57.375l-13.5-13.613281c-17.515624 19.644531-27.761718 44.703124-29.023437 70.988281zm0 0"/><path fill="currentColor" d="m213.65625 65v-59c0-3.3125-2.683594-6-6-6-3.3125 0-6 2.6875-6 6v59c0 3.3125 2.6875 6 6 6 3.316406 0 6-2.6875 6-6zm0 0"/><path fill="currentColor" d="m252.65625 65v-40c0-3.3125-2.683594-6-6-6-3.3125 0-6 2.6875-6 6v40c0 3.3125 2.6875 6 6 6 3.316406 0 6-2.6875 6-6zm0 0"/><path fill="currentColor" d="m175.65625 65v-40c0-3.3125-2.683594-6-6-6-3.3125 0-6 2.6875-6 6v40c0 3.3125 2.6875 6 6 6 3.316406 0 6-2.6875 6-6zm0 0"/><path fill="currentColor" d="m274.65625 38c-3.3125 0-6 2.6875-6 6v31c0 3.3125 2.6875 6 6 6 3.316406 0 6-2.6875 6-6v-31c0-3.3125-2.683594-6-6-6zm0 0"/><path fill="currentColor" d="m146.65625 75v-31c0-3.3125-2.683594-6-6-6-3.3125 0-6 2.6875-6 6v31c0 3.3125 2.6875 6 6 6 3.316406 0 6-2.6875 6-6zm0 0"/></svg>