<svg xmlns="http://www.w3.org/2000/svg" viewBox="0 0 1024 1024">
<g transform="translate(0,1024) scale(0.1,-0.1)">
<path fill="currentColor" d="M4493 10214 c-45 -64 -66 -119 -65 -169 1 -49 -1 -51 -28 -53 -26 -2
-28 1 -28 31 0 19 -9 51 -21 73 -27 53 -87 118 -99 110 -18 -11 -52 -114 -52
-156 0 -21 4 -50 10 -64 5 -14 6 -26 2 -26 -4 0 -17 -3 -28 -6 -17 -5 -23 0
-28 23 -12 46 -46 92 -99 134 -58 46 -62 43 -74 -41 -10 -74 -7 -104 11 -142
9 -17 15 -32 14 -33 -8 -6 -47 -25 -52 -25 -3 0 -6 8 -6 18 0 30 -56 87 -119
120 -33 18 -62 29 -65 24 -3 -5 -4 -42 -2 -83 2 -72 13 -106 44 -141 13 -16
12 -19 -9 -37 -23 -19 -24 -19 -40 8 -23 37 -48 57 -99 79 -66 28 -111 37
-106 20 3 -7 7 -34 10 -59 6 -61 28 -110 61 -141 l27 -25 -22 -21 -22 -21 -25
29 c-13 16 -40 34 -61 41 -40 14 -45 15 -109 24 l-42 5 16 -52 c8 -29 21 -65
29 -80 17 -34 64 -78 82 -78 10 0 9 -7 -4 -30 -16 -25 -20 -28 -34 -16 -34 30
-78 43 -152 45 -52 2 -78 -1 -78 -9 0 -46 96 -165 140 -175 29 -6 29 -7 15
-35 l-15 -29 -33 18 c-33 19 -96 21 -166 7 -65 -13 -65 -18 -5 -85 49 -55 88
-80 127 -83 21 -2 23 -6 17 -28 -5 -19 -12 -24 -31 -22 -63 8 -117 2 -171 -19
-32 -13 -58 -27 -58 -31 0 -11 83 -79 122 -99 21 -10 52 -19 71 -19 31 0 33
-2 29 -29 -4 -27 -6 -29 -49 -26 -25 2 -61 -4 -80 -12 -42 -17 -113 -63 -113
-72 0 -11 103 -69 140 -78 19 -5 49 -6 67 -3 29 7 31 5 35 -25 3 -30 2 -31
-34 -32 -44 -1 -109 -37 -157 -87 l-34 -35 49 -22 c46 -21 155 -31 193 -19 8
3 17 -5 21 -21 7 -24 4 -26 -34 -37 -64 -17 -172 -130 -148 -154 7 -7 12 -9
12 -5 0 3 12 2 27 -4 42 -16 127 -13 167 6 41 20 42 20 51 -15 5 -22 2 -27
-29 -38 -37 -14 -67 -47 -105 -115 -34 -62 -31 -65 57 -62 84 4 119 14 147 41
16 17 18 17 34 -5 17 -22 17 -22 29 25 12 44 11 49 -11 83 -64 97 -126 265
-151 406 -7 44 -14 134 -14 200 0 104 5 156 34 292 2 13 16 55 30 95 166 466
611 781 1099 782 373 0 711 -167 939 -464 100 -130 185 -312 212 -452 2 -13 6
-34 9 -48 27 -129 24 -307 -10 -469 -18 -91 -99 -285 -145 -351 -16 -22 -17
-32 -7 -68 12 -45 21 -51 35 -26 8 14 13 12 47 -10 21 -14 45 -27 54 -27 47
-5 147 -5 154 -2 4 3 -7 31 -25 64 -33 63 -90 119 -120 119 -21 0 -23 19 -5
44 13 18 15 18 40 2 36 -24 140 -23 207 2 21 8 20 10 -25 65 -25 32 -65 67
-88 79 -23 11 -43 20 -44 19 -13 -7 -22 3 -19 22 3 12 5 25 5 29 1 4 13 3 27
-2 14 -6 40 -10 58 -10 36 0 144 34 161 51 25 25 -142 132 -191 123 -21 -4
-24 -1 -24 27 0 30 1 31 40 26 43 -5 124 23 180 63 l32 23 -53 34 c-61 38
-116 55 -162 51 -28 -3 -32 0 -35 25 -3 24 0 27 28 27 18 0 47 7 66 16 37 18
124 91 124 104 0 5 -26 19 -57 31 -63 24 -153 30 -176 10 -12 -9 -16 -7 -21
11 -10 39 -7 48 17 48 39 0 110 55 158 122 22 30 20 32 -36 43 -82 15 -132 14
-168 -5 l-34 -19 -12 26 c-12 27 -3 42 26 43 20 0 81 69 108 123 l26 52 -77 3
c-61 2 -84 -1 -120 -18 -24 -12 -44 -27 -44 -32 0 -6 -9 -3 -20 7 -27 24 -25
39 5 53 31 14 69 74 89 142 9 30 16 55 16 57 0 6 -80 -6 -129 -19 -25 -6 -58
-25 -76 -44 l-33 -33 -22 24 -22 23 21 11 c23 13 56 71 64 116 14 68 16 105 9
105 -5 0 -35 -9 -67 -20 -66 -23 -121 -61 -130 -90 -8 -24 -22 -25 -46 -4 -17
15 -17 17 2 37 10 12 24 37 29 56 11 40 14 154 4 164 -8 7 -53 -15 -109 -53
-33 -22 -61 -61 -81 -108 -1 -1 -13 3 -27 9 l-26 12 18 36 c19 37 21 104 6
171 -11 50 -14 52 -43 31 -72 -51 -121 -111 -124 -154 -2 -28 -8 -31 -44 -21
-20 5 -20 8 -9 42 7 19 11 49 8 66 -5 41 -44 146 -53 146 -14 0 -92 -91 -106
-125 -8 -19 -14 -48 -14 -65 0 -27 -3 -30 -30 -30 -28 0 -30 2 -24 34 7 47 -9
101 -49 165 l-34 53 -20 -28z m43 -95 c9 -17 18 -42 20 -54 9 -49 -67 -78 -82
-32 -9 27 -7 42 13 85 19 40 28 40 49 1z m-230 -28 c32 -48 29 -82 -8 -95 -51
-18 -73 29 -47 103 6 17 15 31 20 31 5 0 20 -18 35 -39z m472 -11 c15 -59 -8
-97 -53 -86 -44 11 -41 65 5 114 25 27 34 22 48 -28z m-688 -60 c28 -39 23
-72 -13 -85 -24 -8 -31 -6 -43 10 -14 19 -19 81 -8 109 8 21 35 6 64 -34z
m914 -7 c4 -47 -15 -83 -44 -83 -23 0 -50 26 -50 49 0 22 71 94 82 83 4 -4 9
-26 12 -49z m-1110 -106 c21 -29 10 -61 -24 -70 -25 -7 -59 23 -61 53 -5 80
-3 84 34 62 17 -12 40 -32 51 -45z m1321 12 c-4 -51 -25 -89 -48 -85 -34 8
-47 20 -47 46 0 29 17 48 65 73 17 9 31 16 32 17 0 0 0 -23 -2 -51z m-1517
-132 c28 -26 28 -53 -2 -72 -40 -27 -70 1 -82 74 l-7 41 34 -11 c19 -7 44 -21
57 -32z m1702 -32 c-15 -47 -43 -62 -76 -40 -41 26 -24 67 39 95 41 19 42 19
45 -1 2 -10 -2 -35 -8 -54z m175 -143 c-16 -39 -48 -72 -71 -72 -7 0 -21 11
-29 24 -27 40 5 74 80 89 32 6 36 -2 20 -41z m-2034 12 c10 -9 19 -25 19 -35
0 -24 -42 -51 -64 -43 -17 6 -56 73 -56 95 0 17 77 4 101 -17z m-144 -178 c27
-9 38 -39 23 -66 -12 -22 -47 -26 -70 -7 -18 14 -50 63 -50 75 0 10 65 9 97
-2z m2331 4 c6 0 -41 -65 -56 -77 -27 -22 -61 -16 -72 13 -17 45 25 77 90 69
19 -2 36 -4 38 -5z m-2420 -214 c43 -14 21 -86 -27 -86 -16 0 -81 60 -81 75 0
21 58 27 108 11z m2513 -3 c9 -10 -29 -56 -60 -72 -50 -27 -97 34 -53 70 22
18 96 19 113 2z m-2553 -250 c3 -30 -15 -51 -43 -51 -17 0 -59 25 -79 47 -18
20 -18 21 5 30 72 27 113 18 117 -26z m2615 17 c14 -13 -62 -68 -90 -65 -49 5
-61 67 -15 83 27 9 88 -1 105 -18z m-2642 -217 c6 -6 9 -23 7 -39 -2 -23 -8
-30 -32 -32 -32 -4 -79 13 -97 34 -9 11 -3 18 32 33 46 21 72 22 90 4z m2627
-3 c23 -10 42 -23 42 -28 0 -13 -68 -42 -99 -42 -42 0 -59 59 -23 79 24 14 31
13 80 -9z m-2614 -216 c19 -7 21 -55 4 -72 -16 -16 -58 -15 -96 1 -34 14 -32
21 12 55 29 22 52 27 80 16z m2599 -19 c20 -14 37 -29 37 -34 0 -9 -68 -31
-97 -31 -25 0 -43 19 -43 45 0 50 46 58 103 20z m-2529 -211 c11 -29 6 -53
-13 -64 -22 -11 -77 -12 -104 -2 -15 6 -13 12 19 45 39 40 87 50 98 21z m2473
-21 c32 -33 34 -38 17 -44 -28 -11 -83 -10 -105 1 -21 12 -25 50 -7 68 23 23
60 13 95 -25z m-2389 -179 c49 -34 10 -84 -65 -84 -24 0 -43 2 -43 5 0 16 33
66 52 79 28 20 28 20 56 0z m2272 -10 c8 -7 23 -26 33 -43 l18 -31 -50 0 c-38
0 -56 5 -71 20 -24 24 -24 29 -4 58 17 24 44 23 74 -4z M4398 9795 c-1 -2 -28
-6 -58 -10 -126 -16 -314 -93 -436 -180 -161 -115 -305 -304 -374 -487 -95
-258 -84 -558 29 -800 19 -39 21 -53 13 -97 l-9 -51 34 28 c18 15 58 48 88 74
160 138 420 203 820 203 206 0 299 -7 440 -35 28 -6 59 -12 70 -14 50 -10 184
-60 230 -86 28 -16 70 -47 94 -70 24 -22 46 -40 50 -40 3 0 19 -11 35 -25 35
-30 38 -28 27 11 -11 40 -8 58 27 139 56 135 76 239 76 405 0 129 -9 192 -41
295 -115 368 -410 638 -788 722 -61 13 -317 28 -327 18z m227 -40 c38 -3 72
-8 75 -10 3 -2 22 -6 43 -9 48 -8 189 -61 247 -94 232 -132 407 -340 484 -577
45 -140 59 -362 30 -500 -15 -76 -64 -225 -73 -225 -3 0 -21 47 -39 104 -41
128 -128 303 -209 421 -270 389 -608 525 -932 374 -258 -120 -511 -448 -626
-812 l-32 -100 -21 54 c-53 138 -67 216 -67 379 0 134 9 194 46 302 52 159
118 267 238 392 173 178 379 279 621 302 36 4 66 7 67 8 4 3 74 -1 148 -9z
m-56 -740 c70 -36 107 -118 98 -217 -9 -104 -74 -179 -156 -180 -47 0 -79 18
-114 64 -34 47 -46 88 -43 155 5 138 116 230 215 178z M4475 9629 c-17 -5 -44
-22 -60 -39 -26 -27 -30 -39 -30 -90 0 -51 4 -63 29 -89 80 -83 211 -40 229
76 6 38 -26 108 -56 125 -35 18 -80 25 -112 17z M4110 9440 c-42 -42 -10 -120
50 -120 14 0 36 9 48 20 46 43 15 120 -48 120 -17 0 -39 -9 -50 -20z M4811
9434 c-12 -15 -21 -34 -21 -44 0 -10 9 -29 21 -44 40 -51 119 -23 121 43 2 66
-80 97 -121 45z M4475 8953 c-36 -36 -45 -100 -21 -158 38 -89 128 -48 128 58
0 91 -60 147 -107 100z M4408 8395 c-2 -1 -46 -5 -98 -9 -52 -3 -106 -8 -120
-11 -13 -2 -42 -7 -65 -10 -22 -3 -48 -8 -57 -11 -9 -3 -25 -6 -35 -8 -106
-21 -233 -79 -286 -132 -20 -20 -37 -41 -37 -46 0 -4 -8 -8 -18 -8 -10 0 -31
-13 -46 -29 -94 -98 -95 -461 -2 -511 15 -7 27 -28 35 -60 39 -154 172 -338
321 -448 240 -176 571 -214 843 -97 124 53 185 94 278 185 99 99 169 206 209
320 18 52 38 89 58 108 42 40 57 98 57 232 0 85 -5 131 -19 177 -20 65 -63
123 -93 123 -10 1 -30 18 -44 38 -32 47 -134 103 -242 132 -80 22 -86 23 -157
35 -25 4 -52 9 -61 10 -8 2 -55 6 -105 10 -49 4 -104 8 -121 10 l-33 3 0 -123
c0 -134 -8 -155 -62 -155 -44 0 -53 23 -58 153 -4 103 -7 121 -22 123 -9 1
-18 1 -20 -1z m-34 -369 c51 -23 105 -68 124 -102 9 -16 15 -13 56 33 116 129
310 129 428 1 130 -141 78 -381 -99 -455 l-42 -18 4 -52 c9 -154 -87 -298
-228 -342 -225 -70 -441 90 -439 326 1 71 1 71 -30 82 -72 25 -149 110 -169
185 -65 240 173 445 395 342z M4165 7858 c-71 -15 -86 -58 -44 -126 33 -53
129 -72 183 -37 52 34 78 106 49 137 -24 27 -120 41 -188 26z M4726 7858 c-52
-11 -66 -24 -66 -60 0 -93 123 -156 204 -103 52 34 78 106 49 137 -24 27 -120
41 -187 26z M5524 7985 c3 -15 14 -37 24 -49 11 -12 24 -36 30 -54 11 -32 11
-33 -15 -30 -20 2 -27 -2 -29 -19 -3 -18 2 -23 29 -27 82 -14 82 -13 79 19 -5
48 -54 137 -90 164 l-33 24 5 -28z M3446 7967 c-28 -30 -61 -102 -68 -152 -3
-20 13 -22 77 -10 11 2 23 4 28 4 4 1 7 12 7 25 0 19 -4 22 -25 18 -15 -2 -25
0 -25 7 0 21 27 76 43 90 19 15 23 51 6 51 -7 0 -26 -15 -43 -33z M3552 7497
c-32 -39 -42 -220 -16 -308 19 -62 40 -70 62 -21 23 50 24 263 2 306 -18 35
-33 42 -48 23z M5430 7489 c-18 -33 -22 -58 -25 -153 -4 -126 21 -214 55 -196
16 9 24 27 36 85 7 32 6 189 -1 210 -27 81 -44 95 -65 54z M3844 6734 c1 -56
-19 -74 -80 -74 -55 0 -85 24 -87 70 -1 19 -6 34 -12 33 -5 -1 -23 -5 -40 -9
-16 -3 -63 -21 -103 -40 -207 -94 -386 -288 -517 -559 -61 -125 -152 -371
-142 -382 5 -4 538 -213 545 -213 1 0 2 6 2 13 0 32 103 317 114 317 8 0 -1
-1716 -8 -1733 -5 -10 -15 -16 -22 -13 -9 3 -14 -2 -15 -12 0 -9 -2 -26 -4
-37 -2 -11 -7 -42 -10 -70 -4 -27 -8 -61 -10 -75 -4 -24 -7 -57 -20 -180 -3
-30 -8 -71 -10 -90 -2 -19 -7 -73 -10 -120 -4 -47 -8 -105 -10 -130 -2 -25 -7
-85 -10 -135 -4 -49 -8 -106 -10 -125 -2 -19 -6 -80 -10 -135 -4 -55 -9 -107
-10 -115 -2 -8 -6 -53 -10 -100 -4 -47 -8 -92 -10 -100 -2 -8 -6 -44 -10 -80
-4 -36 -9 -72 -10 -82 -2 -9 -7 -38 -11 -65 -3 -26 -8 -55 -9 -63 -2 -8 -6
-35 -10 -60 -10 -60 -11 -65 -41 -213 -24 -119 -24 -130 -10 -153 18 -26 17
-26 61 -28 27 -2 30 -5 29 -31 -4 -61 -16 -231 -19 -245 -2 -8 -6 -60 -10
-115 -4 -55 -8 -116 -10 -135 -2 -19 -6 -78 -10 -130 -4 -52 -9 -102 -10 -110
-2 -8 -6 -60 -10 -115 -4 -55 -8 -116 -10 -135 -2 -19 -6 -75 -10 -125 -3 -49
-8 -101 -10 -115 -8 -54 -19 -238 -17 -289 8 -250 232 -449 482 -428 183 15
331 131 389 304 19 56 23 87 36 258 3 39 8 90 10 115 2 25 7 79 10 120 4 41 8
95 10 120 2 25 6 83 10 130 3 47 8 101 10 120 2 19 7 73 10 120 4 47 8 101 10
120 2 19 6 78 10 130 3 52 8 106 10 120 2 14 7 66 10 115 4 50 8 106 10 125 2
19 6 80 10 135 4 55 9 107 10 116 2 9 6 62 10 116 3 55 7 107 9 116 1 9 38 41
81 73 44 31 107 77 140 103 33 26 65 50 72 54 10 6 157 -65 167 -81 2 -4 7
-47 11 -97 4 -49 8 -106 10 -125 2 -19 6 -75 10 -125 3 -49 8 -101 10 -115 2
-14 6 -68 10 -120 4 -52 8 -111 10 -130 2 -19 6 -75 10 -125 3 -49 8 -101 10
-115 2 -14 6 -68 10 -120 4 -52 8 -111 10 -130 2 -19 6 -75 10 -125 3 -49 8
-101 10 -115 2 -14 6 -68 10 -120 4 -52 8 -111 10 -130 2 -19 6 -73 9 -120 4
-47 9 -101 11 -120 2 -19 7 -74 10 -122 3 -49 8 -98 10 -109 41 -213 243 -377
455 -368 205 8 378 150 424 349 14 59 15 191 1 290 -2 19 -7 76 -10 125 -4 50
-8 101 -10 115 -2 14 -7 70 -10 125 -4 55 -8 111 -10 125 -2 14 -7 66 -10 115
-4 50 -8 106 -10 125 -2 19 -6 78 -10 130 -4 52 -8 106 -10 120 -2 14 -7 66
-10 115 -4 50 -8 106 -10 125 -2 19 -6 76 -10 127 l-7 92 29 -8 c35 -10 73 -1
87 21 9 15 1 106 -18 204 -2 12 -7 45 -11 74 -4 29 -8 60 -10 69 -1 9 -6 43
-9 76 -4 33 -9 71 -11 85 -5 33 -13 101 -20 175 -4 33 -8 71 -10 85 -2 14 -7
57 -11 95 -3 39 -8 77 -9 85 -2 8 -6 49 -10 90 -4 41 -8 82 -10 90 -2 8 -6 44
-10 80 -3 36 -8 76 -10 90 -2 14 -7 50 -10 80 -3 30 -8 66 -10 80 -2 14 -7 50
-10 80 -4 30 -9 64 -11 75 -2 11 -7 40 -10 65 -3 25 -8 53 -10 63 -3 9 2 39
11 66 36 109 19 174 -50 187 -32 6 -35 9 -36 43 -1 20 -3 50 -5 66 -4 31 -11
1695 -7 1695 12 0 78 -177 118 -317 3 -8 35 0 102 26 54 21 172 66 263 101 91
35 169 67 173 70 27 23 -111 366 -215 535 -143 230 -344 396 -545 449 l-48 13
-1 -35 c-1 -46 -33 -72 -86 -72 -55 0 -88 34 -81 84 l5 36 -669 0 -669 0 0
-46z m1410 -126 c61 2 81 -18 81 -79 -1 -59 -19 -82 -66 -80 -19 1 -50 1 -71
1 -42 0 -79 37 -72 73 11 60 51 105 78 89 5 -3 28 -5 50 -4z m-1379 -22 c46
-70 20 -138 -53 -136 -20 1 -49 -2 -64 -6 -31 -7 -67 23 -69 59 -6 85 12 102
105 105 59 1 67 -1 81 -22z m65 -201 c22 -20 35 -73 25 -104 -5 -18 -30 -32
-60 -36 -5 -1 -20 4 -32 12 -20 12 -25 11 -43 -7 -25 -25 -72 -26 -94 -2 -9
10 -19 37 -22 60 -4 32 -2 44 15 61 23 23 70 28 89 9 9 -9 16 -7 32 9 23 25
61 24 90 -2z m1231 6 c19 -15 26 -16 46 -6 29 15 56 10 79 -16 21 -23 14 -91
-12 -120 -24 -27 -68 -24 -92 5 -16 21 -21 23 -33 11 -28 -27 -74 -22 -95 10
-14 22 -15 32 -5 65 19 64 68 87 112 51z m-84 -207 c20 -31 10 -68 -27 -105
-32 -32 -58 -33 -90 -4 -25 23 -25 51 0 93 33 54 87 62 117 16z m-1048 5 c59
-64 29 -153 -44 -135 -25 6 -65 55 -70 84 -3 19 12 53 29 64 22 15 66 8 85
-13z m-170 -31 c47 -49 33 -130 -24 -140 -59 -12 -107 81 -71 137 21 32 67 34
95 3z m1380 -3 c29 -38 8 -120 -35 -131 -50 -13 -83 10 -89 61 -2 17 25 79 38
87 25 16 66 8 86 -17z m-1066 -156 c33 -36 34 -63 2 -94 -31 -32 -53 -31 -93
3 -43 37 -49 76 -16 109 31 31 67 25 107 -18z m773 13 c20 -26 17 -57 -11 -90
-31 -37 -69 -48 -100 -28 -43 28 -37 78 14 124 30 26 75 24 97 -6z m-1005 -76
c27 -45 25 -92 -5 -112 -35 -22 -67 -14 -93 25 -27 41 -30 82 -5 103 39 35 76
29 103 -16z m1211 35 c4 -1 14 -13 21 -28 18 -36 5 -85 -29 -112 -33 -26 -63
-22 -88 12 -17 23 -18 31 -7 66 13 45 44 72 75 66 12 -2 24 -4 28 -4z m-822
-88 c83 -49 32 -154 -57 -117 -59 25 -79 78 -43 114 24 24 62 26 100 3z m442
0 c24 -22 23 -68 -3 -92 -47 -44 -106 -44 -129 -1 -18 33 -8 62 29 87 40 27
77 29 103 6z m-208 -62 c44 -49 10 -111 -62 -111 -68 0 -107 66 -65 112 23 25
104 25 127 -1z m-533 -72 c52 -56 34 -129 -32 -129 -32 0 -56 21 -74 63 -15
36 -9 63 18 82 32 23 56 18 88 -16z m1039 11 c24 -24 25 -41 3 -87 -19 -41
-51 -58 -88 -49 -52 13 -58 79 -11 129 30 32 68 35 96 7z m-893 -198 c28 -33
29 -66 3 -92 -26 -26 -60 -25 -94 1 -35 28 -48 62 -36 94 19 51 82 50 127 -3z
m764 22 c28 -25 23 -58 -12 -99 -36 -40 -76 -46 -104 -15 -28 31 -22 70 18
106 39 36 65 38 98 8z m-616 -131 c63 -30 67 -101 8 -124 -43 -16 -107 18
-118 62 -7 30 27 79 55 79 11 0 35 -8 55 -17z m445 -3 c35 -35 25 -82 -24
-107 -46 -25 -61 -25 -90 -2 -41 32 -31 85 22 113 38 21 69 19 92 -4z m-205
-64 c46 -46 10 -106 -62 -106 -50 0 -83 26 -83 65 0 63 96 90 145 41z m-950
-1368 c-17 -98 -32 -199 -40 -267 -4 -30 -8 -61 -10 -70 -1 -9 -6 -45 -10 -81
-3 -36 -8 -76 -10 -90 -2 -14 -6 -54 -10 -90 -4 -36 -8 -76 -10 -90 -2 -14 -6
-61 -10 -105 -3 -44 -8 -100 -10 -125 -2 -25 -7 -85 -10 -135 -3 -49 -8 -114
-10 -142 -4 -47 -3 -53 14 -53 11 0 22 3 24 8 3 4 8 65 12 137 4 71 8 136 10
145 1 8 6 60 10 115 4 55 8 106 10 115 1 8 6 51 10 94 4 43 8 86 10 95 1 9 6
45 9 81 4 36 9 76 11 90 2 14 7 44 10 68 9 75 16 126 21 155 2 15 6 39 8 55
18 119 16 113 44 108 15 -2 31 -5 35 -5 8 -1 3 -59 -8 -122 -2 -9 -6 -40 -10
-70 -3 -30 -8 -65 -10 -79 -2 -14 -7 -56 -11 -95 -4 -38 -8 -83 -10 -100 -2
-16 -6 -112 -10 -212 -7 -182 -7 -183 15 -183 18 0 21 6 22 38 2 120 16 379
24 432 2 14 6 52 10 85 3 33 8 71 10 85 5 33 12 85 20 140 10 71 14 79 38 75
35 -5 116 -13 207 -21 47 -3 101 -8 120 -9 287 -28 1005 -27 1218 0 20 3 67 7
105 9 79 5 80 3 46 -97 -40 -121 -176 -352 -310 -529 -331 -435 -838 -869
-1236 -1059 -230 -110 -399 -184 -512 -223 -122 -43 -131 -44 -125 -13 9 48
13 65 29 152 9 50 19 99 21 110 2 10 6 37 9 60 3 22 8 51 10 65 8 41 13 82 20
140 3 30 8 66 10 80 2 14 6 54 10 90 3 36 8 81 10 100 2 19 7 71 10 115 4 44
8 100 10 125 2 25 7 86 10 135 4 50 8 106 10 125 2 19 7 80 10 135 4 55 8 107
10 115 2 8 6 53 10 100 4 47 8 92 10 100 2 8 6 42 9 75 4 33 9 69 11 80 2 11
4 30 4 43 1 20 5 23 41 20 37 -2 39 -3 35 -30z m1900 -358 c3 -25 8 -56 10
-70 8 -53 19 -141 30 -240 4 -30 8 -66 10 -80 2 -14 7 -56 11 -95 3 -38 8 -77
9 -85 2 -8 6 -49 10 -90 4 -41 8 -82 10 -90 2 -8 6 -49 10 -90 4 -41 9 -83 10
-92 2 -9 7 -48 10 -85 4 -37 9 -76 11 -87 2 -10 6 -44 10 -75 3 -31 7 -63 9
-71 1 -8 6 -40 10 -70 4 -30 9 -62 10 -72 17 -87 17 -108 2 -108 -50 0 -673
306 -957 469 -30 18 -63 35 -72 38 -26 8 -23 16 25 54 126 101 415 403 546
572 46 59 46 59 51 31 3 -16 5 -57 5 -91 -1 -60 0 -63 23 -63 l23 0 -4 124 -5
125 35 51 c19 28 36 50 38 48 2 -1 6 -34 10 -73 4 -38 8 -81 10 -95 2 -14 7
-61 11 -105 4 -44 8 -93 10 -110 1 -16 6 -77 10 -135 4 -58 8 -116 10 -130 1
-14 2 -42 3 -63 1 -34 4 -38 24 -35 12 2 21 8 20 13 0 6 -4 58 -7 117 -4 60
-9 136 -11 170 -8 103 -24 267 -30 313 -4 32 -17 159 -19 185 -1 16 63 144 69
138 2 -2 6 -23 10 -48z M2806 5552 c-2 -4 -7 -25 -11 -47 -4 -22 -9 -49 -11
-60 -19 -101 -28 -162 -39 -250 -4 -27 -8 -60 -10 -72 -2 -12 -6 -57 -10 -100
-4 -43 -9 -94 -11 -113 -26 -267 -25 -1165 2 -1360 9 -63 39 -123 85 -167 22
-21 37 -43 35 -50 -3 -6 -213 -335 -469 -730 -255 -395 -466 -723 -470 -729
-5 -9 260 -172 267 -163 2 2 40 76 86 164 45 88 107 206 136 263 30 56 78 148
108 205 29 56 86 165 126 242 40 77 87 167 105 200 17 33 85 162 150 288 117
222 120 227 150 227 79 0 179 60 226 136 29 47 47 127 42 188 -4 44 -1 51 31
84 41 40 57 98 43 155 -9 34 -7 39 16 58 50 38 44 131 -10 166 -13 8 -40 15
-61 15 l-38 -1 2 222 c1 197 9 415 19 517 1 19 6 71 10 114 4 43 8 86 10 95 1
9 6 41 9 72 4 31 8 65 10 75 2 11 7 41 10 67 4 27 9 57 11 67 3 14 -38 33
-238 110 -133 51 -256 99 -274 106 -18 8 -34 10 -37 6z M5945 5456 c-279 -109
-288 -113 -280 -125 9 -15 38 -216 51 -351 3 -36 7 -75 9 -88 18 -114 25 -672
14 -1182 l-4 -205 31 -55 c36 -64 107 -123 171 -140 91 -26 205 1 281 65 31
26 78 110 87 155 27 138 27 1275 1 1418 -2 9 -7 52 -11 95 -3 43 -8 88 -10
100 -2 12 -6 45 -10 72 -11 90 -16 119 -37 233 -11 61 -23 112 -27 111 -3 0
-123 -47 -266 -103z M7638 2535 c-2 -1 -34 -5 -73 -9 -38 -4 -99 -14 -135 -22
-36 -9 -74 -17 -85 -20 -90 -18 -257 -85 -426 -169 -196 -98 -267 -144 -742
-471 -116 -80 -208 -116 -300 -118 l-59 -1 7 -106 c10 -158 2 -144 76 -145
147 -3 288 61 554 252 482 345 832 516 1128 551 109 13 296 8 382 -11 156 -33
261 -71 430 -156 196 -98 316 -175 542 -345 234 -177 231 -175 273 -175 72 0
130 61 125 132 -3 54 -23 78 -142 170 -486 378 -884 576 -1273 633 -45 7 -276
15 -282 10z M1777 1726 c-63 -59 -154 -108 -232 -125 -27 -6 -106 -12 -175
-15 -94 -3 -141 -9 -189 -26 -184 -62 -284 -200 -276 -380 4 -114 42 -212 130
-335 l43 -60 -24 -18 c-16 -12 -24 -28 -24 -47 0 -42 8 -57 45 -80 l34 -21
-19 -32 c-25 -42 -19 -75 20 -108 l30 -26 -13 -59 c-15 -64 -22 -174 -12 -174
13 0 112 69 149 104 34 33 42 36 61 26 50 -27 110 -10 121 35 7 29 12 30 50
10 16 -8 39 -15 51 -15 29 0 74 39 76 67 1 20 5 22 47 15 104 -15 241 -5 320
23 258 92 340 348 195 615 -54 100 -77 150 -91 205 -17 63 -11 216 9 272 l16
42 -92 54 c-156 92 -184 107 -188 107 -2 -1 -30 -25 -62 -54z m-319 -270 c45
-20 50 -30 27 -63 -15 -21 -15 -21 -62 -3 -99 37 -208 9 -276 -70 -85 -99 -70
-240 34 -339 41 -38 41 -39 24 -65 -10 -14 -21 -26 -25 -26 -20 0 -108 99
-129 145 -34 72 -39 173 -12 245 32 86 117 163 211 190 42 13 163 4 208 -14z
m212 -122 c12 -13 -29 -57 -65 -70 -55 -18 -137 -110 -183 -204 -32 -66 -37
-84 -38 -157 -1 -83 -13 -116 -39 -107 -17 7 -36 52 -39 95 -4 55 13 118 56
209 48 100 160 222 219 238 32 9 78 7 89 -4z m179 -139 c39 -138 -101 -400
-256 -479 -35 -18 -88 -21 -98 -7 -8 14 16 61 32 62 7 1 17 2 22 3 5 0 29 16
54 34 54 39 130 148 158 229 20 57 27 132 14 152 -3 6 2 25 11 42 16 31 16 31
35 12 11 -10 23 -32 28 -48z m195 -91 c155 -155 119 -405 -72 -503 -87 -44
-233 -44 -296 2 -15 11 -16 17 -5 40 14 31 18 32 63 13 44 -18 153 -18 191 1
100 50 145 122 141 224 -3 77 -28 130 -86 182 l-41 38 17 29 c21 34 32 30 88
-26z"/>
</g>
</svg>
