<svg viewBox="0 0 460 460" xmlns="http://www.w3.org/2000/svg"><g><path fill="currentColor" d="m220.161 282.175c2.547.873 5.236.901 7.775.082l95.221-30.493c13.011-15.136 20.801-34.915 23.143-58.811 4.659-47.475-3.222-67.436-11.386-70.104-5.928-1.936-13.799 4.538-21.612 17.754.193-.327-6.012 9.478-14.76 30.479-.425 1.019-1.596 1.502-2.616 1.077s-1.501-1.596-1.077-2.615c5.089-12.215 9.999-22.394 14.602-30.286-1.082-4.547-7.227-28.794-20.102-51.041-3.549-6.13-5.521-6.593-6.203-6.521-5.914.687-11.7 33.769-21.975 56.29-.457 1.004-1.642 1.448-2.649.99-1.005-.458-1.448-1.645-.989-2.65 4.065-8.912 7.146-18.606 9.717-27.028 3.518-83.515-60.914-121.645-83.204-105.768-6.618 4.715-9.04 13.675-7.003 25.912 5.252 31.519-.084 60.1-15.847 84.972 6.58 22.257 19.128 44.508 19.256 44.734.545.961.208 2.181-.753 2.727-.962.546-2.182.206-2.727-.753-9.059-15.993-21.221-43.636-23.38-63.265-.51-4.61-2.402-6.768-5.631-6.418-6.03.656-16.271 9.432-24.509 27.148-9.365 20.141-12.978 45.646-10.173 71.817 2.869 26.695 12.569 48.531 28.819 64.922zm-62.929-109.53c4.979-1.562 13.238.138 30.084 25.812 2.983-15.06 13.404-58.287 35.143-61.041 17.354-2.196 36.233 20.807 57.729 70.328.577 1.329-.409 2.797-1.834 2.797-.772 0-1.509-.45-1.836-1.204-25.414-58.55-43.147-69.278-53.557-67.952-21.462 2.719-31.295 55.148-32.49 62.007 3.84 6.145 8.088 13.446 12.8 22.117.527.971.168 2.185-.802 2.712-.973.528-2.185.167-2.712-.802-25.826-47.524-36.979-52.325-41.326-50.958-9.035 2.841-8.772 36.27-6.484 56.673.133 1.186-.796 2.223-1.99 2.223-1.005 0-1.871-.755-1.985-1.777-.642-5.737-5.847-56.184 9.26-60.935z"/><path fill="currentColor" d="m73.403 305.51 146.75 49.05c2.527.846 5.203.856 7.739.035l158.601-51.5c5.471-1.774 9.146-7.021 9.146-13.058v-27.97c0-6.265-4.026-11.708-9.792-13.237l-47.495-12.649c-2.429 4.747-5.201 9.21-8.315 13.379l12.703-4.068c1.059-.339 2.179.244 2.515 1.295.337 1.052-.242 2.178-1.294 2.515l-114.8 36.763c-3.463 1.118-7.029 1.014-10.298-.107l-106.193-36.525c-1.044-.359-1.6-1.497-1.241-2.542s1.497-1.601 2.542-1.241l20.218 6.954c-4.363-5.136-8.18-10.711-11.446-16.712l-48.588 12.938c-5.768 1.529-9.795 6.972-9.795 13.237 0 33.727-.135 31.332.388 33.752 1.069 4.528 4.281 8.231 8.655 9.691zm35.038-39.766c.359-1.045 1.497-1.602 2.542-1.241l109.176 37.55c2.555.872 5.244.903 7.774.083l118.405-37.917c1.053-.337 2.178.243 2.515 1.295s-.242 2.178-1.294 2.515l-118.399 37.916c-3.416 1.106-6.979 1.027-10.297-.106l-109.18-37.551c-1.046-.361-1.601-1.499-1.242-2.544z"/><path fill="currentColor" d="m445.876 311.27-48.255-12.855c-2.047 3.972-5.528 7.069-9.894 8.484l-158.6 51.5c-3.356 1.088-6.899 1.072-10.242-.045l-146.75-49.05c-5.067-1.692-8.926-5.669-10.7-10.634l-47.312 12.6c-8.315 2.21-14.123 10.051-14.123 19.067v42.1c0 8.607 5.242 16.144 13.044 18.753l203.089 67.88c3.658 1.22 7.529 1.239 11.19.054l219.487-71.279c7.89-2.56 13.19-10.114 13.19-18.798v-38.71c0-9.016-5.808-16.857-14.124-19.067zm-47.626 24.729-169.649 54.327c-4.559 1.477-9.322 1.377-13.768-.142l-158.315-54.452c-1.044-.359-1.6-1.497-1.241-2.542s1.497-1.602 2.542-1.241l158.311 54.45c3.695 1.262 7.585 1.304 11.244.118l169.655-54.329c1.052-.337 2.178.243 2.515 1.295.337 1.053-.242 2.179-1.294 2.516z"/></g></svg>