<svg xmlns="http://www.w3.org/2000/svg" viewBox="0 0 1024 1024">
<g transform="translate(0,1024) scale(0.1,-0.1)">
<path fill="currentColor" d="M4958 10073 l-3 -166 -30 -4 c-53 -7 -168 -41 -235 -70 -174 -75
-307 -173 -422 -308 l-72 -85 -58 0 c-32 0 -59 0 -60 0 -2 -1 -20 -5 -40 -9
l-38 -9 0 169 0 169 -160 0 -160 0 0 -237 0 -236 -68 -67 c-155 -150 -249
-355 -252 -547 l0 -33 -160 0 -160 0 0 -240 0 -240 163 -2 162 -3 60 42 c33
22 96 60 140 83 67 35 86 41 125 38 83 -8 274 -128 403 -255 l67 -66 1 49 c0
27 2 56 3 64 2 8 6 40 10 70 3 30 16 93 27 140 102 413 397 755 793 921 105
44 125 46 193 23 256 -87 507 -285 670 -529 132 -197 216 -462 222 -699 l1
-39 69 67 c136 135 339 259 416 255 44 -2 153 -56 250 -123 l60 -41 163 3 162
2 0 240 0 240 -159 0 -158 0 -6 66 c-13 131 -61 273 -127 369 l-30 44 0 320 0
321 -160 0 -160 0 0 -191 c0 -178 -1 -191 -17 -186 -91 29 -182 48 -253 53
l-85 6 -35 41 c-112 135 -245 245 -375 310 -114 58 -176 79 -332 113 -23 4
-23 6 -23 169 l0 165 -160 0 -160 0 -2 -167z m-958 -1433 l0 -160 -80 0 -80 0
0 160 0 160 80 0 80 0 0 -160z m2400 0 l0 -160 -80 0 -80 0 0 160 0 160 80 0
80 0 0 -160z M2080 8921 l0 -198 -41 -29 c-136 -94 -252 -295 -274 -476 l-7
-58 482 0 482 0 -7 58 c-22 181 -138 382 -274 477 l-41 28 0 198 0 199 -160 0
-160 0 0 -199z M7840 8921 l0 -198 -41 -29 c-136 -94 -252 -295 -274 -476 l-7
-58 482 0 482 0 -7 58 c-22 181 -138 382 -274 477 l-41 28 0 198 0 199 -160 0
-160 0 0 -199z M5044 8911 c-201 -105 -353 -259 -452 -457 -40 -78 -83 -202
-98 -279 -4 -22 -9 -322 -11 -667 l-4 -628 641 0 641 0 -4 628 c-2 345 -7 643
-11 662 -34 164 -102 319 -193 440 -86 114 -229 236 -346 296 -88 45 -87 45
-163 5z M960 8281 l0 -198 -41 -29 c-136 -94 -252 -295 -274 -476 l-7 -58 401
0 401 0 0 -160 0 -160 -480 0 -481 0 -79 -80 -80 -81 0 -79 0 -80 1280 0 1280
0 1 173 c0 178 3 237 15 297 3 19 8 49 11 65 10 64 76 244 123 333 l48 92
-783 0 -783 0 -37 51 c-51 71 -108 131 -155 164 l-40 28 0 198 0 199 -160 0
-160 0 0 -199z m1440 -1001 l0 -240 -160 0 -160 0 0 240 0 240 160 0 160 0 0
-240z M8960 8281 l0 -199 -27 -17 c-49 -32 -115 -99 -160 -162 l-45 -63 -783
0 -784 0 45 -84 c73 -137 124 -292 140 -426 4 -30 8 -62 10 -70 1 -8 3 -97 3
-197 l1 -183 1280 0 1280 0 0 80 0 79 -80 81 -79 80 -481 0 -480 0 0 160 0
160 401 0 401 0 -7 58 c-22 181 -138 382 -274 477 l-41 28 0 198 0 199 -160 0
-160 0 0 -199z m-800 -1001 l0 -240 -160 0 -160 0 0 240 0 240 160 0 160 0 0
-240z M3620 7942 c-131 -89 -250 -226 -318 -367 -80 -164 -100 -263 -102 -512
l-1 -183 481 0 481 0 -2 178 c0 97 -5 204 -10 237 -32 206 -139 408 -291 551
-53 49 -168 135 -180 134 -2 -1 -28 -18 -58 -38z M6500 7942 c-131 -89 -250
-226 -318 -367 -80 -164 -100 -263 -102 -512 l-1 -183 481 0 481 0 -2 178 c0
97 -5 204 -10 237 -31 205 -140 409 -292 552 -52 48 -167 134 -179 133 -2 -1
-28 -18 -58 -38z M0 5280 l0 -1280 2269 0 2268 0 104 49 c168 80 283 106 474
106 205 0 340 -32 518 -121 l68 -34 2270 0 2269 0 0 1280 0 1280 -5120 0
-5120 0 0 -1280z m960 0 l0 -960 -160 0 -160 0 0 960 0 960 160 0 160 0 0
-960z m2400 0 l0 -960 -160 0 -160 0 0 960 0 960 160 0 160 0 0 -960z m640 0
l0 -960 -160 0 -160 0 0 960 0 960 160 0 160 0 0 -960z m2560 0 l0 -960 -160
0 -160 0 0 960 0 960 160 0 160 0 0 -960z m640 0 l0 -960 -160 0 -160 0 0 960
0 960 160 0 160 0 0 -960z m2400 0 l0 -960 -160 0 -160 0 0 960 0 960 160 0
160 0 0 -960z m-7508 717 c249 -167 393 -372 448 -637 12 -57 18 -136 19 -242
l2 -158 -161 0 -160 0 -1 138 c-1 152 -3 173 -25 252 -36 126 -134 265 -243
343 l-49 36 -46 -31 c-131 -86 -245 -270 -270 -433 -2 -16 -5 -236 -5 -487
l-1 -458 -161 0 -160 0 4 498 c2 273 7 513 11 532 13 60 64 207 90 257 70 137
190 269 335 371 188 131 205 132 373 19z m3200 0 c249 -167 392 -371 448 -637
16 -74 18 -145 19 -562 l1 -478 -160 0 -160 0 -1 458 c0 251 -3 471 -5 487
-25 162 -129 332 -263 428 l-49 36 -46 -31 c-131 -86 -245 -270 -270 -433 -2
-16 -5 -236 -5 -487 l-1 -458 -161 0 -160 0 4 498 c2 273 7 513 11 532 13 60
64 207 90 257 70 137 190 269 335 371 188 131 205 132 373 19z m3200 0 c249
-167 392 -371 448 -637 16 -74 18 -145 19 -562 l1 -478 -160 0 -160 0 -1 458
c0 251 -3 471 -5 487 -25 162 -129 332 -263 428 l-49 36 -46 -31 c-131 -86
-245 -270 -270 -433 -2 -16 -5 -236 -5 -487 l-1 -458 -161 0 -160 0 4 498 c2
273 7 513 11 532 13 60 64 207 90 257 70 137 190 269 335 371 188 131 205 132
373 19z m-5932 -1517 l0 -160 -160 0 -160 0 0 160 0 160 160 0 160 0 0 -160z
M4965 3824 c-33 -7 -71 -16 -84 -19 -43 -10 -148 -62 -210 -105 -128 -86 -241
-227 -297 -371 -34 -85 -72 -121 -150 -138 -170 -38 -310 -166 -362 -331 -20
-64 -21 -86 -21 -1462 l-1 -1398 160 0 160 0 0 720 0 720 160 0 160 0 0 -720
0 -720 640 0 640 0 -1 1168 c-1 1262 1 1222 -55 1371 -34 92 -92 184 -161 260
-72 80 -412 354 -430 347 -30 -12 -362 -287 -415 -345 -97 -104 -185 -278
-203 -401 -3 -25 -8 -54 -10 -65 -2 -11 -4 -145 -4 -297 l-1 -278 -160 0 -161
0 2 298 c1 198 6 322 15 373 41 233 151 450 311 613 106 109 555 464 596 471
48 9 91 1 129 -26 95 -67 481 -384 535 -440 108 -110 182 -220 240 -356 30
-68 70 -206 77 -268 4 -28 9 -59 11 -70 2 -11 4 -545 4 -1187 l1 -1168 160 0
160 0 -2 1413 c-3 1361 -4 1414 -22 1462 -61 160 -200 282 -360 315 -76 16
-116 55 -159 156 -101 238 -288 400 -547 471 -77 21 -270 25 -345 7z M0 2320
l0 -1360 160 0 160 0 1 548 c0 301 2 556 4 567 2 11 7 40 10 65 8 57 57 205
89 267 74 145 197 277 363 390 105 71 118 78 168 80 53 2 59 -1 172 -77 280
-187 421 -403 467 -715 2 -16 5 -276 5 -577 l1 -548 160 0 160 0 1 548 c0 301
2 556 4 567 2 11 7 40 10 65 8 57 57 205 89 267 74 145 197 277 363 390 105
71 118 78 168 80 53 2 59 -1 172 -77 280 -187 421 -403 467 -715 2 -16 5 -276
5 -577 l1 -548 160 0 160 0 1 918 c0 504 2 924 4 932 1 8 6 34 9 57 21 131 91
272 201 401 58 68 201 163 306 202 46 17 59 27 70 53 7 18 30 60 50 95 l38 62
-2100 0 -2099 0 0 -1360z M6079 3618 c20 -35 43 -77 50 -95 11 -26 24 -36 70
-53 260 -97 467 -343 507 -603 3 -23 8 -49 9 -57 2 -8 4 -428 4 -932 l1 -918
160 0 160 0 1 548 c0 301 2 556 4 567 2 11 7 40 10 65 8 57 57 205 89 267 74
145 197 277 363 390 105 71 118 78 168 80 53 2 59 -1 172 -77 280 -187 421
-403 467 -715 2 -16 5 -276 5 -577 l1 -548 160 0 160 0 1 548 c0 301 2 556 4
567 2 11 7 40 10 65 8 57 57 205 89 267 74 145 197 277 363 390 105 71 118 78
168 80 53 2 59 -1 172 -77 280 -187 421 -403 467 -715 2 -16 5 -276 5 -577 l1
-548 160 0 160 0 0 1360 0 1360 -2099 0 -2100 0 38 -62z M916 2498 c-67 -44
-158 -148 -200 -228 -74 -139 -74 -148 -75 -762 l-1 -548 320 0 320 0 -1 548
c0 503 -2 553 -19 620 -37 141 -133 282 -249 365 l-49 36 -46 -31z M2516 2498
c-67 -44 -158 -148 -200 -228 -74 -139 -74 -148 -75 -762 l-1 -548 320 0 320
0 -1 548 c0 503 -2 553 -19 620 -37 141 -133 282 -249 365 l-49 36 -46 -31z
M7636 2498 c-67 -44 -158 -148 -200 -228 -74 -139 -74 -148 -75 -762 l-1 -548
320 0 320 0 -1 548 c0 503 -2 553 -19 620 -37 141 -133 282 -249 365 l-49 36
-46 -31z M9236 2498 c-67 -44 -158 -148 -200 -228 -74 -139 -74 -148 -75 -762
l-1 -548 320 0 320 0 -1 548 c0 503 -2 553 -19 620 -37 141 -133 282 -249 365
l-49 36 -46 -31z M0 320 l0 -320 1760 0 1760 0 0 320 0 320 -1760 0 -1760 0 0
-320z M6720 320 l0 -320 1760 0 1760 0 0 320 0 320 -1760 0 -1760 0 0 -320z"/>
</g>
</svg>
