<svg xmlns="http://www.w3.org/2000/svg" viewBox="0 0 1024 1024">
<g transform="translate(0,1024) scale(0.1,-0.1)">
<path fill="currentColor" d="M4818 7723 l-3 -2517 -263 1 c-144 0 -264 2 -266 4 -2 2 -130 319
-286 704 -267 662 -394 976 -825 2040 -100 248 -307 759 -460 1136 l-277 686
-257 -103 c-141 -57 -266 -108 -278 -113 l-21 -10 30 -73 c16 -40 101 -251
189 -468 88 -217 469 -1160 848 -2095 487 -1204 684 -1701 675 -1705 -7 -3
-225 -5 -485 -4 l-471 1 5 -351 c3 -193 8 -364 11 -381 3 -16 7 -50 11 -75 3
-25 10 -72 16 -105 5 -33 12 -70 14 -83 2 -12 6 -30 9 -40 3 -9 7 -28 10 -42
34 -180 188 -567 290 -729 l23 -36 2062 0 c1965 0 2063 1 2076 18 30 41 147
281 190 391 70 180 142 459 161 629 3 29 8 63 11 77 3 14 7 183 10 376 l5 351
-481 0 c-265 0 -483 2 -485 4 -2 2 390 974 870 2159 480 1185 873 2162 873
2170 1 20 -535 238 -548 224 -5 -5 -422 -1030 -926 -2279 -505 -1248 -919
-2272 -921 -2274 -3 -3 -478 -5 -521 -2 -10 1 -13 511 -13 2516 l0 2515 -300
0 -300 0 -2 -2517z M2895 2705 c-292 -410 -518 -973 -590 -1470 -4 -22 -8 -51
-11 -65 -2 -14 -6 -52 -10 -85 -3 -33 -8 -71 -11 -85 -3 -14 -7 -244 -10 -513
l-5 -487 2862 0 2862 0 -5 488 c-3 268 -7 496 -10 507 -2 11 -8 51 -12 88 -3
37 -8 76 -10 86 -2 10 -6 42 -10 72 -4 30 -8 56 -10 59 -2 3 -6 26 -10 50 -43
296 -217 768 -401 1087 -65 111 -203 322 -212 324 -4 1 -987 2 -2185 3 l-2179
1 -43 -60z"/>
</g>
</svg>
