<svg viewBox="0 0 512 512" xmlns="http://www.w3.org/2000/svg" data-name="Layer 1"><path fill="currentColor" d="m249.362 256.859a6.776 6.776 0 1 0 6.776-6.776 6.783 6.783 0 0 0 -6.776 6.776z"/><path fill="currentColor" d="m259.862 242.577a14.6 14.6 0 0 1 2.747 1.019l25.735-25.735a49.714 49.714 0 0 0 -28.482-11.661z"/><path fill="currentColor" d="m294.021 223.5-25.434 25.434a14.706 14.706 0 0 1 1.49 3.068h35.838a49.728 49.728 0 0 0 -11.894-28.502z"/><path fill="currentColor" d="m20 305.95h206.809a57.9 57.9 0 0 1 0-99.9h-206.809z"/><path fill="currentColor" d="m259.862 271.14v34.66a49.72 49.72 0 0 0 28.483-11.658l-24.624-24.623a14.672 14.672 0 0 1 -3.859 1.621z"/><path fill="currentColor" d="m305.915 260h-35.345a14.653 14.653 0 0 1 -1.349 3.7l24.8 24.8a49.723 49.723 0 0 0 11.894-28.5z"/><path fill="currentColor" d="m249.294 243.776a14.561 14.561 0 0 1 2.568-1.057v-36.474a49.731 49.731 0 0 0 -28.226 11.872z"/><path fill="currentColor" d="m314.089 256a57.966 57.966 0 0 1 -28.621 49.95h206.532v-99.9h-206.532a57.968 57.968 0 0 1 28.621 49.95z"/><path fill="currentColor" d="m218 288.206 24.876-24.876a14.714 14.714 0 0 1 -1.169-3.33h-35.345a49.716 49.716 0 0 0 11.638 28.206z"/><path fill="currentColor" d="m20 390.89a3.675 3.675 0 0 0 3.671 3.67h464.658a3.675 3.675 0 0 0 3.671-3.67v-76.94h-472z"/><path fill="currentColor" d="m488.329 117.44h-464.658a3.675 3.675 0 0 0 -3.671 3.671v76.939h472v-76.939a3.675 3.675 0 0 0 -3.671-3.671z"/><path fill="currentColor" d="m251.862 271a14.684 14.684 0 0 1 -3.651-1.691l-24.575 24.576a49.725 49.725 0 0 0 28.226 11.872z"/><path fill="currentColor" d="m243.48 249.276-25.48-25.482a49.722 49.722 0 0 0 -11.638 28.206h35.838a14.736 14.736 0 0 1 1.28-2.724z"/></svg>