<svg xmlns="http://www.w3.org/2000/svg" viewBox="0 0 1024 1024">
<g transform="translate(0,1024) scale(0.1,-0.1)">
<path fill="currentColor" d="M4460 10229 c-62 -25 -131 -129 -132 -197 0 -69 35 -127 97 -160 26
-14 106 -16 670 -17 352 0 657 2 679 6 114 20 169 145 113 255 -31 61 -73 101
-118 114 -46 13 -1275 12 -1309 -1z M2712 9509 c-47 -9 -93 -48 -114 -95 -17
-40 -18 -70 -18 -395 1 -299 3 -357 17 -383 21 -42 42 -65 78 -84 27 -15 234
-17 2435 -18 2561 -1 2441 -3 2493 44 11 9 28 34 38 54 17 34 19 61 16 401
l-2 363 -27 41 c-14 22 -43 48 -65 59 -37 18 -116 18 -2430 19 -1315 0 -2405
-3 -2421 -6z M1975 8174 c-80 -42 -95 -79 -96 -238 -1 -113 1 -129 22 -167 16
-28 39 -50 68 -66 l44 -23 3107 0 3107 0 44 23 c29 15 52 38 67 65 21 38 24
55 23 167 0 143 -11 179 -69 223 l-35 27 -3126 2 c-2821 3 -3129 1 -3156 -13z
M973 7321 c-58 -27 -96 -87 -96 -150 1 -60 22 -102 70 -138 34 -26 44 -28 162
-33 l126 -5 2 -213 c1 -199 3 -215 23 -250 24 -40 49 -61 95 -79 44 -17 7486
-17 7532 0 17 7 44 22 58 35 51 44 57 77 57 304 l0 208 111 0 c155 1 211 28
242 116 26 76 -11 166 -85 204 -39 20 -48 20 -4147 20 -4015 0 -4109 -1 -4150
-19z M1335 6084 c-43 -22 -61 -41 -80 -81 -15 -31 -17 -142 -17 -1269 l0
-1234 -101 -1 c-123 -1 -141 -4 -183 -30 -89 -55 -104 -179 -31 -258 50 -53
-23 -51 1496 -51 972 0 1418 3 1438 11 80 30 129 126 103 204 -31 93 -86 122
-234 124 -61 1 -113 4 -116 6 -12 7 2 374 15 395 2 3 6 23 9 45 29 180 134
425 259 602 78 110 247 280 353 356 172 121 396 219 579 251 17 3 39 8 50 10
89 18 301 24 406 11 509 -61 935 -350 1176 -796 54 -98 119 -274 138 -369 1
-3 4 -18 8 -35 21 -93 30 -202 31 -355 l1 -115 -120 -5 c-155 -7 -193 -26
-230 -114 -31 -73 -3 -153 68 -200 l41 -26 1417 0 c980 0 1426 3 1446 11 96
36 138 163 80 246 -46 66 -76 77 -213 81 l-122 4 0 1234 c0 1200 -1 1235 -19
1272 -11 20 -37 49 -59 64 l-39 27 -3760 1 c-3392 0 -3763 -2 -3790 -16z
m1250 -619 c69 -33 138 -110 165 -183 18 -46 21 -72 18 -137 -6 -112 -49 -194
-134 -255 -233 -167 -550 1 -540 287 8 246 267 398 491 288z m5318 24 c136
-36 237 -166 243 -312 6 -144 -68 -262 -206 -326 -81 -38 -193 -37 -272 2
-122 60 -189 160 -196 292 -5 101 19 172 84 244 89 99 216 135 347 100z M1335
2800 c-61 -30 -95 -89 -95 -165 -1 -33 -2 -235 -3 -450 l-2 -390 -125 -5
c-129 -5 -149 -11 -188 -53 -77 -82 -51 -216 51 -266 l43 -21 1295 2 1294 3 1
605 c0 367 -4 617 -10 635 -15 47 -46 83 -90 105 -40 19 -59 20 -1086 20
-1022 0 -1046 -1 -1085 -20z M6734 2801 c-43 -20 -75 -56 -90 -106 -6 -18 -10
-277 -10 -635 l1 -605 1305 0 1305 0 37 23 c100 62 109 199 18 275 -37 32 -65
37 -195 40 l-100 2 -2 448 c-1 440 -2 448 -23 485 -23 39 -47 59 -93 79 -22
10 -263 13 -1070 13 -994 -1 -1044 -1 -1083 -19z M1333 1091 c-28 -13 -49 -33
-68 -64 l-26 -46 -2 -318 -2 -318 -276 -5 -276 -5 -36 -28 c-47 -36 -69 -78
-69 -132 0 -59 26 -108 74 -142 l41 -28 4422 -2 4421 -3 45 29 c106 66 108
210 6 283 -31 22 -41 23 -307 28 l-275 5 -2 304 c-1 168 -4 318 -7 336 -7 36
-50 86 -94 109 -27 14 -139 16 -1082 16 -1132 0 -1076 2 -1134 -49 -48 -42
-50 -57 -52 -391 -1 -173 -2 -318 -3 -322 0 -5 -682 -8 -1513 -8 l-1513 0 0
324 0 323 -28 42 c-18 27 -44 50 -70 62 -40 18 -82 19 -1087 19 -1003 0 -1047
-1 -1087 -19z"/>
</g>
</svg>
