<svg xmlns="http://www.w3.org/2000/svg" viewBox="0 0 1024 1024">
<g transform="translate(0,1024) scale(0.1,-0.1)">
<path fill="currentColor" d="M4982 10130 c-338 -276 -548 -497 -722 -758 -149 -223 -267 -507
-295 -712 -3 -25 -9 -58 -11 -75 -3 -16 -7 -90 -9 -163 -1 -73 -4 -134 -6
-136 -2 -1 -37 -24 -76 -50 -161 -105 -314 -280 -403 -462 -28 -55 -50 -104
-50 -107 0 -3 35 12 77 33 112 58 261 105 398 127 63 10 303 10 370 1 312 -45
606 -207 827 -456 l38 -42 42 47 c171 187 369 320 584 392 96 32 107 35 229
56 107 18 336 13 440 -9 111 -24 243 -69 336 -115 44 -22 79 -37 79 -33 0 3
-23 51 -50 107 -93 185 -245 358 -410 466 l-76 50 7 62 c7 66 4 267 -4 303 -3
12 -8 39 -11 60 -43 267 -227 610 -484 901 -118 134 -333 343 -427 414 -16 13
-32 26 -35 29 -7 8 -220 180 -223 180 -1 -1 -62 -50 -135 -110z m353 -1180
l210 -210 -213 -213 -212 -212 -212 212 -213 213 210 210 c115 115 212 210
215 210 3 0 100 -95 215 -210z M3399 9242 c-342 -173 -594 -354 -839 -601
-347 -350 -589 -776 -684 -1206 -42 -188 -51 -278 -51 -490 0 -171 6 -264 24
-365 6 -30 12 -66 15 -80 76 -423 326 -892 661 -1240 106 -110 270 -260 313
-284 12 -7 14 -5 8 9 -7 20 -65 234 -72 268 -2 12 -6 33 -9 47 -3 14 -7 34 -9
45 -2 11 -7 45 -11 75 -4 30 -10 64 -13 75 -10 35 -11 1865 -1 1945 15 121 48
265 85 371 95 272 218 469 430 689 l111 115 11 75 c21 130 23 143 57 260 31
106 79 241 119 333 9 20 15 37 13 37 -2 0 -73 -35 -158 -78z M6730 9287 c0 -3
11 -29 24 -59 34 -77 91 -262 110 -354 23 -116 25 -132 32 -209 l7 -70 88 -90
c48 -49 108 -115 132 -146 208 -258 344 -582 386 -919 11 -86 8 -1893 -3
-1955 -4 -22 -16 -89 -26 -150 -11 -60 -35 -166 -54 -235 -19 -69 -33 -126
-31 -128 2 -2 50 37 107 86 517 446 839 1030 905 1647 16 140 9 462 -12 565
-2 13 -7 42 -10 65 -11 76 -66 278 -102 374 -199 535 -574 990 -1103 1338
-167 110 -450 261 -450 240z M3899 7220 c-284 -70 -496 -287 -563 -575 -14
-61 -16 -139 -13 -590 2 -286 6 -529 9 -540 3 -11 9 -41 12 -68 4 -26 20 -98
35 -161 131 -518 499 -964 986 -1196 87 -41 289 -113 350 -123 17 -3 41 -8 55
-11 111 -24 184 -31 345 -31 137 0 263 8 297 20 7 2 29 6 49 9 20 3 42 8 50
10 8 3 26 7 40 10 57 9 246 79 342 126 405 198 725 541 893 960 45 110 98 298
110 387 3 26 9 57 12 68 3 11 7 252 9 535 3 566 1 595 -57 732 -98 229 -312
400 -560 447 -56 10 -231 8 -285 -3 -321 -69 -562 -338 -592 -662 l-6 -64
-298 0 -299 0 -1 28 c-8 313 -230 593 -541 683 -104 30 -277 34 -379 9z M2695
4228 c-112 -195 -226 -343 -398 -517 -67 -68 -117 -121 -112 -118 9 4 73 15
135 22 14 2 379 3 813 4 l787 1 0 80 c0 56 -4 82 -12 84 -152 45 -392 129
-493 172 -225 95 -487 232 -646 337 l-27 18 -47 -83z M7415 4259 c-282 -177
-618 -330 -955 -435 l-135 -42 -3 -81 -3 -81 783 -1 c431 0 792 -2 803 -4 11
-2 46 -6 78 -9 32 -3 64 -9 70 -12 7 -4 -39 44 -100 106 -169 169 -283 315
-395 508 -33 56 -61 102 -62 102 0 -1 -37 -23 -81 -51z M4520 3210 l0 -190
-451 0 -451 0 6 -55 c31 -289 318 -566 746 -720 87 -31 275 -80 340 -89 25 -3
56 -8 70 -11 129 -26 537 -27 675 -1 11 2 40 7 65 11 70 11 77 13 169 36 516
129 891 442 927 774 l6 55 -451 0 -451 0 0 191 0 192 -32 -7 c-18 -4 -42 -9
-53 -12 -38 -8 -170 -34 -200 -39 -153 -27 -484 -27 -621 -1 -12 3 -37 7 -55
10 -19 3 -45 8 -59 11 -14 3 -38 8 -55 11 -16 2 -46 9 -65 14 -63 18 -60 27
-60 -180z M2268 3015 c-1 -1 -34 -6 -73 -10 -38 -4 -72 -8 -75 -10 -3 -2 -23
-6 -45 -9 -22 -4 -74 -16 -115 -27 -291 -78 -557 -228 -790 -446 l-34 -32 54
-78 c30 -43 420 -600 868 -1238 l814 -1160 74 -3 74 -3 0 1511 0 1511 -374 -1
c-206 -1 -376 -3 -378 -5z M7220 1510 l0 -1511 74 3 74 3 843 1200 c463 660
853 1217 867 1238 l25 37 -34 33 c-256 246 -625 433 -954 482 -22 4 -51 9 -65
12 -14 3 -206 8 -427 10 l-403 5 0 -1512z M3620 981 l0 -981 1500 0 1500 0 0
979 0 980 -87 -56 c-116 -72 -295 -162 -414 -206 -88 -33 -283 -93 -333 -103
-12 -2 -43 -8 -71 -14 -81 -17 -98 -20 -145 -26 -25 -3 -54 -8 -65 -10 -132
-25 -611 -25 -765 0 -14 2 -46 7 -71 10 -46 7 -74 12 -119 21 -14 3 -41 8 -60
11 -58 10 -262 71 -367 110 -150 56 -363 167 -480 250 l-23 16 0 -981z M742
1863 c-38 -98 -77 -233 -98 -343 -15 -73 -18 -183 -21 -803 l-4 -717 761 0
762 0 -29 39 c-15 21 -320 458 -678 969 -357 512 -653 931 -657 931 -3 1 -20
-34 -36 -76z M8805 1008 c-357 -511 -663 -948 -678 -969 l-29 -39 762 0 761 0
-4 708 c-2 389 -6 716 -9 727 -3 11 -9 43 -12 70 -17 127 -113 436 -134 434
-4 0 -299 -419 -657 -931z"/>
</g>
</svg>
