<svg viewBox="0 0 512 512" xmlns="http://www.w3.org/2000/svg"><g data-name="43.Kumbh Kalash"><path fill="currentColor" d="m229.2982 165.6911c1.8667 1.6721 3.6778 3.3846 5.41 5.1168a276.1052 276.1052 0 0 1 21.2942 23.8435 275.08 275.08 0 0 1 21.2892-23.844c1.7317-1.7317 3.5428-3.4442 5.4091-5.1158-6.037-27.8151-19.1672-50.3107-26.6492-61.4857-7.5821 11.1741-20.7158 33.6691-26.7533 61.4852z"/><path fill="currentColor" d="m257.03 214.1351h78.3837c23.8355-28.163 32.7383-63.09 35.4918-77.0468a.2145.2145 0 0 0 .0046-.0405c-15.8706 3.0923-55.7668 13.4907-84.8328 42.5466a250.3156 250.3156 0 0 0 -29.0473 34.5407z"/><path fill="currentColor" d="m242.1579 214.1351c1.9041-3.0276 3.9529-6.0941 6.128-9.1717a260.6 260.6 0 0 0 -22.3651-25.37c-29.0524-29.0524-68.9571-39.4528-84.7655-42.5759 2.7019 14.0266 11.6254 48.9865 35.43 77.1171z"/><path fill="currentColor" d="m218.5955 156.982c6.9364-27.0016 19.5949-48.59 27.0279-59.69a12.4914 12.4914 0 0 1 20.75-.003c7.4345 11.1032 20.0929 32.6917 27.0294 59.6918a170.9019 170.9019 0 0 1 33.4587-19.1242c.0491-1.8859.0739-3.7891.0739-5.6912 0-54.0173-45.0873-100.9652-64.4724-118.6424a9.5407 9.5407 0 0 0 -12.9259-.0015c-19.3864 17.6785-64.4737 64.6268-64.4737 118.6441 0 1.8986.0248 3.7992.0738 5.6841a171.6023 171.6023 0 0 1 33.4583 19.1323z"/><path fill="currentColor" d="m144.7678 226.565h222.4639a8.8891 8.8891 0 0 1 8.8891 8.8891v5.8873a8.8891 8.8891 0 0 1 -8.8891 8.8891h-222.4639a8.8886 8.8886 0 0 1 -8.8886-8.8886v-5.8883a8.8886 8.8886 0 0 1 8.8886-8.8886z"/><rect rx="8.465" x="164.221" y="478.025"/><path fill="currentColor" d="m398.0936 317.0283-48.6068-54.3718h-186.9736l-48.6068 54.3718a70.6117 70.6117 0 0 0 0 94.1981l27.536 30.8023a70.7466 70.7466 0 0 0 52.6856 23.57h123.744a70.7466 70.7466 0 0 0 52.6856-23.57l27.536-30.8023a70.6117 70.6117 0 0 0 0-94.1981zm-177.1152 15.45a6.213 6.213 0 0 1 12.4259 0v.2493a6.213 6.213 0 0 1 -12.4259 0zm70.1317 60.31a6.213 6.213 0 0 1 -12.4259 0v-.2483a6.213 6.213 0 0 1 12.4259 0zm-28.8972-82.48v44.0128h50.2258a6.2129 6.2129 0 0 1 6.2129 6.213v56.4387a6.2129 6.2129 0 0 1 -12.4258 0v-50.2254h-44.0129v50.2258a6.2128 6.2128 0 0 1 -6.2129 6.2129h-56.4387a6.2129 6.2129 0 1 1 0-12.4258h50.2258v-44.0129h-50.2258a6.2128 6.2128 0 0 1 -6.2129-6.2129v-56.4387a6.2129 6.2129 0 1 1 12.4258 0v50.2257h44.0129v-50.2257a6.2129 6.2129 0 0 1 6.2129-6.213h56.4387a6.213 6.213 0 0 1 0 12.4259zm28.8972 22.17v.2493a6.213 6.213 0 0 1 -12.4259 0v-.2493a6.213 6.213 0 0 1 12.4259 0zm-70.1317 60.31v-.2483a6.213 6.213 0 0 1 12.4259 0v.2493a6.213 6.213 0 0 1 -12.4259 0z"/><path fill="currentColor" d="m249.787 354.322h12.426v12.426h-12.426z"/></g></svg>