<svg viewBox="-79 0 463 463.992" xmlns="http://www.w3.org/2000/svg"><path fill="currentColor" d="m138.335938 270.207031 4.113281 32.921875c.628906 5.054688 4.949219 8.863282 10.046875 8.863282s9.414062-3.816407 10.046875-8.863282l4.113281-32.921875c-4.398438 1.023438-9.054688 1.785157-14.160156 1.785157-5.105469 0-9.761719-.761719-14.160156-1.785157zm0 0"/><path fill="currentColor" d="m218.9375 333.441406-22.800781-4.5625c-4.703125 6.257813-14.402344 16.59375-29.234375 21l10.464844 13.960938c20.097656-6.894532 34.046874-20.96875 41.570312-30.398438zm0 0"/><path fill="currentColor" d="m248.496094 199.992188c0-5.894532-3.238282-11-8-13.777344v27.546875c3.574218-2.089844 6.246094-5.488281 7.367187-9.570313.375-1.429687.632813-2.824218.632813-4.199218zm0 0"/><path fill="currentColor" d="m248.574219 104.265625c4.945312 3.757813 8.960937 8.613281 11.722656 14.238281l.34375-.679687c2.519531-5.046875 3.855469-10.703125 3.855469-16.34375 0-7.242188-2.121094-14.25-6.136719-20.265625l-1.863281-2.800782-9.816406 14.707032c1.375 6.070312 1.769531 10.015625 1.785156 10.199218zm0 0"/><path fill="currentColor" d="m175.023438 95.992188h9.066406c-2-21.816407-13.5625-41.945313-31.59375-54.472657-18.03125 12.527344-29.59375 32.664063-31.585938 54.480469h9.066406c2.414063-6.777344 7.75-12.113281 14.527344-14.527344v-17.472656h16v17.472656c6.769532 2.414063 12.105469 7.742188 14.519532 14.519532zm0 0"/><path fill="currentColor" d="m194.152344 69.734375c2.703125-4.429687 5.886718-8.597656 9.65625-12.367187l4.464844-4.464844c-9.402344-9.292969-22.449219-16.847656-40.441407-19.644532 11.734375 9.796876 20.777344 22.382813 26.320313 36.476563zm0 0"/><path fill="currentColor" d="m160.496094 103.992188c0 4.417968-3.582032 8-8 8-4.417969 0-8-3.582032-8-8 0-4.417969 3.582031-8 8-8 4.417968 0 8 3.582031 8 8zm0 0"/><path fill="currentColor" d="m224.496094 95.992188c2.296875 0 4.519531.304687 6.710937.679687-1.640625-7.71875-5.277343-19.695313-12.800781-31.289063l-3.292969 3.296876c-7.511719 7.511718-12.28125 17.015624-13.9375 27.3125zm0 0"/><path fill="currentColor" d="m248.097656 363.6875c-.007812 0-.019531 0-.035156 0l-5.886719.023438-1.769531-5.621094c-1.140625-3.648438-4.328125-6.097656-7.910156-6.097656-3.585938 0-6.777344 2.449218-7.910156 6.097656l-1.769532 5.621094-5.886718-.023438c-.019532 0-.027344 0-.035157 0-3.636719 0-6.839843 2.390625-7.972656 5.953125-1.167969 3.664063.117187 7.648437 3.183594 9.917969l4.589843 3.417968-1.742187 5.457032c-1.183594 3.726562.03125 7.734375 3.03125 9.957031 2.878906 2.160156 6.785156 2.121094 9.710937-.070313l4.800782-3.601562 4.800781 3.601562c2.925781 2.191407 6.824219 2.222657 9.703125.078126 3.007812-2.230469 4.222656-6.238282 3.039062-9.964844l-1.742187-5.457032 4.589844-3.417968c3.074219-2.269532 4.351562-6.253906 3.183593-9.910156v-.007813c-1.125-3.5625-4.335937-5.953125-7.972656-5.953125zm-7.601562 20.304688h-16v-16h16zm0 0"/><path fill="currentColor" d="m184.496094 317.6875v-11.71875c-2.214844.863281-4.480469 1.65625-6.785156 2.34375-2.917969 11.398438-13.183594 19.671875-25.214844 19.671875s-22.296875-8.273437-25.214844-19.671875c-2.304688-.6875-4.570312-1.480469-6.785156-2.34375v11.695312c2.894531 4.328126 12.390625 16.191407 28.296875 17.921876l3.703125-4.929688 3.839844 5.121094c15.769531-1.738282 25.230468-13.753906 28.160156-18.089844zm0 0"/><path fill="currentColor" d="m180.257812 290.390625c26.269532-11.015625 44.238282-37.039063 44.238282-66.398437v-40c0-19.289063-15.695313-34.984376-34.984375-34.984376-6.925781 0-13.640625 2.03125-19.40625 5.871094l-17.609375 11.746094-17.609375-11.746094c-5.765625-3.839844-12.480469-5.871094-19.40625-5.871094-19.289063 0-34.984375 15.695313-34.984375 34.984376v40c0 29.351562 17.960937 55.382812 44.238281 66.398437l-3.308594-26.488281c-8.851562-4.734375-14.1875-9.855469-14.585937-10.253906l11.289062-11.335938c.144532.136719 14.160156 13.679688 34.367188 13.679688 20.457031 0 34.199218-13.519532 34.34375-13.65625l11.3125 11.3125c-.398438.398437-5.738282 5.519531-14.585938 10.253906zm-67.761718-82.398437c-4.417969 0-8-3.585938-8-8 0-4.417969 3.582031-8 8-8 4.414062 0 8 3.582031 8 8 0 4.421874-3.585938 8-8 8zm48-16h-16v-16h16zm32 16c-4.417969 0-8-3.585938-8-8 0-4.417969 3.582031-8 8-8 4.414062 0 8 3.582031 8 8 0 4.421874-3.585938 8-8 8zm0 0"/><path fill="currentColor" d="m252.71875 280.976562c-1.847656-7.128906 1.128906-13.992187 3.753906-20.046874 1.480469-3.402344 3.304688-7.617188 2.976563-9.5625-.328125-1.925782-3.457031-5.296876-5.960938-8.007813-3.625-3.902344-7.511719-8.289063-9.257812-13.664063-1.300781.519532-2.664063.914063-4.046875 1.257813-2.191406 27.550781-17.289063 52.023437-39.6875 66.695313v15.792968l69.351562 13.863282c-.3125-4.710938.738282-9.472657 1.800782-13.832032.878906-3.585937 1.976562-8.046875 1.328124-9.886718-.65625-1.851563-4.304687-4.65625-7.242187-6.90625-5.230469-4.023438-11.167969-8.574219-13.015625-15.703126zm0 0"/><path fill="currentColor" d="m138.078125 349.871094c-14.832031-4.398438-24.527344-14.742188-29.230469-21l-22.800781 4.5625c7.519531 9.4375 21.472656 23.511718 41.5625 30.390625zm0 0"/><path fill="currentColor" d="m138.496094 375.992188 14 18.664062 14-18.664062-14-18.664063zm0 0"/><path fill="currentColor" d="m96.070312 369.648438c-1.132812-3.570313-4.335937-5.960938-7.972656-5.960938-.007812 0-.019531 0-.035156 0l-5.886719.023438-1.769531-5.621094c-1.140625-3.648438-4.328125-6.097656-7.910156-6.097656-3.585938 0-6.777344 2.449218-7.910156 6.097656l-1.769532 5.621094-5.886718-.023438c-.019532 0-.027344 0-.035157 0-3.636719 0-6.839843 2.390625-7.972656 5.953125-1.167969 3.664063.117187 7.648437 3.183594 9.917969l4.589843 3.417968-1.742187 5.457032c-1.183594 3.726562.03125 7.734375 3.03125 9.957031 2.871094 2.160156 6.777344 2.121094 9.710937-.070313l4.800782-3.601562 4.800781 3.601562c2.933594 2.191407 6.832031 2.222657 9.703125.078126 3.007812-2.230469 4.222656-6.238282 3.039062-9.964844l-1.742187-5.457032 4.589844-3.417968c3.074219-2.269532 4.351562-6.253906 3.183593-9.910156zm-15.574218 14.34375h-16v-16h16zm0 0"/><path fill="currentColor" d="m56.496094 172.449219c3.175781-1.855469 6.65625-3.21875 10.398437-3.882813 6.5625-20.582031 25.847657-35.550781 48.585938-35.550781 10.105469 0 19.878906 2.960937 28.28125 8.558594l8.734375 5.816406 8.734375-5.824219c8.402343-5.597656 18.175781-8.558594 28.28125-8.558594 22.726562 0 42.023437 14.960938 48.585937 35.550782 3.75.664062 7.222656 2.035156 10.398438 3.882812v-36.449218c0-13.230469-10.769532-24-24-24h-49.472656c-3.3125 9.289062-12.113282 16-22.527344 16-10.417969 0-19.214844-6.710938-22.527344-16h-49.472656c-13.230469 0-24 10.769531-24 24zm0 0"/><path fill="currentColor" d="m50.800781 412.542969c-.785156-.453125-1.625-.757813-2.367187-1.320313-7.058594-5.238281-10.664063-13.824218-9.800782-22.445312-5.640624-6.472656-7.648437-15.539063-4.96875-23.976563 2.6875-8.472656 9.519532-14.632812 17.832032-16.511719 2.75-4.824218 7.070312-8.328124 12.078125-10.359374l-30.917969 6.183593c-18.640625 3.742188-32.160156 20.230469-32.160156 39.230469v80.648438h39.695312c-1.3125-3.542969-1.945312-7.351563-1.558594-11.207032-5.640624-6.472656-7.648437-15.539062-4.96875-23.976562 2.617188-8.222656 9.160157-14.191406 17.136719-16.265625zm0 0"/><path fill="currentColor" d="m208.433594 411.230469c-7.058594-5.238281-10.664063-13.824219-9.800782-22.445313-3.417968-3.921875-5.304687-8.824218-5.824218-13.929687-2.535156 1.207031-5.207032 2.304687-7.953125 3.320312l-32.359375 43.152344-32.367188-43.160156c-2.746094-1.015625-5.417968-2.113281-7.953125-3.320313-.519531 5.113282-2.398437 10.015625-5.824219 13.929688.863282 8.621094-2.742187 17.199218-9.808593 22.453125-.703125.523437-1.445313.9375-2.191407 1.378906 7.007813 1.878906 12.738282 6.855469 15.777344 13.648437 3.398438 2.925782 17.640625 13.734376 42.359375 13.734376 24.710938 0 38.992188-10.832032 42.351563-13.71875 3.0625-6.867188 8.855468-11.890626 15.953125-13.730469-.777344-.453125-1.617188-.757813-2.359375-1.3125zm0 0"/><path fill="currentColor" d="m96.070312 433.640625c-1.132812-3.5625-4.335937-5.953125-7.972656-5.953125-.007812 0-.019531 0-.035156 0l-5.886719.023438-1.769531-5.621094c-1.140625-3.648438-4.328125-6.097656-7.910156-6.097656-3.585938 0-6.777344 2.449218-7.910156 6.097656l-1.769532 5.621094-5.886718-.023438c-.019532 0-.027344 0-.035157 0-3.636719 0-6.839843 2.390625-7.972656 5.953125-1.167969 3.664063.117187 7.648437 3.183594 9.917969l4.589843 3.417968-1.742187 5.457032c-1.183594 3.726562.03125 7.734375 3.03125 9.957031 2.871094 2.152344 6.777344 2.121094 9.710937-.070313l4.800782-3.601562 4.800781 3.601562c2.933594 2.183594 6.832031 2.230469 9.703125.078126 3.007812-2.230469 4.222656-6.238282 3.039062-9.964844l-1.742187-5.457032 4.589844-3.417968c3.074219-2.269532 4.351562-6.253906 3.183593-9.917969zm-15.574218 14.351563h-16v-16h16zm0 0"/><path fill="currentColor" d="m194.457031 445.632812c-9.144531 5.039063-23.113281 10.367188-41.960937 10.367188s-32.816406-5.328125-41.960938-10.367188c-1.03125 2.566407-2.328125 5.03125-4.183594 7.152344.382813 3.855469-.246093 7.664063-1.558593 11.207032h95.398437c-1.3125-3.542969-1.945312-7.351563-1.558594-11.207032-1.847656-2.121094-3.144531-4.585937-4.175781-7.152344zm0 0"/><path fill="currentColor" d="m181.144531 19.566406-4.898437-19.566406h-47.503906l-4.894532 19.566406c8.464844-2.269531 17.953125-3.574218 28.648438-3.574218 10.695312 0 20.183594 1.304687 28.648437 3.574218zm0 0"/><path fill="currentColor" d="m256.070312 433.640625c-1.132812-3.5625-4.335937-5.953125-7.972656-5.953125-.007812 0-.019531 0-.035156 0l-5.886719.023438-1.769531-5.621094c-1.140625-3.648438-4.328125-6.097656-7.910156-6.097656-3.585938 0-6.777344 2.449218-7.910156 6.097656l-1.769532 5.621094-5.886718-.023438c-.019532 0-.027344 0-.035157 0-3.636719 0-6.839843 2.390625-7.972656 5.953125-1.167969 3.664063.117187 7.648437 3.183594 9.917969l4.589843 3.417968-1.742187 5.457032c-1.183594 3.726562.03125 7.734375 3.03125 9.957031 2.878906 2.152344 6.785156 2.121094 9.710937-.070313l4.800782-3.601562 4.800781 3.601562c2.925781 2.183594 6.824219 2.230469 9.703125.078126 3.007812-2.230469 4.222656-6.238282 3.039062-9.964844l-1.742187-5.457032 4.589844-3.417968c3.074219-2.269532 4.351562-6.253906 3.183593-9.917969zm-15.574218 14.351563h-16v-16h16zm0 0"/><path fill="currentColor" d="m272.335938 344.121094-30.921876-6.183594c5 2.03125 9.320313 5.535156 12.082032 10.359375 8.304687 1.878906 15.144531 8.046875 17.832031 16.511719 2.679687 8.4375.671875 17.503906-4.96875 23.976562.863281 8.621094-2.742187 17.199219-9.808594 22.453125-.703125.523438-1.445312.9375-2.191406 1.378907 7.898437 2.109374 14.375 8.039062 16.960937 16.191406 2.679688 8.4375.671876 17.503906-4.96875 23.976562.382813 3.855469-.246093 7.664063-1.558593 11.207032h39.703125v-80.648438c0-19-13.519532-35.488281-32.160156-39.222656zm0 0"/><path fill="currentColor" d="m44.695312 118.503906c2.777344-5.65625 6.808594-10.527344 11.792969-14.296875l.007813-.429687c.023437-.28125.414062-4.34375 1.824218-10.554688l-.640624-1.039062-9.183594-13.769532-1.863282 2.800782c-4.015624 6.015625-6.136718 13.023437-6.136718 20.265625 0 5.640625 1.335937 11.296875 3.855468 16.34375zm0 0"/><path fill="currentColor" d="m103.808594 95.992188c-1.648438-10.296876-6.425782-19.800782-13.9375-27.3125l-3.382813-3.382813c-7.558593 11.648437-11.167969 23.703125-12.761719 31.375 2.210938-.382813 4.449219-.6875 6.769532-.6875h23.3125zm0 0"/><path fill="currentColor" d="m35.144531 327.304688 69.351563-13.863282v-15.792968c-22.398438-14.671876-37.496094-39.152344-39.695313-66.695313-1.386719-.34375-2.746093-.746094-4.046875-1.257813-1.746094 5.375-5.632812 9.761719-9.257812 13.664063-2.503906 2.710937-5.632813 6.082031-5.960938 8.007813-.328125 1.945312 1.503906 6.167968 2.976563 9.5625 2.625 6.054687 5.601562 12.917968 3.753906 20.046874-1.839844 7.128907-7.785156 11.679688-13.019531 15.695313-2.933594 2.25-6.582032 5.054687-7.238282 6.914063-.648437 1.828124.449219 6.292968 1.328126 9.878906 1.070312 4.375 2.121093 9.128906 1.808593 13.839844zm0 0"/><path fill="currentColor" d="m110.839844 69.734375c5.542968-14.101563 14.59375-26.6875 26.335937-36.496094-18.054687 2.777344-31.121093 10.320313-40.527343 19.585938l4.542968 4.542969c3.753906 3.769531 6.9375 7.9375 9.648438 12.367187zm0 0"/><path fill="currentColor" d="m57.128906 204.199219c1.117188 4.082031 3.792969 7.480469 7.367188 9.570312v-27.546875c-4.761719 2.777344-8 7.882813-8 13.777344 0 1.367188.257812 2.761719.632812 4.199219zm0 0"/></svg>