<svg viewBox="-64 0 464 464" xmlns="http://www.w3.org/2000/svg"><path fill="currentColor" d="m168 272c35.289062 0 64-28.710938 64-64v-72c0-4.414062-3.585938-8-8-8h-112c-4.414062 0-8 3.585938-8 8v72c0 35.289062 28.710938 64 64 64zm40-104c4.414062 0 8 3.585938 8 8s-3.585938 8-8 8-8-3.585938-8-8 3.585938-8 8-8zm-48-24h16v16h-16zm8 88c8.824219 0 16-7.175781 16-16h16c0 17.648438-14.351562 32-32 32s-32-14.351562-32-32h16c0 8.824219 7.175781 16 16 16zm-48-56c0-4.414062 3.585938-8 8-8s8 3.585938 8 8-3.585938 8-8 8-8-3.574219-8-8zm0 0"/><path fill="currentColor" d="m88 161.480469c-9.289062 3.3125-16 12.113281-16 22.527343 0 10.417969 6.710938 19.214844 16 22.527344zm0 0"/><path fill="currentColor" d="m126.585938 318.105469-4.746094-6.320313-33.6875 8.421875 15.566406 20.761719zm0 0"/><path fill="currentColor" d="m157.878906 359.839844-21.597656-28.808594-22.855469 22.855469 23.8125 31.753906zm-29.878906-7.839844h16v16h-16zm0 0"/><path fill="currentColor" d="m222.585938 353.894531-22.859376-22.855469-21.597656 28.808594 20.648438 25.808594zm-30.585938-1.894531h16v16h-16zm0 0"/><path fill="currentColor" d="m168 6.382812 16.527344 11.023438c5.105468.761719 10.113281 1.929688 15.039062 3.386719-2.109375-11.703125-15.382812-20.792969-31.566406-20.792969s-29.457031 9.089844-31.566406 20.792969c4.917968-1.457031 9.925781-2.625 15.039062-3.386719zm0 0"/><path fill="currentColor" d="m122.527344 43.734375c-9.09375 4.921875-17.421875 11.242187-24.550782 18.839844l14.984376 5.992187c1.511718-8.886718 4.800781-17.308594 9.566406-24.832031zm0 0"/><path fill="currentColor" d="m247.847656 320.207031-33.6875-8.421875-4.746094 6.320313 22.867188 22.863281zm0 0"/><path fill="currentColor" d="m238.023438 62.574219c-7.128907-7.597657-15.457032-13.917969-24.550782-18.839844 4.765625 7.523437 8.054688 15.945313 9.566406 24.839844zm0 0"/><path fill="currentColor" d="m163.3125 72.003906 4.6875-4.691406 4.691406 4.691406-4.691406 4.6875zm0 0"/><path fill="currentColor" d="m68.015625 155.496094c5.410156-5.3125 12.289063-9.121094 19.984375-10.6875v-8.808594c0-13.230469 10.769531-24 24-24h112c13.230469 0 24 10.769531 24 24v8.808594c7.695312 1.566406 14.585938 5.375 19.984375 10.6875l3.390625-23.777344c.425781-2.847656.625-5.757812.625-8.613281 0-11.050781-3.007812-21.890625-8.6875-31.363281l-10.664062-17.78125-44.648438 17.855468v-11.816406c0-17.359375-8.625-33.472656-23.0625-43.097656l-16.9375-11.285156-16.9375 11.285156c-14.4375 9.632812-23.0625 25.738281-23.0625 43.097656v11.816406l-44.648438-17.847656-10.664062 17.785156c-5.679688 9.460938-8.6875 20.300782-8.6875 31.351563 0 2.855469.199219 5.765625.617188 8.613281zm171.984375-67.496094h16v16h-16zm-72-43.3125 27.3125 27.3125-27.3125 27.3125-27.3125-27.3125zm-88 43.3125h16v16h-16zm0 0"/><path fill="currentColor" d="m72 307.761719 40-10v-32.730469c-11.3125-11.101562-19.335938-25.527344-22.488281-41.6875-6.519531-1.070312-12.457031-3.71875-17.511719-7.550781zm0 0"/><path fill="currentColor" d="m208 293.34375v-16.167969c-11.785156 6.839844-25.425781 10.824219-40 10.824219s-28.214844-3.984375-40-10.824219v16.167969l40 53.328125zm0 0"/><path fill="currentColor" d="m320 416h16v16h-16zm0 0"/><path fill="currentColor" d="m264 215.800781c-5.054688 3.832031-10.992188 6.472657-17.511719 7.550781-3.152343 16.160157-11.175781 30.585938-22.488281 41.6875v32.730469l40 10zm0 0"/><path fill="currentColor" d="m30.296875 334.671875c-17.832031 4.464844-30.296875 20.417969-30.296875 38.808594v26.519531h45.296875c1.597656-5.9375 2.976563-10.121094 3.117187-10.527344l15.179688 5.0625c-.082031.226563-7.59375 22.976563-7.59375 37.464844 0 11.648438 3.648438 22.574219 10.265625 32h93.734375v-21.328125l-88.6875-118.257813zm57.703125 97.328125h16v16h-16zm0 0"/><path fill="currentColor" d="m168.199219 373.070312-.199219.265626-.199219-.265626-20.648437 25.800782 20.847656 27.792968 20.847656-27.792968zm0 0"/><path fill="currentColor" d="m305.703125 334.671875-41.015625-10.257813-88.6875 118.257813v21.328125h93.734375c6.617187-9.425781 10.265625-20.351562 10.265625-32 0-14.527344-7.511719-37.238281-7.585938-37.472656l15.171876-5.0625c.132812.414062 1.519531 4.597656 3.117187 10.527344h45.296875v-26.519532c0-18.382812-12.464844-34.335937-30.296875-38.800781zm-57.703125 113.328125h-16v-16h16zm0 0"/><path fill="currentColor" d="m304 416h-9.664062c.976562 5.449219 1.664062 11.03125 1.664062 16h8zm0 0"/><path fill="currentColor" d="m288.414062 464h47.585938v-16h-41.871094c-1.265625 5.542969-3.183594 10.910156-5.714844 16zm0 0"/><path fill="currentColor" d="m0 416h16v16h-16zm0 0"/><path fill="currentColor" d="m248 161.480469v45.046875c9.289062-3.3125 16-12.113282 16-22.527344s-6.710938-19.207031-16-22.519531zm0 0"/><path fill="currentColor" d="m32 416v16h8c0-4.96875.6875-10.550781 1.664062-16zm0 0"/><path fill="currentColor" d="m0 448v16h47.585938c-2.53125-5.089844-4.449219-10.457031-5.714844-16zm0 0"/></svg>