<svg xmlns="http://www.w3.org/2000/svg" viewBox="0 0 1024 1024">
<g transform="translate(0,1024) scale(0.1,-0.1)">
<path fill="currentColor" d="M4899 9836 c-2 -2 -45 -6 -96 -10 -117 -8 -291 -31 -383 -51 -14 -3
-41 -8 -60 -11 -89 -15 -327 -81 -474 -131 -704 -241 -1309 -675 -1774 -1271
-322 -414 -563 -909 -687 -1412 -18 -75 -36 -152 -39 -171 -3 -19 -8 -45 -11
-59 -2 -13 -7 -40 -10 -60 -3 -20 -7 -46 -10 -59 -2 -13 -7 -49 -11 -80 -3
-31 -8 -65 -10 -75 -24 -129 -24 -691 0 -836 3 -14 7 -49 10 -78 9 -81 15
-117 42 -252 123 -620 401 -1201 815 -1698 104 -125 356 -376 481 -480 l97
-81 54 29 c53 29 115 54 166 67 14 3 79 7 145 7 l118 2 30 34 c17 19 61 69 98
110 l68 76 -72 -18 c-124 -32 -277 -18 -401 37 -65 28 -277 177 -408 285 -62
51 -87 78 -92 100 -12 56 37 100 98 88 22 -4 23 -3 20 82 -2 93 14 181 48 261
l21 48 -29 38 c-45 58 -133 196 -203 317 -149 259 -270 564 -334 841 -26 113
-30 134 -42 220 -3 28 -8 59 -10 69 -22 122 -22 568 0 682 2 12 7 45 11 75 4
30 13 88 21 129 9 41 18 89 21 105 12 71 95 339 137 442 174 434 402 773 741
1103 321 312 726 558 1170 709 102 34 298 86 365 96 24 4 47 8 50 10 3 2 28 6
55 9 28 4 59 8 70 10 13 2 44 43 91 121 40 65 82 130 93 146 12 15 21 31 21
34 0 3 -32 4 -71 3 -67 -2 -73 -1 -95 25 -30 35 -30 69 -1 101 29 33 44 35
284 43 l201 6 26 -26 c30 -30 32 -55 10 -102 l-16 -33 59 -89 c45 -66 124
-194 137 -220 1 -1 21 -4 46 -8 113 -16 154 -23 280 -51 740 -165 1399 -606
1847 -1235 273 -384 466 -870 529 -1328 3 -25 8 -57 10 -71 22 -141 22 -577 0
-697 -2 -10 -7 -45 -11 -78 -10 -90 -52 -290 -85 -410 -89 -315 -243 -647
-422 -906 l-60 -87 21 -48 c27 -63 51 -165 51 -212 0 -28 2 -27 63 35 54 53
69 63 99 63 45 0 78 -34 78 -79 0 -30 -18 -52 -158 -195 -87 -88 -171 -180
-187 -204 -66 -100 -206 -198 -335 -236 -82 -25 -117 -30 -205 -30 -88 0 -129
6 -192 28 -24 8 -43 13 -43 11 0 -3 23 -33 50 -67 28 -35 68 -89 88 -121 30
-47 41 -56 57 -51 11 3 70 8 131 10 130 4 220 -16 321 -72 34 -19 63 -31 65
-27 1 5 44 41 93 82 117 96 381 360 481 481 229 275 425 594 569 925 91 208
207 577 239 760 3 17 8 41 11 55 2 13 7 40 10 60 3 20 7 45 9 55 2 11 7 49 11
85 4 36 9 73 11 83 24 131 24 687 0 837 -3 14 -7 48 -11 75 -12 101 -16 123
-30 195 -3 14 -8 40 -11 59 -15 87 -79 327 -123 459 -236 706 -687 1341 -1280
1802 -261 203 -581 389 -885 514 -163 68 -480 169 -600 192 -12 2 -55 11 -96
19 -92 19 -103 21 -163 29 -27 4 -58 9 -69 11 -11 3 -53 7 -92 11 -39 3 -82 8
-96 11 -28 6 -545 14 -551 9z m794 -321 c15 -3 39 -7 54 -10 15 -2 52 -10 82
-16 31 -6 61 -12 66 -13 90 -18 129 -32 146 -54 22 -28 24 -54 7 -85 -26 -50
-53 -53 -198 -18 -83 20 -109 25 -180 37 -19 4 -42 8 -50 9 -8 2 -25 4 -38 4
-13 1 -34 12 -47 26 -33 32 -33 78 0 111 27 26 49 28 158 9z m-1240 -54 c9 -9
19 -32 22 -50 5 -39 -26 -76 -72 -86 -25 -6 -182 -48 -346 -94 -52 -14 -60
-14 -85 -1 -15 9 -30 29 -36 48 -20 71 31 100 304 171 151 40 183 42 213 12z
m2015 -167 c48 -20 138 -61 200 -92 140 -68 162 -100 118 -168 -15 -22 -26
-27 -66 -27 -8 0 -67 25 -130 56 -63 30 -155 72 -203 93 -90 38 -107 55 -107
105 0 28 44 69 75 69 14 0 65 -16 113 -36z m-2795 -76 c44 -23 59 -67 37 -108
-5 -10 -72 -52 -147 -93 -76 -41 -164 -90 -197 -110 -62 -37 -95 -40 -128 -10
-25 23 -32 70 -15 97 24 36 373 236 413 236 8 0 25 -5 37 -12z m3423 -267 c16
-1 235 -166 307 -231 48 -44 57 -57 57 -86 0 -24 -8 -43 -25 -59 -37 -38 -78
-31 -134 22 -14 13 -87 71 -162 128 -137 105 -149 117 -149 160 0 28 52 75 77
70 10 -2 23 -4 29 -4z m-4082 -173 c14 -13 28 -36 30 -52 6 -32 2 -36 -143
-166 -94 -84 -87 -78 -158 -142 -31 -29 -58 -45 -69 -43 -11 2 -25 4 -31 4
-26 2 -53 41 -53 76 0 36 7 45 146 176 182 171 225 194 278 147z m4728 -390
c48 -52 171 -204 222 -276 33 -45 37 -57 32 -87 -11 -59 -77 -85 -122 -47 -11
9 -50 55 -86 102 -36 47 -95 121 -132 165 -74 89 -82 120 -41 160 38 39 79 34
127 -17z m-5297 -164 c24 -9 47 -61 39 -87 -4 -12 -44 -74 -89 -137 -45 -63
-100 -142 -121 -175 -21 -33 -52 -66 -68 -74 -26 -12 -33 -12 -62 4 -31 16
-44 39 -44 77 0 20 179 291 235 356 37 42 67 52 110 36z m5748 -476 c51 -68
187 -364 187 -407 0 -88 -130 -104 -156 -18 -3 12 -44 101 -91 198 -89 188
-95 213 -50 244 38 26 83 19 110 -17z m-6143 -223 c31 -33 27 -61 -27 -190
-27 -66 -62 -157 -77 -203 -30 -88 -51 -112 -99 -112 -33 0 -77 40 -77 70 0
55 141 407 176 438 31 27 77 26 104 -3z m6438 -508 c30 -32 113 -386 106 -452
-6 -52 -57 -84 -105 -65 -36 15 -44 36 -68 165 -12 61 -31 153 -44 206 -25
101 -23 130 11 155 27 21 76 17 100 -9z m-6675 -259 c18 -22 19 -66 3 -145 -3
-11 -7 -43 -11 -70 -4 -26 -8 -59 -10 -73 -2 -14 -7 -52 -10 -85 -9 -90 -15
-111 -33 -128 -31 -28 -83 -25 -113 6 -19 20 -21 29 -15 117 3 52 8 104 10
115 2 11 7 45 12 75 4 30 8 57 9 60 1 3 5 28 9 57 11 72 44 108 94 100 21 -4
45 -16 55 -29z m6807 -542 c12 -24 15 -129 10 -364 -2 -110 -3 -113 -31 -136
-34 -29 -72 -27 -104 5 -19 18 -20 32 -20 254 1 211 3 236 19 254 34 37 103
30 126 -13z m-6861 -269 c5 -12 11 -87 14 -167 4 -80 10 -177 13 -217 6 -70 6
-73 -24 -102 -20 -20 -37 -29 -52 -26 -81 16 -85 30 -96 335 l-6 175 23 22
c13 11 33 23 44 25 28 6 74 -19 84 -45z m6818 -521 c21 -25 23 -36 18 -75 -10
-74 -14 -100 -41 -219 -43 -192 -58 -221 -120 -222 -38 0 -75 37 -76 76 0 16
7 54 16 84 17 60 44 183 52 243 3 21 7 46 9 55 2 9 4 23 4 30 1 7 12 24 26 38
33 33 79 29 112 -10z m-6773 -237 c28 -13 33 -26 70 -174 14 -55 38 -138 54
-185 38 -113 33 -147 -27 -168 -21 -7 -36 -6 -59 5 -37 18 -56 62 -108 253
-56 204 -58 223 -19 258 29 25 52 27 89 11z m6532 -516 c39 -36 31 -69 -43
-192 -94 -154 -173 -259 -204 -270 -49 -17 -109 28 -109 83 0 7 31 55 68 107
37 52 92 136 122 186 29 50 63 96 74 101 32 15 65 10 92 -15z m-6163 -346 c41
-62 100 -143 131 -182 31 -38 56 -78 56 -87 0 -47 -42 -88 -90 -88 -26 0 -85
63 -169 181 -131 183 -152 236 -108 276 58 53 88 36 180 -100z M5022 9273
c-251 -374 -419 -758 -459 -1043 -11 -81 -8 -246 6 -315 7 -33 28 -92 47 -132
34 -71 34 -72 65 -63 18 5 33 11 35 12 1 2 -7 39 -18 83 -26 106 -32 311 -13
419 38 208 132 406 287 603 73 93 111 98 182 27 156 -156 297 -407 331 -589 3
-16 9 -48 13 -70 20 -109 4 -356 -28 -440 -6 -15 -10 -28 -10 -31 0 -6 37 -20
77 -28 30 -7 32 -6 51 47 128 340 -20 856 -423 1479 l-84 129 -59 -88z M5539
8902 c66 -123 155 -352 210 -540 5 -19 27 -30 121 -61 285 -96 514 -222 745
-408 185 -149 393 -385 523 -595 117 -188 258 -529 286 -693 3 -16 10 -46 16
-65 5 -19 10 -35 9 -35 -1 0 12 -93 17 -120 26 -134 25 -555 -1 -718 -2 -12
-6 -42 -9 -67 -8 -57 -41 -228 -62 -315 -49 -202 -148 -457 -244 -629 -28 -49
-50 -92 -50 -96 0 -3 26 -11 58 -18 77 -16 186 -69 255 -126 31 -25 59 -46 61
-46 8 0 124 187 178 286 170 315 271 625 332 1024 26 169 27 591 2 716 -2 12
-7 45 -11 75 -20 159 -82 397 -152 584 -149 395 -366 728 -672 1036 -296 296
-632 516 -1017 665 -161 62 -387 126 -533 150 -18 3 -42 7 -52 9 -15 3 -17 0
-10 -13z m416 -183 c65 -32 93 -122 58 -189 -23 -44 -90 -80 -136 -73 -75 12
-116 53 -124 126 -13 111 100 186 202 136z m369 -203 c110 -46 104 -219 -10
-256 -127 -42 -230 83 -168 203 31 59 108 82 178 53z m400 -230 c132 -55 100
-250 -44 -264 -94 -9 -160 63 -147 160 6 43 26 71 72 99 36 22 74 24 119 5z
m369 -284 c37 -22 69 -90 62 -132 -9 -52 -30 -84 -72 -106 -109 -61 -239 44
-200 161 29 89 128 125 210 77z m292 -346 c121 -80 59 -266 -86 -253 -137 12
-176 184 -58 256 38 24 106 22 144 -3z m191 -399 c77 -40 95 -147 36 -214 -59
-68 -175 -57 -223 20 -28 45 -22 127 12 163 47 52 113 63 175 31z m174 -469
c12 -7 30 -27 41 -45 96 -154 -127 -299 -232 -151 -45 63 -18 166 54 202 35
18 102 15 137 -6z m40 -506 c44 -22 80 -88 73 -135 -21 -140 -203 -173 -264
-47 -58 121 70 243 191 182z m-30 -479 c62 -36 84 -136 42 -192 -33 -45 -68
-64 -117 -64 -105 0 -170 107 -123 202 35 71 127 96 198 54z m-104 -444 c14
-13 30 -33 36 -43 29 -54 5 -146 -46 -179 -92 -61 -216 3 -218 112 -1 51 20
90 62 119 47 32 127 27 166 -9z m-179 -378 c7 -1 28 -14 46 -31 65 -57 64
-152 -3 -212 -62 -57 -176 -32 -213 47 -20 42 -14 107 12 142 27 34 82 61 119
57 15 -1 32 -2 39 -3z M4472 8882 c-233 -51 -529 -165 -757 -290 -579 -318
-1055 -850 -1300 -1450 -69 -170 -136 -387 -159 -517 -6 -28 -9 -47 -21 -105
-2 -14 -7 -47 -11 -75 -3 -27 -8 -59 -10 -70 -6 -31 -17 -242 -17 -320 0 -77
11 -286 18 -325 2 -14 6 -43 10 -65 48 -326 181 -698 358 -1005 39 -68 169
-274 182 -288 2 -2 34 19 70 48 104 79 209 124 310 134 48 4 48 9 -7 95 -22
35 -63 107 -90 160 -27 53 -48 87 -47 76 6 -45 -12 -94 -47 -124 -19 -17 -40
-31 -47 -32 -7 -1 -25 -2 -40 -3 -64 -6 -129 51 -142 123 -13 75 67 162 142
155 15 -1 33 -2 40 -3 6 -1 26 -13 43 -28 l32 -26 -17 39 c-84 193 -153 443
-200 719 -19 117 -26 425 -12 565 8 80 13 115 34 230 49 273 181 593 348 845
310 466 742 795 1271 970 6 2 15 25 19 52 4 26 13 65 20 85 l12 37 -36 -18
c-94 -48 -203 18 -203 123 0 54 19 89 65 116 68 42 164 13 198 -59 l15 -33 29
74 c15 40 43 103 62 140 18 37 33 70 33 72 0 8 -38 2 -148 -22z m-416 -383
c42 -39 57 -76 49 -125 -11 -76 -66 -123 -140 -120 -76 4 -125 50 -133 124 -5
59 15 104 61 133 45 28 127 22 163 -12z m-459 -205 c86 -17 131 -121 88 -204
-46 -90 -184 -92 -242 -4 -26 40 -23 112 6 153 36 50 85 68 148 55z m-291
-305 c51 -48 64 -110 33 -170 -25 -50 -64 -73 -124 -73 -139 -2 -191 174 -75
252 47 32 127 27 166 -9z m-310 -334 c86 -56 83 -194 -6 -240 -67 -35 -158 -9
-192 54 -21 39 -16 111 9 147 42 59 131 78 189 39z m-287 -383 c48 -24 74 -64
77 -114 4 -80 -46 -138 -125 -146 -88 -8 -151 50 -151 138 0 53 23 92 69 119
44 25 85 26 130 3z m-96 -476 c100 -42 117 -177 30 -240 -57 -42 -155 -27
-196 29 -29 40 -32 114 -8 153 41 64 108 86 174 58z m-29 -520 c38 -24 60 -63
62 -110 4 -78 -47 -136 -125 -144 -113 -10 -185 97 -136 202 33 68 134 95 199
52z m27 -467 c43 -17 74 -67 74 -120 0 -57 -19 -94 -63 -121 -42 -26 -111 -28
-147 -4 -58 38 -82 124 -51 184 37 71 105 94 187 61z m159 -466 c17 -18 31
-39 31 -46 9 -78 -10 -131 -58 -162 -39 -26 -120 -26 -155 0 -95 71 -75 212
36 249 53 18 107 3 146 -41z M5014 8625 c-69 -105 -125 -230 -156 -345 -30
-113 -31 -337 -2 -444 l19 -70 213 0 212 -1 10 31 c60 181 45 413 -40 617 -33
81 -132 237 -173 276 l-26 23 -57 -87z m117 -410 c23 -8 50 -57 46 -82 -7 -36
-20 -54 -46 -67 -75 -38 -152 43 -111 119 21 38 54 48 111 30z M5793 8043 c1
-157 -13 -244 -57 -352 l-23 -58 51 -28 c60 -33 176 -119 228 -168 l36 -35 38
56 c53 82 194 217 302 291 l94 63 -68 49 c-36 27 -69 49 -73 49 -3 0 -12 -12
-19 -27 -28 -62 -111 -89 -176 -58 -68 32 -95 118 -60 187 13 25 14 32 2 39
-13 9 -264 109 -272 109 -3 0 -4 -53 -3 -117z M4315 8116 c-33 -13 -88 -37
-123 -55 l-62 -31 21 -29 c25 -33 28 -95 7 -137 -33 -68 -127 -93 -188 -52
-19 13 -42 38 -51 56 l-16 32 -66 -48 c-37 -26 -67 -50 -67 -54 0 -4 28 -26
63 -49 77 -53 220 -195 272 -271 21 -32 41 -58 44 -58 3 0 29 23 56 51 54 55
149 121 233 163 28 14 52 29 52 32 0 2 -8 21 -19 42 -52 103 -78 223 -80 375
-1 31 -4 57 -8 57 -5 -1 -35 -11 -68 -24z M6560 7683 c-237 -155 -329 -241
-393 -368 l-25 -50 39 -75 c47 -93 71 -181 73 -271 1 -61 3 -67 17 -56 170
125 371 242 564 330 72 33 132 61 134 63 2 2 -11 26 -30 53 l-34 49 -28 -20
c-40 -28 -106 -34 -146 -14 -85 45 -95 172 -17 229 16 12 12 19 -50 80 -38 37
-71 67 -74 66 -3 0 -16 -7 -30 -16z M3561 7616 l-64 -65 31 -36 c31 -34 36
-51 34 -103 -3 -60 -73 -122 -138 -122 -17 0 -46 10 -65 23 l-34 23 -33 -45
-33 -46 23 -9 c163 -66 431 -215 566 -315 45 -33 83 -61 85 -61 1 0 3 19 3 43
1 102 21 188 71 297 l30 66 -18 42 c-28 66 -76 131 -151 204 -67 66 -208 168
-232 168 -6 0 -40 -29 -75 -64z M4910 7600 c-25 -5 -63 -11 -85 -14 -22 -4
-70 -14 -107 -24 l-67 -17 36 -80 c53 -119 118 -325 144 -452 l22 -112 40 35
c141 128 377 131 501 8 14 -15 26 -24 26 -21 0 3 9 54 21 113 24 129 74 282
124 388 30 63 34 80 24 87 -30 19 -204 70 -287 83 -92 15 -316 18 -392 6z
m306 -223 c85 -78 26 -210 -91 -202 -53 4 -105 58 -105 110 0 74 49 124 123
125 29 0 46 -8 73 -33z M4420 7439 c-152 -97 -290 -289 -317 -444 -14 -78 -4
-235 15 -235 4 0 17 16 29 35 13 19 45 52 73 74 127 101 330 119 441 40 l30
-21 -6 43 c-22 155 -157 549 -189 549 -6 0 -40 -19 -76 -41z m27 -241 c41 -34
35 -113 -11 -137 -65 -35 -145 23 -125 92 13 46 46 70 87 63 19 -3 41 -11 49
-18z M5715 7363 c-43 -90 -97 -251 -109 -325 -3 -18 -8 -44 -11 -58 -3 -14 -8
-45 -11 -70 -3 -25 -8 -48 -11 -52 -2 -5 0 -8 6 -8 5 0 13 5 16 10 4 6 30 23
58 38 47 24 62 27 152 27 84 0 107 -4 140 -22 46 -24 96 -74 118 -118 l15 -30
9 30 c4 17 8 68 7 115 -1 141 -54 256 -179 385 -72 74 -145 135 -163 135 -5 0
-22 -26 -37 -57z m193 -205 c31 -30 30 -81 -3 -113 -32 -33 -83 -34 -113 -2
-77 82 33 192 116 115z M6921 7055 c-366 -160 -673 -384 -805 -585 -24 -36
-60 -85 -80 -110 -38 -44 -38 -44 -31 -113 3 -37 15 -96 25 -130 20 -63 67
-147 83 -147 5 0 30 17 56 39 234 195 651 358 1016 397 33 4 67 8 75 10 8 1
20 3 26 3 11 1 0 74 -27 174 -10 37 -11 38 -42 31 -45 -10 -74 -7 -107 12 -47
28 -78 100 -65 151 6 27 62 93 79 93 39 1 38 17 -12 124 -28 58 -54 106 -59
106 -4 0 -64 -25 -132 -55z M3120 6998 l-49 -103 27 -9 c35 -11 79 -52 90 -85
39 -112 -76 -212 -190 -166 -13 5 -19 -1 -27 -32 -12 -44 -20 -84 -28 -133
l-5 -36 43 -2 c42 -3 76 -7 129 -17 14 -3 39 -7 55 -10 285 -48 622 -198 835
-372 l54 -45 24 29 c58 72 106 181 115 266 4 32 0 43 -29 75 -19 20 -55 69
-82 107 -93 137 -224 257 -427 391 -131 86 -440 244 -477 244 -5 0 -31 -46
-58 -102z M5107 6868 c-52 -11 -88 -31 -125 -70 -33 -33 -74 -110 -86 -159
l-6 -27 143 -1 c78 -1 156 -3 172 -5 17 -2 61 -7 100 -11 38 -3 73 -9 76 -11
10 -6 0 52 -18 106 -48 144 -134 205 -256 178z M4410 6790 c-43 -12 -88 -39
-119 -72 -59 -63 -77 -177 -34 -219 18 -19 20 -19 99 10 81 30 168 54 234 66
19 4 42 8 50 10 8 2 23 4 33 4 22 1 22 23 -3 70 -58 114 -149 160 -260 131z
M5719 6750 c-48 -25 -104 -91 -125 -147 -9 -24 -15 -45 -13 -48 3 -2 18 -6 34
-9 17 -3 91 -22 165 -41 134 -35 135 -35 151 -16 13 16 16 37 14 90 -5 136
-46 191 -138 191 -31 -1 -67 -9 -88 -20z M4927 6454 c-1 -1 -47 -4 -102 -8
-55 -3 -110 -8 -121 -10 -12 -2 -37 -7 -55 -10 -19 -3 -43 -8 -54 -10 -11 -3
-31 -7 -44 -10 -43 -9 -181 -57 -185 -64 -2 -4 -7 -34 -10 -67 -3 -33 -12 -81
-20 -107 -8 -27 -11 -48 -7 -48 4 0 41 9 82 19 41 11 90 22 109 25 19 3 58 10
86 15 167 32 635 36 790 7 10 -2 39 -7 64 -10 25 -3 56 -8 70 -11 96 -18 147
-30 232 -51 53 -13 100 -24 103 -24 4 0 4 12 1 26 -10 39 -23 138 -25 191 -1
19 -15 24 -128 52 -71 16 -155 35 -188 41 -33 5 -71 12 -84 15 -13 2 -49 7
-80 11 -31 3 -65 8 -76 10 -29 6 -353 22 -358 18z M2911 6209 c-1 -34 -2 -65
-3 -68 -2 -22 6 -30 37 -35 96 -18 141 -147 77 -220 -22 -24 -66 -46 -91 -46
-18 0 -20 -5 -16 -32 2 -18 7 -51 10 -73 14 -99 16 -105 36 -95 22 12 166 46
229 54 50 7 264 9 295 2 11 -2 42 -7 68 -10 64 -10 74 -12 126 -26 23 -6 44
-10 46 -8 2 2 25 32 51 68 26 36 70 89 97 118 57 60 64 45 -58 131 -221 155
-544 270 -836 297 l-66 6 -2 -63z M7227 6254 c-1 -1 -24 -5 -52 -8 -95 -13
-120 -17 -134 -22 -8 -2 -30 -7 -50 -10 -66 -11 -265 -75 -368 -119 -114 -49
-203 -99 -311 -175 l-73 -51 47 -52 c26 -29 67 -80 92 -115 32 -46 49 -61 61
-57 123 47 469 64 641 30 41 -8 105 -22 135 -29 11 -3 35 -9 53 -15 29 -9 32
-8 33 12 0 12 2 31 4 42 2 11 7 50 10 86 l6 66 -46 6 c-130 14 -165 179 -52
247 18 11 48 20 68 20 33 0 36 2 33 28 -1 15 -2 49 -3 75 l-1 48 -45 -2 c-25
-2 -46 -4 -48 -5z M4819 6046 c-2 -2 -33 -6 -69 -10 -61 -6 -77 -8 -147 -21
-16 -3 -44 -8 -63 -11 -70 -12 -207 -56 -279 -90 -215 -101 -383 -274 -442
-456 -24 -75 -31 -199 -16 -280 15 -82 95 -257 130 -286 9 -8 42 0 121 29 108
40 296 92 371 103 23 4 52 8 65 11 25 5 58 11 115 20 168 27 713 27 854 0 10
-2 42 -6 71 -10 29 -4 62 -9 74 -11 12 -2 37 -7 56 -10 36 -7 56 -11 100 -19
147 -28 394 -97 453 -127 22 -11 40 -18 42 -16 13 13 67 135 85 193 25 81 34
214 19 295 -35 185 -192 399 -370 503 -111 65 -293 123 -483 153 -21 3 -47 7
-58 9 -11 3 -46 7 -77 10 -31 4 -67 9 -81 12 -29 6 -465 15 -471 9z m313 -231
c108 -23 192 -131 191 -246 -1 -175 -164 -295 -329 -243 -181 57 -238 290
-103 422 70 69 140 88 241 67z m-759 -119 c150 -44 221 -212 150 -355 -94
-189 -356 -187 -456 3 -29 57 -29 165 0 221 61 115 183 167 306 131z m1582
-14 c92 -47 146 -136 141 -236 -11 -257 -344 -339 -474 -117 -23 40 -27 57
-27 126 0 58 5 89 18 113 28 51 90 108 138 126 57 20 152 15 204 -12z M5032
5655 c-59 -26 -74 -106 -28 -153 28 -29 86 -36 115 -16 23 17 48 62 45 82 -1
6 -2 18 -3 26 -4 48 -77 82 -129 61z M4264 5545 c-39 -16 -55 -38 -59 -80 -4
-41 30 -89 70 -99 60 -15 129 48 118 108 -12 58 -75 94 -129 71z M5779 5521
c-77 -78 13 -197 110 -146 86 44 51 175 -46 175 -25 0 -43 -8 -64 -29z M3229
5536 c-2 -2 -26 -7 -54 -10 -27 -4 -83 -16 -122 -28 -84 -24 -84 -22 -49 -138
l22 -75 54 3 c96 5 157 -55 147 -145 -5 -46 -42 -97 -79 -109 -25 -8 -23 -16
23 -109 l41 -82 117 57 c64 31 167 81 229 110 61 29 112 58 112 64 0 6 -4 27
-10 46 -24 90 -28 231 -9 319 13 62 11 65 -60 77 -25 4 -53 9 -61 11 -21 6
-295 14 -301 9z M6777 5535 c-1 -1 -40 -5 -87 -9 -115 -9 -195 -28 -193 -46 0
-8 8 -46 16 -84 16 -74 20 -205 8 -273 -8 -41 -8 -41 33 -61 188 -93 479 -232
493 -234 12 -2 25 18 50 77 19 44 38 87 42 96 7 12 -2 20 -41 38 -39 18 -54
31 -68 63 -31 70 -11 142 51 173 40 21 77 24 115 10 l30 -13 23 91 c12 50 18
94 14 98 -8 7 -116 37 -163 45 -14 2 -34 6 -45 9 -35 7 -272 24 -278 20z
M3645 4879 c-44 -21 -142 -69 -217 -105 l-137 -67 49 -72 c59 -84 82 -107 130
-125 63 -24 169 -101 222 -160 l51 -58 33 49 33 49 -31 65 c-51 111 -49 209 8
297 l23 37 -34 57 c-20 32 -39 61 -43 65 -4 4 -43 -11 -87 -32z M4809 4916
c-2 -2 -38 -6 -79 -10 -81 -7 -112 -11 -205 -28 -96 -16 -108 -19 -150 -29
-22 -5 -51 -12 -64 -15 -48 -10 -243 -76 -289 -97 -88 -41 -122 -79 -122 -135
0 -30 26 -102 37 -102 2 0 21 9 43 20 34 17 152 54 210 65 12 2 29 6 38 9 9 3
28 7 42 10 14 2 57 11 95 19 39 8 88 18 110 20 42 6 112 16 155 23 162 25 669
24 820 0 14 -3 48 -7 75 -11 55 -7 106 -14 139 -21 19 -4 69 -13 106 -19 125
-23 424 -110 469 -137 41 -26 51 -15 46 55 -8 105 -76 182 -195 222 -101 33
-290 79 -425 104 -153 28 -162 30 -230 37 -33 3 -71 8 -85 11 -30 6 -535 15
-541 9z M6419 4832 c-41 -78 -45 -91 -33 -107 54 -74 73 -233 40 -333 l-18
-52 29 -45 c15 -25 30 -45 33 -45 3 0 27 30 54 66 73 99 195 183 317 218 50
15 58 22 96 79 l42 62 -107 52 c-277 135 -398 193 -402 193 -3 0 -26 -40 -51
-88z M4868 4525 c-1 -1 -46 -6 -98 -9 -53 -4 -105 -8 -115 -10 -11 -2 -45 -7
-76 -10 -31 -4 -65 -8 -75 -10 -55 -10 -92 -17 -114 -21 -14 -3 -41 -8 -60
-11 -19 -3 -38 -8 -41 -10 -3 -2 -21 -6 -39 -9 -198 -35 -318 -112 -378 -243
-19 -43 -25 -73 -26 -131 -1 -66 6 -150 17 -201 15 -70 31 -130 35 -130 2 0
41 22 86 49 199 120 460 225 631 256 17 2 41 7 55 10 129 27 240 37 415 36
157 0 307 -10 394 -26 9 -1 36 -6 61 -10 70 -11 77 -13 169 -36 194 -48 422
-143 563 -235 76 -49 66 -54 87 44 15 71 6 229 -18 305 -26 80 -85 158 -151
198 -78 48 -396 134 -609 165 -25 4 -55 8 -66 10 -11 2 -49 7 -85 10 -36 3
-76 8 -90 11 -28 5 -466 13 -472 8z M3110 4386 c-77 -22 -152 -66 -212 -127
-254 -254 -128 -692 223 -773 241 -57 481 86 552 330 18 63 19 169 1 237 -38
146 -155 271 -299 322 -62 22 -204 27 -265 11z m254 -160 c214 -105 253 -380
76 -540 -159 -142 -412 -91 -507 102 -24 50 -28 69 -28 147 0 74 4 97 23 133
46 87 121 152 205 177 64 20 169 11 231 -19z M3148 4079 c-93 -47 -118 -180
-50 -257 79 -88 221 -72 273 31 27 52 23 130 -10 176 -46 64 -142 87 -213 50z
M6900 4385 c-148 -40 -259 -139 -319 -283 -31 -74 -37 -206 -15 -284 40 -134
132 -245 249 -299 73 -34 101 -41 190 -44 153 -5 301 70 388 196 182 265 53
620 -258 712 -61 18 -173 19 -235 2z m253 -153 c59 -26 126 -93 157 -157 18
-38 24 -69 26 -130 2 -70 -1 -88 -25 -140 -54 -115 -164 -190 -286 -194 -245
-8 -415 254 -304 471 80 157 268 222 432 150z M6985 4102 c-103 -20 -166 -129
-128 -222 28 -70 85 -110 155 -110 134 1 215 159 134 264 -15 20 -37 41 -49
48 -28 15 -86 25 -112 20z M4890 3917 c-3 -3 -36 -8 -75 -12 -38 -4 -72 -8
-75 -10 -3 -2 -23 -6 -44 -9 -140 -22 -336 -90 -498 -173 -242 -123 -467 -301
-680 -537 -54 -60 -98 -112 -98 -115 0 -3 13 -12 28 -18 43 -19 125 -93 163
-145 19 -26 36 -47 39 -48 3 0 7 11 8 24 3 42 32 118 85 220 199 390 535 610
932 610 116 0 267 -22 373 -53 25 -8 51 -5 105 8 182 47 426 58 577 26 14 -3
36 -7 50 -10 46 -8 154 -46 217 -76 155 -74 321 -220 424 -375 77 -114 143
-255 163 -347 l6 -27 43 52 c24 29 68 73 99 97 l55 45 -50 70 c-82 116 -124
165 -241 281 -176 174 -375 302 -605 390 -86 32 -253 80 -319 91 -15 2 -36 6
-47 9 -11 2 -42 7 -70 10 -27 4 -61 9 -75 12 -32 6 -484 15 -490 10z M4608
3545 c-2 -2 -27 -6 -57 -9 -70 -8 -140 -26 -147 -37 -3 -5 15 -49 41 -97 140
-263 322 -457 497 -529 86 -35 194 -40 277 -12 180 61 365 256 515 541 25 48
46 92 46 97 0 23 -138 45 -285 45 -125 0 -218 -12 -327 -43 -75 -21 -98 -20
-201 7 -42 12 -103 24 -135 28 -56 7 -219 13 -224 9z m578 -164 c212 -96 138
-412 -96 -411 -45 0 -116 33 -148 67 -103 111 -62 296 78 352 41 16 122 12
166 -8z M5057 3222 c-35 -39 4 -101 56 -88 57 14 47 106 -12 106 -15 0 -35 -8
-44 -18z M5895 3359 c-249 -494 -580 -735 -914 -663 -223 47 -449 246 -630
551 -31 54 -65 115 -74 135 -10 20 -21 40 -26 43 -14 8 -120 -75 -187 -147
-77 -82 -141 -178 -199 -300 -40 -81 -47 -107 -50 -164 -1 -37 1 -83 6 -103 4
-20 10 -52 13 -71 3 -19 8 -46 12 -60 3 -14 7 -65 9 -115 3 -76 -1 -106 -26
-190 -16 -55 -31 -109 -33 -120 -2 -11 -9 -40 -14 -65 -19 -83 -27 -164 -27
-290 0 -149 6 -198 40 -314 80 -275 280 -492 574 -622 88 -38 230 -85 301 -98
194 -37 309 -49 445 -50 66 0 230 11 285 20 40 6 135 22 165 28 257 51 522
189 672 348 103 110 191 274 224 414 6 27 13 58 16 69 3 11 7 92 9 180 4 182
-7 268 -62 473 -19 73 -36 151 -37 175 -4 50 14 182 33 256 5 18 8 75 7 125
-2 87 -5 95 -50 185 -101 199 -228 342 -389 435 l-47 27 -46 -92z M3128 2975
c-2 -2 -30 -5 -62 -9 -161 -17 -322 -157 -369 -321 -84 -295 148 -592 453
-579 84 3 100 7 176 43 231 108 328 385 214 611 -53 104 -147 189 -250 225
-40 14 -156 35 -162 30z m97 -144 c22 -6 61 -23 86 -39 179 -114 200 -371 40
-514 -69 -62 -136 -87 -226 -84 -183 5 -316 143 -316 329 -1 213 205 365 416
308z M3064 2670 c-46 -20 -68 -43 -87 -90 -49 -119 54 -247 181 -227 82 13
137 80 137 167 0 47 -5 63 -28 94 -51 66 -132 89 -203 56z M7054 2969 c-227
-29 -391 -209 -399 -438 -8 -217 155 -420 369 -460 151 -28 336 38 431 153 37
46 91 153 100 201 18 97 4 200 -40 290 -85 175 -272 278 -461 254z m137 -134
c88 -19 175 -93 218 -185 20 -44 25 -70 25 -131 0 -135 -69 -240 -194 -297
-217 -100 -462 65 -455 308 6 210 194 351 406 305z M7056 2675 c-127 -44 -156
-210 -49 -291 105 -80 254 -12 267 122 7 69 -50 155 -113 169 -59 12 -68 12
-105 0z M7535 2078 c-59 -59 -138 -107 -232 -141 -37 -14 -71 -25 -75 -26 -15
-2 -3 -16 56 -71 116 -107 199 -210 245 -303 l28 -58 11 28 c61 151 74 406 29
575 l-12 46 -50 -50z M2637 2043 c-8 -43 -15 -130 -15 -193 0 -99 3 -136 22
-230 1 -8 11 -43 21 -78 l18 -63 31 58 c63 116 177 254 279 334 l48 38 -28 7
c-107 23 -211 77 -291 150 -33 30 -62 54 -65 54 -3 0 -12 -35 -20 -77z M3479
2009 c-214 -123 -356 -227 -468 -341 -367 -373 -218 -710 427 -967 238 -95
705 -212 981 -246 30 -4 62 -8 72 -10 10 -2 49 -7 86 -10 37 -4 75 -9 85 -10
129 -25 819 -25 969 0 13 2 51 6 84 10 70 7 132 15 160 20 11 1 45 7 75 11 30
4 57 9 60 9 3 1 28 5 55 10 28 5 52 10 55 10 49 11 120 26 137 30 46 8 260 67
352 97 646 206 942 520 784 832 -87 173 -271 342 -553 509 -69 41 -145 84
-169 97 l-43 21 7 -43 c14 -94 14 -362 0 -449 -41 -244 -150 -458 -317 -621
-71 -70 -213 -170 -307 -218 -106 -53 -327 -127 -436 -145 -11 -2 -47 -9 -80
-14 -57 -10 -101 -16 -205 -26 -52 -5 -281 -6 -325 -1 -16 2 -61 7 -100 10
-38 4 -104 14 -145 22 -41 8 -86 17 -100 20 -172 34 -415 138 -555 238 -263
189 -424 457 -462 773 -14 114 -5 415 13 445 12 18 -19 4 -137 -63z"/>
</g>
</svg>
