<svg xmlns="http://www.w3.org/2000/svg" viewBox="0 0 1024 1024">
<g transform="translate(0,1024) scale(0.1,-0.1)">
<path fill="currentColor" d="M4628 8915 c-2 -1 -62 -6 -135 -9 -72 -4 -140 -8 -150 -10 -10 -2
-49 -7 -88 -10 -38 -4 -81 -9 -95 -11 -14 -2 -45 -7 -70 -10 -91 -13 -117 -17
-220 -36 -135 -26 -317 -72 -438 -110 l-95 -31 94 -52 c355 -198 721 -469
1075 -798 l30 -28 124 51 c264 109 667 252 985 349 222 67 622 176 715 194 14
2 63 14 110 25 47 11 96 22 110 25 14 2 58 12 97 20 40 9 85 18 100 21 28 5
56 10 103 20 14 3 41 8 60 11 19 4 44 8 55 10 19 4 109 19 165 28 14 3 34 5
45 6 16 0 17 2 5 9 -24 14 -447 118 -595 147 -11 2 -31 6 -45 9 -36 8 -71 14
-105 20 -31 6 -186 34 -220 41 -10 2 -35 6 -55 9 -20 3 -45 7 -56 9 -12 2 -45
7 -74 11 -29 4 -60 8 -69 10 -17 3 -77 11 -158 21 -27 3 -59 7 -73 9 -14 2
-61 7 -105 11 -44 3 -87 8 -95 9 -8 2 -64 6 -125 10 -60 4 -126 9 -145 11 -41
5 -657 14 -662 9z M3150 8461 c-494 -1042 -1111 -2146 -1589 -2840 -111 -163
-134 -202 -109 -194 68 23 365 36 468 21 30 -5 66 -10 80 -12 134 -20 279 -87
364 -170 70 -67 43 -61 326 -71 107 -4 227 -8 265 -10 39 -2 135 -6 215 -10
80 -3 172 -8 205 -10 33 -2 114 -7 180 -10 168 -9 259 -14 338 -21 56 -4 72
-2 95 14 160 113 370 129 580 45 74 -29 136 -62 198 -104 30 -20 57 -29 110
-34 38 -4 80 -8 94 -10 14 -2 54 -6 90 -10 36 -4 76 -8 90 -10 14 -2 54 -7 90
-10 36 -4 72 -8 80 -10 8 -1 40 -6 70 -10 30 -3 66 -8 80 -10 14 -2 45 -7 70
-10 45 -6 66 -9 130 -20 94 -15 158 -26 183 -31 28 -6 28 -5 23 35 -3 23 -8
60 -11 84 -3 23 -10 67 -16 97 -5 30 -11 69 -14 85 -3 17 -10 53 -16 80 -6 28
-13 61 -15 75 -14 70 -68 270 -105 385 -212 664 -588 1287 -1094 1814 l-96 99
-102 -45 c-185 -80 -659 -320 -857 -434 -427 -245 -856 -539 -1175 -808 -33
-28 -69 -51 -81 -51 -38 0 -68 54 -46 85 24 35 372 305 582 452 435 306 1098
676 1557 868 l38 16 -45 41 c-25 22 -61 55 -80 72 -188 171 -508 411 -745 558
-97 60 -290 170 -316 180 -12 5 -32 -29 -89 -151z M7377 8484 c-1 -1 -24 -4
-52 -8 -27 -3 -61 -8 -75 -10 -24 -4 -50 -8 -137 -22 -21 -3 -45 -7 -53 -9 -8
-3 -33 -7 -55 -10 -22 -4 -47 -8 -55 -10 -8 -2 -28 -7 -45 -10 -16 -2 -41 -7
-55 -10 -14 -3 -38 -8 -55 -10 -16 -3 -73 -15 -125 -26 -52 -11 -106 -23 -120
-25 -14 -3 -43 -10 -65 -16 -22 -5 -51 -12 -65 -15 -14 -2 -86 -20 -160 -39
-74 -19 -143 -36 -152 -39 -321 -76 -1040 -314 -1394 -462 l-92 -38 76 -80
c524 -558 890 -1167 1108 -1845 67 -209 144 -541 169 -735 3 -27 8 -51 9 -53
10 -9 274 413 426 683 412 731 738 1535 914 2255 36 148 89 407 102 492 6 47
6 48 -20 46 -15 -1 -28 -3 -29 -4z M723 6250 c-84 -18 -133 -80 -137 -172 -11
-246 206 -594 489 -784 49 -33 91 -68 93 -78 2 -9 -4 -28 -13 -43 -16 -23 -21
-25 -68 -19 -29 3 -63 8 -77 11 -14 3 -38 8 -55 10 -55 10 -206 55 -281 85
-191 76 -343 172 -477 300 -32 30 -61 56 -65 57 -4 2 -35 -46 -69 -105 l-63
-107 28 -23 c138 -116 450 -270 601 -297 19 -3 37 -8 41 -10 12 -7 155 -19
219 -17 71 1 117 8 174 23 67 18 95 18 109 2 9 -11 13 -58 14 -162 0 -119 5
-159 22 -215 62 -200 189 -365 401 -519 118 -87 111 -86 173 -16 29 34 54 65
56 68 1 4 -8 12 -20 18 -45 20 -194 139 -268 213 -154 154 -232 309 -247 488
-4 51 -2 67 13 83 28 31 59 23 157 -45 243 -168 465 -251 662 -249 85 0 137
14 191 49 60 39 79 76 79 154 0 55 -6 75 -34 128 -96 178 -300 266 -616 266
-79 0 -244 -12 -255 -19 -3 -2 -25 -6 -49 -10 -24 -3 -53 -10 -65 -14 -36 -13
-71 0 -79 30 -3 11 1 57 10 102 8 45 15 134 16 197 2 312 -121 512 -366 594
-80 27 -186 38 -244 26z M9165 5930 c-282 -60 -552 -228 -818 -511 -143 -152
-251 -293 -414 -539 -75 -113 -158 -234 -185 -269 l-48 -64 32 -24 c18 -13 36
-30 41 -39 14 -25 -1 -64 -30 -75 -23 -8 -34 -4 -97 41 -164 116 -307 177
-434 187 -121 9 -194 -33 -194 -112 0 -125 123 -234 299 -262 94 -15 307 -8
380 13 14 4 33 0 49 -11 24 -15 26 -21 20 -63 -3 -26 -8 -60 -11 -77 -22 -103
-7 -254 34 -339 51 -105 185 -185 309 -186 138 0 161 143 57 350 -59 118 -137
209 -240 282 -38 27 -73 59 -78 70 -11 30 17 68 49 68 23 0 127 -60 140 -81 3
-5 9 -9 13 -9 4 0 50 48 102 108 51 59 96 109 99 112 3 3 59 66 125 140 427
483 672 686 937 779 246 86 493 46 740 -120 65 -43 170 -128 176 -141 2 -5 8
-8 13 -8 5 0 9 70 9 161 0 180 6 164 -89 264 -169 180 -346 288 -566 346 -115
30 -301 34 -420 9z M4203 5124 c-261 -69 -460 -344 -638 -878 -52 -155 -147
-508 -169 -626 -3 -14 -16 -81 -30 -150 -15 -69 -39 -196 -54 -283 l-29 -158
46 -31 c129 -87 155 -124 113 -161 -30 -27 -52 -20 -138 41 -158 113 -316 175
-444 175 -107 0 -165 -44 -162 -124 5 -111 110 -208 269 -245 67 -16 269 -22
323 -9 14 3 50 8 81 11 52 6 58 5 69 -16 10 -19 10 -38 1 -91 -52 -289 27
-478 227 -544 111 -36 199 -19 223 43 16 41 4 150 -24 220 -56 138 -171 283
-282 357 -30 19 -57 40 -60 45 -15 24 -12 49 7 70 24 26 52 22 106 -15 20 -14
37 -23 39 -22 2 3 27 114 48 222 11 51 57 272 61 290 2 11 7 34 10 50 3 17 21
104 40 195 19 91 37 176 40 190 17 83 68 282 99 385 144 476 324 617 606 475
51 -26 185 -121 234 -167 34 -31 194 -154 305 -235 368 -266 754 -464 1085
-557 61 -17 121 -33 135 -35 14 -3 50 -10 80 -16 184 -36 443 -32 615 9 210
51 406 150 560 283 49 41 50 44 44 83 -4 22 -5 85 -4 140 l3 101 -142 -2 c-77
-2 -159 0 -181 4 -35 7 -50 3 -123 -36 -82 -43 -228 -98 -286 -108 -17 -2 -56
-9 -86 -14 -57 -9 -276 -6 -345 5 -160 27 -357 96 -555 194 -240 120 -475 272
-915 592 -132 96 -260 189 -285 206 -184 124 -375 175 -517 137z M1060 4966
c-10 -10 -107 -19 -207 -20 -117 -1 -113 2 -216 -126 -143 -177 -274 -410
-352 -625 -34 -94 -87 -283 -98 -350 -3 -16 -10 -59 -16 -95 -18 -107 -20
-130 -28 -240 -27 -401 15 -659 149 -910 84 -158 68 -147 200 -144 92 2 130
-1 203 -20 50 -13 91 -23 91 -22 1 0 4 21 7 46 5 45 5 45 -72 126 -161 167
-264 361 -307 578 -13 70 -14 368 0 426 3 13 8 42 11 65 11 73 63 259 100 350
100 248 271 501 478 706 l74 74 -4 85 c-5 94 -6 104 -13 96z M1163 2944 c-142
-52 -243 -258 -259 -529 -3 -49 -7 -100 -10 -112 -7 -34 -45 -39 -107 -14
-219 88 -411 76 -520 -34 -49 -49 -97 -143 -104 -206 -7 -59 12 -94 65 -116
37 -15 136 -20 187 -9 17 3 39 8 50 10 11 2 57 18 101 35 94 36 199 104 268
172 54 54 97 65 116 30 20 -38 10 -62 -44 -115 l-54 -53 62 -36 c196 -114 427
-205 646 -256 78 -18 107 -23 195 -37 17 -3 41 -7 55 -10 138 -23 515 -24 635
0 11 2 40 7 65 11 65 11 67 11 157 34 252 65 479 185 646 341 l70 66 -26 65
c-14 36 -29 80 -33 99 -10 55 -13 207 -4 245 9 41 15 40 -119 31 -18 -2 -34
-18 -63 -66 -124 -204 -297 -336 -546 -414 -45 -14 -95 -28 -110 -31 -15 -3
-38 -7 -52 -10 -129 -26 -454 -27 -586 -1 -12 2 -37 7 -55 10 -179 30 -371 91
-544 171 l-97 45 -29 -25 c-18 -15 -36 -22 -47 -18 -28 10 -52 35 -52 54 0 10
42 60 93 111 158 158 248 316 249 439 0 113 -83 165 -199 123z M1810 2610
c-57 -89 -157 -165 -261 -199 -60 -19 -80 -22 -179 -22 -72 0 -99 -4 -112 -16
-10 -9 -18 -20 -18 -25 0 -8 78 -47 160 -79 96 -37 301 12 408 99 72 58 95 85
129 149 l28 52 -30 31 c-26 27 -74 60 -88 60 -3 0 -19 -23 -37 -50z M774 1838
c-2 -144 -53 -287 -144 -407 -23 -29 -40 -54 -38 -55 2 -1 42 -14 90 -28 l88
-26 25 20 c48 38 106 165 121 268 3 19 7 45 9 57 4 23 7 115 6 144 -1 13 -95
79 -151 107 -3 1 -6 -35 -6 -80z"/>
</g>
</svg>
