<svg viewBox="0 0 64 64" xmlns="http://www.w3.org/2000/svg" data-name="Layer 2"><path fill="currentColor" d="m8 39h7v8h-7z"/><path fill="currentColor" d="m27.75 24h-1.75-4-2-6.25l-5.25 7h14z"/><path fill="currentColor" d="m42 39h5v8h-5z"/><path fill="currentColor" d="m42 33h14v4h-14z"/><path fill="currentColor" d="m17 39h5v8h-5z"/><path fill="currentColor" d="m31 11h11.973s-3.973-3.914-3.973-4h-14c0 .086-3.973 4-3.973 4z"/><path fill="currentColor" d="m49 39h7v8h-7z"/><path fill="currentColor" d="m42 49h14v4h-14z"/><path fill="currentColor" d="m64 55v7h-7v-3a1 1 0 0 0 -2 0v3h-4v-3a1 1 0 0 0 -2 0v3h-4v-3a1 1 0 0 0 -2 0v3h-4v-7z"/><path fill="currentColor" d="m27 55h10v7h-10z"/><path fill="currentColor" d="m32.382 38h-.764l-1.618 3.236v11.764h4v-11.764z"/><path fill="currentColor" d="m8 33h14v4h-14z"/><path fill="currentColor" d="m40 53v-20h-16v20h4v-12a1 1 0 0 1 .105-.447l2-4a1 1 0 0 1 .895-.553h2a1 1 0 0 1 .895.553l2 4a1 1 0 0 1 .105.447v12z"/><path fill="currentColor" d="m26.465 17 2.667-4h-10.245l-4.281 4z"/><path fill="currentColor" d="m22 19h4v3h-4z"/><path fill="currentColor" d="m14 19h6v3h-6z"/><path fill="currentColor" d="m8 49h14v4h-14z"/><path fill="currentColor" d="m25 55v7h-4v-3a1 1 0 0 0 -2 0v3h-4v-3a1 1 0 0 0 -2 0v3h-4v-3a1 1 0 0 0 -2 0v3h-7v-7z"/><path fill="currentColor" d="m34.868 13 2.667 4h11.859l-4.281-4z"/><path fill="currentColor" d="m39 5v-1a4 4 0 0 0 -4-4h-6a4 4 0 0 0 -4 4v1z"/><path fill="currentColor" d="m44 19h6v3h-6z"/><path fill="currentColor" d="m28 19h8v3h-8z"/><path fill="currentColor" d="m31.535 13-2.667 4h6.264l-2.667-4z"/><path fill="currentColor" d="m38 19h4v3h-4z"/><path fill="currentColor" d="m39 31-4.5-6h-5l-4.5 6z"/><path fill="currentColor" d="m44 24h-2-4-1.75l5.25 7h14l-5.25-7z"/><path fill="currentColor" d="m0 62h64v2h-64z"/></svg>