<svg viewBox="0 0 512 512" xmlns="http://www.w3.org/2000/svg"><g><path fill="currentColor" d="m63.46 201.782c31.341-10.394 57.393-22.902 79.645-38.24 8.682-5.984 16.703-12.356 24.134-19.152-5.394-4.831-10.227-10.275-14.389-16.222-7.304-.949-14.69-1.452-22.126-1.452-27.617 0-53.964 6.386-78.311 18.981-19.696 10.189-37.413 24.343-51.83 41.285-.051 1.67-.08 78.641-.08 78.641-.001 55.568 21.639 107.812 60.931 147.107 7.381 7.381 15.219 14.139 23.449 20.248 6.232-11.728 19.529-24.478 28.394-31.434-5.446-4.352-10.674-9.013-15.656-13.995-17.155-17.155-30.627-37.14-40.043-59.4-9.754-23.061-14.7-47.542-14.7-72.79l.046-46.767z"/><path fill="currentColor" d="m344.804 442.831h-165.73c-17.597 0-33.383-7.854-44.073-20.229-26.695 20.67-43.886 53.024-43.886 89.398h277.333c.001-26.059-8.825-50.053-23.644-69.169z"/><path fill="currentColor" d="m122.667 370.025c6.481-25.097 29.313-43.692 56.407-43.692h20.358c-7.969-4.933-14.758-11.8-19.592-20.156l25.969-15.021c4.939 8.539 14.126 13.844 23.974 13.844s19.035-5.305 23.975-13.844l25.968 15.022c-4.833 8.355-11.623 15.222-19.592 20.155h109.629c10.82-21.307 16.924-45.413 16.924-70.945v-25.131c-35.929-11.896-68.947-27.678-97.389-49.323v4.885c0 32.816-26.698 59.515-59.515 59.515s-59.515-26.698-59.515-59.515v-4.931c-28.427 21.66-61.434 37.453-97.364 49.369l-.025 25.131c0 45.241 19.154 86.002 49.788 114.637zm176.782-118.691h30v30h-30zm-169.334 0h30v30h-30z"/><path fill="currentColor" d="m229.782 215.333c16.301 0 29.515-13.214 29.515-29.515v-22.245c-9.285 3.084-19.207 4.759-29.515 4.759-10.307 0-20.229-1.675-29.515-4.759v22.245c0 16.301 13.214 29.515 29.515 29.515z"/><path fill="currentColor" d="m407.151 145.697c-24.346-12.595-50.694-18.981-78.311-18.981-7.436 0-14.823.503-22.126 1.452-4.171 5.96-9.016 11.415-14.424 16.253 7.429 6.787 15.447 13.15 24.125 19.126 22.277 15.343 48.347 27.848 79.7 38.229l20.57 6.811v46.8c0 24.56-4.704 48.415-13.959 70.945h47.383c5.897-19.427 8.952-39.833 8.952-60.708 0 0-.029-76.973-.08-78.643-14.417-16.941-32.134-31.095-51.83-41.284z"/><path fill="currentColor" d="m38.628 119.051c28.245-14.612 60.091-22.336 92.095-22.336 2.646 0 5.286.069 7.921.172-1.765-7.181-2.709-14.683-2.709-22.401 0-16.089 3.987-31.336 11.835-45.406l-7.894 1.179c-38.74 5.785-74.158 25.312-99.728 54.985-13.267 15.396-23.432 33.012-30.152 51.869 9.027-6.815 18.61-12.877 28.632-18.062z"/><path fill="currentColor" d="m323.628 74.487c0 7.718-.943 15.22-2.709 22.401 2.635-.103 5.275-.172 7.921-.172 32.004 0 63.85 7.724 92.095 22.336 10.022 5.185 19.605 11.247 28.632 18.062-6.719-18.857-16.885-36.474-30.152-51.869-25.57-29.672-60.988-49.2-99.728-54.985l-7.894-1.179c7.848 14.071 11.835 29.317 11.835 45.406z"/><path fill="currentColor" d="m401.919 356.333h-54.443v28.249h-30v-28.249h-69.114v28.249h-30v-28.249h-39.289c-15.577 0-28.249 12.672-28.249 28.249s12.672 28.249 28.249 28.249h222.846z"/><path fill="currentColor" d="m431.919 356.333h79.578v56.498h-79.578z"/><path fill="currentColor" d="m229.782 138.333c35.261 0 63.846-28.585 63.846-63.846 0-53.205-63.846-74.487-63.846-74.487s-63.846 21.282-63.846 74.487c0 35.261 28.585 63.846 63.846 63.846z"/></g></svg>