<svg viewBox="0 0 511.436 511.436" xmlns="http://www.w3.org/2000/svg"><g><path fill="currentColor" d="m373.372 140.032h-.001c-9.625-17.979-22.125-33.071-37.229-44.971.385-23.582-9.594-45.609-28.142-61.484-22.21-19.008-51.33-33.119-52.283-33.577 0 0-30.072 14.569-52.281 33.576-11.299 9.67-19.41 21.625-23.944 34.821 3.837 2.923 7.592 6.171 11.224 9.803l.34.351c16.823 17.956 24.77 39.362 22.981 61.904-.439 5.539-1.491 11.022-3.075 16.382 1.135-.051 86.088-.087 86.088-.087 31.391 0 58.323 19.393 69.487 46.82h11.847c3.433 0 6.786.342 10.036.976 1.305-21.603-3.686-43.289-15.048-64.514z"/><path fill="currentColor" d="m148.954 308.238h-15.902c-22.819 0-42.261-14.685-49.403-35.096-6.514 12.587-10.399 28.404-12.463 39.86-2.182 12.11-4.065 22.568-10.022 31.969-3.856 6.086-9.062 11.685-14.572 17.614-12.483 13.43-26.634 31.178-27.124 55.455.504 27.922 20.361 51.454 46.719 58.158 9.858-42.883 48.034-75.075 93.708-75.751v-72.505c-4.253-6.166-7.926-12.76-10.941-19.704z"/><path fill="currentColor" d="m464.845 362.585c-5.511-5.929-10.716-11.529-14.572-17.614-5.957-9.401-7.841-19.859-10.021-31.968-2.064-11.456-5.95-27.273-12.464-39.86-7.143 20.411-26.584 35.096-49.402 35.096h-15.903c-3.017 6.948-6.692 13.544-10.947 19.713l.041 72.497c45.657.694 83.817 32.879 93.673 75.75 26.359-6.704 46.217-30.236 46.72-58.159-.492-24.267-14.643-42.025-27.125-55.455z"/><path fill="currentColor" d="m140.515 278.238c-.74-5.29-1.131-10.69-1.131-16.181v-28.486h-6.333c-12.315 0-22.334 10.019-22.334 22.333 0 12.315 10.019 22.333 22.334 22.333h7.464z"/><path fill="currentColor" d="m400.717 255.904c0-12.315-10.018-22.333-22.333-22.333h-6.333l-.001 28.487c0 5.49-.391 10.89-1.131 16.18h7.465c12.315 0 22.333-10.019 22.333-22.334z"/><path fill="currentColor" d="m417.723 498.086c0-36.811-29.406-66.732-66.006-67.609-.015 33.992-17.788 63.907-44.526 80.958h110.532z"/><path fill="currentColor" d="m159.718 430.478c-36.6.876-66.005 30.798-66.005 67.609v13.35h110.531c-26.738-17.052-44.511-46.968-44.526-80.959z"/><path fill="currentColor" d="m321.717 430.436h-.125l-.041-72.52c-18.733 12.906-41.414 20.475-65.833 20.475-24.414 0-47.092-7.566-65.823-20.467v72.513h-.178c0 36.393 29.607 66 66 66s66-29.608 66-66.001z"/><path fill="currentColor" d="m255.717 348.39c47.604 0 86.333-38.729 86.333-86.333l.001-30.307c0-24.813-20.187-44.999-45-44.999h-82.667c-24.814 0-45 20.187-45 45v30.307c.001 47.603 38.729 86.332 86.333 86.332zm0-39.089c-16.898 0-32.657-9.094-41.125-23.733l25.969-15.021c3.123 5.4 8.931 8.754 15.156 8.754 6.226 0 12.034-3.354 15.157-8.754l25.969 15.021c-8.467 14.639-24.226 23.733-41.126 23.733z"/><path fill="currentColor" d="m180.133 115.285c-2.42-5.434-5.949-10.827-10.804-16.044-31.665-31.468-78.387-24.536-96.272-20.348-4.22 17.844-11.21 64.459 20.37 96.236 4.651 4.326 10.023 7.944 15.86 10.538-20.143-30.021-5.351-73.643-4.753-75.361 1.725-.596 45.604-15.33 75.599 4.979z"/><path fill="currentColor" d="m167.23 173.047c6.649-6.646 10.875-18.171 1.023-28.862-12.102-11.927-29.595-11.253-39.513-9.612-1.652 9.892-2.335 27.342 9.636 39.484 10.685 9.855 22.208 5.634 28.854-1.01z"/></g></svg>