<svg xmlns="http://www.w3.org/2000/svg" data-name="Layer 2" viewBox="0 0 64 64"><path fill="currentColor" d="M47,2V1a1,1,0,0,0-2,0V2a5.006,5.006,0,0,0-5,5H52A5.006,5.006,0,0,0,47,2Z"/><path fill="currentColor" d="M7,8A1,1,0,0,0,8,7V6A1,1,0,0,0,6,6V7A1,1,0,0,0,7,8Z"/><path fill="currentColor" d="M12,15a1,1,0,0,0,1-1V13a1,1,0,0,0-2,0v1A1,1,0,0,0,12,15Z"/><path fill="currentColor" d="M18,8a1,1,0,0,0,1-1V6a1,1,0,0,0-2,0V7A1,1,0,0,0,18,8Z"/><path fill="currentColor" d="M49.073,33.375,43.66,20H42.17l2.547,16.143a2.011,2.011,0,0,0,2,1.857H56V34H50A1,1,0,0,1,49.073,33.375Z"/><path fill="currentColor" d="M20,20h6.895l-1.56,15.6a4,4,0,0,0,3.98,4.4H32a1.008,1.008,0,0,0,.372-.071L36,38.477V44H56V40H46.715a3.988,3.988,0,0,1-3.98-3.6l-2.4-15.185-3.784,1.892A1,1,0,0,0,36,24v1.679l-2.75,3.85L33.931,20h6.214l-.133-.844A1,1,0,0,1,41,18h3.333a1,1,0,0,1,.927.625L50.674,32H56V24a1,1,0,0,0-.553-.895L52,21.382V9H40v8c0,.021.007.04.008.061s0,.02,0,.031l.083.908H20a1,1,0,0,0,0,2Z"/><path fill="currentColor" d="M32.068,50A2.8,2.8,0,0,0,30,51.277V64h4.5V51.266A2.681,2.681,0,0,0,32.068,50Z"/><path fill="currentColor" d="M57,50H54.315a6.229,6.229,0,0,0,1.672-4H36v2.945A4.411,4.411,0,0,1,38.432,48a4.686,4.686,0,0,1,4.454,2.534A.994.994,0,0,1,43,51V64H63V56A6.007,6.007,0,0,0,57,50Zm-5,8H51a1,1,0,0,1,0-2h1a1,1,0,0,1,0,2Zm4,0H55a1,1,0,0,1,0-2h1a1,1,0,0,1,0,2Z"/><path fill="currentColor" d="M28.111,50.542A5.036,5.036,0,0,1,28.466,50H19V48H14a1,1,0,0,1,0-2h9a1,1,0,0,0,0-2H19V41.5l3.6-2.7A1,1,0,0,0,23,38V33a1,1,0,0,0-2,0v4.5L17.667,40H6.333L3,37.5V33a1,1,0,0,0-2,0v5a1,1,0,0,0,.4.8L5,41.5V44H1a1,1,0,0,0,0,2h9a1,1,0,0,1,0,2H5v6a1,1,0,0,0,.143.515l3,5A1,1,0,0,0,9,60h5a1,1,0,0,0,.781-.375l.1-.122L17,62.333V64H28V51A1,1,0,0,1,28.111,50.542Z"/><path fill="currentColor" d="M38.568,50A2.8,2.8,0,0,0,36.5,51.277V64H41V51.266A2.677,2.677,0,0,0,38.568,50Z"/></svg>