<svg viewBox="0 0 512 512" xmlns="http://www.w3.org/2000/svg"><g><path fill="currentColor" d="m443.251 258.374c19.922 19.922 36.332 42.54 48.951 67.411 17.81-22.713 24.205-52.853 16.658-81.1l-7.26-27.175-27.174-7.259c-19.687-5.262-40.296-3.746-58.671 3.682-1.348 5.326-3.128 10.822-5.405 16.479 11.64 8.366 22.632 17.693 32.901 27.962z"/><path fill="currentColor" d="m68.749 258.374c10.269-10.269 21.261-19.596 32.901-27.962-2.277-5.657-4.057-11.153-5.405-16.479-18.374-7.428-38.983-8.942-58.671-3.683l-27.174 7.26-7.26 27.175c-7.547 28.247-1.152 58.387 16.658 81.1 12.619-24.871 29.029-47.489 48.951-67.411z"/><path fill="currentColor" d="m63.995 498.65c0-53.354 43.011-96.852 96.182-97.639v-59.54c-10.508-15.235-17.478-33.086-19.72-52.361l-5.869-6.777c-7.432-8.581-13.668-16.929-18.872-25.024-57.376 42.812-94.529 111.224-94.529 188.316 0 23.054 3.338 45.326 9.53 66.375h33.278z"/><path fill="currentColor" d="m396.285 257.31c-5.205 8.095-11.44 16.443-18.872 25.024l-5.87 6.777c-2.242 19.274-9.211 37.124-19.719 52.359l.033 59.542c53.153.808 96.147 44.297 96.147 97.639v13.349h33.279c6.192-21.049 9.53-43.321 9.53-66.375 0-77.092-37.153-145.504-94.528-188.315z"/><path fill="currentColor" d="m344.782 75.901c-8.115-46.568-88.782-75.901-88.782-75.901s-80.667 29.333-88.781 75.901c26.139-14.797 56.607-22.896 88.781-22.896v-.001.001c32.175 0 62.643 8.099 88.782 22.896z"/><path fill="currentColor" d="m294.584 87.857c8.438 10.632 15.201 24.773 15.201 42.804 0 21.837-9.916 37.971-20.718 49.071 2.729-.3 5.488-.452 8.267-.452 36.805 0 67.481 26.656 73.79 61.672 22.567-35.186 23.374-67.183 6.085-94.352-19.533-30.695-49.624-50.271-82.625-58.743z"/><path fill="currentColor" d="m140.877 240.953c6.309-35.016 36.985-61.672 73.79-61.672 2.8 0 5.58.155 8.33.459-10.824-11.115-20.781-27.266-20.781-49.079 0-18.02 6.798-32.174 15.264-42.819-33.026 8.463-63.142 28.043-82.688 58.759-17.289 27.169-16.482 59.166 6.085 94.352z"/><path fill="currentColor" d="m256.017 168.229c8.754-5.537 23.767-17.9 23.767-37.567 0-11.024-4.701-21.077-13.973-29.878-3.462-3.285-6.99-5.839-9.84-7.661-8.742 5.559-23.755 17.956-23.755 37.539 0 19.605 15.08 32.024 23.801 37.567z"/><path fill="currentColor" d="m162.561 431c-37.868 0-68.566 30.698-68.566 68.566v12.434h66.598c20.798-9.908 45.419-23.293 70.16-37.657-22.954-13.313-51.872-31.649-68.192-43.343z"/><path fill="currentColor" d="m418.005 498.65c0-35.936-28.026-65.315-63.411-67.504-29.535 21.128-81.143 53.927-129.318 80.854h192.729z"/><path fill="currentColor" d="m321.841 371.44c-18.735 12.909-41.419 20.48-65.841 20.48-24.414 0-47.091-7.566-65.823-20.467v42.196c20.592 13.882 51.46 32.872 70.337 42.994 22.688-13.806 44.154-27.576 61.352-39.256z"/><path fill="currentColor" d="m342.333 275.586v-21.306c0-24.814-20.187-45-45-45-9.547 0-18.701 3-26.333 8.532v26.151h-30v-26.15c-7.633-5.533-16.786-8.533-26.333-8.533-24.813 0-45 20.186-45 45v21.306c0 47.604 38.729 86.334 86.334 86.334 47.603 0 86.332-38.73 86.332-86.334zm-86.333 49.259c-16.9 0-32.658-9.095-41.126-23.734l25.969-15.02c3.123 5.399 8.931 8.754 15.157 8.754 6.225 0 12.033-3.354 15.157-8.755l25.968 15.021c-8.468 14.64-24.226 23.734-41.125 23.734z"/></g></svg>