<svg xmlns="http://www.w3.org/2000/svg" viewBox="0 0 1024 1024">
<g transform="translate(0,1024) scale(0.1,-0.1)">
<path fill="currentColor" d="M4989 9736 c-2 -2 -31 -7 -64 -11 -33 -3 -80 -11 -105 -17 -25 -5
-55 -12 -68 -14 -54 -11 -193 -59 -270 -95 -174 -80 -316 -180 -452 -319 -111
-113 -191 -221 -259 -351 -93 -176 -139 -318 -169 -514 -9 -62 -9 -343 0 -410
26 -192 126 -484 168 -490 8 -1 40 -5 70 -9 76 -8 102 -13 208 -41 438 -116
817 -412 1031 -805 45 -83 31 -88 109 46 188 324 500 585 852 712 87 32 176
58 220 66 14 2 52 9 85 15 33 6 77 12 98 13 35 2 41 7 62 48 52 104 116 322
132 455 14 109 8 363 -11 455 -9 47 -19 96 -22 110 -12 58 -68 211 -109 295
-212 439 -649 768 -1115 841 -19 3 -46 8 -60 10 -30 6 -326 15 -331 10z m1037
-906 l64 -63 64 62 c36 33 70 62 78 62 41 4 78 -21 78 -54 0 -10 -30 -50 -66
-88 l-66 -68 66 -67 c71 -73 80 -100 45 -133 -32 -29 -64 -17 -131 49 -33 33
-63 60 -67 60 -4 0 -31 -25 -61 -56 -62 -63 -86 -76 -115 -61 -55 28 -47 65
29 143 l64 64 -64 65 c-71 72 -83 111 -42 139 33 24 55 14 124 -54z m-1958
-15 l66 -64 67 64 c72 69 96 78 129 45 33 -33 24 -57 -44 -129 l-65 -67 65
-67 c67 -71 74 -88 48 -125 -28 -40 -63 -29 -134 43 l-64 64 -67 -64 c-70 -68
-98 -78 -131 -48 -34 30 -23 64 42 128 33 33 60 64 60 70 0 6 -27 37 -60 70
-64 63 -74 93 -43 127 30 33 60 22 131 -47z m991 -470 l57 -54 59 54 c66 61
93 68 123 30 27 -34 19 -57 -39 -114 -54 -53 -58 -63 -31 -83 9 -7 34 -32 54
-55 40 -45 43 -77 11 -100 -32 -24 -62 -14 -120 41 l-56 53 -54 -53 c-29 -30
-62 -54 -72 -54 -33 0 -52 12 -62 38 -11 29 4 57 64 115 l40 38 -24 25 c-13
15 -38 41 -55 59 -35 37 -38 64 -12 95 28 32 55 24 117 -35z M3479 7396 c-2
-2 -29 -6 -59 -10 -81 -9 -254 -54 -340 -88 -369 -146 -654 -410 -825 -763
-51 -106 -107 -263 -119 -335 -3 -19 -8 -46 -11 -60 -21 -96 -27 -345 -12
-465 22 -179 131 -501 169 -502 34 0 129 -15 209 -33 307 -67 589 -221 815
-444 113 -112 246 -293 300 -408 10 -21 20 -38 23 -38 3 0 28 41 56 90 173
313 471 577 806 714 91 37 228 79 294 91 22 4 47 8 55 10 47 10 168 23 226 24
l42 1 -30 78 c-49 125 -87 267 -106 395 -9 68 -9 368 1 432 4 28 10 66 13 85
7 46 54 221 64 241 16 29 -99 250 -200 385 -76 101 -242 260 -345 330 -191
131 -398 214 -645 259 -41 8 -374 17 -381 11z m29 -252 c12 -8 45 -38 73 -66
l50 -50 69 66 c37 36 75 66 84 66 10 0 28 -11 42 -25 34 -34 26 -56 -49 -132
l-61 -62 62 -61 c67 -67 79 -89 62 -119 -29 -55 -70 -44 -155 43 l-53 54 -59
-60 c-59 -60 -87 -75 -121 -64 -25 8 -41 45 -32 71 5 11 33 45 64 75 31 30 56
58 56 61 0 4 -27 35 -60 68 -33 34 -61 66 -61 73 -3 25 3 43 18 61 20 21 42
22 71 1z m1037 -655 l61 -59 59 60 c68 68 94 80 130 56 44 -29 34 -63 -40
-136 l-64 -64 64 -67 c68 -70 78 -98 48 -131 -31 -34 -63 -23 -133 47 l-66 65
-64 -65 c-71 -72 -106 -83 -134 -43 -26 37 -19 55 48 126 l64 67 -64 67 c-69
71 -77 95 -43 129 31 31 64 18 134 -52z m-1965 -14 l66 -65 64 65 c68 69 102
81 134 49 32 -31 20 -65 -49 -134 l-65 -66 65 -64 c69 -68 80 -97 48 -132 -30
-33 -61 -22 -132 46 l-66 65 -67 -65 c-69 -67 -97 -77 -130 -47 -33 30 -22 61
46 132 l65 66 -65 67 c-67 69 -77 97 -47 130 31 34 63 23 133 -47z M6449 7396
c-2 -2 -22 -6 -44 -9 -134 -19 -201 -35 -308 -74 -311 -111 -592 -334 -770
-609 -94 -145 -192 -376 -211 -498 -3 -21 -8 -41 -10 -45 -19 -31 -29 -376
-13 -498 16 -129 76 -331 134 -445 20 -42 27 -48 56 -49 17 0 41 -2 52 -4 11
-2 39 -7 62 -10 131 -18 369 -99 501 -171 279 -152 517 -387 662 -651 25 -46
47 -82 50 -83 3 0 22 33 43 73 96 183 303 419 472 538 211 150 479 263 695
295 25 3 52 8 60 9 8 2 29 4 47 4 17 1 38 8 46 16 32 31 116 275 142 410 28
145 27 403 0 550 -61 317 -204 586 -435 815 -114 113 -221 192 -362 265 -92
48 -300 126 -368 138 -73 14 -107 20 -125 24 -24 6 -371 14 -376 9z m92 -302
l69 -67 67 66 c38 37 76 67 86 67 10 0 29 -11 42 -24 22 -22 23 -29 14 -53 -5
-15 -13 -30 -17 -33 -4 -3 -29 -29 -57 -58 l-49 -52 62 -63 c35 -35 65 -72 66
-83 8 -47 -41 -81 -84 -59 -14 8 -47 36 -75 64 -27 28 -52 51 -56 51 -4 0 -34
-27 -68 -60 -65 -64 -105 -77 -132 -44 -29 35 -21 56 48 126 l67 68 -61 62
c-72 73 -85 106 -54 137 34 34 58 26 132 -45z m982 -605 l59 -60 68 66 c73 69
97 78 130 45 33 -33 24 -57 -45 -130 l-65 -67 65 -67 c73 -74 81 -102 40 -134
-35 -28 -55 -19 -128 54 l-63 63 -64 -64 c-68 -69 -102 -81 -134 -49 -30 30
-19 62 44 128 33 35 60 67 60 72 0 5 -27 36 -60 68 -67 66 -77 103 -37 131 33
24 63 11 130 -56z m-1964 -14 l67 -64 64 64 c68 69 97 80 132 48 33 -30 22
-61 -46 -131 l-65 -67 65 -66 c68 -72 77 -96 44 -129 -34 -34 -61 -25 -130 45
l-64 64 -67 -64 c-70 -68 -98 -78 -131 -48 -34 31 -23 63 47 133 l65 66 -65
64 c-69 68 -80 97 -48 132 30 33 61 22 132 -47z M1999 5056 c-2 -2 -29 -6 -60
-9 -31 -4 -79 -11 -105 -18 -27 -6 -60 -13 -74 -15 -60 -12 -209 -68 -302
-114 -301 -151 -536 -386 -688 -689 -46 -93 -115 -291 -125 -361 -4 -24 -8
-47 -10 -50 -2 -3 -6 -37 -10 -75 -4 -39 -9 -73 -12 -77 -2 -5 -1 -9 4 -9 26
-4 2846 -3 2851 1 4 3 8 14 8 25 6 101 32 236 67 347 l24 77 -31 68 c-144 313
-402 584 -699 735 -130 65 -311 124 -477 153 -38 7 -355 16 -361 11z m64 -293
c34 -32 65 -62 69 -68 4 -5 39 21 78 59 61 59 74 67 97 61 31 -7 52 -31 53
-58 0 -11 -30 -50 -67 -88 l-67 -70 67 -66 c37 -36 67 -72 67 -80 0 -24 -20
-54 -43 -62 -29 -11 -51 1 -116 65 -29 30 -57 54 -60 54 -4 0 -31 -25 -61 -56
-30 -31 -64 -59 -75 -64 -25 -10 -75 14 -76 38 -3 37 5 49 64 109 l61 62 -20
22 c-10 13 -35 39 -55 58 -47 46 -59 70 -48 98 8 22 35 42 57 43 8 0 41 -26
75 -57z m994 -616 l62 -61 69 67 c73 70 101 79 130 40 25 -34 14 -63 -50 -129
l-61 -64 61 -64 c65 -67 79 -109 48 -135 -35 -29 -57 -22 -126 44 -36 36 -69
65 -71 65 -3 0 -34 -29 -71 -64 -36 -36 -72 -64 -79 -62 -42 7 -58 19 -64 48
-6 27 -1 36 46 86 30 31 60 62 67 70 11 12 3 25 -53 82 -76 80 -83 108 -30
138 31 17 55 5 122 -61z m-1969 -11 l67 -65 66 65 c70 67 98 77 131 47 34 -31
23 -63 -47 -133 l-65 -66 65 -64 c69 -68 81 -102 49 -134 -30 -31 -63 -19
-133 48 l-66 65 -67 -65 c-72 -70 -105 -81 -132 -42 -26 37 -19 57 49 127 l65
67 -61 60 c-67 67 -79 93 -55 129 28 42 60 33 134 -39z M4979 5056 c-2 -2 -26
-6 -54 -10 -27 -3 -61 -8 -75 -11 -14 -3 -41 -8 -60 -11 -63 -11 -223 -66
-315 -109 -169 -79 -303 -172 -436 -305 -253 -252 -424 -619 -443 -955 -1 -20
7 -20 1525 -20 1522 0 1527 0 1524 20 -2 11 -6 43 -9 70 -3 28 -8 61 -11 75
-3 14 -8 41 -11 60 -13 76 -69 231 -125 345 -182 370 -496 644 -888 775 -52
18 -104 34 -115 36 -25 5 -109 21 -151 30 -33 6 -350 15 -356 10z m77 -307
l63 -63 70 67 c38 37 76 67 85 67 10 0 28 -11 42 -25 34 -34 26 -56 -49 -132
l-61 -63 62 -63 c35 -35 65 -72 66 -83 7 -44 -40 -81 -79 -62 -11 6 -46 35
-77 66 l-58 56 -57 -56 c-32 -31 -67 -60 -78 -66 -39 -19 -86 18 -79 62 1 11
31 48 66 83 l62 63 -61 63 c-72 74 -81 94 -53 130 31 39 62 29 136 -44z m970
-596 c36 -34 67 -63 70 -63 2 0 28 24 58 54 67 67 87 79 119 67 25 -10 37 -29
37 -60 0 -10 -29 -47 -65 -83 l-65 -66 65 -67 c43 -44 65 -75 65 -90 0 -29
-35 -64 -58 -60 -9 2 -20 4 -24 4 -3 1 -33 28 -66 61 -33 33 -64 60 -69 60 -4
0 -36 -29 -71 -64 -53 -55 -67 -64 -90 -60 -15 3 -33 12 -39 21 -25 33 -14 60
52 127 l64 67 -64 66 c-76 78 -83 111 -32 140 33 17 47 11 113 -54z m-1957
-18 l67 -65 60 61 c67 67 93 79 129 55 42 -28 33 -60 -39 -134 l-65 -67 65
-66 c67 -70 77 -98 47 -131 -31 -34 -64 -23 -133 47 l-64 64 -67 -64 c-70 -68
-98 -78 -131 -48 -34 31 -23 63 47 133 l65 66 -65 64 c-69 68 -80 97 -48 132
30 33 61 22 132 -47z M7959 5056 c-2 -2 -33 -7 -69 -11 -205 -22 -454 -118
-660 -256 -122 -81 -304 -262 -388 -387 -65 -95 -163 -280 -164 -310 -1 -9 9
-48 20 -86 12 -37 24 -78 26 -90 2 -11 9 -41 15 -66 5 -25 13 -74 17 -110 4
-36 8 -72 10 -80 1 -8 3 -17 3 -20 1 -3 643 -5 1428 -5 l1428 0 -3 39 c-2 22
-6 49 -8 60 -2 11 -6 38 -9 61 -24 170 -114 395 -230 575 -218 340 -618 603
-1010 666 -20 3 -47 8 -59 11 -25 6 -342 14 -347 9z m78 -309 l62 -61 70 67
c38 37 74 67 81 67 22 0 51 -21 59 -43 12 -30 -1 -51 -67 -119 l-56 -58 56
-57 c66 -69 78 -90 67 -120 -8 -22 -42 -39 -69 -34 -8 1 -43 30 -77 64 l-63
61 -57 -56 c-32 -31 -71 -62 -86 -67 -24 -9 -31 -8 -53 14 -13 13 -24 32 -24
42 0 10 30 48 67 85 l67 67 -67 70 c-37 38 -67 78 -67 88 0 11 10 29 21 42 31
33 63 21 136 -52z m969 -597 l64 -63 69 66 c58 57 72 65 96 61 32 -6 54 -29
55 -57 0 -11 -30 -50 -67 -88 l-66 -69 66 -67 c73 -72 81 -97 45 -130 -34 -31
-62 -20 -130 47 -33 33 -62 60 -66 60 -4 0 -34 -28 -68 -61 -64 -63 -97 -76
-129 -49 -33 27 -18 69 48 137 l63 65 -63 64 c-70 70 -82 109 -41 138 33 24
54 15 124 -54z m-1958 -15 l66 -65 66 65 c70 70 96 79 130 45 33 -33 24 -57
-45 -129 l-64 -67 64 -67 c68 -70 75 -88 49 -125 -28 -40 -63 -29 -134 43
l-64 64 -67 -64 c-70 -68 -103 -80 -133 -49 -32 31 -20 66 44 129 33 33 60 64
60 69 0 5 -29 40 -65 77 -68 70 -71 82 -37 122 28 32 59 21 130 -48z M337
3499 c-27 -9 -66 -34 -88 -55 -120 -117 -85 -314 69 -391 36 -17 198 -18 4802
-18 l4765 0 41 22 c52 28 111 95 124 142 35 125 -23 248 -139 299 -32 14 -501
16 -4781 16 -4359 1 -4749 0 -4793 -15z M500 2878 c5 -18 11 -44 13 -58 15
-84 130 -462 147 -485 11 -13 8906 -13 8919 1 19 20 106 307 149 492 l19 82
-4628 0 -4627 0 8 -32z M710 2195 c0 -33 187 -434 281 -602 l24 -43 4105 0
4105 0 24 43 c91 164 260 524 276 590 l6 24 -4410 0 c-3255 0 -4411 -3 -4411
-12z M1096 1418 c25 -43 108 -154 164 -218 180 -209 401 -379 651 -500 115
-55 324 -131 394 -143 17 -3 53 -10 80 -16 70 -15 100 -20 175 -28 89 -11
5038 -10 5123 0 37 5 76 10 86 12 10 2 36 6 57 9 22 4 89 20 150 36 393 104
735 319 1005 630 49 57 141 180 163 218 6 9 -802 12 -4024 12 -3222 0 -4030
-3 -4024 -12z"/>
</g>
</svg>
