<svg viewBox="-49 0 464 464.008" xmlns="http://www.w3.org/2000/svg"><path fill="currentColor" d="m110.589844 147.015625c9.140625-8.648437 21.4375-14 34.980468-14 10.105469 0 19.882813 2.960937 28.28125 8.558594l.738282.496093v-14.0625h-64zm0 0"/><path fill="currentColor" d="m249.804688 332.464844-16.089844-3.578125c-4.695313 5.335937-14.085938 14.128906-28.277344 19.191406 3.0625 3.921875 5.421875 8.648437 7.007812 13.875 18.101563-7.632813 30.648438-20.847656 37.359376-29.488281zm0 0"/><path fill="currentColor" d="m152.730469 361.953125c1.578125-5.226563 3.9375-9.945313 7.007812-13.875-14.183593-5.070313-23.582031-13.863281-28.277343-19.191406l-16.089844 3.578125c6.714844 8.640625 19.257812 21.855468 37.359375 29.488281zm0 0"/><path fill="currentColor" d="m182.589844 296c39.703125 0 72-32.296875 72-72v-40c0-19.289062-15.699219-34.984375-34.984375-34.984375-6.929688 0-13.640625 2.03125-19.410157 5.871094l-9.605468 6.417969v6.703124h-16v-6.703124l-9.609375-6.410157c-5.769531-3.839843-12.480469-5.871093-19.410157-5.871093-19.285156 0-34.980468 15.695312-34.980468 34.984374v40c0 39.695313 32.292968 71.992188 72 71.992188zm40-112c4.414062 0 8 3.585938 8 8s-3.585938 8-8 8c-4.417969 0-8-3.585938-8-8s3.582031-8 8-8zm-48-8h16v16h-16zm-8 64c0 8.824219 7.175781 16 16 16 8.820312 0 16-7.175781 16-16h16c0 17.648438-14.355469 32-32 32-17.648438 0-32-14.351562-32-32zm-24-56c4.414062 0 8 3.585938 8 8s-3.585938 8-8 8c-4.417969 0-8-3.585938-8-8s3.582031-8 8-8zm0 0"/><path fill="currentColor" d="m198.589844 376c0-13.253906-7.164063-24-16-24-8.839844 0-16 10.746094-16 24s7.160156 24 16 24c8.835937 0 16-10.746094 16-24zm0 0"/><path fill="currentColor" d="m222.589844 317.3125v-15.023438c-12.019532 6.167969-25.59375 9.710938-40 9.710938-14.410156 0-27.984375-3.550781-40-9.710938v15.023438c4.070312 4.976562 17.324218 18.6875 40 18.6875 22.621094 0 35.949218-13.761719 40-18.6875zm0 0"/><path fill="currentColor" d="m282.8125 280.984375c-1.847656-7.128906 1.128906-13.992187 3.75-20.046875 1.480469-3.402344 3.304688-7.617188 2.976562-9.5625-.328124-1.925781-3.453124-5.296875-5.960937-8.007812-3.621094-3.902344-7.511719-8.289063-9.253906-13.664063-1.320313.519531-2.695313.929687-4.089844 1.273437-1.925781 24.421876-13.796875 46.09375-31.644531 60.855469v21.761719l61.351562 13.628906c-.289062-4.679687.742188-9.40625 1.804688-13.742187.882812-3.585938 1.976562-8.046875 1.328125-9.886719-.652344-1.851562-4.300781-4.65625-7.238281-6.90625-5.238282-4.023438-11.175782-8.574219-13.023438-15.703125zm0 0"/><path fill="currentColor" d="m190.589844 142.070312.734375-.484374c8.398437-5.601563 18.175781-8.5625 28.28125-8.5625 13.542969 0 25.839843 5.34375 34.984375 14v-19.015626h-64zm0 0"/><path fill="currentColor" d="m98.324219 336.257812-98.32031275 21.847657 13.78515575 13.78125c17.421876 17.425781 37.664063 31.082031 60.015626 41.121093 1.75-5.328124 4.144531-10.457031 7.304687-15.199218 3.582031-5.382813 5.480469-11.640625 5.480469-18.113282v-19.695312h16v19.695312c0 9.640626-2.832032 18.96875-8.167969 26.976563-5.121094 7.6875-7.832031 16.640625-7.832031 25.871094v.832031c0 11.21875 4.191406 22.183594 11.535156 30.625h28.464844v-98.527344c-14.585938-10.527344-23.976563-22.800781-28.265625-29.214844zm0 0"/><path fill="currentColor" d="m65.234375 327.222656 61.355469-13.628906v-21.761719c-17.851563-14.761719-29.722656-36.433593-31.648438-60.855469-1.402344-.34375-2.769531-.753906-4.089844-1.273437-1.742187 5.375-5.632812 9.761719-9.253906 13.664063-2.503906 2.710937-5.632812 6.082031-5.960937 8.007812-.328125 1.945312 1.503906 6.167969 2.976562 9.5625 2.621094 6.054688 5.597657 12.917969 3.75 20.046875-1.839843 7.128906-7.785156 11.679687-13.015625 15.695313-2.9375 2.25-6.582031 5.054687-7.238281 6.914062-.648437 1.832031.445313 6.292969 1.328125 9.878906 1.054688 4.34375 2.09375 9.0625 1.796875 13.75zm0 0"/><path fill="currentColor" d="m270.589844 213.777344c3.574218-2.089844 6.246094-5.488282 7.367187-9.570313.375-1.4375.632813-2.832031.632813-4.207031 0-5.894531-3.242188-11-8-13.777344zm0 0"/><path fill="currentColor" d="m94.589844 128h-8v44.449219c2.476562-1.449219 5.148437-2.578125 8-3.3125zm0 0"/><path fill="currentColor" d="m87.21875 204.207031c1.121094 4.082031 3.792969 7.480469 7.371094 9.570313v-27.546875c-4.761719 2.777343-8 7.882812-8 13.777343 0 1.367188.253906 2.761719.628906 4.199219zm0 0"/><path fill="currentColor" d="m266.851562 336.257812c-4.289062 6.414063-13.679687 18.6875-28.261718 29.222657v98.527343h28.460937c7.34375-8.441406 11.539063-19.414062 11.539063-30.632812v-.832031c0-9.222657-2.714844-18.175781-7.832032-25.863281-5.335937-8.015626-8.167968-17.34375-8.167968-26.984376v-19.695312h16v19.695312c0 6.472657 1.894531 12.730469 5.484375 18.105469 3.160156 4.75 5.554687 9.878907 7.304687 15.207031 22.351563-10.039062 42.59375-23.703124 60.015625-41.121093l13.785157-13.78125zm0 0"/><path fill="currentColor" d="m294.589844 432.542969v.832031c0 10.746094-2.890625 21.320312-8.089844 30.625h48.089844v-57.128906c-12.53125 8.882812-25.96875 16.394531-40.234375 22.496094.054687 1.066406.234375 2.105468.234375 3.175781zm0 0"/><path fill="currentColor" d="m182.589844 416c-17 0-30.808594-16.695312-31.808594-37.632812-2.832031-1.03125-5.585938-2.136719-8.191406-3.375v89.007812h80v-89c-2.609375 1.230469-5.363282 2.34375-8.195313 3.375-1 20.929688-14.804687 37.625-31.804687 37.625zm8 32h-16v-16h16zm0 0"/><path fill="currentColor" d="m70.589844 432.542969c0-1.0625.175781-2.109375.230468-3.167969-14.265624-6.101562-27.703124-13.613281-40.230468-22.496094v57.128906h48.085937c-5.199219-9.3125-8.085937-19.886718-8.085937-30.632812zm0 0"/><path fill="currentColor" d="m278.589844 128h-8v41.136719c2.847656.734375 5.519531 1.863281 8 3.3125zm0 0"/><path fill="currentColor" d="m142.589844 48h80v16h-80zm0 0"/><path fill="currentColor" d="m105.683594 112h49.351562c-2.75-4.726562-4.445312-10.144531-4.445312-16s1.695312-11.273438 4.445312-16h-38.6875zm0 0"/><path fill="currentColor" d="m174.589844 82.230469c-4.761719 2.777343-8 7.882812-8 13.777343 0 5.894532 3.238281 11 8 13.777344zm0 0"/><path fill="currentColor" d="m190.589844 82.230469v27.546875c4.757812-2.777344 8-7.882813 8-13.777344s-3.242188-10.992188-8-13.769531zm0 0"/><path fill="currentColor" d="m248.820312 80h-38.6875c2.75 4.726562 4.445313 10.144531 4.445313 16s-1.695313 11.273438-4.445313 16h49.351563zm0 0"/><path fill="currentColor" d="m190.589844 24v-24h-16v32h16zm0 0"/><path fill="currentColor" d="m86.589844 112h2.238281l12.359375-37.0625c2.167969-6.539062 8.273438-10.9375 15.167969-10.9375h10.234375v-16c0-8.824219 7.175781-16 16-16h16v-19.753906l-3-9.238282-15.21875 4.945313 5.097656 15.6875c-4.351562 1.832031-8.519531 3.992187-12.519531 6.414063l-9.722657-13.367188-12.941406 9.410156 9.710938 13.367188c-3.558594 3.0625-6.878906 6.382812-9.960938 9.933594l-13.359375-9.703126-9.40625 12.945313 13.320313 9.679687c-2.441406 4-4.601563 8.175782-6.441406 12.535157l-15.617188-5.070313-4.941406 15.214844 15.597656 5.0625c-1.65625 7.058594-2.597656 14.386719-2.597656 21.9375zm0 0"/><path fill="currentColor" d="m238.589844 48v16h10.230468c6.894532 0 13 4.398438 15.175782 10.945312l12.351562 37.054688h2.242188c0-7.550781-.945313-14.878906-2.609375-21.9375l15.597656-5.0625-4.941406-15.214844-15.617188 5.070313c-1.839843-4.351563-4-8.535157-6.441406-12.535157l13.320313-9.679687-9.40625-12.945313-13.359376 9.703126c-3.082031-3.550782-6.402343-6.871094-9.960937-9.933594l9.710937-13.367188-12.933593-9.410156-9.722657 13.375c-4-2.421875-8.167968-4.582031-12.519531-6.414062l5.097657-15.6875-15.214844-4.945313-3 9.230469v19.753906h16c8.820312 0 16 7.183594 16 16zm0 0"/></svg>