<svg viewBox="0 0 480 480" xmlns="http://www.w3.org/2000/svg"><g><path fill="currentColor" d="m105.45 177.671c-1.69 1.82-3.22 3.74-4.57 5.72-15.074-20.354-46.52-20.577-61.76 0-1.35-1.98-2.88-3.9-4.57-5.72-12.251-13.242-34.55-4.4-34.55 13.72v234.61c0 13.23 10.77 24 24 24h108c4.42 0 8-3.58 8-8v-250.61c0-18.112-22.296-26.966-34.55-13.72zm-6.45 191.33c0 4.42-3.58 8-8 8h-42c-4.42 0-8-3.58-8-8v-32.29c0-17.61 9.69-33.63 25.29-41.8 2.32-1.21 5.1-1.21 7.42 0 15.6 8.17 25.29 24.19 25.29 41.8z"/><path fill="currentColor" d="m445.45 177.671c-1.67 1.8-3.17 3.68-4.51 5.63-15.16-20.713-46.747-20.674-61.88 0-1.34-1.95-2.84-3.83-4.51-5.63-12.264-13.232-34.55-4.4-34.55 13.72v250.61c0 4.42 3.58 8 8 8h108c13.23 0 24-10.77 24-24v-234.61c0-18.113-22.293-26.968-34.55-13.72zm-6.45 191.33c0 4.42-3.58 8-8 8h-42c-4.42 0-8-3.58-8-8v-32.29c0-17.61 9.69-33.63 25.29-41.8 2.32-1.21 5.1-1.21 7.42 0 15.6 8.17 25.29 24.19 25.29 41.8z"/><path fill="currentColor" d="m324 241.729v34.545c0 4.268-3.46 7.727-7.727 7.727h-152.546c-4.268 0-7.727-3.46-7.727-7.727v-34.545c0-4.268 3.46-7.727 7.727-7.727h152.545c4.268-.001 7.728 3.459 7.728 7.727z"/><path fill="currentColor" d="m83 336.711v20.29c0 2.209-1.791 4-4 4h-18c-2.209 0-4-1.791-4-4v-20.29c0-8.983 3.815-17.335 10.295-23.166 1.539-1.385 3.87-1.385 5.409 0 6.481 5.831 10.296 14.183 10.296 23.166z"/><path fill="currentColor" d="m423 336.711v20.29c0 2.209-1.791 4-4 4h-18c-2.209 0-4-1.791-4-4v-20.29c0-8.983 3.815-17.335 10.295-23.166 1.539-1.385 3.87-1.385 5.409 0 6.481 5.831 10.296 14.183 10.296 23.166z"/><path fill="currentColor" d="m284 367.729v74.545c0 4.268-3.46 7.727-7.727 7.727h-72.545c-4.268 0-7.727-3.46-7.727-7.727v-74.545c0-4.268 3.46-7.727 7.727-7.727h72.545c4.267-.001 7.727 3.459 7.727 7.727z"/><path fill="currentColor" d="m300 352.001c0-4.418-3.582-8-8-8h-104c-4.418 0-8 3.582-8 8v90.273c0 4.268-3.46 7.727-7.727 7.727h-8.55c-4.342 0-7.738-3.574-7.723-7.916 0-.028 0-134.357 0-134.357 0-4.268 3.46-7.727 7.727-7.727h152.545c4.268 0 7.727 3.46 7.727 7.727v134.357c.015 4.342-3.381 7.916-7.723 7.916h-8.55c-4.268 0-7.727-3.46-7.727-7.727v-90.273z"/><path fill="currentColor" d="m319 66.273v143.728c0 4.418-3.582 8-8 8s-8-3.582-8-8v-1.75c0-14.446-11.413-27.25-27.75-27.25-15.05 0-27.25 12.2-27.25 27.25v1.75c0 4.418-3.582 8-8 8s-8-3.582-8-8v-1.75c0-15.05-12.2-27.25-27.25-27.25-16.264 0-27.75 12.736-27.75 27.25v1.75c0 4.418-3.582 8-8 8s-8-3.582-8-8v-143.728c0-4.262 3.218-7.982 7.471-8.255 4.66-.299 8.529 3.388 8.529 7.983v64h126v-64c0-4.595 3.869-8.282 8.529-7.983 4.253.274 7.471 3.993 7.471 8.255z"/><path fill="currentColor" d="m118 149.585c0 3.159-2.254 5.823-5.348 6.465-3.277.68-6.387 1.812-9.249 3.311-2.002 1.048-4.386.944-6.35-.175-16.671-9.499-37.41-9.515-54.107 0-1.963 1.119-4.348 1.223-6.35.175-2.863-1.499-5.973-2.631-9.249-3.311-3.093-.642-5.348-3.305-5.348-6.465 0-3.636 2.948-6.584 6.584-6.584h82.832c3.637 0 6.585 2.948 6.585 6.584z"/><path fill="currentColor" d="m128 119.001c0 4.42-3.58 8-8 8h-100c-4.42 0-8-3.58-8-8s3.58-8 8-8h1.52c-.75-2.12-1.34-4.28-1.75-6.46-4.81-25.34 13.32-54.17 46.18-73.44 2.5-1.47 5.6-1.47 8.1 0 32.86 19.27 50.99 48.1 46.18 73.44-.41 2.18-1 4.34-1.75 6.46h1.52c4.42 0 8 3.58 8 8z"/><path fill="currentColor" d="m458 149.585c0 3.128-2.203 5.819-5.267 6.447-3.087.633-6.129 1.689-9.05 3.188-1.964 1.008-4.325.975-6.235-.131-16.832-9.75-38.058-9.753-54.894-.001-1.915 1.109-4.281 1.134-6.251.125-2.882-1.476-5.92-2.54-9.054-3.181-3.057-.625-5.248-3.318-5.248-6.439 0-3.636 2.948-6.593 6.584-6.593h82.832c3.635.001 6.583 2.949 6.583 6.585z"/><path fill="currentColor" d="m468 119.001c0 4.42-3.58 8-8 8h-100c-4.42 0-8-3.58-8-8s3.58-8 8-8h1.52c-.75-2.12-1.34-4.28-1.75-6.46-4.81-25.34 13.32-54.17 46.18-73.44 2.5-1.47 5.6-1.47 8.1 0 32.86 19.27 50.99 48.1 46.18 73.44-.41 2.18-1 4.34-1.75 6.46h1.52c4.42 0 8 3.58 8 8z"/></g></svg>