<svg xmlns="http://www.w3.org/2000/svg" viewBox="0 0 1024 1024">
<g transform="translate(0,1024) scale(0.1,-0.1)">
<path fill="currentColor" d="M4979 9905 c-340 -82 -558 -424 -483 -760 35 -155 140 -308 271 -393
24 -15 43 -29 43 -32 0 -12 -164 -113 -242 -149 -154 -72 -268 -106 -753 -227
-11 -3 -31 -7 -45 -10 -14 -3 -92 -27 -175 -55 -287 -95 -499 -222 -635 -381
-60 -69 -120 -158 -136 -200 -6 -17 108 -18 2295 -18 2186 0 2300 1 2294 18
-16 45 -118 184 -181 246 -210 206 -448 311 -1078 475 -378 98 -533 156 -681
253 l-63 40 58 37 c124 81 220 209 264 351 33 110 31 275 -5 378 -36 102 -81
174 -157 251 -89 90 -189 146 -315 178 -46 12 -223 10 -276 -2z m285 -341
c103 -50 167 -149 172 -266 6 -134 -54 -239 -170 -298 -61 -31 -78 -35 -145
-35 -85 0 -124 13 -192 61 -85 62 -130 158 -125 271 2 38 9 82 17 98 41 92
118 164 203 191 68 21 172 11 240 -22z M2335 7346 c-37 -16 -70 -52 -84 -89
-7 -16 -11 -108 -11 -218 0 -215 6 -239 66 -285 l37 -29 2770 -2 c2620 -3
2771 -2 2799 15 17 9 44 34 59 56 l29 38 -3 213 c-2 234 -3 239 -71 289 l-27
21 -2767 2 c-2291 2 -2772 0 -2797 -11z M2720 4640 l0 -1760 160 0 160 0 2
1562 3 1561 100 -75 c111 -84 302 -266 390 -372 68 -82 150 -206 194 -294 39
-77 88 -221 96 -282 3 -25 8 -54 10 -65 2 -11 4 -473 4 -1027 l1 -1008 160 0
160 0 1 998 c0 548 2 1006 4 1017 2 11 7 42 10 69 16 121 99 316 197 460 114
169 326 384 523 533 140 105 163 117 221 120 49 1 60 -3 126 -46 258 -170 534
-448 672 -678 76 -128 136 -284 152 -398 3 -22 7 -49 9 -60 2 -11 4 -469 4
-1017 l1 -998 160 0 160 0 1 1013 c0 556 2 1019 4 1027 1 8 6 35 10 59 26 169
140 396 290 577 88 106 279 288 390 372 l100 75 3 -1561 2 -1562 160 0 160 0
0 1760 0 1760 -2400 0 -2400 0 0 -1760z M2335 2546 c-37 -16 -70 -52 -84 -89
-7 -16 -11 -108 -11 -218 0 -215 6 -239 66 -285 l37 -29 2770 -2 c2620 -3
2771 -2 2799 15 17 9 44 34 59 56 l29 38 -3 213 c-2 234 -3 239 -71 289 l-27
21 -2767 2 c-2291 2 -2772 0 -2797 -11z M2820 1594 c0 -15 67 -124 111 -179
171 -218 441 -364 884 -480 72 -19 141 -36 155 -39 67 -11 328 -83 429 -118
239 -82 388 -175 544 -338 84 -89 109 -109 140 -115 80 -15 127 8 188 93 145
198 362 310 839 432 91 23 172 43 180 45 37 8 273 79 355 107 131 44 293 119
392 180 114 70 282 236 341 336 23 40 42 74 42 77 0 3 -1035 5 -2300 5 -1265
0 -2300 -3 -2300 -6z"/>
</g>
</svg>
