<svg xmlns="http://www.w3.org/2000/svg" viewBox="0 0 1024 1024">
<g transform="translate(0,1024) scale(0.1,-0.1)">
<path fill="currentColor" d="M5030 9816 c-120 -24 -245 -117 -303 -225 -72 -131 -68 -304 9 -437
l24 -41 -62 -18 c-154 -42 -346 -139 -480 -242 -91 -69 -175 -150 -194 -185
-35 -67 0 -167 72 -204 36 -18 58 -20 187 -20 l147 1 0 -137 0 -138 690 0 690
0 0 135 c0 74 3 135 8 136 4 0 72 2 152 3 113 2 152 6 177 19 60 32 93 108 78
178 -9 41 -76 113 -180 194 -146 114 -276 183 -457 245 l-107 36 21 35 c53 87
76 217 56 316 -24 117 -110 237 -210 296 -90 52 -217 73 -318 53z m188 -240
c124 -64 160 -220 76 -332 -32 -44 -116 -84 -175 -84 -227 0 -301 307 -99 413
47 25 63 28 111 24 31 -3 70 -12 87 -21z M4307 7944 c-1 -1 -16 -4 -33 -7 -88
-14 -174 -80 -222 -172 l-27 -50 -2 -585 c-2 -564 -1 -587 18 -637 25 -66 93
-141 155 -173 l49 -25 875 0 875 0 51 27 c64 34 127 105 153 172 19 49 20 74
18 636 l-2 585 -27 50 c-33 60 -51 81 -99 118 -82 62 -43 60 -952 61 -456 1
-829 0 -830 0z M3658 7375 c-2 -2 -23 -6 -48 -10 -139 -21 -306 -109 -414
-220 -104 -108 -188 -262 -210 -385 -2 -14 -9 -52 -14 -85 -6 -33 -14 -78 -17
-100 -6 -41 -9 -60 -25 -155 -5 -30 -12 -73 -15 -95 -3 -23 -7 -50 -9 -62 -3
-11 -7 -38 -10 -59 -4 -22 -11 -64 -16 -94 -5 -30 -12 -73 -15 -95 -3 -22 -8
-51 -10 -65 -27 -161 -35 -211 -40 -245 -6 -40 -8 -52 -25 -155 -5 -30 -12
-73 -15 -95 -3 -22 -8 -51 -10 -65 -27 -161 -35 -211 -40 -245 -6 -41 -9 -61
-25 -155 -5 -30 -12 -73 -15 -95 -3 -23 -7 -50 -9 -62 -3 -11 -7 -38 -10 -59
-4 -22 -11 -64 -16 -94 -5 -30 -12 -73 -15 -95 -6 -41 -9 -60 -25 -155 -5 -30
-12 -73 -15 -95 -3 -23 -7 -50 -9 -62 -3 -11 -7 -38 -10 -59 -4 -22 -11 -64
-16 -94 -5 -30 -12 -73 -15 -95 -3 -22 -8 -51 -10 -65 -27 -161 -35 -211 -40
-245 -6 -40 -8 -52 -25 -155 -5 -30 -12 -73 -15 -95 -3 -22 -8 -51 -10 -65
-27 -161 -35 -211 -40 -245 -6 -40 -8 -52 -25 -155 -5 -30 -12 -73 -15 -95 -8
-57 -14 -93 -34 -212 -45 -260 -12 -453 109 -636 91 -139 227 -247 385 -306
139 -53 41 -51 2320 -48 1166 1 2134 6 2150 10 165 44 280 105 387 205 117
110 196 249 232 410 16 69 19 232 6 302 -8 46 -15 89 -26 158 -4 31 -13 83
-39 242 -2 14 -7 43 -10 65 -3 22 -10 65 -15 95 -5 30 -12 72 -16 94 -3 21 -7
48 -10 59 -2 12 -6 39 -9 62 -3 22 -10 65 -15 95 -5 30 -12 72 -16 94 -3 21
-7 48 -10 59 -2 12 -6 39 -9 62 -3 22 -10 65 -15 95 -5 30 -12 72 -16 94 -3
21 -7 48 -10 59 -2 12 -6 39 -9 62 -3 22 -10 65 -15 95 -5 30 -12 72 -16 94
-3 21 -7 48 -10 59 -2 12 -6 39 -9 62 -3 22 -10 65 -15 95 -5 30 -12 72 -16
94 -3 21 -7 48 -10 59 -2 12 -6 39 -9 62 -3 22 -10 65 -15 95 -5 30 -12 72
-16 94 -3 21 -7 48 -10 59 -2 12 -6 39 -9 62 -3 22 -10 65 -15 95 -5 30 -12
72 -16 94 -3 21 -7 48 -10 59 -2 12 -6 39 -9 62 -3 22 -10 65 -15 95 -16 94
-19 114 -25 155 -5 34 -13 84 -40 245 -2 14 -7 43 -10 65 -3 22 -10 65 -15 95
-5 30 -12 72 -16 94 -3 21 -7 48 -10 59 -2 12 -6 39 -9 62 -3 22 -10 65 -15
95 -5 30 -12 72 -16 94 -3 21 -7 48 -10 59 -2 12 -6 39 -9 62 -3 22 -10 65
-15 95 -16 92 -19 113 -25 155 -58 383 -374 673 -740 679 l-80 1 0 -309 c0
-199 3 -310 10 -312 5 -2 28 -6 50 -9 81 -11 126 -68 144 -182 17 -110 21
-134 26 -165 3 -16 7 -43 10 -60 3 -18 10 -58 15 -88 5 -30 12 -73 15 -95 6
-41 9 -60 25 -155 5 -30 12 -73 15 -95 3 -23 7 -50 9 -62 3 -11 7 -38 10 -59
4 -22 11 -64 16 -94 5 -30 12 -73 15 -95 6 -41 9 -60 25 -155 5 -30 12 -73 15
-95 3 -23 7 -50 9 -62 3 -11 7 -38 10 -59 4 -22 11 -64 16 -94 5 -30 12 -73
15 -95 3 -23 7 -50 9 -62 3 -11 7 -38 10 -59 4 -22 11 -64 16 -94 5 -30 12
-73 15 -95 6 -41 9 -60 25 -155 5 -30 12 -73 15 -95 3 -23 7 -50 9 -62 3 -11
7 -38 10 -59 4 -22 11 -64 16 -94 5 -30 12 -73 15 -95 6 -41 9 -60 25 -155 5
-30 12 -73 15 -95 3 -23 7 -50 9 -62 3 -11 7 -38 10 -59 4 -22 11 -64 16 -94
5 -30 12 -73 15 -95 3 -23 7 -50 9 -62 3 -11 7 -38 10 -59 4 -22 11 -64 16
-94 5 -30 12 -73 15 -95 6 -41 9 -60 25 -155 5 -30 12 -73 15 -95 3 -23 7 -50
9 -62 3 -11 7 -38 10 -59 4 -22 11 -64 16 -94 5 -30 12 -73 15 -95 7 -50 13
-86 25 -154 22 -122 5 -178 -69 -228 -33 -22 -34 -22 -482 -23 l-449 0 -1 202
c-1 230 -2 239 -30 279 -35 49 -73 62 -184 65 -55 1 -102 2 -103 3 -2 0 20 20
50 43 179 140 344 361 434 581 37 92 79 245 89 325 4 26 8 58 11 72 5 29 5
271 0 315 -2 17 -7 59 -10 95 -4 36 -9 72 -11 80 -2 8 -7 33 -10 55 -3 23 -8
52 -10 65 -3 14 -8 41 -11 60 -12 78 -95 404 -139 545 -98 315 -230 635 -368
890 l-32 60 -843 -1 c-486 -1 -847 -5 -852 -10 -5 -5 -47 -86 -93 -179 -155
-310 -292 -686 -381 -1045 -24 -96 -47 -191 -50 -210 -5 -33 -9 -52 -21 -110
-3 -14 -7 -43 -11 -65 -3 -22 -7 -47 -9 -55 -2 -8 -7 -46 -11 -85 -3 -38 -8
-79 -10 -90 -6 -28 -5 -273 0 -310 3 -16 7 -49 10 -73 10 -79 45 -210 81 -304
88 -228 249 -450 438 -601 32 -26 56 -48 55 -48 -2 -1 -48 -2 -104 -3 -110 -2
-148 -16 -188 -69 -20 -27 -21 -43 -24 -253 l-3 -225 -454 3 c-442 3 -454 4
-482 24 -15 11 -39 36 -51 55 -22 31 -23 41 -18 109 3 41 13 116 21 165 19
109 23 129 30 180 5 34 13 84 40 245 2 14 7 43 10 65 5 34 13 84 40 245 2 14
7 43 10 65 3 22 10 65 15 95 5 30 12 72 16 94 3 21 7 48 10 59 2 12 6 39 9 62
3 22 10 65 15 95 5 30 12 72 16 94 3 21 7 48 10 59 2 12 6 39 9 62 3 22 10 65
15 95 5 30 12 72 16 94 3 21 7 48 10 59 2 12 6 39 9 62 3 22 10 65 15 95 5 30
12 72 16 94 3 21 7 48 10 59 2 12 6 39 9 62 3 22 10 65 15 95 16 94 19 114 25
155 5 34 13 84 40 245 2 14 7 43 10 65 5 34 13 84 40 245 2 14 7 43 10 65 5
34 13 84 40 245 2 14 7 43 10 65 3 22 10 65 15 95 5 30 12 72 16 94 3 21 7 48
10 59 2 12 6 39 9 62 3 22 10 65 15 95 14 81 19 111 25 154 4 21 8 46 10 55 1
9 6 40 10 68 14 102 76 159 175 162 l25 1 0 313 -1 312 -66 1 c-37 1 -68 0
-70 -1z m1499 -2564 c49 -2 118 -91 292 -379 114 -188 218 -415 237 -515 44
-227 -92 -488 -306 -590 -41 -19 -93 -40 -115 -46 -40 -10 -40 -10 -15 7 53
36 110 95 129 135 62 127 23 248 -172 544 -45 67 -85 119 -90 116 -19 -12
-186 -276 -225 -356 -51 -103 -65 -157 -57 -214 12 -87 61 -159 155 -226 l25
-18 -25 7 c-225 59 -397 241 -434 457 -17 99 -11 163 24 270 63 188 366 713
453 785 19 16 66 30 87 26 8 -1 25 -3 37 -3z M3365 1471 c-3 -2 -5 -109 -5
-237 l0 -233 -242 -3 -243 -3 -53 -30 c-211 -116 -202 -415 16 -522 l57 -28
2205 1 c1213 0 2221 3 2240 6 98 15 204 117 225 216 10 49 8 117 -5 159 -20
62 -82 135 -141 168 l-54 30 -242 3 -243 3 -2 237 -3 237 -1753 1 c-964 0
-1755 -2 -1757 -5z"/>
</g>
</svg>
