<svg viewBox="0 0 512 512" xmlns="http://www.w3.org/2000/svg"><g><path fill="currentColor" d="m94.039 366.027c-15.015 12.272-24.62 30.927-24.62 51.786v13.683h289.005v-13.683c0-20.86-9.605-39.514-24.62-51.786 14.916-12.191 24.483-30.683 24.609-51.376h-288.982c.126 20.693 9.693 39.184 24.608 51.376z"/><path fill="currentColor" d="m408.466 461.496h-389.089v50.504h389.09"/><path fill="currentColor" d="m408.467 250.22h34.513c10.74 0 19.477 8.737 19.477 19.477v44.488h30.167v-44.488c0-27.374-22.27-49.644-49.644-49.644h-136.958v-127.953c0-50.784-41.316-92.1-92.1-92.1-50.784 0-92.099 41.316-92.099 92.1v127.954h-102.446v64.597h389.09m-228.187-208.874h66.18v30.167h-66.18zm0 69.43h66.18v30.167h-66.18z"/></g></svg>