<svg xmlns="http://www.w3.org/2000/svg" viewBox="0 0 1024 1024">
<g transform="translate(0,1024) scale(0.1,-0.1)">
<path fill="currentColor" d="M3600 10016 c0 -2 104 -71 231 -152 256 -164 265 -174 246 -246 -7
-26 -50 -58 -79 -58 -7 0 -63 21 -125 46 -112 45 -298 97 -390 110 -27 3 -57
8 -68 10 -102 21 -483 21 -605 0 -14 -3 -41 -7 -60 -10 -88 -13 -120 -19 -184
-32 -80 -17 -88 -21 -55 -29 134 -31 373 -85 398 -90 17 -3 55 -13 84 -23 41
-13 56 -24 69 -50 19 -40 9 -84 -26 -107 -21 -14 -38 -18 -136 -30 -54 -6 -79
-11 -143 -26 l-48 -11 98 -65 c97 -64 231 -170 327 -258 28 -25 52 -45 55 -45
3 0 29 9 57 19 70 27 104 31 135 15 51 -26 62 -105 20 -141 -11 -9 -70 -35
-133 -58 -392 -147 -789 -389 -1117 -682 -201 -180 -456 -462 -571 -633 -168
-251 -333 -585 -437 -885 -42 -124 -105 -350 -117 -425 -3 -19 -8 -45 -10 -56
-6 -30 -14 -81 -21 -139 -4 -27 -8 -61 -11 -75 -11 -62 -16 -360 -6 -360 5 0
12 6 15 13 3 8 52 73 110 145 178 221 231 301 451 677 60 102 176 254 275 357
184 195 466 398 551 398 44 0 80 -39 80 -85 0 -45 -19 -64 -160 -154 -266
-171 -472 -393 -645 -699 -43 -75 -108 -184 -146 -242 -53 -83 -72 -122 -87
-185 -28 -111 -43 -191 -58 -300 -3 -27 -8 -57 -9 -66 -2 -8 -6 -55 -10 -105
-4 -49 -9 -105 -11 -124 -5 -46 -4 -489 1 -560 6 -93 15 -192 22 -250 3 -30 6
-61 6 -68 1 -25 14 5 52 113 71 206 203 492 243 528 39 35 106 21 132 -28 14
-26 13 -35 -16 -170 -13 -58 -24 -119 -30 -162 -3 -26 -8 -57 -10 -68 -27
-141 -26 -623 2 -805 4 -31 9 -60 29 -178 14 -85 78 -310 121 -427 61 -166
244 -530 259 -513 1 1 6 37 9 78 15 157 60 352 138 588 51 157 68 187 113 198
32 8 82 -12 97 -39 6 -12 12 -79 13 -149 3 -119 12 -271 20 -328 2 -14 6 -47
10 -75 40 -315 154 -652 287 -847 40 -60 54 -72 43 -38 -3 11 -8 32 -11 47 -2
16 -7 39 -9 53 -3 14 -7 43 -11 65 -3 22 -7 51 -9 64 -18 109 -25 493 -12 676
7 109 22 142 71 159 61 22 111 -26 121 -115 3 -31 7 -66 10 -77 2 -11 6 -36 9
-57 12 -75 57 -257 91 -370 112 -368 288 -703 507 -967 l23 -27 0 187 c0 164
7 283 20 349 2 11 6 38 9 59 12 78 18 94 43 114 14 11 41 20 60 20 51 0 77
-33 93 -116 18 -96 17 -91 35 -167 47 -199 126 -421 211 -591 60 -120 166
-286 208 -325 l26 -24 1 39 c0 21 2 46 3 54 2 8 6 40 10 70 14 120 19 150 42
277 13 72 29 143 35 156 22 49 95 65 136 30 25 -22 31 -41 38 -128 6 -80 12
-127 25 -205 5 -30 12 -69 15 -87 12 -74 67 -270 101 -360 74 -198 170 -358
286 -475 l70 -71 69 71 c117 120 225 305 294 502 68 195 112 406 130 625 4 44
14 92 21 107 29 57 126 51 153 -9 6 -13 22 -84 35 -156 23 -127 28 -157 42
-277 4 -30 8 -62 10 -70 1 -8 3 -33 3 -54 l1 -39 26 24 c31 29 137 188 187
280 94 174 214 518 252 719 1 8 6 35 11 60 4 25 9 48 10 53 1 4 2 14 3 22 0 9
12 27 26 40 30 31 82 33 118 5 25 -20 31 -36 43 -114 3 -21 7 -48 9 -59 13
-66 20 -185 20 -347 l0 -186 43 51 c101 117 232 324 317 500 112 234 225 584
261 810 3 21 7 46 9 57 3 11 7 46 10 77 10 89 60 137 121 115 48 -16 63 -50
71 -154 14 -177 7 -557 -11 -670 -3 -14 -7 -47 -11 -75 -3 -27 -8 -59 -10 -70
-3 -11 -7 -32 -9 -48 -3 -15 -8 -36 -11 -47 -12 -37 5 -21 49 47 129 201 203
409 271 762 2 13 7 49 11 80 3 31 8 64 10 75 7 36 16 203 19 321 2 141 7 160
45 180 61 32 110 8 139 -69 86 -231 160 -526 177 -706 3 -41 8 -77 9 -78 7 -7
62 88 135 233 134 265 226 555 266 840 3 28 8 59 10 69 26 143 25 609 -1 777
-2 13 -6 46 -10 72 -4 27 -8 59 -11 70 -2 12 -7 36 -10 52 -3 17 -11 58 -19
93 -20 86 -19 105 10 136 32 34 92 36 122 4 44 -49 181 -352 247 -546 36 -109
41 -121 42 -94 0 9 4 45 7 80 11 102 18 173 22 237 5 77 6 519 1 565 -2 19 -7
75 -11 124 -4 50 -8 97 -10 105 -1 9 -6 39 -9 66 -10 81 -36 214 -57 300 -15
59 -34 101 -73 160 -29 44 -98 157 -152 250 -54 94 -132 215 -173 269 -139
185 -347 373 -539 487 -83 49 -102 70 -102 114 0 41 24 73 63 83 39 11 78 -7
212 -95 210 -138 417 -343 568 -560 20 -29 77 -122 126 -208 139 -239 217
-352 429 -620 26 -33 57 -74 70 -90 l22 -30 -5 175 c-2 96 -6 184 -8 195 -3
11 -8 47 -11 80 -13 113 -68 360 -113 505 -66 214 -135 381 -248 605 -182 361
-331 567 -622 861 -91 91 -225 215 -278 255 -16 13 -32 26 -35 30 -9 10 -202
154 -265 196 -233 156 -518 300 -758 384 -76 27 -104 47 -113 85 -9 37 18 89
53 101 35 11 36 11 100 -11 l52 -17 88 73 c109 91 236 182 330 238 40 24 70
46 68 50 -7 11 -119 32 -240 45 -27 3 -57 13 -66 21 -58 52 -29 144 49 159 9
1 35 8 57 13 22 6 51 13 65 16 14 2 95 21 180 41 85 20 163 37 172 39 40 6 24
14 -59 31 -116 23 -110 22 -173 30 -30 4 -62 9 -72 10 -81 16 -406 22 -508 11
-117 -14 -150 -18 -215 -32 -38 -8 -80 -17 -93 -20 -49 -10 -187 -57 -263 -90
-45 -19 -91 -34 -103 -34 -26 0 -75 41 -77 65 -1 8 -2 21 -3 28 -4 25 24 66
61 88 64 39 407 261 417 269 4 5 -9 7 -30 5 -22 -2 -76 -6 -121 -10 -46 -3
-91 -8 -100 -9 -10 -2 -43 -7 -74 -10 -31 -4 -67 -9 -80 -11 -13 -3 -41 -7
-64 -10 -22 -4 -80 -15 -130 -26 -49 -11 -99 -22 -109 -24 -50 -11 -201 -59
-269 -85 -157 -60 -304 -146 -397 -231 -56 -51 -96 -69 -155 -69 -56 0 -89 16
-157 77 -61 54 -157 118 -247 163 -120 60 -327 132 -451 156 -14 3 -33 7 -42
10 -10 3 -30 7 -45 10 -16 2 -50 9 -78 14 -63 12 -97 18 -160 25 -27 4 -61 8
-75 10 -14 2 -61 7 -105 10 -44 3 -95 8 -112 10 -18 3 -33 3 -33 1z m701
-2140 c69 -15 171 -52 239 -86 125 -64 216 -136 402 -318 l178 -175 178 175
c183 180 277 254 397 315 198 101 368 123 595 80 41 -8 151 -47 210 -75 179
-84 364 -233 558 -447 260 -288 394 -661 395 -1095 0 -84 -10 -257 -17 -295
-2 -11 -7 -42 -10 -70 -29 -215 -145 -614 -250 -857 -9 -21 -15 -38 -14 -39
13 -4 45 -7 112 -13 260 -22 617 -141 653 -217 19 -40 6 -88 -31 -110 -38 -24
-59 -21 -163 25 -109 49 -234 84 -388 111 -29 5 -119 13 -218 19 l-48 3 -55
-109 c-30 -61 -54 -111 -52 -113 2 -1 30 -5 63 -9 188 -20 415 -88 564 -169
133 -72 181 -114 186 -162 3 -27 -20 -67 -46 -80 -39 -21 -61 -19 -100 8 -163
109 -351 183 -539 213 -19 3 -46 7 -59 9 -12 2 -57 7 -100 10 l-76 6 -57 -96
c-38 -64 -52 -95 -42 -96 18 -2 19 -2 89 -23 126 -37 248 -89 350 -150 81 -48
229 -162 269 -207 33 -36 37 -46 33 -76 -8 -46 -31 -71 -73 -79 -38 -7 -56 2
-119 60 -55 51 -205 151 -288 192 -68 35 -244 98 -302 109 -16 3 -42 7 -57 10
-23 4 -32 -3 -76 -63 -67 -90 -188 -194 -283 -242 -26 -14 -39 -27 -39 -41 0
-42 -33 -175 -60 -245 -137 -343 -446 -556 -875 -602 -91 -9 -351 -9 -437 1
-204 23 -405 92 -544 188 -170 117 -301 306 -357 515 -29 106 -27 97 -27 133
0 25 -8 34 -62 64 -86 48 -204 151 -257 224 l-44 61 -68 -19 c-77 -21 -198
-68 -268 -103 -69 -36 -218 -138 -275 -191 -88 -80 -165 -66 -182 34 -5 28 26
70 93 127 138 117 333 227 500 281 45 15 83 30 83 34 0 3 -26 49 -58 101 -35
58 -63 94 -72 93 -8 -1 -37 -5 -65 -9 -59 -7 -101 -14 -135 -22 -14 -3 -38 -8
-54 -11 -90 -15 -281 -98 -397 -173 -34 -22 -70 -40 -80 -40 -77 0 -120 93
-68 149 70 75 297 185 475 230 78 20 90 22 169 36 78 13 77 5 13 130 -35 68
-63 113 -71 110 -6 -2 -44 -6 -82 -10 -77 -6 -106 -10 -180 -26 -27 -6 -61
-13 -75 -15 -46 -9 -174 -55 -253 -91 -85 -38 -112 -38 -146 -2 -50 54 -27
116 59 159 103 52 261 106 365 124 17 3 40 8 51 10 29 6 79 14 139 22 28 3 51
7 53 9 1 1 -17 51 -42 111 -80 201 -181 537 -202 674 -3 19 -7 42 -9 50 -2 8
-7 38 -11 65 -3 28 -8 59 -10 69 -6 35 -18 220 -18 296 0 431 130 793 393
1090 274 310 568 502 819 536 26 3 49 8 51 10 6 6 220 -3 252 -10z M4004 7695
c-232 -50 -484 -228 -716 -505 -182 -216 -282 -456 -315 -750 -13 -118 -7
-383 11 -490 3 -14 7 -41 10 -60 30 -200 130 -538 233 -785 25 -60 47 -111 49
-113 1 -2 31 -5 66 -7 98 -7 189 -16 235 -24 41 -8 41 -8 92 49 31 36 49 65
47 76 -25 129 -24 270 2 345 23 66 254 466 284 492 44 37 136 5 139 -50 3 -42
-9 -67 -120 -257 -64 -111 -123 -217 -131 -236 -13 -32 -19 -165 -7 -176 2 -2
24 7 48 21 56 32 90 32 128 -1 23 -19 31 -34 31 -58 0 -44 -19 -67 -94 -111
-36 -21 -91 -61 -122 -88 l-56 -50 159 -52 c268 -89 290 -103 284 -188 -2 -29
-47 -67 -79 -67 -16 0 -76 18 -134 40 -57 21 -156 53 -218 71 -126 35 -120 37
-145 -45 -25 -82 -23 -86 38 -87 28 0 59 -2 67 -3 8 -2 47 -6 86 -10 39 -4 80
-8 90 -10 11 -2 39 -7 64 -11 25 -4 54 -9 65 -11 11 -2 33 -7 49 -9 15 -3 44
-12 62 -20 65 -27 75 -114 18 -151 -30 -20 -50 -23 -99 -12 -54 13 -59 14
-145 28 -41 6 -86 13 -100 16 -14 2 -68 7 -121 10 l-97 6 15 -63 c23 -101 6
-94 220 -92 261 3 339 -11 366 -64 35 -69 -26 -145 -103 -127 -47 10 -340 17
-340 7 0 -13 89 -96 142 -132 119 -79 232 -110 393 -107 104 2 131 6 206 32
99 35 255 125 383 222 l90 67 -1 68 c-1 37 -2 71 -2 77 -1 5 -23 19 -51 31
-63 27 -125 94 -140 151 -6 23 -13 48 -15 54 -1 6 -32 21 -67 34 -34 12 -102
42 -151 66 -320 158 -481 386 -471 665 4 128 48 255 143 414 27 45 74 185 86
257 9 52 14 83 20 128 7 58 51 101 96 98 33 -3 78 -40 80 -67 6 -64 -26 -249
-63 -361 -24 -74 -46 -122 -95 -201 -48 -79 -84 -191 -87 -274 -3 -75 18 -175
47 -219 l17 -25 50 50 c154 152 361 142 574 -28 l64 -51 37 25 c58 40 184 100
246 117 167 49 327 9 436 -107 44 -47 47 -49 60 -31 72 96 97 257 59 382 -17
58 -54 137 -101 217 -54 92 -108 284 -128 456 -12 98 88 154 151 86 11 -12 23
-42 27 -67 3 -25 8 -56 10 -70 3 -14 7 -39 10 -56 11 -67 58 -211 82 -254 114
-196 142 -281 148 -435 10 -302 -222 -568 -625 -715 -74 -28 -74 -28 -86 -74
-20 -78 -67 -133 -141 -163 l-41 -18 1 -77 c2 -89 -2 -84 150 -196 158 -116
309 -188 432 -207 117 -18 279 5 391 55 60 26 158 97 209 150 l40 42 -125 -6
c-69 -3 -142 -8 -163 -10 -53 -5 -97 31 -97 81 0 66 25 89 112 99 29 4 60 8
68 10 8 1 81 3 162 3 l147 1 11 38 c6 20 14 54 17 75 l5 37 -34 -4 c-18 -3
-58 -8 -89 -11 -31 -3 -67 -8 -80 -10 -13 -3 -44 -8 -69 -11 -25 -3 -48 -8
-51 -10 -4 -2 -24 -7 -45 -10 -22 -3 -46 -7 -54 -9 -22 -4 -68 22 -80 44 -15
28 -12 73 5 99 17 23 78 44 180 61 33 6 73 13 90 15 38 7 161 19 198 20 32 1
34 17 11 95 -13 46 -18 52 -37 48 -12 -3 -33 -8 -46 -11 -40 -9 -151 -47 -229
-77 -89 -36 -121 -36 -156 -4 -32 30 -35 81 -6 118 18 23 175 88 308 128 23 6
42 15 42 19 0 22 -188 169 -217 170 -18 1 -55 41 -62 68 -10 35 9 86 38 101
31 17 63 13 116 -14 27 -13 51 -22 54 -20 2 3 4 38 4 78 0 85 1 84 -150 342
-105 180 -117 206 -114 248 3 49 82 83 131 57 24 -13 261 -418 289 -495 29
-78 31 -214 5 -348 -2 -11 10 -33 27 -50 16 -18 39 -47 52 -64 15 -22 28 -31
42 -29 28 6 85 15 118 20 15 3 58 8 95 11 110 10 102 3 154 127 105 255 204
588 234 788 3 19 7 46 10 60 29 170 23 490 -12 640 -3 14 -8 36 -11 50 -7 40
-60 193 -84 246 -73 157 -168 285 -333 450 -207 206 -387 317 -583 358 -95 21
-239 14 -328 -14 -172 -55 -268 -125 -533 -389 -201 -201 -213 -211 -249 -211
-36 0 -49 11 -219 178 -278 272 -327 313 -449 374 -133 67 -314 93 -451 63z
m59 -854 c161 -42 287 -139 360 -278 39 -74 79 -208 72 -241 -14 -76 -103
-103 -152 -47 l-23 26 -47 -25 c-115 -58 -246 -69 -351 -31 -145 53 -258 210
-264 368 l-1 47 -40 -5 c-72 -11 -117 25 -117 95 0 55 67 89 213 106 29 4 53
7 55 9 12 10 230 -7 295 -24z m2527 5 c41 -9 78 -16 82 -16 3 0 20 -12 37 -26
43 -36 43 -84 1 -126 -29 -28 -35 -30 -79 -24 l-48 6 -1 -45 c-3 -148 -99
-292 -239 -357 -113 -53 -247 -47 -372 16 -48 25 -55 26 -63 12 -28 -49 -117
-52 -146 -5 -22 34 -22 56 -2 135 37 145 121 269 230 343 82 54 155 81 265 97
22 4 41 7 43 9 9 8 229 -6 292 -19z m-2097 -2268 c50 -26 62 -86 27 -131 -54
-69 -162 -25 -155 63 5 62 72 98 128 68z m1439 -18 c26 -27 30 -36 25 -67 -8
-47 -35 -74 -79 -78 -47 -4 -87 28 -95 77 -5 32 -1 41 25 68 21 21 40 30 62
30 22 0 41 -9 62 -30z m-1167 -165 c33 -32 33 -84 3 -119 -58 -66 -166 -13
-152 73 11 66 102 94 149 46z m919 -6 c29 -34 31 -43 16 -86 -17 -49 -75 -71
-122 -47 -83 42 -53 164 41 164 32 0 44 -6 65 -31z m-1166 -124 c68 -80 -38
-190 -121 -125 -70 55 -21 168 68 155 17 -2 40 -16 53 -30z m1413 4 c39 -37
39 -81 0 -120 -53 -52 -133 -27 -147 46 -16 86 82 135 147 74z M3845 6680
c-13 -21 -6 -100 13 -142 38 -84 104 -130 195 -134 66 -3 137 22 180 62 l27
25 -20 29 c-53 74 -157 139 -247 154 -73 13 -142 15 -148 6z M6248 6673 c-106
-21 -182 -68 -241 -145 l-28 -36 23 -22 c59 -56 158 -82 234 -61 112 30 172
121 165 252 -1 24 -4 26 -46 25 -25 0 -73 -6 -107 -13z M4615 5016 c-16 -8
-37 -21 -45 -28 -20 -17 -60 -69 -60 -78 0 -24 195 -129 343 -184 55 -21 107
-42 118 -49 26 -16 44 -65 41 -114 -2 -35 2 -45 20 -55 55 -32 81 -35 126 -18
54 21 62 32 62 96 0 72 17 88 135 129 115 41 229 93 297 137 l48 30 -27 34
c-101 133 -276 115 -517 -53 -103 -73 -123 -73 -190 0 -128 135 -265 195 -351
153z M3371 4792 c8 -21 104 -200 106 -198 4 3 51 190 49 193 0 0 -36 4 -80 8
-53 5 -77 4 -75 -3z M6859 4796 c-4 -3 -97 -17 -127 -19 -9 0 -12 -9 -8 -26 3
-14 11 -54 18 -89 7 -34 17 -61 21 -59 11 3 110 188 104 193 -2 2 -6 2 -8 0z
M5042 3935 c-157 -118 -387 -242 -487 -261 -11 -2 -36 -7 -55 -10 -19 -4 -44
-8 -55 -10 -35 -7 -178 -6 -234 2 l-53 6 7 -33 c22 -103 104 -253 181 -335 50
-52 135 -115 201 -148 56 -28 180 -71 228 -80 17 -3 41 -8 55 -11 98 -21 368
-28 501 -13 156 18 346 84 453 157 68 47 140 121 185 190 67 104 133 288 99
276 -45 -16 -217 -22 -293 -10 -117 18 -259 74 -390 155 -60 37 -99 65 -239
171 -20 16 -24 15 -104 -46z M2127 9264 c-92 -29 -164 -125 -204 -274 -26 -97
-24 -408 3 -565 17 -103 27 -156 36 -197 l10 -48 46 44 c26 24 59 54 75 67
l27 24 -25 63 c-105 256 -40 530 150 630 72 38 208 41 313 7 89 -28 189 -87
262 -153 51 -47 57 -49 80 -37 14 7 43 20 65 29 l40 17 -45 40 c-160 142 -389
286 -532 334 -103 34 -229 42 -301 19z M7831 9254 c-159 -47 -381 -172 -555
-315 l-65 -54 52 -25 c110 -54 116 -55 133 -31 40 57 236 178 319 197 17 3 68
8 115 10 72 3 94 -1 144 -21 71 -29 134 -88 170 -160 44 -85 56 -148 53 -270
-3 -93 -8 -124 -34 -198 -30 -85 -30 -88 -12 -101 11 -7 40 -33 65 -56 33 -30
48 -39 54 -31 4 7 15 58 25 114 10 56 19 110 21 121 26 141 25 462 0 561 -37
141 -104 232 -198 266 -68 25 -186 22 -287 -7z M2310 8838 c-50 -34 -82 -105
-83 -186 0 -37 2 -86 6 -109 8 -55 36 -121 45 -107 18 26 373 262 415 277 33
11 -87 95 -181 126 -83 28 -159 28 -202 -1z M7735 8841 c-58 -21 -128 -62
-167 -99 l-27 -25 102 -61 c56 -33 156 -100 222 -147 l120 -86 16 46 c37 105
19 263 -38 337 -42 56 -132 70 -228 35z M1660 8508 c-143 -192 -273 -405 -395
-647 -74 -148 -208 -451 -203 -457 2 -1 102 58 221 133 l218 136 94 111 c98
116 123 144 187 211 l38 41 -25 109 c-27 124 -32 151 -41 215 -3 25 -7 52 -9
60 -2 8 -7 49 -11 90 -3 41 -8 76 -9 78 -2 2 -31 -34 -65 -80z M8510 8563 c-1
-62 -34 -270 -66 -412 l-26 -114 34 -36 c82 -87 131 -142 206 -232 78 -93 86
-99 279 -219 109 -68 208 -130 220 -138 l23 -14 -14 38 c-50 139 -219 492
-322 670 -98 170 -312 484 -330 484 -2 0 -4 -12 -4 -27z"/>
</g>
</svg>
