<svg xmlns="http://www.w3.org/2000/svg" viewBox="0 0 1024 1024">
<g transform="translate(0,1024) scale(0.1,-0.1)">
<path fill="currentColor" d="M3458 10183 c-37 -23 -62 -77 -55 -118 3 -19 46 -94 96 -169 90 -133
101 -153 81 -141 -13 8 -353 8 -430 1 -94 -9 -153 -17 -205 -28 -27 -5 -63
-12 -80 -15 -16 -3 -68 -16 -115 -30 -416 -120 -723 -373 -896 -736 -55 -117
-62 -152 -39 -200 25 -53 64 -67 184 -67 l101 0 -67 -82 c-80 -100 -194 -272
-256 -388 -163 -302 -290 -739 -292 -997 0 -55 3 -65 29 -92 39 -40 71 -45
167 -26 44 9 83 15 85 12 3 -3 -13 -47 -35 -98 -65 -154 -153 -423 -175 -539
-3 -14 -11 -59 -20 -100 -102 -523 -14 -1030 245 -1419 61 -91 99 -117 157
-108 48 8 63 24 158 166 78 116 84 123 93 100 5 -13 31 -78 57 -144 153 -392
416 -746 754 -1017 183 -146 342 -240 603 -357 314 -141 575 -339 739 -561 67
-91 76 -99 121 -107 54 -8 96 18 147 94 160 238 444 443 885 638 193 85 439
256 626 433 268 255 485 581 613 924 20 53 36 102 36 109 0 23 27 -11 106
-131 87 -132 118 -157 183 -147 46 8 95 61 167 183 276 469 314 1056 109 1695
-39 121 -131 356 -148 377 -12 16 -6 16 88 -4 94 -19 132 -13 171 27 26 27 29
37 29 92 -1 59 -14 186 -20 197 -2 3 -6 26 -10 50 -10 75 -62 269 -99 377 -96
274 -245 545 -419 761 l-67 82 101 0 c118 0 159 15 183 65 25 51 20 78 -32
189 -209 442 -561 692 -1128 800 -23 5 -89 13 -174 22 -30 3 -141 6 -247 6
l-192 0 90 135 c50 74 93 150 96 168 8 47 -21 100 -65 121 -30 14 -54 16 -151
10 -64 -3 -125 -8 -137 -10 -12 -2 -44 -7 -73 -11 -62 -8 -197 -45 -269 -74
-128 -51 -229 -116 -319 -204 l-62 -60 -77 72 c-88 83 -192 147 -309 192 -88
34 -202 65 -274 75 -25 3 -55 8 -66 10 -11 2 -76 7 -145 10 -109 4 -129 3
-152 -13z m559 -1924 c146 -32 277 -94 391 -187 31 -25 60 -50 63 -55 3 -4 27
10 53 32 129 112 298 193 454 218 57 9 241 10 297 2 131 -20 290 -85 399 -163
199 -142 327 -343 381 -601 14 -64 13 -244 -2 -322 -22 -117 -43 -171 -190
-495 l-135 -296 31 -109 c17 -59 33 -130 37 -158 47 -322 -93 -641 -360 -821
-47 -31 -51 -37 -73 -116 -89 -310 -336 -554 -648 -640 -119 -32 -356 -32
-470 0 -203 59 -374 174 -494 332 -69 92 -122 198 -154 307 -23 81 -25 84 -81
123 -264 185 -395 485 -353 810 4 30 21 104 38 163 l31 109 -126 276 c-154
341 -159 353 -179 427 -25 91 -27 112 -31 225 -15 465 313 863 779 948 82 15
252 11 342 -9z M3662 8020 c-254 -61 -459 -270 -516 -525 -19 -86 -15 -245 8
-329 9 -32 86 -212 171 -400 85 -188 155 -351 155 -362 0 -11 -16 -74 -35
-141 -45 -156 -49 -181 -48 -280 2 -157 60 -292 178 -409 114 -113 256 -172
415 -172 96 0 177 20 283 70 l87 41 0 206 0 206 -63 34 c-139 76 -272 194
-313 278 -28 58 -26 165 6 226 71 140 244 215 490 214 250 -1 419 -75 490
-214 20 -38 25 -63 25 -118 -1 -85 -23 -133 -99 -213 -48 -51 -207 -165 -268
-193 l-28 -12 0 -207 0 -207 88 -41 c124 -58 146 -63 263 -68 169 -6 314 51
434 170 123 122 179 256 179 426 0 78 -8 122 -49 261 -19 68 -35 132 -35 143
0 11 70 174 155 362 85 189 163 371 172 406 12 44 17 99 17 183 0 102 -5 132
-27 200 -36 110 -89 196 -172 279 -128 129 -281 196 -460 202 -117 3 -183 -7
-281 -45 -92 -36 -160 -82 -264 -180 -122 -116 -159 -118 -262 -18 -95 93
-146 132 -223 171 -142 72 -320 93 -473 56z m270 -693 c99 -71 84 -218 -26
-268 -23 -10 -54 -19 -69 -19 -67 0 -143 65 -154 131 -22 143 132 241 249 156z
m1280 0 c99 -71 84 -218 -26 -268 -23 -10 -54 -19 -69 -19 -67 0 -143 65 -154
131 -22 143 132 241 249 156z M4334 6426 c-58 -14 -112 -43 -128 -68 -8 -14
-4 -24 24 -53 49 -51 125 -108 192 -144 l57 -30 58 31 c68 36 186 128 210 164
15 23 15 26 -6 48 -36 39 -113 58 -241 61 -67 2 -136 -2 -166 -9z M4398 5265
c-79 -41 -202 -84 -267 -93 -25 -4 -97 -7 -158 -7 -62 0 -113 -2 -113 -4 0 -3
18 -35 40 -72 80 -135 218 -244 375 -296 69 -23 96 -27 205 -27 109 0 136 4
205 27 171 57 305 167 389 320 14 26 26 49 26 51 0 2 -48 2 -107 0 -160 -4
-266 20 -424 97 -44 21 -85 39 -92 39 -7 -1 -42 -16 -79 -35z M8840 7602 c-28
-28 -43 -68 -55 -146 -17 -116 -87 -342 -128 -416 -19 -36 -84 -108 -182 -205
-189 -186 -196 -200 -190 -375 5 -130 7 -147 36 -245 69 -232 233 -335 529
-333 322 3 470 132 530 463 27 147 21 374 -13 510 -52 203 -143 409 -266 600
-105 163 -118 175 -191 175 -32 0 -48 -6 -70 -28z M8579 5664 c-3 -40 -62
-253 -105 -384 -141 -423 -352 -800 -640 -1144 -175 -208 -429 -444 -627 -582
-31 -21 -57 -42 -57 -45 0 -4 14 -12 30 -19 60 -25 213 -121 293 -184 80 -63
208 -188 258 -254 l26 -34 101 104 c383 393 693 891 892 1433 71 193 147 464
175 630 3 17 10 55 15 85 6 30 12 75 15 100 3 25 8 54 10 65 2 11 7 54 10 95
4 41 8 84 10 96 3 20 -1 20 -128 20 -122 -1 -158 2 -244 20 -18 3 -33 3 -34
-2z M2251 4251 c-31 -119 -64 -263 -76 -331 -3 -19 -8 -42 -10 -50 -2 -8 -6
-31 -9 -50 -10 -69 -17 -115 -21 -140 -3 -14 -7 -50 -11 -80 -3 -30 -7 -66 -9
-79 -27 -165 -27 -837 0 -1003 2 -13 6 -48 10 -79 3 -31 7 -65 9 -75 2 -11 7
-39 10 -64 24 -173 97 -486 160 -685 19 -60 80 -245 135 -410 l100 -300 -32
-24 c-57 -44 -141 -137 -175 -194 -62 -103 -86 -189 -86 -307 0 -91 3 -112 23
-153 44 -90 138 -161 239 -182 l32 -7 0 172 c0 192 7 222 61 254 44 26 103 17
143 -23 l31 -31 3 -185 3 -185 119 0 119 0 3 185 3 185 33 32 c28 28 39 33 82
33 43 0 54 -5 82 -33 l33 -32 3 -185 3 -185 119 0 119 0 3 185 3 185 33 32
c28 28 39 33 82 33 43 0 54 -5 82 -33 l33 -32 3 -170 c2 -123 7 -170 15 -170
16 0 106 54 138 82 303 271 105 800 -316 844 -96 9 -112 14 -141 45 -24 25
-29 39 -29 79 0 43 5 54 33 82 30 31 37 33 100 33 69 -1 133 -9 164 -20 17 -7
18 30 20 614 l3 621 33 32 c28 28 39 33 82 33 43 0 54 -5 82 -33 l33 -32 3
-676 2 -676 28 -21 c120 -91 225 -251 268 -409 24 -87 24 -271 1 -357 -20 -73
-65 -166 -108 -226 l-30 -40 181 -3 c99 -1 261 -1 360 0 l181 3 -30 40 c-43
60 -88 153 -108 226 -24 87 -23 270 1 359 39 144 147 313 249 390 l46 35 3
677 3 678 33 32 c28 28 39 33 82 33 43 0 54 -5 82 -33 l33 -32 3 -621 c2 -582
3 -620 20 -615 43 14 121 24 174 23 51 -2 62 -6 90 -35 28 -28 33 -39 33 -82
0 -40 -5 -54 -29 -79 -30 -31 -44 -35 -144 -46 -173 -18 -334 -132 -408 -290
-40 -84 -45 -107 -50 -208 -5 -125 38 -236 125 -324 45 -44 134 -103 158 -103
8 0 13 47 15 170 l3 170 33 32 c28 28 39 33 82 33 43 0 54 -5 82 -33 l33 -32
3 -185 3 -185 119 0 119 0 3 185 3 185 33 32 c28 28 39 33 82 33 43 0 54 -5
82 -33 l33 -32 3 -185 3 -185 119 0 119 0 3 185 3 185 33 32 c28 28 39 33 82
33 43 0 54 -5 82 -33 l33 -32 3 -185 3 -185 32 5 c99 18 191 90 236 185 23 48
26 67 25 155 -1 113 -26 202 -86 302 -34 58 -118 150 -175 193 l-33 25 130
390 c108 324 201 642 225 773 3 15 7 41 10 57 3 17 8 41 10 55 11 53 15 76 20
115 4 22 8 51 10 65 2 14 7 52 11 85 3 33 8 68 10 78 26 140 26 834 -1 998 -2
13 -6 49 -9 79 -4 30 -8 66 -11 80 -4 24 -8 56 -21 138 -3 20 -7 44 -9 52 -2
8 -7 31 -10 50 -10 61 -75 333 -93 393 l-19 58 -58 -78 c-90 -121 -158 -198
-289 -328 -257 -256 -527 -441 -851 -584 -274 -120 -528 -307 -646 -472 -75
-106 -127 -157 -198 -192 -58 -28 -75 -32 -151 -32 -76 0 -93 4 -151 32 -71
35 -123 86 -199 192 -124 175 -395 368 -700 498 -377 160 -804 509 -1085 886
-31 42 -59 77 -60 77 -1 0 -17 -54 -34 -119z M1768 3211 c-220 -129 -410 -338
-522 -576 -36 -76 -81 -208 -95 -277 -6 -29 -13 -66 -17 -83 -16 -75 -12 -321
6 -422 27 -150 50 -216 196 -556 81 -190 128 -310 120 -312 -6 -2 -29 -9 -51
-15 -150 -45 -301 -175 -373 -321 -102 -206 -93 -399 24 -515 55 -54 122 -84
200 -91 l64 -6 0 173 c0 192 7 222 61 254 44 26 103 17 143 -23 l31 -31 3
-185 3 -185 270 0 269 0 -29 53 c-74 132 -89 314 -40 502 29 108 102 243 185
341 l43 50 -109 330 c-226 682 -302 1121 -302 1732 0 111 -3 202 -6 202 -4 0
-37 -18 -74 -39z M7111 3018 c-1 -128 -3 -249 -5 -268 -2 -19 -7 -80 -11 -134
-4 -55 -8 -109 -10 -120 -2 -12 -6 -48 -10 -81 -3 -33 -8 -67 -10 -75 -2 -8
-6 -37 -10 -65 -3 -27 -8 -57 -10 -65 -2 -8 -6 -31 -9 -50 -34 -225 -167 -692
-332 -1165 -2 -5 14 -30 36 -55 215 -241 281 -614 149 -848 l-29 -52 269 0
270 0 3 185 3 185 33 32 c28 28 39 33 82 33 43 0 54 -5 82 -33 l33 -32 3 -186
3 -187 59 6 c166 15 285 136 297 301 19 264 -181 546 -442 625 -22 7 -45 14
-52 16 -7 2 35 113 116 302 143 332 173 414 198 541 18 94 24 336 10 432 -49
342 -243 669 -519 873 -67 50 -177 117 -191 117 -3 0 -6 -105 -6 -232z"/>
</g>
</svg>
