<svg xmlns="http://www.w3.org/2000/svg" viewBox="0 0 1024 1024">
<g transform="translate(0,1024) scale(0.1,-0.1)">
<path fill="currentColor" d="M3739 10236 c-2 -2 -40 -6 -84 -10 -44 -3 -89 -8 -100 -10 -11 -2
-40 -7 -65 -10 -108 -15 -223 -39 -345 -73 -815 -224 -1498 -792 -1875 -1558
-112 -228 -209 -499 -244 -685 -3 -14 -9 -48 -15 -77 -6 -29 -13 -74 -17 -100
-3 -26 -8 -57 -10 -68 -26 -130 -25 -617 0 -752 2 -10 7 -38 10 -63 19 -139
101 -470 117 -470 4 0 45 20 91 43 46 24 89 46 96 48 10 3 14 93 16 434 4 457
5 464 42 651 78 395 282 717 613 967 225 170 467 290 876 435 187 66 190 67
192 97 13 199 53 332 142 467 130 199 341 349 552 394 90 19 124 22 209 22
285 -1 547 -132 719 -362 106 -140 163 -291 178 -471 3 -38 8 -73 12 -76 3 -4
65 -26 136 -49 727 -238 1149 -538 1387 -985 69 -129 146 -368 163 -504 4 -30
8 -62 10 -73 13 -63 18 -229 19 -565 1 -210 3 -383 6 -385 3 -3 34 -19 70 -37
36 -18 79 -42 96 -52 l32 -19 31 112 c43 156 70 281 87 403 3 28 8 59 10 70
24 129 23 536 -2 705 -52 369 -137 647 -293 960 -405 811 -1163 1401 -2036
1583 -129 27 -166 34 -247 43 -29 3 -64 8 -78 11 -28 5 -495 14 -501 9z M6630
9626 c0 -3 47 -63 104 -134 256 -319 454 -679 591 -1072 35 -101 99 -331 110
-397 7 -45 23 -83 34 -83 16 0 182 -99 295 -177 l109 -75 503 503 c379 379
499 505 491 514 -18 17 -196 156 -252 197 -236 170 -541 339 -806 446 -248
101 -573 196 -779 228 -19 3 -42 7 -50 9 -8 2 -37 7 -65 11 -27 3 -58 8 -67 9
-9 2 -48 6 -85 10 -37 3 -83 8 -100 10 -18 3 -33 3 -33 1z M3860 9311 c-94
-31 -173 -104 -202 -187 -12 -36 -18 -94 -20 -220 -4 -162 -6 -174 -31 -226
-53 -107 -156 -165 -536 -298 -471 -165 -673 -271 -851 -450 -132 -131 -217
-283 -265 -474 -33 -131 -38 -191 -39 -478 l-2 -258 446 0 c245 0 470 -2 500
-5 30 -2 91 -6 135 -9 44 -4 89 -8 100 -10 11 -2 46 -7 79 -11 246 -29 488
-110 699 -231 l48 -28 37 23 c121 73 377 177 477 194 17 3 50 10 75 15 46 11
78 16 165 28 28 3 58 8 68 10 9 1 56 6 105 10 48 3 107 8 132 10 25 2 256 4
513 4 l468 0 -1 273 c-2 349 -23 482 -104 660 -143 315 -426 520 -971 706
-453 154 -561 210 -612 313 -29 58 -32 78 -34 248 -1 110 -5 159 -18 198 -40
116 -143 192 -269 198 -37 2 -78 0 -92 -5z M8800 7765 l-504 -504 28 -38 c224
-304 393 -677 451 -993 4 -19 8 -39 9 -45 2 -5 6 -30 10 -55 4 -25 9 -54 11
-65 2 -11 4 -26 4 -32 1 -10 151 -13 717 -13 l716 0 -7 63 c-3 34 -8 73 -10
87 -2 14 -7 49 -10 79 -4 30 -9 63 -11 75 -2 11 -6 38 -10 61 -33 227 -122
536 -230 804 -152 375 -358 716 -637 1053 l-22 28 -505 -505z M7511 7113 c-1
-43 -4 -96 -6 -118 -2 -22 -7 -69 -10 -105 -4 -36 -8 -74 -10 -85 -2 -11 -7
-40 -10 -65 -6 -49 -5 -49 -36 -200 -25 -124 -88 -350 -124 -445 -14 -37 -25
-69 -25 -71 0 -2 205 -4 455 -4 439 0 455 1 455 19 0 10 -14 72 -30 138 -83
329 -245 620 -482 863 -80 83 -155 150 -166 150 -5 0 -10 -35 -11 -77z M1920
6036 l0 -86 -97 -1 c-103 -1 -118 -2 -198 -20 -111 -26 -264 -115 -334 -195
-133 -153 -193 -320 -187 -519 5 -184 69 -330 201 -460 l71 -70 -71 -23 c-133
-43 -251 -138 -328 -264 -160 -264 -81 -622 176 -797 249 -170 575 -133 780
89 59 63 98 126 124 200 l17 48 57 -104 c213 -382 500 -660 875 -848 171 -85
391 -160 534 -181 25 -4 47 -8 50 -10 3 -2 34 -6 70 -10 36 -4 79 -9 95 -11
91 -11 368 -5 465 11 14 2 45 7 70 10 81 12 306 73 399 109 462 179 826 500
1068 945 44 79 47 83 56 60 83 -207 238 -347 434 -393 343 -79 683 158 731
510 40 296 -154 580 -446 654 l-44 11 60 59 c142 141 212 313 207 505 -5 165
-46 285 -142 417 -93 129 -268 241 -411 264 -21 4 -44 8 -52 9 -8 2 -54 4
-102 4 l-88 1 0 86 0 86 -532 -5 c-293 -2 -544 -7 -558 -10 -14 -3 -49 -8 -78
-11 -283 -32 -479 -109 -647 -255 -88 -77 -146 -100 -240 -97 -82 3 -127 23
-206 91 -175 151 -368 230 -634 260 -27 3 -68 8 -90 11 -22 3 -268 8 -547 11
l-508 5 0 -86z M7354 5278 c1 -170 -5 -229 -37 -349 l-14 -55 48 -64 c91 -122
177 -313 209 -463 l12 -59 26 24 c259 227 467 565 562 911 22 80 23 85 35 155
l7 42 -424 0 -424 0 0 -142z M8809 5408 c-1 -17 -5 -42 -30 -172 -63 -337
-220 -695 -428 -981 -28 -38 -51 -72 -51 -75 0 -3 226 -231 503 -508 l503
-503 86 108 c354 446 602 944 738 1483 18 69 34 134 36 145 2 11 6 31 9 45 7
32 11 54 20 110 4 25 9 52 10 60 5 28 20 152 30 243 l6 57 -716 0 c-565 0
-715 -3 -716 -12z M7795 3699 c-92 -67 -224 -148 -316 -194 -41 -21 -77 -43
-81 -50 -24 -41 -109 -144 -165 -200 -55 -55 -62 -66 -46 -72 222 -79 427
-193 594 -329 149 -122 325 -324 420 -485 l41 -69 47 27 c106 60 364 237 473
325 l117 93 -502 503 c-276 276 -504 502 -507 502 -3 0 -37 -23 -75 -51z
M5716 2781 c-3 -4 -6 -266 -7 -582 0 -316 -4 -596 -9 -624 -4 -27 -11 -70 -14
-95 -8 -63 -51 -225 -82 -313 -132 -368 -411 -710 -749 -917 -153 -94 -425
-206 -547 -225 -126 -20 -19 -23 800 -24 l892 -1 0 33 c6 342 -1 2711 -7 2717
-7 7 -42 12 -193 26 -30 3 -60 7 -67 9 -7 2 -15 0 -17 -4z M2037 2774 c-1 -1
-36 -5 -77 -9 -41 -4 -82 -8 -90 -10 -8 -2 -49 -6 -90 -10 -41 -4 -82 -8 -90
-10 -8 -2 -49 -6 -90 -10 -41 -4 -82 -8 -90 -10 -8 -1 -46 -6 -85 -9 -38 -4
-81 -9 -95 -11 -14 -2 -52 -6 -85 -10 -79 -8 -145 -16 -170 -21 -11 -3 -35 -7
-54 -10 -19 -3 -74 -19 -122 -34 -469 -154 -817 -565 -886 -1050 -4 -30 -8
-345 -8 -700 l0 -645 28 -57 c33 -67 93 -121 166 -149 49 -18 99 -19 1728 -18
985 1 1664 5 1643 10 -19 5 -48 11 -65 14 -154 28 -446 154 -605 261 -421 282
-706 719 -789 1209 -22 131 -24 190 -26 720 -2 303 -3 553 -4 557 -1 6 -38 7
-44 2z M6604 1347 l1 -1342 525 0 525 0 48 24 c64 31 115 84 146 151 l26 55 0
630 c-1 570 -4 707 -20 785 -3 14 -8 39 -10 55 -17 95 -76 251 -134 350 -89
154 -232 300 -389 399 -183 114 -455 208 -673 230 l-45 5 0 -1342z M2689 2303
c-3 -628 -4 -623 25 -759 80 -378 354 -710 713 -864 91 -38 211 -73 298 -87
63 -10 294 -10 360 0 104 15 244 59 350 112 352 173 586 486 659 880 20 109
24 850 4 842 -7 -3 -61 -26 -121 -51 -193 -82 -460 -157 -642 -182 -27 -3 -59
-8 -70 -10 -109 -21 -539 -21 -650 0 -11 2 -42 7 -68 10 -26 4 -71 11 -100 17
-29 6 -63 13 -77 15 -165 32 -444 130 -611 214 -32 17 -61 30 -64 30 -3 0 -5
-75 -6 -167z"/>
</g>
</svg>
