<svg xmlns="http://www.w3.org/2000/svg" viewBox="0 0 1024 1024">
<g transform="translate(0,1024) scale(0.1,-0.1)">
<path fill="currentColor" d="M5010 9895 c-178 -49 -320 -178 -381 -346 l-22 -59 -46 -1 c-25 0
-55 -2 -66 -4 -11 -2 -36 -7 -55 -10 -112 -20 -267 -134 -336 -245 -35 -57
-36 -58 -72 -52 -51 9 -235 9 -302 -1 -63 -9 -207 -45 -230 -57 -12 -7 -22 3
-44 45 -143 273 -527 284 -682 19 -23 -39 -30 -44 -62 -45 -67 -1 -96 -9 -169
-44 -82 -41 -138 -97 -180 -184 -37 -76 -42 -211 -12 -292 11 -30 21 -57 22
-60 1 -3 -21 -24 -49 -47 -101 -80 -215 -208 -292 -327 -25 -38 -46 -72 -48
-74 -1 -1 -36 -4 -76 -6 -141 -6 -250 -70 -323 -191 -25 -40 -27 -41 -92 -47
-134 -13 -258 -100 -318 -223 -25 -51 -29 -73 -31 -154 -2 -82 1 -103 23 -158
15 -37 46 -85 73 -115 42 -46 46 -55 38 -77 -5 -14 -12 -57 -15 -96 -8 -109
27 -213 99 -290 l29 -31 -32 -73 c-17 -41 -41 -115 -54 -164 -21 -85 -24 -90
-51 -93 -16 -2 -67 -22 -113 -44 -108 -51 -204 -145 -253 -247 l-33 -69 -70 2
c-262 8 -490 -171 -551 -433 -46 -193 39 -424 200 -547 l35 -26 -26 -67 c-22
-57 -26 -83 -27 -177 0 -60 2 -121 6 -135 63 -241 263 -411 502 -424 37 -3 69
-6 71 -8 1 -2 5 -39 8 -83 10 -141 56 -314 114 -429 13 -26 22 -54 20 -61 -3
-7 -32 -14 -71 -17 -192 -16 -346 -177 -352 -369 -4 -116 30 -209 105 -287
l42 -43 -14 -47 c-37 -124 -1 -274 90 -369 109 -115 261 -151 417 -99 l77 26
42 -28 c74 -51 132 -67 233 -66 l90 1 25 -36 c39 -58 186 -206 243 -246 l53
-36 6 -72 c7 -91 41 -171 101 -235 l45 -48 -13 -45 c-21 -68 -17 -164 9 -236
76 -211 306 -314 513 -230 l61 24 48 -34 c174 -124 438 -65 548 123 14 24 28
44 30 44 2 0 32 -13 67 -29 148 -69 367 -143 498 -170 122 -25 197 -38 269
-46 30 -3 56 -7 58 -8 1 -2 -4 -25 -13 -52 -8 -28 -16 -79 -18 -115 -11 -253
145 -474 394 -556 57 -18 192 -24 262 -11 86 16 213 83 267 141 l23 25 52 -29
c168 -95 350 -100 522 -15 130 64 223 169 272 309 33 92 38 222 13 319 -17 67
-17 67 3 68 12 0 28 2 36 4 32 6 126 26 145 30 122 27 276 87 370 145 37 22
70 40 74 40 4 0 13 -17 20 -38 42 -115 165 -217 287 -238 103 -18 210 4 290
59 l48 33 60 -24 c192 -78 410 8 499 198 25 52 31 79 33 145 2 46 -3 100 -10
125 l-13 45 39 40 c71 72 111 174 109 280 l-1 60 88 58 c89 58 180 139 227
201 24 32 26 33 99 31 85 -3 166 20 234 66 49 33 49 33 82 16 52 -27 121 -40
194 -35 199 13 356 172 362 369 2 43 -3 96 -11 122 l-14 45 41 43 c23 24 55
72 72 108 28 60 31 75 31 161 0 72 -5 107 -19 140 -65 150 -201 246 -353 249
-38 1 -43 5 -66 44 -14 23 -39 57 -57 75 l-31 33 19 52 c38 101 61 227 64 350
2 66 4 77 17 71 44 -17 144 -31 208 -28 363 16 612 381 493 725 l-27 78 21 14
c48 32 127 123 159 185 116 221 78 472 -97 646 -111 110 -247 165 -401 161
l-70 -2 -30 66 c-56 124 -199 244 -336 284 l-42 12 -17 85 c-17 81 -48 162
-86 222 -17 26 -17 27 16 64 58 67 84 137 87 237 1 54 -3 102 -12 126 -13 38
-13 39 22 72 118 115 150 309 73 459 -45 88 -155 174 -250 196 -19 4 -38 9
-42 10 -5 1 -26 2 -48 3 -35 1 -42 5 -59 39 -60 115 -185 190 -324 197 l-69 3
-67 104 c-73 112 -148 204 -252 312 l-66 69 14 46 c22 69 19 175 -7 244 -55
147 -210 257 -362 257 -34 0 -40 4 -58 39 -26 53 -99 125 -152 152 -102 52
-226 59 -330 20 -69 -27 -157 -103 -195 -170 -15 -25 -28 -47 -29 -49 -1 -2
-28 10 -60 26 -97 48 -265 99 -389 117 -22 4 -53 8 -70 11 -19 3 -41 18 -60
41 -90 111 -203 179 -345 208 -8 2 -51 4 -96 4 l-80 1 -19 43 c-59 136 -182
248 -326 298 -83 28 -232 35 -309 14z m1474 -865 l28 -10 -42 -46 c-146 -158
-130 -404 36 -552 l54 -49 -11 -53 c-28 -131 19 -270 124 -370 121 -115 335
-129 475 -30 l45 32 50 -21 c118 -49 240 -43 349 16 64 35 133 110 166 181 23
49 27 70 27 152 0 52 -4 106 -9 120 -7 20 -2 18 30 -15 75 -76 165 -187 221
-271 l56 -85 -41 -42 c-22 -23 -54 -67 -69 -97 -15 -30 -35 -55 -43 -56 -135
-2 -276 -99 -338 -231 -24 -51 -27 -70 -27 -158 0 -92 3 -105 33 -167 23 -47
50 -83 92 -121 l60 -54 -11 -53 c-21 -99 7 -228 67 -308 43 -57 83 -89 154
-125 59 -29 72 -32 160 -32 101 1 151 16 231 71 l36 24 45 -20 c58 -26 108
-34 185 -32 62 2 63 2 88 -36 28 -42 65 -140 65 -171 0 -15 -15 -24 -68 -40
-169 -51 -325 -210 -365 -372 -6 -22 -12 -26 -44 -26 -219 3 -419 -128 -506
-328 -34 -77 -46 -147 -43 -239 6 -186 95 -341 252 -443 l62 -39 -15 -34 c-62
-149 -42 -349 50 -492 120 -187 337 -282 564 -246 52 9 153 49 193 78 l30 21
1 -23 c3 -90 -3 -149 -27 -253 -27 -116 -27 -115 -120 -119 -66 -2 -92 -8
-150 -35 -81 -38 -152 -107 -185 -182 -13 -27 -27 -49 -33 -50 -217 -16 -378
-183 -377 -388 0 -121 44 -216 136 -298 52 -47 54 -51 45 -82 -5 -18 -8 -70
-6 -116 2 -70 7 -93 34 -146 17 -35 43 -76 57 -91 20 -22 24 -32 16 -47 -17
-30 -124 -123 -186 -160 l-56 -34 -37 36 c-62 60 -153 97 -252 103 -47 2 -43
0 -58 33 -20 45 -89 118 -138 147 -165 97 -371 66 -493 -73 -23 -25 -52 -68
-64 -95 -17 -38 -27 -48 -47 -49 -130 -4 -270 -100 -327 -226 -68 -147 -25
-350 94 -452 l37 -31 -30 -31 c-40 -43 -135 -106 -208 -139 -65 -30 -226 -83
-232 -77 -2 2 7 30 20 63 33 80 45 154 41 244 -13 292 -269 525 -566 515 l-65
-3 -33 69 c-104 217 -360 342 -601 293 -187 -38 -358 -192 -410 -370 -11 -38
-15 -41 -49 -41 -205 2 -402 -117 -492 -298 -77 -157 -79 -340 -4 -489 l32
-64 -26 4 c-134 23 -363 101 -533 181 -94 44 -99 48 -109 86 -9 34 -8 42 5 49
67 37 147 147 166 228 51 212 -63 413 -269 474 -30 9 -67 16 -81 16 -23 0 -30
7 -45 45 -22 58 -100 144 -162 177 -197 107 -438 35 -536 -158 -13 -24 -22
-31 -44 -29 -89 5 -196 -39 -274 -112 -56 -52 -45 -55 -142 37 -33 30 -75 76
-94 103 l-35 47 27 35 c70 93 104 241 76 340 -9 35 -9 42 7 53 115 85 175 200
174 336 0 192 -145 353 -342 380 -25 3 -47 11 -48 16 -2 6 -14 30 -27 55 -64
120 -178 192 -320 202 -58 4 -83 1 -148 -21 -42 -14 -79 -26 -81 -26 -6 0 -35
83 -55 160 -27 99 -35 166 -32 261 1 32 6 40 43 62 l42 25 47 -42 c94 -85 238
-135 369 -130 86 3 120 10 190 38 263 107 407 410 318 672 l-24 72 35 18 c101
54 202 169 244 278 27 71 28 80 34 177 16 269 -177 514 -442 562 -38 7 -86 13
-105 12 -34 0 -36 2 -61 66 -62 159 -202 291 -351 330 -47 13 -47 13 -42 48 3
20 20 72 37 116 l32 80 60 1 c77 1 128 11 188 36 l48 21 22 -21 c45 -43 137
-76 218 -78 188 -7 340 102 394 283 14 45 14 166 1 213 -6 21 0 30 38 60 139
110 186 314 108 472 -61 125 -178 208 -311 221 -31 3 -38 10 -65 61 -17 31
-46 72 -64 90 -17 18 -32 38 -32 43 0 32 220 296 270 323 13 7 15 0 12 -50 -7
-109 41 -223 124 -300 68 -63 151 -96 259 -104 34 -3 108 13 162 35 l52 21 33
-25 c146 -112 369 -94 502 39 95 95 138 249 104 371 -9 34 -8 36 51 89 146
133 174 343 67 502 -32 49 -33 50 -12 56 23 6 214 2 220 -5 2 -2 6 -38 9 -79
12 -172 111 -335 257 -426 l56 -35 -24 -71 c-97 -289 85 -612 388 -693 159
-42 350 1 484 110 l54 44 68 -35 c93 -47 157 -62 261 -62 233 0 437 146 514
369 41 117 35 276 -15 393 -16 38 -16 39 6 55 137 95 219 252 225 431 1 52 3
96 3 96 0 3 159 -36 184 -46z m-1222 -16 c167 -56 236 -267 137 -414 -163
-240 -536 -104 -506 185 18 175 198 288 369 229z m-2100 -216 c80 -24 148
-117 148 -203 0 -89 -68 -181 -152 -204 -136 -38 -263 48 -275 186 -14 155
127 267 279 221z m4048 2 c49 -13 109 -66 131 -114 68 -151 -53 -321 -215
-303 -109 12 -181 87 -193 198 -4 40 0 60 22 104 49 101 147 145 255 115z
m-5203 -1288 c188 -97 121 -392 -91 -401 -246 -10 -314 329 -84 416 44 17 126
9 175 -15z m6419 6 c51 -25 80 -53 104 -103 40 -83 18 -190 -53 -252 -46 -41
-97 -56 -163 -51 -154 13 -241 191 -159 323 57 93 176 129 271 83z m-6957
-2018 c104 -45 168 -156 159 -274 -13 -151 -132 -258 -285 -252 -110 3 -192
56 -239 152 -74 151 1 331 158 385 66 22 138 18 207 -11z m7536 1 c139 -61
200 -234 132 -374 -81 -165 -293 -207 -431 -86 -169 149 -102 423 119 480 44
12 131 2 180 -20z m-7447 -2217 c146 -61 178 -261 57 -361 -134 -111 -333 -29
-352 146 -9 88 52 186 137 220 38 15 116 13 158 -5z m7272 6 c47 -13 103 -61
125 -107 51 -106 17 -222 -81 -279 -89 -53 -188 -40 -260 32 -159 159 -3 415
216 354z m-5866 -1260 c72 -24 135 -117 136 -201 1 -182 -230 -283 -359 -157
-96 94 -93 230 5 317 64 56 134 69 218 41z m4470 0 c43 -14 94 -65 117 -115
66 -144 -54 -312 -214 -299 -183 16 -261 238 -128 368 59 58 140 74 225 46z
m-2108 -361 c53 -25 100 -72 130 -130 60 -120 20 -273 -92 -348 -62 -40 -115
-54 -185 -48 -100 9 -182 68 -226 163 -72 157 20 341 192 385 44 11 134 1 181
-22z M5111 8804 c-23 -30 -27 -71 -8 -95 45 -59 132 -36 141 38 10 72 -88 114
-133 57z M1300 5301 c-17 -16 -27 -36 -25 -47 2 -10 4 -24 4 -31 2 -22 44 -53
73 -53 67 0 103 88 54 133 -35 33 -72 32 -106 -2z M8834 5305 c-32 -32 -32
-78 1 -110 68 -69 175 27 112 101 -32 37 -81 41 -113 9z M5154 1475 c-49 -49
-17 -135 50 -135 41 0 87 49 80 86 -11 65 -86 93 -130 49z"/>
</g>
</svg>
