<svg viewBox="0 0 512 512" xmlns="http://www.w3.org/2000/svg"><g><path fill="currentColor" d="m176.527 386.504h-35.224c-28.932 0-52.469 23.538-52.469 52.47v73.026h40.28v-45.704h30v45.704h81.886v-90.78c-25.506-3.618-48.125-16.318-64.473-34.716z"/><path fill="currentColor" d="m370.697 386.504h-35.224c-16.347 18.398-38.967 31.098-64.473 34.716v90.78h81.886v-45.704h30v45.704h40.28v-73.026c0-28.932-23.537-52.47-52.469-52.47z"/><path fill="currentColor" d="m362.253 145.83.064 93.051c22.857-25.38 36.796-58.941 36.796-95.704 0-28.953-8.647-55.921-23.482-78.473l-86.52 43.934z"/><path fill="currentColor" d="m149.619 145.824 206.48-104.847c-25.84-25.331-61.206-40.977-100.163-40.977-78.948 0-143.177 64.229-143.177 143.177 0 36.798 13.965 70.389 36.86 95.777z"/><path fill="currentColor" d="m179.619 164.237v62.914l29.772 16.397c14.461-7.059 30.407-10.757 46.609-10.757s32.148 3.698 46.609 10.757l29.644-16.326v-62.992l-76.258-38.776z"/><path fill="currentColor" d="m332.317 315.967v-54.531l-29.925 16.48-7.386-4.403c-11.766-7.014-25.254-10.722-39.006-10.722s-27.24 3.708-39.006 10.722l-7.386 4.403-29.925-16.48v54.531c0 42.081 34.236 76.316 76.317 76.316s76.317-34.235 76.317-76.316z"/></g></svg>