<svg viewBox="0 0 512 512" xmlns="http://www.w3.org/2000/svg"><g><path fill="currentColor" d="m152.642 200h-11.331a34.813 34.813 0 0 0 -1.33 17.484c2.82-.957 12.832-1.484 12.832-1.484z"/><path fill="currentColor" d="m163.687 98.542a8 8 0 1 1 8.625 13.477l-38.269 24.492 3.785 20.821 33.859-21.67a8 8 0 1 1 8.625 13.477l-39.39 25.209 1.755 9.652h15.612l180.249-113-15.446-13.241-38.78 24.819a8 8 0 0 1 -8.625-13.478l33.721-21.581a101.223 101.223 0 0 0 -118.685 7.957l-52.161 43.469a22.03 22.03 0 0 0 -7.6 20.544zm76.625 12.2-28 17.92a8 8 0 0 1 -8.625-13.476l28-17.92a8 8 0 1 1 8.625 13.476zm-52.625-27.56 65.5-41.92a8 8 0 1 1 8.625 13.476l-65.5 41.92a8 8 0 0 1 -8.625-13.476z"/><path fill="currentColor" d="m136.958 244a12.013 12.013 0 0 0 12 12h2.608l1.236-24h-3.844a12.013 12.013 0 0 0 -12 12z"/><path fill="currentColor" d="m121.3 480h51.279l-22.534-61.969a136.606 136.606 0 0 0 -28.745 61.969z"/><path fill="currentColor" d="m166.115 284.583a79.337 79.337 0 0 0 79.233 83.417h21.86a79.337 79.337 0 0 0 79.232-83.417c0-.062 0-.124-.007-.187l-.969-34.521c-7.523 9.4-15.154 20.791-16.47 29.163l-2.121 13.489a8 8 0 0 1 -11.484 5.911l-17.848-8.938a92.471 92.471 0 0 0 -82.074-.146l-18.325 9.093a8 8 0 0 1 -11.459-5.924l-2.121-13.488a65.235 65.235 0 0 0 -15.469-32.866zm74.843 9.417h12.686a19.187 19.187 0 0 0 13.657-5.657 8 8 0 0 1 11.313 11.314 35.08 35.08 0 0 1 -24.97 10.343h-12.686a8 8 0 1 1 0-16z"/><path fill="currentColor" d="m256 141.627-31.831 19.956a336.292 336.292 0 0 1 63.676.008z"/><path fill="currentColor" d="m190.215 182.869-21.61 13.548.306 28.673a81.35 81.35 0 0 1 30.457 51.463l.428 2.719 8.559-4.247a107.131 107.131 0 0 1 24.321-8.58 16.525 16.525 0 0 1 2.5-12.195l7.124-10.688a8 8 0 0 1 13.313 8.876l-7.124 10.687a.562.562 0 0 0 .468.875 7.986 7.986 0 0 1 .807.041 108.258 108.258 0 0 1 54.936 11.159l8.064 4.036.421-2.679c1.5-9.535 7.783-21.4 18.676-35.258 5.2-6.621 10.184-12.071 13.007-15.052l-.2-29.026-22.9-14.359a321.927 321.927 0 0 0 -130.726-.18zm110.743 41.131c6.627 0 12 8.954 12 20s-5.373 20-12 20-12-8.954-12-20 5.372-20 12-20zm-88 0c6.627 0 12 8.954 12 20s-5.373 20-12 20-12-8.954-12-20 5.372-20 12-20z"/><path fill="currentColor" d="m267.208 384h-21.86a95.334 95.334 0 0 1 -33.606-6.073l34.024 102.073h20.468l33.946-101.838a95.373 95.373 0 0 1 -32.972 5.838zm-10.208 89a9 9 0 1 1 9-9 9 9 0 0 1 -9 9zm0-32a9 9 0 1 1 9-9 9 9 0 0 1 -9 9zm0-31a9 9 0 1 1 9-9 9 9 0 0 1 -9 9z"/><path fill="currentColor" d="m350.093 405.318a136.773 136.773 0 0 0 -34.241-23.577l-32.752 98.259h39.3l26.27-72.242a7.978 7.978 0 0 1 1.423-2.44z"/><path fill="currentColor" d="m361.959 418.023-22.537 61.977h51.278a136.568 136.568 0 0 0 -28.741-61.977z"/><path fill="currentColor" d="m162.311 404.946 27.289 75.054h39.3l-32.753-98.26a136.774 136.774 0 0 0 -33.836 23.206z"/><path fill="currentColor" d="m364.312 108.781a8 8 0 1 1 -8.625 13.477l-34.041-21.786-18.346 11.5 14.512 9.288a8 8 0 1 1 -8.625 13.476l-20.881-13.364-17.244 10.811 82.649 51.817h15.612l1.755-9.652-24.391-15.61a8 8 0 0 1 8.625-13.476l18.86 12.07 6.828-37.55a22.033 22.033 0 0 0 -7.475-20.764l-22.035-17.256-14.85 9.31z"/><path fill="currentColor" d="m370.689 200h-10l.11 16s9.024.325 11.308.929a34.8 34.8 0 0 0 -1.418-16.929z"/><path fill="currentColor" d="m364.958 256a12 12 0 1 0 0-24h-3.989l.673 24z"/></g></svg>