<svg viewBox="0 0 512 512" xmlns="http://www.w3.org/2000/svg"><g><path fill="currentColor" d="m169.181 105.627c.807-16.468 4.869-33.88 12.117-51.968-13.822-8.506-27.882-15.214-39.915-20.24-9.204-3.844-19.541 2.126-20.815 12.018-1.668 12.956-2.895 28.503-2.446 44.701 19.294 2.773 36.402 7.962 51.059 15.489z"/><path fill="currentColor" d="m82.37 256c-13.868-8.936-26.919-21.157-38.953-36.471-14.241 7.705-27.084 16.534-37.467 24.452-7.932 6.049-7.932 17.988 0 24.037 10.382 7.918 23.225 16.747 37.467 24.452 12.033-15.312 25.084-27.533 38.953-36.47z"/><path fill="currentColor" d="m181.297 458.338c-7.247-18.086-11.309-35.498-12.116-51.965-14.656 7.528-31.767 12.717-51.062 15.489-.456 16.226.764 31.755 2.428 44.689 1.273 9.892 11.611 15.86 20.815 12.018 12.055-5.033 26.131-11.743 39.935-20.231z"/><path fill="currentColor" d="m342.819 406.373c-.807 16.467-4.869 33.879-12.116 51.965 13.797 8.484 27.866 15.191 39.916 20.223 9.204 3.843 19.543-2.126 20.816-12.019 1.667-12.953 2.892-28.492 2.444-44.681-19.295-2.772-36.403-7.961-51.06-15.488z"/><path fill="currentColor" d="m429.631 256c13.868 8.936 26.918 21.158 38.952 36.472 14.241-7.705 27.084-16.534 37.467-24.452 7.932-6.049 7.932-17.988 0-24.037-10.383-7.919-23.225-16.747-37.467-24.452-12.032 15.311-25.083 27.532-38.952 36.469z"/><path fill="currentColor" d="m330.703 53.662c7.247 18.085 11.309 35.498 12.116 51.965 14.656-7.528 31.767-12.717 51.062-15.489.456-16.226-.764-31.755-2.428-44.69-1.273-9.892-11.611-15.861-20.815-12.018-12.054 5.034-26.131 11.744-39.935 20.232z"/><circle cx="256" cy="256" r="56.719"/><path fill="currentColor" d="m213.949 54.437c-9.733 20.656-14.668 39.922-14.668 57.266 0 25.4 16.832 48.062 40.931 55.109 4.984 1.458 10.225 2.197 15.471 2.226h.634c5.246-.029 10.487-.768 15.467-2.225 24.103-7.049 40.935-29.71 40.935-55.11 0-17.344-4.935-36.61-14.667-57.265-8.778-18.634-20.12-35.491-30.036-48.492-6.047-7.929-17.985-7.929-24.033 0-9.914 13-21.256 29.857-30.034 48.491z"/><path fill="currentColor" d="m298.052 457.563c9.733-20.656 14.668-39.922 14.668-57.266 0-25.4-16.832-48.062-40.931-55.109-4.91-1.437-10.033-2.182-15.236-2.232-.185.001-.367.014-.552.014s-.367-.013-.552-.014c-5.203.05-10.326.795-15.233 2.231-19.584 5.727-34.367 21.761-39.223 41.196-1.12 4.485-1.712 9.151-1.712 13.914 0 17.344 4.935 36.61 14.667 57.265 8.778 18.634 20.12 35.491 30.036 48.492 6.047 7.929 17.985 7.929 24.033 0 9.914-13 21.256-29.857 30.035-48.491z"/><path fill="currentColor" d="m60.48 191.443c13.003 18.77 27.208 32.691 42.219 41.378 21.984 12.722 50.029 9.504 68.199-7.825 3.758-3.583 7.023-7.75 9.676-12.276.053-.092.264-.457.317-.548 2.603-4.555 4.588-9.461 5.821-14.502 5.972-24.392-5.212-50.311-27.197-63.033-15.011-8.687-34.159-14.065-56.911-15.987-20.525-1.735-40.796-.361-57.015 1.709-9.891 1.263-15.871 11.596-12.037 20.801 6.287 15.092 15.196 33.352 26.928 50.283z"/><path fill="currentColor" d="m451.52 320.557c-13.003-18.77-27.208-32.691-42.219-41.378-21.984-12.722-50.029-9.504-68.199 7.825-3.703 3.53-6.914 7.591-9.563 12.069-.092.16-.172.324-.264.484-.093.16-.195.311-.288.47-2.563 4.529-4.484 9.335-5.698 14.302-4.852 19.819 1.622 40.645 16.012 54.582 3.321 3.216 7.063 6.065 11.185 8.451 15.011 8.687 34.159 14.065 56.911 15.987 20.525 1.735 40.796.361 57.015-1.709 9.891-1.263 15.871-11.596 12.037-20.801-6.288-15.091-15.197-33.351-26.929-50.282z"/><path fill="currentColor" d="m451.52 191.443c-13.003 18.77-27.208 32.691-42.219 41.378-21.984 12.722-50.029 9.504-68.199-7.825-3.758-3.583-7.023-7.75-9.676-12.276-.053-.092-.264-.457-.317-.548-2.603-4.555-4.588-9.461-5.821-14.502-5.972-24.392 5.212-50.311 27.197-63.033 15.011-8.687 34.159-14.065 56.911-15.987 20.525-1.735 40.796-.361 57.015 1.709 9.891 1.263 15.871 11.596 12.037 20.801-6.287 15.092-15.196 33.352-26.928 50.283z"/><path fill="currentColor" d="m60.48 320.557c13.003-18.77 27.208-32.691 42.219-41.378 21.984-12.722 50.029-9.504 68.199 7.825 3.703 3.53 6.914 7.591 9.563 12.069.092.16.172.324.264.484.093.16.195.311.288.47 2.563 4.529 4.484 9.335 5.698 14.302 4.852 19.819-1.622 40.645-16.012 54.582-3.321 3.216-7.063 6.065-11.185 8.451-15.011 8.687-34.159 14.065-56.911 15.987-20.525 1.735-40.796.361-57.015-1.709-9.891-1.263-15.871-11.596-12.037-20.801 6.288-15.091 15.197-33.351 26.929-50.282z"/></g></svg>