<svg viewBox="0 0 512 512" xmlns="http://www.w3.org/2000/svg"><g><g><g><path fill="currentColor" d="m255.991 81.491c-95.916 0-173.949 78.034-173.949 173.95 0 95.917 78.033 173.95 173.949 173.95s173.949-78.034 173.949-173.951c0-95.916-78.033-173.949-173.949-173.949zm111.612 197.401c-3.816 3.005-9.045 7.12-9.854 9.612-.902 2.78.877 9.152 2.307 14.272 2.608 9.345 5.565 19.936-.335 28.043-5.951 8.176-17.002 8.625-26.752 9.021-5.265.214-11.816.479-14.103 2.144-2.22 1.615-4.464 7.703-6.267 12.595-3.399 9.221-7.253 19.673-16.98 22.832-1.758.57-3.505.824-5.234.824-7.524 0-14.736-4.796-21.242-9.122-4.496-2.989-10.091-6.709-13.15-6.709s-8.654 3.72-13.149 6.709c-8.004 5.32-17.072 11.348-26.479 8.298-9.729-3.159-13.581-13.611-16.98-22.834-1.803-4.892-4.047-10.979-6.266-12.593-2.286-1.665-8.838-1.931-14.103-2.145-9.75-.396-20.802-.845-26.753-9.021-5.9-8.107-2.943-18.698-.334-28.043 1.43-5.12 3.209-11.492 2.306-14.271-.81-2.493-6.037-6.608-9.854-9.613-7.783-6.126-16.604-13.07-16.604-23.451s8.821-17.326 16.604-23.452c3.817-3.004 9.046-7.12 9.854-9.612.903-2.78-.876-9.152-2.306-14.272-2.608-9.344-5.565-19.936.335-28.043 5.951-8.176 17.002-8.625 26.753-9.021 5.264-.214 11.815-.48 14.102-2.144 2.22-1.615 4.464-7.703 6.267-12.594 3.399-9.221 7.253-19.673 16.98-22.832 9.407-3.054 18.476 2.976 26.477 8.297 4.496 2.989 10.091 6.709 13.15 6.709s8.654-3.72 13.149-6.709c8.003-5.321 17.07-11.352 26.479-8.297 9.729 3.159 13.581 13.611 16.98 22.833 1.803 4.891 4.047 10.979 6.266 12.593 2.287 1.665 8.839 1.931 14.103 2.145 9.751.396 20.802.845 26.752 9.021 5.901 8.108 2.944 18.699.335 28.043-1.43 5.12-3.209 11.493-2.306 14.272.809 2.493 6.037 6.608 9.854 9.613 7.783 6.126 16.604 13.07 16.604 23.451s-8.823 17.325-16.606 23.451z"/></g><g><path fill="currentColor" d="m432.307 184.794c1.925-1.577 3.784-3.25 5.556-5.022 2.293-2.293 4.271-5.038 5.877-8.16 14.911-28.896-3.115-82.201-7.981-95.388-13.191-4.866-66.5-22.889-95.379-7.985-3.131 1.612-5.877 3.589-8.168 5.88-.271.271-.561.522-.868.752l-5.342 3.993c48.303 19.219 86.916 57.712 106.305 105.93z"/></g><g><path fill="currentColor" d="m357.707 244.562c-6.325-4.979-12.865-10.127-15.177-17.244-2.394-7.372-.102-15.579 2.114-23.516 1.217-4.361 3.483-12.478 2.139-14.325-1.396-1.918-9.576-2.25-14.465-2.449-8.19-.333-16.661-.677-22.868-5.195-6.14-4.468-9.049-12.362-11.863-19.996-1.708-4.633-4.566-12.388-6.909-13.149-2.058-.66-8.963 3.934-12.678 6.403-6.94 4.614-14.116 9.385-22.009 9.385s-15.069-4.771-22.009-9.385c-3.716-2.471-10.633-7.067-12.677-6.403-2.343.761-5.201 8.515-6.909 13.148-2.814 7.635-5.725 15.529-11.864 19.997-6.207 4.517-14.677 4.861-22.867 5.194-4.888.199-13.069.531-14.466 2.449-1.344 1.848.922 9.965 2.14 14.326 2.216 7.937 4.507 16.144 2.113 23.516-2.312 7.117-8.852 12.265-15.177 17.244-3.928 3.091-10.501 8.266-10.501 10.879s6.573 7.787 10.5 10.878c6.326 4.979 12.866 10.127 15.178 17.244 2.394 7.372.102 15.579-2.114 23.516-1.217 4.361-3.483 12.479-2.139 14.326 1.396 1.918 9.576 2.25 14.465 2.448 8.19.333 16.661.677 22.868 5.194 6.14 4.468 9.049 12.362 11.863 19.997 1.708 4.633 4.566 12.389 6.909 13.148 2.053.681 8.963-3.934 12.678-6.402 6.939-4.614 14.116-9.386 22.009-9.386s15.069 4.771 22.009 9.386c3.716 2.47 10.636 7.064 12.677 6.403 2.343-.761 5.201-8.516 6.909-13.148 2.814-7.635 5.725-15.529 11.864-19.997 6.207-4.518 14.677-4.861 22.868-5.194 4.888-.198 13.068-.53 14.465-2.449 1.344-1.847-.922-9.965-2.14-14.325-2.216-7.937-4.507-16.144-2.113-23.517 2.312-7.116 8.852-12.265 15.177-17.243 3.928-3.092 10.501-8.266 10.501-10.879 0-2.614-6.573-7.788-10.501-10.879zm-101.716 51.96c-22.652 0-41.082-18.429-41.082-41.082s18.43-41.082 41.082-41.082 41.082 18.429 41.082 41.082-18.429 41.082-41.082 41.082z"/></g><g><path fill="currentColor" d="m255.991 65.491c17.89 0 35.208 2.489 51.631 7.134l13.705-10.242c1.681-1.637 3.504-3.157 5.456-4.551-13.698-28.244-58.548-50.438-70.792-56.077-12.226 5.631-57.004 27.788-70.75 55.995l23.173 13.776c15.21-3.938 31.153-6.035 47.577-6.035z"/></g><g><path fill="currentColor" d="m255.991 230.358c-13.83 0-25.082 11.252-25.082 25.082s11.252 25.082 25.082 25.082 25.082-11.252 25.082-25.082-11.252-25.082-25.082-25.082z"/></g><g><path fill="currentColor" d="m310.886 437.291c-17.387 5.259-35.815 8.099-54.895 8.099s-37.508-2.84-54.895-8.099c-2.978 4.216-6.325 8.201-10.012 11.887-1.791 1.791-3.751 3.443-5.859 4.951 12.552 25.551 52.135 47.726 70.73 56.117 12.186-5.61 57.119-27.821 70.83-56.097-2.118-1.513-4.088-3.171-5.887-4.97-3.687-3.687-7.034-7.672-10.012-11.888z"/></g><g><path fill="currentColor" d="m443.734 340.362c-.001-.001-.001-.002-.002-.003-1.609-3.122-3.581-5.86-5.869-8.146-1.877-1.877-3.849-3.642-5.894-5.3-19.4 47.593-57.562 85.61-105.255 104.813 1.714 2.134 3.545 4.188 5.496 6.138 2.293 2.293 5.038 4.27 8.161 5.877 26.04 13.437 74.885-.197 95.373-7.943 4.96-13.421 22.904-66.533 7.999-95.417-.002-.007-.006-.013-.009-.019z"/></g><g><path fill="currentColor" d="m74.119 179.771c1.772 1.772 3.63 3.445 5.556 5.022 19.669-48.914 59.125-87.812 108.406-106.742l-16.682-9.917c-26.082-13.261-74.728.326-95.162 8.052-4.96 13.421-22.904 66.533-7.999 95.417 1.611 3.13 3.588 5.876 5.881 8.168z"/></g><g><path fill="currentColor" d="m80.013 326.913c-2.045 1.657-4.016 3.423-5.894 5.3-2.289 2.288-4.261 5.027-5.867 8.143-.003.005-.006.01-.008.015 0 0-.001.001-.001.002-13.437 26.037.197 74.885 7.943 95.373 13.421 4.959 66.533 22.905 95.417 7.999 3.131-1.611 5.876-3.588 8.168-5.881 1.952-1.951 3.783-4.004 5.497-6.138-47.694-19.203-85.855-57.221-105.255-104.813z"/></g><g><path fill="currentColor" d="m74.372 311.111c-5.41-17.614-8.33-36.307-8.33-55.67 0-19.033 2.826-37.417 8.06-54.766-3.997-2.871-7.784-6.076-11.297-9.589-1.799-1.799-3.457-3.769-4.97-5.887-28.246 13.696-50.441 58.549-56.081 70.794 5.637 12.239 27.832 57.096 56.081 70.794 1.513-2.118 3.171-4.088 4.97-5.887 3.595-3.597 7.473-6.869 11.567-9.789z"/></g><g><path fill="currentColor" d="m454.148 185.198c-1.513 2.118-3.171 4.088-4.97 5.887-3.513 3.513-7.3 6.719-11.297 9.589 5.234 17.35 8.06 35.733 8.06 54.766 0 19.364-2.92 38.057-8.33 55.67 4.094 2.92 7.971 6.192 11.567 9.787 1.791 1.791 3.443 3.752 4.951 5.86 25.55-12.552 47.725-52.135 56.118-70.729-5.612-12.187-27.823-57.119-56.099-70.83z"/></g></g></g><g/></svg>