<svg xmlns="http://www.w3.org/2000/svg" viewBox="0 0 1024 1024">
<g transform="translate(0,1024) scale(0.1,-0.1)">
<path fill="currentColor" d="M4955 10233 c-26 -3 -132 -22 -215 -39 -131 -26 -373 -134 -520 -232
-68 -46 -195 -144 -220 -171 -3 -3 -19 -19 -37 -35 l-31 -28 -69 15 c-198 45
-468 64 -628 44 -122 -16 -145 -20 -230 -39 -515 -118 -946 -466 -1194 -964
-59 -119 -120 -271 -143 -357 -12 -45 -13 -46 -97 -84 -184 -81 -367 -233
-479 -396 -94 -136 -183 -348 -207 -492 -3 -22 -10 -62 -15 -90 -10 -52 -6
-382 4 -425 3 -14 13 -60 22 -103 20 -102 65 -232 115 -338 l41 -86 -56 -111
c-132 -263 -191 -512 -191 -807 0 -201 10 -281 55 -462 86 -340 260 -623 538
-874 52 -47 62 -61 62 -89 0 -55 48 -272 81 -366 220 -628 794 -983 1474 -911
39 4 87 11 107 16 36 8 37 8 86 -53 116 -141 288 -278 439 -347 71 -32 183
-70 192 -65 12 8 15 98 16 416 0 254 -8 478 -20 538 -1 9 -6 51 -10 92 -4 41
-9 82 -10 91 -2 9 -6 40 -10 70 -3 30 -8 65 -10 79 -3 14 -7 40 -10 58 -3 17
-7 46 -10 62 -3 17 -7 44 -10 60 -8 49 -14 83 -20 110 -3 14 -8 41 -11 60 -33
205 -175 749 -301 1150 -70 224 -82 270 -91 347 -17 148 4 278 68 408 74 153
200 277 365 360 120 60 220 83 363 83 135 1 218 -19 342 -80 68 -34 103 -60
175 -133 80 -80 111 -123 274 -382 101 -161 187 -293 191 -293 4 0 90 132 191
293 163 259 194 302 274 382 109 110 216 170 357 202 43 10 272 10 320 1 56
-12 195 -64 247 -94 240 -140 384 -370 394 -629 3 -63 0 -95 -18 -200 -2 -16
-32 -109 -65 -205 -80 -229 -151 -462 -207 -685 -63 -250 -123 -545 -111 -545
6 0 42 21 82 47 85 57 185 155 246 241 27 39 58 71 82 83 77 39 180 13 228
-58 36 -52 35 -141 -2 -198 -144 -226 -391 -419 -655 -511 -32 -11 -53 -25
-54 -34 0 -8 -2 -24 -4 -35 -2 -11 -7 -54 -11 -95 -3 -41 -8 -82 -9 -91 -11
-60 -20 -297 -20 -544 1 -313 4 -413 15 -420 8 -5 116 31 181 59 150 64 338
212 451 353 27 34 54 60 61 58 71 -25 335 -38 472 -23 598 66 1052 486 1185
1097 18 79 33 175 33 208 0 7 28 37 61 65 286 248 479 580 555 955 28 137 36
218 36 373 0 296 -53 524 -186 800 l-61 127 37 72 c62 124 123 326 143 476 10
69 9 359 -1 420 -70 443 -325 792 -699 959 -82 37 -85 38 -96 83 -42 156 -163
416 -263 565 -239 358 -564 605 -953 722 -64 20 -131 38 -149 41 -17 3 -57 10
-87 16 -70 12 -214 23 -310 23 -82 0 -252 -12 -272 -19 -7 -2 -29 -6 -48 -9
-57 -9 -93 -16 -130 -26 -51 -14 -51 -14 -105 36 -176 164 -384 292 -593 368
-77 27 -206 62 -263 71 -19 2 -61 9 -94 14 -56 8 -286 11 -350 4z m-680 -1328
c77 -13 215 -65 285 -107 306 -187 457 -602 380 -1048 -83 -475 -388 -842
-815 -980 -119 -39 -272 -49 -363 -24 -193 51 -337 203 -359 379 -10 83 -8
115 15 260 19 115 6 188 -57 349 -64 160 -75 210 -75 341 -1 126 7 184 35 269
99 294 367 523 657 562 26 3 48 7 50 9 6 5 205 -3 247 -10z m3705 -1720 c146
-22 293 -96 395 -199 108 -108 180 -244 222 -412 18 -74 24 -335 11 -429 -37
-249 -159 -497 -333 -671 -213 -213 -530 -331 -753 -279 -166 39 -289 153
-336 313 -16 54 -16 178 0 257 5 22 8 76 8 120 -1 71 -7 94 -52 210 -61 159
-74 218 -73 343 1 425 359 769 786 756 44 -1 100 -5 125 -9z m-5367 -1339
c168 -39 297 -130 392 -276 118 -184 155 -402 111 -670 -28 -175 -130 -385
-253 -519 -189 -207 -488 -328 -697 -281 -150 33 -267 142 -310 287 -14 51
-16 165 -2 223 9 36 10 129 2 168 -4 19 -22 71 -40 117 -50 122 -61 178 -60
300 1 90 6 124 27 190 80 244 280 422 527 469 80 16 217 12 303 -8z M4088
8565 c-2 -2 -28 -6 -58 -9 -30 -4 -86 -22 -125 -41 -165 -79 -276 -257 -270
-435 3 -77 11 -108 66 -249 27 -69 55 -154 63 -190 18 -87 18 -239 -1 -337
-18 -95 -13 -148 18 -180 95 -101 385 -3 570 192 99 105 167 226 213 374 125
409 -21 791 -329 858 -47 11 -142 21 -147 17z M7775 6838 c-153 -20 -290 -138
-336 -290 -32 -104 -23 -183 36 -334 25 -65 52 -145 60 -177 17 -73 17 -241 0
-331 -7 -38 -11 -81 -9 -95 5 -28 46 -70 70 -72 8 -1 24 -2 37 -3 12 -1 47 4
77 10 246 55 452 273 531 561 28 103 34 283 13 373 -58 251 -242 388 -479 358z
M2389 5509 c-136 -20 -243 -119 -274 -253 -15 -65 -10 -122 16 -194 79 -214
82 -226 85 -322 1 -52 -3 -127 -10 -166 -23 -130 14 -158 152 -113 195 63 343
234 402 463 63 248 -8 475 -174 556 -53 25 -139 38 -197 29z M4021 5964 c-127
-34 -239 -126 -293 -241 -26 -54 -32 -82 -34 -147 -3 -73 1 -93 37 -196 107
-306 199 -622 273 -945 42 -184 106 -518 120 -625 3 -25 8 -54 10 -66 2 -12 7
-45 11 -75 3 -30 8 -65 10 -79 5 -35 13 -104 20 -175 4 -33 8 -71 10 -85 2
-14 7 -74 11 -135 4 -60 8 -128 10 -150 4 -51 4 -555 0 -615 -7 -99 -18 -226
-21 -250 -2 -14 -6 -47 -10 -75 -11 -90 -25 -178 -45 -280 -11 -55 -22 -110
-25 -122 -9 -52 -57 -217 -93 -324 -92 -274 -222 -522 -387 -739 -88 -116
-112 -162 -123 -232 -26 -175 81 -343 249 -392 50 -15 191 -16 1390 -14 l1334
3 57 27 c75 35 138 95 174 165 26 53 29 67 29 158 0 118 -7 134 -119 283 -169
224 -302 480 -397 765 -28 86 -92 322 -104 384 -25 139 -40 229 -50 313 -4 30
-8 66 -10 80 -2 14 -7 63 -10 110 -4 47 -8 108 -11 135 -5 64 -5 554 0 620 2
28 7 99 11 159 3 60 8 116 10 126 2 9 6 53 10 96 4 43 9 86 10 95 2 9 6 40 10
70 3 30 8 65 10 79 2 14 7 45 10 70 3 25 15 99 26 165 12 66 23 134 26 150 54
334 213 933 352 1325 37 105 40 121 37 198 -3 68 -9 94 -34 145 -41 83 -84
132 -157 179 -180 117 -407 93 -543 -58 -26 -28 -90 -121 -143 -205 -53 -85
-198 -315 -322 -512 l-225 -357 -20 27 c-10 16 -158 249 -328 518 -170 270
-326 509 -348 533 -44 47 -105 87 -169 109 -59 21 -172 24 -236 7z"/>
</g>
</svg>
