<svg xmlns="http://www.w3.org/2000/svg" viewBox="0 0 1024 1024">
<g transform="translate(0,1024) scale(0.1,-0.1)">
<path fill="currentColor" d="M4009 10236 c-2 -2 -22 -6 -44 -10 -241 -35 -383 -152 -441 -363 -8
-32 -18 -118 -21 -192 l-6 -133 44 6 c24 3 54 8 66 10 12 3 53 8 90 11 37 4
77 9 87 11 127 24 621 23 747 -1 93 -18 141 -30 187 -47 29 -11 56 -18 58 -15
8 7 7 215 0 267 -19 130 -65 231 -140 306 -105 104 -231 145 -467 150 -86 2
-158 2 -160 0z M5459 9496 c-2 -2 -42 -6 -89 -10 -47 -4 -96 -8 -110 -10 -14
-3 -45 -7 -70 -10 -25 -3 -55 -8 -66 -10 -12 -2 -39 -7 -60 -11 -125 -19 -257
-49 -383 -85 -57 -16 -105 -31 -107 -32 -1 -2 14 -21 34 -43 20 -22 73 -80
117 -130 287 -320 703 -725 1055 -1026 687 -588 1337 -996 1940 -1219 206 -76
217 -81 243 -108 93 -100 79 -249 -31 -326 -33 -24 -56 -31 -105 -34 -54 -3
-78 2 -192 43 -665 240 -1308 630 -2031 1232 -95 78 -178 148 -186 155 -7 7
-54 49 -103 93 -152 134 -220 200 -485 465 -276 275 -373 378 -529 559 -12 13
-23 22 -26 19 -6 -6 -19 -214 -19 -318 0 -190 13 -340 45 -540 163 -998 814
-1832 1819 -2327 341 -168 768 -322 1103 -399 9 -2 25 -6 35 -8 9 -2 44 -11
77 -19 76 -20 286 -64 345 -72 24 -4 47 -8 50 -10 3 -1 25 -6 50 -9 25 -3 54
-8 65 -10 11 -2 40 -7 65 -10 25 -3 54 -8 65 -10 11 -2 43 -7 70 -10 28 -4 61
-9 75 -11 14 -2 52 -6 85 -10 33 -3 71 -8 85 -10 26 -4 106 -12 200 -21 30 -2
73 -7 95 -9 97 -10 280 -19 392 -20 119 0 122 0 165 30 52 37 88 99 92 160 2
25 -5 82 -16 128 -11 45 -22 93 -24 107 -12 62 -80 320 -129 489 -258 896
-608 1624 -1049 2186 -71 90 -99 123 -191 224 -361 397 -782 680 -1255 843
-87 30 -330 93 -398 103 -21 3 -49 7 -62 10 -14 3 -52 8 -85 11 -33 3 -71 8
-85 11 -28 5 -476 14 -481 9z M3838 9156 c-1 -2 -30 -6 -63 -10 -33 -3 -70 -8
-81 -10 -12 -3 -39 -7 -60 -11 -67 -10 -98 -16 -144 -26 -25 -6 -54 -12 -64
-15 -127 -26 -377 -108 -536 -176 -372 -159 -690 -374 -956 -644 -344 -349
-640 -848 -788 -1324 -37 -121 -80 -294 -91 -370 -4 -24 -8 -47 -10 -50 -2 -3
-6 -34 -10 -70 -4 -36 -9 -74 -11 -85 -18 -92 -24 -451 -11 -633 10 -127 13
-151 43 -327 29 -173 25 -155 69 -322 75 -290 175 -551 342 -893 307 -630 426
-967 487 -1390 28 -186 28 -596 2 -736 -2 -10 -7 -39 -10 -64 -6 -43 -9 -59
-22 -125 -11 -57 -65 -270 -83 -330 -49 -157 -75 -338 -75 -505 0 -155 10
-223 50 -353 72 -230 228 -415 454 -539 67 -36 168 -74 256 -97 150 -38 228
-46 424 -46 230 0 269 4 521 60 821 183 1525 520 2114 1013 779 653 1312 1549
1550 2609 34 150 73 368 90 501 13 103 15 120 20 177 3 33 8 80 10 105 7 74
15 227 20 367 l4 132 -37 10 c-559 142 -890 257 -1277 446 -799 388 -1380 935
-1752 1646 -119 227 -259 612 -298 822 -3 12 -9 45 -15 72 -18 90 -24 121 -36
210 -3 28 -8 58 -10 68 -31 165 -24 796 11 894 3 10 -18 26 -27 19z m2242
-5418 c42 -19 92 -71 109 -114 29 -73 22 -111 -61 -333 -265 -712 -718 -1306
-1323 -1738 -224 -160 -546 -334 -810 -439 -166 -65 -232 -66 -311 -1 -97 80
-98 245 -2 321 18 15 97 53 173 85 443 181 831 439 1144 760 338 346 595 771
765 1261 20 57 48 119 63 138 53 70 168 98 253 60z"/>
</g>
</svg>
