<svg xmlns="http://www.w3.org/2000/svg" viewBox="0 0 1024 1024">
<g transform="translate(0,1024) scale(0.1,-0.1)">
<path fill="currentColor" d="M10067 10234 c-1 -1 -27 -5 -58 -8 -31 -4 -65 -8 -75 -10 -11 -2 -41
-7 -69 -10 -69 -9 -170 -26 -245 -41 -14 -3 -45 -8 -70 -11 -25 -3 -48 -8 -51
-10 -3 -1 -28 -6 -55 -10 -27 -3 -52 -8 -55 -10 -4 -2 -24 -6 -45 -10 -22 -3
-91 -17 -154 -31 -63 -13 -126 -27 -140 -29 -14 -3 -108 -25 -210 -50 -102
-24 -195 -47 -208 -49 -12 -3 -82 -21 -155 -41 -869 -230 -1742 -550 -2486
-910 -107 -52 -197 -94 -202 -94 -4 0 -26 34 -48 75 -298 542 -856 943 -1461
1049 -47 8 -101 18 -120 22 -45 10 -2040 17 -2040 8 0 -18 173 -339 223 -414
357 -537 940 -883 1577 -937 47 -4 396 -7 777 -8 380 0 689 -3 687 -6 -2 -3
-54 -34 -116 -69 -190 -106 -503 -297 -698 -425 -220 -146 -400 -273 -400
-283 0 -4 25 -20 56 -36 30 -16 99 -58 152 -94 62 -41 101 -61 108 -56 7 5
110 75 230 155 564 376 1173 706 1849 1001 153 67 449 188 459 188 9 0 -66
-269 -124 -441 -225 -673 -618 -1456 -1076 -2144 -73 -110 -157 -234 -187
-275 -30 -41 -54 -77 -52 -79 2 -1 21 -5 42 -7 67 -8 192 -34 253 -53 l60 -19
29 37 c44 56 238 350 338 511 528 855 945 1826 1068 2488 13 68 25 125 27 127
11 9 677 223 853 274 198 56 570 155 625 165 14 2 72 16 130 30 58 13 116 27
130 30 14 2 45 9 70 15 25 5 59 12 75 15 17 3 41 8 55 11 159 32 231 45 260
50 19 3 42 8 50 10 8 2 37 6 64 10 27 3 52 8 55 9 3 2 29 7 56 10 56 8 98 14
135 21 14 3 48 7 75 11 113 13 126 17 120 37 -3 11 -6 35 -21 197 -4 36 -8 72
-10 80 -1 8 -3 21 -3 27 -1 10 -44 15 -54 7z M7365 7933 c-27 -71 -174 -400
-242 -542 -48 -99 -60 -131 -57 -165 1 -22 5 -92 9 -154 3 -62 8 -118 10 -125
2 -7 6 -37 10 -67 8 -76 41 -238 71 -345 128 -461 359 -859 694 -1196 280
-283 546 -460 945 -628 261 -111 466 -224 665 -369 141 -103 223 -173 363
-311 l118 -116 -5 120 c-3 66 -8 197 -11 290 -3 94 -8 215 -10 270 -2 55 -7
186 -10 290 -8 255 -19 438 -31 499 -2 10 -6 44 -10 75 -3 31 -8 58 -9 61 -2
3 -6 26 -10 50 -11 76 -64 279 -105 401 -149 448 -386 828 -729 1170 -323 322
-668 543 -1093 699 -81 30 -268 87 -318 96 -14 3 -41 9 -60 14 -19 5 -51 12
-70 15 -19 3 -49 8 -66 11 -29 5 -32 3 -49 -43z M2953 7835 c-307 -56 -585
-249 -849 -589 -180 -232 -324 -471 -619 -1031 -136 -258 -163 -308 -251 -467
-258 -466 -468 -737 -709 -918 -119 -90 -299 -177 -405 -197 -13 -2 -27 -6
-29 -9 -9 -8 30 -149 62 -230 149 -369 470 -587 927 -631 123 -12 534 -5 690
12 19 2 67 6 106 10 39 3 80 7 90 9 11 2 48 7 84 11 36 4 72 8 80 10 14 2 69
11 135 21 17 3 37 7 45 9 8 2 33 6 55 10 22 3 101 20 175 36 735 168 1302 456
1702 865 355 362 556 819 595 1349 26 359 -15 602 -145 852 -76 149 -212 316
-357 441 -135 117 -373 253 -569 327 -99 37 -286 89 -360 101 -21 3 -48 8 -60
11 -50 12 -324 11 -393 -2z m1548 -1527 c3 -5 4 -32 3 -61 -5 -92 -14 -211
-18 -237 -3 -14 -7 -43 -11 -65 -36 -242 -142 -508 -288 -725 -87 -128 -288
-334 -428 -438 -246 -182 -540 -331 -883 -444 -105 -34 -348 -102 -409 -114
-12 -2 -57 -11 -100 -20 -42 -8 -90 -17 -105 -20 -15 -3 -52 -9 -82 -15 -63
-11 -154 -22 -189 -23 -26 -1 -25 -2 -37 99 -3 33 -8 68 -10 79 -2 10 -6 50
-10 87 -6 65 -5 69 15 70 11 1 24 2 29 3 4 1 34 6 67 10 32 4 67 9 76 11 9 2
32 6 50 9 19 3 66 12 104 20 39 8 82 17 95 19 14 3 72 17 130 32 749 188 1274
537 1506 998 32 63 100 249 110 301 2 11 8 44 14 71 18 93 20 110 26 225 3 63
7 120 9 125 3 12 327 15 336 3z m-2906 -1879 c2 -8 6 -78 10 -154 4 -77 9
-143 11 -146 11 -19 -37 -26 -188 -28 l-168 -3 0 171 0 170 128 3 c200 5 205
4 207 -13z M5269 5796 c-2 -2 -31 -7 -64 -11 -33 -3 -61 -7 -62 -9 -1 -1 -20
-71 -42 -156 -132 -518 -401 -940 -825 -1296 -167 -140 -325 -245 -590 -389
-28 -15 -28 -16 -22 -85 36 -382 194 -765 441 -1075 374 -468 1009 -840 1810
-1059 72 -19 141 -38 155 -40 39 -8 70 -15 88 -20 9 -3 31 -8 47 -11 46 -8 75
-14 93 -19 9 -3 37 -8 62 -11 24 -4 47 -8 50 -10 3 -1 28 -6 55 -9 28 -4 57
-9 65 -11 8 -2 38 -6 65 -10 28 -3 64 -8 80 -10 17 -2 46 -6 65 -9 211 -28
483 -29 618 -2 143 30 319 104 426 180 139 99 261 249 341 419 52 110 63 147
44 147 -28 0 -169 68 -240 116 -155 102 -331 300 -455 509 -136 232 -239 465
-435 982 -220 584 -285 741 -395 963 -202 408 -435 680 -699 817 -77 40 -188
79 -250 90 -16 3 -50 9 -75 13 -43 8 -344 13 -351 6z m469 -389 c93 -37 194
-111 282 -204 215 -230 378 -561 710 -1443 68 -179 151 -392 185 -473 l63
-148 -51 -23 c-29 -13 -99 -44 -156 -70 -57 -26 -104 -46 -106 -44 -11 14
-169 412 -269 677 -206 543 -280 723 -386 931 -149 292 -299 457 -449 496
l-46 11 1 44 c1 47 15 214 20 239 1 8 3 25 3 36 1 21 2 21 71 8 38 -7 96 -24
128 -37z m1452 -2674 c25 -42 75 -118 111 -168 l66 -92 -81 -66 c-45 -36 -105
-84 -133 -106 l-51 -41 -75 102 c-89 124 -183 276 -174 284 8 8 280 163 287
163 3 0 25 -34 50 -76z M3289 3760 c-49 -29 -543 -178 -648 -196 -14 -3 -34
-7 -43 -10 -9 -3 -27 -7 -40 -9 -13 -3 -34 -7 -48 -10 -54 -12 -71 -15 -190
-35 -84 -14 -111 -19 -165 -26 -27 -3 -58 -8 -67 -9 -9 -2 -48 -7 -85 -10 -37
-4 -79 -8 -91 -10 -13 -2 -70 -7 -125 -11 -56 -3 -118 -8 -137 -9 -19 -2 -70
-5 -113 -6 -42 -1 -80 -5 -82 -10 -23 -37 -23 -486 0 -607 1 -9 6 -37 9 -62
34 -248 131 -578 256 -871 183 -427 465 -880 797 -1281 290 -351 527 -513 833
-573 74 -14 293 -15 350 -1 14 3 37 8 51 11 45 8 177 54 243 84 l65 29 -29 59
c-48 99 -67 162 -89 298 -10 62 -8 343 4 405 62 343 161 646 378 1149 l14 34
-71 57 c-385 306 -671 699 -820 1129 -32 90 -70 223 -82 286 -2 11 -6 30 -8
42 -3 11 -8 43 -12 70 -5 26 -9 51 -10 56 -1 4 -2 16 -3 27 -1 21 -16 25 -42
10z m-1174 -700 c1 -8 5 -53 9 -100 7 -87 9 -108 26 -195 5 -27 12 -61 14 -75
64 -338 290 -840 557 -1237 l48 -71 -140 -97 c-77 -54 -141 -96 -143 -94 -21
25 -128 194 -194 304 -322 540 -492 1050 -516 1550 -1 19 7 20 139 25 192 7
198 7 200 -10z m965 -2080 c25 -30 69 -79 97 -109 44 -45 51 -57 40 -70 -52
-64 -201 -227 -211 -229 -20 -5 -287 289 -285 314 0 5 57 55 127 111 l127 102
30 -33 c17 -17 50 -56 75 -86z"/>
</g>
</svg>
