<svg viewBox="0 0 511.999 511.999" xmlns="http://www.w3.org/2000/svg"><g><path fill="currentColor" d="m424.892 398.281h-38.612c-2.08 20.855-9.486 34.019-14.224 42.391 12.011 16.225 19.121 36.287 19.121 57.978v13.35h18.819c35.75 0 64.835-29.085 64.835-64.836 0-9.591-2.367-27.974-14.911-57.662-10.447 5.595-22.371 8.779-35.028 8.779z"/><path fill="currentColor" d="m441.134 265.999c-24.545 0-44.442 19.898-44.442 44.442 0-22.674-16.984-41.369-38.922-44.089 10.942 14.227 16.677 30.665 16.677 48.286-.189 5.857-1.091 12.478-2.626 17.839.062.11.118.208.182.323 4.185 7.394 10.492 18.546 13.344 35.48h39.544c24.545 0 44.442-19.897 44.442-44.442v-57.839z"/><path fill="currentColor" d="m103.35 377.094c-4.527.919-9.187 1.405-13.916 1.405-16.218 0-32.237-6.071-44.062-16.156-2.242 6.356-3.87 14.17-3.87 24.438 0 14.789 3.367 24.51 7.1 32.071 15.534-10.976 34.395-17.542 54.749-17.843z"/><path fill="currentColor" d="m352.973 362.343c-11.826 10.085-27.844 16.156-44.062 16.156-4.722 0-9.374-.484-13.895-1.4l.014 23.912c20.34.309 39.188 6.874 54.713 17.843 3.734-7.561 7.101-17.283 7.101-32.072 0-10.269-1.628-18.083-3.871-24.439z"/><path fill="currentColor" d="m199.172 496.999c36.393 0 66-29.607 66-66l-.167-73.267c-18.733 12.906-41.414 20.474-65.833 20.474-24.414 0-47.091-7.566-65.823-20.467l-.177 73.26c0 36.393 29.608 66 66 66z"/><path fill="currentColor" d="m103.173 431.04c-36.6.876-66.006 30.798-66.006 67.608v13.35h110.532c-26.738-17.05-44.512-46.966-44.526-80.958z"/><path fill="currentColor" d="m361.177 511.999v-13.35c0-36.81-29.405-66.732-66.005-67.608-.014 33.992-17.788 63.907-44.526 80.958z"/><path fill="currentColor" d="m76.554 272.527c-10.171 7.849-22.656 21.65-22.656 42.111.727 22.571 18.133 33.86 35.536 33.86 4.753 0 9.503-.848 13.916-2.53v-18.21c-12.928-18.744-20.511-41.444-20.511-65.885v-11.305c0-39.257 30.323-71.543 68.773-74.721-3.437-7.013-5.374-14.89-5.374-23.212 0-29.188 23.746-52.934 52.934-52.934s52.934 23.746 52.934 52.934c0 8.322-1.937 16.199-5.374 23.212 38.45 3.178 68.773 35.464 68.773 74.721v11.305c0 24.446-7.585 47.149-20.517 65.895l.01 18.202c4.412 1.682 9.161 2.529 13.913 2.529 17.403 0 34.809-11.29 35.536-33.86 0-20.461-12.485-34.262-22.656-42.111 9.195-12.308 16.225-24.514 21.075-36.529 2.793-6.921 4.876-13.78 6.203-20.557 4.627-23.648.413-45.9-12.528-66.139-5.808-9.083-12.543-17.416-20.039-24.954 2.743-9.581 3.044-19.323.871-29.179-5.469-24.799-26.638-48.193-62.919-69.534-25.464-14.976-55.282-25.636-55.282-25.636s-29.818 10.66-55.281 25.637c-36.281 21.341-57.451 44.735-62.919 69.534-2.174 9.856-1.872 19.598.871 29.179-7.496 7.538-14.231 15.87-20.039 24.954-12.94 20.238-17.155 42.49-12.527 66.139 2.029 10.367 5.804 20.924 11.255 31.607 4.297 8.424 9.633 16.926 16.022 25.477z"/><path fill="currentColor" d="m112.839 250.568v11.305c0 47.605 38.729 86.333 86.333 86.333s86.333-38.728 86.333-86.333v-11.305c0-24.813-20.187-45-45-45h-82.667c-24.812 0-44.999 20.187-44.999 45zm127.458 32.82c-8.468 14.639-24.226 23.732-41.125 23.732-16.9 0-32.659-9.094-41.125-23.733l25.969-15.02c3.123 5.398 8.931 8.753 15.157 8.753s12.033-3.354 15.157-8.754z"/><circle cx="199.172" cy="152.635" r="22.934"/></g></svg>