<svg xmlns="http://www.w3.org/2000/svg" viewBox="0 0 1024 1024">
<g transform="translate(0,1024) scale(0.1,-0.1)">
<path fill="currentColor" d="M1139 8518 c-1 -948 -1 -2013 -2 -2368 l-2 -645 963 0 963 0 298 635
298 635 -959 3 -958 2 0 1730 0 1730 -300 0 -301 0 0 -1722z M2437 10233 c-3
-7 -2 -2820 2 -2841 0 -4 470 -7 1044 -7 l1043 0 -86 85 c-316 313 -378 799
-151 1180 166 276 477 465 774 469 l57 1 0 560 0 560 -150 0 -150 0 0 -355 0
-355 -305 0 -305 0 0 355 0 355 -300 0 -300 0 0 -355 0 -355 -287 2 -288 3 0
353 0 352 -297 0 c-163 0 -299 -3 -301 -7z M5140 9682 l0 -558 28 -2 c242 -16
457 -110 622 -272 120 -116 197 -239 249 -395 37 -113 46 -180 44 -325 -4
-260 -122 -523 -312 -690 l-62 -55 1058 0 1058 0 1 1428 1 1427 -299 0 c-231
0 -298 -3 -299 -12 0 -7 -1 -168 -1 -358 l-1 -345 -289 3 -288 3 0 354 0 355
-300 0 -300 0 0 -355 0 -355 -305 0 -305 0 0 355 0 355 -150 0 -150 0 0 -558z
M8520 8510 l0 -1730 -955 0 c-525 0 -955 -4 -955 -8 0 -4 115 -253 256 -553
140 -299 274 -583 296 -631 l41 -88 965 0 965 0 -6 962 c-4 529 -7 1595 -7
2370 l0 1408 -300 0 -300 0 0 -1730z M5007 8500 c-78 -25 -131 -64 -185 -138
-42 -59 -64 -131 -64 -210 1 -266 276 -438 516 -323 34 16 73 40 87 53 215
195 131 551 -148 623 -75 20 -135 18 -206 -5z M5550 7294 c-112 -58 -222 -91
-336 -101 l-70 -6 -3 -843 -2 -844 671 0 672 0 -20 33 c-274 451 -743 1232
-745 1240 -1 7 33 11 100 12 56 0 104 3 107 6 3 3 -14 47 -39 98 -25 50 -45
93 -45 95 0 2 -30 66 -66 142 -37 77 -75 158 -85 182 -10 23 -22 41 -26 41 -4
-1 -55 -26 -113 -55z M4443 6598 c-60 -101 -234 -389 -386 -640 l-277 -458
670 0 670 0 0 640 0 640 -284 0 -283 0 -110 -182z M749 4898 c-1 -2 -2 -290
-2 -641 l-2 -637 1110 2 1109 3 253 425 c197 332 273 469 344 625 50 110 93
206 96 213 4 9 -290 12 -1451 12 -801 0 -1456 -1 -1457 -2z M4069 4283 c-205
-340 -379 -628 -387 -640 l-14 -23 726 0 726 0 0 640 0 640 -339 0 -339 0
-373 -617z M5140 4260 l0 -640 725 0 726 0 -15 28 c-8 15 -181 302 -384 637
l-369 610 -341 3 -342 2 0 -640z M6603 4888 c3 -7 46 -101 95 -209 69 -149
152 -300 345 -625 l254 -429 1109 0 1109 0 1 638 0 637 -1459 0 c-1163 0
-1458 -3 -1454 -12z M384 3011 c-2 -2 -4 -231 -4 -508 l0 -503 1313 0 1314 0
296 500 c164 275 297 504 297 508 0 7 -3208 10 -3216 3z M4298 2965 c-96 -156
-577 -955 -575 -956 1 -1 316 -2 700 -3 l697 -1 0 502 0 503 -137 1 c-76 1
-254 2 -396 3 l-258 1 -31 -50z M5144 3011 c-7 -8 -4 -1001 4 -1002 4 -1 320
-2 702 -3 l695 -1 -298 495 c-165 272 -303 499 -308 505 -9 9 -785 15 -795 6z
M6665 3000 c4 -8 138 -237 298 -507 l292 -493 1313 0 1312 0 -2 507 -3 508
-1608 0 c-1425 0 -1607 -2 -1602 -15z M14 1391 c-2 -2 -4 -316 -4 -698 l0
-693 1665 0 1665 0 -2 697 -3 697 -1658 1 c-912 0 -1661 -2 -1663 -4z M3940
700 l0 -700 590 0 590 0 0 700 0 700 -590 0 -590 0 0 -700z M5141 700 l-2
-700 590 0 591 0 0 700 0 700 -588 0 -588 0 -3 -700z M6925 1390 c-1 -3 -2
-315 -1 -695 l1 -690 1658 -3 1657 -2 0 697 0 698 -1656 0 c-911 0 -1657 -2
-1659 -5z"/>
</g>
</svg>
