<svg xmlns="http://www.w3.org/2000/svg" viewBox="0 0 1024 1024">
<g transform="translate(0,1024) scale(0.1,-0.1)">
<path fill="currentColor" d="M5683 9475 c-17 -7 -129 -95 -249 -195 -121 -100 -252 -205 -292
-232 -141 -95 -330 -177 -492 -212 -41 -9 -88 -19 -105 -23 -16 -4 -415 -8
-885 -10 -1592 -6 -2055 -9 -2090 -17 -159 -33 -314 -98 -442 -183 -93 -62
-230 -198 -291 -291 -86 -129 -156 -300 -182 -442 -4 -19 -9 -96 -12 -170 l-5
-135 353 -604 352 -603 51 98 c28 55 70 128 93 164 l42 65 -24 40 c-12 22
-140 236 -284 475 l-261 435 5 95 c15 352 281 659 635 734 54 12 335 14 1590
15 839 1 1536 3 1550 5 14 3 48 7 76 10 126 14 313 86 441 168 79 52 637 528
653 557 21 40 23 106 5 142 -50 99 -150 148 -232 114z M7798 8265 c-2 -1 -37
-5 -78 -9 -145 -13 -275 -37 -470 -87 -85 -22 -155 -41 -157 -43 -2 -1 18 -25
43 -52 173 -186 256 -450 213 -679 -5 -28 -11 -59 -13 -70 -9 -49 -61 -166
-101 -230 -114 -184 -301 -312 -525 -359 -63 -14 -247 -15 -300 -2 -14 3 -38
9 -55 12 -55 12 -180 70 -242 112 -170 115 -311 329 -338 513 -3 24 -8 53 -10
64 -2 11 -4 35 -4 54 l-1 34 -382 -8 c-211 -4 -408 -8 -438 -10 -30 -1 -122
-6 -205 -9 -82 -4 -166 -9 -185 -11 -19 -2 -80 -6 -135 -9 -55 -4 -116 -9
-135 -11 -19 -2 -69 -7 -110 -10 -41 -4 -86 -8 -100 -10 -14 -2 -50 -6 -80
-10 -92 -10 -190 -22 -240 -30 -14 -2 -43 -6 -65 -10 -23 -3 -52 -7 -65 -10
-13 -3 -42 -7 -65 -10 -22 -3 -47 -8 -55 -10 -8 -2 -28 -7 -45 -10 -16 -2 -41
-7 -55 -10 -14 -3 -41 -8 -60 -11 -81 -13 -365 -89 -489 -130 -859 -286 -1275
-774 -1385 -1624 -28 -212 -29 -657 -2 -796 3 -12 7 -37 10 -55 88 -530 437
-983 957 -1245 257 -129 519 -216 778 -260 18 -3 42 -7 53 -9 11 -3 46 -7 77
-11 70 -8 89 -15 128 -48 39 -33 57 -85 49 -137 -4 -26 -123 -245 -347 -635
-424 -743 -490 -874 -543 -1079 -56 -222 -28 -400 76 -475 l41 -30 1269 0
1270 0 -4 108 c-3 100 -5 111 -30 144 -55 71 -11 68 -848 68 -840 0 -795 -4
-849 71 -31 41 -38 107 -18 151 6 15 239 282 517 594 278 312 522 591 542 621
50 72 79 169 79 258 0 39 -2 77 -4 85 -2 8 -7 31 -11 50 -5 19 -153 323 -329
675 -305 608 -321 643 -321 697 -1 61 15 93 68 132 38 29 118 26 226 -8 127
-40 314 -76 485 -94 144 -15 599 -7 715 12 14 3 48 7 75 11 90 11 258 45 375
76 132 35 174 34 226 -6 66 -50 64 -29 64 -717 l0 -623 29 -32 c16 -18 84 -92
152 -164 68 -73 131 -140 139 -149 8 -9 71 -77 140 -150 69 -73 132 -141 140
-150 8 -9 71 -77 140 -150 69 -73 132 -141 140 -150 8 -9 71 -77 140 -150 69
-73 132 -141 140 -150 8 -9 71 -77 140 -150 69 -73 132 -141 140 -150 8 -9 71
-77 140 -150 69 -73 133 -142 142 -152 9 -11 47 -52 85 -92 37 -39 124 -132
193 -205 70 -75 139 -140 157 -148 26 -10 149 -13 619 -13 l586 0 -4 68 c-4
82 -31 126 -92 152 -23 10 -243 76 -491 146 l-450 128 -60 60 c-50 51 -185
198 -245 266 -8 9 -53 59 -100 110 -47 51 -92 101 -100 110 -8 9 -53 59 -100
110 -47 51 -92 101 -100 110 -8 9 -53 59 -100 110 -47 51 -92 101 -100 110 -8
9 -53 59 -100 110 -47 51 -92 101 -100 110 -8 9 -53 59 -100 110 -47 51 -92
101 -100 110 -8 9 -53 59 -100 110 -47 51 -93 102 -103 114 -10 12 -38 41 -61
66 -23 25 -57 65 -76 89 l-35 43 -3 605 c-2 518 0 609 12 634 8 17 145 192
303 391 158 198 287 363 286 367 -1 3 -18 44 -37 91 -55 134 -78 234 -78 345
0 222 100 399 298 531 85 57 91 63 75 80 -9 8 -47 113 -58 159 -14 59 -14 234
1 297 69 293 371 589 706 692 116 35 186 44 310 40 110 -3 129 -6 223 -29 32
-8 62 -15 67 -15 4 0 3 21 -2 48 -5 26 -11 63 -14 82 -12 74 -57 208 -99 295
-105 219 -272 368 -499 445 -86 29 -107 35 -176 46 -19 3 -46 8 -60 10 -28 6
-336 14 -342 9z M6441 7984 c-84 -22 -167 -72 -227 -136 -87 -95 -124 -181
-130 -304 -6 -139 37 -255 132 -354 60 -63 143 -117 129 -84 -32 76 -44 189
-30 279 10 65 68 176 123 236 54 59 151 118 231 139 81 21 207 14 278 -15 48
-20 47 -20 22 26 -31 54 -124 141 -185 172 -105 53 -235 69 -343 41z M6753
7449 c-73 -15 -125 -79 -125 -153 0 -149 178 -216 278 -104 99 109 -7 288
-153 257z M8545 7045 c-199 -43 -419 -205 -511 -377 -38 -71 -39 -76 -39 -173
0 -95 2 -104 37 -175 20 -41 55 -97 77 -123 96 -115 52 -238 -100 -281 -143
-39 -271 -137 -303 -232 -32 -95 -15 -222 49 -361 31 -68 36 -72 77 -83 79
-22 201 -46 278 -54 59 -7 292 -9 325 -2 11 2 41 6 66 10 86 13 104 17 208 52
259 86 460 250 516 420 55 169 -9 364 -198 599 -74 92 -77 111 -42 325 10 56
19 201 20 294 l0 99 -80 28 c-44 15 -93 31 -110 34 -60 13 -211 13 -270 0z
m29 -520 c80 -61 87 -164 16 -235 -66 -66 -154 -66 -220 0 -139 139 48 354
204 235z"/>
</g>
</svg>
