<svg xmlns="http://www.w3.org/2000/svg" viewBox="0 0 1024 1024">
<g transform="translate(0,1024) scale(0.1,-0.1)">
<path fill="currentColor" d="M8329 9676 c-2 -2 -33 -6 -69 -10 -61 -6 -84 -9 -155 -22 -16 -3 -70
-17 -120 -31 -500 -143 -919 -574 -1049 -1079 -15 -58 -18 -71 -30 -144 -14
-80 -16 -99 -21 -195 -3 -55 -8 -137 -11 -182 -13 -221 -120 -445 -283 -596
-33 -30 -254 -191 -493 -358 -1354 -947 -1584 -1110 -1693 -1197 -251 -202
-572 -548 -754 -817 -257 -378 -441 -788 -531 -1185 -27 -117 -33 -148 -46
-243 -3 -21 -7 -46 -9 -55 -2 -9 -4 -32 -4 -49 -1 -41 -12 -42 -119 -8 -471
149 -831 549 -933 1037 -35 170 -33 401 5 578 3 14 58 210 121 435 140 497
226 826 270 1035 9 42 45 230 50 260 3 19 7 46 10 60 3 14 7 39 9 55 7 45 18
118 21 135 2 8 6 44 10 80 4 36 8 72 10 81 2 8 6 55 10 105 4 49 9 97 10 106
18 93 27 702 12 793 -91 567 -527 1000 -1092 1082 -67 10 -286 10 -355 0 -276
-39 -518 -162 -721 -366 -111 -111 -181 -206 -243 -329 -40 -80 -101 -252
-111 -317 -4 -22 -10 -65 -15 -95 -5 -30 -8 -206 -7 -390 2 -335 2 -335 27
-385 30 -62 94 -125 157 -156 70 -34 197 -34 268 1 64 31 124 91 155 155 26
54 25 33 33 540 3 171 7 209 25 265 64 194 231 360 422 421 87 28 232 33 325
13 115 -26 227 -86 309 -168 80 -81 125 -151 164 -258 26 -71 27 -79 27 -288
0 -192 -10 -430 -20 -492 -2 -13 -6 -59 -10 -102 -4 -43 -8 -86 -10 -95 -1 -9
-6 -41 -9 -72 -4 -31 -8 -65 -10 -75 -4 -21 -13 -77 -22 -138 -3 -21 -8 -48
-10 -60 -2 -11 -7 -37 -10 -56 -10 -53 -11 -56 -39 -190 -15 -69 -28 -132 -30
-141 -13 -64 -133 -513 -230 -854 -63 -225 -117 -419 -119 -430 -3 -11 -9 -42
-15 -70 -29 -137 -36 -213 -36 -395 0 -150 6 -252 20 -320 4 -22 11 -58 20
-110 30 -168 142 -445 252 -622 166 -269 412 -516 673 -675 213 -129 504 -236
730 -268 25 -4 45 -7 46 -8 0 -1 11 -33 23 -72 152 -462 560 -808 1051 -890
83 -14 352 -14 410 -1 14 3 50 11 80 17 138 28 295 98 495 219 63 38 115 68
115 67 0 -2 -23 -70 -50 -152 -62 -183 -88 -279 -97 -359 -8 -74 -9 -205 0
-266 39 -292 207 -584 422 -734 126 -88 36 -81 1030 -81 l880 0 50 25 c110 54
176 155 181 275 7 166 -99 298 -264 330 -9 2 -268 4 -574 4 l-557 1 282 568
c156 312 317 650 359 752 159 387 399 1003 418 1073 31 115 32 124 36 281 l3
149 201 334 c192 318 264 450 341 626 l34 78 13 -48 c17 -60 194 -639 342
-1118 134 -432 244 -811 300 -1035 43 -171 114 -514 125 -609 4 -30 8 -63 11
-74 2 -10 6 -45 10 -76 3 -31 8 -63 9 -72 2 -8 6 -55 10 -105 4 -49 9 -105 11
-124 2 -19 6 -136 10 -260 5 -223 5 -226 -18 -259 -45 -66 -68 -76 -189 -79
-100 -3 -109 -2 -110 15 -2 41 -11 77 -29 117 -78 165 -278 232 -439 146 -118
-63 -178 -177 -168 -318 6 -83 8 -92 30 -164 46 -147 177 -298 320 -368 125
-61 181 -70 397 -66 190 3 227 9 352 56 186 69 374 263 445 458 48 129 53 186
48 462 -3 140 -7 271 -9 290 -2 19 -7 75 -11 124 -4 50 -8 97 -10 105 -1 9 -6
47 -10 84 -3 37 -8 76 -10 86 -2 10 -6 42 -10 72 -14 113 -75 428 -111 574 -3
11 -7 31 -10 45 -31 157 -168 632 -419 1445 -201 653 -251 819 -260 866 -3 13
-7 35 -10 49 -10 47 -15 75 -21 120 -3 25 -8 53 -9 62 -8 42 -18 213 -18 308
1 297 50 562 152 827 18 46 36 85 41 88 5 3 35 -1 67 -9 107 -27 156 -31 438
-31 260 0 286 2 363 23 344 94 585 362 651 722 14 78 4 283 -17 362 -48 176
-122 289 -323 493 l-129 130 -1 190 c0 105 -2 199 -4 210 -2 11 -6 38 -9 60
-17 125 -82 286 -161 401 -140 204 -343 347 -585 412 -90 24 -111 26 -381 29
-157 1 -288 1 -290 -1z"/>
</g>
</svg>
