<svg xmlns="http://www.w3.org/2000/svg" viewBox="0 0 1024 1024">
<g transform="translate(0,1024) scale(0.1,-0.1)">
<path fill="currentColor" d="M0 9621 l0 -301 198 -1 c258 -2 291 -5 447 -41 601 -139 1059 -648
1143 -1268 9 -70 9 -310 -1 -375 -29 -201 -113 -415 -253 -647 -70 -116 -140
-217 -371 -535 -403 -556 -610 -903 -776 -1303 -121 -292 -248 -719 -282 -950
-4 -24 -8 -47 -10 -50 -1 -3 -6 -25 -9 -50 -3 -25 -8 -54 -10 -65 -10 -57 -16
-96 -22 -150 -3 -33 -8 -67 -9 -76 -2 -9 -6 -52 -10 -95 -4 -43 -9 -87 -11
-98 -17 -94 -26 -699 -11 -856 8 -90 9 -98 33 -230 68 -378 220 -737 449
-1064 157 -225 368 -441 592 -609 339 -251 742 -427 1132 -493 18 -3 42 -7 51
-9 10 -2 40 -6 67 -10 26 -4 59 -10 73 -13 14 -3 832 -8 1818 -9 l1792 -4 58
39 c223 151 551 338 1064 608 205 108 418 221 473 252 425 237 627 405 729
609 54 106 70 179 70 328 1 148 -7 226 -34 341 -95 405 -370 693 -743 779
-124 28 -329 32 -447 9 -41 -8 -86 -17 -100 -20 -131 -26 -390 -144 -550 -251
-396 -262 -722 -629 -1081 -1215 -46 -76 -87 -138 -92 -138 -4 0 -117 73 -252
163 l-244 163 110 180 c144 234 257 403 357 539 l82 109 0 853 0 853 300 0
300 0 2 -554 3 -553 120 79 c281 187 683 343 985 383 25 3 54 7 65 9 20 3 20
11 20 1582 0 868 -3 1599 -7 1624 -4 25 -10 61 -14 80 -11 69 -66 216 -113
305 -158 301 -431 519 -759 605 -42 11 -102 23 -132 27 -30 3 -62 7 -70 9 -8
1 -34 3 -57 3 l-43 1 0 300 0 300 1685 0 1685 0 -29 58 c-16 31 -60 104 -98
162 -297 449 -741 771 -1249 906 -106 28 -100 27 -204 44 -41 6 -86 14 -100
18 -14 3 -535 7 -1157 9 l-1133 4 -1 -53 c-1 -82 -15 -272 -25 -345 -2 -18 -6
-50 -9 -70 -3 -21 -7 -49 -10 -63 -2 -14 -7 -43 -10 -65 -24 -168 -109 -498
-196 -765 -310 -943 -944 -2046 -1663 -2895 -178 -210 -252 -288 -656 -695
-327 -329 -366 -370 -451 -475 -333 -412 -534 -878 -586 -1360 -16 -139 -8
-526 12 -620 3 -11 7 -37 10 -57 26 -191 118 -476 219 -683 157 -320 353 -577
620 -814 l49 -44 -124 7 c-68 3 -133 8 -144 10 -11 2 -42 7 -69 10 -163 22
-367 82 -536 157 -376 168 -716 463 -931 809 -160 259 -278 596 -306 880 -15
140 -6 713 11 808 2 9 7 49 10 87 4 39 9 81 11 95 2 14 7 45 10 70 3 25 8 56
10 70 3 14 7 41 10 60 3 19 8 46 10 60 3 14 8 36 10 50 3 14 8 41 11 60 14 84
88 359 133 491 166 493 359 839 831 1489 290 399 398 565 503 775 94 188 165
392 193 555 2 14 6 34 9 46 20 89 27 415 12 544 -44 382 -183 730 -418 1042
-81 108 -312 337 -417 413 -220 160 -442 268 -697 339 -79 22 -125 32 -295 61
-19 4 -153 9 -297 12 l-263 6 0 -302z M7386 8088 c179 -192 359 -563 400 -823
3 -22 7 -42 9 -45 3 -5 9 -53 20 -170 2 -14 3 -319 4 -679 l1 -654 298 6 c163
4 315 8 337 11 22 3 65 8 95 11 30 3 62 8 70 10 8 2 38 6 65 10 177 22 457 99
661 180 467 188 777 471 870 795 13 47 18 98 18 185 0 105 -3 130 -27 199 -79
226 -246 416 -531 602 l-60 39 -2 90 c-2 89 -4 109 -25 213 l-10 52 -1112 0
-1111 0 30 -32z M8794 1418 c-113 -171 -317 -362 -564 -528 -137 -92 -353
-215 -692 -394 -175 -92 -318 -170 -318 -172 0 -2 422 -4 938 -3 887 0 941 1
1010 19 109 29 187 74 273 160 127 125 182 268 175 450 -8 213 -137 411 -328
504 -97 48 -172 63 -310 65 l-115 2 -69 -103z"/>
</g>
</svg>
