<svg xmlns="http://www.w3.org/2000/svg" viewBox="0 0 1024 1024">
<g transform="translate(0,1024) scale(0.1,-0.1)">
<path fill="currentColor" d="M4135 10179 c-22 -4 -51 -11 -65 -14 -14 -3 -38 -8 -55 -10 -107 -19
-352 -87 -540 -150 -612 -204 -1157 -510 -1670 -936 -140 -116 -481 -460 -605
-609 -470 -566 -799 -1179 -995 -1855 -42 -146 -106 -413 -119 -495 -3 -19
-10 -57 -15 -85 -5 -27 -12 -74 -16 -104 -4 -30 -8 -62 -10 -72 -2 -10 -7 -49
-10 -86 -4 -37 -9 -76 -11 -86 -25 -135 -25 -861 1 -1018 2 -13 6 -51 10 -84
3 -33 7 -71 10 -85 2 -14 7 -45 10 -70 3 -25 7 -56 10 -70 2 -13 7 -40 10 -60
3 -20 8 -47 10 -60 3 -14 7 -36 10 -50 53 -287 178 -699 301 -991 65 -155 205
-439 289 -584 126 -219 384 -586 520 -740 14 -16 49 -57 77 -90 93 -109 401
-408 533 -519 475 -397 964 -681 1535 -894 192 -71 525 -168 670 -196 14 -2
45 -9 70 -14 25 -6 61 -13 80 -16 19 -3 44 -7 55 -10 48 -9 188 -30 280 -41
28 -3 64 -8 80 -10 208 -27 885 -27 1058 0 12 2 53 6 90 10 37 3 76 8 85 10 9
1 37 6 62 9 25 3 55 8 66 10 12 2 39 7 60 10 22 4 46 8 54 11 8 2 31 6 50 9
120 19 435 101 615 161 639 212 1177 514 1715 964 107 90 406 379 496 481 425
481 753 1021 972 1600 70 186 162 484 188 610 3 13 14 62 25 109 11 47 22 101
25 120 3 20 7 43 9 51 3 8 7 32 11 54 3 21 7 46 9 55 1 9 6 41 10 71 4 30 9
63 10 72 2 9 7 48 10 85 4 37 8 79 10 92 31 193 24 832 -11 1011 -1 8 -3 30
-3 49 -2 60 -10 34 -26 -74 -3 -23 -7 -50 -9 -60 -2 -11 -11 -60 -21 -110 -9
-49 -32 -153 -51 -230 -375 -1497 -1552 -2686 -3052 -3081 -73 -20 -143 -37
-155 -40 -12 -2 -45 -8 -73 -14 -28 -6 -64 -13 -80 -16 -16 -2 -56 -9 -89 -15
-33 -6 -70 -12 -83 -14 -13 -2 -53 -7 -90 -11 -37 -3 -76 -8 -86 -10 -130 -24
-726 -24 -877 1 -13 2 -49 6 -79 9 -30 4 -66 8 -80 11 -14 2 -42 6 -62 9 -21
3 -55 9 -75 12 -81 12 -274 56 -395 89 -597 165 -1133 448 -1623 856 -121 101
-374 351 -479 473 -448 522 -770 1152 -922 1810 -29 126 -32 140 -39 181 -28
160 -32 184 -41 260 -3 33 -8 68 -10 77 -25 141 -25 764 1 930 3 21 9 66 21
158 3 19 7 44 9 56 3 12 7 39 11 60 14 92 57 283 94 411 200 708 575 1344
1099 1863 165 164 189 185 350 315 223 178 522 368 776 491 72 35 126 63 120
62 -5 0 -28 -4 -50 -9z"/>
</g>
</svg>
