<svg xmlns="http://www.w3.org/2000/svg" viewBox="0 0 1024 1024">
<g transform="translate(0,1024) scale(0.1,-0.1)">
<path fill="currentColor" d="M2179 10236 c-2 -3 -24 -7 -48 -11 -181 -27 -414 -146 -580 -297 -26
-24 -76 -68 -111 -98 -240 -207 -259 -227 -305 -317 -24 -49 -48 -132 -59
-203 -13 -84 -18 -287 -8 -324 6 -21 8 -36 5 -33 -3 3 -31 -7 -62 -22 -80 -41
-212 -86 -320 -109 -69 -15 -134 -21 -259 -22 -91 0 -167 -2 -169 -4 -1 -1 35
-30 81 -64 l84 -63 -39 -86 c-22 -47 -38 -87 -37 -89 8 -7 47 9 42 17 -3 5 1
6 9 3 8 -3 32 2 52 10 21 9 49 18 64 21 14 2 27 9 29 15 2 5 8 8 12 5 5 -3 24
1 42 8 18 8 38 15 43 16 41 8 54 15 48 24 -3 5 -1 7 4 4 6 -4 27 0 47 8 20 8
36 12 36 9 0 -4 10 1 22 12 12 10 19 14 15 8 -3 -5 14 -1 38 10 24 11 41 24
39 28 -3 4 2 5 10 2 9 -3 16 -1 16 5 0 6 3 10 8 9 14 -4 81 26 76 34 -3 4 1 5
9 2 8 -3 18 0 22 5 3 6 11 9 16 6 5 -4 9 -1 9 4 0 6 7 11 16 11 9 0 12 5 8 12
-4 6 -3 8 4 5 15 -10 43 3 35 16 -3 6 -1 7 5 3 6 -3 38 7 71 23 33 16 62 26
65 23 4 -3 6 0 6 7 0 10 14 11 58 6 76 -8 186 -17 244 -19 27 0 48 -3 48 -6 0
-3 12 -6 28 -7 15 -1 50 -5 77 -8 28 -4 60 -8 73 -9 12 0 22 -3 22 -6 0 -5 35
-10 102 -13 20 -1 34 -6 31 -11 -3 -5 0 -7 8 -4 7 2 36 -1 64 -7 27 -7 64 -12
82 -11 17 1 29 -2 26 -6 -2 -5 6 -8 19 -8 56 -2 86 -5 82 -11 -3 -6 11 -8 76
-12 17 -1 30 -5 30 -8 0 -3 6 -6 13 -6 23 -1 91 -13 95 -18 3 -3 12 1 20 8 13
9 14 9 8 0 -7 -13 -1 -15 66 -17 14 0 24 -4 22 -8 -5 -8 -6 -8 126 -12 52 -2
118 -5 146 -7 27 -1 56 1 64 6 9 5 11 4 6 -3 -5 -8 1 -12 16 -13 30 -1 48 -4
137 -28 41 -11 79 -17 85 -14 5 3 6 2 3 -4 -6 -9 59 -39 76 -35 4 1 7 -2 7 -7
0 -8 26 -19 43 -17 4 1 11 -4 15 -10 4 -6 32 -26 62 -46 30 -19 89 -68 130
-108 41 -41 78 -73 83 -72 4 1 6 -1 5 -5 -4 -14 23 -54 31 -48 5 2 8 -3 7 -13
0 -10 5 -16 14 -14 8 2 12 1 8 -3 -4 -4 6 -30 23 -59 41 -70 81 -157 75 -163
-3 -3 -51 -7 -108 -9 -57 -1 -117 -6 -133 -9 -53 -12 -308 -14 -370 -4 -167
27 -344 89 -346 120 -1 10 -2 22 -3 27 -1 4 -5 29 -10 55 -4 27 -10 59 -12 70
-3 12 -7 31 -9 42 -3 11 -7 31 -10 45 -2 14 -7 36 -10 50 -5 20 -57 55 -275
183 -149 87 -270 164 -270 170 0 7 -3 8 -10 1 -7 -7 -3 -34 13 -85 13 -41 30
-97 37 -126 8 -29 18 -49 23 -46 6 3 7 1 3 -5 -4 -6 3 -48 15 -94 24 -95 27
-108 28 -126 1 -7 5 -10 11 -7 5 3 8 0 5 -7 -5 -14 69 -389 76 -385 2 1 1 -2
-2 -6 -4 -5 -3 -23 2 -40 4 -18 10 -50 14 -72 3 -23 7 -50 9 -61 2 -12 7 -43
11 -70 3 -27 8 -58 10 -69 2 -11 4 -30 4 -43 1 -16 5 -21 14 -16 9 5 9 4 1 -5
-7 -8 -9 -25 -4 -44 4 -18 7 -35 8 -39 1 -5 2 -24 2 -44 0 -25 3 -33 13 -28 9
6 9 5 0 -8 -7 -8 -11 -17 -9 -19 4 -4 13 -81 21 -174 3 -26 7 -64 9 -84 3 -20
8 -72 11 -116 4 -44 8 -96 10 -115 2 -19 6 -82 10 -140 4 -58 8 -121 10 -140
5 -52 18 -272 17 -293 0 -11 4 -15 11 -10 9 5 9 3 1 -8 -6 -8 -10 -22 -9 -31
2 -9 6 -83 10 -165 4 -81 9 -166 10 -188 2 -22 6 -98 10 -170 4 -71 9 -150 10
-175 2 -25 4 -60 4 -79 1 -43 9 -37 17 15 3 21 12 71 21 109 8 39 17 84 20
100 2 17 9 48 14 70 6 22 11 55 12 73 1 17 5 32 9 32 5 0 7 3 6 8 -1 4 2 27 6
52 5 25 8 48 7 53 0 4 17 -4 38 -19 23 -15 45 -23 52 -18 7 4 10 3 6 -3 -6
-10 84 -56 111 -56 6 0 12 -3 12 -7 0 -5 73 -28 110 -35 3 -1 14 -4 25 -8 11
-3 31 -8 45 -11 14 -2 43 -9 65 -14 22 -6 52 -10 67 -8 15 2 25 -1 22 -5 -3
-5 15 -10 40 -11 76 -3 100 -5 120 -14 15 -6 17 -4 11 7 -7 11 -6 12 6 3 19
-15 99 -23 99 -9 0 7 3 7 8 0 4 -5 21 -11 37 -12 73 -5 266 -4 274 2 11 6 8
-11 -18 -125 -5 -25 -12 -58 -15 -75 -3 -16 -10 -46 -16 -65 -5 -19 -10 -37
-10 -40 0 -3 -2 -16 -5 -30 -3 -14 -8 -35 -10 -47 -10 -47 -14 -61 -23 -96 -6
-20 -9 -37 -7 -39 13 -13 -623 4 -645 17 -3 2 -23 6 -45 9 -105 17 -238 60
-434 143 -8 4 -4 -7 9 -25 13 -17 27 -29 32 -26 5 3 7 0 6 -8 -2 -7 3 -12 10
-10 8 1 11 -2 8 -6 -6 -10 84 -77 142 -106 19 -10 40 -15 48 -12 8 3 13 2 10
-3 -7 -10 42 -33 55 -26 5 4 9 2 9 -3 0 -12 144 -54 193 -56 9 0 17 -3 17 -6
0 -6 37 -12 92 -14 20 0 34 -4 31 -9 -2 -4 8 -7 24 -7 15 0 42 -2 58 -5 17 -2
61 -7 99 -10 38 -3 74 -9 79 -12 6 -4 7 -1 2 7 -6 9 -4 11 6 5 7 -5 40 -11 73
-12 33 -2 62 -5 64 -8 2 -2 -29 -118 -68 -257 l-72 -253 -212 1 c-116 1 -224
4 -241 7 -16 3 -50 9 -75 12 -25 3 -53 8 -62 11 -16 5 -39 10 -86 20 -62 13
-276 92 -324 121 -5 2 -8 1 -8 -4 1 -12 60 -74 105 -110 44 -34 161 -96 182
-96 7 0 13 -5 13 -10 0 -5 9 -7 20 -4 13 3 18 1 13 -6 -4 -6 2 -8 15 -5 12 4
20 2 16 -3 -3 -5 2 -10 10 -10 20 -2 26 -4 50 -14 11 -5 34 -9 52 -9 18 -1 30
-4 28 -7 -2 -3 17 -10 41 -16 32 -7 43 -7 38 1 -5 8 -3 8 8 0 8 -6 26 -11 41
-10 14 1 24 -2 22 -6 -3 -4 13 -6 35 -5 22 1 37 -1 35 -5 -3 -5 15 -8 40 -8
25 0 47 -1 49 -1 19 -10 97 -13 101 -5 2 6 5 5 5 -3 1 -11 4 -11 15 -2 12 10
14 8 11 -16 -3 -22 -59 -221 -142 -497 -5 -18 -15 -18 -197 -13 -105 3 -202 8
-216 11 -13 3 -42 8 -65 11 -76 11 -230 56 -335 98 l-105 42 0 35 c1 33 11
127 19 180 3 14 7 49 10 78 14 120 19 157 22 164 5 8 -51 25 -146 44 -13 3
-56 12 -95 20 -38 9 -77 17 -86 19 -9 2 -32 6 -50 9 -19 3 -44 8 -55 10 -22 5
-74 13 -134 22 -19 3 -45 7 -58 9 -13 2 -53 7 -90 11 -37 3 -75 8 -86 10 -97
18 -527 26 -636 12 -124 -17 -149 -21 -228 -44 -92 -27 -275 -115 -367 -177
-247 -167 -385 -432 -421 -812 -12 -124 -7 -359 10 -510 17 -142 19 -154 30
-148 7 4 7 2 -1 -7 -8 -9 -9 -20 -2 -39 6 -14 10 -27 10 -28 -5 -17 1 -33 11
-27 7 4 8 3 4 -4 -10 -16 15 -93 27 -85 6 3 7 1 3 -5 -13 -22 97 -207 117
-195 6 3 7 1 3 -5 -9 -15 63 -94 77 -85 6 3 7 2 4 -4 -8 -13 57 -76 68 -66 4
5 5 3 2 -3 -9 -15 19 -38 34 -28 7 4 9 3 5 -4 -3 -6 8 -21 26 -33 18 -13 35
-26 38 -29 11 -14 164 -105 172 -102 4 1 8 -2 8 -6 0 -10 50 -37 62 -34 5 1 8
-3 8 -9 0 -6 7 -8 16 -5 8 3 13 2 10 -3 -7 -11 43 -33 56 -25 6 4 8 2 4 -4 -6
-10 30 -28 47 -24 4 1 7 -2 7 -7 0 -5 8 -11 18 -14 9 -3 54 -21 100 -40 45
-19 82 -33 82 -30 0 3 6 0 13 -6 8 -6 17 -8 20 -4 4 3 7 1 7 -5 0 -7 3 -11 8
-10 4 1 20 -4 36 -11 16 -6 36 -9 43 -7 8 3 12 2 9 -2 -2 -4 22 -17 54 -28 33
-11 57 -17 55 -14 -3 4 12 -1 33 -11 20 -11 42 -17 49 -14 7 2 13 0 13 -5 0
-6 3 -9 8 -8 4 1 27 -4 52 -11 25 -7 50 -14 55 -15 6 -1 16 -5 23 -9 6 -5 12
-6 12 -3 0 3 18 -1 40 -9 22 -8 40 -13 40 -11 0 2 21 -2 46 -10 26 -7 50 -11
55 -8 5 3 9 0 9 -5 0 -6 3 -10 8 -9 9 2 118 -20 155 -32 21 -7 26 -6 20 3 -4
8 -1 7 10 -1 9 -8 36 -14 61 -15 24 -1 42 -6 39 -11 -3 -5 10 -7 30 -4 20 2
33 0 31 -4 -3 -4 5 -8 18 -9 13 0 32 -2 43 -4 101 -20 115 -22 126 -11 9 8 10
8 5 -1 -5 -9 3 -14 26 -15 62 -3 67 -4 74 -11 12 -12 26 -8 18 5 -6 10 -5 10
7 1 9 -7 42 -15 74 -18 32 -3 63 -9 68 -12 6 -4 7 -1 2 7 -6 10 -4 11 6 4 30
-19 39 -13 25 14 -8 15 -29 74 -46 132 -18 58 -36 107 -41 110 -11 8 -66 257
-84 380 -3 25 -8 56 -10 70 -2 14 -7 52 -11 84 l-6 60 26 -17 c14 -9 37 -24
51 -33 13 -9 30 -12 36 -8 7 4 9 3 6 -3 -9 -14 138 -78 154 -67 7 4 10 3 6 -3
-4 -7 8 -14 31 -19 20 -4 42 -8 47 -10 33 -9 91 -23 129 -30 16 -2 32 -6 35
-8 3 -2 33 -7 66 -11 32 -3 63 -9 67 -11 4 -3 8 1 8 8 0 10 2 10 9 -1 5 -7 13
-11 19 -7 7 4 13 -12 17 -41 4 -27 8 -58 10 -69 2 -12 7 -48 11 -80 4 -33 8
-61 9 -64 1 -3 9 -49 20 -102 10 -53 21 -95 24 -94 3 2 7 -18 8 -45 l3 -50
-68 6 c-69 5 -120 12 -162 20 -14 3 -38 8 -55 10 -84 15 -222 61 -364 122 -10
5 -8 -2 5 -20 10 -15 25 -24 32 -22 7 3 11 1 7 -4 -7 -13 67 -72 82 -66 7 2
12 -1 10 -8 -1 -7 4 -11 11 -9 6 1 12 -3 12 -9 0 -6 7 -8 16 -5 8 3 13 2 10
-2 -5 -8 60 -42 87 -46 7 -1 17 -4 22 -8 21 -12 147 -48 155 -43 5 3 10 0 12
-5 2 -6 26 -12 55 -13 28 -1 49 -6 46 -11 -3 -5 8 -7 25 -4 17 2 29 1 27 -2
-2 -4 8 -8 23 -8 60 -3 67 -8 82 -56 9 -26 19 -44 24 -39 5 5 6 2 2 -5 -10
-17 85 -293 98 -285 5 3 6 1 3 -4 -9 -14 13 -74 24 -67 5 3 6 -1 4 -9 -3 -7 1
-29 10 -49 l15 -37 -59 4 c-59 4 -113 11 -161 20 -14 3 -38 8 -55 11 -85 15
-233 64 -334 110 -67 31 -72 32 -58 11 8 -12 21 -21 27 -19 6 1 9 -1 6 -6 -8
-14 70 -85 85 -77 7 5 10 4 5 -3 -6 -11 31 -38 47 -34 4 1 7 -2 7 -6 0 -9 90
-52 158 -76 23 -8 42 -13 42 -9 0 3 7 -1 17 -8 9 -8 17 -13 17 -11 1 2 8 1 16
-1 74 -23 129 -34 124 -25 -5 7 -2 8 7 2 8 -4 21 -10 29 -11 65 -13 99 -17
127 -18 17 0 29 -3 27 -7 -6 -9 101 -229 108 -222 3 3 5 -1 4 -8 -2 -21 57
-127 67 -121 6 3 7 1 4 -5 -10 -15 3 -43 16 -35 6 3 7 1 3 -6 -4 -6 -4 -17 2
-24 5 -7 24 -38 42 -70 l33 -59 -34 5 c-98 16 -185 45 -291 98 -43 21 -78 36
-78 34 0 -16 34 -54 43 -48 5 3 7 1 4 -4 -12 -19 104 -117 183 -155 104 -50
218 -89 267 -92 11 0 19 -4 17 -8 -6 -10 34 -20 47 -12 7 4 9 3 6 -3 -6 -10
82 -38 120 -37 12 0 20 -3 17 -7 -2 -4 18 -10 44 -15 26 -4 52 -8 57 -10 63
-15 186 -33 266 -40 128 -10 439 -12 445 -3 3 5 14 4 25 -1 10 -6 19 -7 19 -3
0 4 30 9 68 9 124 3 162 6 158 12 -2 4 19 5 46 3 40 -2 49 0 42 10 -6 11 -5
12 8 2 8 -7 17 -11 19 -8 4 4 83 12 132 14 10 1 16 4 14 9 -3 4 23 8 57 9 52
1 111 8 111 13 0 2 69 10 95 12 8 0 21 6 29 12 11 8 13 8 8 0 -5 -9 3 -10 28
-4 19 4 36 5 39 2 4 -3 6 -1 6 4 0 5 12 10 28 10 77 3 83 4 76 17 -5 8 -2 8 9
-2 9 -7 17 -10 17 -5 0 5 10 10 23 11 51 3 106 11 115 17 5 3 27 8 48 12 20 3
47 9 58 14 24 9 30 10 52 10 8 0 13 4 10 9 -3 4 6 6 21 3 15 -3 24 -1 20 5 -3
5 4 9 16 8 12 -1 27 0 32 4 6 3 19 7 29 8 11 2 33 10 48 18 16 7 26 9 23 4 -3
-5 1 -6 9 -3 9 3 14 9 12 13 -3 4 3 7 12 8 9 1 24 3 32 6 8 2 27 7 43 12 15 4
27 11 27 17 0 5 5 6 10 3 6 -4 22 1 37 10 14 9 23 13 19 7 -3 -6 18 1 46 15
96 46 163 76 173 78 6 0 9 7 7 14 -1 7 2 10 7 6 6 -3 25 2 43 12 18 9 36 16
41 15 4 -1 7 2 7 8 0 5 5 10 11 10 6 0 24 9 40 21 16 11 29 18 29 14 0 -3 10
3 22 15 12 11 27 20 34 20 6 0 17 7 24 15 7 8 17 12 23 8 6 -3 7 -1 3 5 -4 7
-3 12 3 12 15 0 180 119 191 139 5 9 10 12 10 7 0 -5 11 3 25 18 14 15 25 25
25 22 0 -2 17 11 38 31 20 20 36 40 34 45 -1 5 1 7 6 4 5 -3 38 25 73 63 97
103 118 129 112 135 -4 3 -1 6 5 6 11 0 77 83 83 105 2 6 10 18 19 27 30 32
142 230 144 253 0 13 4 21 7 19 10 -6 30 46 23 59 -4 7 -3 9 1 4 11 -9 47 82
38 96 -3 6 -1 7 4 4 7 -4 14 8 18 31 4 20 11 43 17 50 6 6 8 12 5 12 -3 0 1
21 9 48 8 26 17 63 20 82 3 19 7 37 9 40 2 3 6 37 10 75 4 39 9 72 11 74 2 2
-2 11 -9 19 -8 10 -8 13 -1 9 9 -5 11 17 8 81 -1 48 -5 101 -8 117 -3 17 -8
48 -11 70 -8 53 -60 252 -76 290 -6 17 -13 35 -14 40 -2 6 -18 51 -38 100 -76
197 -255 535 -336 635 -65 80 -250 260 -360 350 -24 19 -51 42 -61 51 -10 8
-31 24 -45 35 -15 10 -32 24 -39 29 -31 29 -192 140 -276 191 -163 99 -398
206 -500 229 -8 2 -37 9 -65 15 -124 29 -262 31 -391 6 -23 -5 -72 -13 -131
-22 -21 -3 -49 -7 -63 -9 -14 -2 -47 -7 -75 -11 -27 -3 -58 -8 -67 -9 -9 -2
-48 -7 -85 -10 -37 -4 -79 -8 -93 -11 -13 -2 -58 -6 -100 -10 -41 -3 -91 -7
-110 -9 -55 -6 -285 -17 -387 -19 -99 -3 -101 -3 -108 -32 -2 -11 -18 -73 -36
-139 -17 -66 -33 -127 -35 -135 -2 -8 -17 -69 -35 -135 -17 -66 -32 -127 -35
-135 -2 -8 -31 -118 -64 -245 -61 -229 -61 -231 -56 -340 2 -60 7 -119 9 -130
25 -105 64 -208 77 -200 4 3 7 -3 6 -13 0 -9 4 -16 10 -15 7 1 11 -5 10 -15 0
-9 5 -16 12 -14 6 1 11 -1 10 -5 -7 -22 113 -130 132 -118 6 4 9 1 8 -7 -2 -7
5 -12 14 -12 10 1 15 -3 11 -9 -4 -6 2 -8 15 -5 12 4 20 3 17 -2 -7 -11 52
-33 66 -24 7 4 10 3 6 -3 -3 -5 9 -15 28 -21 26 -7 33 -7 28 1 -5 9 -2 8 8 0
8 -7 30 -15 49 -18 18 -3 37 -8 42 -11 4 -3 8 1 8 8 0 10 2 10 9 -1 5 -8 19
-12 35 -9 14 3 26 1 26 -4 0 -5 9 -4 19 2 12 6 22 6 25 1 4 -5 53 -9 111 -8
71 0 102 4 98 11 -4 6 0 5 9 -1 8 -7 17 -11 19 -8 3 2 36 6 74 10 39 3 86 7
105 10 19 3 55 7 80 10 25 2 59 7 75 11 17 3 44 8 60 10 17 2 48 6 70 8 22 3
76 8 119 10 50 3 82 9 87 18 7 10 9 10 9 0 0 -9 5 -10 19 -2 11 5 29 10 41 10
12 0 19 3 17 7 -3 5 7 9 21 9 25 2 63 10 70 14 1 2 7 4 12 5 6 1 12 4 15 5 3
1 8 3 13 5 50 14 61 18 58 24 -2 3 8 7 22 8 35 2 154 47 146 55 -3 4 4 4 17 1
14 -4 20 -2 16 4 -4 6 -1 11 6 10 31 -1 48 4 43 12 -3 5 0 9 7 8 34 -1 48 4
41 15 -4 7 -3 8 5 4 6 -4 19 -2 28 6 14 11 16 11 8 -1 -5 -8 6 -5 23 8 18 12
32 19 32 15 0 -3 7 0 17 7 9 8 17 12 17 10 1 -2 23 6 50 17 27 12 52 22 57 22
5 0 9 5 9 11 0 5 4 8 9 5 10 -7 131 44 131 55 0 5 7 5 17 2 11 -4 14 -3 9 5
-4 8 -2 10 7 6 8 -3 22 2 31 11 9 9 16 12 16 6 0 -5 -55 -48 -122 -95 -68 -47
-198 -138 -290 -203 -93 -65 -208 -141 -257 -168 -49 -28 -87 -53 -84 -57 2
-4 -4 -5 -13 -1 -13 5 -15 3 -9 -7 5 -8 4 -11 -3 -6 -6 4 -33 -4 -59 -17 -121
-61 -406 -150 -553 -173 -19 -3 -42 -7 -50 -9 -8 -2 -37 -7 -65 -11 -27 -3
-58 -8 -67 -9 -9 -2 -48 -7 -85 -10 -37 -4 -79 -8 -92 -10 -103 -17 -624 -26
-696 -12 -128 24 -224 83 -319 198 -50 60 -138 262 -152 349 -3 14 -7 36 -9
50 -12 61 -15 78 -22 135 -15 123 -6 585 12 603 3 3 -1 12 -8 20 -9 13 -9 14
1 8 8 -5 12 -1 12 13 0 11 14 73 30 137 17 65 28 124 25 131 -3 9 0 11 7 7 7
-5 9 0 6 14 -4 12 -3 20 2 17 10 -6 22 54 13 68 -3 6 -1 7 5 3 7 -4 12 -1 13
6 1 20 5 38 25 103 10 33 19 62 19 65 1 3 7 24 14 48 6 23 9 48 5 54 -5 7 -3
8 6 3 10 -6 12 -1 8 18 -3 15 -2 24 2 22 10 -6 42 114 34 127 -4 6 -3 8 4 5 9
-7 28 59 25 90 0 7 4 10 10 6 6 -4 8 4 5 20 -3 15 -2 24 2 22 9 -5 41 105 35
116 -3 4 -1 9 5 11 6 2 12 12 14 23 5 23 33 119 117 393 33 106 57 198 53 204
-4 7 -3 8 4 4 7 -4 12 -1 12 7 0 8 16 56 35 106 20 51 33 97 29 103 -5 7 -2 8
6 3 10 -6 12 -3 7 14 -3 13 -3 20 1 17 8 -9 63 146 57 162 -3 7 0 10 5 7 12
-7 24 40 14 56 -4 7 -3 10 3 6 12 -8 37 69 27 85 -4 6 -3 8 3 5 12 -8 66 160
56 176 -4 6 -1 7 7 2 10 -6 12 -3 8 13 -4 12 -3 20 2 17 10 -6 32 83 24 98 -4
7 -3 8 1 4 10 -8 17 13 66 186 16 59 27 113 23 120 -4 6 -3 8 1 4 11 -9 48
141 38 155 -4 7 -1 8 7 3 10 -6 12 0 8 23 -2 17 -1 29 4 26 4 -3 8 1 9 8 0 7
10 61 23 120 12 60 22 117 21 128 -1 11 2 20 6 20 4 0 6 14 5 30 -1 17 1 30 4
30 6 0 13 53 14 112 1 20 4 34 7 32 4 -2 9 31 13 74 22 241 26 373 12 391 -8
11 -8 13 1 8 9 -6 11 3 8 30 -2 21 -6 76 -10 123 -3 47 -7 96 -10 110 -3 14
-8 45 -11 70 -3 25 -12 74 -21 110 -8 36 -16 72 -18 80 -2 8 -4 15 -5 15 -1 0
-3 9 -5 20 -11 53 -63 194 -70 187 -5 -4 -5 -2 -2 4 8 13 -12 63 -88 219 -66
136 -157 293 -290 495 -86 132 -125 184 -234 312 -8 9 -19 14 -24 11 -6 -3 -7
-1 -4 4 8 13 -189 199 -267 252 -12 8 -23 18 -26 21 -3 4 -36 30 -75 58 -38
28 -75 56 -82 62 -7 5 -16 10 -22 10 -5 0 -11 3 -13 8 -3 7 -46 36 -173 117
-228 145 -548 292 -672 309 -94 13 -193 24 -278 31 -33 3 -80 7 -105 10 -25 2
-76 7 -115 11 -38 3 -86 7 -105 9 -19 2 -75 7 -125 10 -49 4 -93 9 -96 11 -3
2 -8 2 -10 0z m-84 -556 c18 -6 42 -22 55 -35 13 -13 27 -22 33 -18 6 3 7 1 4
-5 -8 -12 2 -44 12 -38 15 10 12 -132 -4 -172 -47 -116 -174 -146 -258 -60
-34 35 -49 70 -52 124 -1 23 -6 47 -10 54 -5 9 -4 11 3 6 11 -7 16 12 15 52
-1 7 2 11 5 8 3 -4 13 5 22 19 40 62 109 87 175 65z m705 -1670 c12 -11 27
-17 33 -13 5 3 7 2 4 -4 -8 -13 50 -46 65 -37 6 4 8 3 5 -3 -8 -12 54 -45 88
-47 13 0 21 -4 19 -7 -5 -9 109 -40 154 -43 12 0 22 -4 22 -8 0 -3 11 -5 25
-3 14 1 28 -1 30 -5 3 -5 13 -7 22 -6 10 2 32 0 50 -4 19 -5 36 -3 44 4 7 6 9
7 6 0 -4 -6 16 -11 54 -12 33 -1 65 -4 70 -7 5 -4 9 0 9 7 0 9 2 10 8 1 11
-18 22 -19 32 -3 5 8 10 10 10 4 0 -14 42 -13 52 1 5 7 8 6 8 0 0 -10 90 -11
152 -1 25 4 29 0 47 -50 12 -30 26 -74 32 -99 6 -25 14 -43 18 -41 3 2 6 -6 7
-17 0 -12 12 -74 27 -137 32 -143 38 -182 26 -174 -10 6 -296 6 -349 0 -261
-32 -408 -25 -595 29 -136 40 -152 49 -152 87 0 58 -14 316 -18 340 -2 13 -7
55 -10 93 -7 68 -10 91 -18 148 -5 32 -6 32 23 7z m80 -715 c6 3 9 1 8 -6 -4
-14 141 -91 160 -84 6 2 12 1 12 -4 0 -11 99 -33 112 -24 7 4 8 1 3 -6 -5 -9
-1 -12 11 -10 11 1 26 -1 34 -4 56 -22 396 -40 419 -23 11 8 13 8 8 0 -4 -7 2
-11 18 -11 16 0 22 4 18 11 -4 6 1 5 10 -3 14 -11 17 -11 18 0 0 11 2 11 6 1
4 -10 8 -10 21 0 13 11 14 11 7 -1 -5 -9 -4 -12 3 -7 7 4 40 9 74 11 35 2 75
6 91 8 15 2 29 1 32 -2 13 -22 27 -428 17 -526 l-4 -40 -71 5 c-40 3 -151 4
-247 2 -291 -6 -351 -6 -440 2 -46 4 -87 9 -90 11 -3 2 -22 6 -42 9 -21 3 -57
11 -80 16 -24 6 -52 13 -63 15 -11 3 -44 12 -72 21 l-53 17 5 56 c5 47 11 158
18 286 0 17 -3 37 -8 44 -5 9 -4 12 2 8 6 -4 10 14 10 46 3 223 1 212 22 193
11 -10 25 -15 31 -11z m-33 -731 c8 3 12 2 9 -3 -8 -12 81 -44 95 -35 8 4 9 3
5 -4 -4 -7 -2 -13 3 -13 14 -2 23 -4 41 -12 8 -4 24 -8 35 -10 11 -2 28 -7 38
-12 9 -4 24 -4 33 -1 10 4 13 2 8 -6 -5 -7 -2 -9 8 -5 9 3 19 3 22 -1 8 -7 29
-12 71 -16 17 -2 39 -6 50 -9 11 -3 43 -9 70 -12 48 -7 82 -10 240 -20 39 -3
82 -7 98 -9 15 -2 30 1 33 5 3 5 14 4 25 -1 14 -8 19 -7 19 2 0 8 3 9 8 3 11
-16 45 -19 37 -3 -6 10 -5 11 6 1 7 -7 17 -13 22 -13 4 0 5 6 1 13 -6 9 -4 9
7 1 8 -5 38 -9 67 -9 l54 2 -7 -66 c-11 -119 -23 -210 -46 -346 -17 -103 -20
-115 -31 -109 -8 5 -227 6 -513 2 -194 -3 -343 20 -546 82 l-97 30 2 54 c0 30
4 52 9 49 4 -2 7 6 8 19 0 13 2 32 5 43 11 57 18 114 19 147 0 20 3 34 7 32 4
-3 6 13 5 35 -1 22 1 37 5 35 4 -2 6 4 6 13 -1 27 14 157 19 166 2 4 11 0 20
-8 9 -9 22 -14 30 -11z m-327 -2744 c28 -18 54 -28 61 -24 7 4 9 3 6 -3 -8
-13 41 -36 55 -27 7 4 8 2 4 -4 -6 -11 6 -16 27 -13 4 0 7 -4 7 -9 0 -5 3 -9
8 -9 4 1 10 0 15 -1 4 -1 10 -3 15 -5 4 -1 20 -7 35 -13 16 -7 33 -10 38 -6 5
3 9 0 9 -6 0 -7 7 -10 15 -7 8 4 17 2 20 -3 3 -4 24 -11 48 -15 23 -4 50 -9
60 -11 9 -2 27 -6 39 -9 12 -2 40 -7 62 -11 22 -3 45 -8 50 -11 5 -4 6 0 1 8
-7 11 -6 12 6 2 8 -7 24 -12 34 -12 16 0 80 -5 128 -10 7 -1 5 -19 -7 -66 -34
-128 -76 -295 -80 -315 -8 -39 -15 -70 -20 -88 -2 -9 -7 -29 -10 -43 -5 -25
-7 -25 -83 -23 -79 3 -170 11 -209 18 -12 3 -39 7 -59 10 -102 17 -277 71
-390 122 -22 10 -42 17 -45 17 -3 -1 -5 30 -4 68 0 38 -2 69 -5 70 -8 1 -59 6
-142 14 -37 3 -77 8 -89 10 -12 2 -48 7 -79 11 -31 3 -58 8 -61 9 -3 2 -26 6
-50 10 -69 10 -236 51 -330 80 -244 78 -439 180 -580 305 l-45 40 38 -11 c20
-5 42 -7 49 -3 6 4 8 3 5 -2 -3 -5 10 -14 28 -20 25 -8 32 -8 28 0 -5 7 -2 7
8 0 19 -16 109 -41 136 -39 12 1 20 -2 17 -7 -3 -4 3 -8 13 -9 10 0 27 -3 38
-5 11 -3 29 -7 40 -9 11 -2 20 -4 20 -5 0 -1 7 -3 15 -5 8 -2 29 -6 45 -10 17
-4 41 -9 55 -11 14 -2 41 -7 60 -12 20 -5 50 -8 67 -8 17 1 29 -2 26 -6 -3 -7
13 -8 70 -8 1 0 17 -4 35 -9 23 -7 30 -7 26 1 -5 7 -2 8 7 2 23 -14 35 -15
224 -19 127 -2 184 0 194 8 11 9 13 9 8 1 -5 -9 3 -10 28 -4 19 4 36 5 39 2 4
-3 6 0 6 6 0 6 6 9 13 6 8 -3 25 0 40 5 22 9 26 16 25 43 -2 36 12 169 19 180
2 4 20 -10 39 -32 19 -21 57 -53 84 -70z m-70 -662 c57 -45 161 -100 178 -93
7 3 11 1 8 -4 -5 -7 15 -16 54 -26 3 0 16 -7 29 -14 20 -11 22 -11 15 1 -7 11
-5 11 9 0 9 -8 22 -10 28 -6 7 4 9 3 6 -3 -4 -6 2 -13 13 -16 12 -3 18 -1 14
5 -4 6 6 2 22 -8 21 -14 26 -15 19 -4 -8 13 -6 13 8 1 9 -7 24 -11 32 -7 10 3
14 2 9 -5 -3 -6 1 -10 12 -9 11 1 21 1 24 0 8 -3 33 -8 80 -15 25 -4 52 -9 60
-10 8 -2 21 -4 29 -4 13 -1 11 -57 -5 -186 -2 -16 -5 -103 -5 -192 -2 -180 4
-165 -67 -166 -34 0 -184 12 -208 17 -12 2 -38 7 -58 10 -20 3 -55 11 -78 16
-24 6 -54 13 -67 16 -36 8 -205 65 -213 73 -7 6 -14 69 -23 198 -3 32 -7 162
-10 288 l-5 230 22 -26 c13 -14 43 -41 68 -61z M6637 6084 c-1 -1 -36 -4 -77
-8 -149 -12 -271 -46 -415 -115 -154 -73 -356 -216 -347 -245 2 -6 0 -8 -4 -4
-9 10 -35 -12 -28 -23 3 -5 0 -8 -8 -7 -7 2 -12 -3 -11 -9 2 -7 -1 -12 -6 -10
-27 7 -229 -281 -215 -306 4 -7 3 -9 -1 -4 -12 10 -62 -107 -86 -201 -24 -92
-34 -246 -16 -236 9 5 9 4 2 -5 -12 -12 -7 -84 4 -76 4 2 5 -10 3 -27 -4 -23
-2 -29 8 -23 9 6 11 4 5 -4 -4 -7 5 -41 20 -77 l28 -65 56 7 c114 14 436 5
464 -13 6 -4 7 -1 2 7 -6 10 -4 11 6 4 8 -4 21 -9 29 -11 8 -1 33 -5 55 -8 22
-3 54 -8 70 -11 17 -3 39 -7 50 -8 11 -2 27 -6 36 -10 9 -4 33 -8 52 -9 19 -1
33 -5 30 -9 -2 -5 5 -9 16 -9 21 -2 37 -5 46 -9 3 -1 8 -3 13 -5 4 -1 15 -5
24 -9 9 -4 22 -4 29 0 8 5 9 3 4 -6 -6 -10 -1 -12 19 -8 15 3 24 3 21 0 -9 -9
136 -62 149 -55 6 3 8 3 4 -2 -10 -11 161 -97 175 -88 5 3 7 2 4 -3 -3 -6 31
-32 76 -59 45 -28 93 -59 107 -71 32 -26 113 -72 123 -70 4 0 11 -4 15 -9 4
-6 32 -28 62 -49 30 -22 87 -65 126 -97 39 -32 74 -56 78 -54 3 3 4 3 2 0 -2
-3 41 -49 94 -102 93 -91 100 -96 143 -98 29 -1 44 2 40 8 -4 6 -1 7 8 1 21
-13 70 -14 63 -2 -5 7 -2 8 7 2 18 -11 80 -14 74 -3 -3 4 8 4 24 -1 21 -6 31
-5 35 3 3 8 5 8 5 -1 1 -7 5 -11 9 -8 5 3 39 6 75 7 37 1 64 6 61 10 -3 5 5 5
18 0 13 -5 32 -5 43 -2 11 4 35 7 53 7 17 -1 32 2 32 6 0 4 7 5 15 2 8 -4 23
0 32 7 14 12 16 12 9 0 -7 -10 -3 -11 15 -5 13 4 34 8 47 8 12 0 22 2 22 6 0
3 15 5 33 6 17 0 48 4 67 7 19 4 49 9 65 12 17 3 41 8 55 10 14 3 36 8 50 10
23 4 61 13 85 19 26 6 75 38 89 58 9 12 16 18 16 13 0 -6 7 1 15 15 31 53 45
91 39 102 -4 6 -3 8 3 5 14 -9 21 39 18 127 -2 39 0 64 3 56 3 -8 16 -29 28
-46 13 -17 38 -62 55 -100 26 -56 33 -84 35 -149 3 -69 0 -87 -22 -130 -29
-60 -102 -131 -176 -173 -52 -29 -208 -89 -255 -98 -12 -2 -34 -9 -48 -14 -14
-5 -25 -8 -25 -5 0 2 -14 0 -32 -5 -17 -5 -47 -12 -67 -15 -20 -3 -47 -7 -60
-10 -13 -2 -49 -7 -80 -10 -31 -4 -66 -8 -79 -10 -25 -4 -232 -18 -274 -18
-23 -1 -25 -3 -17 -19 6 -10 15 -15 21 -12 7 4 8 3 4 -4 -7 -12 17 -56 26 -47
2 3 5 -1 5 -8 0 -6 22 -48 48 -92 26 -44 69 -124 95 -177 26 -53 51 -94 56
-90 4 4 4 2 1 -4 -8 -15 47 -146 58 -136 4 4 5 2 2 -4 -4 -7 3 -38 14 -70 11
-33 22 -66 24 -74 2 -8 4 -15 5 -15 1 0 3 -7 6 -15 2 -8 19 -70 38 -136 19
-67 38 -143 41 -168 5 -28 11 -43 18 -39 6 3 7 1 3 -6 -4 -6 -2 -43 4 -81 10
-61 15 -70 33 -71 61 -3 85 -7 97 -14 9 -6 11 -4 5 6 -7 11 -6 12 6 3 17 -14
100 -23 92 -10 -4 5 -1 6 8 0 16 -10 33 -12 199 -19 217 -11 402 -6 393 9 -5
8 -3 8 8 1 16 -11 14 -11 116 0 49 5 71 11 66 19 -4 8 -3 8 6 0 12 -11 64 -7
57 5 -2 3 12 6 32 5 43 -1 73 6 68 15 -3 4 5 7 17 7 41 -1 127 26 120 37 -3 6
-1 7 6 3 14 -9 81 14 81 28 0 5 3 7 6 3 14 -13 177 79 168 95 -4 6 -3 8 3 5 6
-4 20 5 33 18 13 13 28 22 34 18 6 -3 8 -3 4 1 -3 4 16 35 43 69 27 34 49 67
49 74 0 22 2 28 10 33 12 8 41 120 34 132 -4 6 -3 8 2 5 11 -6 58 198 58 255
1 20 4 34 7 32 3 -2 7 11 8 29 1 18 4 48 6 67 3 19 5 96 5 171 1 120 -4 179
-26 294 -8 48 -35 149 -42 160 -4 5 -7 15 -8 20 -3 21 -69 172 -102 235 -33
61 -160 258 -185 286 -7 7 -16 19 -22 26 -48 62 -106 129 -135 156 -125 120
-317 232 -565 330 -87 35 -362 128 -405 137 -8 2 -51 13 -95 24 -44 12 -90 24
-103 27 -12 2 -62 14 -110 25 -87 21 -104 25 -152 34 -14 3 -36 7 -50 10 -14
3 -41 8 -60 11 -19 3 -42 7 -50 9 -8 2 -30 7 -47 10 -18 3 -46 7 -63 10 -16 3
-43 7 -60 10 -74 12 -88 14 -135 21 -27 3 -58 8 -69 10 -10 2 -44 6 -75 9 -31
4 -67 8 -81 10 -14 2 -52 7 -85 10 -33 3 -73 8 -90 10 -16 2 -66 7 -110 10
-44 4 -96 9 -115 11 -75 7 -300 17 -402 18 -64 1 -106 5 -105 11 2 12 69 74
80 75 5 0 5 5 1 12 -4 6 -3 8 3 5 6 -4 40 8 76 27 37 18 64 30 62 25 -3 -4 8
-2 24 4 17 6 28 13 26 16 -1 4 20 7 48 8 77 2 121 8 136 17 10 6 12 5 7 -2 -8
-14 20 -12 43 2 9 6 12 5 8 -1 -5 -7 19 -10 73 -9 44 0 80 -1 80 -4 0 -3 28
-6 63 -7 66 -1 156 -9 222 -20 22 -3 61 -7 87 -7 27 -1 48 -5 48 -9 0 -5 3 -6
8 -3 4 2 26 1 49 -4 30 -5 41 -4 36 4 -5 7 -2 7 8 -1 18 -14 70 -20 88 -9 10
6 12 5 7 -2 -7 -12 1 -13 77 -16 15 0 27 -3 27 -7 0 -3 12 -6 28 -6 32 -1 92
-12 104 -19 4 -3 8 -1 8 4 0 15 -139 142 -282 257 -9 7 -68 49 -130 93 -258
182 -535 311 -798 373 -43 10 -66 15 -120 24 -47 8 -238 23 -243 19z"/>
</g>
</svg>
