<svg xmlns="http://www.w3.org/2000/svg" viewBox="0 0 1024 1024">
<g transform="translate(0,1024) scale(0.1,-0.1)">
<path fill="currentColor" d="M4178 10220 c-163 -34 -315 -113 -435 -224 -124 -115 -215 -252 -262
-392 -19 -58 -24 -76 -39 -159 -9 -54 -9 -903 1 -982 10 -82 50 -240 84 -328
158 -420 505 -777 933 -958 125 -53 295 -101 405 -113 139 -17 356 -9 465 15
25 5 59 12 76 15 47 9 221 71 305 109 144 66 332 195 468 321 126 118 275 327
357 501 39 85 97 248 109 311 29 155 33 236 32 664 -3 486 -5 504 -76 670 -48
111 -99 187 -190 283 -114 120 -270 213 -421 252 -36 9 -74 20 -85 23 -11 3
-384 7 -830 8 -753 3 -816 1 -897 -16z m374 -1464 c150 -45 235 -159 243 -326
5 -115 -32 -147 -163 -137 -209 14 -329 133 -339 334 -4 93 -1 103 46 135 28
20 139 17 213 -6z m1240 -15 c30 -33 30 -36 25 -115 -9 -148 -69 -252 -173
-298 -60 -26 -75 -29 -176 -35 -74 -4 -90 -2 -112 13 -36 27 -49 73 -41 151
22 216 150 322 383 319 59 -1 66 -3 94 -35z M3290 10002 c-631 -285 -1071
-818 -1276 -1544 -29 -103 -70 -291 -80 -363 -3 -27 -8 -58 -10 -69 -2 -10 -6
-44 -10 -75 -3 -31 -8 -64 -10 -75 -16 -88 -23 -499 -11 -646 31 -360 140
-682 323 -955 61 -91 91 -131 164 -220 54 -65 468 -469 590 -575 9 -8 78 -73
153 -143 75 -71 145 -136 155 -145 11 -10 79 -74 153 -143 189 -179 233 -219
240 -219 4 0 7 37 8 83 2 45 4 111 6 147 1 36 6 144 9 240 4 96 9 216 11 265
3 50 7 153 10 230 10 258 16 399 20 500 2 55 7 172 10 260 4 88 8 196 10 240
2 44 7 161 10 260 4 99 8 193 9 208 1 22 -15 44 -75 105 -310 316 -497 706
-536 1119 -9 101 -9 825 0 923 21 222 80 392 196 564 29 42 48 76 44 76 -4 -1
-55 -22 -113 -48z M6707 10038 c4 -7 27 -41 51 -75 103 -148 173 -355 189
-562 15 -183 7 -926 -11 -1007 -2 -12 -7 -39 -10 -59 -49 -309 -241 -683 -478
-930 l-39 -40 7 -1150 c4 -632 7 -1205 7 -1273 1 -67 4 -121 8 -120 4 2 55 48
114 103 59 55 116 107 126 116 10 8 79 73 155 145 75 71 145 136 154 144 9 8
79 74 156 145 76 72 174 164 218 205 196 183 314 302 389 394 215 259 346 515
419 816 24 102 26 113 34 170 3 25 8 53 9 62 23 122 24 604 1 748 -3 14 -7 49
-10 78 -8 68 -15 122 -21 148 -3 12 -7 39 -11 60 -3 21 -12 68 -20 104 -9 36
-18 76 -20 90 -12 60 -79 274 -120 378 -233 599 -650 1042 -1204 1283 -101 43
-104 44 -93 27z M6050 7078 c-192 -125 -480 -239 -689 -274 -18 -3 -43 -7 -54
-9 -123 -24 -367 -24 -517 1 -215 34 -482 133 -678 249 -34 21 -64 36 -66 34
-2 -2 -7 -85 -11 -184 -3 -99 -8 -216 -10 -260 -2 -44 -7 -152 -10 -240 -3
-88 -8 -203 -10 -255 -2 -52 -7 -160 -10 -240 -3 -80 -8 -192 -10 -250 -3 -58
-7 -170 -10 -250 -3 -80 -8 -192 -10 -250 -2 -58 -7 -170 -10 -250 -3 -80 -8
-192 -10 -250 -2 -58 -7 -170 -10 -250 -3 -80 -8 -194 -10 -255 -3 -60 -7
-168 -10 -240 -3 -71 -7 -179 -10 -240 -2 -60 -7 -175 -10 -255 -3 -80 -8
-190 -10 -245 -2 -55 -7 -172 -10 -260 -4 -88 -8 -196 -10 -240 -2 -44 -7
-159 -10 -255 -4 -96 -8 -206 -10 -245 -26 -600 -25 -676 16 -877 120 -597
570 -1083 1140 -1232 95 -25 119 -30 219 -43 72 -10 2357 -10 2435 0 33 4 71
9 85 12 14 3 36 7 50 10 168 32 389 130 552 245 276 196 455 467 502 762 22
137 30 537 13 643 -76 488 -486 899 -1026 1029 -57 14 -129 28 -160 31 -31 4
-67 8 -81 11 -14 2 -297 4 -630 5 -635 1 -670 3 -728 46 -34 25 -60 77 -66
133 -6 46 -10 547 -22 2525 -4 633 -7 1263 -8 1402 -1 139 -4 254 -6 256 -3 2
-39 -18 -80 -45z M7268 3929 c-27 -14 -138 -125 -238 -239 -8 -9 -60 -65 -114
-124 -55 -59 -107 -115 -115 -125 -9 -10 -61 -66 -115 -125 -55 -59 -108 -117
-118 -129 -11 -12 -45 -48 -75 -80 -31 -32 -53 -60 -50 -63 3 -3 262 -7 576
-8 l571 -3 1 21 c0 11 3 32 5 46 14 69 6 390 -11 480 -3 13 -7 42 -11 65 -18
127 -52 222 -91 257 -53 48 -150 60 -215 27z M2629 2756 c-2 -2 -33 -7 -69
-11 -36 -4 -68 -9 -71 -11 -3 -2 -21 -6 -40 -9 -114 -19 -314 -97 -437 -169
-230 -137 -402 -314 -514 -532 -44 -84 -91 -214 -103 -279 -3 -16 -9 -48 -13
-70 -16 -90 -7 -499 14 -633 58 -365 316 -690 702 -882 140 -69 241 -102 462
-147 19 -3 451 -8 960 -10 l925 -4 -75 52 c-409 280 -683 692 -780 1166 -32
158 -35 202 -35 438 1 188 4 317 20 665 1 30 6 142 10 248 l7 192 -480 0
c-264 0 -481 -2 -483 -4z"/>
</g>
</svg>
