<svg viewBox="0 0 512 512" xmlns="http://www.w3.org/2000/svg" data-name="Layer 1"><path fill="currentColor" d="m165.614 441.117c15.857 13.479 36.309 20.466 60.792 20.819a131.75 131.75 0 0 0 7.761-11.16c-.4 0-.806.027-1.2.027a92.493 92.493 0 0 1 -59.067-21.275 105.534 105.534 0 0 1 -17.483-18.175 57.81 57.81 0 0 1 -6.7 10.9 71.562 71.562 0 0 0 15.897 18.864z"/><path fill="currentColor" d="m159.547 401.838a95.162 95.162 0 0 0 19.653 21.683c17.415 14.128 37.488 20.519 59.674 19.065a133.5 133.5 0 0 0 15.2-69.981l-2.949-101.451c-.007-.118-.009-.237 0-.356v-98.3a25.252 25.252 0 0 0 -18.09-25l-12.556 133.202a4 4 0 0 1 -7.965-.75l12.749-135.35c.007-.074.016-.147.027-.221a6.228 6.228 0 0 1 7.481-5.182 33.191 33.191 0 0 1 17.418 9.843l-1.707-44.247c0-.054 0-.107 0-.161.012-6.928-.986-12.81-2.966-17.482-4.666-11.013-8.711-11.488-18.693-11.117l-35.261 161.553a4 4 0 0 1 -3.915 3.2 4.043 4.043 0 0 1 -.8-.082 4 4 0 0 1 -3.117-4.72l35.456-162.712a5.917 5.917 0 0 1 5.45-5.165c8.494-.343 15.7-.632 21.726 5.469l-1.938-31.047-.009-.157c-.962-8.708-3.776-14.946-8.368-18.54-4.647-3.639-10.214-3.823-13.237-3.579l-66.261 236.093c-.014.05-.028.1-.045.149a22.779 22.779 0 0 0 -1 9.327c2.489 24.828 9.996 106.825 4.043 136.016z"/><path fill="currentColor" d="m219.871 469.7c-29.4-1.858-48.587-13.163-59.785-22.783a81.093 81.093 0 0 1 -15.875-18.253c-11.78 12.4-27.447 21.953-37.552 27.382l102.372 24.254a128.891 128.891 0 0 0 10.84-10.6z"/><path fill="currentColor" d="m280.287 68.215a6.326 6.326 0 0 1 4.774 5.015l37.7 162.706a4 4 0 1 1 -7.817 1.7l-37.544-161.848c-4.43-.725-11.678.287-16.94 11.968-2.206 4.9-3.593 20.435-3.59 27l1.4 36.38a33.2 33.2 0 0 1 19.22-11.945 6.228 6.228 0 0 1 7.48 5.182c.007.055.015.11.021.165l14.669 135.352a4 4 0 1 1 -7.953.862l-14.437-133.258a25.25 25.25 0 0 0 -18.119 25.006l-.032 98.361 2.939 101.273a140.676 140.676 0 0 1 -1.583 30.7 208.645 208.645 0 0 0 15.314 36.985 84.754 84.754 0 0 0 25.146-3.165c19.968-5.547 36.561-17.333 49.364-35.009-5.88-29.352 1.6-111.045 4.075-135.819a22.787 22.787 0 0 0 -1-9.333l-76.309-236.154c-7.379-.527-22.119 1.168-24.624 22.215l2.407 38.57c8.667-15.495 21.511-13.853 25.439-12.909z"/><path fill="currentColor" d="m359.074 420.793a55.829 55.829 0 0 1 -5.8-9.851c-25.721 31.977-58.386 36.6-72.942 36.932 2.477 4.138 5.2 8.294 8.177 12.346 9.354-.267 50.365-3.546 70.565-39.427z"/><path fill="currentColor" d="m364.463 427.364c-10.405 16.941-26.523 29.289-46.984 35.856a107.767 107.767 0 0 1 -22.912 4.66c8.47 9.906 18.639 18.584 30.651 23.939l80.123-34.653c-10.241-5.338-28.141-15.856-40.878-29.802z"/></svg>