<svg viewBox="-80 0 464 464" xmlns="http://www.w3.org/2000/svg"><path fill="currentColor" d="m57.472656 104.953125-14.410156 15.054687 3.953125 4.128907c2.769531-6.824219 6.28125-13.25 10.457031-19.183594zm0 0"/><path fill="currentColor" d="m58.921875 103.015625c11.277344-15.214844 26.910156-26.960937 45.078125-33.414063v-37.601562h16.671875c.082031-.535156.199219-1.054688.296875-1.585938l-23.382812-6.183593-6.179688 22.273437-22.789062 2.335938 1.664062 23.167968-20.632812 10.097657zm0 0"/><path fill="currentColor" d="m70.976562 198.976562c-3.441406-14.832031-15.128906-26.511718-29.953124-29.953124 3.441406 14.832031 15.128906 26.519531 29.953124 29.953124zm0 0"/><path fill="currentColor" d="m200 32v37.601562c18.167969 6.453126 33.800781 18.199219 45.078125 33.414063l9.273437-20.894531-20.632812-10.097656 1.671875-23.167969-22.789063-2.335938-6.175781-22.28125-23.394531 6.1875c.097656.527344.214844 1.046875.296875 1.582031h16.671875zm0 0"/><path fill="currentColor" d="m0 416h40v16h-40zm0 0"/><path fill="currentColor" d="m0 448h40v16h-40zm0 0"/><path fill="currentColor" d="m256.976562 124.128906 3.953126-4.128906-14.410157-15.054688c4.183594 5.941407 7.695313 12.367188 10.457031 19.183594zm0 0"/><path fill="currentColor" d="m41.023438 246.976562c14.832031-3.441406 26.511718-15.128906 29.953124-29.953124-14.824218 3.441406-26.511718 15.128906-29.953124 29.953124zm0 0"/><path fill="currentColor" d="m51.304688 208c-4.6875-2.808594-8.921876-6.28125-12.585938-10.289062-4.824219 2.648437-9.117188 6.113281-12.703125 10.289062 3.585937 4.175781 7.878906 7.640625 12.703125 10.289062 3.671875-4.007812 7.90625-7.472656 12.585938-10.289062zm0 0"/><path fill="currentColor" d="m216 139.816406-7.3125 2.925782c2.609375 1.5625 5.054688 3.355468 7.3125 5.363281zm0 0"/><path fill="currentColor" d="m134.585938 138.574219c6.398437 2.128906 12.359374 5.457031 17.414062 10.160156 5.054688-4.703125 11.015625-8.03125 17.414062-10.160156l-17.414062-21.765625zm0 0"/><path fill="currentColor" d="m247.871094 157.542969c-1.3125-42.96875-36.589844-77.542969-79.871094-77.542969h-32c-43.28125 0-78.558594 34.574219-79.871094 77.542969 5.941406 2.855469 11.320313 6.679687 15.871094 11.34375v-52.695313l45.457031 18.175782 34.542969-43.167969 34.542969 43.167969 45.457031-18.175782v52.695313c4.558594-4.664063 9.9375-8.488281 15.871094-11.34375zm0 0"/><path fill="currentColor" d="m265.28125 218.296875c4.824219-2.648437 9.117188-6.113281 12.703125-10.289063-3.585937-4.175781-7.878906-7.640624-12.703125-10.289062-3.664062 4.007812-7.898438 7.480469-12.585938 10.289062 4.679688 2.808594 8.914063 6.273438 12.585938 10.289063zm0 0"/><path fill="currentColor" d="m95.3125 142.742188-7.3125-2.925782v8.289063c2.257812-2.015625 4.703125-3.808594 7.3125-5.363281zm0 0"/><path fill="currentColor" d="m233.023438 217.023438c3.441406 14.832031 15.128906 26.511718 29.953124 29.953124-3.441406-14.824218-15.128906-26.511718-29.953124-29.953124zm0 0"/><path fill="currentColor" d="m233.023438 198.976562c14.832031-3.441406 26.511718-15.128906 29.953124-29.953124-14.824218 3.441406-26.511718 15.128906-29.953124 29.953124zm0 0"/><path fill="currentColor" d="m168 64c5.464844 0 10.785156.566406 16 1.449219v-17.449219h-64v17.449219c5.214844-.882813 10.535156-1.449219 16-1.449219zm0 0"/><path fill="currentColor" d="m88 400h16v24h-16zm0 0"/><path fill="currentColor" d="m264 329.894531c0-10.460937-2.480469-20.941406-7.160156-30.308593-5.785156-11.59375-8.839844-24.546876-8.839844-37.472657v-3.59375c-6.558594-3.128906-12.40625-7.488281-17.265625-12.792969-3.566406 20.488282-14.925781 38.289063-30.941406 50.28125h.207031v8.808594c10.601562 2.160156 19.65625 8.550782 25.40625 17.304688l38.59375 9.640625zm0 0"/><path fill="currentColor" d="m200 360h16v24h-16zm0 0"/><path fill="currentColor" d="m200 321.480469v22.527343h16c0-10.421874-6.710938-19.214843-16-22.527343zm0 0"/><path fill="currentColor" d="m200 400h16v24h-16zm0 0"/><path fill="currentColor" d="m264 448h40v16h-40zm0 0"/><path fill="currentColor" d="m273.703125 350.671875-42.09375-10.527344c.125 1.296875.390625 2.535157.390625 3.855469v120h16v-80h16v16h40v-10.519531c0-18.390625-12.464844-34.34375-30.296875-38.808594zm0 0"/><path fill="currentColor" d="m264 416h40v16h-40zm0 0"/><path fill="currentColor" d="m0 389.480469v10.519531h40v-16h16v80h16v-120c0-1.320312.265625-2.566406.390625-3.855469l-42.09375 10.527344c-17.832031 4.464844-30.296875 20.417969-30.296875 38.808594zm0 0"/><path fill="currentColor" d="m200 440h16v24h-16zm0 0"/><path fill="currentColor" d="m73.265625 245.726562c-4.859375 5.304688-10.707031 9.664063-17.265625 12.792969v3.59375c0 12.925781-3.054688 25.878907-8.839844 37.472657-4.679687 9.359374-7.160156 19.847656-7.160156 30.308593v1.875l38.59375-9.648437c5.75-8.753906 14.804688-15.144532 25.40625-17.304688v-8.808594h.207031c-16.015625-11.992187-27.375-29.792968-30.941406-50.28125zm0 0"/><path fill="currentColor" d="m88 360h16v24h-16zm0 0"/><path fill="currentColor" d="m88 344h16v-22.527344c-9.289062 3.320313-16 12.113282-16 22.527344zm0 0"/><path fill="currentColor" d="m216 216v-32.398438c0-17.425781-14.175781-31.601562-31.601562-31.601562-8.4375 0-16.375 3.289062-22.34375 9.257812l-10.054688 10.054688-10.054688-10.054688c-5.96875-5.96875-13.90625-9.257812-22.34375-9.257812-17.425781 0-31.601562 14.175781-31.601562 31.601562v48.398438c0 35.289062 28.710938 64 64 64s64-28.710938 64-64zm-72-32h16v16h-16zm-32 32c-4.414062 0-8-3.585938-8-8s3.585938-8 8-8 8 3.585938 8 8c0 4.425781-3.585938 8-8 8zm40 64c-17.648438 0-32-14.351562-32-32h16c0 8.824219 7.175781 16 16 16s16-7.175781 16-16h16c0 17.648438-14.351562 32-32 32zm40-64c-4.414062 0-8-3.585938-8-8s3.585938-8 8-8 8 3.585938 8 8c0 4.425781-3.585938 8-8 8zm0 0"/><path fill="currentColor" d="m88 440h16v24h-16zm0 0"/><path fill="currentColor" d="m120 305.273438v11.0625c4.761719 3.777343 16.535156 11.664062 32 11.664062 15.625 0 27.273438-7.847656 32-11.640625v-11.085937c-9.808594 4.300781-20.625 6.726562-32 6.726562s-22.191406-2.425781-32-6.726562zm0 0"/><path fill="currentColor" d="m120 335.449219v128.550781h64v-128.550781c-7.902344 4.367187-18.847656 8.550781-32 8.550781s-24.097656-4.183594-32-8.550781zm0 0"/><path fill="currentColor" d="m156.03125 2.6875-4.03125-2.6875-4.03125 2.6875c-10.214844 6.816406-17.007812 17.457031-19.167969 29.3125h46.398438c-2.160157-11.855469-8.953125-22.496094-19.167969-29.3125zm0 0"/></svg>