<svg viewBox="0 0 56 50" xmlns="http://www.w3.org/2000/svg"><g><path fill="currentColor" d="m25.17 47.2.83-4.61c.0625215-.3572656-.0703052-.7207475-.3484455-.9535255-.2781404-.2327779-.6593382-.2994876-1.0000001-.175-.3406618.1244877-.5890329.4212599-.6515544.7785255l-.86 4.86c-.1838229.0394608-.3643515.0929507-.54.16l-2 .81c-.4530346.1782306-.7118873.6568132-.6130889 1.1335158.0987985.4767026.5265355.8129868 1.0130889.7964842.1298856.0001451.2586918-.0235823.38-.07l2-.81c.6157493-.2697838 1.3355834-.1030426 1.77.41.1893508.3036758.5263272.4832663.8839935.4711216s.6816845-.2141795.85-.53c.1683155-.3158204.1553573-.6974458-.0339935-1.0011216-.3927376-.6081791-.9877723-1.0579969-1.68-1.27z"/><path fill="currentColor" d="m35.38 48.07-2-.81c-.1756485-.0670493-.3561771-.1205392-.54-.16l-.84-4.86c-.0625215-.3572656-.3108926-.6540378-.6515544-.7785255-.3406619-.1244876-.7218597-.0577779-1.0000001.175-.2781403.232778-.410967.5962599-.3484455.9535255l.81 4.61c-.6922277.2120031-1.2872624.6618209-1.68 1.27-.2927109.469442-.149442 1.087289.32 1.38.469442.2927109 1.0872891.149442 1.38-.32.4344166-.5130426 1.1542507-.6797838 1.77-.41l2 .81c.1275762.0488935.2634014.0726629.4.07.4825282.006101.9005823-.3332612.9938056-.8067377.0932234-.4734766-.16498-.9459879-.6138056-1.1232623z"/><path fill="currentColor" d="m26.26 14.24c-.1632426 1.2468604-.2500714 2.502538-.26 3.76 0 .78 0 1.6-.07 2.46 1.1047178.6202656 2.4483445.6390839 3.57.05-.2362568-.93985-.4033703-1.8957396-.5-2.86-.031574-.6841674.2891393-1.3369132.85-1.73.5189835-.3395755.8932168-.859938 1.05-1.46.2434942-.8684251 1.0381074-1.466433 1.94-1.46h2.16c-.11 0-.17-.09-1-.6-.7200586-.4316609-1.4932128-.7678149-2.3-1-.6026991-.1496094-1.2137838-.2631443-1.83-.34-.7548148-.167241-1.5414563-.1187257-2.27.14-1.19.58-1.19 1.8-1.34 3.04z"/><path fill="currentColor" d="m31.9 9.41c1.161361.23342239 2.2634777.6994409 3.24 1.37.5544599-.6300894.8602134-1.44069175.86-2.28 0-1.93299662-1.5670034-3.5-3.5-3.5s-3.5 1.56700338-3.5 3.5v.5c.9758577.06104598 1.9454659.19812853 2.9.41z"/><path fill="currentColor" d="m16.43 9 7 15.09c-.0034553-.0265547-.0034553-.0534453 0-.08.4048098-1.9771205.5959076-3.9920294.57-6.01.010919-1.357759.1044251-2.7135965.28-4.06-.2580893.039863-.5188503.0599215-.78.06-3.0375661 0-5.4999999-2.4624339-5.4999999-5.5 0-3.03756609 2.4624338-5.49999995 5.4999999-5.5 1.2783328-.00347315 2.5172095.44252245 3.5 1.26v-1.72c-1.2043596-1.55009264-3.0378965-2.48152937-5-2.54-.5033903-.00048482-1.0045559.06678572-1.49.2-1.7677517.49127614-3.2303509 1.73448545-4 3.4-.8206437 1.70037535-.8499131 3.67606085-.08 5.4z"/><path fill="currentColor" d="m38 8.5c.0026229 1.27818545-.4432715 2.516781-1.26 3.5.3579838.620033.3572289 1.3841275-.0019793 2.003452s-1.0220701.9993969-1.7380207.996548h-2.16c-.2754807 1.0595227-.930201 1.9811127-1.84 2.59.1398763 1.0529377.3503504 2.0952858.63 3.12.0009698.0166526.0009698.0333474 0 .05.25 1 .58 2.09 1 3.32l7.71-16.71c.7266799-1.55214313.6077616-3.36832485-.3151059-4.81246041-.9228675-1.44413557-2.5210806-2.31498142-4.2348941-2.30753959-.086388.0098286-.173612.0098286-.26 0-2.4419721-.5894433-5.0018803.31612912-6.53 2.31v1.7c.9827905-.81747755 2.2216672-1.26347315 3.5-1.26 3.0352835.0055037 5.4944963 2.46471651 5.5 5.5z"/><path fill="currentColor" d="m23.53 6.07c.2386162-.11718945.5140741-.13454422.7655117-.04822981.2514377.08631441.4581586.26919327.5744883.50822981l1.5 3.05c.15-.09.53-.27.63-.31v-.79c-.0110308-1.93035468-1.582885-3.48731804-3.5132572-3.47997467-1.9303722.00734336-3.4903353 1.57622054-3.4866794 3.50660327.003656 1.9303827 1.5695504 3.4933399 3.4999366 3.4933714.3899083-.0064228.7757011-.080874 1.14-.22.00181-.026636.00181-.053364 0-.08-.0009698-.0166526-.0009698-.0333474 0-.05l-2-.71c-.3661635-.0938523-.6481142-.3861495-.7287153-.7554562-.0806011-.36930664.0539241-.7524996.3476868-.99038067.2937628-.23788106.6965521-.28979076 1.0410285-.13416313l.67.23-.93-1.88c-.1151952-.2423236-.1281788-.52077412-.0360326-.77276567.0921461-.25199154.2816914-.45638299.5260326-.56723433z"/><path fill="currentColor" d="m43.65 16.35c1.8488421-.005519 3.3436699-1.5078001 3.3399934-3.3566468-.0036766-1.8488467-1.5044673-3.34517079-3.3533168-3.34333663-1.8488494.00183417-3.3466684 1.50113303-3.3466766 3.34998343-.000004.8902106.3543138 1.7438152.9847252 2.3723503.6304113.6285351 1.4850682.980307 2.3752748.9776497z"/><circle cx="49.05" cy="23.05" r="2.95"/><path fill="currentColor" d="m49 13c-.0058995 2.4850647-1.7222071 4.6388913-4.1432365 5.1994252s-4.9092904-.6198211-6.0067635-2.8494252l-5.24 11.35c.13.32.27.64.4.95.1-.07 14-9.85 14.45-10.29 1.2019128-1.0912913 1.9511877-2.5934091 2.1-4.21.1798365-2.0384229-.6660016-4.03277832-2.2564625-5.32038979-1.5904609-1.28761146-3.7171942-1.69980186-5.6735375-1.09961021-.0817036.37570564-.1954531.74371866-.34 1.1.4392147-.12467274.8934358-.18860017 1.35-.19 2.9602463 0 5.36 2.3997537 5.36 5.36z"/><path fill="currentColor" d="m13.84 34.47 5.27-.4c.1049435-.5145642.2521081-1.0196062.44-1.51l-12.16-1.06c1.48354945 2.0487714 3.9287955 3.1747219 6.45 2.97z"/><path fill="currentColor" d="m35 35c-.1359588-1.0685566-.5083151-2.0933905-1.09-3-.37-.72-.63-1.19-1.21-2.43-.8618418-1.839027-1.6099168-3.7292523-2.24-5.66v-.05c-.16-.49-.31-1-.44-1.42-.7115388.3039188-1.4762985.4636686-2.25.47-.6839407-.0069162-1.3611827-.1355922-2-.38-.3137897 2.8584641-1.3045085 5.6009382-2.89 8-.76 1.1-1.88 3.21-1.88 4.47 0 3.8659932 3.1340068 7 7 7s7-3.1340068 7-7z"/><path fill="currentColor" d="m36.9 34.07 5.26.4c2.5110561.201969 4.9476985-.9104112 6.44-2.94l-12.19 1.06c.2154812.4745117.3797434.9706505.49 1.48z"/><path fill="currentColor" d="m55.78 21.56c-.5790977-2.1908858-2.3091017-3.8902024-4.51-4.43-.2734249.4123683-.5776245.8034821-.91 1.17 2.4733602.6804696 4.0143232 3.1408548 3.5468966 5.6631676-.4674266 2.5223127-2.7876874 4.2671488-5.3406374 4.0161593-2.5529499-.2509896-4.4889891-2.4142776-4.4562592-4.9793269l-9.24 6.55c.22.44.32.63.59 1.15l14.87-1.29c1.8280667-.167787 3.4890805-1.1332767 4.539614-2.6387201 1.0505334-1.5054433 1.3836375-3.3975795.910386-5.1712799z"/><path fill="currentColor" d="m9 13c-.00404402 1.3608047.81310774 2.5896792 2.0695577 3.1123064 1.25645.5226272 2.7040678.235796 3.6663062-.7264425.9622385-.9622384 1.2490697-2.4098562.7264425-3.6663062s-1.7515017-2.07360172-3.1123064-2.0695577c-1.8501539 0-3.35 1.4998461-3.35 3.35z"/><path fill="currentColor" d="m8.11 17.81 14 9.93.37-.82-5.33-11.58c-1.1571315 2.3790887-3.8793937 3.5551906-6.404848 2.7670934-2.52545419-.7880971-4.09567203-3.3037169-3.69435625-5.9186666.40131579-2.6149497 2.65364457-4.54392409 5.29920425-4.5384268.5645686.00597826 1.124707.10045944 1.66.28-.07-.38-.12-.88-.13-1-.7282754-.27698578-1.5008301-.41929851-2.28-.42-1.73075537-.00359242-3.38344218.71991852-4.5548519 1.99401676-1.17140973 1.27409824-1.75382319 2.98162164-1.6051481 4.70598324.18820966 1.8455825 1.16078258 3.5211763 2.67 4.6z"/><path fill="currentColor" d="m21.14 29.49-9.25-6.55v.11c.0488756 2.6110937-1.91997487 4.819995-4.51948205 5.0705171-2.59950719.250522-4.95396044-1.5417301-5.40463034-4.1141017-.4506699-2.5723715 1.15426325-5.0582933 3.68411239-5.7064154-.33548032-.3735302-.6429796-.7712739-.92-1.19-2.93602685.7456128-4.9102106 3.4950433-4.67825719 6.5153727.2319534 3.0203294 2.60280895 5.4360722 5.61825719 5.7246273l14.77 1.28c.18-.31.63-1.04.7-1.14z"/><circle cx="6.95" cy="23.05" r="2.95"/></g></svg>