<svg xmlns="http://www.w3.org/2000/svg" viewBox="0 0 1024 1024">
<g transform="translate(0,1024) scale(0.1,-0.1)">
<path fill="currentColor" d="M8784 9901 c-143 -48 -248 -155 -305 -311 -20 -54 -24 -83 -24 -175
1 -119 2 -131 34 -217 12 -32 30 -84 42 -115 22 -60 30 -178 17 -258 -29 -176
-161 -381 -394 -611 -152 -150 -165 -171 -149 -246 15 -68 85 -128 150 -128
36 0 156 42 287 101 525 237 873 573 969 934 24 92 34 281 18 360 -5 28 -12
64 -15 80 -28 166 -109 348 -203 457 -105 121 -288 176 -427 129z M7480 7654
c-85 -13 -175 -26 -200 -29 -25 -4 -72 -10 -105 -15 -33 -5 -76 -12 -95 -14
-48 -7 -187 -27 -213 -31 -12 -2 -44 -6 -70 -10 -27 -4 -57 -8 -66 -10 -10 -2
-42 -6 -71 -10 -29 -4 -61 -8 -70 -10 -9 -2 -41 -6 -70 -10 -29 -4 -61 -8 -70
-10 -9 -2 -41 -6 -70 -10 -29 -4 -61 -8 -70 -10 -9 -2 -41 -6 -70 -10 -29 -4
-61 -8 -70 -10 -9 -2 -41 -6 -70 -10 -29 -4 -61 -8 -70 -10 -9 -2 -41 -6 -70
-10 -29 -4 -61 -8 -70 -10 -9 -2 -41 -6 -70 -10 -29 -4 -61 -8 -70 -10 -9 -2
-41 -6 -70 -10 -29 -4 -61 -8 -70 -10 -9 -2 -41 -6 -70 -10 -29 -4 -61 -8 -70
-10 -9 -2 -41 -6 -70 -10 -29 -4 -60 -8 -69 -10 -9 -1 -38 -6 -65 -9 -103 -14
-159 -72 -158 -163 2 -55 23 -90 102 -168 l60 -60 -1469 -1470 c-1378 -1380
-1471 -1474 -1499 -1535 -16 -36 -35 -87 -40 -115 -23 -109 5 -262 65 -358 14
-23 87 -104 162 -180 l135 -138 -769 -769 c-616 -616 -775 -770 -795 -770 -48
0 -145 -30 -230 -72 -218 -107 -356 -344 -345 -593 5 -110 24 -187 70 -274
111 -211 313 -339 545 -347 339 -11 626 228 666 556 6 44 18 57 772 813 422
422 770 766 774 765 4 -2 64 -60 135 -129 143 -140 191 -176 278 -209 75 -28
198 -34 275 -14 141 37 54 -45 1635 1535 l1470 1468 77 -74 c83 -80 118 -96
182 -84 69 12 119 66 130 139 2 19 7 55 11 80 3 25 8 56 10 70 2 14 7 45 10
70 3 25 8 56 10 70 2 14 7 45 10 70 3 25 8 56 10 70 2 14 7 45 10 70 3 25 8
56 10 70 2 14 7 45 10 70 3 25 8 56 10 70 2 14 7 45 10 70 3 25 8 56 10 70 2
14 6 43 9 65 4 22 51 355 106 740 55 385 103 723 106 751 8 66 -13 114 -64
152 -51 36 -90 37 -292 6z m6 -357 c-2 -17 -7 -52 -11 -77 -3 -25 -8 -56 -10
-70 -4 -25 -202 -1416 -210 -1480 -3 -19 -7 -46 -10 -60 -2 -14 -7 -45 -10
-70 -8 -67 -11 -79 -16 -85 -3 -2 -366 357 -807 800 -441 442 -799 806 -795
808 5 3 37 8 73 12 36 4 74 9 85 11 11 2 40 7 65 10 53 7 96 13 130 19 14 2
48 7 75 10 28 3 57 8 65 10 8 2 40 6 71 10 31 3 65 7 75 9 11 2 42 7 69 10 53
7 95 14 135 21 14 2 49 7 79 10 30 4 62 8 71 10 9 2 41 6 70 10 29 4 61 8 70
10 9 2 41 6 70 10 29 4 61 8 70 10 9 2 41 6 70 10 29 4 61 8 70 10 9 2 41 6
70 10 29 4 61 8 70 10 9 2 41 6 70 10 29 4 61 8 70 10 9 2 41 6 71 10 30 4 55
8 56 9 1 1 14 3 28 4 24 2 26 -1 21 -31z m-616 -1962 c0 -12 -441 -455 -454
-455 -5 0 -318 310 -697 688 l-688 688 232 232 232 232 687 -687 c379 -379
688 -692 688 -698z m-792 -802 c-62 -62 -117 -113 -123 -113 -12 0 -1375 1364
-1375 1376 0 5 51 59 112 121 l113 113 692 -692 693 -693 -112 -112z m-655
-655 c-170 -170 -311 -308 -314 -308 -4 0 -17 21 -29 48 -29 61 -96 155 -154
214 -105 106 -185 157 -341 213 -124 45 -165 69 -237 139 -70 69 -97 113 -141
237 -44 121 -69 170 -122 239 -91 117 -187 201 -288 251 -34 17 -64 33 -67 36
-2 2 135 143 305 313 l310 310 692 -692 693 -693 -307 -307z m-1855 781 c101
-38 158 -75 222 -146 60 -65 80 -102 126 -231 53 -150 127 -260 240 -357 103
-90 162 -123 309 -176 113 -41 176 -80 243 -154 58 -63 86 -114 122 -218 l24
-68 -99 -99 c-55 -55 -102 -100 -105 -100 -3 0 -16 21 -29 48 -54 110 -175
250 -281 322 -74 50 -119 72 -225 109 -117 42 -160 67 -233 141 -66 67 -92
114 -152 271 -74 194 -224 366 -394 451 -34 17 -63 32 -65 35 -7 6 192 203
205 203 7 0 48 -14 92 -31z m-455 -460 c160 -62 273 -174 325 -324 58 -169
109 -258 203 -356 112 -116 201 -171 374 -234 112 -40 162 -73 236 -153 56
-60 90 -122 124 -225 l19 -57 -194 -196 c-107 -107 -209 -204 -226 -215 -38
-23 -96 -30 -144 -15 -26 8 -179 155 -637 613 -618 618 -623 623 -623 696 0
50 40 101 233 294 111 112 207 203 215 203 7 0 50 -14 95 -31z M8415 7666
c-81 -37 -117 -132 -79 -212 9 -18 54 -65 100 -104 175 -148 303 -296 373
-430 83 -162 87 -274 17 -439 -42 -98 -58 -172 -55 -258 5 -133 61 -256 156
-343 95 -87 186 -121 311 -116 173 5 331 129 421 328 32 70 69 184 77 238 3
19 10 55 14 80 9 48 6 215 -4 265 -53 247 -248 489 -556 691 -184 120 -594
302 -700 310 -25 2 -58 -2 -75 -10z"/>
</g>
</svg>
