<svg xmlns="http://www.w3.org/2000/svg" viewBox="0 0 1024 1024">
<g transform="translate(0,1024) scale(0.1,-0.1)">
<path fill="currentColor" d="M4970 9905 c-164 -32 -311 -115 -432 -243 -71 -76 -74 -78 -108 -71
-39 9 -216 5 -270 -6 -74 -15 -204 -69 -273 -115 -165 -108 -284 -268 -337
-454 -10 -36 -17 -66 -15 -68 2 -2 -5 -4 -16 -5 -11 -1 -55 -14 -98 -28 -191
-63 -370 -223 -459 -408 -31 -63 -67 -175 -60 -183 3 -2 297 -4 655 -4 l651
-1 42 -30 c75 -54 70 32 70 -1250 0 -1281 -5 -1191 68 -1247 26 -20 48 -27 86
-28 61 -2 98 16 137 70 l28 38 1 693 c0 585 3 701 15 750 62 237 291 393 529
358 194 -28 351 -168 401 -358 9 -38 15 -104 15 -183 0 -141 11 -176 68 -220
26 -20 48 -27 86 -28 61 -2 98 16 137 70 l28 38 1 599 c0 393 4 608 11 626 6
16 20 39 32 52 48 52 39 51 732 51 453 0 645 3 645 11 0 22 -50 159 -76 205
-66 120 -167 229 -280 300 -71 44 -217 104 -254 104 -14 0 -22 13 -35 58 -86
307 -323 527 -630 588 -44 8 -113 12 -187 9 -96 -3 -119 -1 -126 11 -35 62
-191 189 -288 235 -147 68 -344 94 -494 64z M2781 7984 c-142 -50 -231 -185
-218 -329 11 -116 79 -214 183 -266 l49 -24 603 -3 602 -3 0 321 0 320 -587 0
c-504 -1 -594 -3 -632 -16z M6240 7680 l0 -320 578 0 c635 0 633 0 725 61 122
81 170 258 106 394 -28 60 -92 125 -154 155 l-50 25 -602 3 -603 3 0 -321z
M3000 7033 c0 -5 34 -149 77 -320 l78 -313 422 0 423 0 0 320 0 320 -500 0
c-275 0 -500 -3 -500 -7z M4960 6720 l0 -320 1063 0 1062 0 78 313 c43 171 77
315 77 320 0 4 -224 7 -498 7 l-498 0 -13 -75 c-35 -209 -197 -368 -407 -398
-254 -37 -497 145 -536 401 l-12 72 -158 0 -158 0 0 -320z M2645 5852 c-299
-251 -496 -442 -625 -605 -47 -59 -86 -112 -88 -117 -2 -7 1149 -10 3187 -10
1755 0 3191 3 3191 6 0 8 -118 159 -177 225 -111 126 -283 287 -508 474 -132
110 -253 212 -270 227 l-30 28 -1182 0 -1183 0 0 -102 c0 -183 -45 -302 -151
-403 -107 -102 -264 -152 -404 -128 -148 25 -286 127 -350 257 -43 87 -55 149
-55 277 l0 99 -542 -1 -543 0 -270 -227z M1657 4683 c-120 -253 -224 -567
-252 -768 -3 -23 -7 -50 -9 -60 -10 -52 -25 -195 -31 -288 -4 -63 -3 -66 14
-57 11 5 175 111 365 235 191 124 357 230 369 236 35 19 91 22 128 6 19 -8
234 -145 478 -305 262 -171 449 -288 455 -283 6 4 213 139 459 300 467 305
488 317 554 293 16 -5 97 -54 179 -107 82 -54 187 -123 234 -153 47 -31 183
-120 302 -198 l217 -142 43 27 c24 15 227 148 452 295 225 148 422 273 438
278 16 6 47 7 69 4 44 -7 38 -3 304 -178 212 -139 376 -246 541 -354 l111 -72
444 290 c243 159 452 294 463 300 34 18 91 20 127 5 19 -8 183 -111 364 -228
182 -118 347 -225 367 -237 l38 -23 -5 78 c-3 43 -7 98 -10 123 -10 83 -17
135 -21 155 -2 10 -6 37 -9 60 -28 201 -132 517 -252 768 l-56 117 -3407 0
-3407 0 -56 -117z M1779 3386 c-309 -201 -404 -267 -403 -282 2 -34 15 -148
19 -169 3 -11 7 -37 10 -57 34 -244 148 -604 273 -858 l47 -95 3395 0 3395 0
42 85 c116 235 220 548 267 810 24 130 25 140 32 215 3 38 7 74 8 79 2 13
-807 535 -819 528 -5 -3 -82 -53 -170 -111 -598 -392 -740 -481 -772 -487 -66
-12 -27 -35 -716 416 l-289 189 -201 -133 c-777 -509 -715 -471 -777 -471
l-55 0 -383 250 c-210 138 -418 273 -461 302 l-79 51 -457 -299 c-279 -182
-470 -301 -491 -305 -19 -3 -48 -4 -64 0 -16 3 -213 125 -437 272 -225 147
-431 282 -459 300 l-50 32 -405 -262z m475 -526 c66 -33 100 -103 84 -173 -12
-53 -35 -83 -84 -107 -48 -24 -82 -25 -130 -5 -63 26 -96 75 -97 144 -1 120
121 196 227 141z m1974 -7 c51 -38 67 -70 67 -133 0 -65 -18 -99 -74 -137 -43
-29 -123 -27 -169 5 -105 75 -83 235 38 285 28 12 111 0 138 -20z m1967 -7
c39 -30 69 -100 62 -145 -14 -84 -93 -146 -176 -138 -94 10 -161 108 -137 201
8 34 54 86 91 103 43 19 120 10 160 -21z m1929 15 c140 -69 108 -273 -48 -298
-76 -12 -158 44 -174 121 -27 133 101 236 222 177z M1930 1593 c0 -4 39 -59
87 -122 107 -141 351 -389 492 -500 337 -266 721 -459 1111 -557 76 -19 246
-54 289 -59 30 -4 63 -9 75 -11 82 -16 282 -19 1126 -19 985 0 1051 2 1250 35
135 23 129 22 255 54 398 101 781 292 1115 555 142 113 386 361 493 502 48 63
87 118 87 122 0 4 -1435 7 -3190 7 -1754 0 -3190 -3 -3190 -7z"/>
</g>
</svg>
