<svg xmlns="http://www.w3.org/2000/svg" viewBox="0 0 1024 1024">
<g transform="translate(0,1024) scale(0.1,-0.1)">
<path fill="currentColor" d="M95 10226 c-86 -37 -121 -155 -70 -233 8 -12 70 -59 138 -104 128
-86 267 -194 354 -278 33 -32 63 -51 85 -55 201 -34 469 -127 667 -232 46 -24
87 -44 91 -44 4 0 27 30 51 67 24 37 64 95 90 129 l47 62 -67 65 c-306 296
-741 523 -1172 611 -142 29 -171 31 -214 12z M3310 10237 c-3 -3 -21 -8 -40
-11 -383 -64 -772 -242 -1095 -503 -179 -144 -381 -368 -503 -557 l-44 -70 33
-28 c19 -16 48 -40 66 -54 l32 -26 83 67 c185 149 427 292 633 373 93 37 278
95 335 106 138 26 144 28 205 87 108 103 187 164 357 278 124 82 142 105 143
183 0 61 -17 93 -68 132 -24 18 -125 35 -137 23z M6815 10226 c-86 -37 -121
-155 -70 -233 8 -12 70 -59 138 -104 128 -86 267 -194 354 -278 36 -35 62 -51
88 -55 65 -11 236 -56 330 -88 285 -97 516 -229 792 -454 l33 -26 32 25 c18
14 48 38 67 54 l34 29 -60 90 c-185 275 -420 508 -693 686 -236 155 -558 287
-833 343 -141 28 -169 30 -212 11z M10000 10230 c-19 -5 -50 -12 -69 -15 -139
-23 -383 -106 -556 -189 -220 -105 -427 -246 -597 -405 l-87 -82 48 -62 c26
-34 66 -93 90 -130 24 -37 47 -67 51 -67 4 0 49 22 101 49 157 83 422 181 549
205 138 26 144 28 205 87 108 103 187 164 357 278 124 82 142 105 143 183 0
61 -17 93 -68 132 -30 22 -112 30 -167 16z M100 9269 c-104 -44 -133 -176 -57
-258 12 -12 76 -50 141 -83 225 -113 381 -222 531 -373 307 -307 490 -678 547
-1107 l12 -88 479 0 479 0 -6 58 c-69 624 -404 1173 -926 1519 -203 135 -490
255 -715 299 -11 2 -31 6 -45 9 -14 3 -45 8 -70 11 -25 3 -56 7 -70 10 -63 11
-277 13 -300 3z M3198 9275 c-2 -2 -34 -6 -73 -9 -62 -6 -208 -33 -272 -50
-13 -3 -33 -8 -45 -11 -87 -19 -306 -106 -417 -166 -141 -76 -399 -257 -401
-281 0 -4 35 -54 78 -110 133 -176 257 -395 326 -578 l24 -64 37 74 c80 159
204 329 340 466 159 160 292 254 524 374 157 80 187 108 197 181 8 60 -14 110
-66 148 -40 29 -45 30 -145 29 -58 -1 -106 -2 -107 -3z M6820 9269 c-104 -44
-133 -176 -57 -258 12 -12 76 -50 141 -83 66 -33 155 -82 200 -110 281 -174
537 -452 682 -740 l36 -72 25 64 c67 180 191 400 325 578 43 57 78 107 78 110
-1 12 -151 127 -240 185 -211 136 -489 252 -704 293 -12 2 -32 6 -46 9 -14 3
-45 8 -70 11 -25 3 -56 7 -70 10 -63 11 -277 13 -300 3z M9918 9275 c-2 -1
-33 -6 -70 -9 -140 -14 -262 -41 -413 -91 -569 -186 -1031 -611 -1268 -1166
-76 -177 -134 -401 -152 -581 l-7 -68 481 0 481 0 1 33 c0 17 2 43 5 57 2 14
9 57 15 95 37 226 144 492 283 705 192 293 427 498 769 672 152 77 183 106
193 180 8 57 -15 108 -64 146 -33 25 -43 27 -143 28 -59 1 -109 1 -111 -1z
M1279 6913 c0 -71 -2 -135 -3 -143 -2 -8 -6 -40 -10 -70 -16 -126 -93 -304
-177 -411 l-39 -49 710 0 711 0 -34 43 c-96 117 -164 282 -191 462 -2 17 -5
90 -5 163 l-1 132 -480 0 -480 0 -1 -127z M7999 6913 c0 -71 -2 -135 -3 -143
-2 -8 -6 -40 -10 -70 -16 -126 -93 -304 -177 -411 l-39 -49 710 0 711 0 -34
43 c-96 117 -164 282 -191 462 -2 17 -5 90 -5 163 l-1 132 -480 0 -480 0 -1
-127z M4954 6550 c-125 -33 -243 -103 -330 -198 l-41 -45 -95 2 c-120 3 -207
-17 -318 -71 -119 -59 -239 -178 -298 -296 -23 -46 -44 -99 -48 -118 -4 -23
-14 -39 -28 -44 -11 -4 -48 -18 -81 -31 -123 -46 -276 -170 -308 -249 -30 -74
-3 -154 66 -194 l43 -26 506 0 506 -1 39 -28 c70 -51 73 -64 73 -371 0 -304 3
-318 68 -368 49 -37 125 -40 174 -7 49 33 68 68 78 138 14 99 66 150 155 154
45 1 60 -3 93 -27 72 -52 72 -54 72 -450 0 -392 1 -397 68 -448 26 -20 48 -27
86 -28 61 -2 98 16 137 70 l28 38 1 599 c0 393 4 608 11 626 6 16 20 39 32 52
47 51 51 51 580 51 491 0 493 0 537 23 51 25 80 69 85 125 4 53 -15 93 -77
158 -80 85 -175 145 -291 183 -48 15 -50 18 -66 71 -31 99 -82 181 -166 266
-138 140 -265 194 -464 200 l-124 4 -54 54 c-169 174 -421 246 -649 186z
M1083 5878 c72 -89 141 -228 166 -333 6 -27 15 -61 18 -75 12 -42 13 -2047 2
-2120 -23 -145 -95 -313 -180 -421 l-39 -49 710 0 711 0 -34 43 c-84 102 -152
254 -181 403 -13 69 -15 216 -13 1109 3 1010 3 1031 24 1100 42 143 91 243
164 335 l39 50 -710 0 -711 0 34 -42z M7803 5878 c72 -89 141 -228 166 -333 6
-27 15 -61 18 -75 12 -42 13 -2047 2 -2120 -23 -145 -95 -313 -180 -421 l-39
-49 710 0 711 0 -34 43 c-84 102 -152 254 -181 403 -13 69 -15 216 -13 1109 3
1010 3 1031 24 1100 42 143 91 243 164 335 l39 50 -710 0 -711 0 34 -42z
M3360 4947 c-53 -17 -133 -102 -149 -159 -32 -113 21 -232 127 -284 34 -18 73
-19 524 -22 l486 -3 -14 53 c-16 64 -14 25 -14 243 l0 185 -462 -1 c-307 -1
-475 -5 -498 -12z M5920 4720 l0 -240 468 1 c531 1 514 -2 591 86 105 119 65
301 -82 371 -40 20 -61 21 -509 21 l-468 1 0 -240z M4949 4186 c-17 -18 -102
-20 -689 -23 -349 -2 -635 -5 -637 -7 -2 -1 19 -68 46 -149 l49 -146 -141
-114 c-129 -105 -279 -247 -354 -337 -40 -47 -113 -146 -113 -152 0 -2 905 -5
2010 -5 1106 0 2010 3 2010 5 0 6 -73 104 -113 152 -75 90 -225 233 -354 337
l-141 114 49 147 c27 80 49 148 49 149 0 2 -157 3 -350 3 l-350 0 0 -102 c0
-183 -45 -302 -151 -403 -184 -175 -464 -178 -652 -5 -62 56 -97 108 -129 193
-16 40 -22 85 -27 200 -3 82 -9 146 -12 143z M2930 2930 c-28 -18 -121 -288
-145 -420 -4 -19 -8 -39 -9 -45 -2 -5 -6 -32 -10 -60 -4 -27 -9 -60 -11 -72
-2 -13 -2 -23 0 -23 2 0 97 43 210 96 207 97 256 111 305 91 14 -6 150 -95
303 -198 l277 -186 276 184 c152 102 290 191 308 198 37 15 84 12 122 -8 16
-8 150 -96 297 -195 l268 -180 280 190 c155 105 295 194 311 199 65 18 94 4
385 -192 156 -104 287 -189 293 -189 6 0 138 86 295 192 271 183 287 192 332
192 49 0 82 -14 355 -143 58 -28 109 -51 112 -51 3 0 3 8 2 18 -2 9 -7 37 -10
62 -6 47 -9 61 -27 150 -23 112 -120 388 -137 391 -26 4 -4376 3 -4382 -1z
M1083 2518 c72 -89 141 -228 166 -333 6 -27 15 -61 18 -75 4 -14 9 -466 10
-1004 4 -1088 -1 -1019 71 -1074 l35 -27 370 -2 c415 -3 403 -5 458 71 l29 38
0 952 c1 523 3 969 6 991 20 167 92 341 191 463 l34 42 -711 0 -711 0 34 -42z
M7803 2518 c72 -89 141 -228 166 -333 6 -27 15 -61 18 -75 4 -14 9 -466 10
-1004 4 -1088 -1 -1019 71 -1074 l35 -27 370 -2 c415 -3 403 -5 458 71 l29 38
0 952 c1 523 3 969 6 991 20 167 92 341 191 463 l34 42 -711 0 -711 0 34 -42z
M2975 2058 c-211 -100 -238 -115 -231 -127 2 -3 7 -37 11 -74 3 -37 8 -76 10
-86 2 -10 6 -34 9 -52 23 -137 84 -340 141 -464 17 -38 38 -85 46 -102 l14
-33 2141 0 c1702 0 2143 3 2151 12 20 28 87 187 123 297 48 143 90 346 93 448
l2 77 -222 104 -223 105 -297 -198 c-296 -197 -298 -199 -353 -199 l-55 -1
-287 193 c-158 105 -290 192 -293 192 -3 0 -136 -87 -296 -194 -290 -194 -290
-195 -342 -193 -50 2 -65 11 -339 195 -158 105 -290 192 -293 192 -4 0 -136
-87 -296 -194 l-289 -195 -52 2 c-51 2 -65 11 -342 196 -159 107 -297 195
-305 197 -9 1 -110 -42 -226 -98z M3221 748 c23 -29 88 -98 144 -153 306 -303
682 -495 1120 -570 101 -17 198 -20 630 -20 425 0 555 4 631 19 12 2 39 7 60
10 176 28 465 134 644 237 201 115 431 307 569 477 l43 52 -1942 0 -1942 0 43
-52z"/>
</g>
</svg>
