<svg viewBox="0 0 53 53" xmlns="http://www.w3.org/2000/svg"><g><path fill="currentColor" d="m49.6593513 3.5507507c-.1005859-.0366211-2.4731445-.8720703-4.2910156.4301758-.3203125.2293091-.5980835.5062866-.8349609.8280029-.2368774-.3217163-.5146484-.5986938-.8349609-.8280029-1.8178711-1.3022461-4.1894531-.4667969-4.2910156-.4301758-.519043.1879883-.7880859.7612305-.6000977 1.2807617.1879883.5185547.7612305.7866211 1.2807617.6000977.0141602-.0058594 1.5048828-.4990234 2.4462891.175293.8623047.6176758 1.0185547 2.059082.9970703 3.159668-.0001221.0080566.0040894.0147705.0041504.0228271.0001221.005249-.0003662.0100098-.0002441.0152588l.0030518-.000061c.0111084.5336304.4351807.97052.973999.9810362h.0195313c.5429688 0 .9887695-.4350767.9995117-.9809752.0002441-.0131226-.0008545-.0249023-.0006714-.0380249l.0045776-.000061c-.0214844-1.0966797.1333008-2.5341797.9902344-3.1547852.953125-.6884766 2.4282227-.1879883 2.4575195-.1787109.5219727.184082 1.0883789-.0839844 1.2763672-.6015625.1879882-.5195313-.0810548-1.0927735-.6000978-1.2807618z"/><path fill="currentColor" d="m10.5812273 10.335907c.5336914.1274414 1.0722656-.1967773 1.2050781-.7304688.1337891-.5356445-.1923828-1.0786133-.7285156-1.2119141-.1943359-.0478516-1.9438477-.4423828-3.3393555.6689453-.1796264.1431886-.322998.3225709-.4699096.4984132-.1469117-.1759034-.2903443-.3552246-.4700318-.4984131-1.3940429-1.1113281-3.1440429-.7172852-3.3393554-.6689453-.5361329.1333008-.8623047.6762695-.7285157 1.211914.1333008.5356445.6767578.8642578 1.2119141.7285156.0097656-.0019531.9760742-.2128906 1.609375.2924805.6186523.4931641.7304688 1.5395508.7148438 2.3305664-.0001831.0083008.0042114.0152588.0042725.0234985.0001221.0053711-.0009766.0097046-.0008545.0150757l.0036011-.000061c.0113525.5338135.4353027.97052.9734497.9810181h.0200195c.5429688 0 .9887695-.4350586.9995117-.9804688.0002441-.0137329-.0023804-.0247803-.0021973-.0384521l.0056152-.0001221c-.0151367-.7866211.0952148-1.828125.7060547-2.3242188.6308594-.5107421 1.5927734-.3041992 1.625-.2973632z"/><path fill="currentColor" d="m42.8307381 48.9999695h-5.9673462l-1.31604-8.1918335h-18.1000348l-1.31604 8.1918335h-5.9621592c-.5522461 0-1 .4477539-1 1s.4477539 1 1 1h32.6616211c.5522461 0 1-.4477539 1-1s-.4477548-1-1.0000009-1zm-11.2733746-1.3718262c.5499859 0 .9999981.4499512.9999981 1l-.0028076.3718262h-1.9999981l.0028076-.3718262c0-.5500488.4499512-1 1-1zm-5.0599975-.0200195h.0099487c.5500488.0100098 1 .4500122.9900513 1.0100098v.3818359h-2v-.3918457c.0099487-.5499878.4499511-1 1-1zm-6.0500489.9899902c0-.5499878.4500122-1 1-1 .5599976 0 1 .4500122 1 1v.4018555h-2z"/><path fill="currentColor" d="m17.7673244 38.848114h17.4600201l1.1400146-4.3499756c.3299561-1.2700195-.6300049-2.5100098-1.9400024-2.5100098h-.7000122l-1.1600342-9.6400146h-12.1399517l-1.1500244 9.6400146h-.710022c-1.3099976 0-2.2699585 1.2399902-1.9299927 2.5100098zm10.8200074-10.1900024c0-.5599976.4199829-.9799805 1-1 .5599976 0 1 .4500122 1 1v3.3300171h-2zm-6.1699829-.0200196c0-.5499878.4500122-.9599609 1-.9899902.5599976 0 1 .4500122 1 1v3.3400269h-1.1358032c-.2746582-.0001831-.8641968-.0012817-.8641968-.0100098z"/><path fill="currentColor" d="m20.4273586 20.348114h12.1399517l1.2000122-2.8400269c.1600342-.6299438-.3200073-1.2399902-.9699707-1.2399902h-12.6000347c-.6499634 0-1.1199951.6100464-.9699707 1.2399902z"/><path fill="currentColor" d="m25.5073147 12.9381409c0-.5599976.4400024-1 1-1 .5500488 0 1 .4499512 1 1l-.0099487 1.3299561h5.0699444v-2.5299683c0-1.1099854-.8899517-2-1.9999981-2h-8.1399536c-1.1000366 0-2 .8900146-2 2v2.5299683h5.0700073z"/><path fill="currentColor" d="m29.7560329 5.2552795c0-1.7978516-3.255249-3.255249-3.255249-3.255249s-3.255249 1.4573975-3.255249 3.255249v2.4814453h6.510498z"/></g></svg>