<svg viewBox="0 0 510.955 510.955" xmlns="http://www.w3.org/2000/svg"><g><path fill="currentColor" d="m95.603 371.585v89.812c7.008-19.011 18.082-36.452 32.786-51.244-16.393-14.531-25.459-27.155-32.786-38.568z"/><path fill="currentColor" d="m415.352 371.585v89.812c-7.008-19.011-18.082-36.452-32.786-51.244 16.393-14.531 25.459-27.155 32.786-38.568z"/><path fill="currentColor" d="m425.146 66.233c-34.733-34.732-78.242-57.488-125.523-66.233 15.129 12.652 24.773 31.655 24.773 52.874 0 4.614-.464 9.121-1.333 13.484 17.382 10.864 37.667 17.292 58.141 18.265 17.978.854 35.971-2.381 52.499-9.382-2.768-3.063-5.618-6.068-8.557-9.008z"/><path fill="currentColor" d="m200.191 93.975c-20.94 12.34-44.713 19.46-69.016 20.615-32.697 0-52.581-5.087-73.119-15.157-27.637 39.8-42.526 86.986-42.527 136.466l-.005 275.057h50.079l.026-303.81 20.543-6.813c31.989-10.609 58.584-23.378 81.304-39.038 20.68-14.254 37.734-30.63 51.845-49.78-7.428-4.597-13.926-10.558-19.13-17.54z"/><path fill="currentColor" d="m310.764 93.975c20.94 12.34 44.713 19.46 69.016 20.615 32.697 0 52.581-5.087 73.119-15.157 27.637 39.8 42.526 86.986 42.527 136.466l.005 275.057h-50.079l-.026-303.81-20.543-6.813c-31.989-10.609-58.584-23.378-81.304-39.038-20.68-14.254-37.734-30.63-51.844-49.78 7.427-4.597 13.925-10.558 19.129-17.54z"/><path fill="currentColor" d="m129.751 84.623c20.474-.973 40.76-7.401 58.14-18.265-.869-4.363-1.333-8.87-1.333-13.484 0-21.219 9.645-40.221 24.773-52.874-47.28 8.745-90.79 31.501-125.522 66.232-2.94 2.94-5.79 5.946-8.558 9.008 16.533 7.002 34.534 10.235 52.5 9.383z"/><path fill="currentColor" d="m358.511 428.603c-9.202 5.951-18.92 11.107-29.112 15.418-23.43 9.91-48.301 14.935-73.922 14.935s-50.492-5.025-73.922-14.935c-10.192-4.311-19.91-9.467-29.112-15.418-21.931 20.612-35.633 49.88-35.633 82.352h277.333c.001-32.472-13.7-61.74-35.632-82.352z"/><path fill="currentColor" d="m261.845 121.487c-2.098.193-10.698.192-12.825-.007-36.731 54.168-90.706 86.533-153.406 107.327l-.012 41.244c.53 87.85 71.9 158.904 159.875 158.904 87.984 0 159.36-71.07 159.875-158.933v-41.219c-62.722-20.77-116.749-53.146-153.507-107.316zm-21.367 82.135h30v30h-30zm-54.667 76.667h-30v-30h30zm69.667 53.666c-20.522 0-39.659-11.044-49.943-28.822l25.969-15.021c4.939 8.539 14.126 13.844 23.974 13.844s19.035-5.305 23.975-13.844l25.968 15.022c-10.285 17.777-29.422 28.821-49.943 28.821zm99.666-53.666h-30v-30h30z"/><path fill="currentColor" d="m294.396 52.874c0-21.46-17.459-38.919-38.919-38.919s-38.919 17.459-38.919 38.919 17.459 38.919 38.919 38.919 38.919-17.459 38.919-38.919z"/></g></svg>