<svg xmlns="http://www.w3.org/2000/svg" viewBox="0 0 1024 1024">
<g transform="translate(0,1024) scale(0.1,-0.1)">
<path fill="currentColor" d="M9995 10220 c-26 -13 -271 -251 -687 -668 -599 -598 -648 -650 -648
-681 0 -28 12 -46 82 -118 83 -85 109 -100 148 -88 27 9 1313 1293 1333 1331
23 44 17 124 -13 168 -29 42 -91 76 -141 76 -19 0 -52 -9 -74 -20z M7928 8725
c-2 -2 -23 -5 -48 -9 -169 -21 -308 -91 -430 -215 -41 -42 -92 -107 -114 -144
-22 -37 -46 -67 -55 -68 -9 0 -23 -2 -31 -4 -8 -2 -28 -6 -45 -9 -84 -16 -183
-57 -271 -112 -79 -48 -103 -78 -108 -128 -6 -62 15 -88 135 -171 208 -142
323 -238 494 -409 168 -168 317 -351 431 -526 48 -75 79 -100 128 -104 55 -6
95 21 141 93 67 106 114 226 130 333 7 45 10 48 73 85 88 50 209 170 260 258
150 256 139 571 -26 806 -56 80 -89 115 -152 164 -135 103 -270 151 -450 159
-33 2 -61 2 -62 1z M5007 8084 c-1 -1 -49 -4 -107 -8 -58 -3 -114 -8 -126 -10
-12 -2 -45 -7 -75 -11 -47 -6 -86 -13 -229 -41 -14 -3 -50 -12 -80 -20 -30 -8
-64 -17 -74 -19 -46 -11 -220 -71 -317 -111 -777 -314 -1405 -977 -1679 -1770
-112 -324 -163 -629 -164 -964 0 -104 11 -318 18 -356 2 -11 8 -47 12 -79 4
-33 9 -62 9 -65 1 -3 5 -27 10 -55 10 -58 9 -52 18 -90 4 -16 9 -39 12 -50 15
-71 61 -221 100 -330 348 -959 1190 -1687 2187 -1889 67 -13 147 -28 177 -31
30 -4 63 -9 75 -11 112 -22 568 -22 681 0 11 2 45 7 76 10 59 7 67 8 159 27
594 119 1126 407 1549 838 396 405 668 916 785 1476 20 97 23 114 31 181 4 33
9 68 11 79 22 118 22 568 0 681 -2 12 -7 45 -11 75 -30 252 -131 585 -259 854
-369 774 -1072 1362 -1896 1586 -25 7 -49 14 -55 15 -5 2 -23 6 -40 9 -16 3
-38 8 -47 11 -24 7 -186 35 -278 48 -92 13 -462 29 -473 20z m209 -775 c64
-44 74 -82 74 -277 0 -157 2 -172 18 -173 9 0 25 -2 34 -4 9 -2 35 -6 58 -9
23 -3 79 -14 124 -25 362 -86 694 -292 936 -580 25 -30 54 -65 65 -78 l20 -23
137 79 c76 44 153 84 170 89 74 20 157 -18 194 -90 29 -56 14 -150 -31 -195
-8 -7 -69 -45 -137 -84 -188 -109 -170 -92 -148 -136 48 -102 112 -339 127
-479 15 -134 9 -371 -13 -504 -13 -75 -53 -219 -88 -311 -20 -53 -36 -101 -36
-107 0 -5 60 -44 133 -85 150 -86 167 -99 192 -146 64 -126 -57 -276 -193
-239 -18 5 -83 38 -144 74 -183 107 -157 104 -221 26 -171 -211 -374 -373
-612 -487 -150 -72 -340 -132 -476 -151 -22 -3 -48 -7 -57 -9 -9 -2 -25 -4
-34 -4 -16 -1 -18 -16 -18 -171 0 -192 -6 -217 -63 -267 -35 -31 -91 -47 -132
-39 -11 3 -25 5 -32 5 -22 2 -86 65 -99 98 -10 23 -14 82 -14 203 0 155 -2
170 -17 171 -10 0 -27 2 -38 4 -11 2 -36 6 -55 9 -73 12 -98 17 -186 41 -342
92 -667 307 -898 593 l-59 72 -41 -23 c-285 -161 -294 -164 -360 -142 -117 40
-158 184 -78 271 15 16 89 65 165 108 75 43 137 85 137 93 0 8 -6 26 -14 41
-45 87 -106 322 -123 472 -15 121 -6 461 12 490 2 3 6 23 9 45 11 68 55 220
86 297 16 40 30 78 30 84 0 6 -61 46 -135 89 -142 81 -190 121 -200 164 -12
59 -12 68 0 105 30 88 118 137 203 114 18 -5 83 -38 144 -74 184 -108 157
-105 224 -21 228 282 558 500 897 591 89 25 114 30 187 42 19 3 44 7 55 9 11
2 28 4 38 4 15 1 17 16 17 170 0 96 5 182 11 198 14 37 57 82 94 98 44 19 119
11 161 -16z M5008 6526 c-1 -2 -28 -6 -58 -10 -30 -3 -66 -8 -80 -11 -14 -3
-38 -8 -55 -11 -105 -18 -298 -94 -407 -160 -204 -122 -380 -298 -502 -502
-66 -109 -142 -302 -160 -407 -3 -16 -8 -41 -11 -55 -20 -96 -26 -295 -12
-420 50 -455 352 -881 772 -1089 209 -104 389 -145 625 -145 144 0 212 8 341
40 505 128 895 518 1023 1024 32 125 40 200 41 345 0 284 -73 527 -229 765
-223 340 -562 556 -981 625 -42 7 -300 16 -307 11z m798 -505 c134 -60 135
-250 1 -306 -29 -12 -85 -15 -277 -15 l-240 0 0 -205 0 -205 308 0 c345 0 348
-1 406 -73 l31 -39 2 -346 c2 -370 -1 -399 -48 -448 -31 -34 -101 -58 -145
-51 -52 9 -108 49 -129 94 -17 34 -19 66 -19 281 l-1 242 -202 0 -203 0 0
-305 c0 -327 -3 -347 -51 -392 -55 -50 -73 -52 -430 -52 -304 0 -338 1 -375
18 -147 66 -129 279 26 318 19 5 137 8 263 8 l227 -1 0 203 0 203 -305 0
c-327 0 -347 3 -392 51 -48 53 -51 72 -51 429 -1 378 2 391 73 446 91 69 233
20 261 -92 4 -16 8 -132 8 -259 l1 -230 203 -3 202 -2 0 304 c0 192 4 315 11
333 15 40 48 73 94 94 37 17 69 19 375 18 303 0 339 -2 376 -18z M2162 3404
c-75 -31 -205 -304 -211 -445 -1 -9 -31 -33 -68 -55 -83 -48 -206 -168 -256
-250 -78 -130 -112 -258 -109 -414 8 -496 505 -843 979 -685 187 62 305 165
438 378 6 9 30 19 55 22 129 18 357 124 402 189 25 34 28 105 6 138 -9 13 -35
37 -59 53 -221 148 -381 278 -544 440 -178 177 -289 311 -423 507 -40 59 -82
113 -93 118 -31 17 -83 19 -117 4z M683 928 c-670 -670 -683 -684 -683 -760 0
-75 67 -152 142 -164 89 -15 66 -35 773 671 395 394 657 664 661 679 9 39 -2
58 -79 135 -86 85 -93 91 -132 91 -26 0 -110 -80 -682 -652z"/>
</g>
</svg>
