<svg xmlns="http://www.w3.org/2000/svg" viewBox="0 0 1024 1024">
<g transform="translate(0,1024) scale(0.1,-0.1)">
<path fill="currentColor" d="M8765 9908 c-11 -6 -104 -108 -208 -227 -103 -119 -200 -229 -215
-246 -15 -16 -216 -246 -447 -510 -230 -264 -429 -491 -442 -505 -12 -13 -62
-70 -110 -126 -48 -57 -94 -103 -101 -103 -7 -1 -30 8 -52 19 -141 72 -360 61
-509 -27 -51 -30 -132 -102 -163 -145 l-20 -28 55 -59 c106 -116 149 -224 151
-383 1 -60 2 -108 2 -108 1 0 26 11 55 25 118 53 238 70 354 48 74 -13 193
-67 235 -105 72 -65 63 -65 98 -1 107 202 88 447 -47 617 l-32 39 24 26 c13
14 54 62 93 106 38 44 72 82 75 85 3 3 194 221 424 485 231 264 422 482 425
485 12 10 426 486 448 514 56 73 -13 166 -93 124z M4899 8184 c-63 -19 -137
-70 -175 -121 -32 -42 -69 -127 -79 -180 -3 -16 -7 -41 -10 -57 l-6 -28 93 8
c168 15 542 9 644 -10 10 -2 41 -7 68 -10 27 -4 53 -9 57 -12 12 -7 -1 55 -23
116 -55 149 -171 258 -313 294 -73 20 -194 19 -256 0z M3949 8005 c-3 -2 -20
-7 -39 -10 -119 -21 -276 -148 -321 -260 -20 -50 -24 -78 -24 -172 0 -61 3
-115 7 -119 4 -4 69 25 145 64 180 92 437 192 554 216 13 3 38 9 54 14 17 5
35 10 40 10 6 1 23 4 38 8 l28 6 -27 36 c-68 92 -149 156 -239 187 -45 16
-206 31 -216 20z M5982 7961 c-66 -23 -134 -64 -185 -114 -55 -53 -92 -106
-81 -116 5 -4 52 -20 104 -35 190 -55 441 -167 630 -279 l75 -45 11 42 c15 57
17 173 4 229 -34 154 -159 281 -316 322 -73 19 -178 17 -242 -4z M4817 7654
c-1 -1 -33 -4 -72 -8 -70 -6 -110 -11 -175 -22 -19 -4 -48 -8 -65 -11 -101
-15 -437 -112 -458 -132 -6 -6 182 -454 197 -469 3 -2 40 7 83 21 67 22 143
44 178 51 6 2 35 8 65 14 77 16 106 21 175 28 33 4 67 8 75 10 8 1 34 3 58 3
l42 1 0 259 0 260 -51 -2 c-28 -1 -51 -3 -52 -3z m-241 -204 c37 -23 57 -68
51 -113 -19 -137 -231 -121 -222 18 5 87 100 139 171 95z M4485 7380 c-15 -17
-16 -24 -7 -45 23 -51 95 -21 76 32 -11 33 -46 39 -69 13z M5080 7400 l0 -260
33 -1 c17 -1 43 -2 57 -3 72 -8 147 -17 166 -20 12 -3 37 -7 55 -10 76 -13
213 -48 293 -76 33 -11 60 -19 61 -18 2 3 170 415 186 455 7 20 1 24 -99 57
-124 41 -232 68 -352 90 -135 25 -190 31 -332 41 l-68 5 0 -260z m436 49 c58
-30 70 -128 21 -176 -54 -54 -155 -35 -184 34 -42 103 63 195 163 142z M5425
7380 c-15 -17 -16 -24 -7 -45 23 -51 95 -21 76 32 -11 33 -46 39 -69 13z
M6052 7343 c-16 -43 -59 -149 -95 -235 l-65 -157 97 -52 c133 -71 300 -183
400 -269 l83 -72 181 181 180 182 -29 30 c-47 50 -231 194 -334 263 -129 86
-350 206 -378 206 -5 0 -23 -35 -40 -77z m406 -298 c38 -41 42 -83 12 -133
-36 -59 -118 -71 -168 -24 -58 54 -51 133 16 178 47 32 97 24 140 -21z M6346
7005 c-30 -31 -13 -75 29 -75 37 0 57 36 37 66 -13 21 -49 25 -66 9z M2970
7388 c-208 -72 -358 -276 -343 -468 6 -84 60 -224 93 -245 4 -3 39 35 78 83
144 181 347 377 525 506 37 28 67 53 67 58 0 10 -71 46 -135 68 -77 26 -205
25 -285 -2z M3789 7366 c-202 -103 -420 -253 -575 -396 -45 -41 -45 -42 -27
-62 10 -11 91 -94 181 -184 l163 -163 80 69 c102 88 258 194 385 262 l100 53
-100 232 c-56 128 -105 233 -111 233 -5 0 -49 -20 -96 -44z m-69 -275 c36 -26
51 -60 46 -105 -11 -95 -129 -132 -197 -60 -32 34 -34 111 -4 144 43 49 105
57 155 21z M3632 7034 c-12 -8 -22 -24 -22 -34 0 -10 10 -26 22 -34 19 -13 25
-14 43 -2 11 7 20 24 20 36 0 12 -9 29 -20 36 -18 12 -24 11 -43 -2z M6933
7374 c-67 -13 -190 -73 -219 -105 -17 -19 -17 -20 6 -36 115 -81 359 -322 481
-475 45 -57 83 -105 85 -107 1 -2 19 22 38 52 126 197 118 395 -22 548 -100
109 -229 152 -369 123z M4818 6974 c-2 -1 -32 -5 -68 -8 -55 -6 -125 -19 -268
-51 -142 -32 -423 -160 -572 -260 -110 -74 -214 -155 -207 -161 4 -5 18 -8 87
-18 124 -19 296 -81 407 -148 70 -42 184 -146 235 -216 53 -72 113 -202 135
-291 13 -56 21 -71 33 -67 19 6 144 58 148 61 2 2 -12 34 -31 71 -116 230
-130 497 -40 748 32 88 90 204 137 275 20 29 36 56 36 60 0 7 -26 11 -32 5z
M5220 6961 c0 -5 4 -12 9 -15 16 -10 91 -145 126 -227 55 -127 78 -228 81
-359 5 -189 -39 -352 -140 -515 l-24 -40 56 -22 c30 -13 58 -23 62 -23 3 0 12
21 18 48 7 26 27 81 45 122 125 287 405 499 755 571 34 7 62 15 62 19 0 8
-158 123 -235 170 -195 120 -484 229 -700 264 -92 15 -115 16 -115 7z M4975
6863 c-96 -132 -175 -317 -191 -450 -13 -107 -11 -161 10 -278 12 -66 88 -238
120 -272 9 -9 131 -19 183 -14 14 1 88 118 119 188 47 104 64 198 60 323 -4
132 -24 209 -86 338 -39 83 -120 211 -145 232 -10 8 -26 -7 -70 -67z M2994
6743 c-90 -104 -179 -224 -251 -336 -79 -125 -187 -337 -176 -348 9 -8 452
-189 463 -189 4 0 31 46 59 102 78 153 165 281 282 419 l48 55 -183 183 -183
183 -59 -69z m65 -331 c79 -58 43 -186 -56 -199 -120 -16 -176 143 -72 206 38
23 91 21 128 -7z M2957 6349 c-19 -27 -10 -58 19 -65 27 -7 40 0 54 26 8 15 6
24 -10 40 -26 26 -45 25 -63 -1z M6768 6633 c-98 -98 -178 -183 -178 -188 0
-6 14 -26 31 -45 98 -110 218 -289 290 -431 22 -43 44 -79 50 -79 8 0 460 188
467 194 5 6 -115 231 -168 316 -55 88 -170 247 -218 302 -15 17 -43 48 -62 70
l-35 39 -177 -178z m282 -208 c80 -41 77 -161 -5 -199 -70 -33 -147 5 -161 79
-17 95 80 165 166 120z M6960 6355 c-7 -8 -10 -25 -6 -39 11 -45 71 -45 82 0
8 30 -11 54 -41 54 -12 0 -28 -7 -35 -15z M2373 6494 c-81 -21 -133 -52 -193
-113 -93 -96 -151 -245 -145 -373 6 -131 58 -227 170 -312 l48 -37 33 116 c59
204 159 441 263 619 34 59 48 93 42 99 -16 16 -161 17 -218 1z M7489 6495 c-4
-3 -43 -11 -71 -14 -14 -2 -9 -20 15 -59 100 -159 214 -423 282 -657 14 -49
28 -96 31 -103 12 -37 161 100 210 193 105 200 51 446 -122 566 -72 49 -147
72 -250 75 -50 2 -93 2 -95 -1z M6348 6364 c-2 -1 -24 -5 -50 -8 -126 -17
-313 -89 -425 -163 -157 -104 -282 -287 -323 -474 l-12 -56 63 -62 c61 -59 65
-61 104 -55 75 10 220 65 292 110 170 106 288 278 347 505 33 131 41 206 21
206 -8 0 -16 -1 -17 -3z M3594 6297 c10 -69 15 -92 37 -163 93 -304 310 -511
620 -592 l74 -20 55 61 c30 33 55 65 55 71 -2 48 -20 129 -41 187 -75 208
-225 351 -454 431 -52 18 -69 23 -115 33 -56 13 -74 16 -125 21 -30 3 -68 7
-83 9 -28 3 -28 3 -23 -38z M6529 6260 c0 -3 -2 -12 -4 -20 -2 -8 -5 -26 -8
-40 -53 -267 -200 -515 -382 -646 -77 -54 -208 -117 -295 -140 -36 -10 -68
-20 -72 -23 -4 -3 -1 -19 7 -36 8 -16 19 -42 24 -57 l10 -27 83 44 c89 47 179
80 243 89 23 4 52 9 65 12 46 10 207 6 281 -6 139 -23 308 -90 444 -174 35
-22 62 -26 51 -8 -2 4 -7 27 -10 52 -33 243 -125 502 -257 725 -44 75 -178
265 -180 255z M3408 6182 c-203 -271 -338 -606 -381 -942 -8 -58 -13 -106 -12
-108 1 -1 39 22 83 53 137 94 299 164 442 191 59 11 194 12 261 2 94 -14 203
-53 292 -104 43 -25 80 -44 81 -42 1 2 12 28 23 58 12 30 24 62 28 71 5 13
-10 22 -77 44 -167 55 -293 131 -409 245 -132 131 -220 291 -273 492 l-23 87
-35 -47z M7251 5835 c-124 -52 -226 -97 -228 -99 -2 -2 12 -55 31 -117 51
-170 78 -322 91 -504 2 -27 4 -52 4 -55 1 -3 117 -5 260 -5 171 0 258 3 256
10 -2 5 -6 61 -10 123 -3 62 -8 118 -10 125 -2 7 -6 30 -9 52 -17 132 -45 258
-92 411 -20 65 -39 127 -41 137 -3 9 -10 17 -17 17 -6 0 -112 -43 -235 -95z
m176 -283 c64 -35 74 -123 19 -178 -26 -26 -42 -34 -71 -34 -41 0 -85 22 -104
52 -18 29 -16 94 4 124 30 46 101 63 152 36z M7336 5479 c-16 -23 -10 -58 10
-66 24 -9 61 6 67 26 11 45 -51 77 -77 40z M2489 5883 c-30 -80 -78 -246 -94
-328 -21 -110 -34 -190 -40 -250 -4 -39 -9 -78 -10 -87 -3 -16 -7 -132 -6
-153 1 -7 93 -10 259 -11 l257 0 1 45 c0 51 11 174 18 207 2 12 7 37 10 55 18
106 50 232 76 301 l18 48 -26 14 c-23 11 -357 149 -430 177 -19 7 -24 5 -33
-18z m223 -360 c88 -78 19 -220 -95 -199 -107 20 -119 178 -17 219 26 11 91
-1 112 -20z M2606 5458 c-13 -19 -14 -25 -2 -43 7 -11 24 -20 36 -20 12 0 29
9 36 20 12 18 11 24 -2 43 -8 12 -24 22 -34 22 -10 0 -26 -10 -34 -22z M4908
5685 c-1 -2 -23 -6 -48 -10 -66 -10 -177 -56 -245 -101 -296 -195 -399 -584
-239 -899 56 -111 130 -194 234 -264 60 -41 158 -86 205 -96 17 -3 44 -9 60
-13 39 -9 199 -9 250 0 199 34 404 187 492 368 54 111 75 194 77 305 1 106 -7
161 -34 240 -35 103 -89 186 -175 272 -68 67 -99 89 -176 126 -112 54 -199 75
-313 75 -46 0 -86 -1 -88 -3z m206 -270 c196 -59 324 -227 324 -426 0 -366
-429 -569 -716 -339 -230 185 -211 550 39 710 98 63 248 86 353 55z M4920
5261 c-69 -21 -141 -83 -175 -151 -27 -52 -31 -147 -10 -211 23 -69 101 -149
167 -172 101 -34 230 -4 300 70 108 114 98 300 -21 404 -66 58 -180 84 -261
60z M2110 5428 c-185 -71 -283 -232 -274 -453 5 -143 57 -263 147 -341 45 -39
142 -88 196 -99 l34 -7 -8 58 c-4 32 -9 67 -11 79 -21 111 -21 536 0 651 2 10
7 45 10 77 7 55 6 57 -16 56 -13 0 -48 -9 -78 -21z M7795 5394 c3 -27 8 -62
10 -79 16 -113 22 -442 10 -550 -13 -122 -17 -153 -21 -178 -5 -29 -6 -29 71
-13 84 17 203 84 259 146 117 130 136 345 44 499 -62 103 -194 186 -346 216
l-34 7 7 -48z M6225 5258 c-114 -15 -259 -72 -341 -133 -30 -23 -31 -24 -28
-107 1 -46 3 -86 3 -90 2 -16 121 -84 201 -116 98 -38 177 -52 290 -48 114 4
122 5 219 37 93 31 184 78 274 143 118 85 115 77 49 123 -222 153 -453 219
-667 191z M3549 5214 c-150 -28 -332 -124 -477 -252 l-24 -21 49 -35 c60 -45
202 -118 269 -140 51 -16 59 -19 144 -36 64 -13 244 -5 315 14 83 22 178 62
256 108 l65 38 -3 78 c-4 72 -6 79 -36 105 -63 55 -204 123 -297 143 -54 11
-198 10 -261 -2z M2343 4887 c-5 -8 4 -172 11 -214 2 -10 7 -40 10 -68 15
-104 34 -200 63 -305 26 -97 84 -270 93 -275 7 -4 456 178 468 190 2 2 -13 53
-32 115 -57 181 -98 401 -100 538 0 12 -5 22 -10 23 -59 6 -499 2 -503 -4z
m378 -300 c38 -29 50 -92 27 -143 -15 -32 -80 -64 -117 -57 -56 9 -100 61 -95
111 1 12 2 28 3 36 2 24 59 74 89 78 30 4 69 -6 93 -25z M2619 4529 c-24 -24
-24 -34 1 -59 34 -34 88 1 68 45 -14 32 -45 38 -69 14z M7152 4890 c-8 -6 -8
-4 -16 -105 -3 -44 -8 -89 -10 -100 -2 -11 -7 -40 -11 -65 -12 -70 -13 -78
-35 -164 -12 -45 -32 -112 -45 -149 l-23 -68 21 -9 c12 -4 120 -49 239 -98
l217 -89 25 71 c23 67 49 145 51 156 1 3 11 48 24 100 13 52 25 106 27 120 2
14 6 34 9 45 2 11 7 43 10 70 4 28 8 61 10 73 2 13 7 67 10 121 l7 96 -252 0
c-139 0 -255 -2 -258 -5z m280 -275 c26 -10 50 -54 50 -90 0 -123 -162 -163
-215 -53 -8 17 -13 38 -12 47 2 9 4 24 4 33 1 23 56 76 84 80 21 4 54 -3 89
-17z M7339 4549 c-30 -30 0 -83 42 -72 26 7 39 33 29 59 -12 30 -47 37 -71 13z
M6950 4826 c-29 -28 -182 -115 -256 -146 -123 -51 -217 -72 -344 -76 -63 -2
-137 1 -165 7 -27 6 -59 12 -70 14 -48 10 -141 47 -212 84 -42 22 -78 39 -79
38 -1 -1 -14 -32 -28 -69 l-25 -68 42 -10 c271 -69 488 -248 621 -516 44 -88
106 -266 106 -304 0 -40 19 -27 74 49 104 144 191 310 252 479 33 92 78 255
90 327 3 21 7 46 9 56 11 55 16 149 8 149 -5 0 -15 -6 -23 -14z M3025 4746 c2
-6 6 -29 9 -51 20 -163 96 -406 181 -581 67 -136 245 -407 259 -393 2 2 7 22
10 44 39 247 145 456 307 609 64 61 103 87 183 126 55 27 133 56 171 65 39 9
75 18 82 20 8 3 4 23 -15 67 -14 35 -27 64 -28 66 -1 2 -49 -19 -106 -47 -158
-78 -271 -104 -443 -104 -186 0 -287 26 -476 121 -76 38 -135 64 -134 58z
M5619 4397 c-54 -61 -55 -63 -46 -102 26 -119 84 -254 139 -325 137 -178 368
-301 611 -326 34 -4 65 -8 70 -11 14 -8 7 56 -18 150 -77 298 -239 511 -467
615 -54 25 -183 62 -213 62 -12 -1 -43 -26 -76 -63z M4308 4435 c-2 -2 -24 -6
-49 -9 -189 -25 -368 -140 -477 -306 -73 -112 -135 -299 -148 -446 l-7 -74 39
5 c214 32 419 129 549 260 48 48 110 134 145 205 33 65 90 224 90 250 0 24
-128 128 -142 115z M7740 4308 c-51 -205 -156 -474 -261 -668 -67 -123 -68
-120 61 -125 196 -9 353 75 429 227 83 166 61 346 -60 482 -45 51 -134 126
-150 126 -4 0 -13 -19 -19 -42z M2199 4283 c-66 -57 -86 -82 -121 -151 -76
-152 -32 -379 103 -526 57 -63 111 -97 188 -120 54 -16 161 -20 213 -7 l27 6
-55 95 c-112 193 -220 450 -275 653 -13 48 -26 87 -30 87 -3 0 -25 -17 -50
-37z M5365 4214 c-27 -13 -66 -29 -86 -35 l-37 -11 44 -92 c153 -325 128 -670
-74 -999 -42 -67 -49 -82 -34 -74 4 3 34 8 67 11 33 4 67 9 75 11 8 2 31 6 50
9 66 10 232 57 329 93 184 69 382 181 538 306 l65 52 -59 12 c-32 7 -69 15
-83 17 -155 32 -353 135 -478 251 -108 100 -230 311 -249 433 -3 18 -8 34 -12
36 -3 2 -28 -7 -56 -20z M4575 4173 c-9 -32 -34 -95 -55 -140 -138 -296 -375
-476 -749 -570 l-35 -8 45 -37 c139 -113 386 -247 575 -312 110 -37 294 -81
387 -91 l58 -7 -46 71 c-179 277 -234 572 -153 821 24 76 69 168 110 228 27
39 28 43 11 49 -10 3 -42 17 -72 30 -29 12 -55 23 -57 23 -1 0 -10 -26 -19
-57z M4901 4110 c-64 -68 -137 -208 -162 -310 -19 -82 -15 -240 10 -334 33
-124 121 -292 209 -395 l29 -35 45 57 c94 121 167 289 186 432 22 171 -6 340
-84 498 -55 111 -52 109 -136 110 -66 2 -75 0 -97 -23z M6914 4018 c-77 -153
-183 -311 -292 -436 l-55 -64 182 -181 182 -182 56 60 c132 144 286 370 390
575 l52 104 -32 14 c-45 19 -397 163 -424 173 -21 8 -26 2 -59 -63z m163 -254
c40 -25 56 -60 50 -106 -8 -56 -42 -89 -101 -95 -56 -7 -91 13 -113 64 -43
105 70 199 164 137z M6986 3701 c-29 -32 -13 -71 29 -71 42 0 60 45 29 71 -23
19 -41 19 -58 0z M2955 4027 c-55 -24 -162 -69 -238 -101 l-138 -58 57 -107
c110 -207 244 -401 373 -541 l60 -65 182 182 182 181 -52 59 c-109 124 -213
278 -291 431 -18 34 -33 62 -34 62 0 -1 -46 -20 -101 -43z m95 -302 c80 -42
77 -166 -5 -201 -43 -18 -59 -18 -99 1 -56 27 -79 90 -52 148 29 61 96 83 156
52z M2966 3654 c-9 -8 -16 -22 -16 -29 0 -16 27 -45 41 -45 24 0 49 22 49 43
0 44 -43 62 -74 31z M3360 3215 c-102 -102 -180 -185 -175 -185 6 0 24 -13 40
-28 101 -93 314 -248 446 -324 73 -42 251 -130 255 -126 6 6 194 471 191 473
-1 1 -45 24 -97 51 -134 70 -249 146 -367 241 -57 46 -104 83 -105 83 -2 0
-86 -83 -188 -185z m379 -139 c82 -43 80 -160 -3 -200 -100 -47 -199 61 -146
159 26 49 96 68 149 41z M3650 2999 c-9 -16 -8 -26 5 -45 17 -27 27 -29 56
-14 21 12 25 50 7 68 -19 19 -56 14 -68 -9z M6360 3328 c-103 -85 -244 -179
-367 -245 l-91 -49 92 -220 c51 -121 95 -228 99 -237 13 -34 298 126 507 284
127 97 210 167 210 179 0 10 -348 360 -357 359 -5 0 -46 -32 -93 -71z m76
-262 c76 -76 22 -200 -83 -191 -91 7 -138 109 -85 181 23 30 49 43 96 43 30 1
45 -6 72 -33z M6325 3020 c-16 -27 -13 -51 10 -66 18 -12 28 -13 44 -4 12 6
22 16 22 23 2 23 -3 42 -14 49 -17 11 -55 10 -62 -2z M7225 3252 c-101 -133
-318 -354 -455 -462 -58 -45 -107 -84 -108 -86 -7 -5 78 -54 127 -73 180 -72
375 -29 507 111 85 90 122 182 122 303 0 109 -35 216 -96 291 -17 21 -18 21
-97 -84z M2696 3268 c-51 -88 -67 -140 -67 -226 0 -137 75 -266 215 -369 138
-102 309 -108 464 -17 24 14 42 29 40 33 -2 5 -50 46 -108 91 -127 101 -339
312 -439 438 -40 50 -75 92 -77 92 -2 0 -14 -19 -28 -42z M5710 2961 c-15 -8
-186 -59 -225 -67 -11 -2 -42 -8 -70 -14 -85 -18 -98 -20 -155 -26 -96 -10
-124 -12 -152 -13 l-28 -1 0 -259 0 -259 58 3 c108 7 220 19 282 30 14 3 41 7
60 10 19 3 42 8 50 10 8 2 29 7 47 10 43 7 256 69 318 92 28 10 50 23 50 29 0
6 -43 113 -95 238 -95 227 -102 238 -140 217z m-135 -253 c58 -69 10 -178 -80
-183 -110 -7 -165 141 -77 204 54 38 114 30 157 -21z M5472 2679 c-31 -12 -37
-34 -18 -64 24 -36 76 -23 76 19 0 33 -29 56 -58 45z M4171 2725 c-52 -129
-93 -236 -90 -238 10 -10 233 -78 299 -92 125 -27 162 -34 200 -40 25 -3 56
-8 70 -10 40 -6 130 -15 203 -20 l67 -4 0 259 0 260 -32 1 c-18 1 -44 2 -58 3
-97 10 -158 18 -203 27 -29 6 -65 13 -82 16 -16 3 -83 20 -148 39 -65 19 -122
34 -125 34 -4 0 -50 -106 -101 -235z m387 19 c13 -9 30 -31 38 -50 49 -117
-92 -210 -182 -120 -27 27 -34 42 -34 74 0 91 101 146 178 96z M4478 2693
c-36 -9 -34 -76 3 -86 24 -6 62 26 57 50 -4 20 -38 41 -60 36z M6405 2539
c-173 -101 -404 -201 -600 -258 -60 -18 -116 -34 -123 -37 -39 -12 113 -176
204 -219 151 -72 366 -24 491 108 56 59 83 106 106 183 21 71 20 264 -2 264
-3 0 -37 -19 -76 -41z M3527 2563 c-10 -18 -19 -78 -19 -136 -1 -161 79 -281
237 -357 96 -46 158 -60 245 -55 86 4 103 9 177 45 62 31 183 139 183 164 0 8
-35 22 -87 36 -195 50 -488 171 -662 273 -68 40 -68 40 -74 30z M2694 2527
c-69 -109 -94 -245 -70 -389 6 -39 38 -125 58 -157 10 -16 7 -24 -18 -53 -16
-18 -315 -361 -664 -761 -578 -663 -635 -732 -638 -766 -3 -32 2 -42 24 -60
30 -24 52 -26 86 -10 13 6 176 187 363 402 187 215 481 552 653 749 l313 359
30 -25 c67 -57 198 -103 309 -110 172 -10 377 84 470 214 l21 29 -31 16 c-17
9 -62 46 -99 83 -103 103 -151 220 -153 371 -1 62 -3 71 -17 65 -79 -34 -172
-52 -256 -49 -49 1 -103 6 -119 9 -51 12 -143 53 -190 85 -24 17 -46 31 -48
31 -2 0 -12 -15 -24 -33z M5417 2194 c-1 -1 -22 -5 -47 -8 -109 -15 -217 -21
-375 -21 -156 0 -226 4 -374 21 l-54 7 7 -39 c11 -62 71 -176 118 -223 71 -71
161 -116 258 -129 254 -33 448 96 504 337 l14 61 -24 -2 c-14 -2 -26 -3 -27
-4z"/>
</g>
</svg>
