<svg viewBox="0 0 64 64" xmlns="http://www.w3.org/2000/svg"><path fill="currentColor" d="m63 53h-3c.2-7.1-.4-14.3-2.1-21.2-1-4.5-4.3-8.4-7.2-11.9-.7-.8-3.3-3.8-3.8-5.1v-4.8h-2v5c0 .2 0 .3.1.4.5 1 1.2 2 1.9 2.9v15.7c0 .6.4 1 1 1s1-.4 1-1v-13.1s6.3 7.3 7 11.4c1.7 6.7 2.4 13.7 2.1 20.7h-3c-.6 0-1 .4-1 1v9c0 .6.4 1 1 1h8c.6 0 1-.4 1-1v-9c0-.6-.4-1-1-1z"/><path fill="currentColor" d="m23.8 17.1 1 .7c.7.5 1.7.5 2.4 0l1-.7c1.1-.8 2.6-.8 3.7.1l2.6 2.1 1.6-6.4c-.2-2.5-2.7-3.9-5.1-3.9h-10c-2.4 0-4.9 1.4-5 3.9l1.6 6.4 2.6-2.1c1-.9 2.5-.9 3.6-.1zm2.2-5.1h1c.6 0 1 .4 1 1s-.4 1-1 1h-1c-.6 0-1-.4-1-1s.4-1 1-1zm-4 0h1c.6 0 1 .4 1 1s-.4 1-1 1h-1c-.6 0-1-.4-1-1s.4-1 1-1z"/><path fill="currentColor" d="m49 45.8v-7.8c0-.6-.4-1-1-1s-1 .4-1 1v7.2z"/><path fill="currentColor" d="m41 43.6v-23.1c0-.1 0-.3-.1-.4l-2.9-7.3v.2.2l-2 7.9v11c0 1.6-1.9 3.4-4 4.8v4.4z"/><path fill="currentColor" d="m34 47v-3.2l-3.3-.8c-.4-.1-.7-.5-.7-1v-3.9c-1.5.8-2.8 1.5-3.6 1.8-.3.1-.6.1-.8 0-.8-.3-2.1-1-3.6-1.8v3.9c0 .5-.3.9-.8 1l-3.2.6v3.4c0 3.9 3.1 7 7 7h2c3.9 0 7-3.1 7-7z"/><path fill="currentColor" d="m4.5 44.3 2-.4-4.5-9.1v-3.8h-2v4c0 .2 0 .3.1.4z"/><path fill="currentColor" d="m21 7h10c.3 0 .7 0 1 .1v-.1c0-2.9-1.9-7-5-7h-2c-3.2 0-4.8 4.5-4.9 7.1.3-.1.6-.1.9-.1z"/><path fill="currentColor" d="m9.7 43.2 10.3-2v-4.3c-2.1-1.4-4-3.1-4-4.8v-4.1c0-.6.4-1 1-1s1 .4 1 1v4.1c0 1.3 4.1 4 8 5.8 3.9-1.8 8-4.5 8-5.8v-10.6l-3.4-2.7c-.4-.3-.9-.3-1.2 0l-1 .7c-1.4 1.1-3.4 1.1-4.8 0l-1-.7c-.4-.3-.9-.3-1.2 0l-3.4 2.7v2.5c0 .6-.4 1-1 1s-1-.4-1-1v-2.9l-2-7.9c0-.1 0-.2 0-.2 0-.1 0-.1 0-.2l-2.9 7.9c0 .1-.1.2-.1.4v19.6l-3.9-12.7 1.9-5.7-1.9-.6-1.4 4.3-2.9-3.6-1.6 1.2 3.9 4.9zm19.3-19.2c0-.6.4-1 1-1s1 .4 1 1v2c0 .6-.4 1-1 1s-1-.4-1-1zm-8 0c0-.6.4-1 1-1s1 .4 1 1v2c0 .6-.4 1-1 1s-1-.4-1-1z"/><path fill="currentColor" d="m49 52.7-1.5-5.3-11.5-3v2.6c0 5-4 9-9 9v6h-2v-6c-5 0-9-4-9-9v-3l-12.1 2.4-3.8 6c0 .2-.1.4-.1.6v10c0 .6.4 1 1 1h9v-9h2v9h26v-9h2v9h8c.6 0 1-.4 1-1v-10c0-.1 0-.2 0-.3zm-28 7.3c0 .6-.4 1-1 1s-1-.4-1-1v-2c0-.6.4-1 1-1s1 .4 1 1zm12 0c0 .6-.4 1-1 1s-1-.4-1-1v-2c0-.6.4-1 1-1s1 .4 1 1z"/></svg>