<svg viewBox="0 0 512 512" xmlns="http://www.w3.org/2000/svg"><g><path fill="currentColor" d="m271.375 111.715c8.927.945 17.613 2.707 25.987 5.201l10.126-24.447 27.738 11.489-10.136 24.472c7.799 4.241 15.162 9.184 22.018 14.73 15.288-19 17.228-45.622 4.248-66.834l-4.446-7.267c-3.027-4.947-5.355-10.224-6.982-15.68-5.009 2.707-10.386 4.793-16.025 6.151l-8.283 1.994c-24.152 5.816-41.594 25.978-44.245 50.191z"/><path fill="currentColor" d="m256 68.804c9.566-14.211 23.237-25.544 39.627-32.261-2.401-2.17-4.909-4.233-7.549-6.154l-10.003-7.277c-8.777-6.387-16.215-14.251-22.075-23.112-5.86 8.861-13.297 16.725-22.073 23.11l-10.005 7.279c-2.638 1.919-5.147 3.982-7.549 6.153 16.39 6.718 30.061 18.05 39.627 32.262z"/><path fill="currentColor" d="m123.632 123.632c-3.284-16.813-1.632-34.493 5.208-50.832-3.232.164-6.464.478-9.688.987l-12.22 1.926c-4.638.732-9.299 1.091-13.934 1.091-6.078 0-12.113-.626-18.019-1.83 2.123 10.411 2.426 21.233.735 31.957l-1.928 12.221c-.508 3.223-.824 6.456-.987 9.689 16.339-6.84 34.02-8.494 50.833-5.209z"/><path fill="currentColor" d="m61.524 196.379c5.817 24.153 25.978 41.595 50.191 44.246.945-8.927 2.707-17.613 5.201-25.987l-24.447-10.126 11.489-27.738 24.471 10.136c4.241-7.799 9.184-15.162 14.73-22.018-19-15.288-45.621-17.23-66.834-4.249l-7.267 4.446c-4.947 3.027-10.224 5.355-15.679 6.983 2.707 5.009 4.793 10.386 6.151 16.024z"/><path fill="currentColor" d="m186.91 128.43-10.136-24.471 27.738-11.489 10.126 24.447c8.374-2.495 17.06-4.257 25.987-5.201-2.651-24.213-20.094-44.375-44.247-50.191l-8.281-1.994c-5.639-1.358-11.017-3.443-16.026-6.151-1.628 5.456-3.955 10.733-6.982 15.681l-4.446 7.265c-12.979 21.213-11.04 47.835 4.248 66.835 6.857-5.547 14.22-10.49 22.019-14.731z"/><path fill="currentColor" d="m408.041 176.774 11.489 27.738-24.447 10.126c2.495 8.374 4.257 17.06 5.201 25.987 24.213-2.652 44.375-20.094 50.191-44.247l1.994-8.281c1.358-5.64 3.444-11.019 6.153-16.029-5.456-1.627-10.735-3.951-15.682-6.979l-7.265-4.446c-21.214-12.981-47.835-11.041-66.835 4.248 5.547 6.856 10.489 14.219 14.73 22.019z"/><path fill="currentColor" d="m256 140.923c-63.454 0-115.077 51.623-115.077 115.077s51.623 115.076 115.077 115.076 115.077-51.622 115.077-115.076-51.623-115.077-115.077-115.077zm0 188.521c-40.497 0-73.444-32.947-73.444-73.444s32.947-73.444 73.444-73.444 73.444 32.947 73.444 73.444-32.947 73.444-73.444 73.444z"/><path fill="currentColor" d="m388.368 123.633c16.813-3.285 34.494-1.632 50.832 5.207-.164-3.232-.479-6.464-.987-9.688l-1.926-12.22c-1.691-10.725-1.388-21.547.735-31.959-5.906 1.204-11.942 1.831-18.02 1.831-4.636.001-9.292-.359-13.933-1.09l-12.221-1.928c-3.223-.508-6.456-.823-9.689-.987 6.84 16.34 8.494 34.02 5.209 50.834z"/><circle cx="256" cy="256" r="43.421"/><path fill="currentColor" d="m256 443.196c-9.566 14.211-23.237 25.544-39.627 32.261 2.401 2.17 4.909 4.233 7.549 6.154l10.003 7.277c8.777 6.386 16.214 14.25 22.074 23.111 5.86-8.861 13.297-16.725 22.073-23.11l10.005-7.279c2.638-1.919 5.147-3.982 7.549-6.153-16.389-6.717-30.06-18.049-39.626-32.261z"/><path fill="currentColor" d="m450.476 315.621c-5.817-24.153-25.978-41.595-50.191-44.246-.945 8.927-2.707 17.613-5.201 25.987l24.447 10.126-11.489 27.738-24.472-10.136c-4.241 7.799-9.184 15.162-14.73 22.018 19 15.287 45.62 17.229 66.834 4.248l7.267-4.446c4.947-3.027 10.224-5.355 15.679-6.982-2.707-5.008-4.793-10.386-6.151-16.025z"/><path fill="currentColor" d="m388.369 388.377c3.282 16.81 1.629 34.487-5.21 50.823 3.232-.164 6.464-.479 9.688-.988l12.22-1.926c10.721-1.692 21.541-1.39 31.951.732-2.122-10.409-2.424-21.228-.734-31.95l1.928-12.221c.508-3.221.823-6.452.987-9.682-10.944 4.581-22.49 6.844-33.974 6.844-5.66.001-11.305-.548-16.856-1.632z"/><path fill="currentColor" d="m325.09 383.57 10.136 24.471-27.738 11.489-10.126-24.447c-8.374 2.495-17.06 4.257-25.987 5.201 2.651 24.213 20.094 44.375 44.247 50.192l8.281 1.994c5.639 1.357 11.017 3.443 16.026 6.151 1.628-5.456 3.955-10.733 6.982-15.68l4.446-7.265c12.979-21.213 11.04-47.835-4.248-66.835-6.857 5.545-14.22 10.488-22.019 14.729z"/><path fill="currentColor" d="m488.89 233.926-7.279-10.005c-1.919-2.638-3.982-5.147-6.153-7.549-6.717 16.39-18.05 30.061-32.261 39.627 14.211 9.566 25.544 23.237 32.261 39.627 2.17-2.401 4.233-4.909 6.154-7.549l7.277-10.003c6.386-8.777 14.25-16.214 23.111-22.074-8.861-5.86-16.725-13.297-23.11-22.074z"/><path fill="currentColor" d="m123.631 388.377c-5.551 1.084-11.196 1.633-16.857 1.633-11.486 0-23.03-2.263-33.973-6.843.164 3.23.478 6.459.987 9.681l1.926 12.22c1.691 10.723 1.389 21.543-.734 31.954 10.41-2.123 21.23-2.425 31.951-.736l12.221 1.928c3.223.508 6.456.823 9.688.986-6.838-16.336-8.492-34.013-5.209-50.823z"/><path fill="currentColor" d="m103.959 335.226-11.489-27.738 24.447-10.126c-2.495-8.374-4.257-17.06-5.201-25.987-24.213 2.651-44.375 20.094-50.191 44.247l-1.994 8.281c-1.357 5.639-3.443 11.017-6.151 16.026 5.456 1.627 10.733 3.955 15.681 6.982l7.265 4.446c21.213 12.979 47.834 11.04 66.835-4.248-5.546-6.856-10.489-14.219-14.73-22.018z"/><path fill="currentColor" d="m68.804 256c-14.211-9.566-25.544-23.237-32.261-39.627-2.17 2.401-4.233 4.91-6.154 7.549l-7.277 10.003c-6.387 8.777-14.251 16.215-23.112 22.075 8.861 5.86 16.725 13.297 23.11 22.073l7.279 10.005c1.919 2.638 3.982 5.147 6.153 7.549 6.718-16.39 18.05-30.061 32.262-39.627z"/><path fill="currentColor" d="m240.625 400.285c-8.927-.944-17.613-2.706-25.987-5.201l-10.126 24.447-27.738-11.489 10.136-24.471c-7.799-4.241-15.162-9.184-22.018-14.73-15.288 19-17.228 45.622-4.248 66.834l4.446 7.267c3.027 4.947 5.355 10.224 6.982 15.679 5.009-2.707 10.386-4.793 16.025-6.151l8.283-1.994c24.152-5.816 41.594-25.978 44.245-50.191z"/></g></svg>