<svg xmlns="http://www.w3.org/2000/svg" viewBox="0 0 1024 1024">
<g transform="translate(0,1024) scale(0.1,-0.1)">
<path fill="currentColor" d="M6660 10233 c-262 -44 -485 -202 -608 -433 -22 -41 -46 -94 -53 -117
-7 -24 -14 -43 -15 -43 -2 0 -26 14 -54 30 -74 44 -159 78 -240 97 -82 19
-235 23 -325 10 -60 -10 -181 -49 -238 -79 -253 -128 -436 -406 -449 -686 -2
-42 -6 -51 -18 -46 -45 18 -196 42 -271 42 -75 0 -105 -3 -207 -24 -54 -11
-162 -58 -232 -102 -158 -98 -286 -259 -345 -436 -32 -96 -40 -152 -39 -281
l0 -110 -120 2 c-90 1 -141 -4 -201 -18 -164 -40 -325 -140 -434 -270 -185
-219 -243 -513 -156 -786 l23 -73 -22 -1 c-11 0 -28 -2 -36 -4 -8 -1 -35 -6
-59 -10 -113 -17 -267 -91 -380 -184 -103 -83 -206 -243 -250 -385 -61 -197
-42 -429 51 -614 23 -45 39 -83 37 -85 -2 -1 -31 -13 -64 -26 -299 -117 -508
-414 -519 -736 -9 -280 117 -541 342 -705 l60 -43 -58 -38 c-77 -52 -188 -171
-238 -255 -229 -385 -114 -877 261 -1122 79 -52 212 -106 288 -117 24 -4 48
-9 52 -12 5 -3 -72 -87 -172 -187 l-182 -182 70 -47 c115 -79 254 -223 327
-339 l25 -39 177 176 177 176 9 -33 c54 -209 137 -349 278 -468 96 -80 242
-154 349 -175 13 -3 38 -8 54 -11 59 -12 191 -11 267 2 218 38 414 161 539
337 l48 68 25 -40 c42 -66 154 -178 226 -226 140 -93 273 -136 437 -140 339
-10 630 168 777 475 20 41 36 80 36 87 0 24 20 24 62 -1 121 -71 274 -107 428
-101 117 4 129 6 226 36 198 61 376 207 477 391 24 43 83 198 86 223 7 76 15
125 20 125 3 0 34 -9 68 -20 88 -27 143 -35 253 -35 112 1 151 6 245 36 135
41 247 112 351 221 154 160 227 346 227 578 l0 115 116 -2 c93 -1 134 3 207
22 276 71 492 271 583 543 31 91 36 125 36 257 0 126 -7 179 -30 245 -11 30
-11 40 -2 41 266 15 502 134 646 326 111 147 161 292 167 478 5 171 -30 311
-111 448 -31 51 -33 58 -17 64 138 49 231 103 324 191 118 112 205 266 241
426 20 88 20 264 0 352 -56 250 -234 471 -461 574 l-50 23 39 57 c95 140 141
292 141 470 0 343 -222 658 -545 772 -112 40 -133 43 -298 43 l-147 0 6 50
c31 265 -52 507 -239 695 -92 93 -218 169 -341 204 -91 27 -98 28 -223 31
-184 5 -320 -33 -471 -130 l-67 -43 -37 72 c-49 97 -79 137 -170 226 -107 105
-253 182 -405 215 -36 8 -250 14 -285 8z m669 -1525 c98 -216 304 -385 546
-449 85 -22 244 -30 323 -16 l43 7 -7 -42 c-8 -54 -8 -201 1 -248 48 -269 212
-497 440 -610 39 -19 72 -36 75 -38 2 -2 -2 -13 -10 -25 -67 -106 -95 -160
-120 -235 -80 -242 -50 -488 91 -717 18 -30 18 -31 -1 -32 -34 -3 -192 -82
-249 -125 -163 -123 -281 -307 -321 -503 -19 -91 -17 -246 6 -345 10 -47 19
-89 19 -94 0 -5 -25 -11 -55 -13 -144 -9 -339 -86 -455 -180 -133 -108 -242
-278 -286 -448 -16 -59 -21 -111 -21 -200 l0 -120 -107 0 c-127 0 -181 -8
-281 -41 -144 -48 -268 -135 -373 -259 -101 -120 -182 -318 -186 -456 l-1 -26
-57 20 c-32 10 -67 21 -78 23 -11 2 -31 7 -45 9 -59 13 -220 12 -294 -1 -212
-38 -421 -176 -542 -359 -19 -28 -50 -87 -69 -131 -19 -43 -38 -79 -42 -79 -5
0 -42 17 -84 38 -113 55 -214 79 -344 80 -125 2 -176 -5 -272 -34 -171 -53
-324 -167 -431 -321 l-39 -58 -36 53 c-78 115 -192 212 -322 273 -128 60 -207
77 -350 78 -151 1 -225 -12 -330 -59 -67 -29 -80 -19 -55 41 49 114 65 195 65
334 -1 159 -22 249 -93 385 -59 112 -173 241 -264 297 -21 13 -38 26 -38 29 0
3 24 21 53 40 163 105 297 308 342 518 19 89 14 285 -9 371 -14 50 -70 182
-103 241 -2 3 28 18 67 33 148 58 294 178 383 314 146 222 172 477 80 765 -5
17 -2 18 70 17 15 0 183 52 219 68 219 97 392 300 460 538 17 63 22 106 22
209 l1 130 125 1 c94 1 145 7 205 23 348 94 585 375 621 737 3 32 7 60 8 62 2
1 16 -2 32 -9 65 -25 172 -38 274 -34 124 4 139 7 247 44 210 72 384 230 478
434 19 42 35 82 35 91 0 28 18 27 66 -4 254 -161 645 -149 892 27 26 18 49 33
52 33 3 0 16 -24 29 -52z M1138 1775 c-2 -2 -27 -5 -56 -8 -82 -9 -177 -45
-255 -97 -49 -33 -194 -171 -446 -424 l-374 -375 434 -435 435 -436 400 403
c434 436 441 445 483 596 27 99 24 267 -8 354 -86 241 -300 403 -553 420 -32
2 -59 3 -60 2z"/>
</g>
</svg>
