<svg xmlns="http://www.w3.org/2000/svg" viewBox="0 0 68 68"><path fill="currentColor" d="M60.79,16.19 C63.67,16.19 66.00,18.52 66.00,21.40 L66.00,46.60 C66.00,49.48 63.67,51.81 60.79,51.81 L7.21,51.81 C4.33,51.81 2.00,49.48 2.00,46.60 L2.00,21.40 C2.00,18.52 4.33,16.19 7.21,16.19 L60.79,16.19 Z M62.00,41.74 L62.00,26.26 C62.00,25.71 61.55,25.26 61.00,25.26 C58.75,25.26 56.93,23.44 56.93,21.20 C56.93,20.64 56.48,20.20 55.93,20.20 L12.07,20.20 C11.51,20.20 11.07,20.64 11.07,21.20 C11.07,23.44 9.24,25.26 7.00,25.26 C6.44,25.26 6.00,25.71 6.00,26.26 L6.00,41.74 C6.00,42.29 6.44,42.74 7.00,42.74 C9.24,42.74 11.07,44.56 11.07,46.80 C11.07,47.36 11.51,47.80 12.07,47.80 L55.93,47.80 C56.48,47.80 56.93,47.36 56.93,46.80 C56.93,44.56 58.75,42.74 61.00,42.74 C61.55,42.74 62.00,42.29 62.00,41.74 Z M55.01,22.20 C55.43,24.74 57.45,26.76 60.00,27.18 L60.00,40.82 C57.45,41.24 55.43,43.26 55.01,45.80 L12.98,45.80 C12.56,43.26 10.54,41.24 8.00,40.82 L8.00,27.18 C10.54,26.76 12.56,24.74 12.98,22.20 L55.01,22.20 Z M37.36,29.52 C37.20,28.68 36.82,27.92 36.31,27.27 L39.26,27.27 C39.81,27.27 40.26,26.83 40.26,26.27 C40.26,25.72 39.81,25.27 39.26,25.27 L28.73,25.27 C28.18,25.27 27.73,25.72 27.73,26.27 C27.73,26.83 28.18,27.27 28.73,27.27 L32.22,27.27 C33.66,27.27 34.87,28.22 35.29,29.52 L28.73,29.52 C28.18,29.52 27.73,29.97 27.73,30.52 C27.73,31.08 28.18,31.52 28.73,31.52 L35.29,31.52 C34.87,32.82 33.66,33.77 32.22,33.77 L28.73,33.77 C28.35,33.77 28.00,33.99 27.83,34.33 C27.67,34.67 27.71,35.08 27.94,35.38 L33.32,42.34 C33.52,42.59 33.81,42.73 34.11,42.73 C34.33,42.73 34.54,42.66 34.72,42.52 C35.16,42.18 35.24,41.55 34.90,41.11 L30.77,35.77 L32.22,35.77 C34.77,35.77 36.89,33.94 37.36,31.52 L39.26,31.52 C39.81,31.52 40.26,31.08 40.26,30.52 C40.26,29.97 39.81,29.52 39.26,29.52 L37.36,29.52 Z M17.96,36.94 C19.58,36.94 20.90,35.62 20.90,34.00 C20.90,32.38 19.58,31.06 17.96,31.06 C16.34,31.06 15.03,32.38 15.03,34.00 C15.03,35.62 16.34,36.94 17.96,36.94 Z M49.91,36.94 C51.53,36.94 52.85,35.62 52.85,34.00 C52.85,32.38 51.53,31.06 49.91,31.06 C48.29,31.06 46.98,32.38 46.98,34.00 C46.98,35.62 48.29,36.94 49.91,36.94 Z"/></svg>