<svg xmlns="http://www.w3.org/2000/svg" viewBox="0 0 1024 1024">
<g transform="translate(0,1024) scale(0.1,-0.1)">
<path fill="currentColor" d="M6802 8723 c-18 -7 -42 -58 -37 -81 2 -11 24 -46 48 -78 62 -81 90
-164 91 -267 1 -154 -12 -217 -110 -545 -111 -373 -137 -537 -110 -705 23
-146 141 -327 213 -327 41 0 72 28 79 70 5 30 0 42 -37 85 -114 135 -132 305
-63 580 8 33 39 141 69 240 94 315 116 418 120 565 5 169 -42 311 -139 417
-39 43 -54 53 -80 52 -17 0 -37 -3 -44 -6z M5928 8019 c-36 -35 -30 -76 16
-131 68 -79 96 -208 75 -341 -5 -29 -11 -66 -14 -83 -2 -17 -25 -100 -50 -185
-104 -352 -117 -414 -121 -554 -5 -184 28 -291 121 -391 50 -53 91 -59 130
-19 36 35 32 74 -11 127 -37 44 -70 108 -79 156 -9 46 -6 174 5 232 6 30 13
64 16 76 2 11 17 68 34 125 55 188 102 354 106 374 56 283 26 466 -98 596 -53
54 -89 60 -130 18z M7657 8019 c-37 -38 -33 -68 22 -140 77 -101 91 -208 56
-410 -3 -17 -31 -117 -62 -222 -100 -345 -118 -433 -116 -575 3 -135 48 -255
129 -339 30 -32 48 -43 70 -43 42 0 72 25 80 65 5 30 1 41 -28 78 -46 56 -65
94 -81 164 -27 118 -9 241 79 531 121 398 136 569 67 737 -31 75 -108 174
-136 176 -7 0 -21 2 -31 4 -11 2 -31 -9 -49 -26z M4997 5493 c161 -244 218
-378 257 -603 3 -14 5 -31 5 -38 1 -10 319 -12 1574 -10 l1572 3 3 28 c3 20 9
27 25 28 12 0 31 2 42 4 11 2 49 7 85 11 36 3 72 8 81 9 97 18 321 25 394 13
130 -22 308 -118 392 -211 127 -140 195 -307 196 -482 1 -111 -6 -154 -37
-248 -37 -110 -90 -193 -180 -282 -77 -76 -106 -94 -526 -336 -245 -141 -455
-262 -467 -268 l-22 -11 2 118 2 117 -1563 1 -1563 0 2 -103 c3 -198 47 -343
149 -493 128 -189 361 -331 583 -357 62 -7 1522 -10 1627 -3 246 16 520 187
640 400 19 33 42 70 50 80 8 11 254 157 545 326 613 355 620 359 727 492 384
480 168 1196 -417 1387 -42 13 -97 28 -123 32 -88 14 -312 7 -413 -12 -8 -2
-54 -6 -102 -10 l-88 -7 24 63 c40 106 100 217 194 359 49 74 92 141 97 148 6
9 -383 12 -1932 12 l-1939 0 104 -157z M5270 4537 l0 -144 268 0 c148 0 280
-3 293 -6 47 -12 54 -43 55 -246 1 -102 2 -188 3 -191 1 -4 461 -5 482 -1 4 0
5 16 4 34 -2 17 -6 104 -10 192 -6 154 -6 161 15 188 l21 27 419 0 c230 0 426
-3 435 -6 36 -14 45 -56 44 -221 0 -87 0 -172 0 -188 l1 -30 208 1 c114 1 209
2 212 3 6 1 7 41 9 283 1 97 3 109 24 134 l23 27 311 0 310 1 1 143 1 143
-1565 0 -1564 0 0 -143z M1478 4518 c-20 -7 -45 -38 -92 -117 -78 -129 -84
-150 -49 -191 28 -33 65 -39 99 -16 21 15 125 182 143 228 21 56 -42 116 -101
96z M1433 3402 c-349 -584 -573 -968 -573 -983 0 -14 5 -30 12 -37 9 -9 156
-12 601 -12 l589 0 -48 33 c-63 41 -109 110 -112 164 -4 71 20 110 152 238
141 137 153 161 143 283 -8 89 -29 147 -88 238 -163 250 -210 484 -148 750 6
27 12 58 15 69 2 11 6 31 9 45 14 67 28 170 23 170 -2 0 -261 -431 -575 -958z
M3292 3837 c-171 -288 -312 -526 -312 -529 0 -3 102 -176 226 -384 125 -209
236 -399 246 -423 13 -28 19 -58 16 -87 l-3 -44 99 0 98 0 -48 33 c-100 67
-139 170 -96 254 12 22 69 84 127 138 136 126 150 152 149 270 -1 108 -17 154
-102 288 -112 178 -152 302 -156 486 -3 96 2 129 43 331 20 99 34 190 29 190
-2 0 -144 -235 -316 -523z M2169 4327 c-1 -9 -2 -20 -3 -24 -1 -5 -6 -33 -10
-63 -4 -30 -9 -62 -11 -70 -2 -8 -13 -60 -25 -115 -29 -132 -30 -272 -1 -378
25 -97 40 -129 112 -242 102 -163 129 -249 126 -399 -4 -152 -51 -228 -247
-398 -52 -45 -53 -48 -40 -73 16 -29 81 -62 195 -99 75 -24 212 -58 280 -70
17 -3 41 -9 55 -13 31 -9 646 -16 677 -8 28 7 39 45 22 77 -6 12 -224 379
-484 813 -260 435 -511 855 -559 935 -47 79 -87 137 -87 127z M3770 4335 c-1
-5 -3 -17 -4 -25 -2 -8 -6 -35 -9 -60 -3 -25 -18 -99 -32 -165 -58 -264 -33
-427 96 -637 115 -187 140 -264 135 -419 -3 -142 -47 -213 -233 -380 -35 -31
-63 -61 -63 -67 0 -19 43 -53 95 -77 66 -29 247 -83 335 -99 14 -2 36 -7 50
-10 14 -3 39 -9 55 -13 17 -4 177 -8 356 -10 291 -4 328 -2 343 12 24 24 20
45 -23 116 -195 325 -1081 1809 -1089 1824 -6 11 -12 16 -12 10z M5279 4229
c-5 -3 -8 -156 -7 -369 l3 -364 1558 -1 c1550 0 1558 0 1562 20 2 11 3 177 2
369 l-2 350 -249 0 c-160 1 -250 -3 -252 -9 -3 -6 -6 -94 -8 -195 -2 -102 -7
-193 -11 -203 -16 -40 -47 -43 -365 -42 -168 1 -314 4 -325 8 -40 14 -45 38
-46 242 -1 140 -4 195 -12 196 -35 3 -584 4 -593 1 -8 -2 -11 -23 -9 -55 2
-29 6 -116 10 -193 6 -140 6 -142 -18 -170 l-25 -29 -348 0 c-373 -1 -395 1
-410 47 -4 13 -9 106 -10 208 -1 102 -2 187 -3 190 -1 7 -431 6 -442 -1z
M1177 4038 c-14 -13 -181 -286 -373 -607 -266 -446 -348 -592 -347 -615 1 -31
41 -76 68 -76 51 0 63 17 420 614 196 328 358 605 360 616 9 45 -34 90 -85 90
-10 0 -30 -10 -43 -22z M6194 2205 c-1 -5 -2 -71 -1 -145 l2 -135 640 -3 640
-2 -2 142 c0 79 -1 145 -2 148 -2 10 -1273 5 -1277 -5z M590 2197 c0 -8 14
-41 31 -75 37 -75 111 -143 189 -175 l55 -22 2040 0 2040 0 57 27 c31 14 77
45 102 68 42 39 106 145 106 177 0 11 -386 13 -2310 13 -1924 0 -2310 -2
-2310 -13z M511 1714 c128 -113 280 -182 446 -201 56 -6 7927 -9 8067 -3 141
7 274 52 401 135 44 29 93 67 109 84 l30 31 -4552 0 -4553 0 52 -46z"/>
</g>
</svg>
