<svg xmlns="http://www.w3.org/2000/svg" viewBox="0 0 1024 1024">
<g transform="translate(0,1024) scale(0.1,-0.1)">
<path fill="currentColor" d="M5030 8200 c-74 -21 -135 -74 -224 -193 -73 -98 -143 -212 -420 -692
-213 -368 -236 -412 -225 -430 7 -11 116 -195 242 -410 126 -214 232 -394 236
-398 4 -4 41 25 82 65 125 123 265 181 418 173 88 -4 97 -6 172 -34 83 -31
166 -89 231 -160 l58 -62 19 31 c15 26 17 38 9 73 -5 23 -12 53 -14 67 -3 14
-10 45 -15 70 -6 25 -13 56 -15 70 -3 14 -19 88 -35 165 -17 77 -33 151 -35
165 -3 14 -10 45 -15 70 -6 25 -13 56 -15 70 -3 14 -19 88 -35 165 -17 77 -33
151 -35 165 -3 14 -26 120 -50 235 -25 116 -48 221 -50 235 -3 14 -26 120 -50
235 -53 246 -52 241 -60 283 -3 18 -11 35 -16 38 -14 9 -130 12 -158 4z M5470
7953 c0 -6 11 -62 24 -125 14 -62 27 -124 30 -138 2 -14 18 -88 35 -165 16
-77 32 -151 35 -165 2 -14 9 -45 15 -70 5 -25 12 -56 15 -70 2 -14 18 -88 35
-165 16 -77 32 -151 35 -165 2 -14 18 -88 35 -165 16 -77 32 -151 35 -165 2
-14 10 -50 17 -80 7 -30 12 -61 12 -67 0 -7 1 -13 3 -13 1 0 40 68 85 152 46
83 112 195 147 247 53 80 61 100 53 118 -5 11 -139 241 -297 510 -158 268
-294 499 -301 513 -7 14 -13 20 -13 13z M3579 6906 c-132 -48 -202 -135 -399
-496 -125 -230 -218 -389 -289 -495 l-40 -59 28 -51 c76 -133 793 -1351 800
-1358 4 -4 66 90 136 210 71 120 170 283 219 363 54 87 89 155 89 170 -1 14
-22 122 -48 240 -26 118 -49 226 -51 240 -3 14 -26 120 -50 235 -25 116 -48
221 -50 235 -3 14 -26 120 -50 235 -25 116 -48 221 -50 235 -30 152 -65 294
-74 300 -20 12 -134 10 -171 -4z M6449 6907 c-133 -50 -202 -136 -399 -497
-125 -230 -218 -389 -289 -494 -34 -50 -38 -63 -29 -80 27 -51 810 -1382 817
-1389 9 -9 447 721 445 743 -2 22 -10 60 -60 295 -25 115 -48 221 -50 235 -3
14 -26 120 -50 235 -25 116 -48 221 -50 235 -3 14 -10 45 -15 70 -6 25 -13 56
-15 70 -5 25 -94 437 -98 455 -2 6 -6 31 -10 56 -4 25 -12 52 -16 59 -12 20
-135 24 -181 7z M4033 6655 c4 -11 8 -31 11 -45 2 -14 25 -119 50 -235 24
-115 47 -221 50 -235 2 -14 25 -119 50 -235 24 -115 47 -221 50 -235 2 -14 14
-68 25 -120 12 -52 21 -97 21 -100 0 -6 40 63 92 160 22 41 60 112 84 157 24
44 44 85 44 91 0 9 -462 798 -475 810 -4 4 -5 -2 -2 -13z M6904 6655 c2 -11 7
-29 10 -40 3 -11 7 -31 10 -45 2 -14 18 -88 35 -165 16 -77 32 -151 35 -165 2
-14 18 -88 35 -165 16 -77 32 -151 35 -165 2 -14 18 -88 35 -165 16 -77 32
-151 35 -165 2 -14 10 -49 16 -79 l12 -53 52 93 c29 52 80 144 112 205 l60
111 -228 389 c-126 214 -235 398 -244 409 -14 20 -15 20 -10 0z M5029 6098
c-86 -22 -186 -133 -345 -385 -66 -103 -818 -1387 -863 -1471 -11 -20 9 -58
210 -400 123 -207 226 -379 230 -382 4 -3 339 -5 746 -5 l738 0 0 25 c1 14 -5
50 -12 80 -7 30 -15 68 -18 84 -3 16 -20 93 -36 170 -17 78 -33 152 -35 166
-3 14 -19 88 -35 165 -17 77 -33 151 -35 165 -3 14 -19 88 -35 165 -17 77 -33
151 -35 165 -3 14 -26 120 -50 235 -25 116 -48 221 -50 235 -3 14 -19 88 -35
165 -17 77 -33 151 -35 165 -3 14 -19 88 -35 165 -17 77 -32 149 -35 160 -2
11 -18 89 -36 172 l-31 153 -31 5 c-58 11 -101 12 -137 3z M2221 6059 c-198
-114 -577 -634 -1108 -1521 -191 -319 -622 -1072 -616 -1078 10 -11 2375 -5
2380 6 2 5 -10 75 -27 155 -18 79 -34 155 -36 169 -3 14 -19 88 -35 165 -17
77 -33 151 -35 165 -3 14 -26 120 -50 235 -25 116 -48 221 -50 235 -3 14 -19
88 -35 165 -17 77 -33 151 -35 165 -3 14 -19 88 -35 165 -17 77 -33 151 -35
165 -3 14 -26 120 -50 235 -25 116 -48 221 -50 235 -5 21 -59 276 -69 320 -2
8 -4 23 -4 33 -1 27 -49 21 -110 -14z M7944 6052 c-228 -147 -623 -709 -1173
-1668 l-93 -162 223 -378 c122 -209 224 -381 227 -384 2 -3 337 -5 744 -5 550
0 742 3 745 11 2 7 -12 88 -32 180 -20 93 -39 180 -41 194 -3 14 -26 120 -50
235 -25 116 -48 221 -50 235 -3 14 -26 120 -50 235 -25 116 -48 221 -50 235
-3 14 -26 120 -50 235 -25 116 -48 221 -50 235 -3 14 -26 120 -50 235 -25 116
-47 219 -50 230 -2 11 -20 100 -41 198 l-37 177 -32 0 c-19 0 -54 -15 -90 -38z
M2606 5801 c7 -28 15 -63 17 -78 3 -15 10 -48 15 -73 6 -25 13 -56 16 -70 2
-14 18 -88 35 -165 16 -77 32 -151 35 -165 2 -14 9 -45 15 -70 5 -25 12 -56
15 -70 2 -14 18 -88 35 -165 16 -77 32 -151 35 -165 2 -14 9 -45 15 -70 5 -25
12 -56 15 -70 2 -14 18 -88 35 -165 16 -77 32 -151 35 -165 2 -14 9 -45 15
-70 5 -25 12 -56 15 -70 2 -14 18 -88 35 -165 16 -77 32 -151 35 -165 2 -14 9
-45 15 -70 5 -25 12 -56 15 -70 21 -111 51 -236 57 -240 6 -4 869 -5 891 -1 7
1 -1376 2357 -1397 2379 -10 11 -10 4 1 -37z M5474 5825 c2 -16 9 -50 14 -75
6 -25 13 -56 16 -70 2 -14 18 -88 35 -165 16 -77 32 -151 35 -165 2 -14 18
-88 35 -165 16 -77 32 -151 35 -165 2 -14 9 -45 15 -70 5 -25 12 -56 15 -70 2
-14 18 -88 35 -165 16 -77 32 -151 35 -165 2 -14 18 -88 35 -165 16 -77 32
-151 35 -165 2 -14 18 -88 35 -165 16 -77 32 -151 35 -165 18 -96 90 -426 93
-430 6 -6 883 -7 892 0 6 4 -765 1324 -1334 2285 -46 77 -64 101 -61 80z
M8340 5845 c0 -6 9 -51 19 -100 11 -50 22 -101 25 -115 2 -14 18 -88 35 -165
16 -77 32 -151 35 -165 2 -14 18 -88 35 -165 16 -77 32 -151 35 -165 2 -14 9
-45 15 -70 5 -25 12 -56 15 -70 2 -14 18 -88 35 -165 16 -77 32 -151 35 -165
2 -14 18 -88 35 -165 16 -77 32 -151 35 -165 2 -14 18 -88 35 -165 16 -77 32
-151 35 -165 17 -93 80 -376 83 -380 6 -6 883 -7 892 0 4 3 -287 505 -646
1115 -360 611 -676 1148 -703 1195 -27 47 -50 80 -50 75z M155 3226 c-83 -37
-112 -105 -92 -216 72 -388 366 -743 737 -890 68 -27 171 -58 220 -65 19 -3
47 -9 60 -13 14 -4 1818 -8 4010 -8 4398 -2 4073 -7 4279 62 386 129 665 419
782 814 51 170 41 246 -38 300 l-37 25 -4945 2 c-4086 2 -4951 0 -4976 -11z"/>
</g>
</svg>
