<svg xmlns="http://www.w3.org/2000/svg" viewBox="0 0 1024 1024">
<g transform="translate(0,1024) scale(0.1,-0.1)">
<path fill="currentColor" d="M7029 10236 c-2 -2 -50 -7 -106 -10 -55 -4 -112 -9 -125 -11 -12 -2
-48 -6 -79 -10 -31 -3 -66 -7 -76 -9 -11 -3 -44 -7 -74 -11 -30 -4 -56 -8 -59
-10 -3 -2 -26 -6 -50 -10 -25 -3 -65 -11 -90 -17 -25 -5 -56 -12 -70 -14 -128
-23 -464 -131 -628 -201 -349 -148 -609 -318 -832 -542 -241 -242 -380 -494
-424 -769 -14 -83 -15 -318 -3 -352 4 -8 8 -31 11 -51 10 -68 58 -204 107
-304 123 -249 337 -478 644 -687 157 -108 274 -173 287 -160 5 5 45 69 88 141
l78 131 -90 45 c-168 85 -290 173 -423 309 -94 96 -143 158 -219 279 -99 159
-136 297 -131 490 6 264 109 481 335 707 208 208 498 378 860 505 97 34 329
98 393 109 15 3 35 7 45 10 9 3 33 7 52 10 19 3 46 8 60 11 13 2 40 7 60 10
20 3 45 7 55 9 11 2 49 7 85 11 36 4 74 9 84 11 135 26 805 25 968 -1 12 -2
48 -6 78 -9 30 -4 69 -9 85 -12 17 -2 55 -9 85 -14 152 -26 151 -26 311 -66
358 -90 681 -233 939 -417 108 -77 291 -261 353 -353 131 -198 179 -356 173
-569 -4 -145 -28 -242 -91 -371 -187 -384 -655 -708 -1276 -884 -79 -22 -157
-43 -174 -46 -16 -3 -46 -9 -65 -14 -19 -5 -51 -12 -70 -15 -19 -3 -46 -8 -60
-10 -46 -10 -65 -13 -120 -20 -30 -4 -63 -9 -72 -10 -20 -4 -148 -18 -165 -18
-7 0 -13 -2 -13 -4 0 -3 43 -78 96 -168 71 -122 99 -163 112 -160 9 1 40 6 67
9 28 4 57 9 65 11 8 2 32 6 52 9 21 3 57 10 80 15 24 6 55 12 69 14 14 3 86
21 160 40 560 148 1032 405 1356 738 128 131 213 249 287 397 39 77 92 226
101 283 3 19 9 59 14 89 13 81 10 244 -5 335 -103 591 -662 1107 -1509 1394
-113 38 -355 104 -427 116 -18 3 -40 8 -48 10 -15 4 -24 6 -110 20 -25 4 -54
9 -65 11 -11 2 -40 7 -65 10 -25 3 -55 7 -67 9 -12 2 -57 6 -100 10 -43 4 -89
9 -103 12 -29 5 -606 14 -611 9z M7019 9516 c-2 -2 -44 -7 -93 -10 -49 -4
-103 -8 -120 -11 -96 -13 -194 -28 -211 -31 -11 -3 -36 -7 -55 -10 -19 -3 -43
-7 -52 -10 -10 -3 -30 -7 -45 -10 -16 -3 -46 -10 -68 -16 -22 -5 -50 -12 -63
-14 -51 -10 -258 -77 -354 -115 -433 -172 -717 -410 -809 -676 -20 -60 -24
-60 72 8 180 130 438 253 715 343 106 34 314 89 379 100 17 3 41 8 55 11 99
19 130 25 170 30 25 3 52 8 60 10 8 2 44 7 80 10 36 4 73 9 82 10 137 27 889
27 1026 0 9 -1 46 -6 82 -10 36 -4 72 -8 80 -10 8 -1 35 -6 60 -10 25 -3 56
-8 70 -11 14 -2 68 -12 121 -23 453 -93 828 -243 1126 -448 l91 -63 -10 38
c-61 222 -316 463 -663 626 -204 96 -519 194 -744 232 -18 3 -43 8 -55 10 -11
2 -41 7 -66 10 -25 3 -53 8 -62 9 -9 2 -48 7 -85 11 -37 4 -81 9 -98 11 -40 6
-610 14 -616 9z M6979 8796 c-2 -2 -46 -7 -96 -10 -51 -4 -103 -9 -115 -11
-13 -2 -45 -6 -73 -10 -48 -6 -193 -29 -245 -40 -14 -3 -38 -8 -55 -11 -16 -2
-48 -10 -70 -16 -22 -5 -50 -12 -62 -14 -60 -11 -281 -81 -383 -121 -236 -93
-452 -222 -594 -354 l-76 -71 33 -46 c49 -71 204 -220 293 -284 82 -58 244
-148 266 -148 7 1 56 74 108 163 69 117 113 180 160 228 179 182 442 248 690
174 107 -32 190 -85 280 -175 78 -79 98 -109 244 -361 175 -300 194 -331 204
-325 4 2 48 7 98 10 51 4 100 8 110 10 11 2 44 7 74 10 108 13 306 50 435 82
502 127 932 367 1101 618 l34 51 -47 46 c-181 173 -459 326 -776 428 -139 44
-371 101 -477 117 -19 3 -42 7 -50 9 -8 2 -37 7 -65 11 -27 3 -57 8 -66 9 -9
2 -52 6 -95 10 -43 4 -88 10 -99 12 -23 6 -680 14 -686 9z M6475 7885 c-64
-19 -117 -50 -156 -92 -40 -42 -81 -110 -868 -1456 l-543 -927 720 -1233 c396
-677 895 -1531 1109 -1897 l389 -665 778 -3 778 -2 -36 47 c-513 675 -884
1431 -1150 2343 -37 127 -106 387 -121 450 -26 121 -68 310 -71 325 -2 11 -6
31 -9 45 -7 31 -14 67 -20 100 -10 56 -56 327 -60 350 -4 31 -16 110 -20 130
-1 8 -6 42 -10 75 -4 32 -8 66 -10 75 -2 8 -6 44 -10 80 -4 36 -9 72 -10 81
-2 9 -6 52 -10 95 -4 43 -9 87 -11 97 -1 9 -6 56 -9 105 -4 48 -8 98 -10 112
-2 14 -7 77 -10 140 -4 63 -9 131 -10 150 -8 84 -18 445 -19 675 l-1 250 -122
211 c-125 213 -153 253 -210 292 -72 50 -190 71 -268 47z M9962 7251 c-382
-390 -952 -684 -1622 -837 -63 -14 -126 -28 -140 -30 -14 -2 -36 -7 -50 -9
-14 -3 -36 -7 -49 -10 -13 -2 -25 -6 -27 -8 -5 -4 522 -905 540 -925 9 -10 39
1 141 52 332 164 606 396 817 691 209 293 397 688 462 975 2 8 9 35 16 60 19
70 35 161 29 158 -2 0 -55 -53 -117 -117z M4650 7143 c10 -27 40 -102 66 -168
57 -148 152 -341 247 -503 55 -96 74 -120 83 -110 14 16 224 377 224 386 0 4
-30 23 -67 42 -110 58 -325 204 -448 305 -63 52 -117 95 -120 95 -2 0 5 -21
15 -47z M7444 6630 c3 -47 8 -139 11 -205 3 -66 8 -140 10 -165 2 -25 7 -83
10 -130 4 -47 8 -96 10 -110 2 -14 6 -61 10 -104 4 -43 8 -86 10 -95 1 -9 6
-50 10 -91 4 -41 8 -77 10 -80 1 -3 6 -36 10 -73 3 -37 8 -76 10 -85 1 -9 6
-37 9 -62 3 -25 8 -54 10 -65 2 -11 7 -40 10 -65 3 -25 8 -56 11 -70 2 -13 7
-40 10 -60 3 -20 7 -47 10 -60 3 -14 16 -83 30 -155 249 -1295 728 -2392 1397
-3197 49 -59 100 -116 112 -125 20 -16 51 -18 362 -17 368 2 396 5 476 56 138
88 204 295 142 448 -15 38 -2628 4514 -2671 4575 -12 18 -13 10 -9 -65z M3567
6435 c-73 -29 -119 -64 -155 -118 -82 -121 -3289 -5600 -3305 -5647 -21 -60
-20 -169 2 -242 19 -60 92 -159 145 -195 97 -66 -127 -62 2844 -62 1486 -1
2702 2 2702 5 0 4 -42 64 -93 133 -126 170 -172 236 -256 369 -455 722 -783
1562 -1006 2582 -2 12 -43 218 -71 365 -2 10 -6 35 -9 55 -3 20 -7 47 -10 60
-3 13 -7 42 -10 65 -6 37 -20 133 -30 195 -2 14 -7 49 -10 79 -4 30 -8 61 -10
70 -1 9 -6 47 -10 84 -3 37 -8 76 -10 85 -1 9 -6 55 -10 102 -4 47 -8 92 -10
100 -2 8 -6 56 -10 105 -4 50 -8 106 -10 125 -2 19 -6 89 -10 155 -4 66 -9
143 -11 170 -2 28 -7 225 -10 439 l-6 390 -122 208 c-67 115 -139 226 -160
248 -90 92 -232 123 -349 75z M4575 5110 c3 -91 8 -181 10 -200 2 -19 6 -84
10 -144 4 -60 8 -116 10 -125 1 -9 6 -56 10 -105 4 -49 8 -98 10 -110 2 -11 6
-48 10 -81 3 -33 7 -71 10 -85 2 -14 7 -50 10 -80 3 -30 7 -66 10 -80 2 -14 9
-61 15 -105 15 -107 17 -115 35 -225 9 -52 18 -108 21 -125 3 -16 7 -37 9 -45
2 -8 6 -31 9 -50 3 -19 8 -46 11 -60 3 -14 7 -36 10 -50 6 -32 11 -55 24 -110
5 -25 12 -56 14 -70 3 -14 23 -100 46 -192 244 -1006 625 -1856 1138 -2543 87
-117 256 -322 277 -338 6 -4 173 -6 371 -5 l360 3 55 26 c136 64 210 184 211
340 1 124 173 -182 -1596 2839 -603 1031 -1099 1877 -1102 1880 -3 3 -2 -69 2
-160z"/>
</g>
</svg>
