<svg xmlns="http://www.w3.org/2000/svg" viewBox="0 0 1024 1024">
<g transform="translate(0,1024) scale(0.1,-0.1)">
<path fill="currentColor" d="M0 9940 l0 -300 300 0 300 0 0 -300 0 -300 300 0 300 0 0 300 0 300
300 0 300 0 0 300 0 300 -900 0 -900 0 0 -300z M8440 9940 l0 -300 300 0 300
0 0 -300 0 -300 300 0 300 0 0 300 0 300 300 0 300 0 0 300 0 300 -900 0 -900
0 0 -300z M0 5120 l0 -3320 900 0 900 0 0 3320 0 3320 -900 0 -900 0 0 -3320z
M2400 5120 l0 -3320 1882 0 1883 0 237 237 238 238 238 -238 237 -237 363 0
362 0 0 3320 0 3320 -1882 0 -1883 0 -237 -237 -238 -238 -238 238 -237 237
-363 0 -362 0 0 -3320z m4840 1200 l0 -300 -2120 0 -2120 0 0 300 0 300 2120
0 2120 0 0 -300z m0 -1200 l0 -300 -2120 0 -2120 0 0 300 0 300 2120 0 2120 0
0 -300z m0 -1200 l0 -300 -2120 0 -2120 0 0 300 0 300 2120 0 2120 0 0 -300z
M8440 5120 l0 -3320 900 0 900 0 0 3320 0 3320 -900 0 -900 0 0 -3320z M600
900 l0 -300 -300 0 -300 0 0 -300 0 -300 900 0 900 0 0 300 0 300 -300 0 -300
0 0 300 0 300 -300 0 -300 0 0 -300z M9040 900 l0 -300 -300 0 -300 0 0 -300
0 -300 900 0 900 0 0 300 0 300 -300 0 -300 0 0 300 0 300 -300 0 -300 0 0
-300z"/>
</g>
</svg>
