<svg viewBox="0 0 512 512" xmlns="http://www.w3.org/2000/svg" data-name="Layer 1"><path fill="currentColor" d="m206.045 292.353c-8.349 11.431-16.206 17.732-23.352 18.727a13.9 13.9 0 0 1 -1.919.136 9.989 9.989 0 0 1 -6.06-1.8l4.927-6.3a1 1 0 0 0 -.212-.15c1.767.992 8.834.17 20.155-15.334 5.143-7.042 11.842-11.192 18.786-14.577-8.781-5-9.333-11.327-8.832-14.73.883-6 6.195-11.362 10.355-12.149a20.331 20.331 0 0 1 3.9-.364l-9.953-66.854-165.317-19.635a4 4 0 0 0 -4.405 3.164c-1.361 6.926-2.166 17.359 1.722 27.72 7.243 19.3-2.261 48.106-3.022 50.344-3.307 11.4-5.812 25.789-4.1 29.215 3.941 7.9.144 19.39-.671 21.651-2.389 10.584-1.766 20.313.441 20.9 6.023 1.6 99.91 8.368 163.4 12.653l17.8-43.616c-5.265 2.754-10.014 6.029-13.643 10.999zm-19.84-21.6c-.126 0-.252-.006-.379-.017l-110.866-10.404a4 4 0 1 1 .747-7.965l110.866 10.4a4 4 0 0 1 -.368 7.982zm-114.846-73.326a4 4 0 0 1 4.419-3.531l129.028 14.434a4 4 0 1 1 -.889 7.951l-129.028-14.434a4 4 0 0 1 -3.53-4.42zm0 28.2a4 4 0 0 1 4.45-3.494l119.947 14.435a4 4 0 0 1 -.473 7.971 3.946 3.946 0 0 1 -.483-.028l-119.944-14.437a4 4 0 0 1 -3.494-4.449zm91.641 72.347c-.113 0-.226 0-.34-.014l-87.66-7.377a4 4 0 0 1 .671-7.972l87.66 7.377a4 4 0 0 1 -.331 7.986z"/><path fill="currentColor" d="m230.806 275.3c-.01.018-.017.038-.028.057l-21.443 52.539 17.383 2.341 7.911-22.435-3.8-32.507z"/><path fill="currentColor" d="m28.571 302.186a79.8 79.8 0 0 1 1.729-12.806 4.054 4.054 0 0 1 .153-.507c.98-2.633 3.29-11.149 1.1-15.535-3.877-7.766 1.779-28.836 3.6-35.109.018-.061.038-.122.058-.183.1-.278 9.494-28.07 3.13-45.028a53.157 53.157 0 0 1 -3.174-14.818h-8.457a2.707 2.707 0 0 0 -2.121 1.017 2.551 2.551 0 0 0 -.518 2.179c1.437 6.5 1.8 18.374-1.908 30.441-3.2 10.425-2.261 20.282-.833 35.2.179 1.878.366 3.826.551 5.855 1.052 11.52 2.382 33.178-.535 48.806-2.042 10.935-.837 18.352.533 22.649a2.652 2.652 0 0 0 2.762 1.833l40.9-3.133c-15.634-1.306-26.838-2.4-29.113-3.006-5.671-1.504-8.314-7.513-7.857-17.855z"/><path fill="currentColor" d="m232.143 259.012c-3.223-3.593-5.356-5.97-10.689-4.987-.961.361-3.817 2.9-4.038 5.794-.228 3 2.947 5.3 5.651 6.707 4.533 2.354 8.6.758 13.917-2.845a32.489 32.489 0 0 1 -4.841-4.669z"/><path fill="currentColor" d="m236.686 326.021.071.002-.018-.151z"/><path fill="currentColor" d="m281.775 178.578c.02-.063.041-.126.064-.188a4.016 4.016 0 0 0 -2.975-5.306l-11.193-2.278a4.037 4.037 0 0 0 -4.671 2.826l-11.112 38.711 2.552 30.257a31.4 31.4 0 0 1 9.277-5.538z"/><path fill="currentColor" d="m254.616 259.488h.091c7.776.345 17.63-.189 22.473-3.88a8.334 8.334 0 0 0 3.139-8.4 4.589 4.589 0 0 0 -3.993-3.608c-7.671-1.188-14.544 1.779-20.425 8.815a43.02 43.02 0 0 0 -4.641 6.858c1.053.09 2.182.162 3.356.215z"/><path fill="currentColor" d="m481.856 204.006a3.764 3.764 0 0 0 -3.132-2.084l-192.224-11.531-13.886 44.969a28.776 28.776 0 0 1 4.934.338 12.543 12.543 0 0 1 10.524 9.543 16.316 16.316 0 0 1 -6.041 16.731c-4 3.053-10.021 4.868-17.921 5.42 1.609 1.706 3.35 3.658 5.084 5.809 8.382 10.4 12.272 19.855 11.562 28.113-.4 4.678.6 8.364 2.976 10.954 4.315 4.7 12 4.834 12.078 4.834a4 4 0 1 1 0 8c-.456 0-11.236-.084-17.973-7.425-3.954-4.309-5.653-10.045-5.051-17.049.709-8.246-5.981-18.165-12.406-25.469l9.114 52.044 194.352 25.5c4.182-4.545 7.207-21.538 5.706-33.535-1.061-8.483 1.787-15.829 4.54-22.932 1.817-4.688 3.7-9.535 4.507-14.8.575-3.739-.568-6.737-2.016-10.532-3.023-7.922-6.785-17.782 4.6-37.128 8.992-15.276 5.986-20.451 2.506-26.443-.614-1.061-1.253-2.162-1.833-3.327zm-192.468 16.714a4 4 0 0 1 4.356-3.609l160.684 15.062a4 4 0 0 1 -.369 7.983q-.187 0-.378-.018l-160.681-15.063a4 4 0 0 1 -3.612-4.355zm168.645 44.08a4 4 0 0 1 -3.974 3.591 4.129 4.129 0 0 1 -.414-.021l-146.557-15.07a4 4 0 0 1 .818-7.959l146.558 15.062a4 4 0 0 1 3.569 4.397zm-160 18.757a4 4 0 0 1 .771-7.963l155.636 15.058a4 4 0 0 1 -.381 7.981q-.194 0-.39-.018zm156.026 45.323c-.124 0-.249-.006-.374-.017l-140.5-13.046a4 4 0 1 1 .739-7.965l140.5 13.046a4 4 0 0 1 -.365 7.982z"/><path fill="currentColor" d="m485.724 174.3-195.724 4.058a11.942 11.942 0 0 1 -.606 2.667l-.462 1.5 190.268 11.411a11.784 11.784 0 0 1 9.815 6.5c.466.934 1.014 1.879 1.594 2.878.222.381.447.769.671 1.163 1.99-10.544-.687-22.279-2.254-27.772a3.419 3.419 0 0 0 -3.302-2.405z"/><path fill="currentColor" d="m242.893 257.965a48.89 48.89 0 0 1 4.2-7.237l-6.7-79.535a4.019 4.019 0 0 0 -4.927-3.581l-11.121 2.612a4.034 4.034 0 0 0 -3.052 4.516l10.951 73.553a29.5 29.5 0 0 1 5.851 5.376c1.844 2.053 3.214 3.512 4.798 4.296z"/><path fill="currentColor" d="m262.121 331.477-11.247-64.221c-1.875-.148-3.448-.32-4.533-.456l-.627.464a78.723 78.723 0 0 1 -7.191 4.918l6.787 58.118a2.377 2.377 0 0 0 1.95 1.973l12.1 2.166a2.4 2.4 0 0 0 2.783-2.845c-.008-.042-.015-.079-.022-.117z"/></svg>