<svg viewBox="0 0 64 64" xmlns="http://www.w3.org/2000/svg" data-name="Layer 1"><path fill="currentColor" d="m29.985 4h4.048v2.468h-4.048z"/><path fill="currentColor" d="m39.172 8.468h-4.139-6.048-4.161v5.086h14.348z"/><path fill="currentColor" d="m29.985 57.162h4.048v2.838h-4.048z"/><path fill="currentColor" d="m35.033 55.162h4.139v-5.085h-14.348v5.085h4.161z"/><path fill="currentColor" d="m39.172 48.077v-32.523h-14.341v32.523zm-3.14-27.496c0-.553.447-1 1-1s1 .447 1 1v.483c0 .553-.447 1-1 1s-1-.447-1-1zm0 4.936c0-.553.447-1 1-1s1 .447 1 1v17.902c0 .553-.447 1-1 1s-1-.447-1-1z"/></svg>