<svg viewBox="0 0 512 512" xmlns="http://www.w3.org/2000/svg"><g><path fill="currentColor" d="m96.042 437.021h319.917v43.734h-319.917z"/><path fill="currentColor" d="m44.174 405.776c-12.077 0-21.867 9.79-21.867 21.867v16.245h-22.307v30h22.307v16.245c0 12.077 9.79 21.867 21.867 21.867s21.867-9.79 21.867-21.867v-62.49c.001-12.077-9.79-21.867-21.867-21.867z"/><path fill="currentColor" d="m489.693 427.643c0-12.077-9.79-21.867-21.867-21.867s-21.867 9.79-21.867 21.867v62.49c0 12.077 9.79 21.867 21.867 21.867s21.867-9.79 21.867-21.867v-16.245h22.307v-30h-22.307z"/><path fill="currentColor" d="m96.042 31.245h319.917v43.734h-319.917z"/><path fill="currentColor" d="m44.174 0c-12.077 0-21.867 9.79-21.867 21.867v16.245h-22.307v30h22.307v16.245c0 12.077 9.79 21.867 21.867 21.867s21.867-9.79 21.867-21.867v-62.49c.001-12.077-9.79-21.867-21.867-21.867z"/><path fill="currentColor" d="m489.693 38.112v-16.245c0-12.077-9.79-21.867-21.867-21.867s-21.867 9.79-21.867 21.867v62.49c0 12.077 9.79 21.867 21.867 21.867s21.867-9.79 21.867-21.867v-16.245h22.307v-30z"/><path fill="currentColor" d="m96.042 159.336 23.822 23.822-23.822 23.822v200.04h319.917v-54.357l-23.822-23.822 23.822-23.822v-200.04h-319.917zm234.315 207.266h-148.714v-30h148.714zm-148.714-221.204h148.714v30h-148.714zm-32.398 63.735h213.511v30h-213.511zm0 63.734h213.511v30h-213.511z"/></g></svg>