<svg viewBox="0 0 511.88 511.88" xmlns="http://www.w3.org/2000/svg"><g clip-rule="evenodd" fill-rule="evenodd"><path fill="currentColor" d="m212.516 123.697-23.326 12.649-3.167-6.246c-2.556-5.041-7.728-8.217-13.379-8.217h-56.684v268h40.159c6.351 0 11.906-3.979 14.057-9.762l12.065 7.501c2.377 1.478 5.121 2.261 7.92 2.261h74.819c2.014 0 4.008-.406 5.861-1.193l27.221-11.556 2.375 4.613c2.571 4.996 7.719 8.135 13.337 8.135h82.147v-268h-176.255c-2.497.001-4.955.625-7.15 1.815zm57.98 171.187h-110.001c-8.284 0-15-6.716-15-15s6.716-15 15-15h110.001c8.284 0 15 6.716 15 15s-6.716 15-15 15zm79.999-.002h-19.993c-8.284 0-15-6.716-15-15s6.716-15 15-15h19.993c8.284 0 15 6.716 15 15s-6.716 15-15 15zm-65.001-89.999h65.001c8.284 0 15 6.716 15 15s-6.716 15-15 15h-65.001c-8.284 0-15-6.716-15-15s6.716-15 15-15zm-44.507 15c0 8.284-6.716 15-15 15h-65.492c-8.284 0-15-6.716-15-15s6.716-15 15-15h65.492c8.284 0 15 6.716 15 15z"/><path fill="currentColor" d="m.03 76.882h85.93v45h-85.93z"/><path fill="currentColor" d="m.03 151.883h85.93v208h-85.93z"/><path fill="currentColor" d="m.03 389.883h85.93v45h-85.93z"/><path fill="currentColor" d="m481.503 6.888c-2.76-4.293-7.513-6.888-12.617-6.888-5.103 0-9.857 2.595-12.617 6.888l-25.713 39.994h76.659z"/><path fill="currentColor" d="m55.612 6.888c-2.759-4.293-7.513-6.888-12.617-6.888-5.103 0-9.857 2.595-12.617 6.888l-25.713 39.994h76.659z"/><path fill="currentColor" d="m30.372 504.982c2.759 4.299 7.516 6.898 12.624 6.898s9.865-2.599 12.624-6.898l25.736-40.099h-76.721z"/><path fill="currentColor" d="m456.262 504.982c2.759 4.299 7.516 6.898 12.624 6.898s9.865-2.599 12.624-6.898l25.736-40.099h-76.72z"/><path fill="currentColor" d="m425.92 151.883h85.93v208h-85.93z"/><path fill="currentColor" d="m425.92 76.882h85.93v45h-85.93z"/><path fill="currentColor" d="m425.92 389.883h85.93v45h-85.93z"/></g></svg>