<svg viewBox="0 0 512 512" xmlns="http://www.w3.org/2000/svg" data-name="Layer 1"><path fill="currentColor" d="m375.76 232.438a138.109 138.109 0 0 1 -16.86 8.462 104.01 104.01 0 0 0 -1.5 17.388 151.641 151.641 0 0 0 8.6 50.39c6.815 19.739 14.16 45.478 10.439 69.505-3.9 25.177-19.627 44.448-46.749 57.279-31.916 15.1-64.444 15.364-95.9 15.62-29.922.243-60.86.5-92.609 13.085l-.125.078c-12.508 7.628-20.75 15.429-26.147 22.077 31-14.706 60.729-15.1 99.651-15.611 19.2-.25 40.96-.532 66.179-2.649 47.969-4.026 81.594-20.6 99.941-49.261 23.013-35.95 15.76-82.177 8.71-101.6-11.47-31.601-13.016-66.549-13.63-84.763z"/><path fill="currentColor" d="m348.19 245.036a182.507 182.507 0 0 1 -37.28 8.791c-29.755 3.758-108.7 32.145-116.54 117.213a129 129 0 0 1 -34.1 76.6c25.268-6.161 49.665-6.366 73.44-6.559 31.772-.258 61.782-.5 91.707-14.659 24.277-11.486 37.736-27.765 41.143-49.77 3.385-21.856-3.572-46.064-10.009-64.711a161.493 161.493 0 0 1 -9.145-54.171 124.435 124.435 0 0 1 .784-12.734z"/><path fill="currentColor" d="m293.269 84.278c-9.921-3.077-18.241-2.4-25.438 2.079-12.114 7.531-17.806 23.988-20.03 32.531a123.171 123.171 0 0 1 46.884 13.454c49.165 25.892 87.217 18.637 94.693 16.817 10.877-13.5 5.982-25.168-.174-32.655-.055-.065-.1-.137-.153-.2l.075.1c-.084-.1-8.8-10.286-40.618-11.17-26.822-.745-48.547-16.4-53.966-20.654a10.4 10.4 0 0 1 -1.273-.302z"/><path fill="currentColor" d="m394.624 42.224a12.763 12.763 0 0 0 1.7-9.7 8.965 8.965 0 0 0 -4.956-5.853 8.684 8.684 0 0 0 -7.42-.3c-4.1 1.944-5.994 5.773-6.87 8.679l8.842 2.814a31.414 31.414 0 0 1 8.704 4.36z"/><path fill="currentColor" d="m338.315 57.611a11.13 11.13 0 0 1 -1.218-.169c-10.475-2.1-24.371-.292-31.092 20.28a10.427 10.427 0 0 1 -.961 2.1c8.131 5.489 24.733 14.888 43.738 15.416 20.618.573 32.952 4.791 40 8.647a10.618 10.618 0 0 1 .959-1.2c5.027-5.357 5.9-10.974 2.675-17.163-8.087-11.954-17.046-12.2-21.872-12.335a45.069 45.069 0 0 1 -21.07-5.728 32.883 32.883 0 0 1 -11.159-9.848z"/><path fill="currentColor" d="m353.681 48.606a16.448 16.448 0 0 0 -1.1 1.235 26.842 26.842 0 0 1 -4.273 4.28 26.755 26.755 0 0 0 6.124 4.651 35.025 35.025 0 0 0 16.388 4.418c4.366.119 13.214.369 22.055 7.853a14.074 14.074 0 0 1 1.96-2.48c1.452-1.457 3.129-4.059.925-9.8-.067-.176-.176-.4-.313-.682a21.164 21.164 0 0 0 -12.555-10.681l-10.163-3.234a18.816 18.816 0 0 0 -19.048 4.44z"/><path fill="currentColor" d="m136.422 414.131a11.229 11.229 0 0 0 -11.069 8.571 11.436 11.436 0 0 0 1.815 9.454 11.02 11.02 0 0 0 8.065 4.582c11.913.957 20.1-.933 23.834-2.97a117.2 117.2 0 0 0 15.533-25.711c-8.3 3.343-20.839 6.483-38.178 6.074z"/><path fill="currentColor" d="m117.629 454.926a24.224 24.224 0 0 0 -.343 14.565 128.63 128.63 0 0 1 18.566-13.784l.289-.178a113.141 113.141 0 0 0 10.748-8.719c-1.727.124-3.518.187-5.363.187-2.287 0-4.657-.1-7.091-.29a20.891 20.891 0 0 1 -7.5-2.055c-5.67 2.002-8.249 7.183-9.306 10.274z"/><path fill="currentColor" d="m290.025 141.19c-36.739-19.35-85.575-16.462-124.414 7.358-42.639 26.15-62.237 78.612-48.767 130.546 13.516 52.109 21.429 99.15 23.645 125.062 23.73-.2 35.919-7.611 39.256-10.022a122.427 122.427 0 0 0 4.667-24.012c8.449-91.628 93.273-122.177 125.244-126.217 33.9-4.283 58.706-18.031 64.722-22.508l.8-.421c14.66-10.159 22.734-21.443 24-33.54 1.361-13-5.445-23.779-8.815-28.228-11.38 2.551-50.444 8.257-100.338-18.018zm-143.925 178.978a4.992 4.992 0 0 1 -5.953-3.816q-.9-4.137-1.87-8.386a5 5 0 0 1 9.751-2.217q.975 4.29 1.888 8.466a5 5 0 0 1 -3.816 5.953zm32.058-151.161c-33.58 20.594-48.885 62.413-38.083 104.062 1.237 4.768 2.456 9.6 3.623 14.354a5 5 0 1 1 -9.712 2.383c-1.157-4.714-2.365-9.5-3.59-14.227-11.914-45.934 5.179-92.187 42.534-115.1a5 5 0 0 1 5.228 8.525z"/></svg>