<svg viewBox="0 0 64 64" xmlns="http://www.w3.org/2000/svg" data-name="Layer 2"><path fill="currentColor" d="m29.59 40.912c-.768-.345-2.13-.99-3.59-1.814v3.508l.028.029a5.778 5.778 0 0 0 2.482 1.428 4.828 4.828 0 0 0 .767.137 6.754 6.754 0 0 0 4.723-1.689v-3.411c-1.459.823-2.822 1.469-3.59 1.814a1 1 0 0 1 -.82 0z"/><path fill="currentColor" d="m37.861 8.528h.005z"/><path fill="currentColor" d="m25 8h10a8.083 8.083 0 0 1 1 .069v-.069c0-2.792-1.717-8-5-8h-2c-3.314 0-4.8 5.478-4.928 8.06a8.061 8.061 0 0 1 .928-.06z"/><path fill="currentColor" d="m29.066 50.018c3.2.248 6.491-1.428 9.792-4.968l-3.634-.956a8.98 8.98 0 0 1 -5.475 2.13 6.955 6.955 0 0 1 -.7-.035 7.5 7.5 0 0 1 -4.389-2.094l-3.807.8c1.442 1.829 4.364 4.833 8.213 5.123z"/><path fill="currentColor" d="m30 38.9c3.938-1.827 8-4.524 8-5.8v-10.619l-3.415-2.732a1 1 0 0 0 -1.225-.02l-.961.721a4.017 4.017 0 0 1 -4.8 0l-.961-.721a1 1 0 0 0 -1.225.02l-3.413 2.732v10.619c0 1.276 4.062 3.973 8 5.8zm3-13.9a1 1 0 0 1 2 0v2a1 1 0 0 1 -2 0zm-8 0a1 1 0 0 1 2 0v2a1 1 0 0 1 -2 0z"/><path fill="currentColor" d="m42 14a.963.963 0 0 1 -.03.242l-1.97 7.881v10.977c0 1.639-1.864 3.352-4 4.778v4.352l9 2.37v-23.6a1 1 0 0 0 -.063-.352l-3-8a1 1 0 0 0 -.2-.316 5.453 5.453 0 0 1 .263 1.668z"/><path fill="currentColor" d="m20.729 9.232c-.048.031-.093.064-.14.1.047-.032.093-.07.14-.1z"/><path fill="currentColor" d="m24.165 18.187a3 3 0 0 1 3.674-.057l.961.721a2.013 2.013 0 0 0 2.4 0l.961-.721a3 3 0 0 1 3.674.057l2.573 2.059 1.592-6.362c-.079-2.434-2.58-3.884-5-3.884h-10c-2.243 0-4.552 1.247-4.939 3.367-.013.109-.023.218-.041.326-.005.064-.016.125-.018.19l1.59 6.362zm10.835-5.187h1a1 1 0 0 1 0 2h-1a1 1 0 0 1 0-2zm-4 0h1a1 1 0 0 1 0 2h-1a1 1 0 0 1 0-2z"/><path fill="currentColor" d=""/><path fill="currentColor" d="m21.794 8.669-.115.049z"/><path fill="currentColor" d="m14.919 20.156-.039.018z"/><path fill="currentColor" d="m17.181 15.733a6.432 6.432 0 0 0 .85-2.243c.013-.148.033-.291.057-.434a5.47 5.47 0 0 0 -2.474-5.311 5.079 5.079 0 0 0 -2.08-.713 6 6 0 0 1 -5.762 9.425 5.085 5.085 0 0 0 1.588 1.529 5.776 5.776 0 0 0 7.821-2.253z"/><path fill="currentColor" d="m9.133 37 .859-6.876a1 1 0 0 0 -.992-1.124h-8a1 1 0 0 0 -.992 1.124l.859 6.876z"/><path fill="currentColor" d="m20 33.1v-10.977l-1.278-5.111a8.383 8.383 0 0 1 -2.964 2.749l.016-.008-.711 1.9a1 1 0 0 0 -.063.347v21.218a3.763 3.763 0 0 1 -2.623-.35 7.676 7.676 0 0 1 -2.977-3.868h-8.173a11.725 11.725 0 0 0 5.66 6.791l17.113-3.603v-4.31c-2.136-1.427-4-3.14-4-4.778z"/><path fill="currentColor" d="m48.449 41.835a.991.991 0 0 0 .944.084l3.607-1.546v-7.746l-3.606-1.545a1 1 0 0 0 -1.394.918v9a1 1 0 0 0 .449.835z"/><path fill="currentColor" d="m63.551 31.165a1 1 0 0 0 -.944-.084l-3.607 1.546v7.747l3.606 1.545a.986.986 0 0 0 .394.081 1 1 0 0 0 1-1v-9a1 1 0 0 0 -.449-.835z"/><path fill="currentColor" d="m53 54a1 1 0 0 0 -.038-.274l-1.534-5.369-10.393-2.735c-3.288 3.778-6.652 5.891-10.035 6.328v6.05h-2v-5.986c-.032 0-.065 0-.1 0-5.274-.4-8.891-4.782-10.211-6.661l-10.6 2.232-2.984 5.968a1 1 0 0 0 -.105.447v9a1 1 0 0 0 1 1h8v-8a1 1 0 0 1 2 0v8h13v-4h2v4h13v-8a1 1 0 0 1 2 0v8h7zm-31 6a1 1 0 0 1 -2 0v-2a1 1 0 0 1 2 0zm18 0a1 1 0 0 1 -2 0v-2a1 1 0 0 1 2 0z"/><path fill="currentColor" d="m57 39.516v-18.516h5a1 1 0 0 0 1-1v-14a1 1 0 0 0 -2 0v13h-4v-18a1 1 0 0 0 -2 0v18h-4v-13a1 1 0 0 0 -2 0v14a1 1 0 0 0 1 1h5v43h7a1 1 0 0 0 1-1v-8a1 1 0 0 0 -1-1h-5z"/></svg>