<svg xmlns="http://www.w3.org/2000/svg" viewBox="0 0 1024 1024">
<g transform="translate(0,1024) scale(0.1,-0.1)">
<path fill="currentColor" d="M5830 10226 c-19 -7 -102 -43 -185 -81 -257 -116 -551 -226 -810
-304 -119 -35 -290 -81 -325 -88 -14 -2 -43 -9 -65 -15 -22 -5 -49 -12 -60
-14 -11 -2 -55 -11 -98 -20 -42 -8 -87 -17 -100 -19 -24 -4 -138 -24 -177 -31
-14 -2 -45 -6 -70 -10 -25 -3 -55 -7 -68 -9 -13 -2 -53 -7 -90 -11 -37 -3 -75
-8 -85 -10 -9 -1 -56 -6 -105 -9 -48 -4 -103 -8 -122 -10 -19 -2 -125 -7 -235
-10 -233 -6 -381 -13 -411 -19 -12 -2 -39 -7 -60 -10 -131 -21 -293 -75 -429
-143 -312 -157 -561 -409 -716 -726 l-50 -102 1776 -3 c976 -1 2574 -1 3551 0
l1776 3 -61 120 c-209 413 -578 712 -1019 825 -43 11 -96 22 -117 26 -20 3
-47 8 -59 10 -11 2 -68 6 -126 9 -151 8 -252 14 -275 19 -11 2 -40 7 -65 11
-25 4 -85 21 -135 37 -248 80 -450 221 -625 439 -65 79 -90 103 -137 125 -65
32 -165 41 -223 20z M1331 7958 c-72 -28 -142 -97 -169 -169 -18 -47 -20 -79
-21 -251 l-2 -198 3981 0 3981 0 -1 197 c-1 165 -5 205 -20 246 -27 71 -81
131 -148 164 l-57 28 -3745 2 -3745 2 -54 -21z M978 6663 c-271 -324 -464
-634 -632 -1013 -31 -69 -41 -102 -33 -107 6 -4 50 -26 98 -49 365 -178 702
-475 937 -829 75 -112 184 -322 227 -435 15 -41 29 -77 31 -79 2 -2 49 27 106
63 291 188 800 391 1208 482 11 2 28 6 38 9 38 10 339 74 372 79 19 3 46 8 60
11 13 2 42 7 65 11 22 3 47 7 55 9 8 2 38 6 67 10 62 8 69 16 77 75 3 25 8 56
11 70 2 13 7 42 11 65 11 77 56 301 85 425 16 69 32 134 34 145 19 81 86 304
131 437 82 238 188 477 280 629 19 31 34 59 34 63 0 3 -719 6 -1598 6 l-1599
0 -65 -77z M5031 6715 c-182 -86 -400 -447 -556 -920 -72 -220 -170 -618 -199
-810 -4 -22 -8 -47 -11 -55 -2 -8 -6 -35 -9 -60 -3 -25 -8 -54 -10 -66 -2 -12
-7 -45 -11 -74 -4 -29 -8 -60 -10 -69 -1 -9 -6 -41 -9 -72 -10 -86 -14 -99
-41 -155 -30 -60 -80 -108 -142 -136 -49 -22 -61 -25 -142 -34 -31 -3 -63 -8
-72 -9 -9 -2 -40 -6 -69 -10 -29 -4 -62 -9 -74 -11 -11 -2 -36 -6 -56 -9 -20
-3 -47 -7 -60 -10 -13 -3 -42 -7 -65 -11 -22 -3 -94 -17 -160 -30 -66 -14
-131 -27 -145 -30 -77 -15 -384 -100 -505 -140 -585 -193 -968 -464 -941 -662
31 -225 472 -493 1123 -683 185 -54 529 -130 688 -153 23 -4 52 -8 65 -11 13
-3 42 -7 65 -10 22 -4 51 -8 65 -10 28 -4 81 -11 155 -21 73 -9 78 -10 134
-34 55 -24 109 -77 139 -137 21 -41 28 -70 38 -148 3 -27 7 -61 9 -75 2 -14 7
-45 10 -70 9 -66 13 -91 41 -250 109 -624 295 -1167 505 -1480 78 -114 123
-165 193 -217 l58 -43 88 0 88 0 60 44 c166 123 341 427 482 842 67 195 147
495 176 654 3 14 7 32 9 40 2 8 7 31 10 50 3 19 15 85 25 145 22 122 26 150
35 215 3 25 8 56 10 70 2 14 6 48 9 75 13 110 32 157 88 220 49 57 116 86 226
100 67 8 125 16 152 20 14 2 43 6 65 10 23 3 50 7 62 9 12 3 43 8 70 12 26 5
50 9 53 9 3 1 25 5 50 9 75 14 84 15 110 21 14 3 34 7 45 9 837 168 1513 512
1551 789 29 212 -418 506 -1067 701 -99 30 -372 100 -434 112 -11 2 -42 8 -70
14 -100 21 -97 20 -245 45 -113 19 -131 22 -190 30 -25 3 -56 8 -70 10 -14 2
-47 6 -75 9 -78 10 -107 17 -148 38 -60 30 -113 84 -137 139 -24 56 -25 61
-34 134 -10 74 -17 127 -21 155 -2 14 -6 43 -10 65 -3 23 -7 52 -10 65 -3 13
-7 42 -11 65 -12 86 -57 307 -90 445 -138 577 -341 1036 -554 1251 -112 113
-200 141 -299 94z m254 -2428 c232 -57 370 -132 509 -277 173 -181 255 -376
261 -620 7 -256 -77 -486 -243 -661 -201 -214 -439 -313 -727 -305 -255 8
-473 109 -657 304 -166 177 -250 404 -243 662 3 146 25 239 84 365 50 106 87
160 175 253 139 146 304 236 506 277 61 12 287 14 335 2z M5025 3687 c-98 -33
-171 -97 -214 -187 -22 -46 -26 -69 -26 -140 0 -73 4 -93 28 -142 35 -72 94
-130 166 -166 48 -23 69 -27 141 -27 73 0 93 4 142 28 72 35 130 94 166 166
23 48 27 69 27 141 0 101 -27 170 -94 237 -85 85 -231 124 -336 90z M6000
6734 c0 -4 15 -32 34 -63 184 -305 369 -832 480 -1366 13 -66 28 -140 31 -165
4 -24 8 -47 10 -50 1 -3 6 -25 9 -50 3 -25 8 -56 11 -70 2 -13 7 -42 10 -65
11 -72 6 -69 137 -90 68 -10 125 -19 128 -20 3 -1 25 -5 50 -9 25 -5 54 -10
65 -12 11 -2 31 -6 45 -9 32 -6 55 -11 110 -24 25 -5 56 -12 70 -14 67 -12
391 -101 520 -142 313 -101 614 -237 819 -371 56 -37 103 -65 104 -63 2 2 18
42 36 89 47 120 148 311 224 427 238 358 581 658 956 837 l90 42 -43 100
c-152 351 -355 679 -615 993 l-83 101 -1599 0 c-879 0 -1599 -3 -1599 -6z
M100 4908 c-7 -35 -14 -72 -16 -83 -2 -11 -6 -31 -9 -45 -3 -14 -7 -36 -10
-50 -2 -13 -7 -40 -10 -60 -3 -20 -7 -45 -9 -56 -2 -11 -7 -47 -11 -79 -4 -33
-9 -68 -11 -78 -27 -153 -27 -1720 0 -1887 3 -14 7 -50 11 -81 3 -31 7 -66 10
-77 2 -11 6 -37 10 -58 18 -119 39 -215 86 -394 22 -85 44 -159 48 -163 19
-19 260 147 387 266 304 285 504 680 551 1087 10 86 10 348 0 430 -29 234
-123 503 -244 700 -115 185 -294 382 -458 505 -72 54 -289 185 -306 185 -3 0
-12 -28 -19 -62z M10040 4929 c-369 -200 -661 -528 -815 -914 -33 -84 -81
-247 -90 -306 -4 -24 -8 -46 -10 -49 -18 -29 -27 -386 -12 -510 62 -538 371
-1016 852 -1315 42 -27 80 -44 84 -39 21 24 113 399 136 554 3 20 7 45 9 55 2
11 7 49 11 85 4 36 9 72 10 81 28 144 29 1729 1 1874 -2 11 -7 47 -10 80 -4
33 -9 71 -11 85 -3 14 -7 39 -9 55 -7 42 -15 86 -21 115 -3 14 -8 41 -11 60
-3 19 -8 38 -10 41 -2 3 -6 21 -9 40 -3 19 -9 37 -13 41 -4 4 -41 -11 -82 -33z
M1581 2508 c-13 -35 -49 -117 -81 -183 -214 -442 -552 -799 -993 -1047 l-95
-54 60 -115 c191 -363 429 -690 703 -965 160 -160 -39 -143 1633 -143 782 -1
1422 1 1422 4 0 3 -12 24 -26 46 -48 76 -152 294 -207 434 -104 265 -196 580
-273 940 -18 86 -63 341 -70 400 -4 28 -11 53 -17 56 -5 4 -30 10 -56 13 -48
6 -64 9 -166 27 -33 6 -73 13 -90 16 -16 3 -61 11 -100 20 -38 8 -83 17 -100
20 -102 17 -461 115 -635 173 -319 106 -577 224 -775 355 -54 36 -101 65 -105
65 -3 0 -16 -28 -29 -62z M8525 2504 c-247 -160 -584 -304 -981 -419 -123 -35
-400 -104 -489 -121 -11 -2 -31 -6 -45 -9 -14 -3 -41 -8 -60 -11 -19 -3 -42
-7 -50 -9 -8 -2 -31 -7 -50 -10 -19 -3 -60 -10 -90 -15 -30 -6 -77 -13 -105
-16 -54 -7 -58 -8 -61 -27 -10 -66 -16 -100 -24 -147 -5 -30 -12 -71 -15 -90
-3 -19 -10 -53 -15 -75 -5 -22 -11 -56 -14 -75 -8 -48 -9 -53 -51 -234 -63
-272 -141 -527 -232 -761 -42 -109 -162 -359 -203 -427 -17 -26 -30 -51 -30
-53 0 -3 640 -5 1423 -4 1410 0 1422 0 1477 21 45 17 75 40 165 132 280 284
537 643 715 995 l38 77 -66 35 c-100 52 -266 163 -371 246 -277 223 -496 498
-651 818 -32 66 -68 148 -81 183 -13 34 -26 62 -29 62 -3 0 -50 -30 -105 -66z"/>
</g>
</svg>
