<svg viewBox="0 0 511.848 511.848" xmlns="http://www.w3.org/2000/svg"><g><path fill="currentColor" d="m172.961 77.073c25.066-9.173 54.529-14.224 82.963-14.224s57.897 5.052 82.963 14.224c19.01 6.957 35.415 16.058 49.12 27.168-2.504-15.209-7.528-28.175-15.172-39.208-11.136-16.073-27.593-28.139-51.79-37.973-47.981-19.497-65.12-27.06-65.12-27.06s-17.141 7.563-65.121 27.061c-24.197 9.833-40.654 21.899-51.79 37.973-7.643 11.032-12.667 23.999-15.171 39.207 13.704-11.111 30.109-20.212 49.118-27.168z"/><path fill="currentColor" d="m132.21 188.091.488.008c6.709.219 12.825 1.381 18.348 3.295 13.278-21.14 36.79-35.232 63.544-35.232 14.86 0 29.151 4.345 41.333 12.419 12.182-8.074 26.473-12.419 41.333-12.419 26.754 0 50.267 14.091 63.545 35.232 5.523-1.914 11.639-3.077 18.347-3.295l.488-.008c9.323 0 17.694 1.677 25.163 4.422-7.92-74.262-88.788-99.664-148.877-99.664s-140.957 25.402-148.877 99.664c7.471-2.745 15.842-4.422 25.165-4.422z"/><path fill="currentColor" d="m160.101 353.349c-10.503 7.248-23.22 11.506-36.918 11.506h-19.353c-5.327 18.834-12.608 44.615-12.338 65.71 17.443-17.989 41.725-29.309 68.608-29.707z"/><path fill="currentColor" d="m408.017 364.855h-19.352c-13.695 0-26.409-4.256-36.91-11.501l.027 47.505c26.869.408 51.137 11.727 68.573 29.708.27-21.096-7.011-46.877-12.338-65.712z"/><path fill="currentColor" d="m159.924 430.889c-36.6.876-66.005 30.798-66.005 67.609v13.35h110.531c-26.738-17.052-44.511-46.967-44.526-80.959z"/><path fill="currentColor" d="m190.101 358.335-.178 72.513c0 36.393 29.607 66 66 66s66-29.607 66-66h-.125l-.041-72.52c-18.733 12.906-41.414 20.475-65.833 20.475-24.414-.001-47.091-7.567-65.823-20.468z"/><path fill="currentColor" d="m307.397 511.848h110.532v-13.35c0-36.811-29.406-66.733-66.006-67.609-.014 33.992-17.788 63.907-44.526 80.959z"/><path fill="currentColor" d="m146.678 302.47c-4.337 1.126-9.234 1.829-14.227 1.99-7.803 0-15.177-1.168-21.671-3.149-2.196 4.587-3.428 9.719-3.428 15.134v18.41h15.832c12.881 0 24.161-6.966 30.287-17.324-2.605-4.827-4.882-9.857-6.793-15.061z"/><path fill="currentColor" d="m365.171 302.47c4.337 1.126 9.234 1.829 14.227 1.99 7.803 0 15.177-1.168 21.671-3.149 2.196 4.587 3.428 9.719 3.428 15.134v18.41h-15.832c-12.881 0-24.161-6.966-30.287-17.324 2.605-4.827 4.881-9.857 6.793-15.061z"/><path fill="currentColor" d="m131.963 274.46c2.669-.106 5.43-.553 8.115-1.397-.316-3.49-.487-41.901-.487-41.901 0-3.922.306-7.774.889-11.536-2.812-.928-5.716-1.423-8.52-1.535-12.639.071-24.169 5.512-34.276 16.176-4.063 4.286-7.146 8.654-9.25 12.028 2.092 3.369 5.158 7.726 9.205 12.002 10.083 10.656 21.631 16.092 34.324 16.163z"/><path fill="currentColor" d="m414.165 234.268c-10.107-10.664-21.639-16.105-34.277-16.176-2.803.112-5.707.607-8.519 1.535.583 3.762.889 7.614.889 11.536 0 0-.172 38.41-.488 41.901 2.686.843 5.446 1.291 8.115 1.397 12.693-.07 24.241-5.507 34.325-16.162 4.047-4.276 7.113-8.634 9.204-12.002-2.104-3.376-5.186-7.744-9.249-12.029z"/><path fill="currentColor" d="m342.257 262.469.001-31.307c0-24.812-20.187-44.999-45-44.999-11.581 0-22.59 4.404-30.996 12.4l-10.338 9.833-10.338-9.833c-8.406-7.996-19.414-12.4-30.995-12.4-24.814 0-45 20.187-45 45v31.307c0 47.604 38.729 86.333 86.333 86.333s86.333-38.73 86.333-86.334zm-86.333 47.243c-16.898 0-32.656-9.094-41.125-23.733l25.969-15.021c3.123 5.4 8.931 8.754 15.156 8.754 6.226 0 12.034-3.354 15.157-8.754l25.969 15.021c-8.469 14.64-24.227 23.733-41.126 23.733z"/></g></svg>