<svg xmlns="http://www.w3.org/2000/svg" viewBox="0 0 1024 1024">
<g transform="translate(0,1024) scale(0.1,-0.1)">
<path fill="currentColor" d="M8168 9785 c-2 -2 -19 -7 -38 -10 -239 -40 -519 -294 -659 -596 -65
-140 -112 -307 -128 -457 -15 -132 -9 -371 13 -522 25 -168 112 -461 194 -655
80 -189 377 -778 570 -1130 608 -1109 832 -1589 934 -1993 27 -107 56 -255 72
-371 3 -25 8 -57 10 -71 25 -162 25 -653 -1 -811 -2 -13 -9 -59 -15 -102 -18
-121 -19 -125 -55 -234 -41 -123 -79 -200 -153 -313 -67 -102 -232 -269 -297
-300 -120 -58 -255 20 -264 151 -4 60 23 106 115 192 94 89 154 168 202 262
33 67 70 171 78 224 3 18 7 42 9 52 2 10 -7 64 -20 121 -200 886 -847 1588
-1726 1873 -97 32 -305 84 -389 98 -14 3 -45 8 -70 12 -25 4 -52 9 -60 10 -8
2 -46 6 -85 10 -38 4 -79 9 -90 11 -141 26 -891 26 -1145 -1 -19 -2 -71 -6
-115 -9 -44 -4 -96 -8 -115 -11 -19 -2 -61 -6 -92 -9 -120 -12 -174 -18 -198
-21 -14 -2 -56 -7 -95 -11 -38 -3 -77 -8 -86 -9 -9 -2 -40 -6 -69 -10 -29 -4
-61 -8 -71 -10 -10 -2 -49 -7 -86 -10 -37 -4 -79 -8 -93 -11 -118 -19 -716
-27 -835 -11 -110 15 -130 18 -155 22 -14 3 -43 7 -65 10 -36 5 -114 18 -185
31 -14 2 -45 7 -70 10 -25 3 -48 8 -51 10 -3 1 -28 6 -55 10 -27 3 -52 8 -55
10 -3 1 -28 6 -55 10 -27 3 -51 8 -54 9 -3 2 -26 6 -50 10 -67 10 -414 82
-585 121 -82 20 -161 37 -175 40 -179 34 -742 196 -923 265 -56 21 -103 37
-105 35 -2 -2 7 -26 19 -52 115 -247 363 -502 669 -690 270 -165 685 -305
1035 -350 28 -3 58 -8 69 -10 10 -2 51 -6 90 -10 39 -3 82 -8 96 -10 14 -3
147 -7 297 -9 214 -3 277 -7 300 -18 109 -57 131 -212 41 -293 -59 -55 -66
-56 -381 -50 -161 2 -303 7 -317 9 -14 3 -56 8 -93 12 -37 3 -76 8 -86 10 -33
6 -115 14 -201 20 -47 3 -101 8 -120 10 -19 2 -69 7 -110 10 -41 4 -86 8 -100
10 -14 2 -50 7 -80 10 -30 3 -66 8 -80 10 -14 2 -45 7 -70 10 -25 3 -56 8 -70
10 -14 2 -43 6 -65 10 -23 3 -52 8 -65 10 -14 3 -45 8 -70 11 -25 3 -47 8 -50
9 -3 2 -26 6 -50 10 -25 4 -76 13 -113 21 -103 21 -102 21 -72 -34 95 -174
374 -353 699 -447 86 -24 344 -76 451 -90 55 -7 108 -14 143 -20 13 -2 53 -7
90 -10 37 -4 77 -8 90 -10 165 -26 944 -27 1080 0 13 2 65 7 115 11 128 9 187
-16 226 -96 26 -52 26 -104 1 -156 -36 -74 -77 -93 -295 -140 -27 -6 -84 -17
-145 -28 -19 -3 -46 -8 -60 -11 -14 -3 -45 -8 -70 -11 -25 -3 -52 -7 -60 -9
-8 -2 -37 -7 -65 -11 -27 -3 -58 -8 -67 -9 -9 -2 -48 -7 -85 -10 -37 -4 -76
-9 -86 -11 -9 -1 -54 -6 -100 -9 -45 -4 -98 -9 -117 -12 -19 -3 -268 -6 -552
-7 -285 -1 -521 -6 -525 -10 -13 -13 47 -55 142 -101 148 -70 359 -131 520
-150 28 -4 61 -8 75 -11 206 -33 633 -23 870 21 14 3 41 7 60 10 19 3 51 10
70 15 19 5 46 11 60 14 200 35 555 166 795 291 82 43 94 47 146 43 109 -8 176
-86 167 -194 -7 -87 -37 -115 -215 -206 -180 -91 -361 -163 -550 -218 -76 -23
-241 -75 -366 -116 -192 -63 -539 -164 -612 -178 -135 -26 -245 -52 -245 -57
0 -11 190 -68 280 -83 129 -22 192 -28 335 -27 171 1 250 9 424 42 445 86 914
316 1327 652 69 56 140 112 156 124 83 60 215 25 264 -70 21 -40 21 -114 0
-159 -35 -73 -375 -334 -641 -492 -82 -49 -244 -151 -360 -226 -244 -159 -406
-262 -560 -354 l-110 -67 60 6 c33 4 71 8 85 10 14 2 43 6 65 10 45 6 65 10
140 25 28 6 60 12 72 15 13 2 65 15 117 29 392 107 755 292 1076 546 86 69
229 211 395 394 117 129 112 124 148 143 77 39 180 10 228 -66 35 -54 39 -128
12 -179 -26 -47 -210 -247 -438 -478 -272 -275 -464 -445 -727 -645 -114 -87
-132 -103 -105 -94 6 2 29 7 50 10 88 12 117 18 246 50 471 117 860 320 1116
586 80 82 146 173 235 319 74 123 254 113 315 -17 37 -77 13 -158 -98 -323
-279 -419 -782 -738 -1422 -905 -112 -29 -176 -43 -330 -70 -120 -21 -404 -28
-495 -12 -182 32 -288 169 -244 316 l13 43 -32 -7 c-18 -3 -41 -8 -52 -10 -11
-3 -31 -7 -45 -10 -41 -9 -62 -12 -120 -20 -30 -4 -64 -9 -74 -11 -83 -15
-337 -22 -431 -11 -70 8 -194 41 -235 62 -78 40 -141 149 -134 230 9 87 59
170 133 217 l45 28 -140 1 c-76 0 -148 2 -159 4 -11 2 -47 7 -80 10 -33 4 -63
9 -66 11 -3 2 -21 6 -40 9 -219 37 -552 199 -653 316 -82 97 -93 251 -22 343
l27 35 -28 7 c-83 18 -257 69 -318 93 l-70 27 -70 -32 c-130 -58 -332 -122
-444 -140 -18 -3 -43 -7 -54 -9 -54 -11 -173 -19 -267 -19 -95 0 -278 12 -290
19 -3 2 -25 6 -50 9 -60 8 -100 15 -130 22 -14 3 -36 8 -50 11 -14 2 -101 24
-195 48 -169 43 -312 71 -321 63 -9 -9 39 -136 83 -218 294 -552 959 -1132
1718 -1500 324 -156 553 -244 894 -340 162 -46 439 -110 536 -125 22 -3 47 -7
55 -10 8 -2 35 -6 60 -9 25 -3 54 -8 66 -10 12 -2 45 -7 75 -11 30 -3 65 -8
79 -10 14 -2 50 -6 80 -10 30 -3 71 -8 90 -10 113 -13 268 -27 445 -40 50 -4
106 -8 125 -10 273 -27 1394 -27 1670 0 19 1 80 6 135 10 55 3 114 8 130 9 17
2 68 7 115 11 131 12 246 24 290 30 14 2 50 6 80 10 30 3 66 8 80 10 14 2 49
7 79 10 30 4 61 8 70 10 9 2 44 7 76 11 33 4 62 8 65 9 3 1 30 5 60 9 30 5 64
10 75 12 10 2 35 6 55 9 20 3 47 7 60 10 30 6 122 22 170 30 19 3 53 10 75 15
22 5 56 11 75 14 19 3 46 8 60 11 14 2 36 7 50 10 14 2 41 7 60 10 19 3 42 8
50 10 8 2 31 6 50 9 19 3 46 8 60 11 14 3 38 8 54 10 82 16 349 90 476 133
830 284 1371 788 1564 1453 33 116 80 341 92 449 3 30 8 62 9 71 28 151 25
597 -5 794 -5 33 -12 78 -15 100 -23 153 -101 431 -171 612 -193 500 -409 863
-1066 1788 -499 703 -635 903 -797 1173 -202 335 -289 550 -326 807 -8 54 -8
250 0 300 36 233 162 403 321 432 166 30 314 -31 505 -207 146 -135 341 -281
355 -268 6 6 -20 85 -48 148 -33 73 -102 173 -172 250 -87 95 -104 154 -67
236 36 79 113 115 221 104 95 -10 338 -2 420 14 59 11 117 20 125 18 31 -6
-175 169 -293 250 -304 209 -485 296 -707 342 -61 13 -297 21 -307 11z M9555
8834 c-27 -8 -61 -16 -75 -19 -14 -3 -36 -7 -49 -10 -25 -5 -108 -14 -153 -17
-16 -2 -28 -5 -28 -9 0 -4 13 -33 29 -65 66 -135 99 -270 106 -434 2 -36 4
-71 4 -77 1 -7 6 -13 12 -13 23 0 260 -120 441 -223 200 -114 387 -212 393
-206 10 11 -53 115 -115 189 -200 242 -261 344 -369 618 -79 197 -119 282
-134 281 -7 0 -34 -7 -62 -15z M1510 6876 c22 -60 104 -210 158 -292 224 -341
594 -637 1132 -905 96 -48 195 -96 220 -107 139 -62 166 -72 208 -78 26 -3 56
-8 67 -10 112 -23 567 -23 790 0 17 2 61 6 98 10 37 4 76 9 85 11 9 1 42 6 73
9 31 4 65 8 75 10 11 2 46 7 79 10 65 7 130 15 185 21 72 9 176 18 197 19 12
0 20 2 17 5 -5 6 -9 6 -86 15 -31 4 -64 8 -74 10 -11 2 -44 7 -75 10 -31 4
-66 8 -76 10 -11 3 -44 7 -74 11 -30 3 -65 8 -79 10 -35 6 -77 13 -130 20 -25
3 -70 10 -100 15 -30 5 -72 12 -94 16 -21 3 -48 8 -60 10 -11 2 -37 7 -56 10
-19 3 -42 7 -50 9 -8 3 -33 7 -55 11 -22 3 -43 8 -46 10 -4 2 -24 6 -45 10
-65 10 -293 71 -407 108 -392 130 -716 302 -1333 709 -127 84 -275 178 -330
209 -222 125 -227 127 -214 94z"/>
</g>
</svg>
