<svg viewBox="0 0 68 68" xmlns="http://www.w3.org/2000/svg"><g fill="rgb(0,0,0)"><path fill="currentColor" d="m21.056 29.992h25.897v4.493h-25.897z"/><path fill="currentColor" d="m21.0093 27.9676h25.9804c.2527 0 .4894-.1361.6093-.3585 1.176-2.1811 1.8942-4.6599 1.8942-7.3125 0-6.9896-10.3119-12.8839-14.1059-14.8185-.2307-.1177-.3758-.3529-.3758-.6119v-2.1683c0-.5566-.4554-1.012-1.012-1.012s-1.012.4554-1.012 1.012v2.1683c0 .259-.1451.4942-.3759.6119-3.7939 1.9346-14.1059 7.8289-14.1059 14.8185 0 2.6525.7182 5.1314 1.8943 7.3125.12.2224.3565.3585.6093.3585z"/><path fill="currentColor" d="m6.1063 32.6874h8.8133c.1954 0 .3808-.1056.4687-.2801.3685-.7323.5896-1.5503.5896-2.4261 0-3.0225-5.4649-5.4648-5.4649-5.4648s-5.4649 2.4423-5.4649 5.4648c0 .8758.221 1.6938.5896 2.4261.0877.1745.2733.2801.4686.2801z"/><path fill="currentColor" d="m53.0811 32.6874h8.8134c.1953 0 .3809-.1056.4686-.2801.3686-.7323.5896-1.5503.5896-2.4261 0-3.0225-5.4649-5.4648-5.4649-5.4648s-5.4649 2.4423-5.4649 5.4648c0 .8758.221 1.6938.5896 2.4261.0877.1745.2732.2801.4686.2801z"/><path fill="currentColor" d="m65.9988 39.6966c-.0001-1.7421-1.4255-3.1675-3.1676-3.1675h-1.6697v-1.8216h-7.3472v1.8216h-2.8133v27.761h-2.024v-27.7813h-29.9451v27.7813h-2.024v-27.761h-2.8133v-1.8216h-7.3572v1.8216h-1.6799c-1.7406 0-3.1575 1.4168-3.1575 3.1675v25.6175c0 .5523.4477 1 1 1h62c.5523 0 1-.4477 1-1zm-10.5956 5.1714c0-1.7204 1.3864-3.1069 3.0967-3.1069s3.0967 1.3865 3.0967 3.1069v2.5502c0 .5869-.4756 1.0626-1.0626 1.0626h-4.0682c-.587 0-1.0626-.4757-1.0626-1.0626zm0 12.0023c0-1.7204 1.3864-3.1069 3.0967-3.1069s3.0967 1.3865 3.0967 3.1069v2.5502c0 .587-.4756 1.0626-1.0626 1.0626h-4.0682c-.587 0-1.0626-.4756-1.0626-1.0626zm-49.0009-12.0023c0-1.7204 1.3864-3.1069 3.1068-3.1069 1.7103 0 3.0967 1.3865 3.0967 3.1069v2.5502c0 .5869-.4756 1.0626-1.0727 1.0626h-4.0581c-.5971 0-1.0727-.4757-1.0727-1.0626zm0 12.0023c0-1.7204 1.3864-3.1069 3.1068-3.1069 1.7103 0 3.0967 1.3865 3.0967 3.1069v2.5502c0 .587-.4756 1.0626-1.0727 1.0626h-4.0581c-.5971 0-1.0727-.4756-1.0727-1.0626zm16.4449-12.2351c0-1.9228 1.5584-3.4813 3.4711-3.4813h15.3622c1.9228 0 3.4813 1.5585 3.4813 3.4813v19.6549h-2.024v-19.6549c0-.7995-.6579-1.4573-1.4573-1.4573h-15.3622c-.7995 0-1.4471.6578-1.4471 1.4573v19.6549h-2.024zm16.5158 19.6549h-10.7271v-10.8303c0-3.1068 1.6192-5.9809 4.2707-7.59l.5262-.3238c.3441-.2125.7792-.2125 1.1233 0l.5363.3238c2.6515 1.6091 4.2707 4.4832 4.2707 7.59v10.8303z"/></g></svg>