<svg viewBox="0 0 512 512" xmlns="http://www.w3.org/2000/svg"><g><path fill="currentColor" d="m61 255c0 24.853 20.147 46 45 46h300c24.853 0 45-21.147 45-46v-15h-390z"/><path fill="currentColor" d="m151 331h60v181h-60z"/><path fill="currentColor" d="m301 331h60v181h-60z"/><path fill="currentColor" d="m121 391h-31v-30h-30v30h-30v-30h-30v151h121z"/><path fill="currentColor" d="m482 391h-30v-30h-30v30h-31v121h121c0-10.109 0-159.721 0-151h-30z"/><path fill="currentColor" d="m241 180h30v30h-30z"/><path fill="currentColor" d="m391 210v-45h-30v-45h-30v-17.763c17.422-6.213 30-22.707 30-42.237v-15h-30v15c0 8.276-6.738 15-15 15h-120c-8.262 0-15-6.724-15-15v-15h-30v15c0 19.53 12.578 36.024 30 42.237v17.763h-30v45h-30v45h90v-60h30v-45h30v45h30v60z"/><path fill="currentColor" d="m286 30c0-16.569-13.431-30-30-30s-30 13.431-30 30v15h60z"/></g></svg>