<svg xmlns="http://www.w3.org/2000/svg" viewBox="0 0 1024 1024">
<g transform="translate(0,1024) scale(0.1,-0.1)">
<path fill="currentColor" d="M4887 9864 c-1 -1 -42 -4 -92 -8 -49 -3 -99 -8 -110 -10 -11 -2 -45
-7 -76 -10 -31 -4 -67 -9 -80 -11 -13 -3 -41 -7 -64 -11 -76 -11 -230 -45
-340 -74 -1267 -338 -2281 -1299 -2690 -2551 -42 -129 -106 -374 -119 -459 -3
-19 -8 -46 -11 -60 -3 -14 -8 -45 -11 -70 -3 -25 -8 -53 -10 -64 -2 -10 -6
-44 -9 -75 -4 -31 -8 -66 -10 -79 -2 -12 -7 -73 -11 -135 -9 -135 -12 -5400
-3 -5425 3 -9 8 -15 10 -13 2 3 40 -1 84 -8 113 -19 139 -23 255 -45 47 -8
101 -18 120 -21 19 -3 53 -10 75 -15 22 -5 56 -11 75 -14 19 -3 46 -8 60 -11
80 -16 128 -25 155 -30 17 -3 41 -7 55 -10 14 -2 48 -9 75 -15 28 -5 64 -12
80 -15 17 -3 41 -7 55 -10 33 -7 278 -53 310 -59 14 -2 52 -9 85 -15 65 -11
99 -17 159 -26 21 -4 48 -9 60 -11 24 -5 122 -20 181 -29 23 -3 50 -7 60 -9
11 -2 45 -7 75 -11 30 -3 66 -8 80 -10 41 -6 102 -14 160 -20 30 -4 66 -8 80
-10 14 -2 61 -7 105 -11 44 -4 94 -8 110 -10 191 -19 754 -26 947 -12 116 9
227 20 248 24 8 1 25 3 38 3 l22 1 0 4731 0 4730 -91 -3 c-50 -2 -91 -4 -92
-4z m-1184 -1085 c98 -27 145 -57 230 -145 82 -85 97 -92 316 -148 160 -42
176 -49 192 -88 16 -40 -16 -163 -53 -200 -34 -36 -68 -36 -160 1 -165 64
-218 76 -285 60 -27 -6 -59 -13 -72 -15 -68 -13 -230 -73 -338 -124 -404 -192
-651 -461 -735 -797 -22 -89 -27 -222 -20 -548 3 -116 -1 -141 -26 -175 -30
-40 -61 -51 -127 -47 -153 11 -329 136 -423 299 -68 121 -94 226 -98 403 -4
163 7 244 53 395 92 306 307 629 553 830 189 155 442 277 631 305 24 4 46 8
48 10 1 2 57 4 122 4 88 0 139 -6 192 -20z m402 -990 c136 -31 276 -139 343
-265 102 -195 71 -434 -78 -598 l-37 -41 3 -100 c5 -163 -42 -290 -147 -395
-259 -258 -690 -187 -847 141 -29 59 -49 86 -91 120 -144 117 -214 320 -175
509 41 199 206 362 407 404 57 12 69 19 113 66 136 146 314 202 509 159z
m-445 -2284 c36 -13 94 -36 130 -52 36 -17 119 -52 185 -78 215 -86 275 -144
352 -344 20 -53 56 -141 81 -196 58 -130 81 -214 76 -290 -5 -91 3 -69 -137
-405 -77 -186 -98 -221 -172 -287 l-56 -50 44 -26 c160 -94 246 -294 192 -450
-16 -47 -16 -47 13 -90 80 -120 99 -251 54 -380 -11 -31 -17 -57 -14 -57 12 0
67 -92 96 -160 36 -87 64 -230 60 -310 -6 -140 -72 -274 -181 -369 -47 -40
-63 -61 -68 -89 -19 -104 -122 -235 -223 -286 -29 -15 -78 -32 -109 -39 -55
-13 -58 -16 -95 -77 -43 -70 -74 -101 -132 -131 -46 -25 -128 -35 -176 -22
-33 9 -38 7 -82 -32 -81 -73 -189 -89 -314 -46 l-57 19 -40 -29 c-94 -68 -248
-95 -359 -63 -120 36 -225 119 -275 218 -14 28 -26 52 -27 53 -1 2 -18 -2 -37
-8 -108 -33 -271 9 -380 99 -66 53 -140 193 -151 282 -2 18 -17 33 -51 53
-169 101 -268 273 -262 457 3 103 37 175 123 258 l65 63 -20 22 c-30 34 -48
67 -71 129 -17 47 -21 76 -19 155 2 86 6 106 34 166 41 86 124 174 200 212 32
16 59 29 60 30 1 1 5 19 8 41 10 71 35 122 80 163 24 22 55 43 69 47 25 6 25
7 19 84 -7 97 12 160 65 214 71 75 168 98 263 65 30 -11 58 -20 62 -22 4 -1
16 21 25 48 24 70 63 133 110 179 l40 38 -39 85 c-94 204 -96 308 -13 497 20
44 61 141 90 213 94 234 147 287 383 378 47 18 118 48 156 65 183 85 295 99
425 55z m1131 -2566 c21 -40 -1 -64 -88 -91 -82 -27 -106 -25 -118 12 -10 33
12 57 72 78 79 28 119 28 134 1z m-171 -1341 c57 -26 78 -44 74 -65 -1 -7 -2
-18 -3 -23 0 -6 -11 -15 -24 -21 -18 -8 -38 -3 -107 26 -46 20 -90 41 -97 47
-19 15 -16 45 7 68 22 22 36 19 150 -32z m-451 -179 c135 -45 165 -65 152
-101 -17 -46 -33 -46 -173 2 -72 25 -137 51 -145 58 -27 27 -10 82 26 82 9 0
72 -19 140 -41z M3508 8705 c-2 -1 -32 -5 -68 -9 -93 -8 -125 -15 -215 -43
-251 -79 -507 -264 -690 -497 -169 -216 -272 -439 -323 -694 -9 -48 -9 -307 0
-352 42 -200 142 -340 295 -417 71 -35 155 -54 166 -36 9 14 9 62 3 308 -3
121 -1 243 4 270 5 28 12 67 15 89 10 59 54 184 90 256 96 189 286 386 505
522 160 100 414 205 596 248 55 12 52 8 70 96 3 15 -15 40 -67 92 -39 40 -85
83 -102 96 -42 31 -118 57 -187 62 -30 3 -63 7 -72 8 -9 2 -18 3 -20 1z M4049
8413 c0 -10 -2 -25 -4 -35 -2 -12 7 -18 34 -23 20 -4 77 -22 126 -40 123 -46
116 -46 130 1 l13 40 -142 37 c-77 21 -144 37 -148 37 -5 0 -8 -8 -9 -17z
M3892 7694 c-175 -36 -318 -200 -330 -377 -8 -134 32 -245 122 -337 51 -52
144 -104 206 -116 179 -34 355 38 449 184 204 319 -75 722 -447 646z m194 -92
c84 -26 156 -88 201 -173 25 -48 28 -64 28 -149 0 -81 -4 -103 -25 -145 -33
-67 -99 -131 -168 -163 -48 -23 -70 -27 -142 -27 -73 1 -93 5 -140 29 -165 83
-234 258 -170 429 36 95 137 185 234 207 39 9 141 4 182 -8z M3913 7509 c-30
-9 -46 -29 -23 -29 25 0 134 -129 168 -200 27 -56 49 -85 80 -109 l43 -32 19
43 c52 115 0 258 -116 313 -44 21 -127 28 -171 14z M3776 7398 c-24 -34 -20
-50 20 -82 24 -19 58 -33 100 -41 l63 -12 -19 26 c-40 55 -123 131 -143 131
-3 0 -13 -10 -21 -22z M3770 7175 c0 -20 55 -77 97 -102 55 -32 147 -39 203
-16 l34 15 -24 20 c-56 44 -152 80 -232 86 -43 2 -78 1 -78 -3z M3410 7434
c-221 -103 -309 -363 -196 -581 14 -27 36 -61 50 -78 l25 -30 1 25 c0 14 3 42
6 63 4 28 -1 53 -17 90 -34 77 -33 193 2 267 30 64 92 131 147 159 28 14 41
28 45 48 3 15 9 36 12 46 10 24 -9 22 -75 -9z M3418 7215 c-41 -42 -68 -109
-68 -164 l1 -36 20 25 c11 14 38 47 60 73 39 46 41 50 32 94 l-8 46 -37 -38z
M3466 6997 c-121 -175 -87 -437 73 -565 86 -69 186 -102 294 -97 232 10 406
193 407 427 l0 57 -42 -19 c-36 -16 -42 -23 -44 -52 -11 -138 -84 -248 -202
-301 -66 -30 -189 -33 -259 -6 -68 26 -146 97 -178 162 -53 110 -51 208 7 319
l30 57 -22 35 c-12 20 -23 36 -25 36 -1 0 -19 -24 -39 -53z M3601 6859 c-11
-24 -18 -45 -16 -47 6 -6 105 19 104 26 0 4 -16 20 -35 36 l-34 28 -19 -43z
M3740 6753 c-63 -32 -92 -41 -137 -42 -21 -1 -21 -3 -9 -38 13 -37 14 -38 63
-37 57 2 128 30 190 77 49 37 54 52 17 55 -14 1 -33 5 -42 10 -11 5 -39 -3
-82 -25z M3984 6706 c-57 -63 -133 -117 -201 -142 -54 -20 -70 -30 -51 -33
130 -19 183 -7 250 60 46 46 82 126 71 157 -8 20 -17 15 -69 -42z M3390 5406
c-36 -13 -96 -38 -135 -55 -38 -18 -110 -48 -160 -67 -114 -44 -164 -74 -205
-121 -61 -69 -121 -221 -83 -211 14 4 67 -30 94 -59 41 -45 58 -79 72 -140 47
-201 -70 -399 -229 -388 -24 1 -44 1 -44 -1 0 -1 15 -38 34 -81 19 -43 48
-114 65 -158 65 -171 110 -212 314 -295 78 -31 162 -66 187 -78 92 -43 126
-53 185 -59 76 -7 115 4 300 81 83 35 180 75 217 90 36 15 85 44 108 63 l42
36 -34 19 c-74 43 -119 145 -114 266 7 213 177 357 329 279 26 -13 49 -22 51
-18 7 13 -2 120 -14 157 -7 21 -28 73 -47 114 -20 41 -50 114 -68 161 -52 136
-73 177 -112 220 -47 52 -90 76 -253 143 -74 30 -172 70 -217 89 -107 44 -188
48 -283 13z m251 -217 c84 -42 120 -126 93 -218 -25 -86 -108 -138 -203 -128
-48 5 -120 33 -152 59 -32 26 -59 83 -59 123 0 125 197 225 321 164z m-148
-558 c62 -31 117 -104 117 -156 0 -67 -13 -99 -59 -145 -96 -95 -255 -95 -348
0 -41 42 -57 89 -51 151 14 142 195 222 341 150z M3508 5100 c-45 -14 -88 -49
-88 -74 0 -47 90 -94 156 -82 55 11 83 68 58 118 -23 45 -63 57 -126 38z
M3314 4546 c-106 -46 -74 -172 45 -184 59 -5 103 10 131 46 69 87 -60 188
-176 138z M2702 4763 c-75 -176 -74 -239 5 -284 85 -50 178 51 176 192 -1 95
-60 189 -118 189 -18 0 -29 -16 -63 -97z M4200 4436 c-105 -58 -132 -262 -47
-353 34 -38 53 -30 77 35 12 31 42 106 68 166 l46 109 -32 28 c-35 32 -72 36
-112 15z M2665 4079 c-39 -47 -66 -111 -71 -172 -7 -79 -13 -96 -33 -106 -19
-11 -25 -8 -125 53 -88 53 -168 37 -224 -45 -20 -29 -23 -43 -19 -94 2 -33 10
-81 18 -107 16 -58 11 -64 -61 -83 -88 -23 -118 -63 -126 -169 -4 -59 -16 -86
-38 -86 -6 0 -38 -13 -71 -29 -215 -101 -261 -380 -91 -553 65 -67 63 -76 -31
-137 -126 -81 -172 -192 -139 -334 27 -117 115 -224 229 -280 31 -15 58 -31
61 -35 3 -5 8 -31 11 -58 20 -166 135 -293 291 -321 64 -12 97 -8 159 21 66
30 90 22 105 -36 26 -97 95 -179 190 -226 47 -23 67 -27 140 -27 97 1 151 20
225 81 l45 36 74 -27 c134 -49 218 -35 273 44 34 50 55 56 112 36 111 -39 190
2 252 131 16 35 34 66 39 69 5 3 30 8 54 10 70 8 149 42 200 86 59 52 112 157
115 231 1 9 30 39 65 67 162 126 206 291 140 520 -23 80 -70 168 -110 204 -41
38 -41 48 -9 118 52 114 41 211 -37 329 -24 36 -46 72 -49 80 -3 8 6 40 21 72
32 68 31 116 -5 195 -32 70 -92 133 -162 169 -81 41 -125 38 -243 -15 -182
-82 -245 -100 -340 -97 -68 2 -100 9 -160 34 -289 118 -399 165 -436 187 -78
46 -143 134 -200 274 l-10 24 -29 -34z m499 -519 c71 -22 133 -43 138 -48 27
-27 4 -82 -34 -82 -23 0 -239 64 -268 80 -38 20 -19 89 25 89 6 0 68 -17 139
-39z m-529 -30 c151 -52 155 -54 155 -91 0 -21 -6 -32 -24 -40 -20 -9 -42 -5
-123 21 -164 55 -183 65 -183 98 0 31 16 52 40 52 9 0 70 -18 135 -40z m1194
-291 c63 -22 120 -44 128 -50 19 -16 16 -46 -6 -68 -22 -22 -18 -23 -196 39
-106 36 -110 38 -119 67 -5 15 -1 28 14 43 24 24 15 25 179 -31z m-603 -228
c50 -47 95 -95 101 -106 10 -20 1 -64 -14 -66 -4 0 -17 -2 -27 -4 -14 -3 -47
23 -110 83 -131 126 -139 139 -105 173 30 30 52 18 155 -80z m806 -86 c72 -70
105 -110 103 -122 -2 -10 -4 -21 -4 -25 -1 -9 -43 -23 -60 -19 -23 4 -218 200
-218 219 0 24 26 52 51 52 13 0 61 -40 128 -105z m-1673 -63 c83 -79 104 -104
104 -126 0 -31 -16 -46 -48 -46 -22 0 -219 182 -228 211 -8 24 20 59 46 59 14
0 60 -37 126 -98z m374 1 c112 -108 116 -113 117 -138 0 -28 -19 -45 -48 -45
-18 0 -53 28 -123 97 -54 53 -101 105 -105 115 -7 24 22 58 49 58 11 0 59 -38
110 -87z m921 -218 c77 -68 90 -99 56 -127 -12 -10 -28 -18 -34 -18 -7 0 -44
30 -84 66 -75 69 -88 97 -56 128 24 24 46 15 118 -49z m-569 -158 c133 -45
138 -48 138 -82 0 -30 -12 -45 -39 -49 -21 -3 -260 78 -281 96 -20 16 -16 55
8 71 23 17 18 18 174 -36z m791 -88 c125 -44 156 -65 147 -100 -12 -44 -40
-43 -183 6 -74 26 -138 52 -142 58 -12 18 -9 52 4 65 19 19 49 14 174 -29z
m-1062 -134 c71 -25 130 -45 132 -45 2 0 8 -9 14 -21 14 -25 -10 -69 -38 -69
-29 0 -261 81 -277 97 -8 8 -15 23 -15 33 0 21 25 50 44 50 7 0 70 -20 140
-45z m-564 -146 c139 -46 166 -64 156 -103 -11 -44 -44 -43 -182 5 -144 50
-169 70 -140 114 9 14 22 25 29 25 6 0 68 -19 137 -41z m1406 -207 c56 -53
104 -104 107 -113 8 -24 -20 -59 -46 -59 -23 0 -221 181 -230 211 -8 24 20 59
46 59 14 0 58 -35 123 -98z m-466 -87 c25 -3 52 -8 60 -10 8 -2 35 -6 60 -9
78 -10 95 -15 108 -33 15 -21 15 -35 -1 -57 -16 -22 -50 -23 -162 -2 -11 2
-42 7 -70 11 -27 5 -53 9 -57 11 -5 1 -12 2 -18 3 -16 2 -31 41 -25 62 6 19
43 41 55 34 3 -2 26 -6 50 -10z m-650 -45 c134 -48 148 -58 134 -97 -13 -38
-39 -40 -137 -7 -168 55 -185 63 -191 91 -9 34 18 65 53 59 14 -2 78 -23 141
-46z M5170 5141 l0 -4731 28 -1 c15 0 36 -2 47 -4 201 -33 990 -40 1175 -11
14 3 63 7 110 10 47 3 94 8 105 10 11 2 55 7 98 11 43 3 88 8 100 10 12 2 45
6 72 10 28 3 65 8 83 11 17 2 49 6 70 9 20 3 48 7 62 10 14 2 43 7 65 10 22 3
65 10 95 15 30 5 69 11 85 13 17 3 57 10 90 16 33 6 76 13 95 16 19 3 42 8 50
10 8 2 33 6 55 10 22 3 47 7 55 10 8 2 32 6 52 9 21 3 57 10 80 15 24 5 59 12
78 15 19 3 46 8 60 11 92 18 280 55 305 60 17 2 41 7 55 10 133 26 179 35 205
40 17 2 41 7 55 10 105 21 128 25 150 29 14 2 52 9 85 15 33 6 78 13 100 17
22 3 45 11 50 18 7 9 10 908 9 2657 -1 2344 -4 2785 -19 2904 -2 17 -7 53 -10
80 -9 72 -15 112 -27 180 -5 33 -12 74 -15 90 -12 76 -68 293 -109 425 -394
1248 -1403 2222 -2664 2570 -104 29 -252 63 -320 75 -124 21 -149 24 -180 29
-38 5 -122 15 -185 21 -22 2 -97 7 -167 10 l-128 7 0 -4731z m2159 3859 c100
-59 199 -139 287 -228 118 -120 140 -173 101 -243 -17 -32 -37 -45 -136 -92
-135 -63 -198 -87 -338 -126 -148 -41 -202 -31 -238 46 -21 43 -16 133 17 318
5 33 12 74 15 90 3 17 16 73 29 125 20 80 29 100 59 128 53 49 100 45 204 -18z
m-993 -33 c12 -3 37 -8 55 -11 102 -17 201 -46 221 -65 9 -9 19 -34 22 -55 4
-21 8 -48 11 -60 15 -72 22 -311 11 -376 -2 -14 -7 -47 -10 -75 -8 -71 -16
-105 -26 -125 -12 -22 -139 -56 -290 -77 -70 -10 -399 -10 -465 -1 -133 20
-243 46 -272 64 -21 13 -35 68 -48 189 -6 51 -6 302 -1 335 2 14 7 48 11 75
13 107 23 120 111 140 10 2 37 9 59 14 54 13 91 20 150 27 28 4 52 8 54 10 7
6 381 -3 407 -9z m1029 -772 c39 -3 81 -7 95 -10 14 -2 37 -6 51 -9 62 -10
198 -51 244 -72 58 -27 85 -65 85 -121 0 -65 -150 -271 -312 -430 -46 -45 -97
-85 -112 -89 -38 -9 -95 2 -119 23 -59 52 -235 530 -223 606 9 57 47 93 111
107 30 6 53 5 180 -5z m-777 -680 c103 -33 204 -96 292 -184 182 -181 288
-421 278 -627 -5 -82 -10 -101 -46 -176 -65 -135 -201 -257 -389 -352 -71 -35
-204 -84 -253 -92 -14 -3 -32 -7 -40 -9 -87 -26 -267 -25 -380 0 -14 3 -35 8
-47 11 -53 11 -168 58 -235 96 -99 57 -214 173 -255 258 -114 237 -37 477 239
749 154 151 371 285 533 330 99 26 211 25 303 -4z m1440 -611 c118 -36 160
-72 390 -333 140 -160 188 -274 184 -439 -2 -114 -78 -236 -203 -327 -79 -59
-232 -128 -330 -151 -69 -16 -230 -16 -303 1 -215 47 -383 195 -431 377 -18
68 -17 260 2 344 70 314 317 548 573 542 41 0 94 -7 118 -14z m-1387 -1118
c196 -45 370 -144 498 -283 34 -36 61 -68 61 -72 0 -4 71 -6 158 -6 132 -1
170 -4 241 -23 286 -77 508 -267 622 -532 114 -265 96 -573 -50 -825 -71 -124
-141 -200 -266 -289 -323 -232 -771 -225 -1090 17 -48 36 -185 177 -185 189 0
5 -23 6 -52 3 -479 -61 -913 249 -1024 734 -14 60 -12 297 3 366 78 364 355
639 724 720 64 13 303 14 360 1z m-160 -1945 c56 -17 2258 -1376 2307 -1424
117 -114 142 -290 64 -443 -27 -52 -97 -121 -152 -149 -25 -12 -268 -109 -540
-215 -272 -106 -625 -243 -785 -305 -1188 -463 -1606 -624 -1645 -632 -232
-49 -459 148 -444 385 4 63 705 2512 741 2590 43 92 130 164 238 198 46 14
163 11 216 -5z M7180 8926 c-11 -29 -27 -92 -34 -129 -3 -15 -7 -35 -10 -45
-3 -9 -7 -34 -10 -54 -13 -82 -17 -114 -21 -138 -15 -90 -16 -157 -3 -168 27
-22 325 73 470 150 75 39 76 50 15 116 -101 108 -204 194 -307 257 -68 41 -87
43 -100 11z M5929 8876 c-2 -2 -24 -7 -49 -10 -25 -3 -56 -8 -70 -11 -14 -3
-38 -8 -55 -10 -53 -10 -95 -26 -96 -38 0 -7 -2 -19 -3 -27 -22 -109 -22 -370
0 -480 1 -8 3 -20 3 -26 1 -7 18 -15 39 -19 52 -10 73 -14 102 -20 75 -15 141
-20 295 -20 184 0 250 6 365 33 82 19 78 13 94 132 7 50 9 273 2 305 -2 11 -7
46 -10 77 -7 57 -8 58 -49 69 -47 13 -68 17 -116 25 -18 3 -43 8 -55 11 -26 7
-390 15 -397 9z m333 -106 c50 -15 65 -43 43 -77 -15 -23 -21 -25 -59 -18 -71
13 -279 14 -326 2 l-45 -12 -1 -123 c-2 -133 -9 -155 -53 -150 -43 5 -51 38
-48 183 2 76 8 139 15 152 12 22 41 33 136 53 54 12 291 5 338 -10z M7176
8092 c-5 -8 -4 -20 8 -69 10 -42 61 -194 86 -258 58 -147 89 -205 108 -205 39
0 288 284 349 397 15 29 16 35 3 47 -15 14 -164 62 -225 72 -16 2 -54 8 -84
13 -75 12 -238 14 -245 3z M6320 7426 c-150 -42 -341 -158 -484 -296 -275
-264 -341 -480 -211 -685 67 -106 195 -195 355 -249 199 -66 426 -49 650 48
174 75 337 212 395 331 124 252 -112 705 -435 836 -66 26 -201 34 -270 15z
m152 -269 c7 -8 29 -44 48 -80 36 -70 42 -74 87 -56 41 15 116 13 151 -5 96
-50 148 -231 100 -347 -35 -82 -115 -142 -207 -155 -96 -13 -222 58 -275 156
-52 95 -39 182 36 245 53 44 53 50 14 125 -41 77 -42 86 -19 112 19 21 46 23
65 5z m-495 -126 c12 -6 36 -31 54 -56 l32 -44 30 15 c62 32 138 -13 153 -91
7 -39 -1 -124 -17 -173 -10 -31 -9 -36 21 -67 66 -68 46 -169 -46 -239 -61
-47 -107 -62 -143 -46 -35 14 -41 25 -92 175 -22 66 -69 180 -105 254 -43 91
-64 146 -64 171 0 85 101 142 177 101z M6640 6924 c-63 -19 -160 -75 -184
-107 -17 -23 -18 -31 -8 -65 13 -42 50 -87 97 -117 43 -27 125 -26 162 1 80
60 94 177 32 265 -24 34 -44 39 -99 23z M5904 6936 c-3 -9 15 -59 40 -111 53
-108 102 -228 135 -327 13 -38 26 -68 30 -68 4 0 24 15 44 34 50 45 49 73 -3
93 -22 9 -42 24 -45 34 -4 11 3 45 15 76 25 67 38 177 22 187 -6 3 -27 -9 -46
-29 -54 -54 -83 -47 -113 25 -30 75 -68 116 -79 86z M7794 6802 c-166 -59
-302 -221 -353 -422 -15 -57 -19 -104 -18 -200 2 -120 4 -129 35 -192 74 -150
259 -250 459 -249 81 1 108 5 193 32 229 72 386 219 394 367 8 157 -55 261
-341 564 -73 77 -142 110 -242 115 -55 3 -90 -1 -127 -15z M6260 5676 c-293
-77 -498 -277 -591 -576 -20 -62 -24 -97 -24 -205 0 -149 5 -183 38 -282 83
-243 277 -434 527 -517 41 -13 102 -28 135 -32 60 -7 204 -8 212 -1 2 2 -8 28
-21 58 -30 69 -63 175 -73 237 -15 92 -7 291 16 375 23 89 84 223 132 294 47
69 154 178 224 228 61 44 218 125 241 125 63 0 -74 138 -217 218 -170 97 -410
128 -599 78z M7205 5313 c-258 -54 -493 -249 -591 -491 -46 -114 -58 -180 -58
-312 0 -184 45 -331 146 -478 195 -283 580 -414 913 -311 273 84 482 303 556
584 30 113 30 298 0 409 -22 83 -82 211 -128 274 -52 71 -169 179 -241 222
-67 39 -178 86 -227 96 -11 2 -42 8 -70 13 -72 14 -220 11 -300 -6z M6290
3751 c-122 -40 -164 -97 -224 -302 -46 -156 -52 -183 -38 -164 4 6 34 33 67
61 179 151 329 204 567 201 86 -2 114 1 105 9 -16 15 -232 147 -285 174 -46
24 -149 35 -192 21z M6540 3446 c-3 -2 -27 -7 -53 -10 -69 -10 -152 -43 -227
-91 -76 -49 -279 -230 -297 -266 -21 -40 -397 -1362 -395 -1387 1 -13 22 -66
47 -117 118 -242 318 -444 561 -564 l76 -38 121 49 c67 26 159 62 205 80 78
29 103 48 65 48 -77 2 -242 51 -343 103 -289 146 -475 398 -525 709 -13 82
-13 244 0 328 14 88 57 217 105 316 128 264 352 466 615 553 94 31 121 37 220
48 332 38 678 -86 906 -325 187 -195 281 -414 283 -657 0 -60 -3 -132 -7 -160
-21 -150 -103 -342 -201 -472 -30 -40 -52 -73 -48 -73 8 0 414 158 417 162 1
2 13 33 28 69 60 152 86 308 82 479 -2 69 -6 139 -9 155 -4 17 -11 54 -17 83
-13 67 -48 168 -85 249 l-29 61 -525 323 c-613 377 -535 331 -574 335 -52 7
-391 15 -396 10z M6778 3115 c-2 -2 -28 -5 -58 -9 -194 -22 -345 -87 -495
-213 -178 -150 -316 -393 -352 -623 -9 -55 -10 -230 -1 -285 54 -369 340 -655
728 -729 85 -16 261 -19 335 -5 76 14 383 136 445 176 86 56 230 207 288 302
95 155 142 328 136 501 -5 172 -43 292 -138 440 -149 230 -401 390 -689 435
-37 6 -195 14 -199 10z m348 -420 c165 -48 281 -156 344 -320 32 -85 33 -224
1 -314 -71 -204 -287 -377 -556 -446 -95 -24 -262 -29 -345 -9 -175 40 -299
146 -359 305 -99 260 30 524 339 692 76 42 224 93 295 102 28 4 51 8 53 10 10
9 180 -6 228 -20z M6938 2615 c-2 -2 -32 -6 -67 -9 -36 -4 -68 -9 -73 -12 -5
-3 -19 -7 -32 -10 -47 -8 -170 -65 -236 -109 -85 -56 -180 -157 -214 -227
-111 -227 29 -495 286 -548 195 -39 479 46 639 192 89 83 149 198 154 301 10
204 -144 392 -340 413 -80 9 -115 11 -117 9z M8195 2664 c13 -32 53 -172 59
-206 17 -101 21 -145 21 -258 0 -111 -6 -179 -19 -245 -9 -43 -36 -143 -50
-182 l-15 -42 67 26 c150 56 379 146 402 158 77 40 132 133 136 228 6 144 -38
192 -341 378 -284 174 -270 166 -260 143z M5456 1330 c-33 -115 -61 -218 -63
-227 -10 -54 -9 -83 4 -132 36 -142 177 -230 317 -199 21 5 121 41 222 80
l184 71 -82 50 c-200 119 -370 294 -480 495 -22 39 -41 72 -41 72 -1 0 -29
-95 -61 -210z M2501 9430 c-90 -67 -95 -73 -87 -105 11 -43 50 -43 114 1 30
22 71 53 89 70 31 29 32 34 22 58 -7 14 -15 26 -18 27 -3 0 -14 2 -24 4 -10 2
-52 -22 -96 -55z M2010 9003 c-237 -242 -450 -523 -612 -808 -95 -168 -102
-192 -57 -215 32 -18 53 3 119 122 168 301 370 572 628 840 61 64 112 123 112
131 0 19 -33 47 -56 47 -11 0 -66 -48 -134 -117z"/>
</g>
</svg>
