<svg xmlns="http://www.w3.org/2000/svg" viewBox="0 0 1024 1024">
<g transform="translate(0,1024) scale(0.1,-0.1)">
<path fill="currentColor" d="M2025 9313 c-209 -43 -388 -196 -471 -401 -31 -77 -68 -285 -81 -462
-12 -156 -6 -463 11 -557 2 -10 7 -40 10 -68 21 -150 61 -320 112 -473 l14
-44 -59 -61 c-360 -375 -662 -866 -851 -1382 -85 -231 -87 -277 -18 -344 42
-41 70 -47 208 -50 63 -1 115 -3 116 -4 2 -1 -6 -34 -17 -72 -11 -39 -21 -79
-23 -90 -2 -11 -11 -47 -19 -80 -31 -120 -78 -385 -93 -520 -3 -33 -8 -68 -9
-77 -27 -140 -27 -786 -1 -924 2 -10 7 -39 10 -64 4 -25 8 -52 10 -60 1 -8 6
-36 11 -63 13 -81 68 -142 137 -153 45 -8 117 24 208 90 35 25 67 46 71 46 7
0 12 -16 23 -75 14 -71 73 -301 106 -417 129 -446 289 -691 458 -703 90 -6
123 29 198 207 31 76 60 138 63 138 3 0 105 -145 226 -321 121 -177 234 -331
250 -344 41 -31 69 -38 123 -30 40 6 55 16 126 88 45 45 92 94 105 109 l24 28
-66 66 c-54 53 -77 87 -121 178 -85 174 -145 361 -163 511 -10 78 -10 274 0
348 23 169 108 373 218 523 91 124 232 250 359 321 55 31 63 47 85 178 5 25 8
41 20 95 24 107 57 170 124 236 31 31 68 62 84 70 46 24 104 28 153 9 50 -19
79 -54 92 -112 14 -60 -6 -105 -77 -172 -61 -60 -66 -70 -75 -156 -16 -148
-73 -291 -143 -361 -20 -20 -61 -48 -92 -61 -211 -93 -406 -388 -438 -660 -14
-122 -5 -249 27 -363 28 -102 140 -327 182 -367 94 -90 453 -242 702 -298 439
-98 777 -18 972 232 27 34 50 65 51 70 2 4 -19 9 -46 10 -85 3 -246 82 -368
181 -215 173 -308 358 -299 597 6 149 45 255 140 382 100 133 271 231 434 250
77 9 664 8 726 -1 159 -23 339 -125 437 -248 161 -203 177 -529 37 -766 -65
-110 -260 -277 -408 -350 -65 -32 -85 -37 -146 -37 l-70 0 20 -35 c31 -52 143
-162 206 -201 95 -60 207 -101 320 -116 98 -13 331 -6 382 12 7 2 29 6 48 9
61 9 216 54 317 92 139 51 392 175 435 212 70 62 161 276 203 477 14 66 13
254 -2 331 -48 256 -206 473 -430 589 -37 20 -80 47 -94 61 -56 53 -118 217
-134 353 -11 91 -16 101 -85 170 -73 74 -82 95 -67 165 21 103 121 150 230
107 69 -27 178 -158 210 -252 15 -44 19 -65 33 -174 10 -80 26 -118 61 -140
17 -11 58 -37 90 -57 156 -98 321 -296 412 -491 77 -167 111 -336 106 -532 -4
-213 -51 -394 -161 -620 -55 -114 -100 -178 -166 -232 l-38 -31 108 -111 c88
-91 114 -111 145 -117 51 -9 101 2 134 30 15 13 127 168 248 345 121 176 223
321 226 321 3 0 31 -63 63 -139 71 -171 108 -211 192 -211 181 0 370 326 514
890 23 91 44 174 46 185 20 106 27 126 39 121 7 -2 46 -28 86 -57 92 -65 131
-82 177 -74 80 12 134 68 147 152 5 27 10 55 11 63 2 8 6 35 10 60 3 25 8 52
9 61 27 140 27 790 0 928 -2 11 -7 51 -10 88 -4 37 -9 70 -10 73 -2 3 -7 33
-10 65 -4 33 -9 62 -10 65 -2 3 -6 26 -10 50 -8 60 -70 338 -94 425 -11 38
-19 70 -18 71 1 1 61 4 133 6 119 3 135 6 167 28 82 56 92 117 42 266 -185
549 -497 1071 -883 1477 -47 49 -62 72 -57 85 43 109 97 337 129 552 24 160
25 568 1 689 -2 13 -7 49 -11 80 -3 31 -8 58 -9 61 -2 3 -6 26 -10 50 -38 272
-246 497 -516 556 -58 12 -198 11 -264 -3 -75 -15 -175 -61 -740 -338 -300
-146 -336 -162 -357 -151 -224 116 -766 303 -1017 351 -30 6 -244 44 -281 50
-14 3 -50 7 -80 11 -30 3 -66 7 -80 10 -139 22 -622 22 -760 0 -14 -3 -47 -7
-75 -11 -135 -17 -238 -36 -380 -72 -268 -67 -561 -185 -766 -309 l-56 -34
-164 81 c-90 45 -195 96 -234 114 -38 18 -176 84 -305 147 -215 105 -294 139
-361 154 -55 13 -198 11 -264 -3z m3595 -746 c14 -3 52 -8 85 -12 241 -25 517
-93 755 -186 185 -71 233 -122 215 -228 -9 -51 -57 -108 -104 -122 -36 -11
-47 -8 -137 29 -110 44 -274 99 -354 117 -3 0 -23 5 -45 10 -22 4 -44 9 -50
11 -5 1 -26 5 -45 8 -19 4 -46 8 -60 11 -84 16 -139 22 -350 41 -91 8 -448 8
-550 0 -180 -15 -297 -27 -390 -41 -14 -2 -45 -7 -70 -10 -45 -6 -134 -21
-180 -30 -14 -3 -36 -7 -50 -10 -14 -3 -41 -8 -60 -11 -19 -3 -80 -17 -135
-30 -55 -14 -109 -26 -120 -29 -11 -2 -72 -21 -136 -41 -132 -41 -167 -41
-220 3 -79 67 -79 179 1 247 49 40 391 139 660 189 110 21 201 37 235 42 23 3
50 7 60 9 11 2 49 7 85 11 36 4 73 9 82 10 9 2 61 7 115 10 54 4 100 9 102 11
6 6 631 -3 661 -9z m-75 -782 c293 -45 440 -81 629 -155 134 -53 172 -88 180
-167 8 -87 -55 -162 -143 -171 -36 -3 -64 3 -131 31 -140 57 -305 105 -425
122 -22 4 -51 8 -65 11 -151 26 -632 26 -767 0 -11 -3 -44 -7 -73 -11 -29 -4
-62 -9 -74 -11 -11 -2 -38 -6 -61 -9 -82 -12 -307 -65 -424 -99 -162 -48 -199
-47 -260 8 -64 58 -61 174 7 233 38 33 317 118 482 147 14 2 36 7 50 10 14 3
39 8 55 11 17 3 55 9 85 15 30 5 78 12 105 15 28 4 61 8 75 11 14 2 66 7 115
10 50 4 92 8 94 10 7 6 501 -4 546 -11z m2652 -967 c48 -45 64 -121 68 -323 6
-315 -82 -597 -268 -857 -91 -128 -187 -224 -387 -390 -155 -129 -215 -299
-186 -526 7 -54 5 -69 -14 -107 -28 -58 -78 -89 -142 -88 -126 1 -181 113
-172 348 9 242 125 469 322 628 253 204 401 401 476 632 51 158 69 375 42 505
-25 119 21 202 122 220 44 7 107 -11 139 -42z m-5973 27 c18 -9 44 -30 57 -48
22 -29 24 -40 21 -112 -15 -343 -3 -446 71 -625 83 -202 221 -375 433 -542
211 -167 330 -394 338 -645 6 -179 -24 -282 -93 -321 -78 -44 -166 -21 -218
57 -19 28 -21 42 -17 99 15 193 6 264 -46 364 -43 84 -88 136 -192 219 -396
316 -605 724 -606 1181 0 148 16 261 45 310 42 71 132 99 207 63z m1191 -58
c11 -3 41 -8 67 -11 78 -11 236 -55 317 -88 380 -158 575 -449 565 -846 -2
-78 -10 -164 -19 -206 -3 -12 -7 -32 -9 -46 -12 -69 -50 -201 -67 -229 -22
-37 -86 -71 -134 -71 -75 0 -388 136 -562 243 -391 243 -638 554 -732 924 -41
161 -37 225 17 275 39 37 64 47 129 54 32 4 60 8 62 10 5 5 342 -3 366 -9z
m3840 -1 c32 -4 68 -12 80 -18 37 -19 74 -61 86 -95 25 -76 -27 -288 -115
-468 -180 -368 -532 -665 -1019 -859 -140 -56 -206 -66 -257 -38 -61 33 -85
89 -126 287 -20 98 -27 379 -11 460 64 329 280 557 634 669 43 13 94 27 113
30 19 3 49 8 65 11 17 3 41 8 55 10 14 3 61 8 105 11 44 4 81 7 82 8 6 5 255
-2 308 -8z M3170 6470 c0 -8 21 -61 50 -125 33 -72 115 -188 190 -268 132
-141 297 -260 508 -366 110 -55 104 -56 117 19 4 19 8 71 9 115 11 320 -189
536 -565 610 -86 17 -309 28 -309 15z M6957 6474 c-1 -1 -40 -5 -87 -9 -46 -3
-87 -8 -90 -10 -3 -2 -25 -6 -49 -10 -150 -22 -320 -108 -409 -205 -35 -39
-99 -178 -116 -255 -14 -65 -16 -216 -2 -270 2 -11 5 -26 5 -32 1 -21 23 -15
117 31 327 159 572 385 695 641 27 55 49 105 49 110 0 8 -104 16 -113 9z
M4781 3568 c-94 -16 -194 -88 -237 -169 -49 -95 -51 -229 -4 -325 36 -74 128
-164 228 -223 l68 -41 284 0 284 0 67 40 c37 22 93 63 124 91 107 99 146 181
141 302 -6 150 -99 268 -251 317 -44 15 -628 21 -704 8z M5040 2138 c-164
-156 -393 -282 -570 -314 -14 -3 -31 -7 -38 -9 -26 -9 -148 -19 -237 -19 -119
0 -243 18 -420 60 -11 3 -31 7 -44 10 -13 3 -64 18 -114 34 l-89 29 5 -40 c15
-112 287 -451 492 -612 219 -172 491 -299 713 -332 21 -3 49 -8 62 -10 125
-26 525 -26 660 0 58 11 72 15 142 34 368 104 733 362 977 691 68 92 131 209
131 244 0 14 -1 26 -3 26 -2 0 -37 -11 -78 -25 -215 -74 -409 -104 -634 -100
-179 3 -206 6 -320 42 -177 55 -321 141 -456 271 -43 42 -87 78 -97 80 -10 1
-44 -24 -82 -60z"/>
</g>
</svg>
