<svg viewBox="0 0 512.52 512.52" xmlns="http://www.w3.org/2000/svg"><g><path fill="currentColor" d="m158.53 324.502h-158.53c32.49 29.83 75.56 46.99 120.24 46.99h42.68c-5.233-15.165-7.195-30.176-4.39-46.99z"/><path fill="currentColor" d="m355.3 338.372c0 11.61-2.01 22.76-5.7 33.12h42.68c44.68 0 87.75-17.16 120.24-46.99h-158.53c.85 5.5 1.31 10.17 1.31 13.87z"/><path fill="currentColor" d="m120.24 294.502h44.59c3.47-14.05 7.94-30.06 12.97-46.99h-177.8c32.49 29.83 75.56 46.99 120.24 46.99z"/><path fill="currentColor" d="m347.69 294.502h44.59c44.68 0 87.75-17.16 120.24-46.99h-177.8c5.03 16.93 9.5 32.94 12.97 46.99z"/><path fill="currentColor" d="m0 170.522c59.391 53.446 113.337 47.207 186.98 46.99 4.91-15.65 10.08-31.55 15.21-46.99z"/><path fill="currentColor" d="m512.52 170.522h-202.19c5.13 15.44 10.3 31.34 15.21 46.99 73.673.236 127.672 6.408 186.98-46.99z"/><path fill="currentColor" d="m320.57 309.502c-16.691-67.284-41.354-137.989-64.31-204.35-14.662 41.723-29.373 85.256-42.52 127.36-8.166 26.434-16.025 52.533-21.79 76.99-2.229 9.623-4.611 20.759-4.73 28.87 0 11.99 3.07 23.28 8.47 33.12 22.168 40.611 77.839 48.323 110.03 15 12.47-12.872 19.534-29.666 19.58-48.12-.16-8.136-2.487-19.232-4.73-28.87zm-79.31-9.94h30v30h-30c0-3.36 0-30 0-30z"/></g></svg>