<svg xmlns="http://www.w3.org/2000/svg" viewBox="0 0 1024 1024">
<g transform="translate(0,1024) scale(0.1,-0.1)">
<path fill="currentColor" d="M724 9667 c-74 -28 -127 -82 -152 -156 -9 -26 -12 -233 -12 -790 l1
-756 25 -52 c13 -28 40 -63 59 -78 65 -49 94 -55 249 -55 l146 0 2 -1052 c3
-985 4 -1055 21 -1088 18 -37 45 -68 161 -190 39 -42 136 -145 216 -230 80
-85 177 -188 216 -230 39 -41 92 -97 117 -125 l46 -50 1 -712 0 -713 -204 0
c-219 0 -259 -7 -322 -55 -18 -14 -45 -51 -61 -82 l-28 -58 3 -1210 c1 -665 5
-1223 8 -1240 28 -143 205 -227 335 -159 19 9 137 98 262 196 126 99 234 181
240 184 7 2 124 -83 261 -190 262 -205 293 -223 378 -214 101 11 182 77 208
169 6 21 10 498 10 1252 0 1176 -1 1220 -19 1262 -30 68 -102 126 -172 139
-13 3 -113 5 -221 5 l-198 1 0 713 1 712 46 50 c25 28 78 84 117 125 39 42
136 145 216 230 80 85 177 188 217 230 112 118 132 142 156 185 l22 40 3 1053
2 1053 126 -3 126 -3 25 -69 c115 -319 419 -566 753 -611 55 -7 228 -7 240 0
5 3 14 -1 22 -9 7 -7 39 -41 70 -73 76 -79 146 -132 243 -184 44 -23 81 -43
83 -45 4 -2 -26 -65 -220 -474 -28 -58 -72 -150 -98 -205 -26 -55 -73 -154
-105 -220 -32 -66 -80 -167 -107 -225 -60 -125 -125 -262 -203 -425 -31 -66
-77 -162 -101 -213 l-44 -92 -82 -1 c-102 -1 -125 -4 -213 -30 -277 -82 -489
-313 -550 -599 -13 -64 -14 -251 0 -314 31 -150 121 -308 234 -414 245 -231
596 -280 901 -127 176 88 317 251 382 441 36 104 43 151 42 279 -2 197 -85
394 -222 529 l-50 48 75 157 c41 86 88 183 103 216 15 33 60 128 100 210 39
83 100 211 136 285 35 74 80 167 98 205 l35 70 0 -1186 1 -1187 -85 -40 c-108
-52 -156 -86 -229 -158 -115 -116 -188 -251 -221 -409 -12 -54 -14 -209 -4
-270 39 -244 190 -456 409 -573 479 -256 1061 35 1149 576 10 58 7 213 -4 267
-40 194 -148 364 -306 482 -58 45 -157 97 -201 108 l-28 7 1 1192 1 1191 46
-96 c26 -52 71 -147 101 -210 30 -62 91 -190 136 -284 45 -93 105 -219 134
-280 28 -60 69 -146 90 -190 l38 -80 -57 -60 c-104 -110 -177 -250 -205 -396
-12 -68 -13 -234 0 -292 41 -194 151 -368 306 -484 337 -254 824 -191 1086
141 117 150 174 322 169 516 -7 238 -107 438 -299 593 -87 70 -230 138 -327
154 -19 3 -42 7 -50 8 -8 2 -52 4 -98 4 l-82 1 -34 73 c-32 67 -55 117 -202
425 -71 149 -140 293 -204 427 -50 104 -102 213 -198 415 -27 58 -78 164 -112
235 -99 208 -131 277 -128 280 2 1 35 18 73 38 92 46 174 108 260 198 39 40
74 72 79 71 17 -5 202 -3 241 3 347 52 635 285 754 609 l27 71 127 3 127 3 1
-1028 c0 -565 3 -1041 5 -1057 8 -45 39 -96 95 -156 28 -30 81 -87 118 -125
36 -39 129 -138 206 -220 77 -82 174 -185 217 -230 42 -44 90 -96 107 -115
l31 -35 0 -712 0 -713 -204 0 c-219 0 -259 -7 -322 -55 -18 -14 -45 -51 -61
-82 l-28 -58 3 -1210 c1 -665 5 -1223 8 -1240 23 -116 152 -203 271 -180 61
11 97 35 338 224 127 100 235 179 242 177 6 -3 116 -87 244 -186 127 -100 250
-191 273 -201 122 -55 278 20 316 152 6 21 10 498 10 1252 0 1176 -1 1220 -19
1262 -30 68 -102 126 -172 139 -13 3 -113 5 -221 5 l-198 1 0 713 1 712 56 60
c31 33 92 98 136 145 257 271 500 531 525 559 61 69 57 -15 60 1144 l2 1057
145 0 c171 0 153 -2 190 18 59 30 95 65 119 115 l25 52 1 755 c0 839 2 812
-65 882 -20 20 -54 45 -78 56 -41 21 -53 21 -902 19 -805 -2 -862 -3 -896 -20
-180 -90 -181 -345 -2 -433 25 -12 67 -20 121 -22 l82 -4 0 -469 0 -469 -415
0 -416 0 49 60 c85 105 169 288 188 409 3 18 8 43 10 55 6 31 6 194 -1 246
-18 130 -78 287 -154 399 -58 85 -156 187 -210 219 l-46 27 -349 3 c-332 3
-348 2 -343 -15 2 -10 16 -56 30 -103 35 -120 42 -175 42 -335 0 -189 -15
-270 -80 -440 -126 -328 -402 -589 -745 -705 -36 -12 -74 -24 -85 -26 -11 -2
-54 -10 -95 -19 -77 -15 -329 -15 -415 0 -154 27 -375 123 -500 217 -233 175
-388 406 -460 686 -26 101 -30 139 -30 287 0 160 7 215 42 335 14 47 28 93 30
103 5 16 -76 17 -1613 16 -1213 0 -1627 -3 -1650 -12z m1096 -937 l0 -470
-390 0 -390 0 0 470 0 470 390 0 390 0 0 -470z m1095 443 c-25 -100 -36 -179
-36 -267 1 -55 3 -111 5 -122 2 -12 7 -38 10 -59 19 -116 101 -292 187 -402
l49 -63 -415 0 -415 0 0 470 0 470 311 0 311 0 -7 -27z m6285 -443 l0 -470
-390 0 -390 0 0 470 0 470 390 0 390 0 0 -470z m-6603 -1925 l2 -970 -61 -65
c-34 -36 -127 -135 -207 -219 -80 -85 -174 -184 -208 -220 l-63 -66 -77 80
c-72 75 -276 290 -407 430 l-56 60 0 970 0 970 538 0 537 0 2 -970z m6120 0
l2 -970 -61 -65 c-34 -36 -127 -135 -207 -219 -80 -85 -174 -184 -208 -220
l-63 -66 -77 80 c-72 75 -276 290 -407 430 l-56 60 0 970 0 970 538 0 537 0 2
-970z m-4777 -2382 c238 -105 250 -434 20 -551 -129 -65 -258 -45 -360 57
-156 156 -92 431 116 505 63 22 160 17 224 -11z m2614 -3 c105 -53 167 -149
172 -265 3 -86 -20 -154 -75 -217 -160 -181 -465 -110 -527 124 -39 150 37
303 182 364 76 32 176 30 248 -6z m-1301 -1389 c176 -85 228 -309 108 -466
-36 -49 -116 -101 -168 -112 -143 -29 -285 38 -348 163 -25 51 -29 71 -29 139
0 68 4 88 27 130 43 80 98 131 173 160 57 22 178 15 237 -14z m-2822 -133 c2
-39 4 -435 2 -443 -2 -6 -134 -10 -371 -9 l-367 0 -3 232 -2 232 370 0 c289 0
370 -3 371 -12z m6120 0 c2 -39 4 -435 2 -443 -2 -6 -134 -10 -371 -9 l-367 0
-3 232 -2 232 370 0 c289 0 370 -3 371 -12z m-6121 -1264 c0 -184 -1 -334 -3
-334 -2 0 -55 40 -118 90 -130 102 -165 122 -230 128 -78 7 -120 -12 -246
-111 -65 -51 -124 -96 -131 -101 -9 -6 -12 63 -12 326 l0 334 370 0 370 1 0
-333z m6120 -1 c0 -183 -1 -333 -3 -333 -2 0 -55 40 -118 90 -130 102 -165
122 -230 128 -78 7 -120 -12 -246 -111 -65 -51 -124 -96 -131 -101 -9 -6 -12
63 -12 326 l0 334 370 0 370 1 0 -334z M4508 9622 c-82 -127 -116 -246 -116
-400 1 -332 224 -617 549 -701 58 -16 100 -19 194 -17 135 4 149 6 242 41 87
33 165 81 240 150 259 234 307 645 110 937 l-32 47 -575 1 -575 0 -37 -58z"/>
</g>
</svg>
