<svg xmlns="http://www.w3.org/2000/svg" viewBox="0 0 1024 1024">
<g transform="translate(0,1024) scale(0.1,-0.1)">
<path fill="currentColor" d="M103 10219 c-22 -11 -54 -39 -70 -61 l-28 -41 -3 -394 c-2 -370 -1
-396 16 -437 24 -54 75 -94 133 -104 24 -4 2271 -7 4994 -6 l4950 0 40 21 c49
25 70 47 90 96 21 52 23 779 1 831 -19 46 -71 94 -115 106 -24 7 -1709 10
-5001 10 l-4965 0 -42 -21z M334 8470 c3 -52 8 -105 10 -116 2 -12 7 -37 10
-55 23 -135 73 -286 143 -423 288 -572 929 -920 1588 -863 277 25 554 131 778
298 80 60 206 177 248 230 l31 40 -27 57 c-77 161 -147 393 -171 572 -3 25 -8
54 -10 65 -2 11 -7 79 -10 150 -4 72 -9 132 -11 135 -3 3 -191 5 -419 5 -408
0 -414 0 -415 -20 0 -11 -1 -132 -1 -270 -1 -267 -7 -313 -51 -388 -26 -44
-88 -93 -147 -118 -56 -22 -185 -18 -241 9 -66 33 -125 95 -150 161 -20 52
-22 76 -24 336 -2 154 -3 282 -4 285 0 3 -256 5 -567 5 l-567 0 7 -95z M3534
8559 c-2 -4 -2 -49 1 -100 28 -541 321 -1008 799 -1273 111 -62 315 -135 421
-152 22 -3 42 -7 46 -9 27 -17 404 -26 544 -13 164 15 369 74 522 151 301 152
557 411 697 708 45 94 101 253 111 313 3 17 8 38 10 46 16 57 37 299 28 325
-2 7 -223 10 -641 10 l-637 0 -2 -40 c-2 -22 -4 -155 -5 -295 l-3 -255 -28
-57 c-51 -103 -141 -160 -262 -164 -128 -5 -239 61 -286 170 -30 70 -31 77
-32 375 l-2 266 -638 0 c-352 0 -641 -3 -643 -6z M7329 8540 c-7 -326 -63
-592 -180 -865 l-41 -96 23 -27 c163 -188 369 -338 590 -430 86 -35 226 -78
290 -87 24 -4 46 -8 49 -10 10 -6 179 -18 250 -19 68 0 205 11 253 19 15 3 38
7 52 9 14 3 33 7 43 10 9 3 29 7 43 10 14 2 74 20 133 40 252 84 445 205 636
396 135 134 208 234 288 392 42 81 107 254 118 313 3 19 18 89 29 145 3 14 8
70 12 125 l6 100 -567 0 c-311 0 -566 -2 -567 -5 0 -3 -2 -129 -3 -280 -2
-151 -6 -288 -11 -305 -23 -88 -80 -154 -164 -194 -77 -36 -193 -37 -264 -2
-79 39 -139 111 -162 196 -5 17 -9 153 -10 302 -1 150 -5 276 -9 280 -4 4
-194 8 -422 8 l-414 0 -1 -25z M6660 6979 c-107 -102 -250 -210 -374 -284
l-96 -57 0 -2044 0 -2044 28 6 c15 3 34 8 42 10 91 22 400 22 471 0 8 -2 26
-7 42 -10 l27 -6 0 2233 0 2234 -23 21 c-13 12 -25 22 -28 22 -2 -1 -42 -37
-89 -81z M3550 6284 l0 -730 -274 -227 c-281 -232 -325 -278 -347 -360 -35
-132 33 -281 162 -352 45 -25 65 -30 124 -30 93 0 150 23 247 101 43 35 81 64
83 64 3 0 5 -245 5 -545 0 -300 3 -545 8 -545 4 0 25 5 47 9 125 29 352 31
480 5 11 -2 32 -6 48 -9 l27 -5 0 535 c0 294 3 535 6 535 3 0 31 -22 62 -49
79 -68 134 -93 209 -97 189 -9 332 136 321 324 -6 114 -38 159 -223 317 -38
33 -72 62 -75 65 -3 3 -71 63 -152 134 l-148 128 0 518 0 517 -82 43 c-106 55
-231 136 -335 216 -88 69 -89 70 -151 129 l-42 39 0 -730z M1080 4555 l0
-2005 32 5 c17 3 34 8 38 10 36 22 400 23 472 1 7 -2 25 -7 41 -10 l27 -6 -2
1927 -3 1927 -40 4 c-125 11 -401 81 -521 132 l-44 19 0 -2004z M9070 6520
c-130 -48 -304 -91 -420 -105 -96 -12 -86 43 -85 -442 l0 -427 -28 -25 c-15
-14 -139 -118 -275 -231 -227 -189 -249 -210 -279 -268 -29 -57 -32 -69 -30
-140 4 -90 32 -155 94 -213 64 -62 117 -84 203 -84 91 0 144 22 234 95 33 27
65 48 71 47 6 -1 9 -199 10 -532 0 -524 0 -530 20 -529 19 1 79 10 140 20 80
14 293 5 393 -17 24 -5 47 -7 51 -5 4 3 7 246 7 541 -1 401 2 535 11 535 6 0
13 -3 15 -8 7 -16 116 -101 158 -123 67 -34 175 -33 250 2 67 31 120 83 152
147 19 38 23 63 23 132 0 75 -3 91 -29 138 -33 58 -56 81 -261 257 -39 33 -72
62 -75 65 -6 6 -233 203 -239 207 -2 2 -4 228 -4 503 0 275 -1 500 -1 499 -1
-1 -48 -18 -106 -39z M3715 3065 c-332 -74 -539 -340 -529 -681 3 -134 56
-294 130 -390 83 -111 240 -216 355 -238 13 -2 44 -9 69 -15 25 -6 90 -9 145
-7 359 11 643 307 643 671 0 193 -60 338 -198 475 -95 96 -184 148 -306 179
-86 22 -227 25 -309 6z M8725 3064 c-315 -67 -524 -330 -523 -659 1 -203 65
-358 205 -492 192 -184 499 -233 746 -120 165 75 300 225 356 393 26 79 32
113 35 203 11 308 -196 585 -501 669 -83 24 -225 26 -318 6z M1378 1975 c-2
-1 -30 -5 -63 -8 -150 -15 -295 -86 -410 -202 -91 -91 -145 -177 -179 -285
-34 -107 -35 -133 -37 -545 0 -325 -3 -379 -19 -441 -25 -98 -76 -195 -154
-294 -77 -97 -83 -125 -37 -171 l29 -29 887 0 c958 0 933 -1 951 52 19 57 14
70 -65 148 -79 78 -131 183 -156 315 -3 17 -8 212 -10 435 -4 362 -6 413 -24
481 -50 195 -170 354 -342 452 -60 34 -183 75 -245 82 -87 9 -123 12 -126 10z
M6414 1969 c-289 -34 -526 -239 -605 -524 -21 -76 -22 -101 -24 -480 -2 -339
-4 -410 -19 -465 -23 -90 -74 -193 -132 -268 -87 -113 -94 -124 -92 -148 1
-13 12 -36 24 -52 l22 -27 907 0 907 0 24 28 c42 49 33 78 -48 165 -78 83
-119 155 -143 249 -22 86 -23 116 -26 512 -2 382 -7 443 -49 555 -75 198 -233
352 -435 421 -58 20 -64 21 -130 29 -89 11 -119 12 -181 5z"/>
</g>
</svg>
