<svg viewBox="0 0 512 512" xmlns="http://www.w3.org/2000/svg"><g><path fill="currentColor" d="m339.587 59.893 5.657 94.479c.437 7.295-4.448 13.844-11.565 15.504-30.469 6.976-29.653 7.222-32.679 7.222-8.291 0-15-6.729-15-15v-100.994c-1.755-4.143-8.318-15.599-26.355-50.958-1.892-3.709-7.226-3.622-8.996.146-16.9 35.969-23.038 47.708-24.649 51.812v99.992c0 9.656-9.012 16.804-18.408 14.607l-29.271-6.829c-7.117-1.66-12.002-8.209-11.565-15.504l5.658-94.478c1.937-32.363-23.599-59.892-56.414-59.892l-9.806 206.906c-.113 2.38 1.47 4.51 3.781 5.087l93.301 23.325c13.355 3.34 22.724 15.339 22.724 29.105v26.465l30 9.091 30-9.091v-26.466c0-13.79 9.344-25.758 22.724-29.104l93.301-23.325c2.312-.578 3.895-2.707 3.781-5.087l-9.806-206.906c-32.676 0-58.36 27.399-56.413 59.893z"/><path fill="currentColor" d="m226 493.111v13.889c0 2.761 2.239 5 5 5h50c2.761 0 5-2.239 5-5v-13.889l-30-9.091z"/><path fill="currentColor" d="m76 310.479v163.041c0 15.961 14.741 27.63 30 24.486v-212.012c-15.258-3.145-30 8.514-30 24.485z"/><path fill="currentColor" d="m406 285.994v212.013c15.258 3.145 30-8.514 30-24.486v-163.042c0-15.959-14.728-27.633-30-24.485z"/><path fill="currentColor" d="m241 366.13-72.99 25.14 72.99 26.29z"/><path fill="currentColor" d="m271 417.56 72.99-26.29-72.99-25.14z"/><path fill="currentColor" d="m271 334.39 105 36.18v-75.61l-105 31.82z"/><path fill="currentColor" d="m241 326.79-105-31.83v75.61l105-36.18z"/><path fill="currentColor" d="m136 489.04 105-31.82v-7.77l-105-37.82z"/><path fill="currentColor" d="m271 457.22 105 31.82v-77.41l-105 37.82z"/></g></svg>