<svg xmlns="http://www.w3.org/2000/svg" viewBox="0 0 1024 1024">
<g transform="translate(0,1024) scale(0.1,-0.1)">
<path fill="currentColor" d="M4931 9443 c-69 -36 -76 -58 -73 -211 5 -223 7 -240 29 -265 11 -12
30 -33 41 -47 41 -49 58 -66 95 -93 20 -15 44 -42 53 -59 l16 -31 24 29 c24
29 24 31 19 189 -14 423 -17 444 -76 479 -45 26 -88 29 -128 9z M4680 8862
c-25 -8 -58 -42 -71 -75 -7 -18 -24 -49 -37 -69 -39 -61 -15 -127 66 -180 32
-21 59 -23 88 -5 178 105 191 152 77 274 -47 51 -84 68 -123 55z M5274 8604
c-21 -10 -39 -32 -55 -67 -19 -41 -33 -57 -71 -77 -58 -31 -82 -69 -75 -120
10 -79 97 -170 161 -170 34 0 60 15 118 69 51 46 65 55 121 76 53 20 82 54 86
103 3 37 -21 64 -132 145 -75 55 -108 64 -153 41z M4885 8431 c-3 -6 -4 -89
-3 -186 l2 -177 42 -20 c110 -51 186 -164 188 -282 1 -57 3 -63 19 -55 15 9
17 27 17 157 l0 147 -45 24 c-61 32 -127 102 -160 168 -28 59 -53 160 -51 206
2 29 1 32 -9 18z M4623 7929 c-43 -9 -74 -30 -120 -81 -21 -24 -64 -70 -95
-102 -51 -53 -58 -65 -58 -101 0 -32 8 -50 37 -85 63 -77 138 -132 184 -136
37 -2 45 2 105 60 36 35 103 84 150 110 104 59 124 83 124 148 0 99 -71 169
-186 183 -89 11 -109 11 -141 4z M5385 7699 c-16 -5 -59 -36 -95 -68 -36 -33
-92 -74 -125 -92 -79 -42 -93 -55 -101 -96 -9 -48 44 -155 88 -176 60 -29 110
-5 157 77 17 30 40 60 52 67 31 16 97 3 139 -29 78 -60 175 -20 175 73 0 41
-5 49 -60 105 -115 118 -176 154 -230 139z M4879 7423 c0 -10 -2 -56 -4 -103
-2 -47 -7 -157 -11 -245 -9 -165 -11 -475 -4 -579 l4 -60 97 -95 c53 -53 115
-123 137 -156 46 -70 88 -171 96 -235 4 -25 8 -54 10 -65 3 -11 5 -27 5 -36 1
-14 7 -13 45 5 24 12 42 24 40 27 -2 4 2 6 9 6 6 -1 42 8 79 20 36 12 86 24
110 28 51 7 69 26 112 115 27 57 31 77 33 160 1 66 -4 118 -18 170 -24 93 -71
220 -82 220 -18 0 -134 -87 -203 -152 -83 -79 -129 -143 -146 -202 l-11 -41
-13 55 c-7 30 -16 80 -20 110 -3 30 -9 64 -12 75 -3 11 -6 145 -7 297 l-1 278
-29 32 c-109 122 -193 269 -198 346 -2 41 -16 60 -18 25z M4542 6247 c-77
-204 -93 -336 -56 -449 17 -52 22 -57 59 -64 65 -12 186 -57 239 -89 67 -40
85 -39 117 7 57 80 55 226 -4 348 -38 78 -278 300 -326 300 -5 0 -18 -24 -29
-53z M5748 5695 c-2 -1 -44 -5 -94 -8 -50 -4 -103 -11 -117 -16 -15 -6 -27 -9
-27 -6 0 6 -101 -30 -137 -48 -45 -24 -140 -125 -165 -177 -34 -68 -33 -136 2
-196 15 -28 47 -63 71 -79 37 -27 51 -30 113 -30 54 1 82 6 116 24 125 65 187
136 240 274 30 78 75 246 67 253 -4 5 -65 12 -69 9z M4205 5463 c21 -119 74
-271 122 -346 59 -93 181 -174 278 -184 124 -13 228 76 234 200 5 98 -100 241
-214 293 -76 35 -211 61 -328 63 l-97 2 5 -28z M5869 5100 c-40 -50 -155 -139
-226 -174 -59 -29 -181 -66 -220 -66 -9 0 -13 -3 -10 -6 4 -4 46 -8 94 -10 71
-2 101 2 156 21 72 25 179 87 270 158 l56 44 -27 24 c-59 54 -57 54 -93 9z
M5053 4924 c-36 -73 -121 -161 -195 -203 l-58 -33 -1 -61 c-4 -219 -5 -263 -1
-274 3 -10 39 -13 133 -13 71 0 129 3 129 8 7 270 10 372 14 392 3 14 7 45 10
70 3 25 8 56 11 70 14 68 14 78 1 89 -11 10 -19 1 -43 -45z M3313 4065 c-2 -6
-2 -80 -1 -165 l3 -155 1808 -1 1807 0 0 163 c0 90 -3 164 -7 164 -5 1 -817 2
-1807 3 -1241 1 -1800 -2 -1803 -9z M3574 3421 c3 -31 8 -94 11 -141 7 -107
13 -195 20 -290 7 -95 13 -183 20 -290 3 -47 8 -110 10 -140 2 -30 7 -98 10
-150 3 -52 8 -115 10 -140 2 -25 6 -85 10 -135 3 -49 8 -121 10 -160 10 -137
15 -201 20 -290 4 -49 8 -110 10 -135 2 -25 7 -88 10 -140 3 -52 8 -120 10
-150 2 -30 7 -93 10 -140 4 -47 9 -87 12 -90 2 -3 623 -5 1379 -5 l1374 0 1
35 c1 19 2 46 4 60 1 14 6 77 10 140 3 63 8 131 10 150 2 19 6 82 10 140 4 58
8 121 10 140 2 19 6 85 10 145 4 61 8 126 10 145 2 19 6 85 10 145 4 61 8 126
10 145 2 19 6 85 10 145 4 61 8 126 10 145 2 19 6 85 10 145 4 61 8 126 10
145 2 19 6 85 10 145 4 61 8 126 10 145 6 60 17 243 19 290 l1 45 -1548 1
-1547 0 4 -55z"/>
</g>
</svg>
