<svg viewBox="0 0 511.917 511.917" xmlns="http://www.w3.org/2000/svg"><g><path fill="currentColor" d="m283.952 292.333c-.439 1.662-.91 3.311-1.42 4.944v105.075c10.692 1.852 20.793 5.448 30 10.484v-123.85c-5.726 2.158-12.399 3.347-28.58 3.347z"/><path fill="currentColor" d="m297.532 16.333c4.292 0 9.404.532 15 2.146v-18.479h-30v18.479c5.596-1.614 10.708-2.146 15-2.146z"/><path fill="currentColor" d="m497.069 181.781c-12.493-44.274-38.683-84.12-73.746-112.195-27.301-21.86-58.573-35.996-91.837-41.707 3.514 2.547 7.07 5.621 10.608 9.327 9.564 10.018 18.176 23.827 25.596 41.042 13.334 30.934 23.094 75.137 27.717 122.607h107.045z"/><path fill="currentColor" d="m297.532 46.333c-21.496 0-40.749 29.422-53.714 75.849 24.194 12.601 41.299 36.975 43.678 65.485h6.642c13.294 0 25.439 4.991 34.68 13.188h36.447c-8.728-89.377-35.747-154.522-67.733-154.522z"/><path fill="currentColor" d="m171.741 69.586c-15.471 12.388-29.206 27.074-40.808 43.414h84.294c3.586-12.665 7.646-24.311 12.147-34.753 7.42-17.215 16.032-31.023 25.596-41.042 3.538-3.707 7.094-6.78 10.608-9.327-33.264 5.712-64.537 19.848-91.837 41.708z"/><path fill="currentColor" d="m270.064 431.062c-29.535 21.128-81.142 53.927-129.318 80.854h192.729v-13.35c0-35.936-28.026-65.314-63.411-67.504z"/><path fill="currentColor" d="m237.304 358.479c-18.733 12.906-41.415 20.475-65.833 20.475-24.414 0-47.091-7.566-65.822-20.467v72.429h-28.533c-37.362 0-67.65 30.288-67.65 67.65v13.35h66.597c48.67-23.186 118.302-65.428 161.274-94.613z"/><path fill="currentColor" d="m48.804 217.667c-12.315 0-22.334 10.018-22.334 22.333s10.018 22.333 22.334 22.333h6.333v-44.666z"/><path fill="currentColor" d="m294.137 217.667h-6.334v44.666h6.334c12.314 0 22.333-10.019 22.333-22.333s-10.018-22.333-22.333-22.333z"/><path fill="currentColor" d="m171.47 348.954c47.605 0 86.333-38.729 86.333-86.333v-68.125c0-24.917-17.79-45.752-41.333-50.484v39.321c0 24.814-20.186 45-45 45s-45-20.186-45-45v-39.321c-23.543 4.732-41.333 25.567-41.333 50.484v68.125c0 47.605 38.729 86.333 86.333 86.333zm-15.156-77.844c3.123 5.4 8.931 8.755 15.156 8.755s12.033-3.354 15.158-8.756l25.967 15.023c-8.469 14.639-24.228 23.732-41.125 23.732-16.898 0-32.657-9.094-41.125-23.733z"/><path fill="currentColor" d="m156.47 183.333c0 8.272 6.729 15 15 15s15-6.728 15-15v-40.333h-30z"/></g></svg>