<svg viewBox="0 0 512 512" xmlns="http://www.w3.org/2000/svg"><g><path fill="currentColor" d="m183.194 257.596c-12.677-10.377-23.336-22.989-31.426-37.243h-29.156c-1.187 0-2.359-.059-3.524-.145-4.858 12.846-6.592 26.43-5.217 40.609 7.225-2.082 14.845-3.22 22.731-3.22h46.592z"/><path fill="currentColor" d="m350.514 257.596h55.062c7.892 0 15.519 1.14 22.749 3.225 2.306-23.557-4.003-45.36-18.865-65.002-4.096-5.414-8.433-10.091-12.546-14.018-5.393 25.24-18.025 48.461-36.885 67.192-3.058 3.037-6.235 5.904-9.515 8.603z"/><path fill="currentColor" d="m89.614 123.108h28.316c-6.517-10.22-10.318-22.381-10.318-35.433v-52.242h-53.431v52.243c0 19.537 15.895 35.432 35.433 35.432z"/><path fill="currentColor" d="m317.638 35.433h-180.026v52.243c0 19.538 15.476 35.433 34.498 35.433h16.499v30h-83.995v18.622c0 10.269 8.074 18.622 17.999 18.622h47.729l4.068 8.563c8.169 17.195 20.948 31.781 36.954 42.18 16.407 10.658 35.468 16.363 55.124 16.497 27.098.22 52.81-10.428 72.4-29.886 16.367-16.254 26.707-36.832 29.917-59.071-26.286-.607-47.487-22.163-47.487-48.593v-47.367h46.358c-6.463-21.518-26.444-37.243-50.038-37.243zm-61.55 37.243h30v30h-30z"/><path fill="currentColor" d="m384.881 102.676h-33.563v17.367c0 10.269 8.354 18.622 18.622 18.622h50.374v-.557c0-19.538-15.895-35.432-35.433-35.432z"/><path fill="currentColor" d="m353.332 287.596h37.244v224.404h-37.244z"/><path fill="currentColor" d="m271.088 324.839c23.594 0 43.576-15.726 50.038-37.243h-100.076c6.463 21.517 26.444 37.243 50.038 37.243z"/><path fill="currentColor" d="m420.576 289.801v222.199h37.243v-172.161c0-23.594-15.726-43.575-37.243-50.038z"/><path fill="currentColor" d="m121.602 289.801c-21.518 6.463-37.243 26.444-37.243 50.038v172.161h37.243z"/><path fill="currentColor" d="m323.332 403.31c-10.541 8.692-23.283 14.792-37.244 17.376v36.828h-30v-36.828c-13.96-2.585-26.702-8.684-37.243-17.376v108.69h104.487z"/><path fill="currentColor" d="m151.602 287.596h37.244v224.404h-37.244z"/><path fill="currentColor" d="m323.332 339.839v-3.772c-14.216 11.722-32.422 18.772-52.244 18.772s-38.027-7.049-52.243-18.772v3.772c0 28.807 23.436 52.243 52.243 52.243s52.244-23.436 52.244-52.243z"/><path fill="currentColor" d="m107.612 0h30v35.433h-30z"/></g></svg>