<svg xmlns="http://www.w3.org/2000/svg" viewBox="0 0 1024 1024">
<g transform="translate(0,1024) scale(0.1,-0.1)">
<path fill="currentColor" d="M3213 9790 l0 -450 804 0 803 0 0 -1050 0 -1050 -910 0 -910 0 0
-910 0 -910 -1050 0 -1050 0 0 803 0 804 -450 0 -450 0 0 -1907 0 -1907 450 0
450 0 0 804 0 803 1050 0 1050 0 0 -910 0 -910 910 0 910 0 0 -1050 0 -1050
-803 0 -804 0 0 -450 0 -450 1907 0 1907 0 0 450 0 450 -804 0 -803 0 0 1050
0 1050 910 0 910 0 0 910 0 910 1050 0 1050 0 0 -803 0 -804 450 0 450 0 0
1907 0 1907 -450 0 -450 0 0 -804 0 -803 -1050 0 -1050 0 0 910 0 910 -910 0
-910 0 0 1050 0 1050 803 0 804 0 0 450 0 450 -1907 0 -1907 0 0 -450z m2122
-3164 c33 -7 118 -24 150 -30 62 -12 234 -77 324 -123 309 -159 566 -430 701
-741 41 -95 84 -226 94 -282 3 -19 8 -46 11 -60 21 -100 28 -344 12 -465 -29
-239 -137 -506 -287 -710 -105 -143 -295 -313 -457 -408 -156 -92 -392 -173
-565 -194 -124 -15 -366 -9 -468 12 -14 3 -38 8 -55 10 -59 11 -198 57 -286
95 -381 165 -697 510 -828 905 -18 55 -35 111 -38 125 -2 14 -9 45 -14 69 -24
108 -33 375 -17 481 4 25 10 65 14 90 3 25 17 83 31 130 147 511 543 907 1053
1053 81 23 116 30 220 44 25 3 47 7 49 9 6 5 324 -4 356 -10z M4980 6030 c-19
-4 -50 -10 -68 -14 -321 -63 -615 -359 -688 -691 -18 -80 -22 -121 -22 -201 0
-446 305 -814 753 -910 66 -14 251 -13 329 2 332 64 607 304 710 619 47 146
57 360 22 495 -95 366 -368 625 -732 694 -81 15 -244 18 -304 6z m440 -910 l0
-300 -300 0 -300 0 0 300 0 300 300 0 300 0 0 -300z M1500 7380 l0 -1360 450
0 450 0 0 910 0 910 910 0 910 0 0 450 0 450 -1360 0 -1360 0 0 -1360z M6020
8290 l0 -450 910 0 910 0 0 -910 0 -910 450 0 450 0 0 1360 0 1360 -1360 0
-1360 0 0 -450z M1500 2860 l0 -1360 1360 0 1360 0 0 450 0 450 -910 0 -910 0
0 910 0 910 -450 0 -450 0 0 -1360z M7840 3310 l0 -910 -910 0 -910 0 0 -450
0 -450 1360 0 1360 0 0 1360 0 1360 -450 0 -450 0 0 -910z"/>
</g>
</svg>
